G04 #@! TF.FileFunction,Soldermask,Top*
%FSLAX46Y46*%
G04 Gerber Fmt 4.6, Leading zero omitted, Abs format (unit mm)*
G04 Created by KiCad (PCBNEW 4.0.2+dfsg1-stable) date Fri 10 Feb 2017 07:07:25 PM EST*
%MOMM*%
G01*
G04 APERTURE LIST*
%ADD10C,0.100000*%
%ADD11R,1.700000X1.700000*%
%ADD12C,1.700000*%
%ADD13R,1.800000X1.800000*%
%ADD14C,1.800000*%
%ADD15O,1.906220X3.414980*%
%ADD16C,2.099260*%
%ADD17R,2.099260X2.099260*%
%ADD18O,3.414980X1.906220*%
%ADD19C,2.398980*%
%ADD20R,1.797000X1.797000*%
%ADD21C,1.797000*%
%ADD22O,2.000000X2.000000*%
%ADD23C,1.901140*%
G04 APERTURE END LIST*
D10*
D11*
X53340000Y-165100000D03*
D12*
X55840000Y-165100000D03*
D11*
X58420000Y-165100000D03*
D12*
X60920000Y-165100000D03*
D13*
X53340000Y-170180000D03*
D14*
X61090000Y-170180000D03*
D11*
X60960000Y-22860000D03*
D12*
X58460000Y-22860000D03*
D11*
X33020000Y-33020000D03*
D12*
X35520000Y-33020000D03*
D11*
X53340000Y-33020000D03*
D12*
X55840000Y-33020000D03*
D11*
X78740000Y-33020000D03*
D12*
X81240000Y-33020000D03*
D11*
X101600000Y-33020000D03*
D12*
X104100000Y-33020000D03*
D11*
X121920000Y-33020000D03*
D12*
X124420000Y-33020000D03*
D11*
X132080000Y-22860000D03*
D12*
X132080000Y-25360000D03*
D11*
X33020000Y-78740000D03*
D12*
X35520000Y-78740000D03*
D11*
X53340000Y-78740000D03*
D12*
X55840000Y-78740000D03*
D11*
X101600000Y-78740000D03*
D12*
X104100000Y-78740000D03*
D11*
X121920000Y-78740000D03*
D12*
X124420000Y-78740000D03*
D11*
X121920000Y-121920000D03*
D12*
X124420000Y-121920000D03*
D11*
X139700000Y-33020000D03*
D12*
X142200000Y-33020000D03*
D11*
X139700000Y-60960000D03*
D12*
X142200000Y-60960000D03*
D11*
X43180000Y-121920000D03*
D12*
X45680000Y-121920000D03*
D11*
X55880000Y-121920000D03*
D12*
X58380000Y-121920000D03*
D11*
X68580000Y-121920000D03*
D12*
X71080000Y-121920000D03*
D11*
X139700000Y-88900000D03*
D12*
X142200000Y-88900000D03*
D11*
X139700000Y-114300000D03*
D12*
X142200000Y-114300000D03*
D11*
X93980000Y-121920000D03*
D12*
X96480000Y-121920000D03*
D11*
X106680000Y-121920000D03*
D12*
X109180000Y-121920000D03*
D11*
X30480000Y-149860000D03*
D12*
X32980000Y-149860000D03*
D11*
X43180000Y-149860000D03*
D12*
X45680000Y-149860000D03*
D11*
X93980000Y-149860000D03*
D12*
X96480000Y-149860000D03*
D11*
X68580000Y-149860000D03*
D12*
X71080000Y-149860000D03*
D11*
X81280000Y-149860000D03*
D12*
X83780000Y-149860000D03*
D11*
X121920000Y-160020000D03*
D12*
X124420000Y-160020000D03*
D11*
X30480000Y-180340000D03*
D12*
X32980000Y-180340000D03*
D11*
X43180000Y-180340000D03*
D12*
X45680000Y-180340000D03*
D11*
X55880000Y-180340000D03*
D12*
X58380000Y-180340000D03*
D11*
X68580000Y-180340000D03*
D12*
X71080000Y-180340000D03*
D11*
X81280000Y-180340000D03*
D12*
X83780000Y-180340000D03*
D11*
X93980000Y-180340000D03*
D12*
X96480000Y-180340000D03*
D11*
X106680000Y-180340000D03*
D12*
X109180000Y-180340000D03*
D11*
X121920000Y-198120000D03*
D12*
X124420000Y-198120000D03*
D15*
X68580000Y-228600000D03*
X71120000Y-228600000D03*
X88900000Y-228600000D03*
X91440000Y-228600000D03*
D16*
X53340520Y-22857460D03*
D17*
X43180520Y-22857460D03*
D18*
X142240000Y-143510000D03*
X142240000Y-146050000D03*
X142240000Y-148590000D03*
X142240000Y-151130000D03*
X142240000Y-153670000D03*
X142240000Y-156210000D03*
X142240000Y-173990000D03*
X142240000Y-176530000D03*
X142240000Y-179070000D03*
X142240000Y-181610000D03*
X142240000Y-184150000D03*
X142240000Y-186690000D03*
D15*
X69850000Y-22860000D03*
X72390000Y-22860000D03*
D19*
X60960000Y-154940000D03*
X53340000Y-154940000D03*
X53340000Y-160020000D03*
X60960000Y-160020000D03*
X69850000Y-220980000D03*
X77470000Y-220980000D03*
X139700000Y-223520000D03*
X139700000Y-215900000D03*
X92710000Y-220980000D03*
X100330000Y-220980000D03*
D20*
X81280000Y-24130000D03*
D21*
X83820000Y-24130000D03*
X86360000Y-24130000D03*
X88900000Y-24130000D03*
X91440000Y-24130000D03*
X93980000Y-24130000D03*
X96520000Y-24130000D03*
X99060000Y-24130000D03*
X101600000Y-24130000D03*
D20*
X86360000Y-124460000D03*
D21*
X86360000Y-127000000D03*
X86360000Y-129540000D03*
X86360000Y-132080000D03*
X86360000Y-134620000D03*
X86360000Y-137160000D03*
X86360000Y-139700000D03*
X86360000Y-142240000D03*
X86360000Y-144780000D03*
D20*
X82550000Y-124460000D03*
D21*
X82550000Y-127000000D03*
X82550000Y-129540000D03*
X82550000Y-132080000D03*
X82550000Y-134620000D03*
X82550000Y-137160000D03*
X82550000Y-139700000D03*
X82550000Y-142240000D03*
X82550000Y-144780000D03*
D20*
X78740000Y-124460000D03*
D21*
X78740000Y-127000000D03*
X78740000Y-129540000D03*
X78740000Y-132080000D03*
X78740000Y-134620000D03*
X78740000Y-137160000D03*
X78740000Y-139700000D03*
X78740000Y-142240000D03*
X78740000Y-144780000D03*
D15*
X57150000Y-228600000D03*
X59690000Y-228600000D03*
X62230000Y-228600000D03*
X46990000Y-228600000D03*
X49530000Y-228600000D03*
X52070000Y-228600000D03*
X36830000Y-228600000D03*
X39370000Y-228600000D03*
X41910000Y-228600000D03*
X97790000Y-228600000D03*
X100330000Y-228600000D03*
X102870000Y-228600000D03*
X77470000Y-228600000D03*
X80010000Y-228600000D03*
X82550000Y-228600000D03*
D22*
X40640000Y-154940000D03*
X40640000Y-157480000D03*
X40640000Y-160020000D03*
X40640000Y-162560000D03*
X48260000Y-162560000D03*
X48260000Y-160020000D03*
X48260000Y-157480000D03*
X48260000Y-154940000D03*
X27940000Y-127000000D03*
X27940000Y-129540000D03*
X27940000Y-132080000D03*
X27940000Y-134620000D03*
X27940000Y-137160000D03*
X27940000Y-139700000D03*
X27940000Y-142240000D03*
X35560000Y-142240000D03*
X35560000Y-139700000D03*
X35560000Y-137160000D03*
X35560000Y-134620000D03*
X35560000Y-132080000D03*
X35560000Y-129540000D03*
X35560000Y-127000000D03*
X40640000Y-127000000D03*
X40640000Y-129540000D03*
X40640000Y-132080000D03*
X40640000Y-134620000D03*
X40640000Y-137160000D03*
X40640000Y-139700000D03*
X40640000Y-142240000D03*
X48260000Y-142240000D03*
X48260000Y-139700000D03*
X48260000Y-137160000D03*
X48260000Y-134620000D03*
X48260000Y-132080000D03*
X48260000Y-129540000D03*
X48260000Y-127000000D03*
X27940000Y-185420000D03*
X27940000Y-187960000D03*
X27940000Y-190500000D03*
X27940000Y-193040000D03*
X27940000Y-195580000D03*
X27940000Y-198120000D03*
X27940000Y-200660000D03*
X35560000Y-200660000D03*
X35560000Y-198120000D03*
X35560000Y-195580000D03*
X35560000Y-193040000D03*
X35560000Y-190500000D03*
X35560000Y-187960000D03*
X35560000Y-185420000D03*
X27940000Y-154940000D03*
X27940000Y-157480000D03*
X27940000Y-160020000D03*
X27940000Y-162560000D03*
X27940000Y-165100000D03*
X27940000Y-167640000D03*
X27940000Y-170180000D03*
X35560000Y-170180000D03*
X35560000Y-167640000D03*
X35560000Y-165100000D03*
X35560000Y-162560000D03*
X35560000Y-160020000D03*
X35560000Y-157480000D03*
X35560000Y-154940000D03*
X53340000Y-127000000D03*
X53340000Y-129540000D03*
X53340000Y-132080000D03*
X53340000Y-134620000D03*
X53340000Y-137160000D03*
X53340000Y-139700000D03*
X53340000Y-142240000D03*
X60960000Y-142240000D03*
X60960000Y-139700000D03*
X60960000Y-137160000D03*
X60960000Y-134620000D03*
X60960000Y-132080000D03*
X60960000Y-129540000D03*
X60960000Y-127000000D03*
X66040000Y-154940000D03*
X66040000Y-157480000D03*
X66040000Y-160020000D03*
X66040000Y-162560000D03*
X66040000Y-165100000D03*
X66040000Y-167640000D03*
X66040000Y-170180000D03*
X73660000Y-170180000D03*
X73660000Y-167640000D03*
X73660000Y-165100000D03*
X73660000Y-162560000D03*
X73660000Y-160020000D03*
X73660000Y-157480000D03*
X73660000Y-154940000D03*
X53340000Y-185420000D03*
X53340000Y-187960000D03*
X53340000Y-190500000D03*
X53340000Y-193040000D03*
X53340000Y-195580000D03*
X53340000Y-198120000D03*
X53340000Y-200660000D03*
X60960000Y-200660000D03*
X60960000Y-198120000D03*
X60960000Y-195580000D03*
X60960000Y-193040000D03*
X60960000Y-190500000D03*
X60960000Y-187960000D03*
X60960000Y-185420000D03*
X66040000Y-185420000D03*
X66040000Y-187960000D03*
X66040000Y-190500000D03*
X66040000Y-193040000D03*
X66040000Y-195580000D03*
X66040000Y-198120000D03*
X66040000Y-200660000D03*
X73660000Y-200660000D03*
X73660000Y-198120000D03*
X73660000Y-195580000D03*
X73660000Y-193040000D03*
X73660000Y-190500000D03*
X73660000Y-187960000D03*
X73660000Y-185420000D03*
X78740000Y-185420000D03*
X78740000Y-187960000D03*
X78740000Y-190500000D03*
X78740000Y-193040000D03*
X78740000Y-195580000D03*
X78740000Y-198120000D03*
X78740000Y-200660000D03*
X86360000Y-200660000D03*
X86360000Y-198120000D03*
X86360000Y-195580000D03*
X86360000Y-193040000D03*
X86360000Y-190500000D03*
X86360000Y-187960000D03*
X86360000Y-185420000D03*
X91440000Y-185420000D03*
X91440000Y-187960000D03*
X91440000Y-190500000D03*
X91440000Y-193040000D03*
X91440000Y-195580000D03*
X91440000Y-198120000D03*
X91440000Y-200660000D03*
X99060000Y-200660000D03*
X99060000Y-198120000D03*
X99060000Y-195580000D03*
X99060000Y-193040000D03*
X99060000Y-190500000D03*
X99060000Y-187960000D03*
X99060000Y-185420000D03*
X104140000Y-127000000D03*
X104140000Y-129540000D03*
X104140000Y-132080000D03*
X104140000Y-134620000D03*
X104140000Y-137160000D03*
X104140000Y-139700000D03*
X104140000Y-142240000D03*
X104140000Y-144780000D03*
X111760000Y-144780000D03*
X111760000Y-142240000D03*
X111760000Y-139700000D03*
X111760000Y-137160000D03*
X111760000Y-134620000D03*
X111760000Y-132080000D03*
X111760000Y-129540000D03*
X111760000Y-127000000D03*
X91440000Y-154940000D03*
X91440000Y-157480000D03*
X91440000Y-160020000D03*
X91440000Y-162560000D03*
X91440000Y-165100000D03*
X91440000Y-167640000D03*
X91440000Y-170180000D03*
X91440000Y-172720000D03*
X99060000Y-172720000D03*
X99060000Y-170180000D03*
X99060000Y-167640000D03*
X99060000Y-165100000D03*
X99060000Y-162560000D03*
X99060000Y-160020000D03*
X99060000Y-157480000D03*
X99060000Y-154940000D03*
X104140000Y-185420000D03*
X104140000Y-187960000D03*
X104140000Y-190500000D03*
X104140000Y-193040000D03*
X104140000Y-195580000D03*
X104140000Y-198120000D03*
X104140000Y-200660000D03*
X111760000Y-200660000D03*
X111760000Y-198120000D03*
X111760000Y-195580000D03*
X111760000Y-193040000D03*
X111760000Y-190500000D03*
X111760000Y-187960000D03*
X111760000Y-185420000D03*
X91440000Y-127000000D03*
X91440000Y-129540000D03*
X91440000Y-132080000D03*
X91440000Y-134620000D03*
X91440000Y-137160000D03*
X91440000Y-139700000D03*
X91440000Y-142240000D03*
X99060000Y-142240000D03*
X99060000Y-139700000D03*
X99060000Y-137160000D03*
X99060000Y-134620000D03*
X99060000Y-132080000D03*
X99060000Y-129540000D03*
X99060000Y-127000000D03*
X66040000Y-127000000D03*
X66040000Y-129540000D03*
X66040000Y-132080000D03*
X66040000Y-134620000D03*
X66040000Y-137160000D03*
X66040000Y-139700000D03*
X66040000Y-142240000D03*
X73660000Y-142240000D03*
X73660000Y-139700000D03*
X73660000Y-137160000D03*
X73660000Y-134620000D03*
X73660000Y-132080000D03*
X73660000Y-129540000D03*
X73660000Y-127000000D03*
X78740000Y-154940000D03*
X78740000Y-157480000D03*
X78740000Y-160020000D03*
X78740000Y-162560000D03*
X78740000Y-165100000D03*
X78740000Y-167640000D03*
X78740000Y-170180000D03*
X78740000Y-172720000D03*
X86360000Y-172720000D03*
X86360000Y-170180000D03*
X86360000Y-167640000D03*
X86360000Y-165100000D03*
X86360000Y-162560000D03*
X86360000Y-160020000D03*
X86360000Y-157480000D03*
X86360000Y-154940000D03*
X40640000Y-185420000D03*
X40640000Y-187960000D03*
X40640000Y-190500000D03*
X40640000Y-193040000D03*
X40640000Y-195580000D03*
X40640000Y-198120000D03*
X40640000Y-200660000D03*
X40640000Y-203200000D03*
X40640000Y-205740000D03*
X40640000Y-208280000D03*
X48260000Y-208280000D03*
X48260000Y-205740000D03*
X48260000Y-203200000D03*
X48260000Y-200660000D03*
X48260000Y-198120000D03*
X48260000Y-195580000D03*
X48260000Y-193040000D03*
X48260000Y-190500000D03*
X48260000Y-187960000D03*
X48260000Y-185420000D03*
X127000000Y-20320000D03*
X124460000Y-20320000D03*
X121920000Y-20320000D03*
X119380000Y-20320000D03*
X116840000Y-20320000D03*
X114300000Y-20320000D03*
X111760000Y-20320000D03*
X109220000Y-20320000D03*
X109220000Y-27940000D03*
X111760000Y-27940000D03*
X114300000Y-27940000D03*
X116840000Y-27940000D03*
X119380000Y-27940000D03*
X121920000Y-27940000D03*
X124460000Y-27940000D03*
X127000000Y-27940000D03*
X137160000Y-38100000D03*
X137160000Y-40640000D03*
X137160000Y-43180000D03*
X137160000Y-45720000D03*
X137160000Y-48260000D03*
X137160000Y-50800000D03*
X137160000Y-53340000D03*
X137160000Y-55880000D03*
X144780000Y-55880000D03*
X144780000Y-53340000D03*
X144780000Y-50800000D03*
X144780000Y-48260000D03*
X144780000Y-45720000D03*
X144780000Y-43180000D03*
X144780000Y-40640000D03*
X144780000Y-38100000D03*
X137160000Y-66040000D03*
X137160000Y-68580000D03*
X137160000Y-71120000D03*
X137160000Y-73660000D03*
X137160000Y-76200000D03*
X137160000Y-78740000D03*
X137160000Y-81280000D03*
X137160000Y-83820000D03*
X144780000Y-83820000D03*
X144780000Y-81280000D03*
X144780000Y-78740000D03*
X144780000Y-76200000D03*
X144780000Y-73660000D03*
X144780000Y-71120000D03*
X144780000Y-68580000D03*
X144780000Y-66040000D03*
X137160000Y-119380000D03*
X137160000Y-121920000D03*
X137160000Y-124460000D03*
X137160000Y-127000000D03*
X137160000Y-129540000D03*
X137160000Y-132080000D03*
X137160000Y-134620000D03*
X144780000Y-134620000D03*
X144780000Y-132080000D03*
X144780000Y-129540000D03*
X144780000Y-127000000D03*
X144780000Y-124460000D03*
X144780000Y-121920000D03*
X144780000Y-119380000D03*
X137160000Y-93980000D03*
X137160000Y-96520000D03*
X137160000Y-99060000D03*
X137160000Y-101600000D03*
X137160000Y-104140000D03*
X137160000Y-106680000D03*
X137160000Y-109220000D03*
X144780000Y-109220000D03*
X144780000Y-106680000D03*
X144780000Y-104140000D03*
X144780000Y-101600000D03*
X144780000Y-99060000D03*
X144780000Y-96520000D03*
X144780000Y-93980000D03*
D23*
X139700000Y-208180940D03*
X139700000Y-203299060D03*
D22*
X116840000Y-203200000D03*
X116840000Y-205740000D03*
X116840000Y-208280000D03*
X116840000Y-210820000D03*
X116840000Y-213360000D03*
X116840000Y-215900000D03*
X116840000Y-218440000D03*
X116840000Y-220980000D03*
X116840000Y-223520000D03*
X116840000Y-226060000D03*
X116840000Y-228600000D03*
X116840000Y-231140000D03*
X132080000Y-231140000D03*
X132080000Y-228600000D03*
X132080000Y-226060000D03*
X132080000Y-223520000D03*
X132080000Y-220980000D03*
X132080000Y-218440000D03*
X132080000Y-215900000D03*
X132080000Y-213360000D03*
X132080000Y-210820000D03*
X132080000Y-208280000D03*
X132080000Y-205740000D03*
X132080000Y-203200000D03*
X116840000Y-165100000D03*
X116840000Y-167640000D03*
X116840000Y-170180000D03*
X116840000Y-172720000D03*
X116840000Y-175260000D03*
X116840000Y-177800000D03*
X116840000Y-180340000D03*
X116840000Y-182880000D03*
X116840000Y-185420000D03*
X116840000Y-187960000D03*
X116840000Y-190500000D03*
X116840000Y-193040000D03*
X132080000Y-193040000D03*
X132080000Y-190500000D03*
X132080000Y-187960000D03*
X132080000Y-185420000D03*
X132080000Y-182880000D03*
X132080000Y-180340000D03*
X132080000Y-177800000D03*
X132080000Y-175260000D03*
X132080000Y-172720000D03*
X132080000Y-170180000D03*
X132080000Y-167640000D03*
X132080000Y-165100000D03*
X68580000Y-38100000D03*
X68580000Y-40640000D03*
X68580000Y-43180000D03*
X68580000Y-45720000D03*
X68580000Y-48260000D03*
X68580000Y-50800000D03*
X68580000Y-53340000D03*
X68580000Y-55880000D03*
X68580000Y-58420000D03*
X68580000Y-60960000D03*
X68580000Y-63500000D03*
X68580000Y-66040000D03*
X68580000Y-68580000D03*
X68580000Y-71120000D03*
X68580000Y-73660000D03*
X68580000Y-76200000D03*
X68580000Y-78740000D03*
X68580000Y-81280000D03*
X68580000Y-83820000D03*
X68580000Y-86360000D03*
X68580000Y-88900000D03*
X68580000Y-91440000D03*
X68580000Y-93980000D03*
X68580000Y-96520000D03*
X68580000Y-99060000D03*
X68580000Y-101600000D03*
X68580000Y-104140000D03*
X68580000Y-106680000D03*
X68580000Y-109220000D03*
X68580000Y-111760000D03*
X68580000Y-114300000D03*
X68580000Y-116840000D03*
X91440000Y-116840000D03*
X91440000Y-114300000D03*
X91440000Y-111760000D03*
X91440000Y-109220000D03*
X91440000Y-106680000D03*
X91440000Y-104140000D03*
X91440000Y-101600000D03*
X91440000Y-99060000D03*
X91440000Y-96520000D03*
X91440000Y-93980000D03*
X91440000Y-91440000D03*
X91440000Y-88900000D03*
X91440000Y-86360000D03*
X91440000Y-83820000D03*
X91440000Y-81280000D03*
X91440000Y-78740000D03*
X91440000Y-76200000D03*
X91440000Y-73660000D03*
X91440000Y-71120000D03*
X91440000Y-68580000D03*
X91440000Y-66040000D03*
X91440000Y-63500000D03*
X91440000Y-60960000D03*
X91440000Y-58420000D03*
X91440000Y-55880000D03*
X91440000Y-53340000D03*
X91440000Y-50800000D03*
X91440000Y-48260000D03*
X91440000Y-45720000D03*
X91440000Y-43180000D03*
X91440000Y-40640000D03*
X91440000Y-38100000D03*
X27940000Y-38100000D03*
X27940000Y-40640000D03*
X27940000Y-43180000D03*
X27940000Y-45720000D03*
X27940000Y-48260000D03*
X27940000Y-50800000D03*
X27940000Y-53340000D03*
X27940000Y-55880000D03*
X27940000Y-58420000D03*
X27940000Y-60960000D03*
X27940000Y-63500000D03*
X27940000Y-66040000D03*
X27940000Y-68580000D03*
X27940000Y-71120000D03*
X43180000Y-71120000D03*
X43180000Y-68580000D03*
X43180000Y-66040000D03*
X43180000Y-63500000D03*
X43180000Y-60960000D03*
X43180000Y-58420000D03*
X43180000Y-55880000D03*
X43180000Y-53340000D03*
X43180000Y-50800000D03*
X43180000Y-48260000D03*
X43180000Y-45720000D03*
X43180000Y-43180000D03*
X43180000Y-40640000D03*
X43180000Y-38100000D03*
X27940000Y-83820000D03*
X27940000Y-86360000D03*
X27940000Y-88900000D03*
X27940000Y-91440000D03*
X27940000Y-93980000D03*
X27940000Y-96520000D03*
X27940000Y-99060000D03*
X27940000Y-101600000D03*
X27940000Y-104140000D03*
X27940000Y-106680000D03*
X27940000Y-109220000D03*
X27940000Y-111760000D03*
X27940000Y-114300000D03*
X27940000Y-116840000D03*
X43180000Y-116840000D03*
X43180000Y-114300000D03*
X43180000Y-111760000D03*
X43180000Y-109220000D03*
X43180000Y-106680000D03*
X43180000Y-104140000D03*
X43180000Y-101600000D03*
X43180000Y-99060000D03*
X43180000Y-96520000D03*
X43180000Y-93980000D03*
X43180000Y-91440000D03*
X43180000Y-88900000D03*
X43180000Y-86360000D03*
X43180000Y-83820000D03*
X48260000Y-38100000D03*
X48260000Y-40640000D03*
X48260000Y-43180000D03*
X48260000Y-45720000D03*
X48260000Y-48260000D03*
X48260000Y-50800000D03*
X48260000Y-53340000D03*
X48260000Y-55880000D03*
X48260000Y-58420000D03*
X48260000Y-60960000D03*
X48260000Y-63500000D03*
X48260000Y-66040000D03*
X48260000Y-68580000D03*
X48260000Y-71120000D03*
X63500000Y-71120000D03*
X63500000Y-68580000D03*
X63500000Y-66040000D03*
X63500000Y-63500000D03*
X63500000Y-60960000D03*
X63500000Y-58420000D03*
X63500000Y-55880000D03*
X63500000Y-53340000D03*
X63500000Y-50800000D03*
X63500000Y-48260000D03*
X63500000Y-45720000D03*
X63500000Y-43180000D03*
X63500000Y-40640000D03*
X63500000Y-38100000D03*
X48260000Y-83820000D03*
X48260000Y-86360000D03*
X48260000Y-88900000D03*
X48260000Y-91440000D03*
X48260000Y-93980000D03*
X48260000Y-96520000D03*
X48260000Y-99060000D03*
X48260000Y-101600000D03*
X48260000Y-104140000D03*
X48260000Y-106680000D03*
X48260000Y-109220000D03*
X48260000Y-111760000D03*
X48260000Y-114300000D03*
X48260000Y-116840000D03*
X63500000Y-116840000D03*
X63500000Y-114300000D03*
X63500000Y-111760000D03*
X63500000Y-109220000D03*
X63500000Y-106680000D03*
X63500000Y-104140000D03*
X63500000Y-101600000D03*
X63500000Y-99060000D03*
X63500000Y-96520000D03*
X63500000Y-93980000D03*
X63500000Y-91440000D03*
X63500000Y-88900000D03*
X63500000Y-86360000D03*
X63500000Y-83820000D03*
X96520000Y-38100000D03*
X96520000Y-40640000D03*
X96520000Y-43180000D03*
X96520000Y-45720000D03*
X96520000Y-48260000D03*
X96520000Y-50800000D03*
X96520000Y-53340000D03*
X96520000Y-55880000D03*
X96520000Y-58420000D03*
X96520000Y-60960000D03*
X96520000Y-63500000D03*
X96520000Y-66040000D03*
X96520000Y-68580000D03*
X96520000Y-71120000D03*
X111760000Y-71120000D03*
X111760000Y-68580000D03*
X111760000Y-66040000D03*
X111760000Y-63500000D03*
X111760000Y-60960000D03*
X111760000Y-58420000D03*
X111760000Y-55880000D03*
X111760000Y-53340000D03*
X111760000Y-50800000D03*
X111760000Y-48260000D03*
X111760000Y-45720000D03*
X111760000Y-43180000D03*
X111760000Y-40640000D03*
X111760000Y-38100000D03*
X96520000Y-83820000D03*
X96520000Y-86360000D03*
X96520000Y-88900000D03*
X96520000Y-91440000D03*
X96520000Y-93980000D03*
X96520000Y-96520000D03*
X96520000Y-99060000D03*
X96520000Y-101600000D03*
X96520000Y-104140000D03*
X96520000Y-106680000D03*
X96520000Y-109220000D03*
X96520000Y-111760000D03*
X96520000Y-114300000D03*
X96520000Y-116840000D03*
X111760000Y-116840000D03*
X111760000Y-114300000D03*
X111760000Y-111760000D03*
X111760000Y-109220000D03*
X111760000Y-106680000D03*
X111760000Y-104140000D03*
X111760000Y-101600000D03*
X111760000Y-99060000D03*
X111760000Y-96520000D03*
X111760000Y-93980000D03*
X111760000Y-91440000D03*
X111760000Y-88900000D03*
X111760000Y-86360000D03*
X111760000Y-83820000D03*
X116840000Y-38100000D03*
X116840000Y-40640000D03*
X116840000Y-43180000D03*
X116840000Y-45720000D03*
X116840000Y-48260000D03*
X116840000Y-50800000D03*
X116840000Y-53340000D03*
X116840000Y-55880000D03*
X116840000Y-58420000D03*
X116840000Y-60960000D03*
X116840000Y-63500000D03*
X116840000Y-66040000D03*
X116840000Y-68580000D03*
X116840000Y-71120000D03*
X132080000Y-71120000D03*
X132080000Y-68580000D03*
X132080000Y-66040000D03*
X132080000Y-63500000D03*
X132080000Y-60960000D03*
X132080000Y-58420000D03*
X132080000Y-55880000D03*
X132080000Y-53340000D03*
X132080000Y-50800000D03*
X132080000Y-48260000D03*
X132080000Y-45720000D03*
X132080000Y-43180000D03*
X132080000Y-40640000D03*
X132080000Y-38100000D03*
X116840000Y-83820000D03*
X116840000Y-86360000D03*
X116840000Y-88900000D03*
X116840000Y-91440000D03*
X116840000Y-93980000D03*
X116840000Y-96520000D03*
X116840000Y-99060000D03*
X116840000Y-101600000D03*
X116840000Y-104140000D03*
X116840000Y-106680000D03*
X116840000Y-109220000D03*
X116840000Y-111760000D03*
X116840000Y-114300000D03*
X116840000Y-116840000D03*
X132080000Y-116840000D03*
X132080000Y-114300000D03*
X132080000Y-111760000D03*
X132080000Y-109220000D03*
X132080000Y-106680000D03*
X132080000Y-104140000D03*
X132080000Y-101600000D03*
X132080000Y-99060000D03*
X132080000Y-96520000D03*
X132080000Y-93980000D03*
X132080000Y-91440000D03*
X132080000Y-88900000D03*
X132080000Y-86360000D03*
X132080000Y-83820000D03*
X116840000Y-127000000D03*
X116840000Y-129540000D03*
X116840000Y-132080000D03*
X116840000Y-134620000D03*
X116840000Y-137160000D03*
X116840000Y-139700000D03*
X116840000Y-142240000D03*
X116840000Y-144780000D03*
X116840000Y-147320000D03*
X116840000Y-149860000D03*
X116840000Y-152400000D03*
X116840000Y-154940000D03*
X132080000Y-154940000D03*
X132080000Y-152400000D03*
X132080000Y-149860000D03*
X132080000Y-147320000D03*
X132080000Y-144780000D03*
X132080000Y-142240000D03*
X132080000Y-139700000D03*
X132080000Y-137160000D03*
X132080000Y-134620000D03*
X132080000Y-132080000D03*
X132080000Y-129540000D03*
X132080000Y-127000000D03*
D15*
X107950000Y-154940000D03*
X105410000Y-154940000D03*
X105410000Y-160020000D03*
X107950000Y-160020000D03*
X107950000Y-165100000D03*
X105410000Y-165100000D03*
X105410000Y-170180000D03*
X107950000Y-170180000D03*
X140970000Y-162560000D03*
X143510000Y-162560000D03*
X140970000Y-193040000D03*
X143510000Y-193040000D03*
M02*
