M48
;DRILL file {KiCad 4.0.2+dfsg1-stable} date Fri 10 Feb 2017 07:06:30 PM EST
;FORMAT={-:-/ absolute / inch / decimal}
FMAT,2
INCH,TZ
T1C0.016
T2C0.028
T3C0.031
T4C0.032
T5C0.032
T6C0.035
T7C0.039
T8C0.039
T9C0.118
%
G90
G05
M72
T1
X1.0374Y-3.8484
X1.0555Y-6.7787
X1.1428Y-7.1484
X1.1701Y-4.2978
X1.1899Y-4.0686
X1.2076Y-4.019
X1.2252Y-3.6554
X1.2402Y-6.0907
X1.2843Y-6.1609
X1.3142Y-3.4557
X1.3316Y-3.5557
X1.3429Y-3.3251
X1.3554Y-5.7984
X1.3701Y-5.9682
X1.4045Y-4.9267
X1.4578Y-7.4579
X1.4861Y-3.3099
X1.4877Y-5.7833
X1.5009Y-4.8611
X1.5019Y-7.7934
X1.5284Y-4.9251
X1.5413Y-2.4002
X1.6103Y-3.3186
X1.6309Y-4.1745
X1.688Y-7.706
X1.731Y-5.8357
X1.7319Y-5.7391
X1.7477Y-4.0724
X1.7521Y-5.911
X1.7554Y-3.7474
X1.7896Y-2.4122
X1.8022Y-4.2515
X1.8095Y-7.5571
X1.836Y-4.2374
X1.8904Y-2.859
X1.9335Y-6.0334
X1.9626Y-5.6336
X1.9649Y-3.0438
X1.9691Y-6.3792
X1.9817Y-7.8785
X1.9904Y-4.2991
X2.0025Y-5.2632
X2.0121Y-5.8602
X2.0132Y-7.7071
X2.0227Y-2.9952
X2.0307Y-6.1618
X2.0492Y-1.8284
X2.1085Y-7.1364
X2.1257Y-1.7907
X2.1443Y-5.92
X2.152Y-7.4997
X2.1527Y-7.6536
X2.1722Y-6.3782
X2.1758Y-4.6381
X2.203Y-2.8283
X2.2041Y-7.4326
X2.209Y-2.9697
X2.2241Y-3.5576
X2.2417Y-2.7582
X2.243Y-5.3264
X2.2645Y-5.7528
X2.2735Y-7.3015
X2.2754Y-6.2754
X2.2836Y-5.7261
X2.2891Y-3.2726
X2.3133Y-5.2788
X2.3149Y-4.1429
X2.3733Y-7.2016
X2.3769Y-6.4227
X2.3855Y-2.8543
X2.4042Y-1.3964
X2.4197Y-4.8934
X2.4443Y-7.3592
X2.448Y-4.6506
X2.4528Y-5.7794
X2.4546Y-3.9526
X2.4714Y-6.2617
X2.5018Y-4.8461
X2.5193Y-7.8645
X2.5255Y-1.2909
X2.5604Y-8.0882
X2.5607Y-5.9235
X2.5825Y-4.4698
X2.5865Y-1.3144
X2.588Y-1.7475
X2.5939Y-2.168
X2.6Y-5.8256
X2.6Y-6.979
X2.6005Y-4.5444
X2.6295Y-2.8583
X2.6502Y-1.3353
X2.6511Y-8.4675
X2.6532Y-7.0322
X2.6557Y-3.231
X2.6927Y-7.1786
X2.6946Y-4.7006
X2.7068Y-5.5893
X2.7111Y-8.4429
X2.7137Y-7.2107
X2.7224Y-5.3224
X2.7386Y-3.8341
X2.7539Y-7.4192
X2.7603Y-4.1547
X2.7717Y-5.0001
X2.78Y-7.8694
X2.7944Y-5.0407
X2.7995Y-6.8481
X2.8016Y-2.9048
X2.8095Y-5.3514
X2.8096Y-8.5052
X2.8192Y-7.8721
X2.8236Y-2.7346
X2.8247Y-6.5307
X2.8276Y-7.2683
X2.8396Y-4.6344
X2.8471Y-6.5542
X2.8848Y-4.0239
X2.9623Y-3.1295
X2.9711Y-6.1949
X2.9884Y-6.2819
X2.9958Y-6.8481
X3.0061Y-6.7385
X3.0063Y-5.0562
X3.0182Y-2.8176
X3.0184Y-3.6154
X3.0224Y-7.8443
X3.0285Y-4.528
X3.0307Y-6.8035
X3.0338Y-3.2847
X3.0353Y-2.6787
X3.0358Y-3.7277
X3.0447Y-4.4303
X3.0468Y-3.6358
X3.0499Y-3.5766
X3.0624Y-3.3915
X3.0624Y-3.4585
X3.1089Y-2.8736
X3.1298Y-6.9024
X3.1424Y-2.8652
X3.1494Y-7.4492
X3.1761Y-2.7833
X3.1944Y-3.6915
X3.1994Y-3.4383
X3.1994Y-3.5571
X3.2114Y-3.9464
X3.2301Y-4.0203
X3.2547Y-6.7305
X3.2695Y-7.8131
X3.2947Y-7.1485
X3.2954Y-7.7603
X3.2959Y-4.7318
X3.347Y-3.8685
X3.3947Y-2.5212
X3.4001Y-1.7388
X3.4033Y-7.1458
X3.4308Y-2.5214
X3.4341Y-5.8664
X3.4356Y-2.5538
X3.4518Y-4.1419
X3.4539Y-7.5312
X3.4574Y-5.8887
X3.4784Y-4.818
X3.4964Y-2.5262
X3.5002Y-7.3251
X3.5012Y-5.5935
X3.5096Y-4.2211
X3.5114Y-2.5641
X3.5131Y-4.1882
X3.5193Y-2.8726
X3.5261Y-4.4985
X3.5262Y-5.5423
X3.5306Y-3.5853
X3.5353Y-8.2169
X3.5394Y-3.4769
X3.5394Y-2.8262
X3.5443Y-5.787
X3.5722Y-5.7608
X3.5809Y-4.8469
X3.6111Y-8.1018
X3.6139Y-5.6827
X3.6152Y-7.0201
X3.633Y-2.3533
X3.6382Y-5.5651
X3.6388Y-2.9662
X3.6391Y-4.7738
X3.6515Y-3.4347
X3.6518Y-3.1096
X3.6536Y-1.4179
X3.6645Y-8.1042
X3.6668Y-3.987
X3.6724Y-4.025
X3.674Y-7.9166
X3.6834Y-3.1299
X3.7015Y-6.2007
X3.7184Y-1.958
X3.727Y-2.7667
X3.7286Y-6.1633
X3.7552Y-6.3429
X3.7826Y-7.6215
X3.8452Y-3.9727
X3.8626Y-7.7624
X3.8676Y-2.8965
X3.8824Y-3.8805
X3.9078Y-2.5256
X3.9099Y-4.6797
X3.9152Y-3.9477
X3.9367Y-3.1174
X3.9428Y-4.2428
X3.9489Y-5.176
X3.9596Y-4.3175
X4.0036Y-2.9934
X4.0299Y-3.8482
X4.0405Y-1.6805
X4.0831Y-2.8284
X4.0937Y-3.8211
X4.0984Y-1.771
X4.1001Y-4.4277
X4.167Y-7.8356
X4.1804Y-6.0309
X4.184Y-1.972
X4.2Y-6.1474
X4.2014Y-5.1694
X4.2588Y-2.2782
X4.26Y-4.1931
X4.2637Y-5.0736
X4.2884Y-5.2521
X4.3166Y-5.7624
X4.3252Y-4.9161
X4.3525Y-2.25
X4.3606Y-5.5662
X4.3684Y-4.6492
X4.3715Y-4.7459
X4.4865Y-3.9528
X4.4882Y-3.1765
X4.4939Y-4.4621
X4.4956Y-2.3157
X4.512Y-3.0249
X4.5185Y-4.2953
X4.5211Y-4.8977
X4.5437Y-4.5576
X4.5466Y-2.7093
X4.5729Y-4.9174
X4.5868Y-3.1594
X4.6007Y-7.6704
X4.6369Y-3.2618
X4.6599Y-5.4624
X4.6709Y-3.87
X4.6975Y-4.4462
X4.6994Y-3.7612
X4.7048Y-3.6699
X4.7223Y-3.4445
X4.7517Y-6.8624
X4.7606Y-4.8975
X4.8226Y-4.9533
X4.894Y-4.5707
X4.8989Y-3.2516
X4.9167Y-4.9987
X4.92Y-6.0045
X4.9335Y-4.7019
X4.9367Y-5.8546
X4.9545Y-5.8062
X4.9717Y-3.7923
X4.9895Y-4.
X5.0393Y-3.4676
X5.0529Y-3.1026
X5.0543Y-5.4431
X5.0639Y-4.3287
X5.1086Y-3.5382
X5.1086Y-4.0394
X5.1091Y-6.5141
X5.1609Y-2.8949
X5.2412Y-2.75
X5.2797Y-2.8501
X5.4714Y-2.519
X5.4726Y-2.9211
X5.59Y-5.0944
X5.6297Y-3.4079
T2
X1.7Y-0.8999
X2.1Y-0.8999
T3
X1.1Y-1.5
X1.1Y-1.6
X1.1Y-1.7
X1.1Y-1.8
X1.1Y-1.9
X1.1Y-2.
X1.1Y-2.1
X1.1Y-2.2
X1.1Y-2.3
X1.1Y-2.4
X1.1Y-2.5
X1.1Y-2.6
X1.1Y-2.7
X1.1Y-2.8
X1.1Y-3.3
X1.1Y-3.4
X1.1Y-3.5
X1.1Y-3.6
X1.1Y-3.7
X1.1Y-3.8
X1.1Y-3.9
X1.1Y-4.
X1.1Y-4.1
X1.1Y-4.2
X1.1Y-4.3
X1.1Y-4.4
X1.1Y-4.5
X1.1Y-4.6
X1.1Y-5.
X1.1Y-5.1
X1.1Y-5.2
X1.1Y-5.3
X1.1Y-5.4
X1.1Y-5.5
X1.1Y-5.6
X1.1Y-6.1
X1.1Y-6.2
X1.1Y-6.3
X1.1Y-6.4
X1.1Y-6.5
X1.1Y-6.6
X1.1Y-6.7
X1.1Y-7.3
X1.1Y-7.4
X1.1Y-7.5
X1.1Y-7.6
X1.1Y-7.7
X1.1Y-7.8
X1.1Y-7.9
X1.2Y-5.9
X1.2Y-7.1
X1.3Y-1.3
X1.3Y-3.1
X1.4Y-5.
X1.4Y-5.1
X1.4Y-5.2
X1.4Y-5.3
X1.4Y-5.4
X1.4Y-5.5
X1.4Y-5.6
X1.4Y-6.1
X1.4Y-6.2
X1.4Y-6.3
X1.4Y-6.4
X1.4Y-6.5
X1.4Y-6.6
X1.4Y-6.7
X1.4Y-7.3
X1.4Y-7.4
X1.4Y-7.5
X1.4Y-7.6
X1.4Y-7.7
X1.4Y-7.8
X1.4Y-7.9
X1.6Y-5.
X1.6Y-5.1
X1.6Y-5.2
X1.6Y-5.3
X1.6Y-5.4
X1.6Y-5.5
X1.6Y-5.6
X1.6Y-6.1
X1.6Y-6.2
X1.6Y-6.3
X1.6Y-6.4
X1.6Y-7.3
X1.6Y-7.4
X1.6Y-7.5
X1.6Y-7.6
X1.6Y-7.7
X1.6Y-7.8
X1.6Y-7.9
X1.6Y-8.
X1.6Y-8.1
X1.6Y-8.2
X1.7Y-1.5
X1.7Y-1.6
X1.7Y-1.7
X1.7Y-1.8
X1.7Y-1.9
X1.7Y-2.
X1.7Y-2.1
X1.7Y-2.2
X1.7Y-2.3
X1.7Y-2.4
X1.7Y-2.5
X1.7Y-2.6
X1.7Y-2.7
X1.7Y-2.8
X1.7Y-3.3
X1.7Y-3.4
X1.7Y-3.5
X1.7Y-3.6
X1.7Y-3.7
X1.7Y-3.8
X1.7Y-3.9
X1.7Y-4.
X1.7Y-4.1
X1.7Y-4.2
X1.7Y-4.3
X1.7Y-4.4
X1.7Y-4.5
X1.7Y-4.6
X1.7Y-4.8
X1.7Y-5.9
X1.7Y-7.1
X1.9Y-1.5
X1.9Y-1.6
X1.9Y-1.7
X1.9Y-1.8
X1.9Y-1.9
X1.9Y-2.
X1.9Y-2.1
X1.9Y-2.2
X1.9Y-2.3
X1.9Y-2.4
X1.9Y-2.5
X1.9Y-2.6
X1.9Y-2.7
X1.9Y-2.8
X1.9Y-3.3
X1.9Y-3.4
X1.9Y-3.5
X1.9Y-3.6
X1.9Y-3.7
X1.9Y-3.8
X1.9Y-3.9
X1.9Y-4.
X1.9Y-4.1
X1.9Y-4.2
X1.9Y-4.3
X1.9Y-4.4
X1.9Y-4.5
X1.9Y-4.6
X1.9Y-5.
X1.9Y-5.1
X1.9Y-5.2
X1.9Y-5.3
X1.9Y-5.4
X1.9Y-5.5
X1.9Y-5.6
X1.9Y-6.1
X1.9Y-6.2
X1.9Y-6.3
X1.9Y-6.4
X1.9Y-7.3
X1.9Y-7.4
X1.9Y-7.5
X1.9Y-7.6
X1.9Y-7.7
X1.9Y-7.8
X1.9Y-7.9
X1.9Y-8.
X1.9Y-8.1
X1.9Y-8.2
X2.1Y-1.3
X2.1Y-3.1
X2.1Y-5.
X2.1Y-5.1
X2.1Y-5.2
X2.1Y-5.3
X2.1Y-5.4
X2.1Y-5.5
X2.1Y-5.6
X2.1Y-6.5
X2.1Y-7.3
X2.1Y-7.4
X2.1Y-7.5
X2.1Y-7.6
X2.1Y-7.7
X2.1Y-7.8
X2.1Y-7.9
X2.2Y-4.8
X2.2Y-7.1
X2.3Y-6.5
X2.3016Y-0.9
X2.4Y-0.9
X2.4Y-5.
X2.4Y-5.1
X2.4Y-5.2
X2.4Y-5.3
X2.4Y-5.4
X2.4Y-5.5
X2.4Y-5.6
X2.4Y-7.3
X2.4Y-7.4
X2.4Y-7.5
X2.4Y-7.6
X2.4Y-7.7
X2.4Y-7.8
X2.4Y-7.9
X2.5Y-1.5
X2.5Y-1.6
X2.5Y-1.7
X2.5Y-1.8
X2.5Y-1.9
X2.5Y-2.
X2.5Y-2.1
X2.5Y-2.2
X2.5Y-2.3
X2.5Y-2.4
X2.5Y-2.5
X2.5Y-2.6
X2.5Y-2.7
X2.5Y-2.8
X2.5Y-3.3
X2.5Y-3.4
X2.5Y-3.5
X2.5Y-3.6
X2.5Y-3.7
X2.5Y-3.8
X2.5Y-3.9
X2.5Y-4.
X2.5Y-4.1
X2.5Y-4.2
X2.5Y-4.3
X2.5Y-4.4
X2.5Y-4.5
X2.5Y-4.6
X2.6Y-5.
X2.6Y-5.1
X2.6Y-5.2
X2.6Y-5.3
X2.6Y-5.4
X2.6Y-5.5
X2.6Y-5.6
X2.6Y-6.1
X2.6Y-6.2
X2.6Y-6.3
X2.6Y-6.4
X2.6Y-6.5
X2.6Y-6.6
X2.6Y-6.7
X2.6Y-7.3
X2.6Y-7.4
X2.6Y-7.5
X2.6Y-7.6
X2.6Y-7.7
X2.6Y-7.8
X2.6Y-7.9
X2.7Y-1.5
X2.7Y-1.6
X2.7Y-1.7
X2.7Y-1.8
X2.7Y-1.9
X2.7Y-2.
X2.7Y-2.1
X2.7Y-2.2
X2.7Y-2.3
X2.7Y-2.4
X2.7Y-2.5
X2.7Y-2.6
X2.7Y-2.7
X2.7Y-2.8
X2.7Y-2.9
X2.7Y-3.
X2.7Y-3.1
X2.7Y-3.2
X2.7Y-3.3
X2.7Y-3.4
X2.7Y-3.5
X2.7Y-3.6
X2.7Y-3.7
X2.7Y-3.8
X2.7Y-3.9
X2.7Y-4.
X2.7Y-4.1
X2.7Y-4.2
X2.7Y-4.3
X2.7Y-4.4
X2.7Y-4.5
X2.7Y-4.6
X2.7Y-4.8
X2.7Y-5.9
X2.7Y-7.1
X2.9Y-5.
X2.9Y-5.1
X2.9Y-5.2
X2.9Y-5.3
X2.9Y-5.4
X2.9Y-5.5
X2.9Y-5.6
X2.9Y-6.1
X2.9Y-6.2
X2.9Y-6.3
X2.9Y-6.4
X2.9Y-6.5
X2.9Y-6.6
X2.9Y-6.7
X2.9Y-7.3
X2.9Y-7.4
X2.9Y-7.5
X2.9Y-7.6
X2.9Y-7.7
X2.9Y-7.8
X2.9Y-7.9
X3.1Y-1.3
X3.1Y-6.1
X3.1Y-6.2
X3.1Y-6.3
X3.1Y-6.4
X3.1Y-6.5
X3.1Y-6.6
X3.1Y-6.7
X3.1Y-6.8
X3.1Y-7.3
X3.1Y-7.4
X3.1Y-7.5
X3.1Y-7.6
X3.1Y-7.7
X3.1Y-7.8
X3.1Y-7.9
X3.2Y-5.9
X3.2Y-7.1
X3.4Y-6.1
X3.4Y-6.2
X3.4Y-6.3
X3.4Y-6.4
X3.4Y-6.5
X3.4Y-6.6
X3.4Y-6.7
X3.4Y-6.8
X3.4Y-7.3
X3.4Y-7.4
X3.4Y-7.5
X3.4Y-7.6
X3.4Y-7.7
X3.4Y-7.8
X3.4Y-7.9
X3.6Y-1.5
X3.6Y-1.6
X3.6Y-1.7
X3.6Y-1.8
X3.6Y-1.9
X3.6Y-2.
X3.6Y-2.1
X3.6Y-2.2
X3.6Y-2.3
X3.6Y-2.4
X3.6Y-2.5
X3.6Y-2.6
X3.6Y-2.7
X3.6Y-2.8
X3.6Y-2.9
X3.6Y-3.
X3.6Y-3.1
X3.6Y-3.2
X3.6Y-3.3
X3.6Y-3.4
X3.6Y-3.5
X3.6Y-3.6
X3.6Y-3.7
X3.6Y-3.8
X3.6Y-3.9
X3.6Y-4.
X3.6Y-4.1
X3.6Y-4.2
X3.6Y-4.3
X3.6Y-4.4
X3.6Y-4.5
X3.6Y-4.6
X3.6Y-5.
X3.6Y-5.1
X3.6Y-5.2
X3.6Y-5.3
X3.6Y-5.4
X3.6Y-5.5
X3.6Y-5.6
X3.6Y-6.1
X3.6Y-6.2
X3.6Y-6.3
X3.6Y-6.4
X3.6Y-6.5
X3.6Y-6.6
X3.6Y-6.7
X3.6Y-6.8
X3.6Y-7.3
X3.6Y-7.4
X3.6Y-7.5
X3.6Y-7.6
X3.6Y-7.7
X3.6Y-7.8
X3.6Y-7.9
X3.7Y-4.8
X3.7Y-5.9
X3.7Y-7.1
X3.8Y-1.5
X3.8Y-1.6
X3.8Y-1.7
X3.8Y-1.8
X3.8Y-1.9
X3.8Y-2.
X3.8Y-2.1
X3.8Y-2.2
X3.8Y-2.3
X3.8Y-2.4
X3.8Y-2.5
X3.8Y-2.6
X3.8Y-2.7
X3.8Y-2.8
X3.8Y-3.3
X3.8Y-3.4
X3.8Y-3.5
X3.8Y-3.6
X3.8Y-3.7
X3.8Y-3.8
X3.8Y-3.9
X3.8Y-4.
X3.8Y-4.1
X3.8Y-4.2
X3.8Y-4.3
X3.8Y-4.4
X3.8Y-4.5
X3.8Y-4.6
X3.9Y-5.
X3.9Y-5.1
X3.9Y-5.2
X3.9Y-5.3
X3.9Y-5.4
X3.9Y-5.5
X3.9Y-5.6
X3.9Y-6.1
X3.9Y-6.2
X3.9Y-6.3
X3.9Y-6.4
X3.9Y-6.5
X3.9Y-6.6
X3.9Y-6.7
X3.9Y-6.8
X3.9Y-7.3
X3.9Y-7.4
X3.9Y-7.5
X3.9Y-7.6
X3.9Y-7.7
X3.9Y-7.8
X3.9Y-7.9
X4.Y-1.3
X4.Y-3.1
X4.1Y-5.
X4.1Y-5.1
X4.1Y-5.2
X4.1Y-5.3
X4.1Y-5.4
X4.1Y-5.5
X4.1Y-5.6
X4.1Y-5.7
X4.1Y-7.3
X4.1Y-7.4
X4.1Y-7.5
X4.1Y-7.6
X4.1Y-7.7
X4.1Y-7.8
X4.1Y-7.9
X4.2Y-4.8
X4.2Y-7.1
X4.3Y-0.8
X4.3Y-1.1
X4.4Y-0.8
X4.4Y-1.1
X4.4Y-1.5
X4.4Y-1.6
X4.4Y-1.7
X4.4Y-1.8
X4.4Y-1.9
X4.4Y-2.
X4.4Y-2.1
X4.4Y-2.2
X4.4Y-2.3
X4.4Y-2.4
X4.4Y-2.5
X4.4Y-2.6
X4.4Y-2.7
X4.4Y-2.8
X4.4Y-3.3
X4.4Y-3.4
X4.4Y-3.5
X4.4Y-3.6
X4.4Y-3.7
X4.4Y-3.8
X4.4Y-3.9
X4.4Y-4.
X4.4Y-4.1
X4.4Y-4.2
X4.4Y-4.3
X4.4Y-4.4
X4.4Y-4.5
X4.4Y-4.6
X4.4Y-5.
X4.4Y-5.1
X4.4Y-5.2
X4.4Y-5.3
X4.4Y-5.4
X4.4Y-5.5
X4.4Y-5.6
X4.4Y-5.7
X4.4Y-7.3
X4.4Y-7.4
X4.4Y-7.5
X4.4Y-7.6
X4.4Y-7.7
X4.4Y-7.8
X4.4Y-7.9
X4.5Y-0.8
X4.5Y-1.1
X4.6Y-0.8
X4.6Y-1.1
X4.6Y-1.5
X4.6Y-1.6
X4.6Y-1.7
X4.6Y-1.8
X4.6Y-1.9
X4.6Y-2.
X4.6Y-2.1
X4.6Y-2.2
X4.6Y-2.3
X4.6Y-2.4
X4.6Y-2.5
X4.6Y-2.6
X4.6Y-2.7
X4.6Y-2.8
X4.6Y-3.3
X4.6Y-3.4
X4.6Y-3.5
X4.6Y-3.6
X4.6Y-3.7
X4.6Y-3.8
X4.6Y-3.9
X4.6Y-4.
X4.6Y-4.1
X4.6Y-4.2
X4.6Y-4.3
X4.6Y-4.4
X4.6Y-4.5
X4.6Y-4.6
X4.6Y-5.
X4.6Y-5.1
X4.6Y-5.2
X4.6Y-5.3
X4.6Y-5.4
X4.6Y-5.5
X4.6Y-5.6
X4.6Y-5.7
X4.6Y-5.8
X4.6Y-5.9
X4.6Y-6.
X4.6Y-6.1
X4.6Y-6.5
X4.6Y-6.6
X4.6Y-6.7
X4.6Y-6.8
X4.6Y-6.9
X4.6Y-7.
X4.6Y-7.1
X4.6Y-7.2
X4.6Y-7.3
X4.6Y-7.4
X4.6Y-7.5
X4.6Y-7.6
X4.6Y-8.
X4.6Y-8.1
X4.6Y-8.2
X4.6Y-8.3
X4.6Y-8.4
X4.6Y-8.5
X4.6Y-8.6
X4.6Y-8.7
X4.6Y-8.8
X4.6Y-8.9
X4.6Y-9.
X4.6Y-9.1
X4.7Y-0.8
X4.7Y-1.1
X4.8Y-0.8
X4.8Y-1.1
X4.8Y-1.3
X4.8Y-3.1
X4.8Y-4.8
X4.8Y-6.3
X4.8Y-7.8
X4.9Y-0.8
X4.9Y-1.1
X5.Y-0.8
X5.Y-1.1
X5.2Y-0.9
X5.2Y-1.5
X5.2Y-1.6
X5.2Y-1.7
X5.2Y-1.8
X5.2Y-1.9
X5.2Y-2.
X5.2Y-2.1
X5.2Y-2.2
X5.2Y-2.3
X5.2Y-2.4
X5.2Y-2.5
X5.2Y-2.6
X5.2Y-2.7
X5.2Y-2.8
X5.2Y-3.3
X5.2Y-3.4
X5.2Y-3.5
X5.2Y-3.6
X5.2Y-3.7
X5.2Y-3.8
X5.2Y-3.9
X5.2Y-4.
X5.2Y-4.1
X5.2Y-4.2
X5.2Y-4.3
X5.2Y-4.4
X5.2Y-4.5
X5.2Y-4.6
X5.2Y-5.
X5.2Y-5.1
X5.2Y-5.2
X5.2Y-5.3
X5.2Y-5.4
X5.2Y-5.5
X5.2Y-5.6
X5.2Y-5.7
X5.2Y-5.8
X5.2Y-5.9
X5.2Y-6.
X5.2Y-6.1
X5.2Y-6.5
X5.2Y-6.6
X5.2Y-6.7
X5.2Y-6.8
X5.2Y-6.9
X5.2Y-7.
X5.2Y-7.1
X5.2Y-7.2
X5.2Y-7.3
X5.2Y-7.4
X5.2Y-7.5
X5.2Y-7.6
X5.2Y-8.
X5.2Y-8.1
X5.2Y-8.2
X5.2Y-8.3
X5.2Y-8.4
X5.2Y-8.5
X5.2Y-8.6
X5.2Y-8.7
X5.2Y-8.8
X5.2Y-8.9
X5.2Y-9.
X5.2Y-9.1
X5.4Y-1.5
X5.4Y-1.6
X5.4Y-1.7
X5.4Y-1.8
X5.4Y-1.9
X5.4Y-2.
X5.4Y-2.1
X5.4Y-2.2
X5.4Y-2.6
X5.4Y-2.7
X5.4Y-2.8
X5.4Y-2.9
X5.4Y-3.
X5.4Y-3.1
X5.4Y-3.2
X5.4Y-3.3
X5.4Y-3.7
X5.4Y-3.8
X5.4Y-3.9
X5.4Y-4.
X5.4Y-4.1
X5.4Y-4.2
X5.4Y-4.3
X5.4Y-4.7
X5.4Y-4.8
X5.4Y-4.9
X5.4Y-5.
X5.4Y-5.1
X5.4Y-5.2
X5.4Y-5.3
X5.5Y-1.3
X5.5Y-2.4
X5.5Y-3.5
X5.5Y-4.5
X5.7Y-1.5
X5.7Y-1.6
X5.7Y-1.7
X5.7Y-1.8
X5.7Y-1.9
X5.7Y-2.
X5.7Y-2.1
X5.7Y-2.2
X5.7Y-2.6
X5.7Y-2.7
X5.7Y-2.8
X5.7Y-2.9
X5.7Y-3.
X5.7Y-3.1
X5.7Y-3.2
X5.7Y-3.3
X5.7Y-3.7
X5.7Y-3.8
X5.7Y-3.9
X5.7Y-4.
X5.7Y-4.1
X5.7Y-4.2
X5.7Y-4.3
X5.7Y-4.7
X5.7Y-4.8
X5.7Y-4.9
X5.7Y-5.
X5.7Y-5.1
X5.7Y-5.2
X5.7Y-5.3
T4
X1.2984Y-5.9
X1.2984Y-7.1
X1.3984Y-1.3
X1.3984Y-3.1
X1.7984Y-4.8
X1.7984Y-5.9
X1.7984Y-7.1
X2.1984Y-1.3
X2.1984Y-3.1
X2.1984Y-6.5
X2.2984Y-4.8
X2.2984Y-7.1
X2.3984Y-6.5
X2.7984Y-4.8
X2.7984Y-5.9
X2.7984Y-7.1
X3.1984Y-1.3
X3.2984Y-5.9
X3.2984Y-7.1
X3.7984Y-4.8
X3.7984Y-5.9
X3.7984Y-7.1
X4.0984Y-1.3
X4.0984Y-3.1
X4.2984Y-4.8
X4.2984Y-7.1
X4.8984Y-1.3
X4.8984Y-3.1
X4.8984Y-4.8
X4.8984Y-6.3
X4.8984Y-7.8
X5.2Y-0.9984
X5.5Y-8.0039
X5.5Y-8.1961
X5.5984Y-1.3
X5.5984Y-2.4
X5.5984Y-3.5
X5.5984Y-4.5
T5
X3.1Y-4.9
X3.1Y-5.
X3.1Y-5.1
X3.1Y-5.2
X3.1Y-5.3
X3.1Y-5.4
X3.1Y-5.5
X3.1Y-5.6
X3.1Y-5.7
X3.2Y-0.95
X3.25Y-4.9
X3.25Y-5.
X3.25Y-5.1
X3.25Y-5.2
X3.25Y-5.3
X3.25Y-5.4
X3.25Y-5.5
X3.25Y-5.6
X3.25Y-5.7
X3.3Y-0.95
X3.4Y-0.95
X3.4Y-4.9
X3.4Y-5.
X3.4Y-5.1
X3.4Y-5.2
X3.4Y-5.3
X3.4Y-5.4
X3.4Y-5.5
X3.4Y-5.6
X3.4Y-5.7
X3.5Y-0.95
X3.6Y-0.95
X3.7Y-0.95
X3.8Y-0.95
X3.9Y-0.95
X4.Y-0.95
T6
X2.1Y-6.7
X2.4051Y-6.7
T7
X1.45Y-9.
X1.55Y-9.
X1.65Y-9.
X1.85Y-9.
X1.95Y-9.
X2.05Y-9.
X2.25Y-9.
X2.35Y-9.
X2.45Y-9.
X2.7Y-9.
X2.75Y-0.9
X2.8Y-9.
X2.85Y-0.9
X3.05Y-9.
X3.15Y-9.
X3.25Y-9.
X3.5Y-9.
X3.6Y-9.
X3.85Y-9.
X3.95Y-9.
X4.05Y-9.
X4.15Y-6.1
X4.15Y-6.3
X4.15Y-6.5
X4.15Y-6.7
X4.25Y-6.1
X4.25Y-6.3
X4.25Y-6.5
X4.25Y-6.7
X5.55Y-6.4
X5.55Y-7.6
X5.6Y-5.65
X5.6Y-5.75
X5.6Y-5.85
X5.6Y-5.95
X5.6Y-6.05
X5.6Y-6.15
X5.6Y-6.85
X5.6Y-6.95
X5.6Y-7.05
X5.6Y-7.15
X5.6Y-7.25
X5.6Y-7.35
X5.65Y-6.4
X5.65Y-7.6
T8
X2.1Y-6.1
X2.1Y-6.3
X2.4Y-6.1
X2.4Y-6.3
X2.75Y-8.7
X3.05Y-8.7
X3.65Y-8.7
X3.95Y-8.7
X5.5Y-8.5
X5.5Y-8.8
T9
X1.2Y-0.9
X1.2Y-9.
X5.6Y-0.9
X5.6Y-9.
T0
M30
