G04 #@! TF.FileFunction,Soldermask,Bot*
%FSLAX46Y46*%
G04 Gerber Fmt 4.6, Leading zero omitted, Abs format (unit mm)*
G04 Created by KiCad (PCBNEW 4.0.2+dfsg1-stable) date Thu 01 Jun 2017 06:03:18 PM EDT*
%MOMM*%
G01*
G04 APERTURE LIST*
%ADD10C,0.100000*%
%ADD11C,2.400000*%
%ADD12R,2.400000X2.400000*%
%ADD13R,1.700000X1.700000*%
%ADD14C,1.700000*%
%ADD15R,1.800000X1.800000*%
%ADD16C,1.800000*%
%ADD17O,1.906220X3.414980*%
%ADD18C,2.398980*%
%ADD19R,1.797000X1.797000*%
%ADD20C,1.797000*%
%ADD21O,2.000000X2.000000*%
%ADD22C,1.901140*%
%ADD23O,3.414980X1.906220*%
G04 APERTURE END LIST*
D10*
D11*
X53340520Y-22857460D03*
D12*
X43180520Y-22857460D03*
D13*
X53340000Y-165100000D03*
D14*
X55840000Y-165100000D03*
D13*
X58420000Y-165100000D03*
D14*
X60920000Y-165100000D03*
D15*
X53340000Y-170180000D03*
D16*
X61090000Y-170180000D03*
D13*
X60960000Y-22860000D03*
D14*
X58460000Y-22860000D03*
D13*
X36830000Y-33020000D03*
D14*
X34330000Y-33020000D03*
D13*
X57150000Y-33020000D03*
D14*
X54650000Y-33020000D03*
D13*
X78740000Y-33020000D03*
D14*
X81240000Y-33020000D03*
D13*
X105410000Y-33020000D03*
D14*
X102910000Y-33020000D03*
D13*
X125730000Y-33020000D03*
D14*
X123230000Y-33020000D03*
D13*
X121920000Y-149860000D03*
D14*
X119420000Y-149860000D03*
D13*
X36830000Y-78740000D03*
D14*
X34330000Y-78740000D03*
D13*
X57150000Y-78740000D03*
D14*
X54650000Y-78740000D03*
D13*
X104140000Y-78740000D03*
D14*
X101640000Y-78740000D03*
D13*
X125730000Y-78740000D03*
D14*
X123230000Y-78740000D03*
D13*
X146050000Y-33020000D03*
D14*
X143550000Y-33020000D03*
D13*
X134620000Y-149860000D03*
D14*
X132120000Y-149860000D03*
D13*
X147320000Y-180340000D03*
D14*
X144820000Y-180340000D03*
D13*
X45720000Y-121920000D03*
D14*
X43220000Y-121920000D03*
D13*
X58420000Y-121920000D03*
D14*
X55920000Y-121920000D03*
D13*
X71120000Y-121920000D03*
D14*
X68620000Y-121920000D03*
D13*
X134620000Y-121920000D03*
D14*
X132120000Y-121920000D03*
D13*
X121920000Y-121920000D03*
D14*
X119420000Y-121920000D03*
D13*
X96520000Y-121920000D03*
D14*
X94020000Y-121920000D03*
D13*
X109220000Y-121920000D03*
D14*
X106720000Y-121920000D03*
D13*
X33020000Y-149860000D03*
D14*
X30520000Y-149860000D03*
D13*
X45720000Y-149860000D03*
D14*
X43220000Y-149860000D03*
D13*
X96520000Y-149860000D03*
D14*
X94020000Y-149860000D03*
D13*
X71120000Y-149860000D03*
D14*
X68620000Y-149860000D03*
D13*
X83820000Y-149860000D03*
D14*
X81320000Y-149860000D03*
D13*
X146050000Y-78740000D03*
D14*
X143550000Y-78740000D03*
D13*
X33020000Y-180340000D03*
D14*
X30520000Y-180340000D03*
D13*
X45720000Y-180340000D03*
D14*
X43220000Y-180340000D03*
D13*
X58420000Y-180340000D03*
D14*
X55920000Y-180340000D03*
D13*
X71120000Y-180340000D03*
D14*
X68620000Y-180340000D03*
D13*
X83820000Y-180340000D03*
D14*
X81320000Y-180340000D03*
D13*
X96520000Y-180340000D03*
D14*
X94020000Y-180340000D03*
D13*
X109220000Y-180340000D03*
D14*
X106720000Y-180340000D03*
D13*
X121920000Y-180340000D03*
D14*
X119420000Y-180340000D03*
D17*
X68580000Y-214630000D03*
X71120000Y-214630000D03*
X88900000Y-214630000D03*
X91440000Y-214630000D03*
X86360000Y-22860000D03*
X88900000Y-22860000D03*
X91440000Y-22860000D03*
X93980000Y-22860000D03*
X96520000Y-22860000D03*
X99060000Y-22860000D03*
X114300000Y-22860000D03*
X116840000Y-22860000D03*
X119380000Y-22860000D03*
X121920000Y-22860000D03*
X124460000Y-22860000D03*
X127000000Y-22860000D03*
X69850000Y-22860000D03*
X72390000Y-22860000D03*
D18*
X60960000Y-154940000D03*
X53340000Y-154940000D03*
X53340000Y-160020000D03*
X60960000Y-160020000D03*
X69850000Y-207010000D03*
X77470000Y-207010000D03*
X147320000Y-139700000D03*
X147320000Y-132080000D03*
X92710000Y-207010000D03*
X100330000Y-207010000D03*
D19*
X113030000Y-173990000D03*
D20*
X113030000Y-171450000D03*
X113030000Y-168910000D03*
X113030000Y-166370000D03*
X113030000Y-163830000D03*
X113030000Y-161290000D03*
X113030000Y-158750000D03*
X113030000Y-156210000D03*
X113030000Y-153670000D03*
D19*
X86360000Y-124460000D03*
D20*
X86360000Y-127000000D03*
X86360000Y-129540000D03*
X86360000Y-132080000D03*
X86360000Y-134620000D03*
X86360000Y-137160000D03*
X86360000Y-139700000D03*
X86360000Y-142240000D03*
X86360000Y-144780000D03*
D19*
X82550000Y-124460000D03*
D20*
X82550000Y-127000000D03*
X82550000Y-129540000D03*
X82550000Y-132080000D03*
X82550000Y-134620000D03*
X82550000Y-137160000D03*
X82550000Y-139700000D03*
X82550000Y-142240000D03*
X82550000Y-144780000D03*
D19*
X78740000Y-124460000D03*
D20*
X78740000Y-127000000D03*
X78740000Y-129540000D03*
X78740000Y-132080000D03*
X78740000Y-134620000D03*
X78740000Y-137160000D03*
X78740000Y-139700000D03*
X78740000Y-142240000D03*
X78740000Y-144780000D03*
D17*
X57150000Y-214630000D03*
X59690000Y-214630000D03*
X62230000Y-214630000D03*
X46990000Y-214630000D03*
X49530000Y-214630000D03*
X52070000Y-214630000D03*
X36830000Y-214630000D03*
X39370000Y-214630000D03*
X41910000Y-214630000D03*
X97790000Y-214630000D03*
X100330000Y-214630000D03*
X102870000Y-214630000D03*
X77470000Y-214630000D03*
X80010000Y-214630000D03*
X82550000Y-214630000D03*
D21*
X40640000Y-154940000D03*
X40640000Y-157480000D03*
X40640000Y-160020000D03*
X40640000Y-162560000D03*
X48260000Y-162560000D03*
X48260000Y-160020000D03*
X48260000Y-157480000D03*
X48260000Y-154940000D03*
X27940000Y-127000000D03*
X27940000Y-129540000D03*
X27940000Y-132080000D03*
X27940000Y-134620000D03*
X27940000Y-137160000D03*
X27940000Y-139700000D03*
X27940000Y-142240000D03*
X35560000Y-142240000D03*
X35560000Y-139700000D03*
X35560000Y-137160000D03*
X35560000Y-134620000D03*
X35560000Y-132080000D03*
X35560000Y-129540000D03*
X35560000Y-127000000D03*
X40640000Y-127000000D03*
X40640000Y-129540000D03*
X40640000Y-132080000D03*
X40640000Y-134620000D03*
X40640000Y-137160000D03*
X40640000Y-139700000D03*
X40640000Y-142240000D03*
X48260000Y-142240000D03*
X48260000Y-139700000D03*
X48260000Y-137160000D03*
X48260000Y-134620000D03*
X48260000Y-132080000D03*
X48260000Y-129540000D03*
X48260000Y-127000000D03*
X27940000Y-185420000D03*
X27940000Y-187960000D03*
X27940000Y-190500000D03*
X27940000Y-193040000D03*
X27940000Y-195580000D03*
X27940000Y-198120000D03*
X27940000Y-200660000D03*
X35560000Y-200660000D03*
X35560000Y-198120000D03*
X35560000Y-195580000D03*
X35560000Y-193040000D03*
X35560000Y-190500000D03*
X35560000Y-187960000D03*
X35560000Y-185420000D03*
X27940000Y-154940000D03*
X27940000Y-157480000D03*
X27940000Y-160020000D03*
X27940000Y-162560000D03*
X27940000Y-165100000D03*
X27940000Y-167640000D03*
X27940000Y-170180000D03*
X35560000Y-170180000D03*
X35560000Y-167640000D03*
X35560000Y-165100000D03*
X35560000Y-162560000D03*
X35560000Y-160020000D03*
X35560000Y-157480000D03*
X35560000Y-154940000D03*
X53340000Y-127000000D03*
X53340000Y-129540000D03*
X53340000Y-132080000D03*
X53340000Y-134620000D03*
X53340000Y-137160000D03*
X53340000Y-139700000D03*
X53340000Y-142240000D03*
X60960000Y-142240000D03*
X60960000Y-139700000D03*
X60960000Y-137160000D03*
X60960000Y-134620000D03*
X60960000Y-132080000D03*
X60960000Y-129540000D03*
X60960000Y-127000000D03*
X66040000Y-154940000D03*
X66040000Y-157480000D03*
X66040000Y-160020000D03*
X66040000Y-162560000D03*
X66040000Y-165100000D03*
X66040000Y-167640000D03*
X66040000Y-170180000D03*
X73660000Y-170180000D03*
X73660000Y-167640000D03*
X73660000Y-165100000D03*
X73660000Y-162560000D03*
X73660000Y-160020000D03*
X73660000Y-157480000D03*
X73660000Y-154940000D03*
X53340000Y-185420000D03*
X53340000Y-187960000D03*
X53340000Y-190500000D03*
X53340000Y-193040000D03*
X53340000Y-195580000D03*
X53340000Y-198120000D03*
X53340000Y-200660000D03*
X60960000Y-200660000D03*
X60960000Y-198120000D03*
X60960000Y-195580000D03*
X60960000Y-193040000D03*
X60960000Y-190500000D03*
X60960000Y-187960000D03*
X60960000Y-185420000D03*
X66040000Y-185420000D03*
X66040000Y-187960000D03*
X66040000Y-190500000D03*
X66040000Y-193040000D03*
X66040000Y-195580000D03*
X66040000Y-198120000D03*
X66040000Y-200660000D03*
X73660000Y-200660000D03*
X73660000Y-198120000D03*
X73660000Y-195580000D03*
X73660000Y-193040000D03*
X73660000Y-190500000D03*
X73660000Y-187960000D03*
X73660000Y-185420000D03*
X78740000Y-185420000D03*
X78740000Y-187960000D03*
X78740000Y-190500000D03*
X78740000Y-193040000D03*
X78740000Y-195580000D03*
X78740000Y-198120000D03*
X78740000Y-200660000D03*
X86360000Y-200660000D03*
X86360000Y-198120000D03*
X86360000Y-195580000D03*
X86360000Y-193040000D03*
X86360000Y-190500000D03*
X86360000Y-187960000D03*
X86360000Y-185420000D03*
X91440000Y-185420000D03*
X91440000Y-187960000D03*
X91440000Y-190500000D03*
X91440000Y-193040000D03*
X91440000Y-195580000D03*
X91440000Y-198120000D03*
X91440000Y-200660000D03*
X99060000Y-200660000D03*
X99060000Y-198120000D03*
X99060000Y-195580000D03*
X99060000Y-193040000D03*
X99060000Y-190500000D03*
X99060000Y-187960000D03*
X99060000Y-185420000D03*
X104140000Y-127000000D03*
X104140000Y-129540000D03*
X104140000Y-132080000D03*
X104140000Y-134620000D03*
X104140000Y-137160000D03*
X104140000Y-139700000D03*
X104140000Y-142240000D03*
X104140000Y-144780000D03*
X111760000Y-144780000D03*
X111760000Y-142240000D03*
X111760000Y-139700000D03*
X111760000Y-137160000D03*
X111760000Y-134620000D03*
X111760000Y-132080000D03*
X111760000Y-129540000D03*
X111760000Y-127000000D03*
X91440000Y-154940000D03*
X91440000Y-157480000D03*
X91440000Y-160020000D03*
X91440000Y-162560000D03*
X91440000Y-165100000D03*
X91440000Y-167640000D03*
X91440000Y-170180000D03*
X91440000Y-172720000D03*
X99060000Y-172720000D03*
X99060000Y-170180000D03*
X99060000Y-167640000D03*
X99060000Y-165100000D03*
X99060000Y-162560000D03*
X99060000Y-160020000D03*
X99060000Y-157480000D03*
X99060000Y-154940000D03*
X104140000Y-185420000D03*
X104140000Y-187960000D03*
X104140000Y-190500000D03*
X104140000Y-193040000D03*
X104140000Y-195580000D03*
X104140000Y-198120000D03*
X104140000Y-200660000D03*
X111760000Y-200660000D03*
X111760000Y-198120000D03*
X111760000Y-195580000D03*
X111760000Y-193040000D03*
X111760000Y-190500000D03*
X111760000Y-187960000D03*
X111760000Y-185420000D03*
X91440000Y-127000000D03*
X91440000Y-129540000D03*
X91440000Y-132080000D03*
X91440000Y-134620000D03*
X91440000Y-137160000D03*
X91440000Y-139700000D03*
X91440000Y-142240000D03*
X99060000Y-142240000D03*
X99060000Y-139700000D03*
X99060000Y-137160000D03*
X99060000Y-134620000D03*
X99060000Y-132080000D03*
X99060000Y-129540000D03*
X99060000Y-127000000D03*
X66040000Y-127000000D03*
X66040000Y-129540000D03*
X66040000Y-132080000D03*
X66040000Y-134620000D03*
X66040000Y-137160000D03*
X66040000Y-139700000D03*
X66040000Y-142240000D03*
X73660000Y-142240000D03*
X73660000Y-139700000D03*
X73660000Y-137160000D03*
X73660000Y-134620000D03*
X73660000Y-132080000D03*
X73660000Y-129540000D03*
X73660000Y-127000000D03*
X78740000Y-154940000D03*
X78740000Y-157480000D03*
X78740000Y-160020000D03*
X78740000Y-162560000D03*
X78740000Y-165100000D03*
X78740000Y-167640000D03*
X78740000Y-170180000D03*
X78740000Y-172720000D03*
X86360000Y-172720000D03*
X86360000Y-170180000D03*
X86360000Y-167640000D03*
X86360000Y-165100000D03*
X86360000Y-162560000D03*
X86360000Y-160020000D03*
X86360000Y-157480000D03*
X86360000Y-154940000D03*
X116840000Y-127000000D03*
X116840000Y-129540000D03*
X116840000Y-132080000D03*
X116840000Y-134620000D03*
X116840000Y-137160000D03*
X116840000Y-139700000D03*
X116840000Y-142240000D03*
X116840000Y-144780000D03*
X124460000Y-144780000D03*
X124460000Y-142240000D03*
X124460000Y-139700000D03*
X124460000Y-137160000D03*
X124460000Y-134620000D03*
X124460000Y-132080000D03*
X124460000Y-129540000D03*
X124460000Y-127000000D03*
X129540000Y-154940000D03*
X129540000Y-157480000D03*
X129540000Y-160020000D03*
X129540000Y-162560000D03*
X129540000Y-165100000D03*
X129540000Y-167640000D03*
X129540000Y-170180000D03*
X129540000Y-172720000D03*
X137160000Y-172720000D03*
X137160000Y-170180000D03*
X137160000Y-167640000D03*
X137160000Y-165100000D03*
X137160000Y-162560000D03*
X137160000Y-160020000D03*
X137160000Y-157480000D03*
X137160000Y-154940000D03*
X116840000Y-154940000D03*
X116840000Y-157480000D03*
X116840000Y-160020000D03*
X116840000Y-162560000D03*
X116840000Y-165100000D03*
X116840000Y-167640000D03*
X116840000Y-170180000D03*
X116840000Y-172720000D03*
X124460000Y-172720000D03*
X124460000Y-170180000D03*
X124460000Y-167640000D03*
X124460000Y-165100000D03*
X124460000Y-162560000D03*
X124460000Y-160020000D03*
X124460000Y-157480000D03*
X124460000Y-154940000D03*
X116840000Y-185420000D03*
X116840000Y-187960000D03*
X116840000Y-190500000D03*
X116840000Y-193040000D03*
X116840000Y-195580000D03*
X116840000Y-198120000D03*
X116840000Y-200660000D03*
X124460000Y-200660000D03*
X124460000Y-198120000D03*
X124460000Y-195580000D03*
X124460000Y-193040000D03*
X124460000Y-190500000D03*
X124460000Y-187960000D03*
X124460000Y-185420000D03*
X129540000Y-185420000D03*
X129540000Y-187960000D03*
X129540000Y-190500000D03*
X129540000Y-193040000D03*
X129540000Y-195580000D03*
X129540000Y-198120000D03*
X129540000Y-200660000D03*
X137160000Y-200660000D03*
X137160000Y-198120000D03*
X137160000Y-195580000D03*
X137160000Y-193040000D03*
X137160000Y-190500000D03*
X137160000Y-187960000D03*
X137160000Y-185420000D03*
D22*
X142240000Y-133449060D03*
X142240000Y-138330940D03*
D21*
X137160000Y-83820000D03*
X137160000Y-86360000D03*
X137160000Y-88900000D03*
X137160000Y-91440000D03*
X137160000Y-93980000D03*
X137160000Y-96520000D03*
X137160000Y-99060000D03*
X137160000Y-101600000D03*
X137160000Y-104140000D03*
X137160000Y-106680000D03*
X137160000Y-109220000D03*
X137160000Y-111760000D03*
X152400000Y-111760000D03*
X152400000Y-109220000D03*
X152400000Y-106680000D03*
X152400000Y-104140000D03*
X152400000Y-101600000D03*
X152400000Y-99060000D03*
X152400000Y-96520000D03*
X152400000Y-93980000D03*
X152400000Y-91440000D03*
X152400000Y-88900000D03*
X152400000Y-86360000D03*
X152400000Y-83820000D03*
X68580000Y-38100000D03*
X68580000Y-40640000D03*
X68580000Y-43180000D03*
X68580000Y-45720000D03*
X68580000Y-48260000D03*
X68580000Y-50800000D03*
X68580000Y-53340000D03*
X68580000Y-55880000D03*
X68580000Y-58420000D03*
X68580000Y-60960000D03*
X68580000Y-63500000D03*
X68580000Y-66040000D03*
X68580000Y-68580000D03*
X68580000Y-71120000D03*
X68580000Y-73660000D03*
X68580000Y-76200000D03*
X68580000Y-78740000D03*
X68580000Y-81280000D03*
X68580000Y-83820000D03*
X68580000Y-86360000D03*
X68580000Y-88900000D03*
X68580000Y-91440000D03*
X68580000Y-93980000D03*
X68580000Y-96520000D03*
X68580000Y-99060000D03*
X68580000Y-101600000D03*
X68580000Y-104140000D03*
X68580000Y-106680000D03*
X68580000Y-109220000D03*
X68580000Y-111760000D03*
X68580000Y-114300000D03*
X68580000Y-116840000D03*
X91440000Y-116840000D03*
X91440000Y-114300000D03*
X91440000Y-111760000D03*
X91440000Y-109220000D03*
X91440000Y-106680000D03*
X91440000Y-104140000D03*
X91440000Y-101600000D03*
X91440000Y-99060000D03*
X91440000Y-96520000D03*
X91440000Y-93980000D03*
X91440000Y-91440000D03*
X91440000Y-88900000D03*
X91440000Y-86360000D03*
X91440000Y-83820000D03*
X91440000Y-81280000D03*
X91440000Y-78740000D03*
X91440000Y-76200000D03*
X91440000Y-73660000D03*
X91440000Y-71120000D03*
X91440000Y-68580000D03*
X91440000Y-66040000D03*
X91440000Y-63500000D03*
X91440000Y-60960000D03*
X91440000Y-58420000D03*
X91440000Y-55880000D03*
X91440000Y-53340000D03*
X91440000Y-50800000D03*
X91440000Y-48260000D03*
X91440000Y-45720000D03*
X91440000Y-43180000D03*
X91440000Y-40640000D03*
X91440000Y-38100000D03*
X27940000Y-38100000D03*
X27940000Y-40640000D03*
X27940000Y-43180000D03*
X27940000Y-45720000D03*
X27940000Y-48260000D03*
X27940000Y-50800000D03*
X27940000Y-53340000D03*
X27940000Y-55880000D03*
X27940000Y-58420000D03*
X27940000Y-60960000D03*
X27940000Y-63500000D03*
X27940000Y-66040000D03*
X27940000Y-68580000D03*
X27940000Y-71120000D03*
X43180000Y-71120000D03*
X43180000Y-68580000D03*
X43180000Y-66040000D03*
X43180000Y-63500000D03*
X43180000Y-60960000D03*
X43180000Y-58420000D03*
X43180000Y-55880000D03*
X43180000Y-53340000D03*
X43180000Y-50800000D03*
X43180000Y-48260000D03*
X43180000Y-45720000D03*
X43180000Y-43180000D03*
X43180000Y-40640000D03*
X43180000Y-38100000D03*
X27940000Y-83820000D03*
X27940000Y-86360000D03*
X27940000Y-88900000D03*
X27940000Y-91440000D03*
X27940000Y-93980000D03*
X27940000Y-96520000D03*
X27940000Y-99060000D03*
X27940000Y-101600000D03*
X27940000Y-104140000D03*
X27940000Y-106680000D03*
X27940000Y-109220000D03*
X27940000Y-111760000D03*
X27940000Y-114300000D03*
X27940000Y-116840000D03*
X43180000Y-116840000D03*
X43180000Y-114300000D03*
X43180000Y-111760000D03*
X43180000Y-109220000D03*
X43180000Y-106680000D03*
X43180000Y-104140000D03*
X43180000Y-101600000D03*
X43180000Y-99060000D03*
X43180000Y-96520000D03*
X43180000Y-93980000D03*
X43180000Y-91440000D03*
X43180000Y-88900000D03*
X43180000Y-86360000D03*
X43180000Y-83820000D03*
X48260000Y-38100000D03*
X48260000Y-40640000D03*
X48260000Y-43180000D03*
X48260000Y-45720000D03*
X48260000Y-48260000D03*
X48260000Y-50800000D03*
X48260000Y-53340000D03*
X48260000Y-55880000D03*
X48260000Y-58420000D03*
X48260000Y-60960000D03*
X48260000Y-63500000D03*
X48260000Y-66040000D03*
X48260000Y-68580000D03*
X48260000Y-71120000D03*
X63500000Y-71120000D03*
X63500000Y-68580000D03*
X63500000Y-66040000D03*
X63500000Y-63500000D03*
X63500000Y-60960000D03*
X63500000Y-58420000D03*
X63500000Y-55880000D03*
X63500000Y-53340000D03*
X63500000Y-50800000D03*
X63500000Y-48260000D03*
X63500000Y-45720000D03*
X63500000Y-43180000D03*
X63500000Y-40640000D03*
X63500000Y-38100000D03*
X48260000Y-83820000D03*
X48260000Y-86360000D03*
X48260000Y-88900000D03*
X48260000Y-91440000D03*
X48260000Y-93980000D03*
X48260000Y-96520000D03*
X48260000Y-99060000D03*
X48260000Y-101600000D03*
X48260000Y-104140000D03*
X48260000Y-106680000D03*
X48260000Y-109220000D03*
X48260000Y-111760000D03*
X48260000Y-114300000D03*
X48260000Y-116840000D03*
X63500000Y-116840000D03*
X63500000Y-114300000D03*
X63500000Y-111760000D03*
X63500000Y-109220000D03*
X63500000Y-106680000D03*
X63500000Y-104140000D03*
X63500000Y-101600000D03*
X63500000Y-99060000D03*
X63500000Y-96520000D03*
X63500000Y-93980000D03*
X63500000Y-91440000D03*
X63500000Y-88900000D03*
X63500000Y-86360000D03*
X63500000Y-83820000D03*
X96520000Y-38100000D03*
X96520000Y-40640000D03*
X96520000Y-43180000D03*
X96520000Y-45720000D03*
X96520000Y-48260000D03*
X96520000Y-50800000D03*
X96520000Y-53340000D03*
X96520000Y-55880000D03*
X96520000Y-58420000D03*
X96520000Y-60960000D03*
X96520000Y-63500000D03*
X96520000Y-66040000D03*
X96520000Y-68580000D03*
X96520000Y-71120000D03*
X111760000Y-71120000D03*
X111760000Y-68580000D03*
X111760000Y-66040000D03*
X111760000Y-63500000D03*
X111760000Y-60960000D03*
X111760000Y-58420000D03*
X111760000Y-55880000D03*
X111760000Y-53340000D03*
X111760000Y-50800000D03*
X111760000Y-48260000D03*
X111760000Y-45720000D03*
X111760000Y-43180000D03*
X111760000Y-40640000D03*
X111760000Y-38100000D03*
X96520000Y-83820000D03*
X96520000Y-86360000D03*
X96520000Y-88900000D03*
X96520000Y-91440000D03*
X96520000Y-93980000D03*
X96520000Y-96520000D03*
X96520000Y-99060000D03*
X96520000Y-101600000D03*
X96520000Y-104140000D03*
X96520000Y-106680000D03*
X96520000Y-109220000D03*
X96520000Y-111760000D03*
X96520000Y-114300000D03*
X96520000Y-116840000D03*
X111760000Y-116840000D03*
X111760000Y-114300000D03*
X111760000Y-111760000D03*
X111760000Y-109220000D03*
X111760000Y-106680000D03*
X111760000Y-104140000D03*
X111760000Y-101600000D03*
X111760000Y-99060000D03*
X111760000Y-96520000D03*
X111760000Y-93980000D03*
X111760000Y-91440000D03*
X111760000Y-88900000D03*
X111760000Y-86360000D03*
X111760000Y-83820000D03*
X116840000Y-38100000D03*
X116840000Y-40640000D03*
X116840000Y-43180000D03*
X116840000Y-45720000D03*
X116840000Y-48260000D03*
X116840000Y-50800000D03*
X116840000Y-53340000D03*
X116840000Y-55880000D03*
X116840000Y-58420000D03*
X116840000Y-60960000D03*
X116840000Y-63500000D03*
X116840000Y-66040000D03*
X116840000Y-68580000D03*
X116840000Y-71120000D03*
X132080000Y-71120000D03*
X132080000Y-68580000D03*
X132080000Y-66040000D03*
X132080000Y-63500000D03*
X132080000Y-60960000D03*
X132080000Y-58420000D03*
X132080000Y-55880000D03*
X132080000Y-53340000D03*
X132080000Y-50800000D03*
X132080000Y-48260000D03*
X132080000Y-45720000D03*
X132080000Y-43180000D03*
X132080000Y-40640000D03*
X132080000Y-38100000D03*
X116840000Y-83820000D03*
X116840000Y-86360000D03*
X116840000Y-88900000D03*
X116840000Y-91440000D03*
X116840000Y-93980000D03*
X116840000Y-96520000D03*
X116840000Y-99060000D03*
X116840000Y-101600000D03*
X116840000Y-104140000D03*
X116840000Y-106680000D03*
X116840000Y-109220000D03*
X116840000Y-111760000D03*
X116840000Y-114300000D03*
X116840000Y-116840000D03*
X132080000Y-116840000D03*
X132080000Y-114300000D03*
X132080000Y-111760000D03*
X132080000Y-109220000D03*
X132080000Y-106680000D03*
X132080000Y-104140000D03*
X132080000Y-101600000D03*
X132080000Y-99060000D03*
X132080000Y-96520000D03*
X132080000Y-93980000D03*
X132080000Y-91440000D03*
X132080000Y-88900000D03*
X132080000Y-86360000D03*
X132080000Y-83820000D03*
X137160000Y-38100000D03*
X137160000Y-40640000D03*
X137160000Y-43180000D03*
X137160000Y-45720000D03*
X137160000Y-48260000D03*
X137160000Y-50800000D03*
X137160000Y-53340000D03*
X137160000Y-55880000D03*
X137160000Y-58420000D03*
X137160000Y-60960000D03*
X137160000Y-63500000D03*
X137160000Y-66040000D03*
X152400000Y-66040000D03*
X152400000Y-63500000D03*
X152400000Y-60960000D03*
X152400000Y-58420000D03*
X152400000Y-55880000D03*
X152400000Y-53340000D03*
X152400000Y-50800000D03*
X152400000Y-48260000D03*
X152400000Y-45720000D03*
X152400000Y-43180000D03*
X152400000Y-40640000D03*
X152400000Y-38100000D03*
D17*
X106680000Y-154940000D03*
X104140000Y-154940000D03*
X104140000Y-160020000D03*
X106680000Y-160020000D03*
X106680000Y-165100000D03*
X104140000Y-165100000D03*
X104140000Y-170180000D03*
X106680000Y-170180000D03*
D23*
X104140000Y-24130000D03*
X104140000Y-21590000D03*
X132080000Y-24130000D03*
X132080000Y-21590000D03*
D13*
X153670000Y-132080000D03*
D14*
X151170000Y-132080000D03*
D13*
X151130000Y-139700000D03*
D14*
X153630000Y-139700000D03*
D21*
X40640000Y-185420000D03*
X40640000Y-187960000D03*
X40640000Y-190500000D03*
X40640000Y-193040000D03*
X40640000Y-195580000D03*
X40640000Y-198120000D03*
X40640000Y-200660000D03*
X40640000Y-203200000D03*
X48260000Y-203200000D03*
X48260000Y-200660000D03*
X48260000Y-198120000D03*
X48260000Y-195580000D03*
X48260000Y-193040000D03*
X48260000Y-190500000D03*
X48260000Y-187960000D03*
X48260000Y-185420000D03*
X129540000Y-127000000D03*
X129540000Y-129540000D03*
X129540000Y-132080000D03*
X129540000Y-134620000D03*
X129540000Y-137160000D03*
X129540000Y-139700000D03*
X129540000Y-142240000D03*
X129540000Y-144780000D03*
X137160000Y-144780000D03*
X137160000Y-142240000D03*
X137160000Y-139700000D03*
X137160000Y-137160000D03*
X137160000Y-134620000D03*
X137160000Y-132080000D03*
X137160000Y-129540000D03*
X137160000Y-127000000D03*
X142240000Y-185420000D03*
X142240000Y-187960000D03*
X142240000Y-190500000D03*
X142240000Y-193040000D03*
X142240000Y-195580000D03*
X142240000Y-198120000D03*
X142240000Y-200660000D03*
X149860000Y-200660000D03*
X149860000Y-198120000D03*
X149860000Y-195580000D03*
X149860000Y-193040000D03*
X149860000Y-190500000D03*
X149860000Y-187960000D03*
X149860000Y-185420000D03*
X142240000Y-154940000D03*
X142240000Y-157480000D03*
X142240000Y-160020000D03*
X142240000Y-162560000D03*
X142240000Y-165100000D03*
X142240000Y-167640000D03*
X142240000Y-170180000D03*
X149860000Y-170180000D03*
X149860000Y-167640000D03*
X149860000Y-165100000D03*
X149860000Y-162560000D03*
X149860000Y-160020000D03*
X149860000Y-157480000D03*
X149860000Y-154940000D03*
D13*
X147320000Y-149860000D03*
D14*
X144820000Y-149860000D03*
D13*
X134620000Y-180340000D03*
D14*
X132120000Y-180340000D03*
M02*
