G04 #@! TF.FileFunction,Copper,L1,Top,Signal*
%FSLAX46Y46*%
G04 Gerber Fmt 4.6, Leading zero omitted, Abs format (unit mm)*
G04 Created by KiCad (PCBNEW 4.0.2+dfsg1-stable) date Sat 18 Feb 2017 07:09:49 PM EST*
%MOMM*%
G01*
G04 APERTURE LIST*
%ADD10C,0.100000*%
%ADD11R,1.300000X1.300000*%
%ADD12C,1.300000*%
%ADD13R,1.400000X1.400000*%
%ADD14C,1.400000*%
%ADD15O,1.506220X3.014980*%
%ADD16C,1.699260*%
%ADD17R,1.699260X1.699260*%
%ADD18C,1.998980*%
%ADD19R,1.397000X1.397000*%
%ADD20C,1.397000*%
%ADD21O,1.600000X1.600000*%
%ADD22C,1.501140*%
%ADD23O,3.014980X1.506220*%
%ADD24C,0.600000*%
%ADD25C,1.000000*%
%ADD26C,0.250000*%
G04 APERTURE END LIST*
D10*
D11*
X53340000Y-165100000D03*
D12*
X55840000Y-165100000D03*
D11*
X58420000Y-165100000D03*
D12*
X60920000Y-165100000D03*
D13*
X53340000Y-170180000D03*
D14*
X61090000Y-170180000D03*
D11*
X60960000Y-22860000D03*
D12*
X58460000Y-22860000D03*
D11*
X36830000Y-33020000D03*
D12*
X34330000Y-33020000D03*
D11*
X57150000Y-33020000D03*
D12*
X54650000Y-33020000D03*
D11*
X78740000Y-33020000D03*
D12*
X81240000Y-33020000D03*
D11*
X105410000Y-33020000D03*
D12*
X102910000Y-33020000D03*
D11*
X125730000Y-33020000D03*
D12*
X123230000Y-33020000D03*
D11*
X121920000Y-149860000D03*
D12*
X119420000Y-149860000D03*
D11*
X36830000Y-78740000D03*
D12*
X34330000Y-78740000D03*
D11*
X57150000Y-78740000D03*
D12*
X54650000Y-78740000D03*
D11*
X104140000Y-78740000D03*
D12*
X101640000Y-78740000D03*
D11*
X125730000Y-78740000D03*
D12*
X123230000Y-78740000D03*
D11*
X146050000Y-33020000D03*
D12*
X143550000Y-33020000D03*
D11*
X134620000Y-149860000D03*
D12*
X132120000Y-149860000D03*
D11*
X147320000Y-180340000D03*
D12*
X144820000Y-180340000D03*
D11*
X45720000Y-121920000D03*
D12*
X43220000Y-121920000D03*
D11*
X58420000Y-121920000D03*
D12*
X55920000Y-121920000D03*
D11*
X71120000Y-121920000D03*
D12*
X68620000Y-121920000D03*
D11*
X134620000Y-121920000D03*
D12*
X132120000Y-121920000D03*
D11*
X121920000Y-121920000D03*
D12*
X119420000Y-121920000D03*
D11*
X96520000Y-121920000D03*
D12*
X94020000Y-121920000D03*
D11*
X109220000Y-121920000D03*
D12*
X106720000Y-121920000D03*
D11*
X33020000Y-149860000D03*
D12*
X30520000Y-149860000D03*
D11*
X45720000Y-149860000D03*
D12*
X43220000Y-149860000D03*
D11*
X96520000Y-149860000D03*
D12*
X94020000Y-149860000D03*
D11*
X71120000Y-149860000D03*
D12*
X68620000Y-149860000D03*
D11*
X83820000Y-149860000D03*
D12*
X81320000Y-149860000D03*
D11*
X146050000Y-78740000D03*
D12*
X143550000Y-78740000D03*
D11*
X33020000Y-180340000D03*
D12*
X30520000Y-180340000D03*
D11*
X45720000Y-180340000D03*
D12*
X43220000Y-180340000D03*
D11*
X58420000Y-180340000D03*
D12*
X55920000Y-180340000D03*
D11*
X71120000Y-180340000D03*
D12*
X68620000Y-180340000D03*
D11*
X83820000Y-180340000D03*
D12*
X81320000Y-180340000D03*
D11*
X96520000Y-180340000D03*
D12*
X94020000Y-180340000D03*
D11*
X109220000Y-180340000D03*
D12*
X106720000Y-180340000D03*
D11*
X121920000Y-180340000D03*
D12*
X119420000Y-180340000D03*
D15*
X68580000Y-214630000D03*
X71120000Y-214630000D03*
X88900000Y-214630000D03*
X91440000Y-214630000D03*
D16*
X53340520Y-22857460D03*
D17*
X43180520Y-22857460D03*
D15*
X86360000Y-22860000D03*
X88900000Y-22860000D03*
X91440000Y-22860000D03*
X93980000Y-22860000D03*
X96520000Y-22860000D03*
X99060000Y-22860000D03*
X114300000Y-22860000D03*
X116840000Y-22860000D03*
X119380000Y-22860000D03*
X121920000Y-22860000D03*
X124460000Y-22860000D03*
X127000000Y-22860000D03*
X69850000Y-22860000D03*
X72390000Y-22860000D03*
D18*
X60960000Y-154940000D03*
X53340000Y-154940000D03*
X53340000Y-160020000D03*
X60960000Y-160020000D03*
X69850000Y-207010000D03*
X77470000Y-207010000D03*
X147320000Y-139700000D03*
X147320000Y-132080000D03*
X92710000Y-207010000D03*
X100330000Y-207010000D03*
D19*
X113030000Y-173990000D03*
D20*
X113030000Y-171450000D03*
X113030000Y-168910000D03*
X113030000Y-166370000D03*
X113030000Y-163830000D03*
X113030000Y-161290000D03*
X113030000Y-158750000D03*
X113030000Y-156210000D03*
X113030000Y-153670000D03*
D19*
X86360000Y-124460000D03*
D20*
X86360000Y-127000000D03*
X86360000Y-129540000D03*
X86360000Y-132080000D03*
X86360000Y-134620000D03*
X86360000Y-137160000D03*
X86360000Y-139700000D03*
X86360000Y-142240000D03*
X86360000Y-144780000D03*
D19*
X82550000Y-124460000D03*
D20*
X82550000Y-127000000D03*
X82550000Y-129540000D03*
X82550000Y-132080000D03*
X82550000Y-134620000D03*
X82550000Y-137160000D03*
X82550000Y-139700000D03*
X82550000Y-142240000D03*
X82550000Y-144780000D03*
D19*
X78740000Y-124460000D03*
D20*
X78740000Y-127000000D03*
X78740000Y-129540000D03*
X78740000Y-132080000D03*
X78740000Y-134620000D03*
X78740000Y-137160000D03*
X78740000Y-139700000D03*
X78740000Y-142240000D03*
X78740000Y-144780000D03*
D15*
X57150000Y-214630000D03*
X59690000Y-214630000D03*
X62230000Y-214630000D03*
X46990000Y-214630000D03*
X49530000Y-214630000D03*
X52070000Y-214630000D03*
X36830000Y-214630000D03*
X39370000Y-214630000D03*
X41910000Y-214630000D03*
X97790000Y-214630000D03*
X100330000Y-214630000D03*
X102870000Y-214630000D03*
X77470000Y-214630000D03*
X80010000Y-214630000D03*
X82550000Y-214630000D03*
D21*
X40640000Y-154940000D03*
X40640000Y-157480000D03*
X40640000Y-160020000D03*
X40640000Y-162560000D03*
X48260000Y-162560000D03*
X48260000Y-160020000D03*
X48260000Y-157480000D03*
X48260000Y-154940000D03*
X27940000Y-127000000D03*
X27940000Y-129540000D03*
X27940000Y-132080000D03*
X27940000Y-134620000D03*
X27940000Y-137160000D03*
X27940000Y-139700000D03*
X27940000Y-142240000D03*
X35560000Y-142240000D03*
X35560000Y-139700000D03*
X35560000Y-137160000D03*
X35560000Y-134620000D03*
X35560000Y-132080000D03*
X35560000Y-129540000D03*
X35560000Y-127000000D03*
X40640000Y-127000000D03*
X40640000Y-129540000D03*
X40640000Y-132080000D03*
X40640000Y-134620000D03*
X40640000Y-137160000D03*
X40640000Y-139700000D03*
X40640000Y-142240000D03*
X48260000Y-142240000D03*
X48260000Y-139700000D03*
X48260000Y-137160000D03*
X48260000Y-134620000D03*
X48260000Y-132080000D03*
X48260000Y-129540000D03*
X48260000Y-127000000D03*
X27940000Y-185420000D03*
X27940000Y-187960000D03*
X27940000Y-190500000D03*
X27940000Y-193040000D03*
X27940000Y-195580000D03*
X27940000Y-198120000D03*
X27940000Y-200660000D03*
X35560000Y-200660000D03*
X35560000Y-198120000D03*
X35560000Y-195580000D03*
X35560000Y-193040000D03*
X35560000Y-190500000D03*
X35560000Y-187960000D03*
X35560000Y-185420000D03*
X27940000Y-154940000D03*
X27940000Y-157480000D03*
X27940000Y-160020000D03*
X27940000Y-162560000D03*
X27940000Y-165100000D03*
X27940000Y-167640000D03*
X27940000Y-170180000D03*
X35560000Y-170180000D03*
X35560000Y-167640000D03*
X35560000Y-165100000D03*
X35560000Y-162560000D03*
X35560000Y-160020000D03*
X35560000Y-157480000D03*
X35560000Y-154940000D03*
X53340000Y-127000000D03*
X53340000Y-129540000D03*
X53340000Y-132080000D03*
X53340000Y-134620000D03*
X53340000Y-137160000D03*
X53340000Y-139700000D03*
X53340000Y-142240000D03*
X60960000Y-142240000D03*
X60960000Y-139700000D03*
X60960000Y-137160000D03*
X60960000Y-134620000D03*
X60960000Y-132080000D03*
X60960000Y-129540000D03*
X60960000Y-127000000D03*
X66040000Y-154940000D03*
X66040000Y-157480000D03*
X66040000Y-160020000D03*
X66040000Y-162560000D03*
X66040000Y-165100000D03*
X66040000Y-167640000D03*
X66040000Y-170180000D03*
X73660000Y-170180000D03*
X73660000Y-167640000D03*
X73660000Y-165100000D03*
X73660000Y-162560000D03*
X73660000Y-160020000D03*
X73660000Y-157480000D03*
X73660000Y-154940000D03*
X53340000Y-185420000D03*
X53340000Y-187960000D03*
X53340000Y-190500000D03*
X53340000Y-193040000D03*
X53340000Y-195580000D03*
X53340000Y-198120000D03*
X53340000Y-200660000D03*
X60960000Y-200660000D03*
X60960000Y-198120000D03*
X60960000Y-195580000D03*
X60960000Y-193040000D03*
X60960000Y-190500000D03*
X60960000Y-187960000D03*
X60960000Y-185420000D03*
X66040000Y-185420000D03*
X66040000Y-187960000D03*
X66040000Y-190500000D03*
X66040000Y-193040000D03*
X66040000Y-195580000D03*
X66040000Y-198120000D03*
X66040000Y-200660000D03*
X73660000Y-200660000D03*
X73660000Y-198120000D03*
X73660000Y-195580000D03*
X73660000Y-193040000D03*
X73660000Y-190500000D03*
X73660000Y-187960000D03*
X73660000Y-185420000D03*
X78740000Y-185420000D03*
X78740000Y-187960000D03*
X78740000Y-190500000D03*
X78740000Y-193040000D03*
X78740000Y-195580000D03*
X78740000Y-198120000D03*
X78740000Y-200660000D03*
X86360000Y-200660000D03*
X86360000Y-198120000D03*
X86360000Y-195580000D03*
X86360000Y-193040000D03*
X86360000Y-190500000D03*
X86360000Y-187960000D03*
X86360000Y-185420000D03*
X91440000Y-185420000D03*
X91440000Y-187960000D03*
X91440000Y-190500000D03*
X91440000Y-193040000D03*
X91440000Y-195580000D03*
X91440000Y-198120000D03*
X91440000Y-200660000D03*
X99060000Y-200660000D03*
X99060000Y-198120000D03*
X99060000Y-195580000D03*
X99060000Y-193040000D03*
X99060000Y-190500000D03*
X99060000Y-187960000D03*
X99060000Y-185420000D03*
X104140000Y-127000000D03*
X104140000Y-129540000D03*
X104140000Y-132080000D03*
X104140000Y-134620000D03*
X104140000Y-137160000D03*
X104140000Y-139700000D03*
X104140000Y-142240000D03*
X104140000Y-144780000D03*
X111760000Y-144780000D03*
X111760000Y-142240000D03*
X111760000Y-139700000D03*
X111760000Y-137160000D03*
X111760000Y-134620000D03*
X111760000Y-132080000D03*
X111760000Y-129540000D03*
X111760000Y-127000000D03*
X91440000Y-154940000D03*
X91440000Y-157480000D03*
X91440000Y-160020000D03*
X91440000Y-162560000D03*
X91440000Y-165100000D03*
X91440000Y-167640000D03*
X91440000Y-170180000D03*
X91440000Y-172720000D03*
X99060000Y-172720000D03*
X99060000Y-170180000D03*
X99060000Y-167640000D03*
X99060000Y-165100000D03*
X99060000Y-162560000D03*
X99060000Y-160020000D03*
X99060000Y-157480000D03*
X99060000Y-154940000D03*
X104140000Y-185420000D03*
X104140000Y-187960000D03*
X104140000Y-190500000D03*
X104140000Y-193040000D03*
X104140000Y-195580000D03*
X104140000Y-198120000D03*
X104140000Y-200660000D03*
X111760000Y-200660000D03*
X111760000Y-198120000D03*
X111760000Y-195580000D03*
X111760000Y-193040000D03*
X111760000Y-190500000D03*
X111760000Y-187960000D03*
X111760000Y-185420000D03*
X91440000Y-127000000D03*
X91440000Y-129540000D03*
X91440000Y-132080000D03*
X91440000Y-134620000D03*
X91440000Y-137160000D03*
X91440000Y-139700000D03*
X91440000Y-142240000D03*
X99060000Y-142240000D03*
X99060000Y-139700000D03*
X99060000Y-137160000D03*
X99060000Y-134620000D03*
X99060000Y-132080000D03*
X99060000Y-129540000D03*
X99060000Y-127000000D03*
X66040000Y-127000000D03*
X66040000Y-129540000D03*
X66040000Y-132080000D03*
X66040000Y-134620000D03*
X66040000Y-137160000D03*
X66040000Y-139700000D03*
X66040000Y-142240000D03*
X73660000Y-142240000D03*
X73660000Y-139700000D03*
X73660000Y-137160000D03*
X73660000Y-134620000D03*
X73660000Y-132080000D03*
X73660000Y-129540000D03*
X73660000Y-127000000D03*
X78740000Y-154940000D03*
X78740000Y-157480000D03*
X78740000Y-160020000D03*
X78740000Y-162560000D03*
X78740000Y-165100000D03*
X78740000Y-167640000D03*
X78740000Y-170180000D03*
X78740000Y-172720000D03*
X86360000Y-172720000D03*
X86360000Y-170180000D03*
X86360000Y-167640000D03*
X86360000Y-165100000D03*
X86360000Y-162560000D03*
X86360000Y-160020000D03*
X86360000Y-157480000D03*
X86360000Y-154940000D03*
X116840000Y-127000000D03*
X116840000Y-129540000D03*
X116840000Y-132080000D03*
X116840000Y-134620000D03*
X116840000Y-137160000D03*
X116840000Y-139700000D03*
X116840000Y-142240000D03*
X116840000Y-144780000D03*
X124460000Y-144780000D03*
X124460000Y-142240000D03*
X124460000Y-139700000D03*
X124460000Y-137160000D03*
X124460000Y-134620000D03*
X124460000Y-132080000D03*
X124460000Y-129540000D03*
X124460000Y-127000000D03*
X129540000Y-154940000D03*
X129540000Y-157480000D03*
X129540000Y-160020000D03*
X129540000Y-162560000D03*
X129540000Y-165100000D03*
X129540000Y-167640000D03*
X129540000Y-170180000D03*
X129540000Y-172720000D03*
X137160000Y-172720000D03*
X137160000Y-170180000D03*
X137160000Y-167640000D03*
X137160000Y-165100000D03*
X137160000Y-162560000D03*
X137160000Y-160020000D03*
X137160000Y-157480000D03*
X137160000Y-154940000D03*
X116840000Y-154940000D03*
X116840000Y-157480000D03*
X116840000Y-160020000D03*
X116840000Y-162560000D03*
X116840000Y-165100000D03*
X116840000Y-167640000D03*
X116840000Y-170180000D03*
X116840000Y-172720000D03*
X124460000Y-172720000D03*
X124460000Y-170180000D03*
X124460000Y-167640000D03*
X124460000Y-165100000D03*
X124460000Y-162560000D03*
X124460000Y-160020000D03*
X124460000Y-157480000D03*
X124460000Y-154940000D03*
X116840000Y-185420000D03*
X116840000Y-187960000D03*
X116840000Y-190500000D03*
X116840000Y-193040000D03*
X116840000Y-195580000D03*
X116840000Y-198120000D03*
X116840000Y-200660000D03*
X124460000Y-200660000D03*
X124460000Y-198120000D03*
X124460000Y-195580000D03*
X124460000Y-193040000D03*
X124460000Y-190500000D03*
X124460000Y-187960000D03*
X124460000Y-185420000D03*
X129540000Y-185420000D03*
X129540000Y-187960000D03*
X129540000Y-190500000D03*
X129540000Y-193040000D03*
X129540000Y-195580000D03*
X129540000Y-198120000D03*
X129540000Y-200660000D03*
X137160000Y-200660000D03*
X137160000Y-198120000D03*
X137160000Y-195580000D03*
X137160000Y-193040000D03*
X137160000Y-190500000D03*
X137160000Y-187960000D03*
X137160000Y-185420000D03*
D22*
X142240000Y-133449060D03*
X142240000Y-138330940D03*
D21*
X137160000Y-83820000D03*
X137160000Y-86360000D03*
X137160000Y-88900000D03*
X137160000Y-91440000D03*
X137160000Y-93980000D03*
X137160000Y-96520000D03*
X137160000Y-99060000D03*
X137160000Y-101600000D03*
X137160000Y-104140000D03*
X137160000Y-106680000D03*
X137160000Y-109220000D03*
X137160000Y-111760000D03*
X152400000Y-111760000D03*
X152400000Y-109220000D03*
X152400000Y-106680000D03*
X152400000Y-104140000D03*
X152400000Y-101600000D03*
X152400000Y-99060000D03*
X152400000Y-96520000D03*
X152400000Y-93980000D03*
X152400000Y-91440000D03*
X152400000Y-88900000D03*
X152400000Y-86360000D03*
X152400000Y-83820000D03*
X68580000Y-38100000D03*
X68580000Y-40640000D03*
X68580000Y-43180000D03*
X68580000Y-45720000D03*
X68580000Y-48260000D03*
X68580000Y-50800000D03*
X68580000Y-53340000D03*
X68580000Y-55880000D03*
X68580000Y-58420000D03*
X68580000Y-60960000D03*
X68580000Y-63500000D03*
X68580000Y-66040000D03*
X68580000Y-68580000D03*
X68580000Y-71120000D03*
X68580000Y-73660000D03*
X68580000Y-76200000D03*
X68580000Y-78740000D03*
X68580000Y-81280000D03*
X68580000Y-83820000D03*
X68580000Y-86360000D03*
X68580000Y-88900000D03*
X68580000Y-91440000D03*
X68580000Y-93980000D03*
X68580000Y-96520000D03*
X68580000Y-99060000D03*
X68580000Y-101600000D03*
X68580000Y-104140000D03*
X68580000Y-106680000D03*
X68580000Y-109220000D03*
X68580000Y-111760000D03*
X68580000Y-114300000D03*
X68580000Y-116840000D03*
X91440000Y-116840000D03*
X91440000Y-114300000D03*
X91440000Y-111760000D03*
X91440000Y-109220000D03*
X91440000Y-106680000D03*
X91440000Y-104140000D03*
X91440000Y-101600000D03*
X91440000Y-99060000D03*
X91440000Y-96520000D03*
X91440000Y-93980000D03*
X91440000Y-91440000D03*
X91440000Y-88900000D03*
X91440000Y-86360000D03*
X91440000Y-83820000D03*
X91440000Y-81280000D03*
X91440000Y-78740000D03*
X91440000Y-76200000D03*
X91440000Y-73660000D03*
X91440000Y-71120000D03*
X91440000Y-68580000D03*
X91440000Y-66040000D03*
X91440000Y-63500000D03*
X91440000Y-60960000D03*
X91440000Y-58420000D03*
X91440000Y-55880000D03*
X91440000Y-53340000D03*
X91440000Y-50800000D03*
X91440000Y-48260000D03*
X91440000Y-45720000D03*
X91440000Y-43180000D03*
X91440000Y-40640000D03*
X91440000Y-38100000D03*
X27940000Y-38100000D03*
X27940000Y-40640000D03*
X27940000Y-43180000D03*
X27940000Y-45720000D03*
X27940000Y-48260000D03*
X27940000Y-50800000D03*
X27940000Y-53340000D03*
X27940000Y-55880000D03*
X27940000Y-58420000D03*
X27940000Y-60960000D03*
X27940000Y-63500000D03*
X27940000Y-66040000D03*
X27940000Y-68580000D03*
X27940000Y-71120000D03*
X43180000Y-71120000D03*
X43180000Y-68580000D03*
X43180000Y-66040000D03*
X43180000Y-63500000D03*
X43180000Y-60960000D03*
X43180000Y-58420000D03*
X43180000Y-55880000D03*
X43180000Y-53340000D03*
X43180000Y-50800000D03*
X43180000Y-48260000D03*
X43180000Y-45720000D03*
X43180000Y-43180000D03*
X43180000Y-40640000D03*
X43180000Y-38100000D03*
X27940000Y-83820000D03*
X27940000Y-86360000D03*
X27940000Y-88900000D03*
X27940000Y-91440000D03*
X27940000Y-93980000D03*
X27940000Y-96520000D03*
X27940000Y-99060000D03*
X27940000Y-101600000D03*
X27940000Y-104140000D03*
X27940000Y-106680000D03*
X27940000Y-109220000D03*
X27940000Y-111760000D03*
X27940000Y-114300000D03*
X27940000Y-116840000D03*
X43180000Y-116840000D03*
X43180000Y-114300000D03*
X43180000Y-111760000D03*
X43180000Y-109220000D03*
X43180000Y-106680000D03*
X43180000Y-104140000D03*
X43180000Y-101600000D03*
X43180000Y-99060000D03*
X43180000Y-96520000D03*
X43180000Y-93980000D03*
X43180000Y-91440000D03*
X43180000Y-88900000D03*
X43180000Y-86360000D03*
X43180000Y-83820000D03*
X48260000Y-38100000D03*
X48260000Y-40640000D03*
X48260000Y-43180000D03*
X48260000Y-45720000D03*
X48260000Y-48260000D03*
X48260000Y-50800000D03*
X48260000Y-53340000D03*
X48260000Y-55880000D03*
X48260000Y-58420000D03*
X48260000Y-60960000D03*
X48260000Y-63500000D03*
X48260000Y-66040000D03*
X48260000Y-68580000D03*
X48260000Y-71120000D03*
X63500000Y-71120000D03*
X63500000Y-68580000D03*
X63500000Y-66040000D03*
X63500000Y-63500000D03*
X63500000Y-60960000D03*
X63500000Y-58420000D03*
X63500000Y-55880000D03*
X63500000Y-53340000D03*
X63500000Y-50800000D03*
X63500000Y-48260000D03*
X63500000Y-45720000D03*
X63500000Y-43180000D03*
X63500000Y-40640000D03*
X63500000Y-38100000D03*
X48260000Y-83820000D03*
X48260000Y-86360000D03*
X48260000Y-88900000D03*
X48260000Y-91440000D03*
X48260000Y-93980000D03*
X48260000Y-96520000D03*
X48260000Y-99060000D03*
X48260000Y-101600000D03*
X48260000Y-104140000D03*
X48260000Y-106680000D03*
X48260000Y-109220000D03*
X48260000Y-111760000D03*
X48260000Y-114300000D03*
X48260000Y-116840000D03*
X63500000Y-116840000D03*
X63500000Y-114300000D03*
X63500000Y-111760000D03*
X63500000Y-109220000D03*
X63500000Y-106680000D03*
X63500000Y-104140000D03*
X63500000Y-101600000D03*
X63500000Y-99060000D03*
X63500000Y-96520000D03*
X63500000Y-93980000D03*
X63500000Y-91440000D03*
X63500000Y-88900000D03*
X63500000Y-86360000D03*
X63500000Y-83820000D03*
X96520000Y-38100000D03*
X96520000Y-40640000D03*
X96520000Y-43180000D03*
X96520000Y-45720000D03*
X96520000Y-48260000D03*
X96520000Y-50800000D03*
X96520000Y-53340000D03*
X96520000Y-55880000D03*
X96520000Y-58420000D03*
X96520000Y-60960000D03*
X96520000Y-63500000D03*
X96520000Y-66040000D03*
X96520000Y-68580000D03*
X96520000Y-71120000D03*
X111760000Y-71120000D03*
X111760000Y-68580000D03*
X111760000Y-66040000D03*
X111760000Y-63500000D03*
X111760000Y-60960000D03*
X111760000Y-58420000D03*
X111760000Y-55880000D03*
X111760000Y-53340000D03*
X111760000Y-50800000D03*
X111760000Y-48260000D03*
X111760000Y-45720000D03*
X111760000Y-43180000D03*
X111760000Y-40640000D03*
X111760000Y-38100000D03*
X96520000Y-83820000D03*
X96520000Y-86360000D03*
X96520000Y-88900000D03*
X96520000Y-91440000D03*
X96520000Y-93980000D03*
X96520000Y-96520000D03*
X96520000Y-99060000D03*
X96520000Y-101600000D03*
X96520000Y-104140000D03*
X96520000Y-106680000D03*
X96520000Y-109220000D03*
X96520000Y-111760000D03*
X96520000Y-114300000D03*
X96520000Y-116840000D03*
X111760000Y-116840000D03*
X111760000Y-114300000D03*
X111760000Y-111760000D03*
X111760000Y-109220000D03*
X111760000Y-106680000D03*
X111760000Y-104140000D03*
X111760000Y-101600000D03*
X111760000Y-99060000D03*
X111760000Y-96520000D03*
X111760000Y-93980000D03*
X111760000Y-91440000D03*
X111760000Y-88900000D03*
X111760000Y-86360000D03*
X111760000Y-83820000D03*
X116840000Y-38100000D03*
X116840000Y-40640000D03*
X116840000Y-43180000D03*
X116840000Y-45720000D03*
X116840000Y-48260000D03*
X116840000Y-50800000D03*
X116840000Y-53340000D03*
X116840000Y-55880000D03*
X116840000Y-58420000D03*
X116840000Y-60960000D03*
X116840000Y-63500000D03*
X116840000Y-66040000D03*
X116840000Y-68580000D03*
X116840000Y-71120000D03*
X132080000Y-71120000D03*
X132080000Y-68580000D03*
X132080000Y-66040000D03*
X132080000Y-63500000D03*
X132080000Y-60960000D03*
X132080000Y-58420000D03*
X132080000Y-55880000D03*
X132080000Y-53340000D03*
X132080000Y-50800000D03*
X132080000Y-48260000D03*
X132080000Y-45720000D03*
X132080000Y-43180000D03*
X132080000Y-40640000D03*
X132080000Y-38100000D03*
X116840000Y-83820000D03*
X116840000Y-86360000D03*
X116840000Y-88900000D03*
X116840000Y-91440000D03*
X116840000Y-93980000D03*
X116840000Y-96520000D03*
X116840000Y-99060000D03*
X116840000Y-101600000D03*
X116840000Y-104140000D03*
X116840000Y-106680000D03*
X116840000Y-109220000D03*
X116840000Y-111760000D03*
X116840000Y-114300000D03*
X116840000Y-116840000D03*
X132080000Y-116840000D03*
X132080000Y-114300000D03*
X132080000Y-111760000D03*
X132080000Y-109220000D03*
X132080000Y-106680000D03*
X132080000Y-104140000D03*
X132080000Y-101600000D03*
X132080000Y-99060000D03*
X132080000Y-96520000D03*
X132080000Y-93980000D03*
X132080000Y-91440000D03*
X132080000Y-88900000D03*
X132080000Y-86360000D03*
X132080000Y-83820000D03*
X137160000Y-38100000D03*
X137160000Y-40640000D03*
X137160000Y-43180000D03*
X137160000Y-45720000D03*
X137160000Y-48260000D03*
X137160000Y-50800000D03*
X137160000Y-53340000D03*
X137160000Y-55880000D03*
X137160000Y-58420000D03*
X137160000Y-60960000D03*
X137160000Y-63500000D03*
X137160000Y-66040000D03*
X152400000Y-66040000D03*
X152400000Y-63500000D03*
X152400000Y-60960000D03*
X152400000Y-58420000D03*
X152400000Y-55880000D03*
X152400000Y-53340000D03*
X152400000Y-50800000D03*
X152400000Y-48260000D03*
X152400000Y-45720000D03*
X152400000Y-43180000D03*
X152400000Y-40640000D03*
X152400000Y-38100000D03*
D15*
X106680000Y-154940000D03*
X104140000Y-154940000D03*
X104140000Y-160020000D03*
X106680000Y-160020000D03*
X106680000Y-165100000D03*
X104140000Y-165100000D03*
X104140000Y-170180000D03*
X106680000Y-170180000D03*
D23*
X104140000Y-24130000D03*
X104140000Y-21590000D03*
X132080000Y-24130000D03*
X132080000Y-21590000D03*
D11*
X153670000Y-132080000D03*
D12*
X151170000Y-132080000D03*
D11*
X151130000Y-139700000D03*
D12*
X153630000Y-139700000D03*
D21*
X40640000Y-185420000D03*
X40640000Y-187960000D03*
X40640000Y-190500000D03*
X40640000Y-193040000D03*
X40640000Y-195580000D03*
X40640000Y-198120000D03*
X40640000Y-200660000D03*
X40640000Y-203200000D03*
X48260000Y-203200000D03*
X48260000Y-200660000D03*
X48260000Y-198120000D03*
X48260000Y-195580000D03*
X48260000Y-193040000D03*
X48260000Y-190500000D03*
X48260000Y-187960000D03*
X48260000Y-185420000D03*
X129540000Y-127000000D03*
X129540000Y-129540000D03*
X129540000Y-132080000D03*
X129540000Y-134620000D03*
X129540000Y-137160000D03*
X129540000Y-139700000D03*
X129540000Y-142240000D03*
X129540000Y-144780000D03*
X137160000Y-144780000D03*
X137160000Y-142240000D03*
X137160000Y-139700000D03*
X137160000Y-137160000D03*
X137160000Y-134620000D03*
X137160000Y-132080000D03*
X137160000Y-129540000D03*
X137160000Y-127000000D03*
X142240000Y-185420000D03*
X142240000Y-187960000D03*
X142240000Y-190500000D03*
X142240000Y-193040000D03*
X142240000Y-195580000D03*
X142240000Y-198120000D03*
X142240000Y-200660000D03*
X149860000Y-200660000D03*
X149860000Y-198120000D03*
X149860000Y-195580000D03*
X149860000Y-193040000D03*
X149860000Y-190500000D03*
X149860000Y-187960000D03*
X149860000Y-185420000D03*
X142240000Y-154940000D03*
X142240000Y-157480000D03*
X142240000Y-160020000D03*
X142240000Y-162560000D03*
X142240000Y-165100000D03*
X142240000Y-167640000D03*
X142240000Y-170180000D03*
X149860000Y-170180000D03*
X149860000Y-167640000D03*
X149860000Y-165100000D03*
X149860000Y-162560000D03*
X149860000Y-160020000D03*
X149860000Y-157480000D03*
X149860000Y-154940000D03*
D11*
X147320000Y-149860000D03*
D12*
X144820000Y-149860000D03*
D11*
X134620000Y-180340000D03*
D12*
X132120000Y-180340000D03*
D24*
X81320000Y-176341900D03*
X144680700Y-81568100D03*
X93017200Y-145423800D03*
X90037000Y-151502800D03*
X85327900Y-148026400D03*
X89380200Y-132090900D03*
X88776300Y-127644400D03*
X127877200Y-30861500D03*
X51136600Y-177072400D03*
X120456200Y-144095900D03*
X121622600Y-145703300D03*
X117924300Y-148889200D03*
X115900400Y-138610200D03*
X132775300Y-54697800D03*
X126095700Y-99833600D03*
X116175500Y-184119100D03*
X110455900Y-158740200D03*
X88972900Y-144476100D03*
X82045500Y-209235700D03*
X82300700Y-210093400D03*
X94907200Y-151578400D03*
X95493800Y-150891000D03*
X84178000Y-218424200D03*
X101737800Y-193688500D03*
X101863800Y-152824500D03*
X79050200Y-99297600D03*
X77775800Y-97278200D03*
X73660400Y-119672500D03*
X69629400Y-136432700D03*
X76878400Y-172187800D03*
X80543700Y-135741300D03*
X77759500Y-126204600D03*
X73250600Y-124012200D03*
X54958000Y-120884000D03*
X65777200Y-124397300D03*
X80417400Y-168179400D03*
X64582500Y-145510300D03*
X90503800Y-153868800D03*
X139214900Y-112032800D03*
X51903900Y-138868200D03*
X55833800Y-119236000D03*
X62067300Y-54805900D03*
X54441500Y-151600200D03*
X74307100Y-177613800D03*
X108799400Y-177569900D03*
X111138000Y-176114000D03*
X124973100Y-41125500D03*
X116836700Y-36011800D03*
X55247700Y-61584300D03*
X74645300Y-152205700D03*
X117840900Y-166094500D03*
X120388400Y-163547000D03*
X53545400Y-150719900D03*
X105296100Y-176841600D03*
X42811200Y-201282700D03*
X59756300Y-158112200D03*
X37964800Y-99541000D03*
X66750100Y-42785800D03*
X112974200Y-132729000D03*
X110201900Y-185633400D03*
X108084300Y-176727500D03*
X73993500Y-172395000D03*
X72477900Y-171452900D03*
X67230800Y-68899700D03*
X39076400Y-73143200D03*
X76092800Y-215336600D03*
X98716900Y-209619400D03*
X121340600Y-187440400D03*
X147123600Y-51135500D03*
X30349700Y-153379300D03*
X59948100Y-82724400D03*
X60249100Y-121853500D03*
X38358600Y-127652300D03*
X56473400Y-62573400D03*
X106768600Y-68101800D03*
X95368400Y-39577700D03*
X114060700Y-105160900D03*
X53743600Y-40637200D03*
X52107900Y-65273000D03*
X87500400Y-40788900D03*
X107138600Y-70778300D03*
X114437400Y-118460500D03*
X107306800Y-113063900D03*
X96341000Y-73464700D03*
X85170700Y-67424600D03*
X107724600Y-117035400D03*
X113738300Y-120748100D03*
X81689300Y-61056300D03*
X64736600Y-36927900D03*
X95003500Y-75536400D03*
X84001800Y-68255900D03*
X108813200Y-109457300D03*
X114588800Y-120836500D03*
X86955200Y-87224500D03*
X90683600Y-124888100D03*
X109998000Y-143894600D03*
X107441300Y-117991800D03*
X73217300Y-114056400D03*
X79115000Y-105977100D03*
X80702800Y-123444700D03*
X72152400Y-114421700D03*
X93081100Y-116589000D03*
X99848400Y-110723100D03*
X126920400Y-111432900D03*
X107434400Y-107847300D03*
X109354900Y-63078500D03*
X108182200Y-145022600D03*
X67679900Y-107968300D03*
X113233600Y-148429100D03*
X66229000Y-115189300D03*
X73522700Y-182840100D03*
X71114200Y-186534200D03*
X110639500Y-56998500D03*
X70134300Y-107644800D03*
X66136000Y-105561500D03*
X112715200Y-150092000D03*
X110451300Y-53678200D03*
X50237900Y-114780500D03*
X95195400Y-114405100D03*
X102687100Y-99417600D03*
X58194300Y-191904500D03*
X84252000Y-117335200D03*
X84252000Y-134534400D03*
X35253400Y-171502300D03*
X71274600Y-114397200D03*
X71390700Y-112541900D03*
X69256100Y-147606900D03*
X68795400Y-173329800D03*
X26604400Y-51722200D03*
X54409000Y-89157100D03*
X50619900Y-135991500D03*
X41249800Y-140983800D03*
X62557300Y-89861700D03*
X44412300Y-89893100D03*
X133094700Y-51641700D03*
X93254800Y-94765700D03*
X92563700Y-97634600D03*
X65203400Y-94262400D03*
X62421300Y-92246300D03*
X65084700Y-102782700D03*
X107402900Y-102949300D03*
X102781800Y-101901100D03*
X51435800Y-85054900D03*
X75156700Y-94579000D03*
X74464100Y-93886400D03*
X76048200Y-133857500D03*
X84207300Y-89998500D03*
X79561300Y-123182100D03*
X77309300Y-133861000D03*
X69683100Y-85502000D03*
X59070300Y-80287500D03*
X62254000Y-128031700D03*
X101020000Y-85628000D03*
X94982300Y-80343300D03*
X101659800Y-84960000D03*
X58422200Y-105913700D03*
X121858500Y-62250000D03*
X84178000Y-55853900D03*
X92795800Y-60552400D03*
X127980500Y-103358300D03*
X59590300Y-108899600D03*
X128065900Y-80500200D03*
X108610800Y-75502400D03*
X108610800Y-66747300D03*
X88773400Y-58733000D03*
X87273900Y-74976700D03*
X63445600Y-73740700D03*
X133331400Y-67944900D03*
X148230300Y-63299200D03*
X92496300Y-77351200D03*
X60828500Y-78936400D03*
X128047400Y-81535500D03*
X108673300Y-80806900D03*
X106129300Y-80806900D03*
X60146400Y-75202500D03*
X88928800Y-63032000D03*
X89222500Y-61831500D03*
X120278500Y-113128200D03*
X124209100Y-75087400D03*
X86725900Y-61747900D03*
X117752300Y-64456400D03*
X122356800Y-61570200D03*
X51188300Y-47750500D03*
X105573700Y-45597400D03*
X113554800Y-118616000D03*
X92620100Y-54867300D03*
X86666200Y-59371400D03*
X107004700Y-61660400D03*
X104417500Y-62454100D03*
X82842100Y-188367800D03*
X59817800Y-145212400D03*
X74216300Y-216200800D03*
X44290200Y-141676100D03*
X109557500Y-202556300D03*
X80986500Y-207043800D03*
X65558600Y-150447500D03*
X60960000Y-147011800D03*
X114683400Y-173786300D03*
X112361500Y-172486400D03*
X81524400Y-169321600D03*
X81647300Y-155674400D03*
X62150700Y-146155200D03*
X109985100Y-201734100D03*
X84782100Y-202508500D03*
X71383500Y-164475700D03*
X67831600Y-162645600D03*
X120305400Y-174539700D03*
X110646600Y-175458500D03*
X108610200Y-175556800D03*
X80366800Y-170516500D03*
X66944200Y-135727600D03*
X73331100Y-143555900D03*
X70158900Y-131437600D03*
X126222400Y-183408800D03*
X51364200Y-170132300D03*
X128506100Y-125016500D03*
X107458900Y-133361100D03*
X100461600Y-155293500D03*
X110819100Y-119363800D03*
X109185100Y-124500200D03*
X103145700Y-177486800D03*
X50555100Y-183215800D03*
X56895600Y-182731200D03*
X134954900Y-171052100D03*
X103183700Y-81253100D03*
X84877400Y-82879000D03*
X76717400Y-178013900D03*
X67310700Y-186763300D03*
X83003200Y-171842500D03*
X76821400Y-178841900D03*
X68160700Y-187241900D03*
X75665600Y-202279100D03*
X63744900Y-134974000D03*
X95475900Y-188062400D03*
X101415600Y-191457300D03*
X101743100Y-149956700D03*
X85064300Y-174010700D03*
X79939900Y-143398400D03*
X44744400Y-183585200D03*
X86522300Y-180706700D03*
X118271600Y-182553600D03*
X106091900Y-206250800D03*
X75317300Y-216345200D03*
X134084800Y-99382800D03*
X127504500Y-176794100D03*
D25*
X150899700Y-40369700D02*
X143550000Y-33020000D01*
X150899700Y-40640000D02*
X150899700Y-40369700D01*
X152400000Y-40640000D02*
X150899700Y-40640000D01*
X132120000Y-148860300D02*
X132120000Y-149860000D01*
X129540000Y-146280300D02*
X132120000Y-148860300D01*
X129540000Y-144780000D02*
X129540000Y-146280300D01*
X91440000Y-172720000D02*
X91440000Y-174220300D01*
X104140000Y-139700000D02*
X104140000Y-137160000D01*
X144820000Y-174260300D02*
X144820000Y-180340000D01*
X142240000Y-171680300D02*
X144820000Y-174260300D01*
X142240000Y-170180000D02*
X142240000Y-171680300D01*
X149860000Y-193040000D02*
X149860000Y-195580000D01*
X149860000Y-195580000D02*
X149860000Y-198120000D01*
X137160000Y-187960000D02*
X137160000Y-190500000D01*
X137160000Y-190500000D02*
X137160000Y-193040000D01*
X27940000Y-170180000D02*
X27940000Y-171680300D01*
X40640000Y-142240000D02*
X40640000Y-143740300D01*
X43220000Y-150859700D02*
X43220000Y-149860000D01*
X40640000Y-153439700D02*
X43220000Y-150859700D01*
X40640000Y-154940000D02*
X40640000Y-153439700D01*
X100330000Y-214630000D02*
X100330000Y-207010000D01*
X49530000Y-205970300D02*
X53340000Y-202160300D01*
X49530000Y-214630000D02*
X49530000Y-205970300D01*
X53340000Y-200660000D02*
X53340000Y-202160300D01*
X106680000Y-154940000D02*
X106680000Y-157147800D01*
X153670000Y-139660000D02*
X153670000Y-132080000D01*
X153630000Y-139700000D02*
X153670000Y-139660000D01*
X30520000Y-174260300D02*
X30520000Y-180340000D01*
X27940000Y-171680300D02*
X30520000Y-174260300D01*
X132080000Y-53340000D02*
X130579700Y-53340000D01*
X106015600Y-157812200D02*
X106680000Y-157147800D01*
X104140000Y-157812200D02*
X106015600Y-157812200D01*
X104140000Y-137160000D02*
X104140000Y-134620000D01*
X104140000Y-170180000D02*
X104140000Y-172387800D01*
X58589600Y-36959600D02*
X54650000Y-33020000D01*
X58589600Y-48429600D02*
X58589600Y-36959600D01*
X63500000Y-53340000D02*
X58589600Y-48429600D01*
X40640000Y-147280000D02*
X43220000Y-149860000D01*
X40640000Y-143740300D02*
X40640000Y-147280000D01*
X34330000Y-61895000D02*
X34330000Y-78740000D01*
X43032500Y-53192500D02*
X34330000Y-61895000D01*
X43180000Y-53340000D02*
X43032500Y-53192500D01*
X34330000Y-44490000D02*
X34330000Y-33020000D01*
X43032500Y-53192500D02*
X34330000Y-44490000D01*
X104140000Y-132080000D02*
X104140000Y-134620000D01*
X106015600Y-167972200D02*
X104140000Y-167972200D01*
X106680000Y-167307800D02*
X106015600Y-167972200D01*
X106680000Y-165100000D02*
X106680000Y-167307800D01*
X104140000Y-170180000D02*
X104140000Y-167972200D01*
X119420000Y-176800300D02*
X116840000Y-174220300D01*
X119420000Y-180340000D02*
X119420000Y-176800300D01*
X116840000Y-172720000D02*
X116840000Y-174220300D01*
X30520000Y-146320300D02*
X27940000Y-143740300D01*
X30520000Y-149860000D02*
X30520000Y-146320300D01*
X27940000Y-142240000D02*
X27940000Y-143740300D01*
X39370000Y-205970300D02*
X40640000Y-204700300D01*
X39370000Y-214630000D02*
X39370000Y-205970300D01*
X40640000Y-203200000D02*
X40640000Y-204700300D01*
X30520000Y-198080000D02*
X30520000Y-180340000D01*
X27940000Y-200660000D02*
X30520000Y-198080000D01*
X57153000Y-24167000D02*
X54650000Y-24167000D01*
X58460000Y-22860000D02*
X57153000Y-24167000D01*
X53340500Y-22857500D02*
X54650000Y-24167000D01*
X54650000Y-24167000D02*
X54650000Y-33020000D01*
X75995800Y-197915800D02*
X78740000Y-200660000D01*
X75995800Y-192835800D02*
X75995800Y-197915800D01*
X73660000Y-190500000D02*
X75995800Y-192835800D01*
X104140000Y-159730500D02*
X104140000Y-157812200D01*
X118355100Y-138675100D02*
X116840000Y-137160000D01*
X118355100Y-143264900D02*
X118355100Y-138675100D01*
X116840000Y-144780000D02*
X118355100Y-143264900D01*
X123230000Y-45990300D02*
X130579700Y-53340000D01*
X123230000Y-33020000D02*
X123230000Y-45990300D01*
X53340000Y-142240000D02*
X53340000Y-143740300D01*
X132120000Y-159980000D02*
X132120000Y-149860000D01*
X129540000Y-162560000D02*
X132120000Y-159980000D01*
X142240000Y-190500000D02*
X142240000Y-193040000D01*
X132120000Y-176800300D02*
X132120000Y-180340000D01*
X129540000Y-174220300D02*
X132120000Y-176800300D01*
X129540000Y-172720000D02*
X129540000Y-174220300D01*
X137160000Y-194310000D02*
X142240000Y-194310000D01*
X142240000Y-193040000D02*
X142240000Y-194310000D01*
X142240000Y-194310000D02*
X142240000Y-195580000D01*
X137160000Y-193040000D02*
X137160000Y-194310000D01*
X119420000Y-120920300D02*
X119420000Y-121920000D01*
X116840000Y-118340300D02*
X119420000Y-120920300D01*
X116840000Y-116840000D02*
X116840000Y-117590100D01*
X116840000Y-117590100D02*
X116840000Y-118340300D01*
X129540000Y-165100000D02*
X129540000Y-162560000D01*
X55840000Y-146240300D02*
X53340000Y-143740300D01*
X55840000Y-165100000D02*
X55840000Y-146240300D01*
X104140000Y-159730500D02*
X104140000Y-160020000D01*
X104804400Y-162892200D02*
X106680000Y-162892200D01*
X104140000Y-162227800D02*
X104804400Y-162892200D01*
X104140000Y-160020000D02*
X104140000Y-162227800D01*
X106680000Y-165100000D02*
X106680000Y-162892200D01*
X119252400Y-115177700D02*
X116840000Y-117590100D01*
X119252400Y-82717600D02*
X119252400Y-115177700D01*
X123230000Y-78740000D02*
X119252400Y-82717600D01*
X73660000Y-190500000D02*
X73660000Y-187960000D01*
X55920000Y-165180000D02*
X55840000Y-165100000D01*
X55920000Y-180340000D02*
X55920000Y-165180000D01*
X119420000Y-148860300D02*
X116840000Y-146280300D01*
X119420000Y-149860000D02*
X119420000Y-148860300D01*
X116840000Y-144780000D02*
X116840000Y-146280300D01*
X81320000Y-180340000D02*
X81320000Y-176341900D01*
X68620000Y-182625200D02*
X68620000Y-180340000D01*
X73660000Y-187665200D02*
X68620000Y-182625200D01*
X73660000Y-187960000D02*
X73660000Y-187665200D01*
X94020000Y-145007500D02*
X94020000Y-149860000D01*
X92752800Y-143740300D02*
X94020000Y-145007500D01*
X91440000Y-143740300D02*
X92752800Y-143740300D01*
X91440000Y-142240000D02*
X91440000Y-143740300D01*
X123208800Y-78718800D02*
X123230000Y-78740000D01*
X123208800Y-74673100D02*
X123208800Y-78718800D01*
X123357100Y-74524800D02*
X123208800Y-74673100D01*
X123357100Y-60562600D02*
X123357100Y-74524800D01*
X130579700Y-53340000D02*
X123357100Y-60562600D01*
X106720000Y-129500000D02*
X104140000Y-132080000D01*
X106720000Y-121920000D02*
X106720000Y-129500000D01*
X102910000Y-44490000D02*
X102910000Y-33020000D01*
X111760000Y-53340000D02*
X102910000Y-44490000D01*
X137160000Y-194310000D02*
X137160000Y-195580000D01*
X131040300Y-200199400D02*
X131040300Y-200660000D01*
X135659700Y-195580000D02*
X131040300Y-200199400D01*
X137160000Y-195580000D02*
X135659700Y-195580000D01*
X129540000Y-200660000D02*
X131040300Y-200660000D01*
X104190100Y-172437900D02*
X104140000Y-172387800D01*
X104190100Y-177810100D02*
X104190100Y-172437900D01*
X106720000Y-180340000D02*
X104190100Y-177810100D01*
X94020000Y-176800300D02*
X94020000Y-180340000D01*
X91440000Y-174220300D02*
X94020000Y-176800300D01*
X94020000Y-198080000D02*
X91440000Y-200660000D01*
X94020000Y-180340000D02*
X94020000Y-198080000D01*
D26*
X48260000Y-157480000D02*
X48260000Y-160020000D01*
D25*
X132080000Y-83820000D02*
X132080000Y-86360000D01*
X132080000Y-86360000D02*
X132080000Y-88900000D01*
X113268500Y-39608500D02*
X111760000Y-38100000D01*
X113268500Y-41671500D02*
X113268500Y-39608500D01*
X111760000Y-43180000D02*
X113268500Y-41671500D01*
X63500000Y-83820000D02*
X63500000Y-86360000D01*
X43180000Y-83820000D02*
X43180000Y-86360000D01*
X43180000Y-86360000D02*
X43180000Y-88900000D01*
X44688500Y-39608500D02*
X43180000Y-38100000D01*
X44688500Y-41671500D02*
X44688500Y-39608500D01*
X43180000Y-43180000D02*
X44688500Y-41671500D01*
X48260000Y-185420000D02*
X48260000Y-183919700D01*
X122230600Y-151210300D02*
X121920000Y-151210300D01*
X124460000Y-153439700D02*
X122230600Y-151210300D01*
X124460000Y-154940000D02*
X124460000Y-153439700D01*
X121920000Y-149860000D02*
X121920000Y-151210300D01*
X124149400Y-125499700D02*
X121920000Y-123270300D01*
X124460000Y-125499700D02*
X124149400Y-125499700D01*
X121920000Y-121920000D02*
X121920000Y-123270300D01*
X124460000Y-127000000D02*
X124460000Y-125499700D01*
X137160000Y-185420000D02*
X137160000Y-183919700D01*
X73660000Y-127000000D02*
X73660000Y-125499700D01*
X71120000Y-121920000D02*
X71120000Y-123270300D01*
X73660000Y-185420000D02*
X73660000Y-183919700D01*
X71120000Y-180340000D02*
X71120000Y-181690300D01*
X58730600Y-123270300D02*
X58420000Y-123270300D01*
X60960000Y-125499700D02*
X58730600Y-123270300D01*
X60960000Y-127000000D02*
X60960000Y-125499700D01*
X58420000Y-121920000D02*
X58420000Y-123270300D01*
X33330600Y-151210300D02*
X33020000Y-151210300D01*
X35560000Y-153439700D02*
X33330600Y-151210300D01*
X35560000Y-154940000D02*
X35560000Y-153439700D01*
X33020000Y-149860000D02*
X33020000Y-151210300D01*
X33330600Y-181690300D02*
X33020000Y-181690300D01*
X35560000Y-183919700D02*
X33330600Y-181690300D01*
X35560000Y-185420000D02*
X35560000Y-183919700D01*
X33020000Y-180340000D02*
X33020000Y-181690300D01*
X46030600Y-123270300D02*
X45720000Y-123270300D01*
X48260000Y-125499700D02*
X46030600Y-123270300D01*
X48260000Y-127000000D02*
X48260000Y-125499700D01*
X45720000Y-121920000D02*
X45720000Y-123270300D01*
X91440000Y-214630000D02*
X91440000Y-212422200D01*
X60960000Y-27859700D02*
X57150000Y-31669700D01*
X60960000Y-22860000D02*
X60960000Y-27859700D01*
X57150000Y-33020000D02*
X57150000Y-31669700D01*
X134620000Y-181015100D02*
X134620000Y-181690300D01*
X134620000Y-181015100D02*
X134620000Y-180340000D01*
X45720000Y-181015100D02*
X45720000Y-181690300D01*
X45720000Y-181015100D02*
X45720000Y-180340000D01*
X45720000Y-169140300D02*
X40640000Y-164060300D01*
X45720000Y-180340000D02*
X45720000Y-169140300D01*
X40640000Y-162560000D02*
X40640000Y-164060300D01*
X58420000Y-121920000D02*
X58420000Y-120569700D01*
X63500000Y-43180000D02*
X65000300Y-43180000D01*
X65000300Y-39600300D02*
X63500000Y-38100000D01*
X65000300Y-43180000D02*
X65000300Y-39600300D01*
X63500000Y-86360000D02*
X63500000Y-88900000D01*
X68580000Y-71120000D02*
X67079700Y-71120000D01*
X67079700Y-71120000D02*
X66604600Y-71120000D01*
X66604600Y-79215100D02*
X66604600Y-71120000D01*
X63500000Y-82319700D02*
X66604600Y-79215100D01*
X63500000Y-83820000D02*
X63500000Y-82319700D01*
X134930600Y-181690300D02*
X137160000Y-183919700D01*
X134620000Y-181690300D02*
X134930600Y-181690300D01*
X33020000Y-129540000D02*
X33020000Y-148509700D01*
X35560000Y-127000000D02*
X33020000Y-129540000D01*
X33020000Y-149860000D02*
X33020000Y-148509700D01*
X73187700Y-183919700D02*
X73660000Y-183919700D01*
X71120000Y-181852000D02*
X73187700Y-183919700D01*
X71120000Y-181690300D02*
X71120000Y-181852000D01*
X145090600Y-183919700D02*
X147320000Y-181690300D01*
X137160000Y-183919700D02*
X145090600Y-183919700D01*
X134620000Y-180340000D02*
X134620000Y-178989700D01*
X147320000Y-180340000D02*
X147320000Y-181690300D01*
X82550000Y-124460000D02*
X81151200Y-124460000D01*
X127000000Y-165100000D02*
X129540000Y-167640000D01*
X127000000Y-157480000D02*
X127000000Y-165100000D01*
X124460000Y-154940000D02*
X127000000Y-157480000D01*
X57150000Y-78740000D02*
X57150000Y-80090300D01*
X60649400Y-183919700D02*
X60960000Y-183919700D01*
X58420000Y-181690300D02*
X60649400Y-183919700D01*
X58420000Y-180340000D02*
X58420000Y-181690300D01*
X60960000Y-185420000D02*
X60960000Y-183919700D01*
X91440000Y-190500000D02*
X91440000Y-187960000D01*
X99060000Y-190500000D02*
X99060000Y-193040000D01*
X99060000Y-185420000D02*
X97559700Y-185420000D01*
X97559700Y-182730000D02*
X96520000Y-181690300D01*
X97559700Y-185420000D02*
X97559700Y-182730000D01*
X97559700Y-188999700D02*
X97559700Y-185420000D01*
X99060000Y-190500000D02*
X97559700Y-188999700D01*
X96520000Y-180340000D02*
X96520000Y-181690300D01*
X137160000Y-127000000D02*
X137160000Y-125499700D01*
X134930600Y-123270300D02*
X137160000Y-125499700D01*
X134620000Y-123270300D02*
X134930600Y-123270300D01*
X134620000Y-121920000D02*
X134620000Y-123270300D01*
X129540000Y-187960000D02*
X131040300Y-187960000D01*
X131791400Y-188711000D02*
X131040300Y-187960000D01*
X131041200Y-189461200D02*
X131791400Y-188711000D01*
X131041200Y-191538800D02*
X131041200Y-189461200D01*
X129540000Y-193040000D02*
X131041200Y-191538800D01*
X135082400Y-185420000D02*
X137160000Y-185420000D01*
X131791400Y-188711000D02*
X135082400Y-185420000D01*
X46030600Y-181690300D02*
X45720000Y-181690300D01*
X48260000Y-183919700D02*
X46030600Y-181690300D01*
X111760000Y-83820000D02*
X111760000Y-86360000D01*
X111760000Y-86360000D02*
X111760000Y-88900000D01*
X122230600Y-181690300D02*
X124460000Y-183919700D01*
X121920000Y-181690300D02*
X122230600Y-181690300D01*
X124460000Y-185420000D02*
X124460000Y-183919700D01*
X121920000Y-180340000D02*
X121920000Y-181690300D01*
X134620000Y-172720000D02*
X134620000Y-178989700D01*
X129540000Y-167640000D02*
X134620000Y-172720000D01*
X66224000Y-70739400D02*
X66604600Y-71120000D01*
X66224000Y-68491900D02*
X66224000Y-70739400D01*
X66402000Y-68313900D02*
X66224000Y-68491900D01*
X66402000Y-53464800D02*
X66402000Y-68313900D01*
X65924700Y-52987500D02*
X66402000Y-53464800D01*
X65924700Y-44104400D02*
X65924700Y-52987500D01*
X65000300Y-43180000D02*
X65924700Y-44104400D01*
X111760000Y-127000000D02*
X111760000Y-125499700D01*
X109220000Y-121920000D02*
X109220000Y-123270300D01*
X96830600Y-151210300D02*
X96520000Y-151210300D01*
X99060000Y-153439700D02*
X96830600Y-151210300D01*
X99060000Y-154940000D02*
X99060000Y-153439700D01*
X96520000Y-149860000D02*
X96520000Y-151210300D01*
X73323500Y-125499700D02*
X73660000Y-125499700D01*
X71120000Y-123296200D02*
X73323500Y-125499700D01*
X71120000Y-123270300D02*
X71120000Y-123296200D01*
X71430600Y-151210300D02*
X71120000Y-151210300D01*
X73660000Y-153439700D02*
X71430600Y-151210300D01*
X73660000Y-154940000D02*
X73660000Y-153439700D01*
X71120000Y-149860000D02*
X71120000Y-151210300D01*
X100566000Y-168674000D02*
X99060000Y-170180000D01*
X100566000Y-156812500D02*
X100566000Y-168674000D01*
X99060000Y-155306500D02*
X100566000Y-156812500D01*
X99060000Y-154940000D02*
X99060000Y-155306500D01*
X78740000Y-124460000D02*
X81151200Y-124460000D01*
X47949400Y-153439700D02*
X48260000Y-153439700D01*
X45720000Y-151210300D02*
X47949400Y-153439700D01*
X45720000Y-149860000D02*
X45720000Y-151210300D01*
X48260000Y-154940000D02*
X48260000Y-153439700D01*
X57150000Y-119299700D02*
X57150000Y-80090300D01*
X58420000Y-120569700D02*
X57150000Y-119299700D01*
X111449400Y-183919700D02*
X111760000Y-183919700D01*
X109220000Y-181690300D02*
X111449400Y-183919700D01*
X109220000Y-180340000D02*
X109220000Y-181690300D01*
X111760000Y-185420000D02*
X111760000Y-183919700D01*
X146050000Y-80198800D02*
X146050000Y-78740000D01*
X144680700Y-81568100D02*
X146050000Y-80198800D01*
X109530600Y-123270300D02*
X109220000Y-123270300D01*
X111760000Y-125499700D02*
X109530600Y-123270300D01*
X86049400Y-153439700D02*
X86360000Y-153439700D01*
X83820000Y-151210300D02*
X86049400Y-153439700D01*
X83820000Y-149860000D02*
X83820000Y-151210300D01*
X86360000Y-154940000D02*
X86360000Y-153439700D01*
X36830000Y-30757900D02*
X43180500Y-24407400D01*
X36830000Y-33020000D02*
X36830000Y-30757900D01*
X43180500Y-22857500D02*
X43180500Y-24407400D01*
X91440000Y-211228300D02*
X91440000Y-212422200D01*
X100601900Y-202066400D02*
X91440000Y-211228300D01*
X100601900Y-194604100D02*
X100601900Y-202066400D01*
X99060000Y-193062200D02*
X100601900Y-194604100D01*
X99060000Y-193040000D02*
X99060000Y-193062200D01*
D26*
X71120000Y-208280000D02*
X71120000Y-214630000D01*
X69850000Y-207010000D02*
X71120000Y-208280000D01*
X88900000Y-210820000D02*
X88900000Y-214630000D01*
X92710000Y-207010000D02*
X88900000Y-210820000D01*
X91440000Y-160020000D02*
X91440000Y-158894700D01*
X93017200Y-157598800D02*
X93017200Y-145423800D01*
X91721300Y-158894700D02*
X93017200Y-157598800D01*
X91440000Y-158894700D02*
X91721300Y-158894700D01*
X91440000Y-162560000D02*
X91440000Y-161434700D01*
X85327900Y-133112100D02*
X85327900Y-148026400D01*
X86360000Y-132080000D02*
X85327900Y-133112100D01*
X89849000Y-151690800D02*
X90037000Y-151502800D01*
X89849000Y-160125000D02*
X89849000Y-151690800D01*
X91158700Y-161434700D02*
X89849000Y-160125000D01*
X91440000Y-161434700D02*
X91158700Y-161434700D01*
X91440000Y-165100000D02*
X91440000Y-163974700D01*
X91721300Y-163974700D02*
X91440000Y-163974700D01*
X93790800Y-161905200D02*
X91721300Y-163974700D01*
X93790800Y-151470100D02*
X93790800Y-161905200D01*
X95025400Y-150235500D02*
X93790800Y-151470100D01*
X95025400Y-139118500D02*
X95025400Y-150235500D01*
X91796900Y-135890000D02*
X95025400Y-139118500D01*
X91055800Y-135890000D02*
X91796900Y-135890000D01*
X89380200Y-134214400D02*
X91055800Y-135890000D01*
X89380200Y-132090900D02*
X89380200Y-134214400D01*
X91440000Y-167640000D02*
X91440000Y-166514700D01*
X88697200Y-127723500D02*
X88776300Y-127644400D01*
X88697200Y-138362200D02*
X88697200Y-127723500D01*
X89598200Y-139263200D02*
X88697200Y-138362200D01*
X89598200Y-144735200D02*
X89598200Y-139263200D01*
X89398700Y-144934700D02*
X89598200Y-144735200D01*
X89398700Y-164754700D02*
X89398700Y-144934700D01*
X91158700Y-166514700D02*
X89398700Y-164754700D01*
X91440000Y-166514700D02*
X91158700Y-166514700D01*
D25*
X100994400Y-20652200D02*
X101932200Y-21590000D01*
X91440000Y-20652200D02*
X100994400Y-20652200D01*
X91440000Y-22860000D02*
X91440000Y-20652200D01*
X104140000Y-21590000D02*
X101932200Y-21590000D01*
D26*
X137160000Y-40640000D02*
X137160000Y-39514700D01*
X96371600Y-25251600D02*
X93980000Y-22860000D01*
X107489700Y-25251600D02*
X96371600Y-25251600D01*
X111750900Y-20990400D02*
X107489700Y-25251600D01*
X124879500Y-20990400D02*
X111750900Y-20990400D01*
X125730000Y-21840900D02*
X124879500Y-20990400D01*
X125730000Y-27829900D02*
X125730000Y-21840900D01*
X128502500Y-30602400D02*
X125730000Y-27829900D01*
X128502500Y-31120800D02*
X128502500Y-30602400D01*
X136896400Y-39514700D02*
X128502500Y-31120800D01*
X137160000Y-39514700D02*
X136896400Y-39514700D01*
X127877200Y-38065500D02*
X127877200Y-30861500D01*
X131721700Y-41910000D02*
X127877200Y-38065500D01*
X132407500Y-41910000D02*
X131721700Y-41910000D01*
X135968900Y-45471400D02*
X132407500Y-41910000D01*
X135968900Y-48747000D02*
X135968900Y-45471400D01*
X136722800Y-49500900D02*
X135968900Y-48747000D01*
X137476900Y-49500900D02*
X136722800Y-49500900D01*
X139712600Y-51736600D02*
X137476900Y-49500900D01*
X139712600Y-82963500D02*
X139712600Y-51736600D01*
X137441400Y-85234700D02*
X139712600Y-82963500D01*
X137160000Y-85234700D02*
X137441400Y-85234700D01*
X137160000Y-86360000D02*
X137160000Y-85234700D01*
X137160000Y-96520000D02*
X137160000Y-95394700D01*
X136878700Y-95394700D02*
X137160000Y-95394700D01*
X136006000Y-94522000D02*
X136878700Y-95394700D01*
X136006000Y-82694600D02*
X136006000Y-94522000D01*
X139232500Y-79468100D02*
X136006000Y-82694600D01*
X139232500Y-53771800D02*
X139232500Y-79468100D01*
X137530700Y-52070000D02*
X139232500Y-53771800D01*
X136801600Y-52070000D02*
X137530700Y-52070000D01*
X135968900Y-51237300D02*
X136801600Y-52070000D01*
X135968900Y-50137700D02*
X135968900Y-51237300D01*
X135518600Y-49687400D02*
X135968900Y-50137700D01*
X135518600Y-47500700D02*
X135518600Y-49687400D01*
X132467900Y-44450000D02*
X135518600Y-47500700D01*
X131756800Y-44450000D02*
X132467900Y-44450000D01*
X124460000Y-37153200D02*
X131756800Y-44450000D01*
X124460000Y-22860000D02*
X124460000Y-37153200D01*
D25*
X77470000Y-214630000D02*
X77470000Y-212422200D01*
X77470000Y-212396600D02*
X77470000Y-212422200D01*
X87868500Y-201998100D02*
X77470000Y-212396600D01*
X87868500Y-143968300D02*
X87868500Y-201998100D01*
X87764800Y-143864600D02*
X87868500Y-143968300D01*
X87764800Y-123424800D02*
X87764800Y-143864600D01*
X85919000Y-121579000D02*
X87764800Y-123424800D01*
X85919000Y-68091000D02*
X85919000Y-121579000D01*
X86171000Y-67839000D02*
X85919000Y-68091000D01*
X86171000Y-62607600D02*
X86171000Y-67839000D01*
X85725600Y-62162200D02*
X86171000Y-62607600D01*
X85725600Y-61940700D02*
X85725600Y-62162200D01*
X72390000Y-48605100D02*
X85725600Y-61940700D01*
X72390000Y-22860000D02*
X72390000Y-48605100D01*
D26*
X51136600Y-179662700D02*
X51136600Y-177072400D01*
X56318600Y-184844700D02*
X51136600Y-179662700D01*
X56318600Y-197631200D02*
X56318600Y-184844700D01*
X61591900Y-202904500D02*
X56318600Y-197631200D01*
X73364500Y-202904500D02*
X61591900Y-202904500D01*
X77470000Y-207010000D02*
X73364500Y-202904500D01*
X115111700Y-169368300D02*
X113030000Y-171450000D01*
X115111700Y-165579100D02*
X115111700Y-169368300D01*
X115714600Y-164976200D02*
X115111700Y-165579100D01*
X115714600Y-154443100D02*
X115714600Y-164976200D01*
X117278200Y-152879500D02*
X115714600Y-154443100D01*
X117799600Y-152879500D02*
X117278200Y-152879500D01*
X120456200Y-150222900D02*
X117799600Y-152879500D01*
X120456200Y-144095900D02*
X120456200Y-150222900D01*
X124460000Y-137160000D02*
X124460000Y-138285300D01*
X124178600Y-138285300D02*
X124460000Y-138285300D01*
X121622600Y-140841300D02*
X124178600Y-138285300D01*
X121622600Y-145703300D02*
X121622600Y-140841300D01*
X115151000Y-151662500D02*
X117924300Y-148889200D01*
X115151000Y-164499500D02*
X115151000Y-151662500D01*
X114143300Y-165507200D02*
X115151000Y-164499500D01*
X114143300Y-167796700D02*
X114143300Y-165507200D01*
X113030000Y-168910000D02*
X114143300Y-167796700D01*
X115700500Y-138810100D02*
X115900400Y-138610200D01*
X115700500Y-150056500D02*
X115700500Y-138810100D01*
X114700600Y-151056400D02*
X115700500Y-150056500D01*
X114700600Y-164284500D02*
X114700600Y-151056400D01*
X113030000Y-165955100D02*
X114700600Y-164284500D01*
X113030000Y-166370000D02*
X113030000Y-165955100D01*
X111087000Y-161887000D02*
X113030000Y-163830000D01*
X111087000Y-152666300D02*
X111087000Y-161887000D01*
X114334200Y-149419100D02*
X111087000Y-152666300D01*
X114334200Y-133739300D02*
X114334200Y-149419100D01*
X114959300Y-133114200D02*
X114334200Y-133739300D01*
X114959300Y-129768100D02*
X114959300Y-133114200D01*
X116602100Y-128125300D02*
X114959300Y-129768100D01*
X116840000Y-128125300D02*
X116602100Y-128125300D01*
X116840000Y-127000000D02*
X116840000Y-128125300D01*
X116840000Y-129540000D02*
X116840000Y-130665300D01*
X120425000Y-125955000D02*
X116840000Y-129540000D01*
X120425000Y-117484200D02*
X120425000Y-125955000D01*
X125438500Y-112470700D02*
X120425000Y-117484200D01*
X125438500Y-80835200D02*
X125438500Y-112470700D01*
X126723900Y-79549800D02*
X125438500Y-80835200D01*
X126723900Y-59630800D02*
X126723900Y-79549800D01*
X131656900Y-54697800D02*
X126723900Y-59630800D01*
X132775300Y-54697800D02*
X131656900Y-54697800D01*
X116558700Y-130665300D02*
X116840000Y-130665300D01*
X115634900Y-131589100D02*
X116558700Y-130665300D01*
X115634900Y-133097400D02*
X115634900Y-131589100D01*
X114784600Y-133947700D02*
X115634900Y-133097400D01*
X114784600Y-149698600D02*
X114784600Y-133947700D01*
X111537400Y-152945800D02*
X114784600Y-149698600D01*
X111537400Y-159797400D02*
X111537400Y-152945800D01*
X113030000Y-161290000D02*
X111537400Y-159797400D01*
X120875400Y-128044600D02*
X116840000Y-132080000D01*
X120875400Y-120571800D02*
X120875400Y-128044600D01*
X126095700Y-115351500D02*
X120875400Y-120571800D01*
X126095700Y-99833600D02*
X126095700Y-115351500D01*
X116840000Y-132080000D02*
X116840000Y-133205300D01*
X116586500Y-133205300D02*
X116840000Y-133205300D01*
X115250100Y-134541700D02*
X116586500Y-133205300D01*
X115250100Y-149870000D02*
X115250100Y-134541700D01*
X114250200Y-150869900D02*
X115250100Y-149870000D01*
X114250200Y-157529800D02*
X114250200Y-150869900D01*
X113030000Y-158750000D02*
X114250200Y-157529800D01*
X116175500Y-179715000D02*
X116175500Y-184119100D01*
X110455900Y-173995400D02*
X116175500Y-179715000D01*
X110455900Y-158740200D02*
X110455900Y-173995400D01*
X116840000Y-185420000D02*
X116840000Y-184294700D01*
X116840000Y-179714000D02*
X116840000Y-184294700D01*
X111722400Y-174596400D02*
X116840000Y-179714000D01*
X111722400Y-166217800D02*
X111722400Y-174596400D01*
X112840200Y-165100000D02*
X111722400Y-166217800D01*
X113219600Y-165100000D02*
X112840200Y-165100000D01*
X114061000Y-164258600D02*
X113219600Y-165100000D01*
X114061000Y-160838600D02*
X114061000Y-164258600D01*
X113019800Y-159797400D02*
X114061000Y-160838600D01*
X112556500Y-159797400D02*
X113019800Y-159797400D01*
X111987800Y-159228700D02*
X112556500Y-159797400D01*
X111987800Y-154712200D02*
X111987800Y-159228700D01*
X113030000Y-153670000D02*
X111987800Y-154712200D01*
X88948300Y-144500700D02*
X88972900Y-144476100D01*
X88948300Y-181803000D02*
X88948300Y-144500700D01*
X91440000Y-184294700D02*
X88948300Y-181803000D01*
X91440000Y-185420000D02*
X91440000Y-184294700D01*
X91158700Y-186545300D02*
X91440000Y-186545300D01*
X89767900Y-187936100D02*
X91158700Y-186545300D01*
X89767900Y-201513300D02*
X89767900Y-187936100D01*
X82045500Y-209235700D02*
X89767900Y-201513300D01*
X91440000Y-185420000D02*
X91440000Y-186545300D01*
X90314700Y-202079400D02*
X82300700Y-210093400D01*
X90314700Y-195009200D02*
X90314700Y-202079400D01*
X91158600Y-194165300D02*
X90314700Y-195009200D01*
X91440000Y-194165300D02*
X91158600Y-194165300D01*
X91440000Y-193040000D02*
X91440000Y-193602600D01*
X91440000Y-193602600D02*
X91440000Y-194165300D01*
X94907200Y-165783400D02*
X94907200Y-151578400D01*
X91706700Y-168983900D02*
X94907200Y-165783400D01*
X91038600Y-168983900D02*
X91706700Y-168983900D01*
X90314600Y-169707900D02*
X91038600Y-168983900D01*
X90314600Y-175224800D02*
X90314600Y-169707900D01*
X92593300Y-177503500D02*
X90314600Y-175224800D01*
X92593300Y-192449300D02*
X92593300Y-177503500D01*
X91440000Y-193602600D02*
X92593300Y-192449300D01*
X99060000Y-187960000D02*
X99060000Y-187397300D01*
X99060000Y-187397300D02*
X99060000Y-186834700D01*
X95641700Y-151038900D02*
X95493800Y-150891000D01*
X95641700Y-168421600D02*
X95641700Y-151038900D01*
X98670100Y-171450000D02*
X95641700Y-168421600D01*
X99405700Y-171450000D02*
X98670100Y-171450000D01*
X100202600Y-172246900D02*
X99405700Y-171450000D01*
X100202600Y-185973400D02*
X100202600Y-172246900D01*
X99341300Y-186834700D02*
X100202600Y-185973400D01*
X99060000Y-186834700D02*
X99341300Y-186834700D01*
X84178000Y-218424100D02*
X84178000Y-218424200D01*
X89925800Y-218424100D02*
X84178000Y-218424100D01*
X97641300Y-210708600D02*
X89925800Y-218424100D01*
X97641300Y-206194200D02*
X97641300Y-210708600D01*
X101427300Y-202408200D02*
X97641300Y-206194200D01*
X101427300Y-194262300D02*
X101427300Y-202408200D01*
X100762900Y-193597900D02*
X101427300Y-194262300D01*
X100762900Y-189100200D02*
X100762900Y-193597900D01*
X99060000Y-187397300D02*
X100762900Y-189100200D01*
X102063800Y-153024500D02*
X101863800Y-152824500D01*
X102063800Y-193362500D02*
X102063800Y-153024500D01*
X101737800Y-193688500D02*
X102063800Y-193362500D01*
X46276400Y-217918000D02*
X42988400Y-214630000D01*
X76491100Y-217918000D02*
X46276400Y-217918000D01*
X78740000Y-215669100D02*
X76491100Y-217918000D01*
X78740000Y-213547900D02*
X78740000Y-215669100D01*
X79556100Y-212731800D02*
X78740000Y-213547900D01*
X81064200Y-212731800D02*
X79556100Y-212731800D01*
X97934700Y-195861300D02*
X81064200Y-212731800D01*
X97934700Y-195580000D02*
X97934700Y-195861300D01*
X99060000Y-195580000D02*
X97934700Y-195580000D01*
X41910000Y-214630000D02*
X42988400Y-214630000D01*
X83573900Y-125976100D02*
X82550000Y-127000000D01*
X83573900Y-103821300D02*
X83573900Y-125976100D01*
X79050200Y-99297600D02*
X83573900Y-103821300D01*
X77659900Y-97394100D02*
X77775800Y-97278200D01*
X77659900Y-125307600D02*
X77659900Y-97394100D01*
X77923000Y-125570700D02*
X77659900Y-125307600D01*
X78809500Y-125570700D02*
X77923000Y-125570700D01*
X82550000Y-129311200D02*
X78809500Y-125570700D01*
X82550000Y-129540000D02*
X82550000Y-129311200D01*
X68580000Y-93980000D02*
X68580000Y-95105300D01*
X68760800Y-95105300D02*
X68580000Y-95105300D01*
X73851000Y-100195500D02*
X68760800Y-95105300D01*
X73851000Y-119481900D02*
X73851000Y-100195500D01*
X73660400Y-119672500D02*
X73851000Y-119481900D01*
X68580000Y-66040000D02*
X68580000Y-67165300D01*
X68795900Y-67165300D02*
X68580000Y-67165300D01*
X76682600Y-75052000D02*
X68795900Y-67165300D01*
X76682600Y-128958700D02*
X76682600Y-75052000D01*
X78533900Y-130810000D02*
X76682600Y-128958700D01*
X78993800Y-130810000D02*
X78533900Y-130810000D01*
X82550000Y-134366200D02*
X78993800Y-130810000D01*
X82550000Y-134620000D02*
X82550000Y-134366200D01*
X68580000Y-68580000D02*
X68580000Y-69705300D01*
X68795900Y-69705300D02*
X68580000Y-69705300D01*
X76232300Y-77141700D02*
X68795900Y-69705300D01*
X76232300Y-131060900D02*
X76232300Y-77141700D01*
X78725600Y-133554200D02*
X76232300Y-131060900D01*
X79241000Y-133554200D02*
X78725600Y-133554200D01*
X82550000Y-136863200D02*
X79241000Y-133554200D01*
X82550000Y-137160000D02*
X82550000Y-136863200D01*
X68580000Y-88900000D02*
X68580000Y-90025300D01*
X68298700Y-90025300D02*
X68580000Y-90025300D01*
X67238800Y-91085200D02*
X68298700Y-90025300D01*
X67238800Y-106088700D02*
X67238800Y-91085200D01*
X66964300Y-106363200D02*
X67238800Y-106088700D01*
X66964300Y-114277900D02*
X66964300Y-106363200D01*
X67367100Y-114680700D02*
X66964300Y-114277900D01*
X67367100Y-126931500D02*
X67367100Y-114680700D01*
X69496700Y-129061100D02*
X67367100Y-126931500D01*
X69496700Y-136300000D02*
X69496700Y-129061100D01*
X69629400Y-136432700D02*
X69496700Y-136300000D01*
X81526100Y-140723900D02*
X82550000Y-139700000D01*
X81526100Y-146775900D02*
X81526100Y-140723900D01*
X82305500Y-147555300D02*
X81526100Y-146775900D01*
X82305500Y-169462200D02*
X82305500Y-147555300D01*
X80317700Y-171450000D02*
X82305500Y-169462200D01*
X77616200Y-171450000D02*
X80317700Y-171450000D01*
X76878400Y-172187800D02*
X77616200Y-171450000D01*
X62230000Y-214630000D02*
X61151600Y-214630000D01*
X40640000Y-137160000D02*
X40640000Y-136034700D01*
X83615700Y-141174300D02*
X82550000Y-142240000D01*
X83615700Y-139247400D02*
X83615700Y-141174300D01*
X82798300Y-138430000D02*
X83615700Y-139247400D01*
X82332800Y-138430000D02*
X82798300Y-138430000D01*
X80543700Y-136640900D02*
X82332800Y-138430000D01*
X80543700Y-135741300D02*
X80543700Y-136640900D01*
X40358600Y-136034700D02*
X40640000Y-136034700D01*
X39514700Y-135190800D02*
X40358600Y-136034700D01*
X39514700Y-126513500D02*
X39514700Y-135190800D01*
X40173400Y-125854800D02*
X39514700Y-126513500D01*
X41108900Y-125854800D02*
X40173400Y-125854800D01*
X44973400Y-129719300D02*
X41108900Y-125854800D01*
X44973400Y-145560400D02*
X44973400Y-129719300D01*
X50061000Y-150648000D02*
X44973400Y-145560400D01*
X50061000Y-179224000D02*
X50061000Y-150648000D01*
X55868200Y-185031200D02*
X50061000Y-179224000D01*
X55868200Y-200318700D02*
X55868200Y-185031200D01*
X61151600Y-205602100D02*
X55868200Y-200318700D01*
X61151600Y-214630000D02*
X61151600Y-205602100D01*
X77706700Y-126257400D02*
X77759500Y-126204600D01*
X77706700Y-127430800D02*
X77706700Y-126257400D01*
X78545900Y-128270000D02*
X77706700Y-127430800D01*
X78990900Y-128270000D02*
X78545900Y-128270000D01*
X81530900Y-130810000D02*
X78990900Y-128270000D01*
X82728000Y-130810000D02*
X81530900Y-130810000D01*
X83573900Y-131655900D02*
X82728000Y-130810000D01*
X83573900Y-136455100D02*
X83573900Y-131655900D01*
X84066100Y-136947300D02*
X83573900Y-136455100D01*
X84066100Y-143263900D02*
X84066100Y-136947300D01*
X82550000Y-144780000D02*
X84066100Y-143263900D01*
X40640000Y-127000000D02*
X40640000Y-128125300D01*
X57150000Y-214630000D02*
X56071600Y-214630000D01*
X54915700Y-213474100D02*
X56071600Y-214630000D01*
X54915700Y-185352600D02*
X54915700Y-213474100D01*
X46545400Y-176982300D02*
X54915700Y-185352600D01*
X46545400Y-163685400D02*
X46545400Y-176982300D01*
X44496400Y-161636400D02*
X46545400Y-163685400D01*
X44496400Y-149514100D02*
X44496400Y-161636400D01*
X43114200Y-148131900D02*
X44496400Y-149514100D01*
X43114200Y-130318200D02*
X43114200Y-148131900D01*
X40921300Y-128125300D02*
X43114200Y-130318200D01*
X40640000Y-128125300D02*
X40921300Y-128125300D01*
X68580000Y-91440000D02*
X69705300Y-91440000D01*
X74314600Y-96049300D02*
X69705300Y-91440000D01*
X74314600Y-122948200D02*
X74314600Y-96049300D01*
X73250600Y-124012200D02*
X74314600Y-122948200D01*
X53340000Y-139700000D02*
X53340000Y-138574700D01*
X68580000Y-60960000D02*
X68580000Y-62085300D01*
X52214700Y-123627300D02*
X54958000Y-120884000D01*
X52214700Y-137730800D02*
X52214700Y-123627300D01*
X53058600Y-138574700D02*
X52214700Y-137730800D01*
X53340000Y-138574700D02*
X53058600Y-138574700D01*
X68861300Y-62085300D02*
X68580000Y-62085300D01*
X77132900Y-70356900D02*
X68861300Y-62085300D01*
X77132900Y-127932900D02*
X77132900Y-70356900D01*
X78740000Y-129540000D02*
X77132900Y-127932900D01*
X68580000Y-78740000D02*
X68580000Y-79865300D01*
X27658600Y-191914700D02*
X27940000Y-191914700D01*
X26814700Y-191070800D02*
X27658600Y-191914700D01*
X26814700Y-161989300D02*
X26814700Y-191070800D01*
X27658700Y-161145300D02*
X26814700Y-161989300D01*
X27940000Y-161145300D02*
X27658700Y-161145300D01*
X27940000Y-160020000D02*
X27940000Y-161145300D01*
X27940000Y-193040000D02*
X27940000Y-191914700D01*
X68387200Y-79865300D02*
X68580000Y-79865300D01*
X66279000Y-81973500D02*
X68387200Y-79865300D01*
X66279000Y-104534200D02*
X66279000Y-81973500D01*
X65510700Y-105302500D02*
X66279000Y-104534200D01*
X65510700Y-105820500D02*
X65510700Y-105302500D01*
X65537900Y-105847700D02*
X65510700Y-105820500D01*
X65537900Y-124158000D02*
X65537900Y-105847700D01*
X65777200Y-124397300D02*
X65537900Y-124158000D01*
X68580000Y-81280000D02*
X68580000Y-82405300D01*
X28221400Y-196994700D02*
X27940000Y-196994700D01*
X29065300Y-196150800D02*
X28221400Y-196994700D01*
X29065300Y-189929300D02*
X29065300Y-196150800D01*
X28221300Y-189085300D02*
X29065300Y-189929300D01*
X27940000Y-189085300D02*
X28221300Y-189085300D01*
X27940000Y-187960000D02*
X27940000Y-189085300D01*
X27940000Y-198120000D02*
X27940000Y-196994700D01*
X68777300Y-82405300D02*
X68580000Y-82405300D01*
X75782000Y-89410000D02*
X68777300Y-82405300D01*
X75782000Y-131341800D02*
X75782000Y-89410000D01*
X78740000Y-134299800D02*
X75782000Y-131341800D01*
X78740000Y-134620000D02*
X78740000Y-134299800D01*
X79763900Y-135643900D02*
X78740000Y-134620000D01*
X79763900Y-141882400D02*
X79763900Y-135643900D01*
X80619700Y-142738200D02*
X79763900Y-141882400D01*
X80619700Y-144289600D02*
X80619700Y-142738200D01*
X80341200Y-144568100D02*
X80619700Y-144289600D01*
X80341200Y-150260600D02*
X80341200Y-144568100D01*
X80855800Y-150775200D02*
X80341200Y-150260600D01*
X80855800Y-167741000D02*
X80855800Y-150775200D01*
X80417400Y-168179400D02*
X80855800Y-167741000D01*
X27658700Y-194454700D02*
X27940000Y-194454700D01*
X26341800Y-193137800D02*
X27658700Y-194454700D01*
X26341800Y-157382200D02*
X26341800Y-193137800D01*
X27658700Y-156065300D02*
X26341800Y-157382200D01*
X27940000Y-156065300D02*
X27658700Y-156065300D01*
X27940000Y-154940000D02*
X27940000Y-156065300D01*
X27940000Y-195580000D02*
X27940000Y-194454700D01*
X68580000Y-73660000D02*
X68580000Y-74785300D01*
X68298600Y-74785300D02*
X68580000Y-74785300D01*
X67454700Y-75629200D02*
X68298600Y-74785300D01*
X67454700Y-79742800D02*
X67454700Y-75629200D01*
X65828700Y-81368800D02*
X67454700Y-79742800D01*
X65828700Y-104187000D02*
X65828700Y-81368800D01*
X65060400Y-104955300D02*
X65828700Y-104187000D01*
X65060400Y-106007100D02*
X65060400Y-104955300D01*
X65087600Y-106034300D02*
X65060400Y-106007100D01*
X65087600Y-124847600D02*
X65087600Y-106034300D01*
X63982900Y-125952300D02*
X65087600Y-124847600D01*
X63982900Y-134327700D02*
X63982900Y-125952300D01*
X63983000Y-134327700D02*
X63982900Y-134327700D01*
X64407400Y-134752100D02*
X63983000Y-134327700D01*
X64407400Y-145335200D02*
X64407400Y-134752100D01*
X64582500Y-145510300D02*
X64407400Y-145335200D01*
X91158600Y-156354700D02*
X91440000Y-156354700D01*
X90314700Y-155510800D02*
X91158600Y-156354700D01*
X90314700Y-154057900D02*
X90314700Y-155510800D01*
X90503800Y-153868800D02*
X90314700Y-154057900D01*
X91440000Y-157480000D02*
X91440000Y-156354700D01*
X40921400Y-130665300D02*
X40640000Y-130665300D01*
X41765300Y-131509200D02*
X40921400Y-130665300D01*
X41765300Y-137730700D02*
X41765300Y-131509200D01*
X40921300Y-138574700D02*
X41765300Y-137730700D01*
X40640000Y-138574700D02*
X40921300Y-138574700D01*
X40640000Y-129540000D02*
X40640000Y-130665300D01*
X40640000Y-139700000D02*
X40640000Y-138574700D01*
X40640000Y-134620000D02*
X40640000Y-132080000D01*
X139214900Y-104498900D02*
X139214900Y-112032800D01*
X137441300Y-102725300D02*
X139214900Y-104498900D01*
X137160000Y-102725300D02*
X137441300Y-102725300D01*
X137160000Y-101600000D02*
X137160000Y-102725300D01*
X55690700Y-119236000D02*
X55833800Y-119236000D01*
X51748800Y-123177900D02*
X55690700Y-119236000D01*
X51748800Y-138713100D02*
X51748800Y-123177900D01*
X51903900Y-138868200D02*
X51748800Y-138713100D01*
X48454000Y-136034700D02*
X48260000Y-136034700D01*
X50346100Y-134142600D02*
X48454000Y-136034700D01*
X50346100Y-122088900D02*
X50346100Y-134142600D01*
X53223300Y-119211700D02*
X50346100Y-122088900D01*
X53223300Y-74354100D02*
X53223300Y-119211700D01*
X57519300Y-70058100D02*
X53223300Y-74354100D01*
X57519300Y-59353900D02*
X57519300Y-70058100D01*
X62067300Y-54805900D02*
X57519300Y-59353900D01*
X48260000Y-137160000D02*
X48260000Y-136034700D01*
X48260000Y-137160000D02*
X48260000Y-139700000D01*
X54441500Y-146725400D02*
X54441500Y-151600200D01*
X48541400Y-140825300D02*
X54441500Y-146725400D01*
X48260000Y-140825300D02*
X48541400Y-140825300D01*
X48260000Y-139700000D02*
X48260000Y-140825300D01*
X61241400Y-196994700D02*
X60960000Y-196994700D01*
X62085300Y-196150800D02*
X61241400Y-196994700D01*
X62085300Y-190218600D02*
X62085300Y-196150800D01*
X65758600Y-186545300D02*
X62085300Y-190218600D01*
X66040000Y-186545300D02*
X65758600Y-186545300D01*
X66040000Y-185420000D02*
X66040000Y-186545300D01*
X60960000Y-198120000D02*
X60960000Y-196994700D01*
X73660000Y-167640000D02*
X73660000Y-168765300D01*
X73941300Y-168765300D02*
X73660000Y-168765300D01*
X74839100Y-169663100D02*
X73941300Y-168765300D01*
X74839100Y-172654100D02*
X74839100Y-169663100D01*
X74307200Y-173186000D02*
X74839100Y-172654100D01*
X74307200Y-177613800D02*
X74307200Y-173186000D01*
X74307100Y-177613800D02*
X74307200Y-177613800D01*
X110255300Y-176114000D02*
X111138000Y-176114000D01*
X108799400Y-177569900D02*
X110255300Y-176114000D01*
X137160000Y-55880000D02*
X137160000Y-54754700D01*
X136878600Y-54754700D02*
X137160000Y-54754700D01*
X136034700Y-53910800D02*
X136878600Y-54754700D01*
X136034700Y-52660300D02*
X136034700Y-53910800D01*
X135134100Y-51759700D02*
X136034700Y-52660300D01*
X135134100Y-49939900D02*
X135134100Y-51759700D01*
X135068300Y-49874100D02*
X135134100Y-49939900D01*
X135068300Y-49656700D02*
X135068300Y-49874100D01*
X132401600Y-46990000D02*
X135068300Y-49656700D01*
X130837600Y-46990000D02*
X132401600Y-46990000D01*
X124973100Y-41125500D02*
X130837600Y-46990000D01*
X48541300Y-133494700D02*
X48260000Y-133494700D01*
X49890100Y-132145900D02*
X48541300Y-133494700D01*
X49890100Y-118841200D02*
X49890100Y-132145900D01*
X52640100Y-116091200D02*
X49890100Y-118841200D01*
X52640100Y-73982200D02*
X52640100Y-116091200D01*
X55747700Y-70874600D02*
X52640100Y-73982200D01*
X55747700Y-62414800D02*
X55747700Y-70874600D01*
X55908700Y-62253800D02*
X55747700Y-62414800D01*
X55908700Y-41917900D02*
X55908700Y-62253800D01*
X51715200Y-37724400D02*
X55908700Y-41917900D01*
X51715200Y-22159900D02*
X51715200Y-37724400D01*
X52873400Y-21001700D02*
X51715200Y-22159900D01*
X74325700Y-21001700D02*
X52873400Y-21001700D01*
X79631500Y-26307500D02*
X74325700Y-21001700D01*
X107132400Y-26307500D02*
X79631500Y-26307500D01*
X116836700Y-36011800D02*
X107132400Y-26307500D01*
X48260000Y-134620000D02*
X48260000Y-133494700D01*
X48260000Y-129540000D02*
X48260000Y-128414700D01*
X72534600Y-158894600D02*
X73660000Y-160020000D01*
X72534600Y-157007900D02*
X72534600Y-158894600D01*
X73332500Y-156210000D02*
X72534600Y-157007900D01*
X74059000Y-156210000D02*
X73332500Y-156210000D01*
X74820400Y-155448600D02*
X74059000Y-156210000D01*
X74820400Y-152380800D02*
X74820400Y-155448600D01*
X74645300Y-152205700D02*
X74820400Y-152380800D01*
X48541300Y-128414700D02*
X48260000Y-128414700D01*
X49439800Y-127516200D02*
X48541300Y-128414700D01*
X49439800Y-118654600D02*
X49439800Y-127516200D01*
X52189800Y-115904600D02*
X49439800Y-118654600D01*
X52189800Y-73795600D02*
X52189800Y-115904600D01*
X55247700Y-70737700D02*
X52189800Y-73795600D01*
X55247700Y-61584300D02*
X55247700Y-70737700D01*
X48260000Y-129540000D02*
X48260000Y-132080000D01*
X53545400Y-150453000D02*
X53545400Y-150719900D01*
X47094600Y-144002200D02*
X53545400Y-150453000D01*
X47094600Y-133245400D02*
X47094600Y-144002200D01*
X48260000Y-132080000D02*
X47094600Y-133245400D01*
X117840900Y-166094500D02*
X120388400Y-163547000D01*
X66040000Y-162560000D02*
X66040000Y-163685300D01*
X60960000Y-190500000D02*
X60960000Y-189374700D01*
X61199300Y-189374700D02*
X60960000Y-189374700D01*
X64728100Y-185845900D02*
X61199300Y-189374700D01*
X64728100Y-164715800D02*
X64728100Y-185845900D01*
X65758600Y-163685300D02*
X64728100Y-164715800D01*
X66040000Y-163685300D02*
X65758600Y-163685300D01*
X111760000Y-129540000D02*
X111760000Y-130665300D01*
X105296100Y-176551300D02*
X105296100Y-176841600D01*
X108194700Y-173652700D02*
X105296100Y-176551300D01*
X108194700Y-146636700D02*
X108194700Y-173652700D01*
X110623300Y-144208100D02*
X108194700Y-146636700D01*
X110623300Y-131520700D02*
X110623300Y-144208100D01*
X111478700Y-130665300D02*
X110623300Y-131520700D01*
X111760000Y-130665300D02*
X111478700Y-130665300D01*
X149860000Y-165100000D02*
X149860000Y-167640000D01*
X104140000Y-185420000D02*
X104140000Y-186545300D01*
X111760000Y-144780000D02*
X111760000Y-145905300D01*
X104140000Y-185420000D02*
X104140000Y-184294700D01*
X104185700Y-184294700D02*
X104140000Y-184294700D01*
X107705300Y-180775100D02*
X104185700Y-184294700D01*
X107705300Y-178819300D02*
X107705300Y-180775100D01*
X107449200Y-178563200D02*
X107705300Y-178819300D01*
X107449200Y-175035100D02*
X107449200Y-178563200D01*
X109034300Y-173450000D02*
X107449200Y-175035100D01*
X109034300Y-148631000D02*
X109034300Y-173450000D01*
X111760000Y-145905300D02*
X109034300Y-148631000D01*
X29118600Y-156301400D02*
X27940000Y-157480000D01*
X29118600Y-154500200D02*
X29118600Y-156301400D01*
X28417600Y-153799200D02*
X29118600Y-154500200D01*
X27384200Y-153799200D02*
X28417600Y-153799200D01*
X25823900Y-155359500D02*
X27384200Y-153799200D01*
X25823900Y-200137400D02*
X25823900Y-155359500D01*
X38272000Y-212585500D02*
X25823900Y-200137400D01*
X38272000Y-215813200D02*
X38272000Y-212585500D01*
X41510700Y-219051900D02*
X38272000Y-215813200D01*
X89999500Y-219051900D02*
X41510700Y-219051900D01*
X98091600Y-210959800D02*
X89999500Y-219051900D01*
X98091600Y-206380800D02*
X98091600Y-210959800D01*
X102456800Y-202015600D02*
X98091600Y-206380800D01*
X102456800Y-200745700D02*
X102456800Y-202015600D01*
X103812500Y-199390000D02*
X102456800Y-200745700D01*
X104480600Y-199390000D02*
X103812500Y-199390000D01*
X105275400Y-198595200D02*
X104480600Y-199390000D01*
X105275400Y-195072900D02*
X105275400Y-198595200D01*
X104512500Y-194310000D02*
X105275400Y-195072900D01*
X103763500Y-194310000D02*
X104512500Y-194310000D01*
X103014700Y-193561200D02*
X103763500Y-194310000D01*
X103014700Y-187389200D02*
X103014700Y-193561200D01*
X103858600Y-186545300D02*
X103014700Y-187389200D01*
X104140000Y-186545300D02*
X103858600Y-186545300D01*
X28221300Y-166225300D02*
X27940000Y-166225300D01*
X36932500Y-174936500D02*
X28221300Y-166225300D01*
X36932500Y-196066300D02*
X36932500Y-174936500D01*
X40256200Y-199390000D02*
X36932500Y-196066300D01*
X40998000Y-199390000D02*
X40256200Y-199390000D01*
X42811200Y-201203200D02*
X40998000Y-199390000D01*
X42811200Y-201282700D02*
X42811200Y-201203200D01*
X27940000Y-165100000D02*
X27940000Y-166225300D01*
X66040000Y-154940000D02*
X64914700Y-154940000D01*
X61742500Y-158112200D02*
X59756300Y-158112200D01*
X64914700Y-154940000D02*
X61742500Y-158112200D01*
X35560000Y-170180000D02*
X35560000Y-169054700D01*
X32246600Y-105259200D02*
X37964800Y-99541000D01*
X32246600Y-105522800D02*
X32246600Y-105259200D01*
X31571100Y-106198300D02*
X32246600Y-105522800D01*
X31571100Y-165347100D02*
X31571100Y-106198300D01*
X35278700Y-169054700D02*
X31571100Y-165347100D01*
X35560000Y-169054700D02*
X35278700Y-169054700D01*
X152400000Y-66040000D02*
X152400000Y-67165300D01*
X152400000Y-111760000D02*
X152400000Y-110634700D01*
X132080000Y-40640000D02*
X133205300Y-40640000D01*
X152400000Y-67165300D02*
X151274700Y-67165300D01*
X152118600Y-110634700D02*
X152400000Y-110634700D01*
X151274700Y-109790800D02*
X152118600Y-110634700D01*
X151274700Y-67165300D02*
X151274700Y-109790800D01*
X43180000Y-40640000D02*
X43180000Y-41765300D01*
X35560000Y-167640000D02*
X35560000Y-166514700D01*
X68580000Y-58420000D02*
X68580000Y-57294700D01*
X68298600Y-57294700D02*
X68580000Y-57294700D01*
X67454700Y-56450800D02*
X68298600Y-57294700D01*
X67454700Y-53350300D02*
X67454700Y-56450800D01*
X66750100Y-52645700D02*
X67454700Y-53350300D01*
X66750100Y-42785800D02*
X66750100Y-52645700D01*
X42898700Y-41765300D02*
X43180000Y-41765300D01*
X42054600Y-42609400D02*
X42898700Y-41765300D01*
X42054600Y-46192100D02*
X42054600Y-42609400D01*
X42852500Y-46990000D02*
X42054600Y-46192100D01*
X43579000Y-46990000D02*
X42852500Y-46990000D01*
X44325800Y-47736800D02*
X43579000Y-46990000D01*
X44325800Y-53816800D02*
X44325800Y-47736800D01*
X43677200Y-54465400D02*
X44325800Y-53816800D01*
X42926900Y-54465400D02*
X43677200Y-54465400D01*
X38440900Y-58951400D02*
X42926900Y-54465400D01*
X38440900Y-99014100D02*
X38440900Y-58951400D01*
X38597300Y-99170500D02*
X38440900Y-99014100D01*
X38597300Y-99792900D02*
X38597300Y-99170500D01*
X34775400Y-103614800D02*
X38597300Y-99792900D01*
X34775400Y-105084000D02*
X34775400Y-103614800D01*
X32021500Y-107837900D02*
X34775400Y-105084000D01*
X32021500Y-163257500D02*
X32021500Y-107837900D01*
X35278700Y-166514700D02*
X32021500Y-163257500D01*
X35560000Y-166514700D02*
X35278700Y-166514700D01*
X151173300Y-67165300D02*
X151274700Y-67165300D01*
X147255500Y-63247500D02*
X151173300Y-67165300D01*
X147255500Y-52151600D02*
X147255500Y-63247500D01*
X147255400Y-52151600D02*
X147255500Y-52151600D01*
X146498300Y-51394500D02*
X147255400Y-52151600D01*
X146498300Y-50876300D02*
X146498300Y-51394500D01*
X137387300Y-41765300D02*
X146498300Y-50876300D01*
X134330600Y-41765300D02*
X137387300Y-41765300D01*
X133205300Y-40640000D02*
X134330600Y-41765300D01*
X73420000Y-172395000D02*
X72477900Y-171452900D01*
X73993500Y-172395000D02*
X73420000Y-172395000D01*
X108084300Y-177839600D02*
X108084300Y-176727500D01*
X108200000Y-177955300D02*
X108084300Y-177839600D01*
X108200000Y-183631500D02*
X108200000Y-177955300D01*
X110201900Y-185633400D02*
X108200000Y-183631500D01*
X112974200Y-145328000D02*
X112974200Y-132729000D01*
X109671300Y-148630900D02*
X112974200Y-145328000D01*
X109671300Y-173449900D02*
X109671300Y-148630900D01*
X107979300Y-175141900D02*
X109671300Y-173449900D01*
X107979300Y-176622500D02*
X107979300Y-175141900D01*
X108084300Y-176727500D02*
X107979300Y-176622500D01*
X104140000Y-190500000D02*
X105265300Y-190500000D01*
X35560000Y-162560000D02*
X35560000Y-163685300D01*
X67230800Y-60652400D02*
X67230800Y-68899700D01*
X68193200Y-59690000D02*
X67230800Y-60652400D01*
X68931800Y-59690000D02*
X68193200Y-59690000D01*
X69709500Y-58912300D02*
X68931800Y-59690000D01*
X69709500Y-52773500D02*
X69709500Y-58912300D01*
X68861300Y-51925300D02*
X69709500Y-52773500D01*
X68580000Y-51925300D02*
X68861300Y-51925300D01*
X35560000Y-162560000D02*
X35560000Y-161434700D01*
X68580000Y-50800000D02*
X68580000Y-51925300D01*
X35841300Y-163685300D02*
X35560000Y-163685300D01*
X37611300Y-165455300D02*
X35841300Y-163685300D01*
X37611300Y-191707300D02*
X37611300Y-165455300D01*
X40358700Y-194454700D02*
X37611300Y-191707300D01*
X40640000Y-194454700D02*
X40358700Y-194454700D01*
X35841300Y-161434700D02*
X35560000Y-161434700D01*
X39019900Y-158256100D02*
X35841300Y-161434700D01*
X39019900Y-100007200D02*
X39019900Y-158256100D01*
X39076400Y-99950700D02*
X39019900Y-100007200D01*
X39076400Y-73143200D02*
X39076400Y-99950700D01*
X116840000Y-165100000D02*
X116840000Y-166225300D01*
X40640000Y-195017300D02*
X40640000Y-194454700D01*
X40640000Y-195017300D02*
X40640000Y-195580000D01*
X105901700Y-200539200D02*
X105901700Y-191136400D01*
X102990100Y-203450800D02*
X105901700Y-200539200D01*
X102015500Y-203450800D02*
X102990100Y-203450800D01*
X98716900Y-206749400D02*
X102015500Y-203450800D01*
X98716900Y-209619400D02*
X98716900Y-206749400D01*
X105265300Y-190500000D02*
X105901700Y-191136400D01*
X40640000Y-195580000D02*
X40640000Y-196705300D01*
X119763200Y-185863000D02*
X121340600Y-187440400D01*
X117988800Y-185863000D02*
X119763200Y-185863000D01*
X117988800Y-184576200D02*
X117988800Y-185863000D01*
X117646300Y-184233700D02*
X117988800Y-184576200D01*
X117646300Y-176900600D02*
X117646300Y-184233700D01*
X115714700Y-174969000D02*
X117646300Y-176900600D01*
X115714700Y-167069200D02*
X115714700Y-174969000D01*
X116558600Y-166225300D02*
X115714700Y-167069200D01*
X116840000Y-166225300D02*
X116558600Y-166225300D01*
X110348100Y-186690000D02*
X105901700Y-191136400D01*
X117161800Y-186690000D02*
X110348100Y-186690000D01*
X117988800Y-185863000D02*
X117161800Y-186690000D01*
X40921300Y-196705300D02*
X40640000Y-196705300D01*
X46819900Y-202603900D02*
X40921300Y-196705300D01*
X46819900Y-211999100D02*
X46819900Y-202603900D01*
X48260000Y-213439200D02*
X46819900Y-211999100D01*
X48260000Y-215707000D02*
X48260000Y-213439200D01*
X50010600Y-217457600D02*
X48260000Y-215707000D01*
X75117700Y-217457600D02*
X50010600Y-217457600D01*
X76092800Y-216482500D02*
X75117700Y-217457600D01*
X76092800Y-215336600D02*
X76092800Y-216482500D01*
X137160000Y-60960000D02*
X137160000Y-62085300D01*
X137160000Y-106680000D02*
X136034700Y-106680000D01*
X26792900Y-149822500D02*
X30349700Y-153379300D01*
X26792900Y-124630800D02*
X26792900Y-149822500D01*
X30894600Y-120529100D02*
X26792900Y-124630800D01*
X30894600Y-105981900D02*
X30894600Y-120529100D01*
X31345800Y-105530700D02*
X30894600Y-105981900D01*
X31345800Y-32469400D02*
X31345800Y-105530700D01*
X44062500Y-19752700D02*
X31345800Y-32469400D01*
X126213800Y-19752700D02*
X44062500Y-19752700D01*
X128913000Y-22451900D02*
X126213800Y-19752700D01*
X128913000Y-28204300D02*
X128913000Y-22451900D01*
X147123600Y-46414900D02*
X128913000Y-28204300D01*
X147123600Y-51135500D02*
X147123600Y-46414900D01*
X136878600Y-62085300D02*
X137160000Y-62085300D01*
X136034700Y-62929200D02*
X136878600Y-62085300D01*
X136034700Y-66579300D02*
X136034700Y-62929200D01*
X136208200Y-66752800D02*
X136034700Y-66579300D01*
X136208200Y-79297200D02*
X136208200Y-66752800D01*
X134646900Y-80858500D02*
X136208200Y-79297200D01*
X134646900Y-99010800D02*
X134646900Y-80858500D01*
X134710100Y-99074000D02*
X134646900Y-99010800D01*
X134710100Y-105355400D02*
X134710100Y-99074000D01*
X136034700Y-106680000D02*
X134710100Y-105355400D01*
X35560000Y-157480000D02*
X35560000Y-156354700D01*
X59948100Y-104116300D02*
X59948100Y-82724400D01*
X60249100Y-104417300D02*
X59948100Y-104116300D01*
X60249100Y-121853500D02*
X60249100Y-104417300D01*
X35764400Y-156354700D02*
X35560000Y-156354700D01*
X38358600Y-153760500D02*
X35764400Y-156354700D01*
X38358600Y-127652300D02*
X38358600Y-153760500D01*
X111760000Y-68580000D02*
X111760000Y-69705300D01*
X111760000Y-114300000D02*
X111760000Y-113174700D01*
X43180000Y-68580000D02*
X43180000Y-69705300D01*
X43180000Y-114300000D02*
X43180000Y-113174700D01*
X43421500Y-69705300D02*
X43180000Y-69705300D01*
X44316900Y-70600700D02*
X43421500Y-69705300D01*
X44316900Y-79519400D02*
X44316900Y-70600700D01*
X41555900Y-82280400D02*
X44316900Y-79519400D01*
X41555900Y-111831900D02*
X41555900Y-82280400D01*
X42898700Y-113174700D02*
X41555900Y-111831900D01*
X43180000Y-113174700D02*
X42898700Y-113174700D01*
X56473400Y-36653200D02*
X56473400Y-62573400D01*
X52165500Y-32345300D02*
X56473400Y-36653200D01*
X52165500Y-22346500D02*
X52165500Y-32345300D01*
X52841000Y-21671000D02*
X52165500Y-22346500D01*
X61531300Y-21671000D02*
X52841000Y-21671000D01*
X68580000Y-28719700D02*
X61531300Y-21671000D01*
X68580000Y-38100000D02*
X68580000Y-28719700D01*
X105042800Y-66376000D02*
X106768600Y-68101800D01*
X105042800Y-49436300D02*
X105042800Y-66376000D01*
X97752800Y-42146300D02*
X105042800Y-49436300D01*
X97752800Y-40278800D02*
X97752800Y-42146300D01*
X96988600Y-39514600D02*
X97752800Y-40278800D01*
X95431500Y-39514600D02*
X96988600Y-39514600D01*
X95368400Y-39577700D02*
X95431500Y-39514600D01*
X113825900Y-105160900D02*
X114060700Y-105160900D01*
X113825900Y-90921100D02*
X113825900Y-105160900D01*
X113451500Y-90546700D02*
X113825900Y-90921100D01*
X113451500Y-71128800D02*
X113451500Y-90546700D01*
X112028000Y-69705300D02*
X113451500Y-71128800D01*
X111760000Y-69705300D02*
X112028000Y-69705300D01*
X112041300Y-113174700D02*
X111760000Y-113174700D01*
X113825900Y-111390100D02*
X112041300Y-113174700D01*
X113825900Y-105160900D02*
X113825900Y-111390100D01*
X43180000Y-116840000D02*
X43180000Y-115714700D01*
X43180000Y-71120000D02*
X43180000Y-72245300D01*
X41078300Y-74347000D02*
X43180000Y-72245300D01*
X41078300Y-113817600D02*
X41078300Y-74347000D01*
X42975400Y-115714700D02*
X41078300Y-113817600D01*
X43180000Y-115714700D02*
X42975400Y-115714700D01*
X53743600Y-63637300D02*
X52107900Y-65273000D01*
X53743600Y-40637200D02*
X53743600Y-63637300D01*
X112885300Y-116908400D02*
X114437400Y-118460500D01*
X112885300Y-116840000D02*
X112885300Y-116908400D01*
X111760000Y-116840000D02*
X112885300Y-116840000D01*
X87500400Y-39806300D02*
X87500400Y-40788900D01*
X90831900Y-36474800D02*
X87500400Y-39806300D01*
X97136900Y-36474800D02*
X90831900Y-36474800D01*
X101681500Y-41019400D02*
X97136900Y-36474800D01*
X101681500Y-44763200D02*
X101681500Y-41019400D01*
X107630000Y-50711700D02*
X101681500Y-44763200D01*
X107630000Y-61919500D02*
X107630000Y-50711700D01*
X107456100Y-62093400D02*
X107630000Y-61919500D01*
X107456100Y-70460800D02*
X107456100Y-62093400D01*
X107138600Y-70778300D02*
X107456100Y-70460800D01*
X102615300Y-75301600D02*
X107138600Y-70778300D01*
X102615300Y-80937100D02*
X102615300Y-75301600D01*
X102551900Y-81000500D02*
X102615300Y-80937100D01*
X102551900Y-82259100D02*
X102551900Y-81000500D01*
X104640400Y-84347600D02*
X102551900Y-82259100D01*
X104640400Y-110397500D02*
X104640400Y-84347600D01*
X107306800Y-113063900D02*
X104640400Y-110397500D01*
X96520000Y-68580000D02*
X96520000Y-69705300D01*
X96520000Y-114300000D02*
X96520000Y-113174700D01*
X27940000Y-68580000D02*
X27940000Y-69705300D01*
X27940000Y-114300000D02*
X27940000Y-113174700D01*
X27658600Y-113174700D02*
X27940000Y-113174700D01*
X25914100Y-111430200D02*
X27658600Y-113174700D01*
X25914100Y-96876900D02*
X25914100Y-111430200D01*
X27541000Y-95250000D02*
X25914100Y-96876900D01*
X28267600Y-95250000D02*
X27541000Y-95250000D01*
X29065300Y-94452300D02*
X28267600Y-95250000D01*
X29065300Y-70549200D02*
X29065300Y-94452300D01*
X28221400Y-69705300D02*
X29065300Y-70549200D01*
X27940000Y-69705300D02*
X28221400Y-69705300D01*
X98309400Y-75433100D02*
X96341000Y-73464700D01*
X98309400Y-79358900D02*
X98309400Y-75433100D01*
X100373800Y-81423300D02*
X98309400Y-79358900D01*
X100373800Y-109069200D02*
X100373800Y-81423300D01*
X98063200Y-111379800D02*
X100373800Y-109069200D01*
X98063200Y-111881600D02*
X98063200Y-111379800D01*
X96770100Y-113174700D02*
X98063200Y-111881600D01*
X96520000Y-113174700D02*
X96770100Y-113174700D01*
X96801300Y-69705300D02*
X96520000Y-69705300D01*
X97666400Y-70570400D02*
X96801300Y-69705300D01*
X97666400Y-72139300D02*
X97666400Y-70570400D01*
X96341000Y-73464700D02*
X97666400Y-72139300D01*
X68861400Y-44305300D02*
X68580000Y-44305300D01*
X69705300Y-45149200D02*
X68861400Y-44305300D01*
X69705300Y-47122200D02*
X69705300Y-45149200D01*
X81989900Y-59406800D02*
X69705300Y-47122200D01*
X81989900Y-59725400D02*
X81989900Y-59406800D01*
X85170700Y-62906200D02*
X81989900Y-59725400D01*
X85170700Y-67424600D02*
X85170700Y-62906200D01*
X68580000Y-43180000D02*
X68580000Y-44305300D01*
X96520000Y-111760000D02*
X96520000Y-110634700D01*
X96520000Y-66040000D02*
X96520000Y-67165300D01*
X96238600Y-67165300D02*
X96520000Y-67165300D01*
X95394700Y-68009200D02*
X96238600Y-67165300D01*
X95394700Y-75043200D02*
X95394700Y-68009200D01*
X97859100Y-77507600D02*
X95394700Y-75043200D01*
X97859100Y-79545500D02*
X97859100Y-77507600D01*
X99923500Y-81609900D02*
X97859100Y-79545500D01*
X99923500Y-107512600D02*
X99923500Y-81609900D01*
X96801400Y-110634700D02*
X99923500Y-107512600D01*
X96520000Y-110634700D02*
X96801400Y-110634700D01*
X68580000Y-45720000D02*
X68580000Y-46845300D01*
X81314500Y-60681500D02*
X81689300Y-61056300D01*
X81314500Y-59368300D02*
X81314500Y-60681500D01*
X68791500Y-46845300D02*
X81314500Y-59368300D01*
X68580000Y-46845300D02*
X68791500Y-46845300D01*
X110670100Y-120748100D02*
X113738300Y-120748100D01*
X108476300Y-118554300D02*
X110670100Y-120748100D01*
X108476300Y-117787000D02*
X108476300Y-118554300D01*
X108476200Y-117787000D02*
X108476300Y-117787000D01*
X107724600Y-117035400D02*
X108476200Y-117787000D01*
X96520000Y-63500000D02*
X96520000Y-64625300D01*
X67178700Y-39370000D02*
X64736600Y-36927900D01*
X68982600Y-39370000D02*
X67178700Y-39370000D01*
X69760300Y-40147700D02*
X68982600Y-39370000D01*
X69760300Y-41080700D02*
X69760300Y-40147700D01*
X68931000Y-41910000D02*
X69760300Y-41080700D01*
X68224400Y-41910000D02*
X68931000Y-41910000D01*
X67454600Y-42679800D02*
X68224400Y-41910000D01*
X67454600Y-47134600D02*
X67454600Y-42679800D01*
X68580000Y-48260000D02*
X67454600Y-47134600D01*
X96520000Y-109220000D02*
X96520000Y-108094700D01*
X68580000Y-48260000D02*
X68580000Y-49385300D01*
X94922900Y-75455800D02*
X95003500Y-75536400D01*
X94922900Y-67488700D02*
X94922900Y-75455800D01*
X95373300Y-67038300D02*
X94922900Y-67488700D01*
X95373300Y-65557500D02*
X95373300Y-67038300D01*
X96305500Y-64625300D02*
X95373300Y-65557500D01*
X96520000Y-64625300D02*
X96305500Y-64625300D01*
X97408800Y-77941700D02*
X95003500Y-75536400D01*
X97408800Y-79732200D02*
X97408800Y-77941700D01*
X99473200Y-81796600D02*
X97408800Y-79732200D01*
X99473200Y-105357400D02*
X99473200Y-81796600D01*
X96735900Y-108094700D02*
X99473200Y-105357400D01*
X96520000Y-108094700D02*
X96735900Y-108094700D01*
X84001800Y-64602600D02*
X84001800Y-68255900D01*
X68784500Y-49385300D02*
X84001800Y-64602600D01*
X68580000Y-49385300D02*
X68784500Y-49385300D01*
X114588800Y-120592200D02*
X114588800Y-120836500D01*
X114119300Y-120122700D02*
X114588800Y-120592200D01*
X110687700Y-120122700D02*
X114119300Y-120122700D01*
X108981100Y-118416100D02*
X110687700Y-120122700D01*
X108981100Y-109625200D02*
X108981100Y-118416100D01*
X108813200Y-109457300D02*
X108981100Y-109625200D01*
X152681400Y-64625300D02*
X152400000Y-64625300D01*
X153525300Y-65469200D02*
X152681400Y-64625300D01*
X153525300Y-107250700D02*
X153525300Y-65469200D01*
X152681300Y-108094700D02*
X153525300Y-107250700D01*
X152400000Y-108094700D02*
X152681300Y-108094700D01*
X152400000Y-109220000D02*
X152400000Y-108094700D01*
X152400000Y-63500000D02*
X152400000Y-64625300D01*
X86955200Y-121159700D02*
X90683600Y-124888100D01*
X86955200Y-87224500D02*
X86955200Y-121159700D01*
X68861300Y-102725300D02*
X68580000Y-102725300D01*
X73217300Y-107081300D02*
X68861300Y-102725300D01*
X73217300Y-114056400D02*
X73217300Y-107081300D01*
X68580000Y-101600000D02*
X68580000Y-102725300D01*
X107441300Y-118156200D02*
X107441300Y-117991800D01*
X112894300Y-123609200D02*
X107441300Y-118156200D01*
X112894300Y-127479200D02*
X112894300Y-123609200D01*
X112103500Y-128270000D02*
X112894300Y-127479200D01*
X111405200Y-128270000D02*
X112103500Y-128270000D01*
X109998000Y-129677200D02*
X111405200Y-128270000D01*
X109998000Y-143894600D02*
X109998000Y-129677200D01*
X80702800Y-107564900D02*
X79115000Y-105977100D01*
X80702800Y-123444700D02*
X80702800Y-107564900D01*
X126920400Y-151195100D02*
X129540000Y-153814700D01*
X126920400Y-111432900D02*
X126920400Y-151195100D01*
X129540000Y-154940000D02*
X129540000Y-153814700D01*
X93974400Y-115695700D02*
X93081100Y-116589000D01*
X96828200Y-115695700D02*
X93974400Y-115695700D01*
X99848400Y-112675500D02*
X96828200Y-115695700D01*
X99848400Y-110723100D02*
X99848400Y-112675500D01*
X72152400Y-108696600D02*
X72152400Y-114421700D01*
X70135800Y-106680000D02*
X72152400Y-108696600D01*
X68580000Y-106680000D02*
X70135800Y-106680000D01*
X137160000Y-109220000D02*
X137160000Y-108094700D01*
X137160000Y-63500000D02*
X137160000Y-64625300D01*
X46159900Y-63060100D02*
X48260000Y-60960000D01*
X46159900Y-79872900D02*
X46159900Y-63060100D01*
X49432000Y-83145000D02*
X46159900Y-79872900D01*
X49432000Y-104664000D02*
X49432000Y-83145000D01*
X48541300Y-105554700D02*
X49432000Y-104664000D01*
X48260000Y-105554700D02*
X48541300Y-105554700D01*
X48260000Y-106680000D02*
X48260000Y-105554700D01*
X137441400Y-64625300D02*
X137160000Y-64625300D01*
X138285300Y-65469200D02*
X137441400Y-64625300D01*
X138285300Y-77857000D02*
X138285300Y-65469200D01*
X135097200Y-81045100D02*
X138285300Y-77857000D01*
X135097200Y-98824200D02*
X135097200Y-81045100D01*
X135160400Y-98887400D02*
X135097200Y-98824200D01*
X135160400Y-103737500D02*
X135160400Y-98887400D01*
X136832900Y-105410000D02*
X135160400Y-103737500D01*
X137483100Y-105410000D02*
X136832900Y-105410000D01*
X138285400Y-106212300D02*
X137483100Y-105410000D01*
X138285400Y-107250600D02*
X138285400Y-106212300D01*
X137441300Y-108094700D02*
X138285400Y-107250600D01*
X137160000Y-108094700D02*
X137441300Y-108094700D01*
X109354900Y-83122500D02*
X109354900Y-63078500D01*
X106768300Y-85709100D02*
X109354900Y-83122500D01*
X106768300Y-107181200D02*
X106768300Y-85709100D01*
X107434400Y-107847300D02*
X106768300Y-107181200D01*
X108182200Y-121943100D02*
X108182200Y-145022600D01*
X106815900Y-120576800D02*
X108182200Y-121943100D01*
X106815900Y-114439200D02*
X106815900Y-120576800D01*
X107932100Y-113323000D02*
X106815900Y-114439200D01*
X107932100Y-108345000D02*
X107932100Y-113323000D01*
X107434400Y-107847300D02*
X107932100Y-108345000D01*
X27940000Y-58420000D02*
X27940000Y-59545300D01*
X27940000Y-104140000D02*
X27940000Y-103014700D01*
X68580000Y-111760000D02*
X68580000Y-110634700D01*
X68298600Y-110634700D02*
X68580000Y-110634700D01*
X67454700Y-109790800D02*
X68298600Y-110634700D01*
X67454700Y-108193500D02*
X67454700Y-109790800D01*
X67679900Y-107968300D02*
X67454700Y-108193500D01*
X96520000Y-104140000D02*
X96520000Y-103014700D01*
X96520000Y-58420000D02*
X96520000Y-59545300D01*
X96238700Y-59545300D02*
X96520000Y-59545300D01*
X94922900Y-60861100D02*
X96238700Y-59545300D01*
X94922900Y-66626500D02*
X94922900Y-60861100D01*
X94378200Y-67171200D02*
X94922900Y-66626500D01*
X94378200Y-75795400D02*
X94378200Y-67171200D01*
X96958500Y-78375700D02*
X94378200Y-75795400D01*
X96958500Y-80019900D02*
X96958500Y-78375700D01*
X99022900Y-82084300D02*
X96958500Y-80019900D01*
X99022900Y-100728800D02*
X99022900Y-82084300D01*
X96737000Y-103014700D02*
X99022900Y-100728800D01*
X96520000Y-103014700D02*
X96737000Y-103014700D01*
X28221300Y-103014700D02*
X27940000Y-103014700D01*
X29965900Y-101270100D02*
X28221300Y-103014700D01*
X29965900Y-61289900D02*
X29965900Y-101270100D01*
X28221300Y-59545300D02*
X29965900Y-61289900D01*
X27940000Y-59545300D02*
X28221300Y-59545300D01*
X116840000Y-104140000D02*
X116840000Y-105265300D01*
X113433400Y-148229300D02*
X113233600Y-148429100D01*
X113433400Y-133344500D02*
X113433400Y-148229300D01*
X113833600Y-132944300D02*
X113433400Y-133344500D01*
X113833600Y-128681500D02*
X113833600Y-132944300D01*
X115264300Y-127250800D02*
X113833600Y-128681500D01*
X115264300Y-114248200D02*
X115264300Y-127250800D01*
X116352200Y-113160300D02*
X115264300Y-114248200D01*
X117065500Y-113160300D02*
X116352200Y-113160300D01*
X117976600Y-112249200D02*
X117065500Y-113160300D01*
X117976600Y-106120600D02*
X117976600Y-112249200D01*
X117121300Y-105265300D02*
X117976600Y-106120600D01*
X116840000Y-105265300D02*
X117121300Y-105265300D01*
X96520000Y-55880000D02*
X96520000Y-57005300D01*
X96520000Y-101600000D02*
X96520000Y-100474700D01*
X27940000Y-55880000D02*
X27940000Y-57005300D01*
X73660000Y-195580000D02*
X73660000Y-194454700D01*
X114589400Y-57005300D02*
X115714700Y-55880000D01*
X110646300Y-57005300D02*
X114589400Y-57005300D01*
X110639500Y-56998500D02*
X110646300Y-57005300D01*
X116840000Y-55880000D02*
X115714700Y-55880000D01*
X71114200Y-192190200D02*
X71114200Y-186534200D01*
X73378700Y-194454700D02*
X71114200Y-192190200D01*
X73660000Y-194454700D02*
X73378700Y-194454700D01*
X68580000Y-114300000D02*
X68580000Y-113174700D01*
X96238700Y-57005300D02*
X96520000Y-57005300D01*
X94432700Y-58811300D02*
X96238700Y-57005300D01*
X94432700Y-66479800D02*
X94432700Y-58811300D01*
X93927900Y-66984600D02*
X94432700Y-66479800D01*
X93927900Y-75982000D02*
X93927900Y-66984600D01*
X96508200Y-78562300D02*
X93927900Y-75982000D01*
X96508200Y-80206500D02*
X96508200Y-78562300D01*
X98572600Y-82270900D02*
X96508200Y-80206500D01*
X98572600Y-98614900D02*
X98572600Y-82270900D01*
X96712800Y-100474700D02*
X98572600Y-98614900D01*
X96520000Y-100474700D02*
X96712800Y-100474700D01*
X26814700Y-102725300D02*
X27940000Y-101600000D01*
X26814700Y-104612300D02*
X26814700Y-102725300D01*
X27523800Y-105321400D02*
X26814700Y-104612300D01*
X28371000Y-105321400D02*
X27523800Y-105321400D01*
X30434900Y-103257500D02*
X28371000Y-105321400D01*
X30434900Y-59218900D02*
X30434900Y-103257500D01*
X28221300Y-57005300D02*
X30434900Y-59218900D01*
X27940000Y-57005300D02*
X28221300Y-57005300D01*
X66063600Y-105633900D02*
X66136000Y-105561500D01*
X66063600Y-115023900D02*
X66063600Y-105633900D01*
X66229000Y-115189300D02*
X66063600Y-115023900D01*
X68861000Y-113174700D02*
X68580000Y-113174700D01*
X70134300Y-111901400D02*
X68861000Y-113174700D01*
X70134300Y-107644800D02*
X70134300Y-111901400D01*
X66402500Y-115362800D02*
X66229000Y-115189300D01*
X66402500Y-124656400D02*
X66402500Y-115362800D01*
X66036300Y-125022600D02*
X66402500Y-124656400D01*
X65671200Y-125022600D02*
X66036300Y-125022600D01*
X64433200Y-126260600D02*
X65671200Y-125022600D01*
X64433200Y-134141000D02*
X64433200Y-126260600D01*
X64857700Y-134565500D02*
X64433200Y-134141000D01*
X64857700Y-142683800D02*
X64857700Y-134565500D01*
X67117300Y-144943400D02*
X64857700Y-142683800D01*
X67477000Y-144943400D02*
X67117300Y-144943400D01*
X70058200Y-147524600D02*
X67477000Y-144943400D01*
X70058200Y-153338800D02*
X70058200Y-147524600D01*
X70258100Y-153538700D02*
X70058200Y-153338800D01*
X70258100Y-174255000D02*
X70258100Y-153538700D01*
X73072400Y-177069300D02*
X70258100Y-174255000D01*
X73072400Y-182389800D02*
X73072400Y-177069300D01*
X73522700Y-182840100D02*
X73072400Y-182389800D01*
X116840000Y-101600000D02*
X116840000Y-102725300D01*
X113883700Y-148923500D02*
X112715200Y-150092000D01*
X113883700Y-133552900D02*
X113883700Y-148923500D01*
X114283900Y-133152700D02*
X113883700Y-133552900D01*
X114283900Y-128868100D02*
X114283900Y-133152700D01*
X115714700Y-127437300D02*
X114283900Y-128868100D01*
X115714700Y-116365200D02*
X115714700Y-127437300D01*
X116509900Y-115570000D02*
X115714700Y-116365200D01*
X117242700Y-115570000D02*
X116509900Y-115570000D01*
X118427000Y-114385700D02*
X117242700Y-115570000D01*
X118427000Y-104031000D02*
X118427000Y-114385700D01*
X117121300Y-102725300D02*
X118427000Y-104031000D01*
X116840000Y-102725300D02*
X117121300Y-102725300D01*
X116840000Y-53340000D02*
X115714700Y-53340000D01*
X114589400Y-54465300D02*
X115714700Y-53340000D01*
X111238400Y-54465300D02*
X114589400Y-54465300D01*
X110451300Y-53678200D02*
X111238400Y-54465300D01*
X48260000Y-99060000D02*
X48260000Y-100185300D01*
X96520000Y-53340000D02*
X96520000Y-54465300D01*
X49544600Y-115473800D02*
X47837700Y-115473800D01*
X50237900Y-114780500D02*
X49544600Y-115473800D01*
X47978600Y-100185300D02*
X48260000Y-100185300D01*
X47134700Y-101029200D02*
X47978600Y-100185300D01*
X47134700Y-114770800D02*
X47134700Y-101029200D01*
X47837700Y-115473800D02*
X47134700Y-114770800D01*
X95394700Y-114205800D02*
X95195400Y-114405100D01*
X95394700Y-100185300D02*
X95394700Y-114205800D01*
X96520000Y-99060000D02*
X95394700Y-100185300D01*
X27940000Y-53340000D02*
X27940000Y-54465300D01*
X27940000Y-99060000D02*
X27940000Y-100185300D01*
X102687100Y-83099700D02*
X102687100Y-99417600D01*
X99911500Y-80324100D02*
X102687100Y-83099700D01*
X99911500Y-57575500D02*
X99911500Y-80324100D01*
X96801300Y-54465300D02*
X99911500Y-57575500D01*
X96520000Y-54465300D02*
X96801300Y-54465300D01*
X27658700Y-100185300D02*
X27940000Y-100185300D01*
X26364400Y-101479600D02*
X27658700Y-100185300D01*
X26364400Y-106721400D02*
X26364400Y-101479600D01*
X27480400Y-107837400D02*
X26364400Y-106721400D01*
X28402200Y-107837400D02*
X27480400Y-107837400D01*
X30894800Y-105344800D02*
X28402200Y-107837400D01*
X30894800Y-57138700D02*
X30894800Y-105344800D01*
X28221400Y-54465300D02*
X30894800Y-57138700D01*
X27940000Y-54465300D02*
X28221400Y-54465300D01*
X58194300Y-185370500D02*
X58194300Y-191904500D01*
X54894600Y-182070800D02*
X58194300Y-185370500D01*
X54894600Y-168657300D02*
X54894600Y-182070800D01*
X51862100Y-165624800D02*
X54894600Y-168657300D01*
X51862100Y-149406600D02*
X51862100Y-165624800D01*
X46514600Y-144059100D02*
X51862100Y-149406600D01*
X46514600Y-125892300D02*
X46514600Y-144059100D01*
X44718000Y-124095700D02*
X46514600Y-125892300D01*
X44718000Y-119879800D02*
X44718000Y-124095700D01*
X46581900Y-118015900D02*
X44718000Y-119879800D01*
X46581900Y-116729600D02*
X46581900Y-118015900D01*
X47837700Y-115473800D02*
X46581900Y-116729600D01*
X96520000Y-50800000D02*
X96520000Y-51925300D01*
X96520000Y-96520000D02*
X96520000Y-95394700D01*
X27940000Y-50800000D02*
X27940000Y-51925300D01*
X91440000Y-116840000D02*
X91440000Y-115714700D01*
X27683900Y-51925300D02*
X27940000Y-51925300D01*
X26814700Y-52794500D02*
X27683900Y-51925300D01*
X26814700Y-61432300D02*
X26814700Y-52794500D01*
X27612400Y-62230000D02*
X26814700Y-61432300D01*
X28261500Y-62230000D02*
X27612400Y-62230000D01*
X29515600Y-63484100D02*
X28261500Y-62230000D01*
X29515600Y-94944400D02*
X29515600Y-63484100D01*
X27940000Y-96520000D02*
X29515600Y-94944400D01*
X96520000Y-96520000D02*
X96520000Y-97645300D01*
X91644300Y-115714700D02*
X91440000Y-115714700D01*
X94944400Y-112414600D02*
X91644300Y-115714700D01*
X94944400Y-98939600D02*
X94944400Y-112414600D01*
X96238700Y-97645300D02*
X94944400Y-98939600D01*
X96520000Y-97645300D02*
X96238700Y-97645300D01*
X96238700Y-51925300D02*
X96520000Y-51925300D01*
X93940700Y-54223300D02*
X96238700Y-51925300D01*
X93940700Y-66334900D02*
X93940700Y-54223300D01*
X93477600Y-66798000D02*
X93940700Y-66334900D01*
X93477600Y-76168600D02*
X93477600Y-66798000D01*
X96057900Y-78748900D02*
X93477600Y-76168600D01*
X96057900Y-80393100D02*
X96057900Y-78748900D01*
X98122300Y-82457500D02*
X96057900Y-80393100D01*
X98122300Y-94073800D02*
X98122300Y-82457500D01*
X96801400Y-95394700D02*
X98122300Y-94073800D01*
X96520000Y-95394700D02*
X96801400Y-95394700D01*
X84252000Y-134534400D02*
X84252000Y-117335200D01*
X91440000Y-114300000D02*
X91440000Y-113174700D01*
X91721300Y-113174700D02*
X91440000Y-113174700D01*
X94494000Y-110402000D02*
X91721300Y-113174700D01*
X94494000Y-96006000D02*
X94494000Y-110402000D01*
X96520000Y-93980000D02*
X94494000Y-96006000D01*
X27940000Y-48260000D02*
X27940000Y-49385300D01*
X27940000Y-93980000D02*
X27377300Y-93980000D01*
X25860300Y-92463000D02*
X27377300Y-93980000D01*
X25860300Y-51183700D02*
X25860300Y-92463000D01*
X27658700Y-49385300D02*
X25860300Y-51183700D01*
X27940000Y-49385300D02*
X27658700Y-49385300D01*
X73660000Y-139700000D02*
X73660000Y-138574700D01*
X116840000Y-48260000D02*
X116840000Y-49385300D01*
X116840000Y-93980000D02*
X116840000Y-92854700D01*
X31120700Y-167369600D02*
X35253400Y-171502300D01*
X31120700Y-155659400D02*
X31120700Y-167369600D01*
X25463800Y-150002500D02*
X31120700Y-155659400D01*
X25463800Y-95893500D02*
X25463800Y-150002500D01*
X27377300Y-93980000D02*
X25463800Y-95893500D01*
X73378700Y-138574700D02*
X73660000Y-138574700D01*
X72080000Y-137276000D02*
X73378700Y-138574700D01*
X72080000Y-125423400D02*
X72080000Y-137276000D01*
X70104100Y-123447500D02*
X72080000Y-125423400D01*
X70104100Y-120142500D02*
X70104100Y-123447500D01*
X71274600Y-118972000D02*
X70104100Y-120142500D01*
X71274600Y-114397200D02*
X71274600Y-118972000D01*
X116558600Y-92854700D02*
X116840000Y-92854700D01*
X115714700Y-92010800D02*
X116558600Y-92854700D01*
X115714700Y-90037000D02*
X115714700Y-92010800D01*
X115252700Y-89575000D02*
X115714700Y-90037000D01*
X115252700Y-75385300D02*
X115252700Y-89575000D01*
X118828000Y-71810000D02*
X115252700Y-75385300D01*
X118828000Y-51168800D02*
X118828000Y-71810000D01*
X117044500Y-49385300D02*
X118828000Y-51168800D01*
X116840000Y-49385300D02*
X117044500Y-49385300D01*
X48260000Y-45720000D02*
X48260000Y-46845300D01*
X48260000Y-91440000D02*
X48260000Y-90314700D01*
X91440000Y-111760000D02*
X91440000Y-110634700D01*
X96520000Y-91440000D02*
X96520000Y-92565300D01*
X96238700Y-92565300D02*
X96520000Y-92565300D01*
X94359500Y-94444500D02*
X96238700Y-92565300D01*
X94359500Y-95477200D02*
X94359500Y-94444500D01*
X94005300Y-95831400D02*
X94359500Y-95477200D01*
X94005300Y-108273700D02*
X94005300Y-95831400D01*
X91644300Y-110634700D02*
X94005300Y-108273700D01*
X91440000Y-110634700D02*
X91644300Y-110634700D01*
X73660000Y-142240000D02*
X73660000Y-141114700D01*
X70191000Y-113741600D02*
X71390700Y-112541900D01*
X70191000Y-119418700D02*
X70191000Y-113741600D01*
X69653700Y-119956000D02*
X70191000Y-119418700D01*
X69653700Y-128581200D02*
X69653700Y-119956000D01*
X71493500Y-130421000D02*
X69653700Y-128581200D01*
X71493500Y-139229500D02*
X71493500Y-130421000D01*
X73378700Y-141114700D02*
X71493500Y-139229500D01*
X73660000Y-141114700D02*
X73378700Y-141114700D01*
X47978700Y-90314700D02*
X48260000Y-90314700D01*
X45709600Y-88045600D02*
X47978700Y-90314700D01*
X45709600Y-49114400D02*
X45709600Y-88045600D01*
X47978700Y-46845300D02*
X45709600Y-49114400D01*
X48260000Y-46845300D02*
X47978700Y-46845300D01*
X117121300Y-46845300D02*
X116840000Y-46845300D01*
X119278300Y-49002300D02*
X117121300Y-46845300D01*
X119278300Y-73626900D02*
X119278300Y-49002300D01*
X115714600Y-77190600D02*
X119278300Y-73626900D01*
X115714600Y-89400000D02*
X115714600Y-77190600D01*
X116629300Y-90314700D02*
X115714600Y-89400000D01*
X116840000Y-90314700D02*
X116629300Y-90314700D01*
X116840000Y-91440000D02*
X116840000Y-90314700D01*
X116840000Y-45720000D02*
X116840000Y-46845300D01*
X69607900Y-147958700D02*
X69256100Y-147606900D01*
X69607900Y-153603100D02*
X69607900Y-147958700D01*
X69807800Y-153803000D02*
X69607900Y-153603100D01*
X69807800Y-172317400D02*
X69807800Y-153803000D01*
X68795400Y-173329800D02*
X69807800Y-172317400D01*
X96520000Y-88900000D02*
X96520000Y-90025300D01*
X96520000Y-43180000D02*
X96520000Y-44305300D01*
X96238700Y-90025300D02*
X96520000Y-90025300D01*
X93909200Y-92354800D02*
X96238700Y-90025300D01*
X93909200Y-95290600D02*
X93909200Y-92354800D01*
X93458900Y-95740900D02*
X93909200Y-95290600D01*
X93458900Y-107201100D02*
X93458900Y-95740900D01*
X91440000Y-109220000D02*
X93458900Y-107201100D01*
X26364300Y-51962300D02*
X26604400Y-51722200D01*
X26364300Y-86480300D02*
X26364300Y-51962300D01*
X27658700Y-87774700D02*
X26364300Y-86480300D01*
X27940000Y-87774700D02*
X27658700Y-87774700D01*
X27940000Y-88900000D02*
X27940000Y-87774700D01*
X96238700Y-44305300D02*
X96520000Y-44305300D01*
X93476600Y-47067400D02*
X96238700Y-44305300D01*
X93476600Y-66162100D02*
X93476600Y-47067400D01*
X93027300Y-66611400D02*
X93476600Y-66162100D01*
X93027300Y-76355200D02*
X93027300Y-66611400D01*
X95607600Y-78935500D02*
X93027300Y-76355200D01*
X95607600Y-80579700D02*
X95607600Y-78935500D01*
X97672000Y-82644100D02*
X95607600Y-80579700D01*
X97672000Y-87748000D02*
X97672000Y-82644100D01*
X96520000Y-88900000D02*
X97672000Y-87748000D01*
X50796500Y-135814900D02*
X50619900Y-135991500D01*
X50796500Y-122697300D02*
X50796500Y-135814900D01*
X54409000Y-119084800D02*
X50796500Y-122697300D01*
X54409000Y-89157100D02*
X54409000Y-119084800D01*
X40640000Y-190500000D02*
X40640000Y-189374700D01*
X40358600Y-189374700D02*
X40640000Y-189374700D01*
X39514700Y-188530800D02*
X40358600Y-189374700D01*
X39514700Y-141721100D02*
X39514700Y-188530800D01*
X40252000Y-140983800D02*
X39514700Y-141721100D01*
X41249800Y-140983800D02*
X40252000Y-140983800D01*
X63500000Y-45720000D02*
X63500000Y-46845300D01*
X63500000Y-91440000D02*
X63500000Y-90314700D01*
X43990700Y-90314700D02*
X43180000Y-90314700D01*
X44412300Y-89893100D02*
X43990700Y-90314700D01*
X43180000Y-91440000D02*
X43180000Y-90314700D01*
X63010300Y-90314700D02*
X63500000Y-90314700D01*
X62557300Y-89861700D02*
X63010300Y-90314700D01*
X132080000Y-91440000D02*
X132080000Y-90314700D01*
X62374700Y-89679100D02*
X62557300Y-89861700D01*
X62374700Y-82147000D02*
X62374700Y-89679100D01*
X65398700Y-79123000D02*
X62374700Y-82147000D01*
X65398700Y-67291800D02*
X65398700Y-79123000D01*
X65540200Y-67150300D02*
X65398700Y-67291800D01*
X65540200Y-53770200D02*
X65540200Y-67150300D01*
X65099300Y-53329300D02*
X65540200Y-53770200D01*
X65099300Y-48238200D02*
X65099300Y-53329300D01*
X63706400Y-46845300D02*
X65099300Y-48238200D01*
X63500000Y-46845300D02*
X63706400Y-46845300D01*
X91440000Y-106680000D02*
X91440000Y-107805300D01*
X99060000Y-134620000D02*
X99060000Y-133494700D01*
X91158600Y-107805300D02*
X91440000Y-107805300D01*
X90314700Y-108649200D02*
X91158600Y-107805300D01*
X90314700Y-119596500D02*
X90314700Y-108649200D01*
X97934700Y-127216500D02*
X90314700Y-119596500D01*
X97934700Y-132650800D02*
X97934700Y-127216500D01*
X98778600Y-133494700D02*
X97934700Y-132650800D01*
X99060000Y-133494700D02*
X98778600Y-133494700D01*
X65203400Y-93143400D02*
X63500000Y-91440000D01*
X65203400Y-94262400D02*
X65203400Y-93143400D01*
X92593900Y-97634600D02*
X92563700Y-97634600D01*
X92593900Y-95426600D02*
X92593900Y-97634600D01*
X93254800Y-94765700D02*
X92593900Y-95426600D01*
X92593900Y-105526100D02*
X91440000Y-106680000D01*
X92593900Y-97634600D02*
X92593900Y-105526100D01*
X135070700Y-53617700D02*
X133094700Y-51641700D01*
X135070700Y-66889100D02*
X135070700Y-53617700D01*
X135307600Y-67126000D02*
X135070700Y-66889100D01*
X135307600Y-78924000D02*
X135307600Y-67126000D01*
X133205300Y-81026300D02*
X135307600Y-78924000D01*
X133205300Y-89470800D02*
X133205300Y-81026300D01*
X132361400Y-90314700D02*
X133205300Y-89470800D01*
X132080000Y-90314700D02*
X132361400Y-90314700D01*
X132080000Y-48260000D02*
X132080000Y-49385300D01*
X132080000Y-93980000D02*
X132080000Y-92854700D01*
X63500000Y-48260000D02*
X63500000Y-49385300D01*
X63500000Y-93980000D02*
X63500000Y-95105300D01*
X63500000Y-93980000D02*
X63500000Y-92854700D01*
X63029700Y-92854700D02*
X63500000Y-92854700D01*
X62421300Y-92246300D02*
X63029700Y-92854700D01*
X65084700Y-96408700D02*
X65084700Y-102782700D01*
X63781300Y-95105300D02*
X65084700Y-96408700D01*
X63500000Y-95105300D02*
X63781300Y-95105300D01*
X111760000Y-93980000D02*
X111760000Y-95105300D01*
X61924400Y-91749400D02*
X62421300Y-92246300D01*
X61924400Y-81960400D02*
X61924400Y-91749400D01*
X64948400Y-78936400D02*
X61924400Y-81960400D01*
X64948400Y-67105200D02*
X64948400Y-78936400D01*
X65089900Y-66963700D02*
X64948400Y-67105200D01*
X65089900Y-53956800D02*
X65089900Y-66963700D01*
X64649000Y-53515900D02*
X65089900Y-53956800D01*
X64649000Y-50327800D02*
X64649000Y-53515900D01*
X63706500Y-49385300D02*
X64649000Y-50327800D01*
X63500000Y-49385300D02*
X63706500Y-49385300D01*
X91440000Y-104140000D02*
X91440000Y-105265300D01*
X99060000Y-137160000D02*
X99060000Y-136034700D01*
X91214700Y-105265300D02*
X91440000Y-105265300D01*
X89864300Y-106615700D02*
X91214700Y-105265300D01*
X89864300Y-119783000D02*
X89864300Y-106615700D01*
X97026500Y-126945200D02*
X89864300Y-119783000D01*
X97026500Y-134214400D02*
X97026500Y-126945200D01*
X98846800Y-136034700D02*
X97026500Y-134214400D01*
X99060000Y-136034700D02*
X98846800Y-136034700D01*
X132326000Y-49385300D02*
X132080000Y-49385300D01*
X134683800Y-51743100D02*
X132326000Y-49385300D01*
X134683800Y-52243200D02*
X134683800Y-51743100D01*
X135521000Y-53080400D02*
X134683800Y-52243200D01*
X135521000Y-66702500D02*
X135521000Y-53080400D01*
X135757900Y-66939400D02*
X135521000Y-66702500D01*
X135757900Y-79110600D02*
X135757900Y-66939400D01*
X133711200Y-81157300D02*
X135757900Y-79110600D01*
X133711200Y-91504800D02*
X133711200Y-81157300D01*
X132361300Y-92854700D02*
X133711200Y-91504800D01*
X132080000Y-92854700D02*
X132361300Y-92854700D01*
X111555600Y-95105300D02*
X111760000Y-95105300D01*
X107402900Y-99258000D02*
X111555600Y-95105300D01*
X107402900Y-102949300D02*
X107402900Y-99258000D01*
X43461300Y-100474700D02*
X43180000Y-100474700D01*
X45217500Y-98718500D02*
X43461300Y-100474700D01*
X45217500Y-58761500D02*
X45217500Y-98718500D01*
X43461300Y-57005300D02*
X45217500Y-58761500D01*
X43180000Y-57005300D02*
X43461300Y-57005300D01*
X43180000Y-55880000D02*
X43180000Y-57005300D01*
X43180000Y-101600000D02*
X43180000Y-100474700D01*
X99060000Y-139700000D02*
X99060000Y-138574700D01*
X132080000Y-101600000D02*
X132080000Y-100474700D01*
X132080000Y-55880000D02*
X132080000Y-57005300D01*
X99341300Y-138574700D02*
X99060000Y-138574700D01*
X102781800Y-135134200D02*
X99341300Y-138574700D01*
X102781800Y-101901100D02*
X102781800Y-135134200D01*
X132361300Y-57005300D02*
X132080000Y-57005300D01*
X134170000Y-58814000D02*
X132361300Y-57005300D01*
X134170000Y-67262200D02*
X134170000Y-58814000D01*
X134407000Y-67499200D02*
X134170000Y-67262200D01*
X134407000Y-78364100D02*
X134407000Y-67499200D01*
X130484600Y-82286500D02*
X134407000Y-78364100D01*
X130484600Y-95383700D02*
X130484600Y-82286500D01*
X130954700Y-95853800D02*
X130484600Y-95383700D01*
X130954700Y-99630800D02*
X130954700Y-95853800D01*
X131798600Y-100474700D02*
X130954700Y-99630800D01*
X132080000Y-100474700D02*
X131798600Y-100474700D01*
X132080000Y-50800000D02*
X132080000Y-51925300D01*
X132080000Y-96520000D02*
X132080000Y-95394700D01*
X91440000Y-99060000D02*
X91440000Y-100185300D01*
X99060000Y-142240000D02*
X99060000Y-141114700D01*
X91172600Y-100185300D02*
X91440000Y-100185300D01*
X89409300Y-101948600D02*
X91172600Y-100185300D01*
X89409300Y-119964900D02*
X89409300Y-101948600D01*
X95413200Y-125968800D02*
X89409300Y-119964900D01*
X95413200Y-137719700D02*
X95413200Y-125968800D01*
X98808200Y-141114700D02*
X95413200Y-137719700D01*
X99060000Y-141114700D02*
X98808200Y-141114700D01*
X132271600Y-51925300D02*
X132080000Y-51925300D01*
X134620400Y-54274100D02*
X132271600Y-51925300D01*
X134620400Y-67075700D02*
X134620400Y-54274100D01*
X134857300Y-67312600D02*
X134620400Y-67075700D01*
X134857300Y-78550700D02*
X134857300Y-67312600D01*
X130945900Y-82462100D02*
X134857300Y-78550700D01*
X130945900Y-94457800D02*
X130945900Y-82462100D01*
X131882800Y-95394700D02*
X130945900Y-94457800D01*
X132080000Y-95394700D02*
X131882800Y-95394700D01*
X91440000Y-134620000D02*
X91440000Y-133494700D01*
X91440000Y-96520000D02*
X91440000Y-97645300D01*
X48260000Y-40640000D02*
X48260000Y-41765300D01*
X51435800Y-48497100D02*
X51435800Y-85054900D01*
X51813600Y-48119300D02*
X51435800Y-48497100D01*
X51813600Y-45081900D02*
X51813600Y-48119300D01*
X48497000Y-41765300D02*
X51813600Y-45081900D01*
X48260000Y-41765300D02*
X48497000Y-41765300D01*
X91158600Y-97645300D02*
X91440000Y-97645300D01*
X88959000Y-99844900D02*
X91158600Y-97645300D01*
X88959000Y-120151500D02*
X88959000Y-99844900D01*
X93511700Y-124704200D02*
X88959000Y-120151500D01*
X93511700Y-131704300D02*
X93511700Y-124704200D01*
X91721300Y-133494700D02*
X93511700Y-131704300D01*
X91440000Y-133494700D02*
X91721300Y-133494700D01*
X117121300Y-41765300D02*
X116840000Y-41765300D01*
X119755400Y-44399400D02*
X117121300Y-41765300D01*
X119755400Y-75780500D02*
X119755400Y-44399400D01*
X117965300Y-77570600D02*
X119755400Y-75780500D01*
X117965300Y-84390800D02*
X117965300Y-77570600D01*
X117121400Y-85234700D02*
X117965300Y-84390800D01*
X116840000Y-85234700D02*
X117121400Y-85234700D01*
X116840000Y-86360000D02*
X116840000Y-85234700D01*
X116840000Y-40640000D02*
X116840000Y-41765300D01*
X91647100Y-95394700D02*
X91440000Y-95394700D01*
X92629400Y-94412400D02*
X91647100Y-95394700D01*
X92629400Y-91094600D02*
X92629400Y-94412400D01*
X96238700Y-87485300D02*
X92629400Y-91094600D01*
X96520000Y-87485300D02*
X96238700Y-87485300D01*
X96520000Y-86360000D02*
X96520000Y-87485300D01*
X91440000Y-96520000D02*
X91440000Y-95394700D01*
X73660000Y-129540000D02*
X74785300Y-129540000D01*
X78740000Y-154940000D02*
X78740000Y-153814700D01*
X75242200Y-145444100D02*
X75242200Y-129540000D01*
X78289600Y-148491500D02*
X75242200Y-145444100D01*
X78289600Y-153364300D02*
X78289600Y-148491500D01*
X78740000Y-153814700D02*
X78289600Y-153364300D01*
X75242200Y-129540000D02*
X74785300Y-129540000D01*
X75242200Y-94664500D02*
X75156700Y-94579000D01*
X75242200Y-129540000D02*
X75242200Y-94664500D01*
X78740000Y-157480000D02*
X78740000Y-156354700D01*
X73660000Y-132080000D02*
X73660000Y-133205300D01*
X73660000Y-132080000D02*
X73660000Y-130954700D01*
X78489500Y-156354700D02*
X78740000Y-156354700D01*
X77611800Y-155477000D02*
X78489500Y-156354700D01*
X77611800Y-148450600D02*
X77611800Y-155477000D01*
X74791800Y-145630600D02*
X77611800Y-148450600D01*
X74791800Y-134132700D02*
X74791800Y-145630600D01*
X73864400Y-133205300D02*
X74791800Y-134132700D01*
X73660000Y-133205300D02*
X73864400Y-133205300D01*
X74464100Y-95407800D02*
X74464100Y-93886400D01*
X74785400Y-95729100D02*
X74464100Y-95407800D01*
X74785400Y-127472100D02*
X74785400Y-95729100D01*
X73987500Y-128270000D02*
X74785400Y-127472100D01*
X73329600Y-128270000D02*
X73987500Y-128270000D01*
X72534700Y-129064900D02*
X73329600Y-128270000D01*
X72534700Y-130110800D02*
X72534700Y-129064900D01*
X73378600Y-130954700D02*
X72534700Y-130110800D01*
X73660000Y-130954700D02*
X73378600Y-130954700D01*
X78740000Y-160020000D02*
X78740000Y-158894700D01*
X78421600Y-122042400D02*
X79561300Y-123182100D01*
X78421600Y-95784200D02*
X78421600Y-122042400D01*
X84207300Y-89998500D02*
X78421600Y-95784200D01*
X77253500Y-133861000D02*
X77054300Y-134060200D01*
X77309300Y-133861000D02*
X77253500Y-133861000D01*
X77054300Y-145345700D02*
X77054300Y-134060200D01*
X78740000Y-147031400D02*
X77054300Y-145345700D01*
X78740000Y-153022100D02*
X78740000Y-147031400D01*
X79892300Y-154174400D02*
X78740000Y-153022100D01*
X79892300Y-157948700D02*
X79892300Y-154174400D01*
X78946300Y-158894700D02*
X79892300Y-157948700D01*
X78740000Y-158894700D02*
X78946300Y-158894700D01*
X76250900Y-134060200D02*
X76048200Y-133857500D01*
X77054300Y-134060200D02*
X76250900Y-134060200D01*
X69410300Y-85229200D02*
X69683100Y-85502000D01*
X68072100Y-85229200D02*
X69410300Y-85229200D01*
X66788500Y-86512800D02*
X68072100Y-85229200D01*
X66788500Y-105902100D02*
X66788500Y-86512800D01*
X66514000Y-106176600D02*
X66788500Y-105902100D01*
X66514000Y-114464600D02*
X66514000Y-106176600D01*
X66865700Y-114816300D02*
X66514000Y-114464600D01*
X66865700Y-124830100D02*
X66865700Y-114816300D01*
X66222900Y-125472900D02*
X66865700Y-124830100D01*
X65902900Y-125472900D02*
X66222900Y-125472900D01*
X64883500Y-126492300D02*
X65902900Y-125472900D01*
X64883500Y-128383500D02*
X64883500Y-126492300D01*
X66040000Y-129540000D02*
X64883500Y-128383500D01*
X78740000Y-165100000D02*
X78740000Y-163974700D01*
X66040000Y-129540000D02*
X66040000Y-130665300D01*
X66321300Y-130665300D02*
X66040000Y-130665300D01*
X68549200Y-132893200D02*
X66321300Y-130665300D01*
X68549200Y-139627300D02*
X68549200Y-132893200D01*
X69224800Y-140302900D02*
X68549200Y-139627300D01*
X69224800Y-141367900D02*
X69224800Y-140302900D01*
X76664900Y-148808000D02*
X69224800Y-141367900D01*
X76665000Y-148808000D02*
X76664900Y-148808000D01*
X76665000Y-162181000D02*
X76665000Y-148808000D01*
X78458700Y-163974700D02*
X76665000Y-162181000D01*
X78740000Y-163974700D02*
X78458700Y-163974700D01*
X66040000Y-127000000D02*
X66040000Y-128125300D01*
X78740000Y-162560000D02*
X78740000Y-161434700D01*
X62254000Y-124784400D02*
X62254000Y-128031700D01*
X59623700Y-122154100D02*
X62254000Y-124784400D01*
X59623700Y-115431200D02*
X59623700Y-122154100D01*
X58958300Y-114765800D02*
X59623700Y-115431200D01*
X58958300Y-107691400D02*
X58958300Y-114765800D01*
X59073000Y-107576700D02*
X58958300Y-107691400D01*
X59073000Y-104740000D02*
X59073000Y-107576700D01*
X58872500Y-104539500D02*
X59073000Y-104740000D01*
X58872500Y-80485300D02*
X58872500Y-104539500D01*
X59070300Y-80287500D02*
X58872500Y-80485300D01*
X66233800Y-128125300D02*
X66040000Y-128125300D01*
X68999700Y-130891200D02*
X66233800Y-128125300D01*
X68999700Y-139140200D02*
X68999700Y-130891200D01*
X70593300Y-140733800D02*
X68999700Y-139140200D01*
X70593300Y-142099500D02*
X70593300Y-140733800D01*
X70593400Y-142099500D02*
X70593300Y-142099500D01*
X77158600Y-148664700D02*
X70593400Y-142099500D01*
X77158600Y-160057800D02*
X77158600Y-148664700D01*
X78535500Y-161434700D02*
X77158600Y-160057800D01*
X78740000Y-161434700D02*
X78535500Y-161434700D01*
X99341300Y-128414700D02*
X99060000Y-128414700D01*
X101020000Y-126736000D02*
X99341300Y-128414700D01*
X101020000Y-85628000D02*
X101020000Y-126736000D01*
X99060000Y-129540000D02*
X99060000Y-128414700D01*
X94168600Y-80343300D02*
X94982300Y-80343300D01*
X92565300Y-78740000D02*
X94168600Y-80343300D01*
X99060000Y-132080000D02*
X99060000Y-130954700D01*
X91440000Y-78740000D02*
X92565300Y-78740000D01*
X101659800Y-128636200D02*
X101659800Y-84960000D01*
X99341300Y-130954700D02*
X101659800Y-128636200D01*
X99060000Y-130954700D02*
X99341300Y-130954700D01*
X91440000Y-73660000D02*
X91440000Y-74785300D01*
X91440000Y-132080000D02*
X91440000Y-130954700D01*
X91158600Y-74785300D02*
X91440000Y-74785300D01*
X88959000Y-76984900D02*
X91158600Y-74785300D01*
X88959000Y-77621800D02*
X88959000Y-76984900D01*
X88508700Y-78072100D02*
X88959000Y-77621800D01*
X88508700Y-120338100D02*
X88508700Y-78072100D01*
X93061400Y-124890800D02*
X88508700Y-120338100D01*
X93061400Y-129614600D02*
X93061400Y-124890800D01*
X91721300Y-130954700D02*
X93061400Y-129614600D01*
X91440000Y-130954700D02*
X91721300Y-130954700D01*
X91440000Y-71120000D02*
X91440000Y-72245300D01*
X91440000Y-129540000D02*
X91440000Y-128414700D01*
X91238100Y-72245300D02*
X91440000Y-72245300D01*
X88376600Y-75106800D02*
X91238100Y-72245300D01*
X88376600Y-77249000D02*
X88376600Y-75106800D01*
X88030800Y-77594800D02*
X88376600Y-77249000D01*
X88030800Y-120497100D02*
X88030800Y-77594800D01*
X92565300Y-125031600D02*
X88030800Y-120497100D01*
X92565300Y-127570800D02*
X92565300Y-125031600D01*
X91721400Y-128414700D02*
X92565300Y-127570800D01*
X91440000Y-128414700D02*
X91721400Y-128414700D01*
X91440000Y-68580000D02*
X91440000Y-69705300D01*
X91440000Y-127000000D02*
X91440000Y-125874700D01*
X91158700Y-69705300D02*
X91440000Y-69705300D01*
X87899300Y-72964700D02*
X91158700Y-69705300D01*
X87899300Y-75599200D02*
X87899300Y-72964700D01*
X87580500Y-75918000D02*
X87899300Y-75599200D01*
X87580500Y-120683700D02*
X87580500Y-75918000D01*
X91440000Y-124543200D02*
X87580500Y-120683700D01*
X91440000Y-125874700D02*
X91440000Y-124543200D01*
X63500000Y-60960000D02*
X63500000Y-62085300D01*
X91721300Y-62374700D02*
X91440000Y-62374700D01*
X92795800Y-61300200D02*
X91721300Y-62374700D01*
X92795800Y-60552400D02*
X92795800Y-61300200D01*
X91440000Y-63500000D02*
X91440000Y-62374700D01*
X132080000Y-60960000D02*
X132080000Y-62085300D01*
X63218600Y-62085300D02*
X63500000Y-62085300D01*
X58872500Y-66431400D02*
X63218600Y-62085300D01*
X58872500Y-79601000D02*
X58872500Y-66431400D01*
X58422200Y-80051300D02*
X58872500Y-79601000D01*
X58422200Y-105913700D02*
X58422200Y-80051300D01*
X121731500Y-62123000D02*
X121858500Y-62250000D01*
X121731500Y-43939000D02*
X121731500Y-62123000D01*
X117162500Y-39370000D02*
X121731500Y-43939000D01*
X115714600Y-39370000D02*
X117162500Y-39370000D01*
X108383000Y-32038400D02*
X115714600Y-39370000D01*
X94595200Y-32038400D02*
X108383000Y-32038400D01*
X84178000Y-42455600D02*
X94595200Y-32038400D01*
X84178000Y-55853900D02*
X84178000Y-42455600D01*
X127394600Y-102772400D02*
X127980500Y-103358300D01*
X127394600Y-80287200D02*
X127394600Y-102772400D01*
X127636000Y-80045800D02*
X127394600Y-80287200D01*
X127636000Y-66332300D02*
X127636000Y-80045800D01*
X131883000Y-62085300D02*
X127636000Y-66332300D01*
X132080000Y-62085300D02*
X131883000Y-62085300D01*
X59509300Y-67490700D02*
X63500000Y-63500000D01*
X59509300Y-79842100D02*
X59509300Y-67490700D01*
X59695600Y-80028400D02*
X59509300Y-79842100D01*
X59695600Y-80748400D02*
X59695600Y-80028400D01*
X59322800Y-81121200D02*
X59695600Y-80748400D01*
X59322800Y-104314500D02*
X59322800Y-81121200D01*
X59590300Y-104582000D02*
X59322800Y-104314500D01*
X59590300Y-108899600D02*
X59590300Y-104582000D01*
X132080000Y-109220000D02*
X132080000Y-108094700D01*
X132080000Y-63500000D02*
X132080000Y-64554400D01*
X128232900Y-80333200D02*
X128065900Y-80500200D01*
X128232900Y-68254200D02*
X128232900Y-80333200D01*
X131932700Y-64554400D02*
X128232900Y-68254200D01*
X132080000Y-64554400D02*
X131932700Y-64554400D01*
X108610800Y-75502400D02*
X108610800Y-66747300D01*
X132290400Y-64554400D02*
X132080000Y-64554400D01*
X133707500Y-65971500D02*
X132290400Y-64554400D01*
X133707500Y-67436600D02*
X133707500Y-65971500D01*
X133956700Y-67685800D02*
X133707500Y-67436600D01*
X133956700Y-77727300D02*
X133956700Y-67685800D01*
X130034200Y-81649800D02*
X133956700Y-77727300D01*
X130034200Y-97094500D02*
X130034200Y-81649800D01*
X130484500Y-97544800D02*
X130034200Y-97094500D01*
X130484500Y-106780600D02*
X130484500Y-97544800D01*
X131798600Y-108094700D02*
X130484500Y-106780600D01*
X132080000Y-108094700D02*
X131798600Y-108094700D01*
X63218600Y-67165300D02*
X63500000Y-67165300D01*
X62374700Y-68009200D02*
X63218600Y-67165300D01*
X62374700Y-72669800D02*
X62374700Y-68009200D01*
X63445600Y-73740700D02*
X62374700Y-72669800D01*
X63500000Y-66040000D02*
X63500000Y-67165300D01*
X63500000Y-111760000D02*
X63500000Y-110634700D01*
X61474100Y-75712200D02*
X63445600Y-73740700D01*
X61474100Y-92835000D02*
X61474100Y-75712200D01*
X62374700Y-93735600D02*
X61474100Y-92835000D01*
X62374700Y-109790800D02*
X62374700Y-93735600D01*
X63218600Y-110634700D02*
X62374700Y-109790800D01*
X63500000Y-110634700D02*
X63218600Y-110634700D01*
X87273900Y-62721300D02*
X87273900Y-74976700D01*
X88773400Y-61221800D02*
X87273900Y-62721300D01*
X88773400Y-58733000D02*
X88773400Y-61221800D01*
X132080000Y-111760000D02*
X132080000Y-110634700D01*
X132080000Y-66040000D02*
X132080000Y-67165300D01*
X152118700Y-57005300D02*
X152400000Y-57005300D01*
X148230300Y-60893700D02*
X152118700Y-57005300D01*
X148230300Y-63299200D02*
X148230300Y-60893700D01*
X152400000Y-55880000D02*
X152400000Y-57005300D01*
X133267100Y-68009200D02*
X133331400Y-67944900D01*
X133205300Y-68009200D02*
X133267100Y-68009200D01*
X133205300Y-77841800D02*
X133205300Y-68009200D01*
X129574000Y-81473100D02*
X133205300Y-77841800D01*
X129574000Y-100257600D02*
X129574000Y-81473100D01*
X130034100Y-100717700D02*
X129574000Y-100257600D01*
X130034100Y-108870100D02*
X130034100Y-100717700D01*
X131798700Y-110634700D02*
X130034100Y-108870100D01*
X132080000Y-110634700D02*
X131798700Y-110634700D01*
X132361400Y-67165300D02*
X132080000Y-67165300D01*
X133205300Y-68009200D02*
X132361400Y-67165300D01*
X63500000Y-114300000D02*
X63500000Y-113174700D01*
X91440000Y-55880000D02*
X91440000Y-57005300D01*
X132080000Y-68580000D02*
X132080000Y-69705300D01*
X60828500Y-67084600D02*
X60828500Y-78936400D01*
X63044000Y-64869100D02*
X60828500Y-67084600D01*
X63931300Y-64869100D02*
X63044000Y-64869100D01*
X64631600Y-65569400D02*
X63931300Y-64869100D01*
X64631600Y-66785100D02*
X64631600Y-65569400D01*
X63500000Y-67916700D02*
X64631600Y-66785100D01*
X63500000Y-68580000D02*
X63500000Y-67916700D01*
X91213300Y-57005300D02*
X91440000Y-57005300D01*
X90299300Y-57919300D02*
X91213300Y-57005300D01*
X90299300Y-66554100D02*
X90299300Y-57919300D01*
X91055200Y-67310000D02*
X90299300Y-66554100D01*
X91790800Y-67310000D02*
X91055200Y-67310000D01*
X92566600Y-68085800D02*
X91790800Y-67310000D01*
X92566600Y-77280900D02*
X92566600Y-68085800D01*
X92496300Y-77351200D02*
X92566600Y-77280900D01*
X61023800Y-79131700D02*
X60828500Y-78936400D01*
X61023800Y-93470100D02*
X61023800Y-79131700D01*
X61391500Y-93837800D02*
X61023800Y-93470100D01*
X61391500Y-111347500D02*
X61391500Y-93837800D01*
X63218700Y-113174700D02*
X61391500Y-111347500D01*
X63500000Y-113174700D02*
X63218700Y-113174700D01*
X131875700Y-69705300D02*
X132080000Y-69705300D01*
X129133600Y-72447400D02*
X131875700Y-69705300D01*
X129133600Y-80316900D02*
X129133600Y-72447400D01*
X128233000Y-81217500D02*
X129133600Y-80316900D01*
X128233000Y-81535500D02*
X128233000Y-81217500D01*
X128233000Y-81535500D02*
X128047400Y-81535500D01*
X108673300Y-80806900D02*
X106129300Y-80806900D01*
X133260700Y-115480700D02*
X132080000Y-114300000D01*
X133260700Y-117300300D02*
X133260700Y-115480700D01*
X132593300Y-117967700D02*
X133260700Y-117300300D01*
X131592100Y-117967700D02*
X132593300Y-117967700D01*
X128739500Y-115115100D02*
X131592100Y-117967700D01*
X128739500Y-103232700D02*
X128739500Y-115115100D01*
X128233000Y-102726200D02*
X128739500Y-103232700D01*
X128233000Y-81535500D02*
X128233000Y-102726200D01*
X132080000Y-116840000D02*
X132080000Y-115714700D01*
X132080000Y-71120000D02*
X132080000Y-72245300D01*
X63500000Y-116840000D02*
X63500000Y-115714700D01*
X91440000Y-53340000D02*
X91440000Y-54465300D01*
X91158700Y-54465300D02*
X91440000Y-54465300D01*
X89849000Y-55775000D02*
X91158700Y-54465300D01*
X89849000Y-62111800D02*
X89849000Y-55775000D01*
X88928800Y-63032000D02*
X89849000Y-62111800D01*
X60146400Y-82038300D02*
X60146400Y-75202500D01*
X60573500Y-82465400D02*
X60146400Y-82038300D01*
X60573500Y-93656700D02*
X60573500Y-82465400D01*
X60941200Y-94024400D02*
X60573500Y-93656700D01*
X60941200Y-113360400D02*
X60941200Y-94024400D01*
X63295500Y-115714700D02*
X60941200Y-113360400D01*
X63500000Y-115714700D02*
X63295500Y-115714700D01*
X131886300Y-115714700D02*
X132080000Y-115714700D01*
X129339400Y-113167800D02*
X131886300Y-115714700D01*
X129339400Y-103195600D02*
X129339400Y-113167800D01*
X129057900Y-102914100D02*
X129339400Y-103195600D01*
X129057900Y-81190900D02*
X129057900Y-102914100D01*
X132080000Y-78168800D02*
X129057900Y-81190900D01*
X132080000Y-72245300D02*
X132080000Y-78168800D01*
X48260000Y-68580000D02*
X48260000Y-69705300D01*
X48260000Y-114300000D02*
X48260000Y-113174700D01*
X91440000Y-50800000D02*
X91440000Y-51925300D01*
X48441200Y-69705300D02*
X48260000Y-69705300D01*
X50782900Y-72047000D02*
X48441200Y-69705300D01*
X50782900Y-110865400D02*
X50782900Y-72047000D01*
X48473600Y-113174700D02*
X50782900Y-110865400D01*
X48260000Y-113174700D02*
X48473600Y-113174700D01*
X124209100Y-109197600D02*
X124209100Y-75087400D01*
X120278500Y-113128200D02*
X124209100Y-109197600D01*
X91158700Y-51925300D02*
X91440000Y-51925300D01*
X89398700Y-53685300D02*
X91158700Y-51925300D01*
X89398700Y-61655300D02*
X89398700Y-53685300D01*
X89222500Y-61831500D02*
X89398700Y-61655300D01*
X116840000Y-111760000D02*
X116840000Y-110634700D01*
X116840000Y-66057500D02*
X116840000Y-67165300D01*
X116558700Y-67165300D02*
X116840000Y-67165300D01*
X114352100Y-69371900D02*
X116558700Y-67165300D01*
X114352100Y-90173500D02*
X114352100Y-69371900D01*
X114781900Y-90603300D02*
X114352100Y-90173500D01*
X114781900Y-104102700D02*
X114781900Y-90603300D01*
X115198000Y-104518800D02*
X114781900Y-104102700D01*
X115198000Y-109203000D02*
X115198000Y-104518800D01*
X116629700Y-110634700D02*
X115198000Y-109203000D01*
X116840000Y-110634700D02*
X116629700Y-110634700D01*
X48260000Y-66040000D02*
X48260000Y-67165300D01*
X48260000Y-111760000D02*
X48260000Y-110634700D01*
X47978700Y-67165300D02*
X48260000Y-67165300D01*
X47134600Y-68009400D02*
X47978700Y-67165300D01*
X47134600Y-75254900D02*
X47134600Y-68009400D01*
X50332600Y-78452900D02*
X47134600Y-75254900D01*
X50332600Y-108843400D02*
X50332600Y-78452900D01*
X48541300Y-110634700D02*
X50332600Y-108843400D01*
X48260000Y-110634700D02*
X48541300Y-110634700D01*
X91440000Y-48260000D02*
X91440000Y-49385300D01*
X116840000Y-66057500D02*
X116840000Y-66040000D01*
X116840000Y-66040000D02*
X116840000Y-64914700D01*
X117294000Y-64914700D02*
X116840000Y-64914700D01*
X117752300Y-64456400D02*
X117294000Y-64914700D01*
X87838500Y-59093200D02*
X86652600Y-60279100D01*
X87838500Y-52705500D02*
X87838500Y-59093200D01*
X91158700Y-49385300D02*
X87838500Y-52705500D01*
X91440000Y-49385300D02*
X91158700Y-49385300D01*
X86725900Y-60352400D02*
X86652600Y-60279100D01*
X86725900Y-61747900D02*
X86725900Y-60352400D01*
X122356800Y-41979900D02*
X122356800Y-61570200D01*
X117182800Y-36805900D02*
X122356800Y-41979900D01*
X115041600Y-36805900D02*
X117182800Y-36805900D01*
X109823700Y-31588000D02*
X115041600Y-36805900D01*
X94377000Y-31588000D02*
X109823700Y-31588000D01*
X83503500Y-42461500D02*
X94377000Y-31588000D01*
X83503500Y-57130000D02*
X83503500Y-42461500D01*
X86652600Y-60279100D02*
X83503500Y-57130000D01*
X48260000Y-109220000D02*
X48260000Y-108094700D01*
X48260000Y-63500000D02*
X48260000Y-64625300D01*
X116840000Y-109220000D02*
X116840000Y-108094700D01*
X116840000Y-63500000D02*
X116840000Y-62374700D01*
X48541400Y-62374700D02*
X48260000Y-62374700D01*
X49385300Y-61530800D02*
X48541400Y-62374700D01*
X49385300Y-49553500D02*
X49385300Y-61530800D01*
X51188300Y-47750500D02*
X49385300Y-49553500D01*
X117968200Y-59111600D02*
X117281300Y-59798500D01*
X117968200Y-52797100D02*
X117968200Y-59111600D01*
X117241100Y-52070000D02*
X117968200Y-52797100D01*
X116309800Y-52070000D02*
X117241100Y-52070000D01*
X113769800Y-49530000D02*
X116309800Y-52070000D01*
X109506300Y-49530000D02*
X113769800Y-49530000D01*
X105573700Y-45597400D02*
X109506300Y-49530000D01*
X116558600Y-62374700D02*
X116840000Y-62374700D01*
X115714700Y-61530800D02*
X116558600Y-62374700D01*
X115714700Y-60453600D02*
X115714700Y-61530800D01*
X116369800Y-59798500D02*
X115714700Y-60453600D01*
X117281300Y-59798500D02*
X116369800Y-59798500D01*
X48260000Y-63500000D02*
X48260000Y-62374700D01*
X48083100Y-64625300D02*
X48260000Y-64625300D01*
X46640800Y-66067600D02*
X48083100Y-64625300D01*
X46640800Y-79491600D02*
X46640800Y-66067600D01*
X49882300Y-82733100D02*
X46640800Y-79491600D01*
X49882300Y-106662000D02*
X49882300Y-82733100D01*
X48449600Y-108094700D02*
X49882300Y-106662000D01*
X48260000Y-108094700D02*
X48449600Y-108094700D01*
X116600800Y-108094700D02*
X116840000Y-108094700D01*
X115648300Y-107142200D02*
X116600800Y-108094700D01*
X115648300Y-104332200D02*
X115648300Y-107142200D01*
X115252700Y-103936600D02*
X115648300Y-104332200D01*
X115252700Y-90437200D02*
X115252700Y-103936600D01*
X114802400Y-89986900D02*
X115252700Y-90437200D01*
X114802400Y-75160200D02*
X114802400Y-89986900D01*
X118377700Y-71584900D02*
X114802400Y-75160200D01*
X118377700Y-60894900D02*
X118377700Y-71584900D01*
X117281300Y-59798500D02*
X118377700Y-60894900D01*
X43180000Y-60960000D02*
X43180000Y-62085300D01*
X111760000Y-60960000D02*
X111760000Y-62085300D01*
X112925200Y-105514800D02*
X111760000Y-106680000D01*
X112925200Y-93505100D02*
X112925200Y-105514800D01*
X112130100Y-92710000D02*
X112925200Y-93505100D01*
X111415600Y-92710000D02*
X112130100Y-92710000D01*
X110173400Y-91467800D02*
X111415600Y-92710000D01*
X110173400Y-63390600D02*
X110173400Y-91467800D01*
X111478700Y-62085300D02*
X110173400Y-63390600D01*
X111760000Y-62085300D02*
X111478700Y-62085300D01*
X110153700Y-108286300D02*
X111760000Y-106680000D01*
X110153700Y-116900900D02*
X110153700Y-108286300D01*
X111868800Y-118616000D02*
X110153700Y-116900900D01*
X113554800Y-118616000D02*
X111868800Y-118616000D01*
X42951200Y-62085300D02*
X43180000Y-62085300D01*
X40171300Y-64865200D02*
X42951200Y-62085300D01*
X40171300Y-116071600D02*
X40171300Y-64865200D01*
X42563900Y-118464200D02*
X40171300Y-116071600D01*
X43784300Y-118464200D02*
X42563900Y-118464200D01*
X44779600Y-117468900D02*
X43784300Y-118464200D01*
X44779600Y-108279600D02*
X44779600Y-117468900D01*
X43180000Y-106680000D02*
X44779600Y-108279600D01*
X91721300Y-44305300D02*
X91440000Y-44305300D01*
X92620100Y-45204100D02*
X91721300Y-44305300D01*
X92620100Y-54867300D02*
X92620100Y-45204100D01*
X91440000Y-43180000D02*
X91440000Y-44305300D01*
X42898600Y-108094700D02*
X43180000Y-108094700D01*
X42054700Y-107250800D02*
X42898600Y-108094700D01*
X42054700Y-82913200D02*
X42054700Y-107250800D01*
X44767200Y-80200700D02*
X42054700Y-82913200D01*
X44767200Y-65931200D02*
X44767200Y-80200700D01*
X43461300Y-64625300D02*
X44767200Y-65931200D01*
X43180000Y-64625300D02*
X43461300Y-64625300D01*
X43180000Y-63500000D02*
X43180000Y-64625300D01*
X43180000Y-109220000D02*
X43180000Y-108094700D01*
X111760000Y-109220000D02*
X111760000Y-108094700D01*
X91440000Y-40640000D02*
X91440000Y-41765300D01*
X111760000Y-63500000D02*
X111760000Y-64625300D01*
X111478600Y-64625300D02*
X111760000Y-64625300D01*
X110634700Y-65469200D02*
X111478600Y-64625300D01*
X110634700Y-71942100D02*
X110634700Y-65469200D01*
X113001200Y-74308600D02*
X110634700Y-71942100D01*
X113001200Y-90733300D02*
X113001200Y-74308600D01*
X113375600Y-91107700D02*
X113001200Y-90733300D01*
X113375600Y-106760500D02*
X113375600Y-91107700D01*
X112041400Y-108094700D02*
X113375600Y-106760500D01*
X111760000Y-108094700D02*
X112041400Y-108094700D01*
X91158600Y-39514700D02*
X91440000Y-39514700D01*
X90314700Y-38670800D02*
X91158600Y-39514700D01*
X90314700Y-37628900D02*
X90314700Y-38670800D01*
X91018400Y-36925200D02*
X90314700Y-37628900D01*
X96950400Y-36925200D02*
X91018400Y-36925200D01*
X100378800Y-40353600D02*
X96950400Y-36925200D01*
X100378800Y-44135400D02*
X100378800Y-40353600D01*
X107004700Y-50761300D02*
X100378800Y-44135400D01*
X107004700Y-61660400D02*
X107004700Y-50761300D01*
X91440000Y-40640000D02*
X91440000Y-39514700D01*
X91260400Y-41765300D02*
X91440000Y-41765300D01*
X86666200Y-46359500D02*
X91260400Y-41765300D01*
X86666200Y-59371400D02*
X86666200Y-46359500D01*
X111760000Y-66040000D02*
X111760000Y-67165300D01*
X42898700Y-67165300D02*
X43180000Y-67165300D01*
X40621700Y-69442300D02*
X42898700Y-67165300D01*
X40621700Y-115885100D02*
X40621700Y-69442300D01*
X42750400Y-118013800D02*
X40621700Y-115885100D01*
X43597800Y-118013800D02*
X42750400Y-118013800D01*
X44329200Y-117282400D02*
X43597800Y-118013800D01*
X44329200Y-112909200D02*
X44329200Y-117282400D01*
X43180000Y-111760000D02*
X44329200Y-112909200D01*
X43180000Y-66040000D02*
X43180000Y-67165300D01*
X91440000Y-38100000D02*
X92565300Y-38100000D01*
X104417500Y-49466900D02*
X104417500Y-62454100D01*
X96860600Y-41910000D02*
X104417500Y-49466900D01*
X96094000Y-41910000D02*
X96860600Y-41910000D01*
X92565300Y-38381300D02*
X96094000Y-41910000D01*
X92565300Y-38100000D02*
X92565300Y-38381300D01*
X111942900Y-67165300D02*
X111760000Y-67165300D01*
X113901800Y-69124200D02*
X111942900Y-67165300D01*
X113901800Y-90360100D02*
X113901800Y-69124200D01*
X114276300Y-90734600D02*
X113901800Y-90360100D01*
X114276300Y-104234000D02*
X114276300Y-90734600D01*
X114686000Y-104643700D02*
X114276300Y-104234000D01*
X114686000Y-113000900D02*
X114686000Y-104643700D01*
X112244300Y-115442600D02*
X114686000Y-113000900D01*
X111273400Y-115442600D02*
X112244300Y-115442600D01*
X110612800Y-114782000D02*
X111273400Y-115442600D01*
X110612800Y-112907200D02*
X110612800Y-114782000D01*
X111760000Y-111760000D02*
X110612800Y-112907200D01*
X86360000Y-162560000D02*
X86360000Y-163685300D01*
X53340000Y-129540000D02*
X53340000Y-130665300D01*
X59817800Y-136861800D02*
X59817800Y-145212400D01*
X53621300Y-130665300D02*
X59817800Y-136861800D01*
X53340000Y-130665300D02*
X53621300Y-130665300D01*
X82842100Y-175393300D02*
X82842100Y-188367800D01*
X84101300Y-174134100D02*
X82842100Y-175393300D01*
X84101300Y-173414000D02*
X84101300Y-174134100D01*
X84776600Y-172738700D02*
X84101300Y-173414000D01*
X84776600Y-164987400D02*
X84776600Y-172738700D01*
X86078700Y-163685300D02*
X84776600Y-164987400D01*
X86360000Y-163685300D02*
X86078700Y-163685300D01*
X53621300Y-133205300D02*
X53340000Y-133205300D01*
X58790600Y-138374600D02*
X53621300Y-133205300D01*
X58790600Y-146489500D02*
X58790600Y-138374600D01*
X65752000Y-153450900D02*
X58790600Y-146489500D01*
X66187800Y-153450900D02*
X65752000Y-153450900D01*
X67165400Y-154428500D02*
X66187800Y-153450900D01*
X67165400Y-163974600D02*
X67165400Y-154428500D01*
X66040000Y-165100000D02*
X67165400Y-163974600D01*
X53340000Y-132080000D02*
X53340000Y-133205300D01*
X53621300Y-135745300D02*
X53340000Y-135745300D01*
X57444700Y-139568700D02*
X53621300Y-135745300D01*
X57444700Y-181924600D02*
X57444700Y-139568700D01*
X59383100Y-183863000D02*
X57444700Y-181924600D01*
X59383100Y-198193600D02*
X59383100Y-183863000D01*
X60473800Y-199284300D02*
X59383100Y-198193600D01*
X63750400Y-199284300D02*
X60473800Y-199284300D01*
X64914700Y-198120000D02*
X63750400Y-199284300D01*
X66040000Y-198120000D02*
X64914700Y-198120000D01*
X53340000Y-134620000D02*
X53340000Y-135745300D01*
X73913500Y-216503600D02*
X74216300Y-216200800D01*
X59229200Y-216503600D02*
X73913500Y-216503600D01*
X58420000Y-215694400D02*
X59229200Y-216503600D01*
X58420000Y-206087800D02*
X58420000Y-215694400D01*
X55417800Y-203085600D02*
X58420000Y-206087800D01*
X55417800Y-185217800D02*
X55417800Y-203085600D01*
X49610500Y-179410500D02*
X55417800Y-185217800D01*
X49610500Y-151931700D02*
X49610500Y-179410500D01*
X44290200Y-146611400D02*
X49610500Y-151931700D01*
X44290200Y-141676100D02*
X44290200Y-146611400D01*
X60960000Y-142240000D02*
X60960000Y-143365300D01*
X124460000Y-198120000D02*
X123334700Y-198120000D01*
X60960000Y-143365300D02*
X60960000Y-147011800D01*
X65558600Y-150447600D02*
X65558600Y-150447500D01*
X65815500Y-150447600D02*
X65558600Y-150447600D01*
X69357500Y-153989600D02*
X65815500Y-150447600D01*
X69357500Y-171731200D02*
X69357500Y-153989600D01*
X67639600Y-173449100D02*
X69357500Y-171731200D01*
X67639600Y-184315500D02*
X67639600Y-173449100D01*
X69414000Y-186089900D02*
X67639600Y-184315500D01*
X69414000Y-192952300D02*
X69414000Y-186089900D01*
X73311700Y-196850000D02*
X69414000Y-192952300D01*
X73987500Y-196850000D02*
X73311700Y-196850000D01*
X75170400Y-198032900D02*
X73987500Y-196850000D01*
X75170400Y-200496000D02*
X75170400Y-198032900D01*
X80986500Y-206312100D02*
X75170400Y-200496000D01*
X80986500Y-207043800D02*
X80986500Y-206312100D01*
X118898400Y-202556300D02*
X109557500Y-202556300D01*
X123334700Y-198120000D02*
X118898400Y-202556300D01*
X60960000Y-137160000D02*
X60960000Y-138285300D01*
X113383500Y-172486400D02*
X114683400Y-173786300D01*
X112361500Y-172486400D02*
X113383500Y-172486400D01*
X62150700Y-139194700D02*
X62150700Y-146155200D01*
X61241300Y-138285300D02*
X62150700Y-139194700D01*
X60960000Y-138285300D02*
X61241300Y-138285300D01*
X81647300Y-169198700D02*
X81524400Y-169321600D01*
X81647300Y-155674400D02*
X81647300Y-169198700D01*
X60960000Y-134620000D02*
X60960000Y-135745300D01*
X124460000Y-195580000D02*
X123334700Y-195580000D01*
X110036400Y-201785400D02*
X109985100Y-201734100D01*
X117410600Y-201785400D02*
X110036400Y-201785400D01*
X123334700Y-195861300D02*
X117410600Y-201785400D01*
X123334700Y-195580000D02*
X123334700Y-195861300D01*
X79123600Y-196850000D02*
X84782100Y-202508500D01*
X78362600Y-196850000D02*
X79123600Y-196850000D01*
X77147900Y-195635300D02*
X78362600Y-196850000D01*
X77147900Y-192820600D02*
X77147900Y-195635300D01*
X74812200Y-190484900D02*
X77147900Y-192820600D01*
X74812200Y-181797700D02*
X74812200Y-190484900D01*
X73658800Y-180644300D02*
X74812200Y-181797700D01*
X73658800Y-174280700D02*
X73658800Y-180644300D01*
X71383500Y-172005400D02*
X73658800Y-174280700D01*
X71383500Y-164475700D02*
X71383500Y-172005400D01*
X67831600Y-154374400D02*
X67831600Y-162645600D01*
X65430700Y-151973500D02*
X67831600Y-154374400D01*
X64926400Y-151973500D02*
X65430700Y-151973500D01*
X63056500Y-150103600D02*
X64926400Y-151973500D01*
X63056500Y-138262400D02*
X63056500Y-150103600D01*
X62085300Y-137291200D02*
X63056500Y-138262400D01*
X62085300Y-136589200D02*
X62085300Y-137291200D01*
X61241400Y-135745300D02*
X62085300Y-136589200D01*
X60960000Y-135745300D02*
X61241400Y-135745300D01*
X67632100Y-136415500D02*
X66944200Y-135727600D01*
X67632100Y-140183600D02*
X67632100Y-136415500D01*
X68774400Y-141325900D02*
X67632100Y-140183600D01*
X68774400Y-142572000D02*
X68774400Y-141325900D01*
X76214600Y-150012200D02*
X68774400Y-142572000D01*
X76214600Y-166749300D02*
X76214600Y-150012200D01*
X78375300Y-168910000D02*
X76214600Y-166749300D01*
X79136100Y-168910000D02*
X78375300Y-168910000D01*
X80366800Y-170140700D02*
X79136100Y-168910000D01*
X80366800Y-170516500D02*
X80366800Y-170140700D01*
X122125100Y-172720000D02*
X120305400Y-174539700D01*
X124460000Y-172720000D02*
X122125100Y-172720000D01*
X108708500Y-175458500D02*
X108610200Y-175556800D01*
X110646600Y-175458500D02*
X108708500Y-175458500D01*
X70918800Y-132197500D02*
X70158900Y-131437600D01*
X70918800Y-140422300D02*
X70918800Y-132197500D01*
X71043700Y-140547200D02*
X70918800Y-140422300D01*
X71043700Y-141268500D02*
X71043700Y-140547200D01*
X73331100Y-143555900D02*
X71043700Y-141268500D01*
X126222400Y-181444700D02*
X126222400Y-183408800D01*
X117965300Y-173187600D02*
X126222400Y-181444700D01*
X117965300Y-172149200D02*
X117965300Y-173187600D01*
X117121400Y-171305300D02*
X117965300Y-172149200D01*
X116840000Y-171305300D02*
X117121400Y-171305300D01*
X116840000Y-170180000D02*
X116840000Y-171305300D01*
X78740000Y-185420000D02*
X78740000Y-184294700D01*
X86360000Y-157480000D02*
X86360000Y-158605300D01*
X78740000Y-177594600D02*
X78740000Y-184294700D01*
X83200700Y-173133900D02*
X78740000Y-177594600D01*
X83200700Y-173040800D02*
X83200700Y-173133900D01*
X83876000Y-172365500D02*
X83200700Y-173040800D01*
X83876000Y-160818200D02*
X83876000Y-172365500D01*
X86088900Y-158605300D02*
X83876000Y-160818200D01*
X86360000Y-158605300D02*
X86088900Y-158605300D01*
X60960000Y-195580000D02*
X60960000Y-194454700D01*
X66040000Y-160020000D02*
X66040000Y-161145300D01*
X60678700Y-194454700D02*
X60960000Y-194454700D01*
X59833500Y-193609500D02*
X60678700Y-194454700D01*
X59833500Y-187491300D02*
X59833500Y-193609500D01*
X60634800Y-186690000D02*
X59833500Y-187491300D01*
X61282600Y-186690000D02*
X60634800Y-186690000D01*
X62433500Y-185539100D02*
X61282600Y-186690000D01*
X62433500Y-164470500D02*
X62433500Y-185539100D01*
X65758700Y-161145300D02*
X62433500Y-164470500D01*
X66040000Y-161145300D02*
X65758700Y-161145300D01*
X63500000Y-104140000D02*
X63500000Y-105265300D01*
X66040000Y-167640000D02*
X66040000Y-166514700D01*
X66306000Y-166514700D02*
X66040000Y-166514700D01*
X68456900Y-164363800D02*
X66306000Y-166514700D01*
X68456900Y-154362800D02*
X68456900Y-164363800D01*
X65617300Y-151523200D02*
X68456900Y-154362800D01*
X65113000Y-151523200D02*
X65617300Y-151523200D01*
X63506800Y-149917000D02*
X65113000Y-151523200D01*
X63506800Y-137850900D02*
X63506800Y-149917000D01*
X63112800Y-137456900D02*
X63506800Y-137850900D01*
X63112800Y-126185500D02*
X63112800Y-137456900D01*
X64637300Y-124661000D02*
X63112800Y-126185500D01*
X64637300Y-106220900D02*
X64637300Y-124661000D01*
X63681700Y-105265300D02*
X64637300Y-106220900D01*
X63500000Y-105265300D02*
X63681700Y-105265300D01*
X43180000Y-104140000D02*
X43180000Y-105265300D01*
X51364200Y-149545600D02*
X51364200Y-170132300D01*
X46064200Y-144245600D02*
X51364200Y-149545600D01*
X46064200Y-126937100D02*
X46064200Y-144245600D01*
X44267600Y-125140500D02*
X46064200Y-126937100D01*
X44267600Y-118920600D02*
X44267600Y-125140500D01*
X45260100Y-117928100D02*
X44267600Y-118920600D01*
X45260100Y-107064100D02*
X45260100Y-117928100D01*
X43461300Y-105265300D02*
X45260100Y-107064100D01*
X43180000Y-105265300D02*
X43461300Y-105265300D01*
X128506100Y-123720000D02*
X128506100Y-125016500D01*
X133711300Y-118514800D02*
X128506100Y-123720000D01*
X133711300Y-106615300D02*
X133711300Y-118514800D01*
X132361300Y-105265300D02*
X133711300Y-106615300D01*
X132080000Y-105265300D02*
X132361300Y-105265300D01*
X132080000Y-104140000D02*
X132080000Y-105265300D01*
X107458900Y-138042500D02*
X107458900Y-133361100D01*
X104531400Y-140970000D02*
X107458900Y-138042500D01*
X103773000Y-140970000D02*
X104531400Y-140970000D01*
X100461600Y-144281400D02*
X103773000Y-140970000D01*
X100461600Y-155293500D02*
X100461600Y-144281400D01*
X73660000Y-157480000D02*
X73660000Y-158605300D01*
X78740000Y-195580000D02*
X78740000Y-194454700D01*
X73862100Y-158605300D02*
X73660000Y-158605300D01*
X74820400Y-159563600D02*
X73862100Y-158605300D01*
X74820400Y-167974100D02*
X74820400Y-159563600D01*
X75289400Y-168443100D02*
X74820400Y-167974100D01*
X75289400Y-173074000D02*
X75289400Y-168443100D01*
X75180400Y-173183000D02*
X75289400Y-173074000D01*
X75180400Y-180017400D02*
X75180400Y-173183000D01*
X75270700Y-180107700D02*
X75180400Y-180017400D01*
X75270700Y-189701500D02*
X75270700Y-180107700D01*
X77606400Y-192037200D02*
X75270700Y-189701500D01*
X77606400Y-193498000D02*
X77606400Y-192037200D01*
X78563100Y-194454700D02*
X77606400Y-193498000D01*
X78740000Y-194454700D02*
X78563100Y-194454700D01*
X53058700Y-189374700D02*
X53340000Y-189374700D01*
X50555100Y-186871100D02*
X53058700Y-189374700D01*
X50555100Y-183215800D02*
X50555100Y-186871100D01*
X53340000Y-190500000D02*
X53340000Y-189374700D01*
X111760000Y-104140000D02*
X111760000Y-105265300D01*
X109694200Y-118238900D02*
X110819100Y-119363800D01*
X109694200Y-107049800D02*
X109694200Y-118238900D01*
X111478700Y-105265300D02*
X109694200Y-107049800D01*
X111760000Y-105265300D02*
X111478700Y-105265300D01*
X103061200Y-177402300D02*
X103145700Y-177486800D01*
X103061200Y-151068400D02*
X103061200Y-177402300D01*
X109185100Y-144944500D02*
X103061200Y-151068400D01*
X109185100Y-124500200D02*
X109185100Y-144944500D01*
X63500000Y-58420000D02*
X63500000Y-59545300D01*
X56895600Y-144165800D02*
X56895600Y-182731200D01*
X53699800Y-140970000D02*
X56895600Y-144165800D01*
X52953400Y-140970000D02*
X53699800Y-140970000D01*
X51246800Y-139263400D02*
X52953400Y-140970000D01*
X51246800Y-122883900D02*
X51246800Y-139263400D01*
X56088200Y-118042500D02*
X51246800Y-122883900D01*
X56088200Y-76260600D02*
X56088200Y-118042500D01*
X58208100Y-74140700D02*
X56088200Y-76260600D01*
X58208100Y-64555900D02*
X58208100Y-74140700D01*
X63218700Y-59545300D02*
X58208100Y-64555900D01*
X63500000Y-59545300D02*
X63218700Y-59545300D01*
X43180000Y-58420000D02*
X43180000Y-59545300D01*
X42898700Y-59545300D02*
X43180000Y-59545300D01*
X39720900Y-62723100D02*
X42898700Y-59545300D01*
X39720900Y-121230700D02*
X39720900Y-62723100D01*
X45423700Y-126933500D02*
X39720900Y-121230700D01*
X45423700Y-144396000D02*
X45423700Y-126933500D01*
X50511300Y-149483600D02*
X45423700Y-144396000D01*
X50511300Y-173609400D02*
X50511300Y-149483600D01*
X53354500Y-176452600D02*
X50511300Y-173609400D01*
X53354500Y-181243700D02*
X53354500Y-176452600D01*
X57537400Y-185426600D02*
X53354500Y-181243700D01*
X57537400Y-197237400D02*
X57537400Y-185426600D01*
X60960000Y-200660000D02*
X57537400Y-197237400D01*
X132080000Y-58420000D02*
X132080000Y-59545300D01*
X133257000Y-169354200D02*
X134954900Y-171052100D01*
X133257000Y-146827600D02*
X133257000Y-169354200D01*
X129939400Y-143510000D02*
X133257000Y-146827600D01*
X129213300Y-143510000D02*
X129939400Y-143510000D01*
X127878000Y-142174700D02*
X129213300Y-143510000D01*
X127878000Y-110286600D02*
X127878000Y-142174700D01*
X126907400Y-109316000D02*
X127878000Y-110286600D01*
X126907400Y-80137500D02*
X126907400Y-109316000D01*
X127181300Y-79863600D02*
X126907400Y-80137500D01*
X127181300Y-64242600D02*
X127181300Y-79863600D01*
X131878600Y-59545300D02*
X127181300Y-64242600D01*
X132080000Y-59545300D02*
X131878600Y-59545300D01*
X86360000Y-160020000D02*
X86360000Y-161145300D01*
X78740000Y-187960000D02*
X78740000Y-186834700D01*
X78918900Y-186834700D02*
X78740000Y-186834700D01*
X82391800Y-183361800D02*
X78918900Y-186834700D01*
X82391800Y-174579700D02*
X82391800Y-183361800D01*
X83651000Y-173320500D02*
X82391800Y-174579700D01*
X83651000Y-173227400D02*
X83651000Y-173320500D01*
X84326300Y-172552100D02*
X83651000Y-173227400D01*
X84326300Y-162968100D02*
X84326300Y-172552100D01*
X86149100Y-161145300D02*
X84326300Y-162968100D01*
X86360000Y-161145300D02*
X86149100Y-161145300D01*
X66321300Y-189374700D02*
X66040000Y-189374700D01*
X67310700Y-188385300D02*
X66321300Y-189374700D01*
X67310700Y-186763300D02*
X67310700Y-188385300D01*
X66040000Y-190500000D02*
X66040000Y-189374700D01*
X111760000Y-58420000D02*
X111760000Y-59545300D01*
X76717400Y-176400600D02*
X76717400Y-178013900D01*
X82755900Y-170362100D02*
X76717400Y-176400600D01*
X82755900Y-147409300D02*
X82755900Y-170362100D01*
X84877400Y-145287800D02*
X82755900Y-147409300D01*
X84877400Y-82879000D02*
X84877400Y-145287800D01*
X103164600Y-81234000D02*
X103183700Y-81253100D01*
X103164600Y-75636700D02*
X103164600Y-81234000D01*
X107906400Y-70894900D02*
X103164600Y-75636700D01*
X107906400Y-63175800D02*
X107906400Y-70894900D01*
X111536900Y-59545300D02*
X107906400Y-63175800D01*
X111760000Y-59545300D02*
X111536900Y-59545300D01*
X66040000Y-193040000D02*
X66040000Y-191914700D01*
X68160700Y-190075300D02*
X68160700Y-187241900D01*
X66321300Y-191914700D02*
X68160700Y-190075300D01*
X66040000Y-191914700D02*
X66321300Y-191914700D01*
X82750400Y-172912900D02*
X76821400Y-178841900D01*
X82750400Y-172095300D02*
X82750400Y-172912900D01*
X83003200Y-171842500D02*
X82750400Y-172095300D01*
X66040000Y-195580000D02*
X67165300Y-195580000D01*
X67165300Y-195861300D02*
X67165300Y-195580000D01*
X73583100Y-202279100D02*
X67165300Y-195861300D01*
X75665600Y-202279100D02*
X73583100Y-202279100D01*
X73660000Y-200660000D02*
X73660000Y-199534700D01*
X73378700Y-199534700D02*
X73660000Y-199534700D01*
X68833400Y-194989400D02*
X73378700Y-199534700D01*
X68833400Y-186184600D02*
X68833400Y-194989400D01*
X67189100Y-184540300D02*
X68833400Y-186184600D01*
X67189100Y-171259400D02*
X67189100Y-184540300D01*
X68907200Y-169541300D02*
X67189100Y-171259400D01*
X68907200Y-154176200D02*
X68907200Y-169541300D01*
X65803900Y-151072900D02*
X68907200Y-154176200D01*
X65299600Y-151072900D02*
X65803900Y-151072900D01*
X63957100Y-149730400D02*
X65299600Y-151072900D01*
X63957100Y-135186200D02*
X63957100Y-149730400D01*
X63744900Y-134974000D02*
X63957100Y-135186200D01*
X91440000Y-170180000D02*
X92565300Y-170180000D01*
X99060000Y-172720000D02*
X95475900Y-172720000D01*
X95105300Y-172720000D02*
X92565300Y-170180000D01*
X95475900Y-172720000D02*
X95105300Y-172720000D01*
X95475900Y-172720000D02*
X95475900Y-188062400D01*
X66040000Y-139700000D02*
X66040000Y-140825300D01*
X86360000Y-198120000D02*
X85234700Y-198120000D01*
X66226500Y-140825300D02*
X66040000Y-140825300D01*
X67589100Y-142187900D02*
X66226500Y-140825300D01*
X67589100Y-143134100D02*
X67589100Y-142187900D01*
X75270700Y-150815700D02*
X67589100Y-143134100D01*
X75270700Y-167787400D02*
X75270700Y-150815700D01*
X75739700Y-168256400D02*
X75270700Y-167787400D01*
X75739700Y-173260600D02*
X75739700Y-168256400D01*
X75630700Y-173369600D02*
X75739700Y-173260600D01*
X75630700Y-179830800D02*
X75630700Y-173369600D01*
X75721000Y-179921100D02*
X75630700Y-179830800D01*
X75721000Y-189084800D02*
X75721000Y-179921100D01*
X78406200Y-191770000D02*
X75721000Y-189084800D01*
X79166000Y-191770000D02*
X78406200Y-191770000D01*
X85234700Y-197838700D02*
X79166000Y-191770000D01*
X85234700Y-198120000D02*
X85234700Y-197838700D01*
X149860000Y-157480000D02*
X149860000Y-160020000D01*
X101226600Y-150473200D02*
X101743100Y-149956700D01*
X101226600Y-154348200D02*
X101226600Y-150473200D01*
X101415600Y-154537200D02*
X101226600Y-154348200D01*
X101415600Y-191457300D02*
X101415600Y-154537200D01*
X66040000Y-137160000D02*
X66040000Y-138285300D01*
X86360000Y-190500000D02*
X85234700Y-190500000D01*
X66321400Y-138285300D02*
X66040000Y-138285300D01*
X67165300Y-139129200D02*
X66321400Y-138285300D01*
X67165300Y-140490400D02*
X67165300Y-139129200D01*
X68198700Y-141523800D02*
X67165300Y-140490400D01*
X68198700Y-142633200D02*
X68198700Y-141523800D01*
X75721000Y-150155500D02*
X68198700Y-142633200D01*
X75721000Y-167600800D02*
X75721000Y-150155500D01*
X76190000Y-168069800D02*
X75721000Y-167600800D01*
X76190000Y-173447200D02*
X76190000Y-168069800D01*
X76081000Y-173556200D02*
X76190000Y-173447200D01*
X76081000Y-179074400D02*
X76081000Y-173556200D01*
X76171300Y-179164700D02*
X76081000Y-179074400D01*
X76171300Y-187021900D02*
X76171300Y-179164700D01*
X78396500Y-189247100D02*
X76171300Y-187021900D01*
X83981800Y-189247100D02*
X78396500Y-189247100D01*
X85234700Y-190500000D02*
X83981800Y-189247100D01*
X86360000Y-187960000D02*
X86360000Y-186834700D01*
X78740000Y-167640000D02*
X78740000Y-166514700D01*
X79883300Y-143455000D02*
X79939900Y-143398400D01*
X79883300Y-152209300D02*
X79883300Y-143455000D01*
X80405400Y-152731400D02*
X79883300Y-152209300D01*
X80405400Y-165130600D02*
X80405400Y-152731400D01*
X79021300Y-166514700D02*
X80405400Y-165130600D01*
X78740000Y-166514700D02*
X79021300Y-166514700D01*
X85064300Y-185820300D02*
X85064300Y-174010700D01*
X86078700Y-186834700D02*
X85064300Y-185820300D01*
X86360000Y-186834700D02*
X86078700Y-186834700D01*
X104140000Y-142240000D02*
X104140000Y-143365300D01*
X104140000Y-198120000D02*
X104140000Y-196994700D01*
X103858700Y-143365300D02*
X104140000Y-143365300D01*
X102520400Y-144703600D02*
X103858700Y-143365300D01*
X102520400Y-195656400D02*
X102520400Y-144703600D01*
X103858700Y-196994700D02*
X102520400Y-195656400D01*
X104140000Y-196994700D02*
X103858700Y-196994700D01*
X40640000Y-193040000D02*
X40640000Y-191914700D01*
X44744400Y-188091600D02*
X44744400Y-183585200D01*
X40921300Y-191914700D02*
X44744400Y-188091600D01*
X40640000Y-191914700D02*
X40921300Y-191914700D01*
X86522300Y-174473900D02*
X86522300Y-180706700D01*
X85234600Y-173186200D02*
X86522300Y-174473900D01*
X85234600Y-169609400D02*
X85234600Y-173186200D01*
X86078700Y-168765300D02*
X85234600Y-169609400D01*
X86360000Y-168765300D02*
X86078700Y-168765300D01*
X139989400Y-186545300D02*
X141114700Y-185420000D01*
X136926300Y-186545300D02*
X139989400Y-186545300D01*
X135683800Y-187787800D02*
X136926300Y-186545300D01*
X135683800Y-193628000D02*
X135683800Y-187787800D01*
X130032300Y-199279500D02*
X135683800Y-193628000D01*
X129076200Y-199279500D02*
X130032300Y-199279500D01*
X127286200Y-197489500D02*
X129076200Y-199279500D01*
X127286200Y-194197300D02*
X127286200Y-197489500D01*
X124858900Y-191770000D02*
X127286200Y-194197300D01*
X124132500Y-191770000D02*
X124858900Y-191770000D01*
X122663800Y-190301300D02*
X124132500Y-191770000D01*
X122663800Y-186945800D02*
X122663800Y-190301300D01*
X118271600Y-182553600D02*
X122663800Y-186945800D01*
X142240000Y-185420000D02*
X141114700Y-185420000D01*
X86360000Y-167640000D02*
X86360000Y-168765300D01*
X48260000Y-190500000D02*
X49385300Y-190500000D01*
X135745400Y-102725400D02*
X137160000Y-104140000D01*
X135745400Y-96641600D02*
X135745400Y-102725400D01*
X135555600Y-96451800D02*
X135745400Y-96641600D01*
X135555600Y-81616700D02*
X135555600Y-96451800D01*
X138735700Y-78436600D02*
X135555600Y-81616700D01*
X138735700Y-60839700D02*
X138735700Y-78436600D01*
X137441300Y-59545300D02*
X138735700Y-60839700D01*
X137160000Y-59545300D02*
X137441300Y-59545300D01*
X137160000Y-58420000D02*
X137160000Y-59545300D01*
X126638400Y-206250800D02*
X106091900Y-206250800D01*
X136039200Y-196850000D02*
X126638400Y-206250800D01*
X143738300Y-196850000D02*
X136039200Y-196850000D01*
X148818300Y-191770000D02*
X143738300Y-196850000D01*
X150256300Y-191770000D02*
X148818300Y-191770000D01*
X151449200Y-190577100D02*
X150256300Y-191770000D01*
X151449200Y-151906500D02*
X151449200Y-190577100D01*
X138565800Y-139023100D02*
X151449200Y-151906500D01*
X138565800Y-111797600D02*
X138565800Y-139023100D01*
X138735800Y-111627600D02*
X138565800Y-111797600D01*
X138735800Y-105715800D02*
X138735800Y-111627600D01*
X137160000Y-104140000D02*
X138735800Y-105715800D01*
X49385300Y-190781300D02*
X49385300Y-190500000D01*
X52914000Y-194310000D02*
X49385300Y-190781300D01*
X53667500Y-194310000D02*
X52914000Y-194310000D01*
X54465300Y-195107800D02*
X53667500Y-194310000D01*
X54465300Y-214227400D02*
X54465300Y-195107800D01*
X57233300Y-216995400D02*
X54465300Y-214227400D01*
X74667100Y-216995400D02*
X57233300Y-216995400D01*
X75317300Y-216345200D02*
X74667100Y-216995400D01*
X116840000Y-134620000D02*
X116840000Y-135745300D01*
X129540000Y-198120000D02*
X129540000Y-196994700D01*
X117042100Y-135745300D02*
X116840000Y-135745300D01*
X121081500Y-139784700D02*
X117042100Y-135745300D01*
X121081500Y-144355000D02*
X121081500Y-139784700D01*
X120925300Y-144511200D02*
X121081500Y-144355000D01*
X120925300Y-155593000D02*
X120925300Y-144511200D01*
X124082300Y-158750000D02*
X120925300Y-155593000D01*
X124833900Y-158750000D02*
X124082300Y-158750000D01*
X125778400Y-159694500D02*
X124833900Y-158750000D01*
X125778400Y-173070500D02*
X125778400Y-159694500D01*
X128414700Y-175706800D02*
X125778400Y-173070500D01*
X128414700Y-196150800D02*
X128414700Y-175706800D01*
X129258600Y-196994700D02*
X128414700Y-196150800D01*
X129540000Y-196994700D02*
X129258600Y-196994700D01*
X137160000Y-88900000D02*
X137160000Y-91440000D01*
X137160000Y-88900000D02*
X137160000Y-87774700D01*
X137160000Y-43180000D02*
X137160000Y-45720000D01*
X137160000Y-45720000D02*
X137160000Y-46845300D01*
X129540000Y-142240000D02*
X129540000Y-141114700D01*
X134161700Y-99459700D02*
X134084800Y-99382800D01*
X134161700Y-118891000D02*
X134161700Y-99459700D01*
X133350000Y-119702700D02*
X134161700Y-118891000D01*
X133350000Y-137586000D02*
X133350000Y-119702700D01*
X129821300Y-141114700D02*
X133350000Y-137586000D01*
X129540000Y-141114700D02*
X129821300Y-141114700D01*
X137441300Y-46845300D02*
X137160000Y-46845300D01*
X140162900Y-49566900D02*
X137441300Y-46845300D01*
X140162900Y-85053100D02*
X140162900Y-49566900D01*
X137441300Y-87774700D02*
X140162900Y-85053100D01*
X137160000Y-87774700D02*
X137441300Y-87774700D01*
X117121400Y-189085300D02*
X116840000Y-189085300D01*
X117965300Y-189929200D02*
X117121400Y-189085300D01*
X117965300Y-196150700D02*
X117965300Y-189929200D01*
X117121300Y-196994700D02*
X117965300Y-196150700D01*
X116840000Y-196994700D02*
X117121300Y-196994700D01*
X116840000Y-198120000D02*
X116840000Y-196994700D01*
X116840000Y-187960000D02*
X116840000Y-189085300D01*
X116840000Y-193040000D02*
X116840000Y-190500000D01*
X142240000Y-162560000D02*
X142240000Y-163685300D01*
X149860000Y-190500000D02*
X149860000Y-189374700D01*
X149578600Y-189374700D02*
X149860000Y-189374700D01*
X148734700Y-188530800D02*
X149578600Y-189374700D01*
X148734700Y-169931600D02*
X148734700Y-188530800D01*
X142488400Y-163685300D02*
X148734700Y-169931600D01*
X142240000Y-163685300D02*
X142488400Y-163685300D01*
X124460000Y-187960000D02*
X124460000Y-186834700D01*
X127504500Y-184071500D02*
X127504500Y-176794100D01*
X124741300Y-186834700D02*
X127504500Y-184071500D01*
X124460000Y-186834700D02*
X124741300Y-186834700D01*
X150141400Y-186834700D02*
X149860000Y-186834700D01*
X150985300Y-185990800D02*
X150141400Y-186834700D01*
X150985300Y-164529300D02*
X150985300Y-185990800D01*
X150141300Y-163685300D02*
X150985300Y-164529300D01*
X149860000Y-163685300D02*
X150141300Y-163685300D01*
X149860000Y-162560000D02*
X149860000Y-163685300D01*
X149860000Y-187960000D02*
X149860000Y-186834700D01*
M02*
