G04 #@! TF.FileFunction,Legend,Top*
%FSLAX46Y46*%
G04 Gerber Fmt 4.6, Leading zero omitted, Abs format (unit mm)*
G04 Created by KiCad (PCBNEW 4.0.2+dfsg1-stable) date Thu 01 Jun 2017 06:03:18 PM EDT*
%MOMM*%
G01*
G04 APERTURE LIST*
%ADD10C,0.100000*%
%ADD11C,0.300000*%
%ADD12C,0.150000*%
G04 APERTURE END LIST*
D10*
D11*
X118435714Y-18030000D02*
X119150000Y-18030000D01*
X118292857Y-18458571D02*
X118792857Y-16958571D01*
X119292857Y-18458571D01*
X119792857Y-16958571D02*
X119792857Y-18172857D01*
X119864285Y-18315714D01*
X119935714Y-18387143D01*
X120078571Y-18458571D01*
X120364285Y-18458571D01*
X120507143Y-18387143D01*
X120578571Y-18315714D01*
X120650000Y-18172857D01*
X120650000Y-16958571D01*
X121221429Y-16958571D02*
X122221429Y-18458571D01*
X122221429Y-16958571D02*
X121221429Y-18458571D01*
X122792857Y-18315714D02*
X122864285Y-18387143D01*
X122792857Y-18458571D01*
X122721428Y-18387143D01*
X122792857Y-18315714D01*
X122792857Y-18458571D01*
X88817143Y-18315714D02*
X88745714Y-18387143D01*
X88531428Y-18458571D01*
X88388571Y-18458571D01*
X88174286Y-18387143D01*
X88031428Y-18244286D01*
X87960000Y-18101429D01*
X87888571Y-17815714D01*
X87888571Y-17601429D01*
X87960000Y-17315714D01*
X88031428Y-17172857D01*
X88174286Y-17030000D01*
X88388571Y-16958571D01*
X88531428Y-16958571D01*
X88745714Y-17030000D01*
X88817143Y-17101429D01*
X89745714Y-16958571D02*
X90031428Y-16958571D01*
X90174286Y-17030000D01*
X90317143Y-17172857D01*
X90388571Y-17458571D01*
X90388571Y-17958571D01*
X90317143Y-18244286D01*
X90174286Y-18387143D01*
X90031428Y-18458571D01*
X89745714Y-18458571D01*
X89602857Y-18387143D01*
X89460000Y-18244286D01*
X89388571Y-17958571D01*
X89388571Y-17458571D01*
X89460000Y-17172857D01*
X89602857Y-17030000D01*
X89745714Y-16958571D01*
X91031429Y-18458571D02*
X91031429Y-16958571D01*
X91888572Y-18458571D01*
X91888572Y-16958571D01*
X92531429Y-18387143D02*
X92745715Y-18458571D01*
X93102858Y-18458571D01*
X93245715Y-18387143D01*
X93317144Y-18315714D01*
X93388572Y-18172857D01*
X93388572Y-18030000D01*
X93317144Y-17887143D01*
X93245715Y-17815714D01*
X93102858Y-17744286D01*
X92817144Y-17672857D01*
X92674286Y-17601429D01*
X92602858Y-17530000D01*
X92531429Y-17387143D01*
X92531429Y-17244286D01*
X92602858Y-17101429D01*
X92674286Y-17030000D01*
X92817144Y-16958571D01*
X93174286Y-16958571D01*
X93388572Y-17030000D01*
X94317143Y-16958571D02*
X94602857Y-16958571D01*
X94745715Y-17030000D01*
X94888572Y-17172857D01*
X94960000Y-17458571D01*
X94960000Y-17958571D01*
X94888572Y-18244286D01*
X94745715Y-18387143D01*
X94602857Y-18458571D01*
X94317143Y-18458571D01*
X94174286Y-18387143D01*
X94031429Y-18244286D01*
X93960000Y-17958571D01*
X93960000Y-17458571D01*
X94031429Y-17172857D01*
X94174286Y-17030000D01*
X94317143Y-16958571D01*
X96317144Y-18458571D02*
X95602858Y-18458571D01*
X95602858Y-16958571D01*
X96817144Y-17672857D02*
X97317144Y-17672857D01*
X97531430Y-18458571D02*
X96817144Y-18458571D01*
X96817144Y-16958571D01*
X97531430Y-16958571D01*
X76545714Y-220388571D02*
X76545714Y-218888571D01*
X77117142Y-218888571D01*
X77260000Y-218960000D01*
X77331428Y-219031429D01*
X77402857Y-219174286D01*
X77402857Y-219388571D01*
X77331428Y-219531429D01*
X77260000Y-219602857D01*
X77117142Y-219674286D01*
X76545714Y-219674286D01*
X78331428Y-218888571D02*
X78617142Y-218888571D01*
X78760000Y-218960000D01*
X78902857Y-219102857D01*
X78974285Y-219388571D01*
X78974285Y-219888571D01*
X78902857Y-220174286D01*
X78760000Y-220317143D01*
X78617142Y-220388571D01*
X78331428Y-220388571D01*
X78188571Y-220317143D01*
X78045714Y-220174286D01*
X77974285Y-219888571D01*
X77974285Y-219388571D01*
X78045714Y-219102857D01*
X78188571Y-218960000D01*
X78331428Y-218888571D01*
X79474286Y-218888571D02*
X79831429Y-220388571D01*
X80117143Y-219317143D01*
X80402857Y-220388571D01*
X80760000Y-218888571D01*
X81331429Y-219602857D02*
X81831429Y-219602857D01*
X82045715Y-220388571D02*
X81331429Y-220388571D01*
X81331429Y-218888571D01*
X82045715Y-218888571D01*
X83545715Y-220388571D02*
X83045715Y-219674286D01*
X82688572Y-220388571D02*
X82688572Y-218888571D01*
X83260000Y-218888571D01*
X83402858Y-218960000D01*
X83474286Y-219031429D01*
X83545715Y-219174286D01*
X83545715Y-219388571D01*
X83474286Y-219531429D01*
X83402858Y-219602857D01*
X83260000Y-219674286D01*
X82688572Y-219674286D01*
X86705714Y-220388571D02*
X86705714Y-218888571D01*
X87277142Y-218888571D01*
X87420000Y-218960000D01*
X87491428Y-219031429D01*
X87562857Y-219174286D01*
X87562857Y-219388571D01*
X87491428Y-219531429D01*
X87420000Y-219602857D01*
X87277142Y-219674286D01*
X86705714Y-219674286D01*
X88491428Y-218888571D02*
X88777142Y-218888571D01*
X88920000Y-218960000D01*
X89062857Y-219102857D01*
X89134285Y-219388571D01*
X89134285Y-219888571D01*
X89062857Y-220174286D01*
X88920000Y-220317143D01*
X88777142Y-220388571D01*
X88491428Y-220388571D01*
X88348571Y-220317143D01*
X88205714Y-220174286D01*
X88134285Y-219888571D01*
X88134285Y-219388571D01*
X88205714Y-219102857D01*
X88348571Y-218960000D01*
X88491428Y-218888571D01*
X89634286Y-218888571D02*
X89991429Y-220388571D01*
X90277143Y-219317143D01*
X90562857Y-220388571D01*
X90920000Y-218888571D01*
X91491429Y-219602857D02*
X91991429Y-219602857D01*
X92205715Y-220388571D02*
X91491429Y-220388571D01*
X91491429Y-218888571D01*
X92205715Y-218888571D01*
X93705715Y-220388571D02*
X93205715Y-219674286D01*
X92848572Y-220388571D02*
X92848572Y-218888571D01*
X93420000Y-218888571D01*
X93562858Y-218960000D01*
X93634286Y-219031429D01*
X93705715Y-219174286D01*
X93705715Y-219388571D01*
X93634286Y-219531429D01*
X93562858Y-219602857D01*
X93420000Y-219674286D01*
X92848572Y-219674286D01*
X97115714Y-219960000D02*
X97830000Y-219960000D01*
X96972857Y-220388571D02*
X97472857Y-218888571D01*
X97972857Y-220388571D01*
X98972857Y-219602857D02*
X99187143Y-219674286D01*
X99258571Y-219745714D01*
X99330000Y-219888571D01*
X99330000Y-220102857D01*
X99258571Y-220245714D01*
X99187143Y-220317143D01*
X99044285Y-220388571D01*
X98472857Y-220388571D01*
X98472857Y-218888571D01*
X98972857Y-218888571D01*
X99115714Y-218960000D01*
X99187143Y-219031429D01*
X99258571Y-219174286D01*
X99258571Y-219317143D01*
X99187143Y-219460000D01*
X99115714Y-219531429D01*
X98972857Y-219602857D01*
X98472857Y-219602857D01*
X100258571Y-218888571D02*
X100544285Y-218888571D01*
X100687143Y-218960000D01*
X100830000Y-219102857D01*
X100901428Y-219388571D01*
X100901428Y-219888571D01*
X100830000Y-220174286D01*
X100687143Y-220317143D01*
X100544285Y-220388571D01*
X100258571Y-220388571D01*
X100115714Y-220317143D01*
X99972857Y-220174286D01*
X99901428Y-219888571D01*
X99901428Y-219388571D01*
X99972857Y-219102857D01*
X100115714Y-218960000D01*
X100258571Y-218888571D01*
X102401429Y-220388571D02*
X101901429Y-219674286D01*
X101544286Y-220388571D02*
X101544286Y-218888571D01*
X102115714Y-218888571D01*
X102258572Y-218960000D01*
X102330000Y-219031429D01*
X102401429Y-219174286D01*
X102401429Y-219388571D01*
X102330000Y-219531429D01*
X102258572Y-219602857D01*
X102115714Y-219674286D01*
X101544286Y-219674286D01*
X102830000Y-218888571D02*
X103687143Y-218888571D01*
X103258572Y-220388571D02*
X103258572Y-218888571D01*
X67600000Y-220388571D02*
X67600000Y-218888571D01*
X67600000Y-219602857D02*
X68457143Y-219602857D01*
X68457143Y-220388571D02*
X68457143Y-218888571D01*
X69100000Y-219960000D02*
X69814286Y-219960000D01*
X68957143Y-220388571D02*
X69457143Y-218888571D01*
X69957143Y-220388571D01*
X71171429Y-220388571D02*
X70457143Y-220388571D01*
X70457143Y-218888571D01*
X71457143Y-218888571D02*
X72314286Y-218888571D01*
X71885715Y-220388571D02*
X71885715Y-218888571D01*
X57511429Y-220388571D02*
X57011429Y-219674286D01*
X56654286Y-220388571D02*
X56654286Y-218888571D01*
X57225714Y-218888571D01*
X57368572Y-218960000D01*
X57440000Y-219031429D01*
X57511429Y-219174286D01*
X57511429Y-219388571D01*
X57440000Y-219531429D01*
X57368572Y-219602857D01*
X57225714Y-219674286D01*
X56654286Y-219674286D01*
X58154286Y-219602857D02*
X58654286Y-219602857D01*
X58868572Y-220388571D02*
X58154286Y-220388571D01*
X58154286Y-218888571D01*
X58868572Y-218888571D01*
X59440000Y-220317143D02*
X59654286Y-220388571D01*
X60011429Y-220388571D01*
X60154286Y-220317143D01*
X60225715Y-220245714D01*
X60297143Y-220102857D01*
X60297143Y-219960000D01*
X60225715Y-219817143D01*
X60154286Y-219745714D01*
X60011429Y-219674286D01*
X59725715Y-219602857D01*
X59582857Y-219531429D01*
X59511429Y-219460000D01*
X59440000Y-219317143D01*
X59440000Y-219174286D01*
X59511429Y-219031429D01*
X59582857Y-218960000D01*
X59725715Y-218888571D01*
X60082857Y-218888571D01*
X60297143Y-218960000D01*
X60940000Y-219602857D02*
X61440000Y-219602857D01*
X61654286Y-220388571D02*
X60940000Y-220388571D01*
X60940000Y-218888571D01*
X61654286Y-218888571D01*
X62082857Y-218888571D02*
X62940000Y-218888571D01*
X62511429Y-220388571D02*
X62511429Y-218888571D01*
X43994285Y-220317143D02*
X44208571Y-220388571D01*
X44565714Y-220388571D01*
X44708571Y-220317143D01*
X44780000Y-220245714D01*
X44851428Y-220102857D01*
X44851428Y-219960000D01*
X44780000Y-219817143D01*
X44708571Y-219745714D01*
X44565714Y-219674286D01*
X44280000Y-219602857D01*
X44137142Y-219531429D01*
X44065714Y-219460000D01*
X43994285Y-219317143D01*
X43994285Y-219174286D01*
X44065714Y-219031429D01*
X44137142Y-218960000D01*
X44280000Y-218888571D01*
X44637142Y-218888571D01*
X44851428Y-218960000D01*
X45279999Y-218888571D02*
X46137142Y-218888571D01*
X45708571Y-220388571D02*
X45708571Y-218888571D01*
X46637142Y-219602857D02*
X47137142Y-219602857D01*
X47351428Y-220388571D02*
X46637142Y-220388571D01*
X46637142Y-218888571D01*
X47351428Y-218888571D01*
X47994285Y-220388571D02*
X47994285Y-218888571D01*
X48565713Y-218888571D01*
X48708571Y-218960000D01*
X48779999Y-219031429D01*
X48851428Y-219174286D01*
X48851428Y-219388571D01*
X48779999Y-219531429D01*
X48708571Y-219602857D01*
X48565713Y-219674286D01*
X47994285Y-219674286D01*
X50565713Y-218817143D02*
X49279999Y-220745714D01*
X51922857Y-220388571D02*
X51422857Y-219674286D01*
X51065714Y-220388571D02*
X51065714Y-218888571D01*
X51637142Y-218888571D01*
X51780000Y-218960000D01*
X51851428Y-219031429D01*
X51922857Y-219174286D01*
X51922857Y-219388571D01*
X51851428Y-219531429D01*
X51780000Y-219602857D01*
X51637142Y-219674286D01*
X51065714Y-219674286D01*
X52565714Y-218888571D02*
X52565714Y-220102857D01*
X52637142Y-220245714D01*
X52708571Y-220317143D01*
X52851428Y-220388571D01*
X53137142Y-220388571D01*
X53280000Y-220317143D01*
X53351428Y-220245714D01*
X53422857Y-220102857D01*
X53422857Y-218888571D01*
X54137143Y-220388571D02*
X54137143Y-218888571D01*
X54994286Y-220388571D01*
X54994286Y-218888571D01*
X36941429Y-220317143D02*
X37155715Y-220388571D01*
X37512858Y-220388571D01*
X37655715Y-220317143D01*
X37727144Y-220245714D01*
X37798572Y-220102857D01*
X37798572Y-219960000D01*
X37727144Y-219817143D01*
X37655715Y-219745714D01*
X37512858Y-219674286D01*
X37227144Y-219602857D01*
X37084286Y-219531429D01*
X37012858Y-219460000D01*
X36941429Y-219317143D01*
X36941429Y-219174286D01*
X37012858Y-219031429D01*
X37084286Y-218960000D01*
X37227144Y-218888571D01*
X37584286Y-218888571D01*
X37798572Y-218960000D01*
X38227143Y-218888571D02*
X39084286Y-218888571D01*
X38655715Y-220388571D02*
X38655715Y-218888571D01*
X39584286Y-219602857D02*
X40084286Y-219602857D01*
X40298572Y-220388571D02*
X39584286Y-220388571D01*
X39584286Y-218888571D01*
X40298572Y-218888571D01*
X40941429Y-220388571D02*
X40941429Y-218888571D01*
X41512857Y-218888571D01*
X41655715Y-218960000D01*
X41727143Y-219031429D01*
X41798572Y-219174286D01*
X41798572Y-219388571D01*
X41727143Y-219531429D01*
X41655715Y-219602857D01*
X41512857Y-219674286D01*
X40941429Y-219674286D01*
X67120000Y-17030000D02*
X66977143Y-16958571D01*
X66762857Y-16958571D01*
X66548572Y-17030000D01*
X66405714Y-17172857D01*
X66334286Y-17315714D01*
X66262857Y-17601429D01*
X66262857Y-17815714D01*
X66334286Y-18101429D01*
X66405714Y-18244286D01*
X66548572Y-18387143D01*
X66762857Y-18458571D01*
X66905714Y-18458571D01*
X67120000Y-18387143D01*
X67191429Y-18315714D01*
X67191429Y-17815714D01*
X66905714Y-17815714D01*
X67834286Y-18458571D02*
X67834286Y-16958571D01*
X68691429Y-18458571D01*
X68691429Y-16958571D01*
X69405715Y-18458571D02*
X69405715Y-16958571D01*
X69762858Y-16958571D01*
X69977143Y-17030000D01*
X70120001Y-17172857D01*
X70191429Y-17315714D01*
X70262858Y-17601429D01*
X70262858Y-17815714D01*
X70191429Y-18101429D01*
X70120001Y-18244286D01*
X69977143Y-18387143D01*
X69762858Y-18458571D01*
X69405715Y-18458571D01*
X72048572Y-17887143D02*
X73191429Y-17887143D01*
X72620000Y-18458571D02*
X72620000Y-17315714D01*
X74620001Y-16958571D02*
X73905715Y-16958571D01*
X73834286Y-17672857D01*
X73905715Y-17601429D01*
X74048572Y-17530000D01*
X74405715Y-17530000D01*
X74548572Y-17601429D01*
X74620001Y-17672857D01*
X74691429Y-17815714D01*
X74691429Y-18172857D01*
X74620001Y-18315714D01*
X74548572Y-18387143D01*
X74405715Y-18458571D01*
X74048572Y-18458571D01*
X73905715Y-18387143D01*
X73834286Y-18315714D01*
X75120000Y-16958571D02*
X75620000Y-18458571D01*
X76120000Y-16958571D01*
X105428573Y-208868571D02*
X106285716Y-208868571D01*
X105857145Y-210368571D02*
X105857145Y-208868571D01*
X106714287Y-210297143D02*
X106928573Y-210368571D01*
X107285716Y-210368571D01*
X107428573Y-210297143D01*
X107500002Y-210225714D01*
X107571430Y-210082857D01*
X107571430Y-209940000D01*
X107500002Y-209797143D01*
X107428573Y-209725714D01*
X107285716Y-209654286D01*
X107000002Y-209582857D01*
X106857144Y-209511429D01*
X106785716Y-209440000D01*
X106714287Y-209297143D01*
X106714287Y-209154286D01*
X106785716Y-209011429D01*
X106857144Y-208940000D01*
X107000002Y-208868571D01*
X107357144Y-208868571D01*
X107571430Y-208940000D01*
X108142858Y-209011429D02*
X108214287Y-208940000D01*
X108357144Y-208868571D01*
X108714287Y-208868571D01*
X108857144Y-208940000D01*
X108928573Y-209011429D01*
X109000001Y-209154286D01*
X109000001Y-209297143D01*
X108928573Y-209511429D01*
X108071430Y-210368571D01*
X109000001Y-210368571D01*
X110714286Y-210297143D02*
X110928572Y-210368571D01*
X111285715Y-210368571D01*
X111428572Y-210297143D01*
X111500001Y-210225714D01*
X111571429Y-210082857D01*
X111571429Y-209940000D01*
X111500001Y-209797143D01*
X111428572Y-209725714D01*
X111285715Y-209654286D01*
X111000001Y-209582857D01*
X110857143Y-209511429D01*
X110785715Y-209440000D01*
X110714286Y-209297143D01*
X110714286Y-209154286D01*
X110785715Y-209011429D01*
X110857143Y-208940000D01*
X111000001Y-208868571D01*
X111357143Y-208868571D01*
X111571429Y-208940000D01*
X112214286Y-210368571D02*
X112214286Y-209368571D01*
X112214286Y-208868571D02*
X112142857Y-208940000D01*
X112214286Y-209011429D01*
X112285714Y-208940000D01*
X112214286Y-208868571D01*
X112214286Y-209011429D01*
X112928572Y-209368571D02*
X112928572Y-210368571D01*
X112928572Y-209511429D02*
X113000000Y-209440000D01*
X113142858Y-209368571D01*
X113357143Y-209368571D01*
X113500000Y-209440000D01*
X113571429Y-209582857D01*
X113571429Y-210368571D01*
X114928572Y-209368571D02*
X114928572Y-210582857D01*
X114857143Y-210725714D01*
X114785715Y-210797143D01*
X114642858Y-210868571D01*
X114428572Y-210868571D01*
X114285715Y-210797143D01*
X114928572Y-210297143D02*
X114785715Y-210368571D01*
X114500001Y-210368571D01*
X114357143Y-210297143D01*
X114285715Y-210225714D01*
X114214286Y-210082857D01*
X114214286Y-209654286D01*
X114285715Y-209511429D01*
X114357143Y-209440000D01*
X114500001Y-209368571D01*
X114785715Y-209368571D01*
X114928572Y-209440000D01*
X115857144Y-210368571D02*
X115714286Y-210297143D01*
X115642858Y-210154286D01*
X115642858Y-208868571D01*
X117000000Y-210297143D02*
X116857143Y-210368571D01*
X116571429Y-210368571D01*
X116428572Y-210297143D01*
X116357143Y-210154286D01*
X116357143Y-209582857D01*
X116428572Y-209440000D01*
X116571429Y-209368571D01*
X116857143Y-209368571D01*
X117000000Y-209440000D01*
X117071429Y-209582857D01*
X117071429Y-209725714D01*
X116357143Y-209868571D01*
X119357143Y-209582857D02*
X119571429Y-209654286D01*
X119642857Y-209725714D01*
X119714286Y-209868571D01*
X119714286Y-210082857D01*
X119642857Y-210225714D01*
X119571429Y-210297143D01*
X119428571Y-210368571D01*
X118857143Y-210368571D01*
X118857143Y-208868571D01*
X119357143Y-208868571D01*
X119500000Y-208940000D01*
X119571429Y-209011429D01*
X119642857Y-209154286D01*
X119642857Y-209297143D01*
X119571429Y-209440000D01*
X119500000Y-209511429D01*
X119357143Y-209582857D01*
X118857143Y-209582857D01*
X120571429Y-210368571D02*
X120428571Y-210297143D01*
X120357143Y-210225714D01*
X120285714Y-210082857D01*
X120285714Y-209654286D01*
X120357143Y-209511429D01*
X120428571Y-209440000D01*
X120571429Y-209368571D01*
X120785714Y-209368571D01*
X120928571Y-209440000D01*
X121000000Y-209511429D01*
X121071429Y-209654286D01*
X121071429Y-210082857D01*
X121000000Y-210225714D01*
X120928571Y-210297143D01*
X120785714Y-210368571D01*
X120571429Y-210368571D01*
X122357143Y-210368571D02*
X122357143Y-209582857D01*
X122285714Y-209440000D01*
X122142857Y-209368571D01*
X121857143Y-209368571D01*
X121714286Y-209440000D01*
X122357143Y-210297143D02*
X122214286Y-210368571D01*
X121857143Y-210368571D01*
X121714286Y-210297143D01*
X121642857Y-210154286D01*
X121642857Y-210011429D01*
X121714286Y-209868571D01*
X121857143Y-209797143D01*
X122214286Y-209797143D01*
X122357143Y-209725714D01*
X123071429Y-210368571D02*
X123071429Y-209368571D01*
X123071429Y-209654286D02*
X123142857Y-209511429D01*
X123214286Y-209440000D01*
X123357143Y-209368571D01*
X123500000Y-209368571D01*
X124642857Y-210368571D02*
X124642857Y-208868571D01*
X124642857Y-210297143D02*
X124500000Y-210368571D01*
X124214286Y-210368571D01*
X124071428Y-210297143D01*
X124000000Y-210225714D01*
X123928571Y-210082857D01*
X123928571Y-209654286D01*
X124000000Y-209511429D01*
X124071428Y-209440000D01*
X124214286Y-209368571D01*
X124500000Y-209368571D01*
X124642857Y-209440000D01*
X127357143Y-210225714D02*
X127285714Y-210297143D01*
X127071428Y-210368571D01*
X126928571Y-210368571D01*
X126714286Y-210297143D01*
X126571428Y-210154286D01*
X126500000Y-210011429D01*
X126428571Y-209725714D01*
X126428571Y-209511429D01*
X126500000Y-209225714D01*
X126571428Y-209082857D01*
X126714286Y-208940000D01*
X126928571Y-208868571D01*
X127071428Y-208868571D01*
X127285714Y-208940000D01*
X127357143Y-209011429D01*
X128214286Y-210368571D02*
X128071428Y-210297143D01*
X128000000Y-210225714D01*
X127928571Y-210082857D01*
X127928571Y-209654286D01*
X128000000Y-209511429D01*
X128071428Y-209440000D01*
X128214286Y-209368571D01*
X128428571Y-209368571D01*
X128571428Y-209440000D01*
X128642857Y-209511429D01*
X128714286Y-209654286D01*
X128714286Y-210082857D01*
X128642857Y-210225714D01*
X128571428Y-210297143D01*
X128428571Y-210368571D01*
X128214286Y-210368571D01*
X129357143Y-210368571D02*
X129357143Y-209368571D01*
X129357143Y-209511429D02*
X129428571Y-209440000D01*
X129571429Y-209368571D01*
X129785714Y-209368571D01*
X129928571Y-209440000D01*
X130000000Y-209582857D01*
X130000000Y-210368571D01*
X130000000Y-209582857D02*
X130071429Y-209440000D01*
X130214286Y-209368571D01*
X130428571Y-209368571D01*
X130571429Y-209440000D01*
X130642857Y-209582857D01*
X130642857Y-210368571D01*
X131357143Y-209368571D02*
X131357143Y-210868571D01*
X131357143Y-209440000D02*
X131500000Y-209368571D01*
X131785714Y-209368571D01*
X131928571Y-209440000D01*
X132000000Y-209511429D01*
X132071429Y-209654286D01*
X132071429Y-210082857D01*
X132000000Y-210225714D01*
X131928571Y-210297143D01*
X131785714Y-210368571D01*
X131500000Y-210368571D01*
X131357143Y-210297143D01*
X133357143Y-209368571D02*
X133357143Y-210368571D01*
X132714286Y-209368571D02*
X132714286Y-210154286D01*
X132785714Y-210297143D01*
X132928572Y-210368571D01*
X133142857Y-210368571D01*
X133285714Y-210297143D01*
X133357143Y-210225714D01*
X133857143Y-209368571D02*
X134428572Y-209368571D01*
X134071429Y-208868571D02*
X134071429Y-210154286D01*
X134142857Y-210297143D01*
X134285715Y-210368571D01*
X134428572Y-210368571D01*
X135500000Y-210297143D02*
X135357143Y-210368571D01*
X135071429Y-210368571D01*
X134928572Y-210297143D01*
X134857143Y-210154286D01*
X134857143Y-209582857D01*
X134928572Y-209440000D01*
X135071429Y-209368571D01*
X135357143Y-209368571D01*
X135500000Y-209440000D01*
X135571429Y-209582857D01*
X135571429Y-209725714D01*
X134857143Y-209868571D01*
X136214286Y-210368571D02*
X136214286Y-209368571D01*
X136214286Y-209654286D02*
X136285714Y-209511429D01*
X136357143Y-209440000D01*
X136500000Y-209368571D01*
X136642857Y-209368571D01*
X139142857Y-210368571D02*
X138642857Y-209654286D01*
X138285714Y-210368571D02*
X138285714Y-208868571D01*
X138857142Y-208868571D01*
X139000000Y-208940000D01*
X139071428Y-209011429D01*
X139142857Y-209154286D01*
X139142857Y-209368571D01*
X139071428Y-209511429D01*
X139000000Y-209582857D01*
X138857142Y-209654286D01*
X138285714Y-209654286D01*
X140357142Y-210297143D02*
X140214285Y-210368571D01*
X139928571Y-210368571D01*
X139785714Y-210297143D01*
X139714285Y-210154286D01*
X139714285Y-209582857D01*
X139785714Y-209440000D01*
X139928571Y-209368571D01*
X140214285Y-209368571D01*
X140357142Y-209440000D01*
X140428571Y-209582857D01*
X140428571Y-209725714D01*
X139714285Y-209868571D01*
X140928571Y-209368571D02*
X141285714Y-210368571D01*
X141642856Y-209368571D01*
X143285713Y-209011429D02*
X143357142Y-208940000D01*
X143499999Y-208868571D01*
X143857142Y-208868571D01*
X143999999Y-208940000D01*
X144071428Y-209011429D01*
X144142856Y-209154286D01*
X144142856Y-209297143D01*
X144071428Y-209511429D01*
X143214285Y-210368571D01*
X144142856Y-210368571D01*
X144785713Y-210225714D02*
X144857141Y-210297143D01*
X144785713Y-210368571D01*
X144714284Y-210297143D01*
X144785713Y-210225714D01*
X144785713Y-210368571D01*
X146285713Y-210368571D02*
X145428570Y-210368571D01*
X145857142Y-210368571D02*
X145857142Y-208868571D01*
X145714285Y-209082857D01*
X145571427Y-209225714D01*
X145428570Y-209297143D01*
X146928570Y-210225714D02*
X146999998Y-210297143D01*
X146928570Y-210368571D01*
X146857141Y-210297143D01*
X146928570Y-210225714D01*
X146928570Y-210368571D01*
X148428570Y-210368571D02*
X147571427Y-210368571D01*
X147999999Y-210368571D02*
X147999999Y-208868571D01*
X147857142Y-209082857D01*
X147714284Y-209225714D01*
X147571427Y-209297143D01*
X117285716Y-212625714D02*
X117214287Y-212697143D01*
X117000001Y-212768571D01*
X116857144Y-212768571D01*
X116642859Y-212697143D01*
X116500001Y-212554286D01*
X116428573Y-212411429D01*
X116357144Y-212125714D01*
X116357144Y-211911429D01*
X116428573Y-211625714D01*
X116500001Y-211482857D01*
X116642859Y-211340000D01*
X116857144Y-211268571D01*
X117000001Y-211268571D01*
X117214287Y-211340000D01*
X117285716Y-211411429D01*
X118142859Y-212768571D02*
X118000001Y-212697143D01*
X117928573Y-212625714D01*
X117857144Y-212482857D01*
X117857144Y-212054286D01*
X117928573Y-211911429D01*
X118000001Y-211840000D01*
X118142859Y-211768571D01*
X118357144Y-211768571D01*
X118500001Y-211840000D01*
X118571430Y-211911429D01*
X118642859Y-212054286D01*
X118642859Y-212482857D01*
X118571430Y-212625714D01*
X118500001Y-212697143D01*
X118357144Y-212768571D01*
X118142859Y-212768571D01*
X119285716Y-211768571D02*
X119285716Y-213268571D01*
X119285716Y-211840000D02*
X119428573Y-211768571D01*
X119714287Y-211768571D01*
X119857144Y-211840000D01*
X119928573Y-211911429D01*
X120000002Y-212054286D01*
X120000002Y-212482857D01*
X119928573Y-212625714D01*
X119857144Y-212697143D01*
X119714287Y-212768571D01*
X119428573Y-212768571D01*
X119285716Y-212697143D01*
X120500002Y-211768571D02*
X120857145Y-212768571D01*
X121214287Y-211768571D02*
X120857145Y-212768571D01*
X120714287Y-213125714D01*
X120642859Y-213197143D01*
X120500002Y-213268571D01*
X121785716Y-212768571D02*
X121785716Y-211768571D01*
X121785716Y-212054286D02*
X121857144Y-211911429D01*
X121928573Y-211840000D01*
X122071430Y-211768571D01*
X122214287Y-211768571D01*
X122714287Y-212768571D02*
X122714287Y-211768571D01*
X122714287Y-211268571D02*
X122642858Y-211340000D01*
X122714287Y-211411429D01*
X122785715Y-211340000D01*
X122714287Y-211268571D01*
X122714287Y-211411429D01*
X124071430Y-211768571D02*
X124071430Y-212982857D01*
X124000001Y-213125714D01*
X123928573Y-213197143D01*
X123785716Y-213268571D01*
X123571430Y-213268571D01*
X123428573Y-213197143D01*
X124071430Y-212697143D02*
X123928573Y-212768571D01*
X123642859Y-212768571D01*
X123500001Y-212697143D01*
X123428573Y-212625714D01*
X123357144Y-212482857D01*
X123357144Y-212054286D01*
X123428573Y-211911429D01*
X123500001Y-211840000D01*
X123642859Y-211768571D01*
X123928573Y-211768571D01*
X124071430Y-211840000D01*
X124785716Y-212768571D02*
X124785716Y-211268571D01*
X125428573Y-212768571D02*
X125428573Y-211982857D01*
X125357144Y-211840000D01*
X125214287Y-211768571D01*
X125000002Y-211768571D01*
X124857144Y-211840000D01*
X124785716Y-211911429D01*
X125928573Y-211768571D02*
X126500002Y-211768571D01*
X126142859Y-211268571D02*
X126142859Y-212554286D01*
X126214287Y-212697143D01*
X126357145Y-212768571D01*
X126500002Y-212768571D01*
X128571430Y-213340000D02*
X128500002Y-213268571D01*
X128357145Y-213054286D01*
X128285716Y-212911429D01*
X128214287Y-212697143D01*
X128142859Y-212340000D01*
X128142859Y-212054286D01*
X128214287Y-211697143D01*
X128285716Y-211482857D01*
X128357145Y-211340000D01*
X128500002Y-211125714D01*
X128571430Y-211054286D01*
X129785716Y-212697143D02*
X129642859Y-212768571D01*
X129357145Y-212768571D01*
X129214287Y-212697143D01*
X129142859Y-212625714D01*
X129071430Y-212482857D01*
X129071430Y-212054286D01*
X129142859Y-211911429D01*
X129214287Y-211840000D01*
X129357145Y-211768571D01*
X129642859Y-211768571D01*
X129785716Y-211840000D01*
X130285716Y-213340000D02*
X130357144Y-213268571D01*
X130500001Y-213054286D01*
X130571430Y-212911429D01*
X130642859Y-212697143D01*
X130714287Y-212340000D01*
X130714287Y-212054286D01*
X130642859Y-211697143D01*
X130571430Y-211482857D01*
X130500001Y-211340000D01*
X130357144Y-211125714D01*
X130285716Y-211054286D01*
X132500001Y-211411429D02*
X132571430Y-211340000D01*
X132714287Y-211268571D01*
X133071430Y-211268571D01*
X133214287Y-211340000D01*
X133285716Y-211411429D01*
X133357144Y-211554286D01*
X133357144Y-211697143D01*
X133285716Y-211911429D01*
X132428573Y-212768571D01*
X133357144Y-212768571D01*
X134285715Y-211268571D02*
X134428572Y-211268571D01*
X134571429Y-211340000D01*
X134642858Y-211411429D01*
X134714287Y-211554286D01*
X134785715Y-211840000D01*
X134785715Y-212197143D01*
X134714287Y-212482857D01*
X134642858Y-212625714D01*
X134571429Y-212697143D01*
X134428572Y-212768571D01*
X134285715Y-212768571D01*
X134142858Y-212697143D01*
X134071429Y-212625714D01*
X134000001Y-212482857D01*
X133928572Y-212197143D01*
X133928572Y-211840000D01*
X134000001Y-211554286D01*
X134071429Y-211411429D01*
X134142858Y-211340000D01*
X134285715Y-211268571D01*
X136214286Y-212768571D02*
X135357143Y-212768571D01*
X135785715Y-212768571D02*
X135785715Y-211268571D01*
X135642858Y-211482857D01*
X135500000Y-211625714D01*
X135357143Y-211697143D01*
X136714286Y-211268571D02*
X137714286Y-211268571D01*
X137071429Y-212768571D01*
X108035715Y-213668571D02*
X108035715Y-214740000D01*
X107964287Y-214954286D01*
X107821430Y-215097143D01*
X107607144Y-215168571D01*
X107464287Y-215168571D01*
X109321429Y-215097143D02*
X109178572Y-215168571D01*
X108892858Y-215168571D01*
X108750001Y-215097143D01*
X108678572Y-214954286D01*
X108678572Y-214382857D01*
X108750001Y-214240000D01*
X108892858Y-214168571D01*
X109178572Y-214168571D01*
X109321429Y-214240000D01*
X109392858Y-214382857D01*
X109392858Y-214525714D01*
X108678572Y-214668571D01*
X109821429Y-214168571D02*
X110392858Y-214168571D01*
X110035715Y-215168571D02*
X110035715Y-213882857D01*
X110107143Y-213740000D01*
X110250001Y-213668571D01*
X110392858Y-213668571D01*
X110678572Y-214168571D02*
X111250001Y-214168571D01*
X110892858Y-215168571D02*
X110892858Y-213882857D01*
X110964286Y-213740000D01*
X111107144Y-213668571D01*
X111250001Y-213668571D01*
X112678572Y-213668571D02*
X113535715Y-213668571D01*
X113107144Y-215168571D02*
X113107144Y-213668571D01*
X114035715Y-215168571D02*
X114035715Y-214168571D01*
X114035715Y-214454286D02*
X114107143Y-214311429D01*
X114178572Y-214240000D01*
X114321429Y-214168571D01*
X114464286Y-214168571D01*
X115607143Y-215168571D02*
X115607143Y-214382857D01*
X115535714Y-214240000D01*
X115392857Y-214168571D01*
X115107143Y-214168571D01*
X114964286Y-214240000D01*
X115607143Y-215097143D02*
X115464286Y-215168571D01*
X115107143Y-215168571D01*
X114964286Y-215097143D01*
X114892857Y-214954286D01*
X114892857Y-214811429D01*
X114964286Y-214668571D01*
X115107143Y-214597143D01*
X115464286Y-214597143D01*
X115607143Y-214525714D01*
X116321429Y-214168571D02*
X116321429Y-215168571D01*
X116321429Y-214311429D02*
X116392857Y-214240000D01*
X116535715Y-214168571D01*
X116750000Y-214168571D01*
X116892857Y-214240000D01*
X116964286Y-214382857D01*
X116964286Y-215168571D01*
X117464286Y-214168571D02*
X118035715Y-214168571D01*
X117678572Y-213668571D02*
X117678572Y-214954286D01*
X117750000Y-215097143D01*
X117892858Y-215168571D01*
X118035715Y-215168571D01*
X119107143Y-215097143D02*
X118964286Y-215168571D01*
X118678572Y-215168571D01*
X118535715Y-215097143D01*
X118464286Y-214954286D01*
X118464286Y-214382857D01*
X118535715Y-214240000D01*
X118678572Y-214168571D01*
X118964286Y-214168571D01*
X119107143Y-214240000D01*
X119178572Y-214382857D01*
X119178572Y-214525714D01*
X118464286Y-214668571D01*
X119821429Y-215168571D02*
X119821429Y-214168571D01*
X119821429Y-214454286D02*
X119892857Y-214311429D01*
X119964286Y-214240000D01*
X120107143Y-214168571D01*
X120250000Y-214168571D01*
X123035714Y-214168571D02*
X121892857Y-214597143D01*
X123035714Y-215025714D01*
X123535714Y-214168571D02*
X124107143Y-214168571D01*
X123750000Y-213668571D02*
X123750000Y-214954286D01*
X123821428Y-215097143D01*
X123964286Y-215168571D01*
X124107143Y-215168571D01*
X124607143Y-215168571D02*
X124607143Y-214168571D01*
X124607143Y-214454286D02*
X124678571Y-214311429D01*
X124750000Y-214240000D01*
X124892857Y-214168571D01*
X125035714Y-214168571D01*
X126178571Y-215168571D02*
X126178571Y-214382857D01*
X126107142Y-214240000D01*
X125964285Y-214168571D01*
X125678571Y-214168571D01*
X125535714Y-214240000D01*
X126178571Y-215097143D02*
X126035714Y-215168571D01*
X125678571Y-215168571D01*
X125535714Y-215097143D01*
X125464285Y-214954286D01*
X125464285Y-214811429D01*
X125535714Y-214668571D01*
X125678571Y-214597143D01*
X126035714Y-214597143D01*
X126178571Y-214525714D01*
X126892857Y-214168571D02*
X126892857Y-215168571D01*
X126892857Y-214311429D02*
X126964285Y-214240000D01*
X127107143Y-214168571D01*
X127321428Y-214168571D01*
X127464285Y-214240000D01*
X127535714Y-214382857D01*
X127535714Y-215168571D01*
X128035714Y-214168571D02*
X128607143Y-214168571D01*
X128250000Y-213668571D02*
X128250000Y-214954286D01*
X128321428Y-215097143D01*
X128464286Y-215168571D01*
X128607143Y-215168571D01*
X129678571Y-215097143D02*
X129535714Y-215168571D01*
X129250000Y-215168571D01*
X129107143Y-215097143D01*
X129035714Y-214954286D01*
X129035714Y-214382857D01*
X129107143Y-214240000D01*
X129250000Y-214168571D01*
X129535714Y-214168571D01*
X129678571Y-214240000D01*
X129750000Y-214382857D01*
X129750000Y-214525714D01*
X129035714Y-214668571D01*
X130392857Y-215168571D02*
X130392857Y-214168571D01*
X130392857Y-214454286D02*
X130464285Y-214311429D01*
X130535714Y-214240000D01*
X130678571Y-214168571D01*
X130821428Y-214168571D01*
X132249999Y-214454286D02*
X132178571Y-214382857D01*
X132035714Y-214311429D01*
X131892856Y-214311429D01*
X131749999Y-214382857D01*
X131678571Y-214454286D01*
X131607142Y-214597143D01*
X131607142Y-214740000D01*
X131678571Y-214882857D01*
X131749999Y-214954286D01*
X131892856Y-215025714D01*
X132035714Y-215025714D01*
X132178571Y-214954286D01*
X132249999Y-214882857D01*
X132249999Y-214311429D02*
X132249999Y-214882857D01*
X132321428Y-214954286D01*
X132392856Y-214954286D01*
X132535714Y-214882857D01*
X132607142Y-214740000D01*
X132607142Y-214382857D01*
X132464285Y-214168571D01*
X132249999Y-214025714D01*
X131964285Y-213954286D01*
X131678571Y-214025714D01*
X131464285Y-214168571D01*
X131321428Y-214382857D01*
X131249999Y-214668571D01*
X131321428Y-214954286D01*
X131464285Y-215168571D01*
X131678571Y-215311429D01*
X131964285Y-215382857D01*
X132249999Y-215311429D01*
X132464285Y-215168571D01*
X133249999Y-214168571D02*
X133249999Y-215668571D01*
X133249999Y-214240000D02*
X133392856Y-214168571D01*
X133678570Y-214168571D01*
X133821427Y-214240000D01*
X133892856Y-214311429D01*
X133964285Y-214454286D01*
X133964285Y-214882857D01*
X133892856Y-215025714D01*
X133821427Y-215097143D01*
X133678570Y-215168571D01*
X133392856Y-215168571D01*
X133249999Y-215097143D01*
X134821428Y-215168571D02*
X134678570Y-215097143D01*
X134607142Y-215025714D01*
X134535713Y-214882857D01*
X134535713Y-214454286D01*
X134607142Y-214311429D01*
X134678570Y-214240000D01*
X134821428Y-214168571D01*
X135035713Y-214168571D01*
X135178570Y-214240000D01*
X135249999Y-214311429D01*
X135321428Y-214454286D01*
X135321428Y-214882857D01*
X135249999Y-215025714D01*
X135178570Y-215097143D01*
X135035713Y-215168571D01*
X134821428Y-215168571D01*
X135964285Y-215168571D02*
X135964285Y-213668571D01*
X135964285Y-214240000D02*
X136107142Y-214168571D01*
X136392856Y-214168571D01*
X136535713Y-214240000D01*
X136607142Y-214311429D01*
X136678571Y-214454286D01*
X136678571Y-214882857D01*
X136607142Y-215025714D01*
X136535713Y-215097143D01*
X136392856Y-215168571D01*
X136107142Y-215168571D01*
X135964285Y-215097143D01*
X137535714Y-215168571D02*
X137392856Y-215097143D01*
X137321428Y-215025714D01*
X137249999Y-214882857D01*
X137249999Y-214454286D01*
X137321428Y-214311429D01*
X137392856Y-214240000D01*
X137535714Y-214168571D01*
X137749999Y-214168571D01*
X137892856Y-214240000D01*
X137964285Y-214311429D01*
X138035714Y-214454286D01*
X138035714Y-214882857D01*
X137964285Y-215025714D01*
X137892856Y-215097143D01*
X137749999Y-215168571D01*
X137535714Y-215168571D01*
X138535714Y-215168571D02*
X139321428Y-214168571D01*
X138535714Y-214168571D02*
X139321428Y-215168571D01*
X139892857Y-215025714D02*
X139964285Y-215097143D01*
X139892857Y-215168571D01*
X139821428Y-215097143D01*
X139892857Y-215025714D01*
X139892857Y-215168571D01*
X141250000Y-215097143D02*
X141107143Y-215168571D01*
X140821429Y-215168571D01*
X140678571Y-215097143D01*
X140607143Y-215025714D01*
X140535714Y-214882857D01*
X140535714Y-214454286D01*
X140607143Y-214311429D01*
X140678571Y-214240000D01*
X140821429Y-214168571D01*
X141107143Y-214168571D01*
X141250000Y-214240000D01*
X142107143Y-215168571D02*
X141964285Y-215097143D01*
X141892857Y-215025714D01*
X141821428Y-214882857D01*
X141821428Y-214454286D01*
X141892857Y-214311429D01*
X141964285Y-214240000D01*
X142107143Y-214168571D01*
X142321428Y-214168571D01*
X142464285Y-214240000D01*
X142535714Y-214311429D01*
X142607143Y-214454286D01*
X142607143Y-214882857D01*
X142535714Y-215025714D01*
X142464285Y-215097143D01*
X142321428Y-215168571D01*
X142107143Y-215168571D01*
X143250000Y-215168571D02*
X143250000Y-214168571D01*
X143250000Y-214311429D02*
X143321428Y-214240000D01*
X143464286Y-214168571D01*
X143678571Y-214168571D01*
X143821428Y-214240000D01*
X143892857Y-214382857D01*
X143892857Y-215168571D01*
X143892857Y-214382857D02*
X143964286Y-214240000D01*
X144107143Y-214168571D01*
X144321428Y-214168571D01*
X144464286Y-214240000D01*
X144535714Y-214382857D01*
X144535714Y-215168571D01*
X145250000Y-214168571D02*
X146392857Y-214597143D01*
X145250000Y-215025714D01*
D12*
X50546520Y-22857460D02*
X51943520Y-22857460D01*
X46101520Y-22857460D02*
X44577520Y-22857460D01*
X46482520Y-22095460D02*
X46482520Y-23619460D01*
X46228520Y-22095460D02*
X46228520Y-23619460D01*
X45974520Y-22857460D02*
X45974520Y-23619460D01*
X45974520Y-23619460D02*
X50546520Y-23619460D01*
X50546520Y-23619460D02*
X50546520Y-22095460D01*
X50546520Y-22095460D02*
X45974520Y-22095460D01*
X45974520Y-22095460D02*
X45974520Y-22857460D01*
X53090000Y-163850000D02*
X56090000Y-163850000D01*
X56090000Y-166350000D02*
X53090000Y-166350000D01*
X58170000Y-163850000D02*
X61170000Y-163850000D01*
X61170000Y-166350000D02*
X58170000Y-166350000D01*
X51215000Y-167930000D02*
X63215000Y-167930000D01*
X63215000Y-167930000D02*
X63215000Y-172430000D01*
X63215000Y-172430000D02*
X51215000Y-172430000D01*
X51215000Y-172430000D02*
X51215000Y-167930000D01*
X59635000Y-25359000D02*
X59635000Y-20361000D01*
X59495000Y-25351000D02*
X59495000Y-20369000D01*
X59355000Y-25335000D02*
X59355000Y-22955000D01*
X59355000Y-22765000D02*
X59355000Y-20385000D01*
X59215000Y-25311000D02*
X59215000Y-23350000D01*
X59215000Y-22370000D02*
X59215000Y-20409000D01*
X59075000Y-25278000D02*
X59075000Y-23517000D01*
X59075000Y-22203000D02*
X59075000Y-20442000D01*
X58935000Y-25237000D02*
X58935000Y-23624000D01*
X58935000Y-22096000D02*
X58935000Y-20483000D01*
X58795000Y-25187000D02*
X58795000Y-23695000D01*
X58795000Y-22025000D02*
X58795000Y-20533000D01*
X58655000Y-25126000D02*
X58655000Y-23739000D01*
X58655000Y-21981000D02*
X58655000Y-20594000D01*
X58515000Y-25056000D02*
X58515000Y-23758000D01*
X58515000Y-21962000D02*
X58515000Y-20664000D01*
X58375000Y-24974000D02*
X58375000Y-23756000D01*
X58375000Y-21964000D02*
X58375000Y-20746000D01*
X58235000Y-24879000D02*
X58235000Y-23731000D01*
X58235000Y-21989000D02*
X58235000Y-20841000D01*
X58095000Y-24768000D02*
X58095000Y-23683000D01*
X58095000Y-22037000D02*
X58095000Y-20952000D01*
X57955000Y-24640000D02*
X57955000Y-23605000D01*
X57955000Y-22115000D02*
X57955000Y-21080000D01*
X57815000Y-24491000D02*
X57815000Y-23488000D01*
X57815000Y-22232000D02*
X57815000Y-21229000D01*
X57675000Y-24312000D02*
X57675000Y-23300000D01*
X57675000Y-22420000D02*
X57675000Y-21408000D01*
X57535000Y-24093000D02*
X57535000Y-21627000D01*
X57395000Y-23804000D02*
X57395000Y-21916000D01*
X57255000Y-23332000D02*
X57255000Y-22388000D01*
X59360000Y-22860000D02*
G75*
G03X59360000Y-22860000I-900000J0D01*
G01*
X62247500Y-22860000D02*
G75*
G03X62247500Y-22860000I-2537500J0D01*
G01*
X37080000Y-34270000D02*
X34080000Y-34270000D01*
X34080000Y-31770000D02*
X37080000Y-31770000D01*
X57400000Y-34270000D02*
X54400000Y-34270000D01*
X54400000Y-31770000D02*
X57400000Y-31770000D01*
X78490000Y-31770000D02*
X81490000Y-31770000D01*
X81490000Y-34270000D02*
X78490000Y-34270000D01*
X105660000Y-34270000D02*
X102660000Y-34270000D01*
X102660000Y-31770000D02*
X105660000Y-31770000D01*
X125980000Y-34270000D02*
X122980000Y-34270000D01*
X122980000Y-31770000D02*
X125980000Y-31770000D01*
X122170000Y-151110000D02*
X119170000Y-151110000D01*
X119170000Y-148610000D02*
X122170000Y-148610000D01*
X37080000Y-79990000D02*
X34080000Y-79990000D01*
X34080000Y-77490000D02*
X37080000Y-77490000D01*
X57400000Y-79990000D02*
X54400000Y-79990000D01*
X54400000Y-77490000D02*
X57400000Y-77490000D01*
X104390000Y-79990000D02*
X101390000Y-79990000D01*
X101390000Y-77490000D02*
X104390000Y-77490000D01*
X125980000Y-79990000D02*
X122980000Y-79990000D01*
X122980000Y-77490000D02*
X125980000Y-77490000D01*
X146300000Y-34270000D02*
X143300000Y-34270000D01*
X143300000Y-31770000D02*
X146300000Y-31770000D01*
X134870000Y-151110000D02*
X131870000Y-151110000D01*
X131870000Y-148610000D02*
X134870000Y-148610000D01*
X147570000Y-181590000D02*
X144570000Y-181590000D01*
X144570000Y-179090000D02*
X147570000Y-179090000D01*
X45970000Y-123170000D02*
X42970000Y-123170000D01*
X42970000Y-120670000D02*
X45970000Y-120670000D01*
X58670000Y-123170000D02*
X55670000Y-123170000D01*
X55670000Y-120670000D02*
X58670000Y-120670000D01*
X71370000Y-123170000D02*
X68370000Y-123170000D01*
X68370000Y-120670000D02*
X71370000Y-120670000D01*
X134870000Y-123170000D02*
X131870000Y-123170000D01*
X131870000Y-120670000D02*
X134870000Y-120670000D01*
X122170000Y-123170000D02*
X119170000Y-123170000D01*
X119170000Y-120670000D02*
X122170000Y-120670000D01*
X96770000Y-123170000D02*
X93770000Y-123170000D01*
X93770000Y-120670000D02*
X96770000Y-120670000D01*
X109470000Y-123170000D02*
X106470000Y-123170000D01*
X106470000Y-120670000D02*
X109470000Y-120670000D01*
X33270000Y-151110000D02*
X30270000Y-151110000D01*
X30270000Y-148610000D02*
X33270000Y-148610000D01*
X45970000Y-151110000D02*
X42970000Y-151110000D01*
X42970000Y-148610000D02*
X45970000Y-148610000D01*
X96770000Y-151110000D02*
X93770000Y-151110000D01*
X93770000Y-148610000D02*
X96770000Y-148610000D01*
X71370000Y-151110000D02*
X68370000Y-151110000D01*
X68370000Y-148610000D02*
X71370000Y-148610000D01*
X84070000Y-151110000D02*
X81070000Y-151110000D01*
X81070000Y-148610000D02*
X84070000Y-148610000D01*
X146300000Y-79990000D02*
X143300000Y-79990000D01*
X143300000Y-77490000D02*
X146300000Y-77490000D01*
X33270000Y-181590000D02*
X30270000Y-181590000D01*
X30270000Y-179090000D02*
X33270000Y-179090000D01*
X45970000Y-181590000D02*
X42970000Y-181590000D01*
X42970000Y-179090000D02*
X45970000Y-179090000D01*
X58670000Y-181590000D02*
X55670000Y-181590000D01*
X55670000Y-179090000D02*
X58670000Y-179090000D01*
X71370000Y-181590000D02*
X68370000Y-181590000D01*
X68370000Y-179090000D02*
X71370000Y-179090000D01*
X84070000Y-181590000D02*
X81070000Y-181590000D01*
X81070000Y-179090000D02*
X84070000Y-179090000D01*
X96770000Y-181590000D02*
X93770000Y-181590000D01*
X93770000Y-179090000D02*
X96770000Y-179090000D01*
X109470000Y-181590000D02*
X106470000Y-181590000D01*
X106470000Y-179090000D02*
X109470000Y-179090000D01*
X122170000Y-181590000D02*
X119170000Y-181590000D01*
X119170000Y-179090000D02*
X122170000Y-179090000D01*
X72390000Y-213360000D02*
X67310000Y-213360000D01*
X72390000Y-217805000D02*
X67310000Y-217805000D01*
X67310000Y-211455000D02*
X72390000Y-211455000D01*
X67310000Y-211455000D02*
X67310000Y-217805000D01*
X72390000Y-211455000D02*
X72390000Y-217805000D01*
X92710000Y-213360000D02*
X87630000Y-213360000D01*
X92710000Y-217805000D02*
X87630000Y-217805000D01*
X87630000Y-211455000D02*
X92710000Y-211455000D01*
X87630000Y-211455000D02*
X87630000Y-217805000D01*
X92710000Y-211455000D02*
X92710000Y-217805000D01*
X92710000Y-26035000D02*
X100330000Y-26035000D01*
X92710000Y-21590000D02*
X100330000Y-21590000D01*
X92710000Y-19685000D02*
X100330000Y-19685000D01*
X85090000Y-19685000D02*
X85090000Y-26035000D01*
X100330000Y-19685000D02*
X100330000Y-26035000D01*
X92710000Y-21590000D02*
X85090000Y-21590000D01*
X85090000Y-19685000D02*
X92710000Y-19685000D01*
X92710000Y-26035000D02*
X85090000Y-26035000D01*
X120650000Y-26035000D02*
X128270000Y-26035000D01*
X120650000Y-21590000D02*
X128270000Y-21590000D01*
X120650000Y-19685000D02*
X128270000Y-19685000D01*
X113030000Y-19685000D02*
X113030000Y-26035000D01*
X128270000Y-19685000D02*
X128270000Y-26035000D01*
X120650000Y-21590000D02*
X113030000Y-21590000D01*
X113030000Y-19685000D02*
X120650000Y-19685000D01*
X120650000Y-26035000D02*
X113030000Y-26035000D01*
X73660000Y-21590000D02*
X68580000Y-21590000D01*
X73660000Y-26035000D02*
X68580000Y-26035000D01*
X68580000Y-19685000D02*
X73660000Y-19685000D01*
X68580000Y-19685000D02*
X68580000Y-26035000D01*
X73660000Y-19685000D02*
X73660000Y-26035000D01*
X59690000Y-156210000D02*
X54610000Y-156210000D01*
X54610000Y-156210000D02*
X54610000Y-153670000D01*
X54610000Y-153670000D02*
X59690000Y-153670000D01*
X59690000Y-153670000D02*
X59690000Y-156210000D01*
X54610000Y-158750000D02*
X59690000Y-158750000D01*
X59690000Y-158750000D02*
X59690000Y-161290000D01*
X59690000Y-161290000D02*
X54610000Y-161290000D01*
X54610000Y-161290000D02*
X54610000Y-158750000D01*
X71120000Y-205740000D02*
X76200000Y-205740000D01*
X76200000Y-205740000D02*
X76200000Y-208280000D01*
X76200000Y-208280000D02*
X71120000Y-208280000D01*
X71120000Y-208280000D02*
X71120000Y-205740000D01*
X146050000Y-138430000D02*
X146050000Y-133350000D01*
X146050000Y-133350000D02*
X148590000Y-133350000D01*
X148590000Y-133350000D02*
X148590000Y-138430000D01*
X148590000Y-138430000D02*
X146050000Y-138430000D01*
X93980000Y-205740000D02*
X99060000Y-205740000D01*
X99060000Y-205740000D02*
X99060000Y-208280000D01*
X99060000Y-208280000D02*
X93980000Y-208280000D01*
X93980000Y-208280000D02*
X93980000Y-205740000D01*
X111760000Y-152400000D02*
X114300000Y-152400000D01*
X114300000Y-152400000D02*
X114300000Y-175260000D01*
X114300000Y-175260000D02*
X111760000Y-175260000D01*
X111760000Y-152400000D02*
X111760000Y-175260000D01*
X111760000Y-172720000D02*
X114300000Y-172720000D01*
X87630000Y-146050000D02*
X85090000Y-146050000D01*
X85090000Y-146050000D02*
X85090000Y-123190000D01*
X85090000Y-123190000D02*
X87630000Y-123190000D01*
X87630000Y-146050000D02*
X87630000Y-123190000D01*
X87630000Y-125730000D02*
X85090000Y-125730000D01*
X83820000Y-146050000D02*
X81280000Y-146050000D01*
X81280000Y-146050000D02*
X81280000Y-123190000D01*
X81280000Y-123190000D02*
X83820000Y-123190000D01*
X83820000Y-146050000D02*
X83820000Y-123190000D01*
X83820000Y-125730000D02*
X81280000Y-125730000D01*
X80010000Y-146050000D02*
X77470000Y-146050000D01*
X77470000Y-146050000D02*
X77470000Y-123190000D01*
X77470000Y-123190000D02*
X80010000Y-123190000D01*
X80010000Y-146050000D02*
X80010000Y-123190000D01*
X80010000Y-125730000D02*
X77470000Y-125730000D01*
X55880000Y-211455000D02*
X55880000Y-217805000D01*
X63500000Y-211455000D02*
X63500000Y-217805000D01*
X63500000Y-213360000D02*
X55880000Y-213360000D01*
X55880000Y-211455000D02*
X63500000Y-211455000D01*
X63500000Y-217805000D02*
X55880000Y-217805000D01*
X45720000Y-211455000D02*
X45720000Y-217805000D01*
X53340000Y-211455000D02*
X53340000Y-217805000D01*
X53340000Y-213360000D02*
X45720000Y-213360000D01*
X45720000Y-211455000D02*
X53340000Y-211455000D01*
X53340000Y-217805000D02*
X45720000Y-217805000D01*
X35560000Y-211455000D02*
X35560000Y-217805000D01*
X43180000Y-211455000D02*
X43180000Y-217805000D01*
X43180000Y-213360000D02*
X35560000Y-213360000D01*
X35560000Y-211455000D02*
X43180000Y-211455000D01*
X43180000Y-217805000D02*
X35560000Y-217805000D01*
X96520000Y-211455000D02*
X96520000Y-217805000D01*
X104140000Y-211455000D02*
X104140000Y-217805000D01*
X104140000Y-213360000D02*
X96520000Y-213360000D01*
X96520000Y-211455000D02*
X104140000Y-211455000D01*
X104140000Y-217805000D02*
X96520000Y-217805000D01*
X76200000Y-211455000D02*
X76200000Y-217805000D01*
X83820000Y-211455000D02*
X83820000Y-217805000D01*
X83820000Y-213360000D02*
X76200000Y-213360000D01*
X76200000Y-211455000D02*
X83820000Y-211455000D01*
X83820000Y-217805000D02*
X76200000Y-217805000D01*
X40775000Y-152645000D02*
X40775000Y-153915000D01*
X48125000Y-152645000D02*
X48125000Y-153915000D01*
X48125000Y-164855000D02*
X48125000Y-163585000D01*
X40775000Y-164855000D02*
X40775000Y-163585000D01*
X40775000Y-152645000D02*
X48125000Y-152645000D01*
X40775000Y-164855000D02*
X48125000Y-164855000D01*
X40775000Y-153915000D02*
X39840000Y-153915000D01*
X28075000Y-124705000D02*
X28075000Y-125975000D01*
X35425000Y-124705000D02*
X35425000Y-125975000D01*
X35425000Y-144535000D02*
X35425000Y-143265000D01*
X28075000Y-144535000D02*
X28075000Y-143265000D01*
X28075000Y-124705000D02*
X35425000Y-124705000D01*
X28075000Y-144535000D02*
X35425000Y-144535000D01*
X28075000Y-125975000D02*
X27140000Y-125975000D01*
X40775000Y-124705000D02*
X40775000Y-125975000D01*
X48125000Y-124705000D02*
X48125000Y-125975000D01*
X48125000Y-144535000D02*
X48125000Y-143265000D01*
X40775000Y-144535000D02*
X40775000Y-143265000D01*
X40775000Y-124705000D02*
X48125000Y-124705000D01*
X40775000Y-144535000D02*
X48125000Y-144535000D01*
X40775000Y-125975000D02*
X39840000Y-125975000D01*
X28075000Y-183125000D02*
X28075000Y-184395000D01*
X35425000Y-183125000D02*
X35425000Y-184395000D01*
X35425000Y-202955000D02*
X35425000Y-201685000D01*
X28075000Y-202955000D02*
X28075000Y-201685000D01*
X28075000Y-183125000D02*
X35425000Y-183125000D01*
X28075000Y-202955000D02*
X35425000Y-202955000D01*
X28075000Y-184395000D02*
X27140000Y-184395000D01*
X28075000Y-152645000D02*
X28075000Y-153915000D01*
X35425000Y-152645000D02*
X35425000Y-153915000D01*
X35425000Y-172475000D02*
X35425000Y-171205000D01*
X28075000Y-172475000D02*
X28075000Y-171205000D01*
X28075000Y-152645000D02*
X35425000Y-152645000D01*
X28075000Y-172475000D02*
X35425000Y-172475000D01*
X28075000Y-153915000D02*
X27140000Y-153915000D01*
X53475000Y-124705000D02*
X53475000Y-125975000D01*
X60825000Y-124705000D02*
X60825000Y-125975000D01*
X60825000Y-144535000D02*
X60825000Y-143265000D01*
X53475000Y-144535000D02*
X53475000Y-143265000D01*
X53475000Y-124705000D02*
X60825000Y-124705000D01*
X53475000Y-144535000D02*
X60825000Y-144535000D01*
X53475000Y-125975000D02*
X52540000Y-125975000D01*
X66175000Y-152645000D02*
X66175000Y-153915000D01*
X73525000Y-152645000D02*
X73525000Y-153915000D01*
X73525000Y-172475000D02*
X73525000Y-171205000D01*
X66175000Y-172475000D02*
X66175000Y-171205000D01*
X66175000Y-152645000D02*
X73525000Y-152645000D01*
X66175000Y-172475000D02*
X73525000Y-172475000D01*
X66175000Y-153915000D02*
X65240000Y-153915000D01*
X53475000Y-183125000D02*
X53475000Y-184395000D01*
X60825000Y-183125000D02*
X60825000Y-184395000D01*
X60825000Y-202955000D02*
X60825000Y-201685000D01*
X53475000Y-202955000D02*
X53475000Y-201685000D01*
X53475000Y-183125000D02*
X60825000Y-183125000D01*
X53475000Y-202955000D02*
X60825000Y-202955000D01*
X53475000Y-184395000D02*
X52540000Y-184395000D01*
X66175000Y-183125000D02*
X66175000Y-184395000D01*
X73525000Y-183125000D02*
X73525000Y-184395000D01*
X73525000Y-202955000D02*
X73525000Y-201685000D01*
X66175000Y-202955000D02*
X66175000Y-201685000D01*
X66175000Y-183125000D02*
X73525000Y-183125000D01*
X66175000Y-202955000D02*
X73525000Y-202955000D01*
X66175000Y-184395000D02*
X65240000Y-184395000D01*
X78875000Y-183125000D02*
X78875000Y-184395000D01*
X86225000Y-183125000D02*
X86225000Y-184395000D01*
X86225000Y-202955000D02*
X86225000Y-201685000D01*
X78875000Y-202955000D02*
X78875000Y-201685000D01*
X78875000Y-183125000D02*
X86225000Y-183125000D01*
X78875000Y-202955000D02*
X86225000Y-202955000D01*
X78875000Y-184395000D02*
X77940000Y-184395000D01*
X91575000Y-183125000D02*
X91575000Y-184395000D01*
X98925000Y-183125000D02*
X98925000Y-184395000D01*
X98925000Y-202955000D02*
X98925000Y-201685000D01*
X91575000Y-202955000D02*
X91575000Y-201685000D01*
X91575000Y-183125000D02*
X98925000Y-183125000D01*
X91575000Y-202955000D02*
X98925000Y-202955000D01*
X91575000Y-184395000D02*
X90640000Y-184395000D01*
X104275000Y-124705000D02*
X104275000Y-125975000D01*
X111625000Y-124705000D02*
X111625000Y-125975000D01*
X111625000Y-147075000D02*
X111625000Y-145805000D01*
X104275000Y-147075000D02*
X104275000Y-145805000D01*
X104275000Y-124705000D02*
X111625000Y-124705000D01*
X104275000Y-147075000D02*
X111625000Y-147075000D01*
X104275000Y-125975000D02*
X103340000Y-125975000D01*
X91575000Y-152645000D02*
X91575000Y-153915000D01*
X98925000Y-152645000D02*
X98925000Y-153915000D01*
X98925000Y-175015000D02*
X98925000Y-173745000D01*
X91575000Y-175015000D02*
X91575000Y-173745000D01*
X91575000Y-152645000D02*
X98925000Y-152645000D01*
X91575000Y-175015000D02*
X98925000Y-175015000D01*
X91575000Y-153915000D02*
X90640000Y-153915000D01*
X104275000Y-183125000D02*
X104275000Y-184395000D01*
X111625000Y-183125000D02*
X111625000Y-184395000D01*
X111625000Y-202955000D02*
X111625000Y-201685000D01*
X104275000Y-202955000D02*
X104275000Y-201685000D01*
X104275000Y-183125000D02*
X111625000Y-183125000D01*
X104275000Y-202955000D02*
X111625000Y-202955000D01*
X104275000Y-184395000D02*
X103340000Y-184395000D01*
X91575000Y-124705000D02*
X91575000Y-125975000D01*
X98925000Y-124705000D02*
X98925000Y-125975000D01*
X98925000Y-144535000D02*
X98925000Y-143265000D01*
X91575000Y-144535000D02*
X91575000Y-143265000D01*
X91575000Y-124705000D02*
X98925000Y-124705000D01*
X91575000Y-144535000D02*
X98925000Y-144535000D01*
X91575000Y-125975000D02*
X90640000Y-125975000D01*
X66175000Y-124705000D02*
X66175000Y-125975000D01*
X73525000Y-124705000D02*
X73525000Y-125975000D01*
X73525000Y-144535000D02*
X73525000Y-143265000D01*
X66175000Y-144535000D02*
X66175000Y-143265000D01*
X66175000Y-124705000D02*
X73525000Y-124705000D01*
X66175000Y-144535000D02*
X73525000Y-144535000D01*
X66175000Y-125975000D02*
X65240000Y-125975000D01*
X78875000Y-152645000D02*
X78875000Y-153915000D01*
X86225000Y-152645000D02*
X86225000Y-153915000D01*
X86225000Y-175015000D02*
X86225000Y-173745000D01*
X78875000Y-175015000D02*
X78875000Y-173745000D01*
X78875000Y-152645000D02*
X86225000Y-152645000D01*
X78875000Y-175015000D02*
X86225000Y-175015000D01*
X78875000Y-153915000D02*
X77940000Y-153915000D01*
X116975000Y-124705000D02*
X116975000Y-125975000D01*
X124325000Y-124705000D02*
X124325000Y-125975000D01*
X124325000Y-147075000D02*
X124325000Y-145805000D01*
X116975000Y-147075000D02*
X116975000Y-145805000D01*
X116975000Y-124705000D02*
X124325000Y-124705000D01*
X116975000Y-147075000D02*
X124325000Y-147075000D01*
X116975000Y-125975000D02*
X116040000Y-125975000D01*
X129675000Y-152645000D02*
X129675000Y-153915000D01*
X137025000Y-152645000D02*
X137025000Y-153915000D01*
X137025000Y-175015000D02*
X137025000Y-173745000D01*
X129675000Y-175015000D02*
X129675000Y-173745000D01*
X129675000Y-152645000D02*
X137025000Y-152645000D01*
X129675000Y-175015000D02*
X137025000Y-175015000D01*
X129675000Y-153915000D02*
X128740000Y-153915000D01*
X116975000Y-152645000D02*
X116975000Y-153915000D01*
X124325000Y-152645000D02*
X124325000Y-153915000D01*
X124325000Y-175015000D02*
X124325000Y-173745000D01*
X116975000Y-175015000D02*
X116975000Y-173745000D01*
X116975000Y-152645000D02*
X124325000Y-152645000D01*
X116975000Y-175015000D02*
X124325000Y-175015000D01*
X116975000Y-153915000D02*
X116040000Y-153915000D01*
X116975000Y-183125000D02*
X116975000Y-184395000D01*
X124325000Y-183125000D02*
X124325000Y-184395000D01*
X124325000Y-202955000D02*
X124325000Y-201685000D01*
X116975000Y-202955000D02*
X116975000Y-201685000D01*
X116975000Y-183125000D02*
X124325000Y-183125000D01*
X116975000Y-202955000D02*
X124325000Y-202955000D01*
X116975000Y-184395000D02*
X116040000Y-184395000D01*
X129675000Y-183125000D02*
X129675000Y-184395000D01*
X137025000Y-183125000D02*
X137025000Y-184395000D01*
X137025000Y-202955000D02*
X137025000Y-201685000D01*
X129675000Y-202955000D02*
X129675000Y-201685000D01*
X129675000Y-183125000D02*
X137025000Y-183125000D01*
X129675000Y-202955000D02*
X137025000Y-202955000D01*
X129675000Y-184395000D02*
X128740000Y-184395000D01*
X143240760Y-140589000D02*
X142839440Y-140789660D01*
X142839440Y-140789660D02*
X142240000Y-140891260D01*
X142240000Y-140891260D02*
X141739620Y-140789660D01*
X141739620Y-140789660D02*
X141041120Y-140390880D01*
X141041120Y-140390880D02*
X140639800Y-139788900D01*
X140639800Y-139788900D02*
X140439140Y-139189460D01*
X140439140Y-139189460D02*
X140439140Y-132590540D01*
X140439140Y-132590540D02*
X140639800Y-131889500D01*
X140639800Y-131889500D02*
X140939520Y-131490720D01*
X140939520Y-131490720D02*
X141439900Y-131089400D01*
X141439900Y-131089400D02*
X142039340Y-130888740D01*
X142039340Y-130888740D02*
X142539720Y-130888740D01*
X142539720Y-130888740D02*
X143040100Y-131089400D01*
X143040100Y-131089400D02*
X143639540Y-131589780D01*
X143639540Y-131589780D02*
X143939260Y-132090160D01*
X143939260Y-132090160D02*
X144040860Y-132590540D01*
X144040860Y-132689600D02*
X144040860Y-139291060D01*
X144040860Y-139291060D02*
X143939260Y-139689840D01*
X143939260Y-139689840D02*
X143639540Y-140190220D01*
X143639540Y-140190220D02*
X143139160Y-140690600D01*
X144569180Y-132699760D02*
X144520920Y-132240020D01*
X144520920Y-132240020D02*
X144409160Y-131841240D01*
X144409160Y-131841240D02*
X144190720Y-131409440D01*
X144190720Y-131409440D02*
X143959580Y-131119880D01*
X143959580Y-131119880D02*
X143609060Y-130789680D01*
X143609060Y-130789680D02*
X143070580Y-130500120D01*
X143070580Y-130500120D02*
X142471140Y-130370580D01*
X142471140Y-130370580D02*
X141960600Y-130370580D01*
X141960600Y-130370580D02*
X141259560Y-130540760D01*
X141259560Y-130540760D02*
X140670280Y-130939540D01*
X140670280Y-130939540D02*
X140299440Y-131399280D01*
X140299440Y-131399280D02*
X140091160Y-131820920D01*
X140091160Y-131820920D02*
X139931140Y-132270500D01*
X139931140Y-132270500D02*
X139900660Y-132709920D01*
X140119100Y-140050520D02*
X140340080Y-140428980D01*
X140340080Y-140428980D02*
X140619480Y-140749020D01*
X140619480Y-140749020D02*
X140949680Y-141000480D01*
X140949680Y-141000480D02*
X141500860Y-141300200D01*
X141500860Y-141300200D02*
X141970760Y-141409420D01*
X141970760Y-141409420D02*
X142430500Y-141429740D01*
X142430500Y-141429740D02*
X142890240Y-141340840D01*
X142890240Y-141340840D02*
X143339820Y-141150340D01*
X143339820Y-141150340D02*
X143809720Y-140789660D01*
X143809720Y-140789660D02*
X144129760Y-140439140D01*
X144129760Y-140439140D02*
X144360900Y-140050520D01*
X144360900Y-140050520D02*
X144500600Y-139621260D01*
X144500600Y-139621260D02*
X144569180Y-139179300D01*
X139910820Y-132689600D02*
X139910820Y-139141200D01*
X139910820Y-139141200D02*
X139948920Y-139560300D01*
X139948920Y-139560300D02*
X140119100Y-140050520D01*
X144569180Y-132689600D02*
X144569180Y-139141200D01*
X137295000Y-81525000D02*
X137295000Y-82795000D01*
X152265000Y-81525000D02*
X152265000Y-82795000D01*
X152265000Y-114055000D02*
X152265000Y-112785000D01*
X137295000Y-114055000D02*
X137295000Y-112785000D01*
X137295000Y-81525000D02*
X152265000Y-81525000D01*
X137295000Y-114055000D02*
X152265000Y-114055000D01*
X137295000Y-82795000D02*
X136360000Y-82795000D01*
X68715000Y-35805000D02*
X68715000Y-37075000D01*
X91305000Y-35805000D02*
X91305000Y-37075000D01*
X91305000Y-119135000D02*
X91305000Y-117865000D01*
X68715000Y-119135000D02*
X68715000Y-117865000D01*
X68715000Y-35805000D02*
X91305000Y-35805000D01*
X68715000Y-119135000D02*
X91305000Y-119135000D01*
X68715000Y-37075000D02*
X67780000Y-37075000D01*
X28075000Y-35805000D02*
X28075000Y-37075000D01*
X43045000Y-35805000D02*
X43045000Y-37075000D01*
X43045000Y-73415000D02*
X43045000Y-72145000D01*
X28075000Y-73415000D02*
X28075000Y-72145000D01*
X28075000Y-35805000D02*
X43045000Y-35805000D01*
X28075000Y-73415000D02*
X43045000Y-73415000D01*
X28075000Y-37075000D02*
X27140000Y-37075000D01*
X28075000Y-81525000D02*
X28075000Y-82795000D01*
X43045000Y-81525000D02*
X43045000Y-82795000D01*
X43045000Y-119135000D02*
X43045000Y-117865000D01*
X28075000Y-119135000D02*
X28075000Y-117865000D01*
X28075000Y-81525000D02*
X43045000Y-81525000D01*
X28075000Y-119135000D02*
X43045000Y-119135000D01*
X28075000Y-82795000D02*
X27140000Y-82795000D01*
X48395000Y-35805000D02*
X48395000Y-37075000D01*
X63365000Y-35805000D02*
X63365000Y-37075000D01*
X63365000Y-73415000D02*
X63365000Y-72145000D01*
X48395000Y-73415000D02*
X48395000Y-72145000D01*
X48395000Y-35805000D02*
X63365000Y-35805000D01*
X48395000Y-73415000D02*
X63365000Y-73415000D01*
X48395000Y-37075000D02*
X47460000Y-37075000D01*
X48395000Y-81525000D02*
X48395000Y-82795000D01*
X63365000Y-81525000D02*
X63365000Y-82795000D01*
X63365000Y-119135000D02*
X63365000Y-117865000D01*
X48395000Y-119135000D02*
X48395000Y-117865000D01*
X48395000Y-81525000D02*
X63365000Y-81525000D01*
X48395000Y-119135000D02*
X63365000Y-119135000D01*
X48395000Y-82795000D02*
X47460000Y-82795000D01*
X96655000Y-35805000D02*
X96655000Y-37075000D01*
X111625000Y-35805000D02*
X111625000Y-37075000D01*
X111625000Y-73415000D02*
X111625000Y-72145000D01*
X96655000Y-73415000D02*
X96655000Y-72145000D01*
X96655000Y-35805000D02*
X111625000Y-35805000D01*
X96655000Y-73415000D02*
X111625000Y-73415000D01*
X96655000Y-37075000D02*
X95720000Y-37075000D01*
X96655000Y-81525000D02*
X96655000Y-82795000D01*
X111625000Y-81525000D02*
X111625000Y-82795000D01*
X111625000Y-119135000D02*
X111625000Y-117865000D01*
X96655000Y-119135000D02*
X96655000Y-117865000D01*
X96655000Y-81525000D02*
X111625000Y-81525000D01*
X96655000Y-119135000D02*
X111625000Y-119135000D01*
X96655000Y-82795000D02*
X95720000Y-82795000D01*
X116975000Y-35805000D02*
X116975000Y-37075000D01*
X131945000Y-35805000D02*
X131945000Y-37075000D01*
X131945000Y-73415000D02*
X131945000Y-72145000D01*
X116975000Y-73415000D02*
X116975000Y-72145000D01*
X116975000Y-35805000D02*
X131945000Y-35805000D01*
X116975000Y-73415000D02*
X131945000Y-73415000D01*
X116975000Y-37075000D02*
X116040000Y-37075000D01*
X116975000Y-81525000D02*
X116975000Y-82795000D01*
X131945000Y-81525000D02*
X131945000Y-82795000D01*
X131945000Y-119135000D02*
X131945000Y-117865000D01*
X116975000Y-119135000D02*
X116975000Y-117865000D01*
X116975000Y-81525000D02*
X131945000Y-81525000D01*
X116975000Y-119135000D02*
X131945000Y-119135000D01*
X116975000Y-82795000D02*
X116040000Y-82795000D01*
X137295000Y-35805000D02*
X137295000Y-37075000D01*
X152265000Y-35805000D02*
X152265000Y-37075000D01*
X152265000Y-68335000D02*
X152265000Y-67065000D01*
X137295000Y-68335000D02*
X137295000Y-67065000D01*
X137295000Y-35805000D02*
X152265000Y-35805000D01*
X137295000Y-68335000D02*
X152265000Y-68335000D01*
X137295000Y-37075000D02*
X136360000Y-37075000D01*
X102870000Y-156210000D02*
X107950000Y-156210000D01*
X102870000Y-151765000D02*
X107950000Y-151765000D01*
X107950000Y-158115000D02*
X102870000Y-158115000D01*
X107950000Y-158115000D02*
X107950000Y-151765000D01*
X102870000Y-158115000D02*
X102870000Y-151765000D01*
X107950000Y-158750000D02*
X102870000Y-158750000D01*
X107950000Y-163195000D02*
X102870000Y-163195000D01*
X102870000Y-156845000D02*
X107950000Y-156845000D01*
X102870000Y-156845000D02*
X102870000Y-163195000D01*
X107950000Y-156845000D02*
X107950000Y-163195000D01*
X102870000Y-166370000D02*
X107950000Y-166370000D01*
X102870000Y-161925000D02*
X107950000Y-161925000D01*
X107950000Y-168275000D02*
X102870000Y-168275000D01*
X107950000Y-168275000D02*
X107950000Y-161925000D01*
X102870000Y-168275000D02*
X102870000Y-161925000D01*
X107950000Y-168910000D02*
X102870000Y-168910000D01*
X107950000Y-173355000D02*
X102870000Y-173355000D01*
X102870000Y-167005000D02*
X107950000Y-167005000D01*
X102870000Y-167005000D02*
X102870000Y-173355000D01*
X107950000Y-167005000D02*
X107950000Y-173355000D01*
X102870000Y-20320000D02*
X102870000Y-25400000D01*
X107315000Y-20320000D02*
X107315000Y-25400000D01*
X100965000Y-25400000D02*
X100965000Y-20320000D01*
X100965000Y-25400000D02*
X107315000Y-25400000D01*
X100965000Y-20320000D02*
X107315000Y-20320000D01*
X130810000Y-20320000D02*
X130810000Y-25400000D01*
X135255000Y-20320000D02*
X135255000Y-25400000D01*
X128905000Y-25400000D02*
X128905000Y-20320000D01*
X128905000Y-25400000D02*
X135255000Y-25400000D01*
X128905000Y-20320000D02*
X135255000Y-20320000D01*
X153920000Y-133330000D02*
X150920000Y-133330000D01*
X150920000Y-130830000D02*
X153920000Y-130830000D01*
X150880000Y-138450000D02*
X153880000Y-138450000D01*
X153880000Y-140950000D02*
X150880000Y-140950000D01*
X40775000Y-183125000D02*
X40775000Y-184395000D01*
X48125000Y-183125000D02*
X48125000Y-184395000D01*
X48125000Y-205495000D02*
X48125000Y-204225000D01*
X40775000Y-205495000D02*
X40775000Y-204225000D01*
X40775000Y-183125000D02*
X48125000Y-183125000D01*
X40775000Y-205495000D02*
X48125000Y-205495000D01*
X40775000Y-184395000D02*
X39840000Y-184395000D01*
X129675000Y-124705000D02*
X129675000Y-125975000D01*
X137025000Y-124705000D02*
X137025000Y-125975000D01*
X137025000Y-147075000D02*
X137025000Y-145805000D01*
X129675000Y-147075000D02*
X129675000Y-145805000D01*
X129675000Y-124705000D02*
X137025000Y-124705000D01*
X129675000Y-147075000D02*
X137025000Y-147075000D01*
X129675000Y-125975000D02*
X128740000Y-125975000D01*
X142375000Y-183125000D02*
X142375000Y-184395000D01*
X149725000Y-183125000D02*
X149725000Y-184395000D01*
X149725000Y-202955000D02*
X149725000Y-201685000D01*
X142375000Y-202955000D02*
X142375000Y-201685000D01*
X142375000Y-183125000D02*
X149725000Y-183125000D01*
X142375000Y-202955000D02*
X149725000Y-202955000D01*
X142375000Y-184395000D02*
X141440000Y-184395000D01*
X142375000Y-152645000D02*
X142375000Y-153915000D01*
X149725000Y-152645000D02*
X149725000Y-153915000D01*
X149725000Y-172475000D02*
X149725000Y-171205000D01*
X142375000Y-172475000D02*
X142375000Y-171205000D01*
X142375000Y-152645000D02*
X149725000Y-152645000D01*
X142375000Y-172475000D02*
X149725000Y-172475000D01*
X142375000Y-153915000D02*
X141440000Y-153915000D01*
X147570000Y-151110000D02*
X144570000Y-151110000D01*
X144570000Y-148610000D02*
X147570000Y-148610000D01*
X134870000Y-181590000D02*
X131870000Y-181590000D01*
X131870000Y-179090000D02*
X134870000Y-179090000D01*
X47872425Y-25849841D02*
X47872425Y-24849841D01*
X48110520Y-24849841D01*
X48253378Y-24897460D01*
X48348616Y-24992698D01*
X48396235Y-25087936D01*
X48443854Y-25278412D01*
X48443854Y-25421270D01*
X48396235Y-25611746D01*
X48348616Y-25706984D01*
X48253378Y-25802222D01*
X48110520Y-25849841D01*
X47872425Y-25849841D01*
X48777187Y-24849841D02*
X49396235Y-24849841D01*
X49062901Y-25230793D01*
X49205759Y-25230793D01*
X49300997Y-25278412D01*
X49348616Y-25326031D01*
X49396235Y-25421270D01*
X49396235Y-25659365D01*
X49348616Y-25754603D01*
X49300997Y-25802222D01*
X49205759Y-25849841D01*
X48920044Y-25849841D01*
X48824806Y-25802222D01*
X48777187Y-25754603D01*
X54443334Y-162917143D02*
X54395715Y-162964762D01*
X54252858Y-163012381D01*
X54157620Y-163012381D01*
X54014762Y-162964762D01*
X53919524Y-162869524D01*
X53871905Y-162774286D01*
X53824286Y-162583810D01*
X53824286Y-162440952D01*
X53871905Y-162250476D01*
X53919524Y-162155238D01*
X54014762Y-162060000D01*
X54157620Y-162012381D01*
X54252858Y-162012381D01*
X54395715Y-162060000D01*
X54443334Y-162107619D01*
X55395715Y-163012381D02*
X54824286Y-163012381D01*
X55110000Y-163012381D02*
X55110000Y-162012381D01*
X55014762Y-162155238D01*
X54919524Y-162250476D01*
X54824286Y-162298095D01*
X59523334Y-162917143D02*
X59475715Y-162964762D01*
X59332858Y-163012381D01*
X59237620Y-163012381D01*
X59094762Y-162964762D01*
X58999524Y-162869524D01*
X58951905Y-162774286D01*
X58904286Y-162583810D01*
X58904286Y-162440952D01*
X58951905Y-162250476D01*
X58999524Y-162155238D01*
X59094762Y-162060000D01*
X59237620Y-162012381D01*
X59332858Y-162012381D01*
X59475715Y-162060000D01*
X59523334Y-162107619D01*
X59904286Y-162107619D02*
X59951905Y-162060000D01*
X60047143Y-162012381D01*
X60285239Y-162012381D01*
X60380477Y-162060000D01*
X60428096Y-162107619D01*
X60475715Y-162202857D01*
X60475715Y-162298095D01*
X60428096Y-162440952D01*
X59856667Y-163012381D01*
X60475715Y-163012381D01*
X56983334Y-174347143D02*
X56935715Y-174394762D01*
X56792858Y-174442381D01*
X56697620Y-174442381D01*
X56554762Y-174394762D01*
X56459524Y-174299524D01*
X56411905Y-174204286D01*
X56364286Y-174013810D01*
X56364286Y-173870952D01*
X56411905Y-173680476D01*
X56459524Y-173585238D01*
X56554762Y-173490000D01*
X56697620Y-173442381D01*
X56792858Y-173442381D01*
X56935715Y-173490000D01*
X56983334Y-173537619D01*
X57316667Y-173442381D02*
X57935715Y-173442381D01*
X57602381Y-173823333D01*
X57745239Y-173823333D01*
X57840477Y-173870952D01*
X57888096Y-173918571D01*
X57935715Y-174013810D01*
X57935715Y-174251905D01*
X57888096Y-174347143D01*
X57840477Y-174394762D01*
X57745239Y-174442381D01*
X57459524Y-174442381D01*
X57364286Y-174394762D01*
X57316667Y-174347143D01*
X59543334Y-27017143D02*
X59495715Y-27064762D01*
X59352858Y-27112381D01*
X59257620Y-27112381D01*
X59114762Y-27064762D01*
X59019524Y-26969524D01*
X58971905Y-26874286D01*
X58924286Y-26683810D01*
X58924286Y-26540952D01*
X58971905Y-26350476D01*
X59019524Y-26255238D01*
X59114762Y-26160000D01*
X59257620Y-26112381D01*
X59352858Y-26112381D01*
X59495715Y-26160000D01*
X59543334Y-26207619D01*
X60400477Y-26445714D02*
X60400477Y-27112381D01*
X60162381Y-26064762D02*
X59924286Y-26779048D01*
X60543334Y-26779048D01*
X35393334Y-30837143D02*
X35345715Y-30884762D01*
X35202858Y-30932381D01*
X35107620Y-30932381D01*
X34964762Y-30884762D01*
X34869524Y-30789524D01*
X34821905Y-30694286D01*
X34774286Y-30503810D01*
X34774286Y-30360952D01*
X34821905Y-30170476D01*
X34869524Y-30075238D01*
X34964762Y-29980000D01*
X35107620Y-29932381D01*
X35202858Y-29932381D01*
X35345715Y-29980000D01*
X35393334Y-30027619D01*
X36298096Y-29932381D02*
X35821905Y-29932381D01*
X35774286Y-30408571D01*
X35821905Y-30360952D01*
X35917143Y-30313333D01*
X36155239Y-30313333D01*
X36250477Y-30360952D01*
X36298096Y-30408571D01*
X36345715Y-30503810D01*
X36345715Y-30741905D01*
X36298096Y-30837143D01*
X36250477Y-30884762D01*
X36155239Y-30932381D01*
X35917143Y-30932381D01*
X35821905Y-30884762D01*
X35774286Y-30837143D01*
X55713334Y-30837143D02*
X55665715Y-30884762D01*
X55522858Y-30932381D01*
X55427620Y-30932381D01*
X55284762Y-30884762D01*
X55189524Y-30789524D01*
X55141905Y-30694286D01*
X55094286Y-30503810D01*
X55094286Y-30360952D01*
X55141905Y-30170476D01*
X55189524Y-30075238D01*
X55284762Y-29980000D01*
X55427620Y-29932381D01*
X55522858Y-29932381D01*
X55665715Y-29980000D01*
X55713334Y-30027619D01*
X56570477Y-29932381D02*
X56380000Y-29932381D01*
X56284762Y-29980000D01*
X56237143Y-30027619D01*
X56141905Y-30170476D01*
X56094286Y-30360952D01*
X56094286Y-30741905D01*
X56141905Y-30837143D01*
X56189524Y-30884762D01*
X56284762Y-30932381D01*
X56475239Y-30932381D01*
X56570477Y-30884762D01*
X56618096Y-30837143D01*
X56665715Y-30741905D01*
X56665715Y-30503810D01*
X56618096Y-30408571D01*
X56570477Y-30360952D01*
X56475239Y-30313333D01*
X56284762Y-30313333D01*
X56189524Y-30360952D01*
X56141905Y-30408571D01*
X56094286Y-30503810D01*
X79823334Y-30877143D02*
X79775715Y-30924762D01*
X79632858Y-30972381D01*
X79537620Y-30972381D01*
X79394762Y-30924762D01*
X79299524Y-30829524D01*
X79251905Y-30734286D01*
X79204286Y-30543810D01*
X79204286Y-30400952D01*
X79251905Y-30210476D01*
X79299524Y-30115238D01*
X79394762Y-30020000D01*
X79537620Y-29972381D01*
X79632858Y-29972381D01*
X79775715Y-30020000D01*
X79823334Y-30067619D01*
X80156667Y-29972381D02*
X80823334Y-29972381D01*
X80394762Y-30972381D01*
X103973334Y-30837143D02*
X103925715Y-30884762D01*
X103782858Y-30932381D01*
X103687620Y-30932381D01*
X103544762Y-30884762D01*
X103449524Y-30789524D01*
X103401905Y-30694286D01*
X103354286Y-30503810D01*
X103354286Y-30360952D01*
X103401905Y-30170476D01*
X103449524Y-30075238D01*
X103544762Y-29980000D01*
X103687620Y-29932381D01*
X103782858Y-29932381D01*
X103925715Y-29980000D01*
X103973334Y-30027619D01*
X104544762Y-30360952D02*
X104449524Y-30313333D01*
X104401905Y-30265714D01*
X104354286Y-30170476D01*
X104354286Y-30122857D01*
X104401905Y-30027619D01*
X104449524Y-29980000D01*
X104544762Y-29932381D01*
X104735239Y-29932381D01*
X104830477Y-29980000D01*
X104878096Y-30027619D01*
X104925715Y-30122857D01*
X104925715Y-30170476D01*
X104878096Y-30265714D01*
X104830477Y-30313333D01*
X104735239Y-30360952D01*
X104544762Y-30360952D01*
X104449524Y-30408571D01*
X104401905Y-30456190D01*
X104354286Y-30551429D01*
X104354286Y-30741905D01*
X104401905Y-30837143D01*
X104449524Y-30884762D01*
X104544762Y-30932381D01*
X104735239Y-30932381D01*
X104830477Y-30884762D01*
X104878096Y-30837143D01*
X104925715Y-30741905D01*
X104925715Y-30551429D01*
X104878096Y-30456190D01*
X104830477Y-30408571D01*
X104735239Y-30360952D01*
X124293334Y-30837143D02*
X124245715Y-30884762D01*
X124102858Y-30932381D01*
X124007620Y-30932381D01*
X123864762Y-30884762D01*
X123769524Y-30789524D01*
X123721905Y-30694286D01*
X123674286Y-30503810D01*
X123674286Y-30360952D01*
X123721905Y-30170476D01*
X123769524Y-30075238D01*
X123864762Y-29980000D01*
X124007620Y-29932381D01*
X124102858Y-29932381D01*
X124245715Y-29980000D01*
X124293334Y-30027619D01*
X124769524Y-30932381D02*
X124960000Y-30932381D01*
X125055239Y-30884762D01*
X125102858Y-30837143D01*
X125198096Y-30694286D01*
X125245715Y-30503810D01*
X125245715Y-30122857D01*
X125198096Y-30027619D01*
X125150477Y-29980000D01*
X125055239Y-29932381D01*
X124864762Y-29932381D01*
X124769524Y-29980000D01*
X124721905Y-30027619D01*
X124674286Y-30122857D01*
X124674286Y-30360952D01*
X124721905Y-30456190D01*
X124769524Y-30503810D01*
X124864762Y-30551429D01*
X125055239Y-30551429D01*
X125150477Y-30503810D01*
X125198096Y-30456190D01*
X125245715Y-30360952D01*
X124817143Y-150502857D02*
X124864762Y-150550476D01*
X124912381Y-150693333D01*
X124912381Y-150788571D01*
X124864762Y-150931429D01*
X124769524Y-151026667D01*
X124674286Y-151074286D01*
X124483810Y-151121905D01*
X124340952Y-151121905D01*
X124150476Y-151074286D01*
X124055238Y-151026667D01*
X123960000Y-150931429D01*
X123912381Y-150788571D01*
X123912381Y-150693333D01*
X123960000Y-150550476D01*
X124007619Y-150502857D01*
X124912381Y-149550476D02*
X124912381Y-150121905D01*
X124912381Y-149836191D02*
X123912381Y-149836191D01*
X124055238Y-149931429D01*
X124150476Y-150026667D01*
X124198095Y-150121905D01*
X123912381Y-148931429D02*
X123912381Y-148836190D01*
X123960000Y-148740952D01*
X124007619Y-148693333D01*
X124102857Y-148645714D01*
X124293333Y-148598095D01*
X124531429Y-148598095D01*
X124721905Y-148645714D01*
X124817143Y-148693333D01*
X124864762Y-148740952D01*
X124912381Y-148836190D01*
X124912381Y-148931429D01*
X124864762Y-149026667D01*
X124817143Y-149074286D01*
X124721905Y-149121905D01*
X124531429Y-149169524D01*
X124293333Y-149169524D01*
X124102857Y-149121905D01*
X124007619Y-149074286D01*
X123960000Y-149026667D01*
X123912381Y-148931429D01*
X34917143Y-76557143D02*
X34869524Y-76604762D01*
X34726667Y-76652381D01*
X34631429Y-76652381D01*
X34488571Y-76604762D01*
X34393333Y-76509524D01*
X34345714Y-76414286D01*
X34298095Y-76223810D01*
X34298095Y-76080952D01*
X34345714Y-75890476D01*
X34393333Y-75795238D01*
X34488571Y-75700000D01*
X34631429Y-75652381D01*
X34726667Y-75652381D01*
X34869524Y-75700000D01*
X34917143Y-75747619D01*
X35869524Y-76652381D02*
X35298095Y-76652381D01*
X35583809Y-76652381D02*
X35583809Y-75652381D01*
X35488571Y-75795238D01*
X35393333Y-75890476D01*
X35298095Y-75938095D01*
X36821905Y-76652381D02*
X36250476Y-76652381D01*
X36536190Y-76652381D02*
X36536190Y-75652381D01*
X36440952Y-75795238D01*
X36345714Y-75890476D01*
X36250476Y-75938095D01*
X55237143Y-76557143D02*
X55189524Y-76604762D01*
X55046667Y-76652381D01*
X54951429Y-76652381D01*
X54808571Y-76604762D01*
X54713333Y-76509524D01*
X54665714Y-76414286D01*
X54618095Y-76223810D01*
X54618095Y-76080952D01*
X54665714Y-75890476D01*
X54713333Y-75795238D01*
X54808571Y-75700000D01*
X54951429Y-75652381D01*
X55046667Y-75652381D01*
X55189524Y-75700000D01*
X55237143Y-75747619D01*
X56189524Y-76652381D02*
X55618095Y-76652381D01*
X55903809Y-76652381D02*
X55903809Y-75652381D01*
X55808571Y-75795238D01*
X55713333Y-75890476D01*
X55618095Y-75938095D01*
X56570476Y-75747619D02*
X56618095Y-75700000D01*
X56713333Y-75652381D01*
X56951429Y-75652381D01*
X57046667Y-75700000D01*
X57094286Y-75747619D01*
X57141905Y-75842857D01*
X57141905Y-75938095D01*
X57094286Y-76080952D01*
X56522857Y-76652381D01*
X57141905Y-76652381D01*
X102227143Y-76557143D02*
X102179524Y-76604762D01*
X102036667Y-76652381D01*
X101941429Y-76652381D01*
X101798571Y-76604762D01*
X101703333Y-76509524D01*
X101655714Y-76414286D01*
X101608095Y-76223810D01*
X101608095Y-76080952D01*
X101655714Y-75890476D01*
X101703333Y-75795238D01*
X101798571Y-75700000D01*
X101941429Y-75652381D01*
X102036667Y-75652381D01*
X102179524Y-75700000D01*
X102227143Y-75747619D01*
X103179524Y-76652381D02*
X102608095Y-76652381D01*
X102893809Y-76652381D02*
X102893809Y-75652381D01*
X102798571Y-75795238D01*
X102703333Y-75890476D01*
X102608095Y-75938095D01*
X103512857Y-75652381D02*
X104131905Y-75652381D01*
X103798571Y-76033333D01*
X103941429Y-76033333D01*
X104036667Y-76080952D01*
X104084286Y-76128571D01*
X104131905Y-76223810D01*
X104131905Y-76461905D01*
X104084286Y-76557143D01*
X104036667Y-76604762D01*
X103941429Y-76652381D01*
X103655714Y-76652381D01*
X103560476Y-76604762D01*
X103512857Y-76557143D01*
X123817143Y-76557143D02*
X123769524Y-76604762D01*
X123626667Y-76652381D01*
X123531429Y-76652381D01*
X123388571Y-76604762D01*
X123293333Y-76509524D01*
X123245714Y-76414286D01*
X123198095Y-76223810D01*
X123198095Y-76080952D01*
X123245714Y-75890476D01*
X123293333Y-75795238D01*
X123388571Y-75700000D01*
X123531429Y-75652381D01*
X123626667Y-75652381D01*
X123769524Y-75700000D01*
X123817143Y-75747619D01*
X124769524Y-76652381D02*
X124198095Y-76652381D01*
X124483809Y-76652381D02*
X124483809Y-75652381D01*
X124388571Y-75795238D01*
X124293333Y-75890476D01*
X124198095Y-75938095D01*
X125626667Y-75985714D02*
X125626667Y-76652381D01*
X125388571Y-75604762D02*
X125150476Y-76319048D01*
X125769524Y-76319048D01*
X144137143Y-30837143D02*
X144089524Y-30884762D01*
X143946667Y-30932381D01*
X143851429Y-30932381D01*
X143708571Y-30884762D01*
X143613333Y-30789524D01*
X143565714Y-30694286D01*
X143518095Y-30503810D01*
X143518095Y-30360952D01*
X143565714Y-30170476D01*
X143613333Y-30075238D01*
X143708571Y-29980000D01*
X143851429Y-29932381D01*
X143946667Y-29932381D01*
X144089524Y-29980000D01*
X144137143Y-30027619D01*
X145089524Y-30932381D02*
X144518095Y-30932381D01*
X144803809Y-30932381D02*
X144803809Y-29932381D01*
X144708571Y-30075238D01*
X144613333Y-30170476D01*
X144518095Y-30218095D01*
X145994286Y-29932381D02*
X145518095Y-29932381D01*
X145470476Y-30408571D01*
X145518095Y-30360952D01*
X145613333Y-30313333D01*
X145851429Y-30313333D01*
X145946667Y-30360952D01*
X145994286Y-30408571D01*
X146041905Y-30503810D01*
X146041905Y-30741905D01*
X145994286Y-30837143D01*
X145946667Y-30884762D01*
X145851429Y-30932381D01*
X145613333Y-30932381D01*
X145518095Y-30884762D01*
X145470476Y-30837143D01*
X137517143Y-150502857D02*
X137564762Y-150550476D01*
X137612381Y-150693333D01*
X137612381Y-150788571D01*
X137564762Y-150931429D01*
X137469524Y-151026667D01*
X137374286Y-151074286D01*
X137183810Y-151121905D01*
X137040952Y-151121905D01*
X136850476Y-151074286D01*
X136755238Y-151026667D01*
X136660000Y-150931429D01*
X136612381Y-150788571D01*
X136612381Y-150693333D01*
X136660000Y-150550476D01*
X136707619Y-150502857D01*
X137612381Y-149550476D02*
X137612381Y-150121905D01*
X137612381Y-149836191D02*
X136612381Y-149836191D01*
X136755238Y-149931429D01*
X136850476Y-150026667D01*
X136898095Y-150121905D01*
X136612381Y-148693333D02*
X136612381Y-148883810D01*
X136660000Y-148979048D01*
X136707619Y-149026667D01*
X136850476Y-149121905D01*
X137040952Y-149169524D01*
X137421905Y-149169524D01*
X137517143Y-149121905D01*
X137564762Y-149074286D01*
X137612381Y-148979048D01*
X137612381Y-148788571D01*
X137564762Y-148693333D01*
X137517143Y-148645714D01*
X137421905Y-148598095D01*
X137183810Y-148598095D01*
X137088571Y-148645714D01*
X137040952Y-148693333D01*
X136993333Y-148788571D01*
X136993333Y-148979048D01*
X137040952Y-149074286D01*
X137088571Y-149121905D01*
X137183810Y-149169524D01*
X145407143Y-178157143D02*
X145359524Y-178204762D01*
X145216667Y-178252381D01*
X145121429Y-178252381D01*
X144978571Y-178204762D01*
X144883333Y-178109524D01*
X144835714Y-178014286D01*
X144788095Y-177823810D01*
X144788095Y-177680952D01*
X144835714Y-177490476D01*
X144883333Y-177395238D01*
X144978571Y-177300000D01*
X145121429Y-177252381D01*
X145216667Y-177252381D01*
X145359524Y-177300000D01*
X145407143Y-177347619D01*
X146359524Y-178252381D02*
X145788095Y-178252381D01*
X146073809Y-178252381D02*
X146073809Y-177252381D01*
X145978571Y-177395238D01*
X145883333Y-177490476D01*
X145788095Y-177538095D01*
X146692857Y-177252381D02*
X147359524Y-177252381D01*
X146930952Y-178252381D01*
X47617143Y-122277143D02*
X47569524Y-122324762D01*
X47426667Y-122372381D01*
X47331429Y-122372381D01*
X47188571Y-122324762D01*
X47093333Y-122229524D01*
X47045714Y-122134286D01*
X46998095Y-121943810D01*
X46998095Y-121800952D01*
X47045714Y-121610476D01*
X47093333Y-121515238D01*
X47188571Y-121420000D01*
X47331429Y-121372381D01*
X47426667Y-121372381D01*
X47569524Y-121420000D01*
X47617143Y-121467619D01*
X48569524Y-122372381D02*
X47998095Y-122372381D01*
X48283809Y-122372381D02*
X48283809Y-121372381D01*
X48188571Y-121515238D01*
X48093333Y-121610476D01*
X47998095Y-121658095D01*
X49140952Y-121800952D02*
X49045714Y-121753333D01*
X48998095Y-121705714D01*
X48950476Y-121610476D01*
X48950476Y-121562857D01*
X48998095Y-121467619D01*
X49045714Y-121420000D01*
X49140952Y-121372381D01*
X49331429Y-121372381D01*
X49426667Y-121420000D01*
X49474286Y-121467619D01*
X49521905Y-121562857D01*
X49521905Y-121610476D01*
X49474286Y-121705714D01*
X49426667Y-121753333D01*
X49331429Y-121800952D01*
X49140952Y-121800952D01*
X49045714Y-121848571D01*
X48998095Y-121896190D01*
X48950476Y-121991429D01*
X48950476Y-122181905D01*
X48998095Y-122277143D01*
X49045714Y-122324762D01*
X49140952Y-122372381D01*
X49331429Y-122372381D01*
X49426667Y-122324762D01*
X49474286Y-122277143D01*
X49521905Y-122181905D01*
X49521905Y-121991429D01*
X49474286Y-121896190D01*
X49426667Y-121848571D01*
X49331429Y-121800952D01*
X60317143Y-122277143D02*
X60269524Y-122324762D01*
X60126667Y-122372381D01*
X60031429Y-122372381D01*
X59888571Y-122324762D01*
X59793333Y-122229524D01*
X59745714Y-122134286D01*
X59698095Y-121943810D01*
X59698095Y-121800952D01*
X59745714Y-121610476D01*
X59793333Y-121515238D01*
X59888571Y-121420000D01*
X60031429Y-121372381D01*
X60126667Y-121372381D01*
X60269524Y-121420000D01*
X60317143Y-121467619D01*
X61269524Y-122372381D02*
X60698095Y-122372381D01*
X60983809Y-122372381D02*
X60983809Y-121372381D01*
X60888571Y-121515238D01*
X60793333Y-121610476D01*
X60698095Y-121658095D01*
X61745714Y-122372381D02*
X61936190Y-122372381D01*
X62031429Y-122324762D01*
X62079048Y-122277143D01*
X62174286Y-122134286D01*
X62221905Y-121943810D01*
X62221905Y-121562857D01*
X62174286Y-121467619D01*
X62126667Y-121420000D01*
X62031429Y-121372381D01*
X61840952Y-121372381D01*
X61745714Y-121420000D01*
X61698095Y-121467619D01*
X61650476Y-121562857D01*
X61650476Y-121800952D01*
X61698095Y-121896190D01*
X61745714Y-121943810D01*
X61840952Y-121991429D01*
X62031429Y-121991429D01*
X62126667Y-121943810D01*
X62174286Y-121896190D01*
X62221905Y-121800952D01*
X73017143Y-122277143D02*
X72969524Y-122324762D01*
X72826667Y-122372381D01*
X72731429Y-122372381D01*
X72588571Y-122324762D01*
X72493333Y-122229524D01*
X72445714Y-122134286D01*
X72398095Y-121943810D01*
X72398095Y-121800952D01*
X72445714Y-121610476D01*
X72493333Y-121515238D01*
X72588571Y-121420000D01*
X72731429Y-121372381D01*
X72826667Y-121372381D01*
X72969524Y-121420000D01*
X73017143Y-121467619D01*
X73398095Y-121467619D02*
X73445714Y-121420000D01*
X73540952Y-121372381D01*
X73779048Y-121372381D01*
X73874286Y-121420000D01*
X73921905Y-121467619D01*
X73969524Y-121562857D01*
X73969524Y-121658095D01*
X73921905Y-121800952D01*
X73350476Y-122372381D01*
X73969524Y-122372381D01*
X74588571Y-121372381D02*
X74683810Y-121372381D01*
X74779048Y-121420000D01*
X74826667Y-121467619D01*
X74874286Y-121562857D01*
X74921905Y-121753333D01*
X74921905Y-121991429D01*
X74874286Y-122181905D01*
X74826667Y-122277143D01*
X74779048Y-122324762D01*
X74683810Y-122372381D01*
X74588571Y-122372381D01*
X74493333Y-122324762D01*
X74445714Y-122277143D01*
X74398095Y-122181905D01*
X74350476Y-121991429D01*
X74350476Y-121753333D01*
X74398095Y-121562857D01*
X74445714Y-121467619D01*
X74493333Y-121420000D01*
X74588571Y-121372381D01*
X136517143Y-122277143D02*
X136469524Y-122324762D01*
X136326667Y-122372381D01*
X136231429Y-122372381D01*
X136088571Y-122324762D01*
X135993333Y-122229524D01*
X135945714Y-122134286D01*
X135898095Y-121943810D01*
X135898095Y-121800952D01*
X135945714Y-121610476D01*
X135993333Y-121515238D01*
X136088571Y-121420000D01*
X136231429Y-121372381D01*
X136326667Y-121372381D01*
X136469524Y-121420000D01*
X136517143Y-121467619D01*
X136898095Y-121467619D02*
X136945714Y-121420000D01*
X137040952Y-121372381D01*
X137279048Y-121372381D01*
X137374286Y-121420000D01*
X137421905Y-121467619D01*
X137469524Y-121562857D01*
X137469524Y-121658095D01*
X137421905Y-121800952D01*
X136850476Y-122372381D01*
X137469524Y-122372381D01*
X138421905Y-122372381D02*
X137850476Y-122372381D01*
X138136190Y-122372381D02*
X138136190Y-121372381D01*
X138040952Y-121515238D01*
X137945714Y-121610476D01*
X137850476Y-121658095D01*
X123817143Y-122277143D02*
X123769524Y-122324762D01*
X123626667Y-122372381D01*
X123531429Y-122372381D01*
X123388571Y-122324762D01*
X123293333Y-122229524D01*
X123245714Y-122134286D01*
X123198095Y-121943810D01*
X123198095Y-121800952D01*
X123245714Y-121610476D01*
X123293333Y-121515238D01*
X123388571Y-121420000D01*
X123531429Y-121372381D01*
X123626667Y-121372381D01*
X123769524Y-121420000D01*
X123817143Y-121467619D01*
X124198095Y-121467619D02*
X124245714Y-121420000D01*
X124340952Y-121372381D01*
X124579048Y-121372381D01*
X124674286Y-121420000D01*
X124721905Y-121467619D01*
X124769524Y-121562857D01*
X124769524Y-121658095D01*
X124721905Y-121800952D01*
X124150476Y-122372381D01*
X124769524Y-122372381D01*
X125150476Y-121467619D02*
X125198095Y-121420000D01*
X125293333Y-121372381D01*
X125531429Y-121372381D01*
X125626667Y-121420000D01*
X125674286Y-121467619D01*
X125721905Y-121562857D01*
X125721905Y-121658095D01*
X125674286Y-121800952D01*
X125102857Y-122372381D01*
X125721905Y-122372381D01*
X98417143Y-122277143D02*
X98369524Y-122324762D01*
X98226667Y-122372381D01*
X98131429Y-122372381D01*
X97988571Y-122324762D01*
X97893333Y-122229524D01*
X97845714Y-122134286D01*
X97798095Y-121943810D01*
X97798095Y-121800952D01*
X97845714Y-121610476D01*
X97893333Y-121515238D01*
X97988571Y-121420000D01*
X98131429Y-121372381D01*
X98226667Y-121372381D01*
X98369524Y-121420000D01*
X98417143Y-121467619D01*
X98798095Y-121467619D02*
X98845714Y-121420000D01*
X98940952Y-121372381D01*
X99179048Y-121372381D01*
X99274286Y-121420000D01*
X99321905Y-121467619D01*
X99369524Y-121562857D01*
X99369524Y-121658095D01*
X99321905Y-121800952D01*
X98750476Y-122372381D01*
X99369524Y-122372381D01*
X99702857Y-121372381D02*
X100321905Y-121372381D01*
X99988571Y-121753333D01*
X100131429Y-121753333D01*
X100226667Y-121800952D01*
X100274286Y-121848571D01*
X100321905Y-121943810D01*
X100321905Y-122181905D01*
X100274286Y-122277143D01*
X100226667Y-122324762D01*
X100131429Y-122372381D01*
X99845714Y-122372381D01*
X99750476Y-122324762D01*
X99702857Y-122277143D01*
X111117143Y-122277143D02*
X111069524Y-122324762D01*
X110926667Y-122372381D01*
X110831429Y-122372381D01*
X110688571Y-122324762D01*
X110593333Y-122229524D01*
X110545714Y-122134286D01*
X110498095Y-121943810D01*
X110498095Y-121800952D01*
X110545714Y-121610476D01*
X110593333Y-121515238D01*
X110688571Y-121420000D01*
X110831429Y-121372381D01*
X110926667Y-121372381D01*
X111069524Y-121420000D01*
X111117143Y-121467619D01*
X111498095Y-121467619D02*
X111545714Y-121420000D01*
X111640952Y-121372381D01*
X111879048Y-121372381D01*
X111974286Y-121420000D01*
X112021905Y-121467619D01*
X112069524Y-121562857D01*
X112069524Y-121658095D01*
X112021905Y-121800952D01*
X111450476Y-122372381D01*
X112069524Y-122372381D01*
X112926667Y-121705714D02*
X112926667Y-122372381D01*
X112688571Y-121324762D02*
X112450476Y-122039048D01*
X113069524Y-122039048D01*
X31107143Y-147677143D02*
X31059524Y-147724762D01*
X30916667Y-147772381D01*
X30821429Y-147772381D01*
X30678571Y-147724762D01*
X30583333Y-147629524D01*
X30535714Y-147534286D01*
X30488095Y-147343810D01*
X30488095Y-147200952D01*
X30535714Y-147010476D01*
X30583333Y-146915238D01*
X30678571Y-146820000D01*
X30821429Y-146772381D01*
X30916667Y-146772381D01*
X31059524Y-146820000D01*
X31107143Y-146867619D01*
X31488095Y-146867619D02*
X31535714Y-146820000D01*
X31630952Y-146772381D01*
X31869048Y-146772381D01*
X31964286Y-146820000D01*
X32011905Y-146867619D01*
X32059524Y-146962857D01*
X32059524Y-147058095D01*
X32011905Y-147200952D01*
X31440476Y-147772381D01*
X32059524Y-147772381D01*
X32964286Y-146772381D02*
X32488095Y-146772381D01*
X32440476Y-147248571D01*
X32488095Y-147200952D01*
X32583333Y-147153333D01*
X32821429Y-147153333D01*
X32916667Y-147200952D01*
X32964286Y-147248571D01*
X33011905Y-147343810D01*
X33011905Y-147581905D01*
X32964286Y-147677143D01*
X32916667Y-147724762D01*
X32821429Y-147772381D01*
X32583333Y-147772381D01*
X32488095Y-147724762D01*
X32440476Y-147677143D01*
X43807143Y-147677143D02*
X43759524Y-147724762D01*
X43616667Y-147772381D01*
X43521429Y-147772381D01*
X43378571Y-147724762D01*
X43283333Y-147629524D01*
X43235714Y-147534286D01*
X43188095Y-147343810D01*
X43188095Y-147200952D01*
X43235714Y-147010476D01*
X43283333Y-146915238D01*
X43378571Y-146820000D01*
X43521429Y-146772381D01*
X43616667Y-146772381D01*
X43759524Y-146820000D01*
X43807143Y-146867619D01*
X44188095Y-146867619D02*
X44235714Y-146820000D01*
X44330952Y-146772381D01*
X44569048Y-146772381D01*
X44664286Y-146820000D01*
X44711905Y-146867619D01*
X44759524Y-146962857D01*
X44759524Y-147058095D01*
X44711905Y-147200952D01*
X44140476Y-147772381D01*
X44759524Y-147772381D01*
X45616667Y-146772381D02*
X45426190Y-146772381D01*
X45330952Y-146820000D01*
X45283333Y-146867619D01*
X45188095Y-147010476D01*
X45140476Y-147200952D01*
X45140476Y-147581905D01*
X45188095Y-147677143D01*
X45235714Y-147724762D01*
X45330952Y-147772381D01*
X45521429Y-147772381D01*
X45616667Y-147724762D01*
X45664286Y-147677143D01*
X45711905Y-147581905D01*
X45711905Y-147343810D01*
X45664286Y-147248571D01*
X45616667Y-147200952D01*
X45521429Y-147153333D01*
X45330952Y-147153333D01*
X45235714Y-147200952D01*
X45188095Y-147248571D01*
X45140476Y-147343810D01*
X94607143Y-147677143D02*
X94559524Y-147724762D01*
X94416667Y-147772381D01*
X94321429Y-147772381D01*
X94178571Y-147724762D01*
X94083333Y-147629524D01*
X94035714Y-147534286D01*
X93988095Y-147343810D01*
X93988095Y-147200952D01*
X94035714Y-147010476D01*
X94083333Y-146915238D01*
X94178571Y-146820000D01*
X94321429Y-146772381D01*
X94416667Y-146772381D01*
X94559524Y-146820000D01*
X94607143Y-146867619D01*
X94988095Y-146867619D02*
X95035714Y-146820000D01*
X95130952Y-146772381D01*
X95369048Y-146772381D01*
X95464286Y-146820000D01*
X95511905Y-146867619D01*
X95559524Y-146962857D01*
X95559524Y-147058095D01*
X95511905Y-147200952D01*
X94940476Y-147772381D01*
X95559524Y-147772381D01*
X95892857Y-146772381D02*
X96559524Y-146772381D01*
X96130952Y-147772381D01*
X69207143Y-147677143D02*
X69159524Y-147724762D01*
X69016667Y-147772381D01*
X68921429Y-147772381D01*
X68778571Y-147724762D01*
X68683333Y-147629524D01*
X68635714Y-147534286D01*
X68588095Y-147343810D01*
X68588095Y-147200952D01*
X68635714Y-147010476D01*
X68683333Y-146915238D01*
X68778571Y-146820000D01*
X68921429Y-146772381D01*
X69016667Y-146772381D01*
X69159524Y-146820000D01*
X69207143Y-146867619D01*
X69588095Y-146867619D02*
X69635714Y-146820000D01*
X69730952Y-146772381D01*
X69969048Y-146772381D01*
X70064286Y-146820000D01*
X70111905Y-146867619D01*
X70159524Y-146962857D01*
X70159524Y-147058095D01*
X70111905Y-147200952D01*
X69540476Y-147772381D01*
X70159524Y-147772381D01*
X70730952Y-147200952D02*
X70635714Y-147153333D01*
X70588095Y-147105714D01*
X70540476Y-147010476D01*
X70540476Y-146962857D01*
X70588095Y-146867619D01*
X70635714Y-146820000D01*
X70730952Y-146772381D01*
X70921429Y-146772381D01*
X71016667Y-146820000D01*
X71064286Y-146867619D01*
X71111905Y-146962857D01*
X71111905Y-147010476D01*
X71064286Y-147105714D01*
X71016667Y-147153333D01*
X70921429Y-147200952D01*
X70730952Y-147200952D01*
X70635714Y-147248571D01*
X70588095Y-147296190D01*
X70540476Y-147391429D01*
X70540476Y-147581905D01*
X70588095Y-147677143D01*
X70635714Y-147724762D01*
X70730952Y-147772381D01*
X70921429Y-147772381D01*
X71016667Y-147724762D01*
X71064286Y-147677143D01*
X71111905Y-147581905D01*
X71111905Y-147391429D01*
X71064286Y-147296190D01*
X71016667Y-147248571D01*
X70921429Y-147200952D01*
X81907143Y-147677143D02*
X81859524Y-147724762D01*
X81716667Y-147772381D01*
X81621429Y-147772381D01*
X81478571Y-147724762D01*
X81383333Y-147629524D01*
X81335714Y-147534286D01*
X81288095Y-147343810D01*
X81288095Y-147200952D01*
X81335714Y-147010476D01*
X81383333Y-146915238D01*
X81478571Y-146820000D01*
X81621429Y-146772381D01*
X81716667Y-146772381D01*
X81859524Y-146820000D01*
X81907143Y-146867619D01*
X82288095Y-146867619D02*
X82335714Y-146820000D01*
X82430952Y-146772381D01*
X82669048Y-146772381D01*
X82764286Y-146820000D01*
X82811905Y-146867619D01*
X82859524Y-146962857D01*
X82859524Y-147058095D01*
X82811905Y-147200952D01*
X82240476Y-147772381D01*
X82859524Y-147772381D01*
X83335714Y-147772381D02*
X83526190Y-147772381D01*
X83621429Y-147724762D01*
X83669048Y-147677143D01*
X83764286Y-147534286D01*
X83811905Y-147343810D01*
X83811905Y-146962857D01*
X83764286Y-146867619D01*
X83716667Y-146820000D01*
X83621429Y-146772381D01*
X83430952Y-146772381D01*
X83335714Y-146820000D01*
X83288095Y-146867619D01*
X83240476Y-146962857D01*
X83240476Y-147200952D01*
X83288095Y-147296190D01*
X83335714Y-147343810D01*
X83430952Y-147391429D01*
X83621429Y-147391429D01*
X83716667Y-147343810D01*
X83764286Y-147296190D01*
X83811905Y-147200952D01*
X144137143Y-76557143D02*
X144089524Y-76604762D01*
X143946667Y-76652381D01*
X143851429Y-76652381D01*
X143708571Y-76604762D01*
X143613333Y-76509524D01*
X143565714Y-76414286D01*
X143518095Y-76223810D01*
X143518095Y-76080952D01*
X143565714Y-75890476D01*
X143613333Y-75795238D01*
X143708571Y-75700000D01*
X143851429Y-75652381D01*
X143946667Y-75652381D01*
X144089524Y-75700000D01*
X144137143Y-75747619D01*
X144470476Y-75652381D02*
X145089524Y-75652381D01*
X144756190Y-76033333D01*
X144899048Y-76033333D01*
X144994286Y-76080952D01*
X145041905Y-76128571D01*
X145089524Y-76223810D01*
X145089524Y-76461905D01*
X145041905Y-76557143D01*
X144994286Y-76604762D01*
X144899048Y-76652381D01*
X144613333Y-76652381D01*
X144518095Y-76604762D01*
X144470476Y-76557143D01*
X145708571Y-75652381D02*
X145803810Y-75652381D01*
X145899048Y-75700000D01*
X145946667Y-75747619D01*
X145994286Y-75842857D01*
X146041905Y-76033333D01*
X146041905Y-76271429D01*
X145994286Y-76461905D01*
X145946667Y-76557143D01*
X145899048Y-76604762D01*
X145803810Y-76652381D01*
X145708571Y-76652381D01*
X145613333Y-76604762D01*
X145565714Y-76557143D01*
X145518095Y-76461905D01*
X145470476Y-76271429D01*
X145470476Y-76033333D01*
X145518095Y-75842857D01*
X145565714Y-75747619D01*
X145613333Y-75700000D01*
X145708571Y-75652381D01*
X31107143Y-178157143D02*
X31059524Y-178204762D01*
X30916667Y-178252381D01*
X30821429Y-178252381D01*
X30678571Y-178204762D01*
X30583333Y-178109524D01*
X30535714Y-178014286D01*
X30488095Y-177823810D01*
X30488095Y-177680952D01*
X30535714Y-177490476D01*
X30583333Y-177395238D01*
X30678571Y-177300000D01*
X30821429Y-177252381D01*
X30916667Y-177252381D01*
X31059524Y-177300000D01*
X31107143Y-177347619D01*
X31440476Y-177252381D02*
X32059524Y-177252381D01*
X31726190Y-177633333D01*
X31869048Y-177633333D01*
X31964286Y-177680952D01*
X32011905Y-177728571D01*
X32059524Y-177823810D01*
X32059524Y-178061905D01*
X32011905Y-178157143D01*
X31964286Y-178204762D01*
X31869048Y-178252381D01*
X31583333Y-178252381D01*
X31488095Y-178204762D01*
X31440476Y-178157143D01*
X33011905Y-178252381D02*
X32440476Y-178252381D01*
X32726190Y-178252381D02*
X32726190Y-177252381D01*
X32630952Y-177395238D01*
X32535714Y-177490476D01*
X32440476Y-177538095D01*
X43807143Y-178157143D02*
X43759524Y-178204762D01*
X43616667Y-178252381D01*
X43521429Y-178252381D01*
X43378571Y-178204762D01*
X43283333Y-178109524D01*
X43235714Y-178014286D01*
X43188095Y-177823810D01*
X43188095Y-177680952D01*
X43235714Y-177490476D01*
X43283333Y-177395238D01*
X43378571Y-177300000D01*
X43521429Y-177252381D01*
X43616667Y-177252381D01*
X43759524Y-177300000D01*
X43807143Y-177347619D01*
X44140476Y-177252381D02*
X44759524Y-177252381D01*
X44426190Y-177633333D01*
X44569048Y-177633333D01*
X44664286Y-177680952D01*
X44711905Y-177728571D01*
X44759524Y-177823810D01*
X44759524Y-178061905D01*
X44711905Y-178157143D01*
X44664286Y-178204762D01*
X44569048Y-178252381D01*
X44283333Y-178252381D01*
X44188095Y-178204762D01*
X44140476Y-178157143D01*
X45140476Y-177347619D02*
X45188095Y-177300000D01*
X45283333Y-177252381D01*
X45521429Y-177252381D01*
X45616667Y-177300000D01*
X45664286Y-177347619D01*
X45711905Y-177442857D01*
X45711905Y-177538095D01*
X45664286Y-177680952D01*
X45092857Y-178252381D01*
X45711905Y-178252381D01*
X56507143Y-178157143D02*
X56459524Y-178204762D01*
X56316667Y-178252381D01*
X56221429Y-178252381D01*
X56078571Y-178204762D01*
X55983333Y-178109524D01*
X55935714Y-178014286D01*
X55888095Y-177823810D01*
X55888095Y-177680952D01*
X55935714Y-177490476D01*
X55983333Y-177395238D01*
X56078571Y-177300000D01*
X56221429Y-177252381D01*
X56316667Y-177252381D01*
X56459524Y-177300000D01*
X56507143Y-177347619D01*
X56840476Y-177252381D02*
X57459524Y-177252381D01*
X57126190Y-177633333D01*
X57269048Y-177633333D01*
X57364286Y-177680952D01*
X57411905Y-177728571D01*
X57459524Y-177823810D01*
X57459524Y-178061905D01*
X57411905Y-178157143D01*
X57364286Y-178204762D01*
X57269048Y-178252381D01*
X56983333Y-178252381D01*
X56888095Y-178204762D01*
X56840476Y-178157143D01*
X57792857Y-177252381D02*
X58411905Y-177252381D01*
X58078571Y-177633333D01*
X58221429Y-177633333D01*
X58316667Y-177680952D01*
X58364286Y-177728571D01*
X58411905Y-177823810D01*
X58411905Y-178061905D01*
X58364286Y-178157143D01*
X58316667Y-178204762D01*
X58221429Y-178252381D01*
X57935714Y-178252381D01*
X57840476Y-178204762D01*
X57792857Y-178157143D01*
X69207143Y-178157143D02*
X69159524Y-178204762D01*
X69016667Y-178252381D01*
X68921429Y-178252381D01*
X68778571Y-178204762D01*
X68683333Y-178109524D01*
X68635714Y-178014286D01*
X68588095Y-177823810D01*
X68588095Y-177680952D01*
X68635714Y-177490476D01*
X68683333Y-177395238D01*
X68778571Y-177300000D01*
X68921429Y-177252381D01*
X69016667Y-177252381D01*
X69159524Y-177300000D01*
X69207143Y-177347619D01*
X69540476Y-177252381D02*
X70159524Y-177252381D01*
X69826190Y-177633333D01*
X69969048Y-177633333D01*
X70064286Y-177680952D01*
X70111905Y-177728571D01*
X70159524Y-177823810D01*
X70159524Y-178061905D01*
X70111905Y-178157143D01*
X70064286Y-178204762D01*
X69969048Y-178252381D01*
X69683333Y-178252381D01*
X69588095Y-178204762D01*
X69540476Y-178157143D01*
X71016667Y-177585714D02*
X71016667Y-178252381D01*
X70778571Y-177204762D02*
X70540476Y-177919048D01*
X71159524Y-177919048D01*
X81907143Y-178157143D02*
X81859524Y-178204762D01*
X81716667Y-178252381D01*
X81621429Y-178252381D01*
X81478571Y-178204762D01*
X81383333Y-178109524D01*
X81335714Y-178014286D01*
X81288095Y-177823810D01*
X81288095Y-177680952D01*
X81335714Y-177490476D01*
X81383333Y-177395238D01*
X81478571Y-177300000D01*
X81621429Y-177252381D01*
X81716667Y-177252381D01*
X81859524Y-177300000D01*
X81907143Y-177347619D01*
X82240476Y-177252381D02*
X82859524Y-177252381D01*
X82526190Y-177633333D01*
X82669048Y-177633333D01*
X82764286Y-177680952D01*
X82811905Y-177728571D01*
X82859524Y-177823810D01*
X82859524Y-178061905D01*
X82811905Y-178157143D01*
X82764286Y-178204762D01*
X82669048Y-178252381D01*
X82383333Y-178252381D01*
X82288095Y-178204762D01*
X82240476Y-178157143D01*
X83764286Y-177252381D02*
X83288095Y-177252381D01*
X83240476Y-177728571D01*
X83288095Y-177680952D01*
X83383333Y-177633333D01*
X83621429Y-177633333D01*
X83716667Y-177680952D01*
X83764286Y-177728571D01*
X83811905Y-177823810D01*
X83811905Y-178061905D01*
X83764286Y-178157143D01*
X83716667Y-178204762D01*
X83621429Y-178252381D01*
X83383333Y-178252381D01*
X83288095Y-178204762D01*
X83240476Y-178157143D01*
X94607143Y-178157143D02*
X94559524Y-178204762D01*
X94416667Y-178252381D01*
X94321429Y-178252381D01*
X94178571Y-178204762D01*
X94083333Y-178109524D01*
X94035714Y-178014286D01*
X93988095Y-177823810D01*
X93988095Y-177680952D01*
X94035714Y-177490476D01*
X94083333Y-177395238D01*
X94178571Y-177300000D01*
X94321429Y-177252381D01*
X94416667Y-177252381D01*
X94559524Y-177300000D01*
X94607143Y-177347619D01*
X94940476Y-177252381D02*
X95559524Y-177252381D01*
X95226190Y-177633333D01*
X95369048Y-177633333D01*
X95464286Y-177680952D01*
X95511905Y-177728571D01*
X95559524Y-177823810D01*
X95559524Y-178061905D01*
X95511905Y-178157143D01*
X95464286Y-178204762D01*
X95369048Y-178252381D01*
X95083333Y-178252381D01*
X94988095Y-178204762D01*
X94940476Y-178157143D01*
X96416667Y-177252381D02*
X96226190Y-177252381D01*
X96130952Y-177300000D01*
X96083333Y-177347619D01*
X95988095Y-177490476D01*
X95940476Y-177680952D01*
X95940476Y-178061905D01*
X95988095Y-178157143D01*
X96035714Y-178204762D01*
X96130952Y-178252381D01*
X96321429Y-178252381D01*
X96416667Y-178204762D01*
X96464286Y-178157143D01*
X96511905Y-178061905D01*
X96511905Y-177823810D01*
X96464286Y-177728571D01*
X96416667Y-177680952D01*
X96321429Y-177633333D01*
X96130952Y-177633333D01*
X96035714Y-177680952D01*
X95988095Y-177728571D01*
X95940476Y-177823810D01*
X107307143Y-178157143D02*
X107259524Y-178204762D01*
X107116667Y-178252381D01*
X107021429Y-178252381D01*
X106878571Y-178204762D01*
X106783333Y-178109524D01*
X106735714Y-178014286D01*
X106688095Y-177823810D01*
X106688095Y-177680952D01*
X106735714Y-177490476D01*
X106783333Y-177395238D01*
X106878571Y-177300000D01*
X107021429Y-177252381D01*
X107116667Y-177252381D01*
X107259524Y-177300000D01*
X107307143Y-177347619D01*
X107640476Y-177252381D02*
X108259524Y-177252381D01*
X107926190Y-177633333D01*
X108069048Y-177633333D01*
X108164286Y-177680952D01*
X108211905Y-177728571D01*
X108259524Y-177823810D01*
X108259524Y-178061905D01*
X108211905Y-178157143D01*
X108164286Y-178204762D01*
X108069048Y-178252381D01*
X107783333Y-178252381D01*
X107688095Y-178204762D01*
X107640476Y-178157143D01*
X108592857Y-177252381D02*
X109259524Y-177252381D01*
X108830952Y-178252381D01*
X120007143Y-178157143D02*
X119959524Y-178204762D01*
X119816667Y-178252381D01*
X119721429Y-178252381D01*
X119578571Y-178204762D01*
X119483333Y-178109524D01*
X119435714Y-178014286D01*
X119388095Y-177823810D01*
X119388095Y-177680952D01*
X119435714Y-177490476D01*
X119483333Y-177395238D01*
X119578571Y-177300000D01*
X119721429Y-177252381D01*
X119816667Y-177252381D01*
X119959524Y-177300000D01*
X120007143Y-177347619D01*
X120340476Y-177252381D02*
X120959524Y-177252381D01*
X120626190Y-177633333D01*
X120769048Y-177633333D01*
X120864286Y-177680952D01*
X120911905Y-177728571D01*
X120959524Y-177823810D01*
X120959524Y-178061905D01*
X120911905Y-178157143D01*
X120864286Y-178204762D01*
X120769048Y-178252381D01*
X120483333Y-178252381D01*
X120388095Y-178204762D01*
X120340476Y-178157143D01*
X121530952Y-177680952D02*
X121435714Y-177633333D01*
X121388095Y-177585714D01*
X121340476Y-177490476D01*
X121340476Y-177442857D01*
X121388095Y-177347619D01*
X121435714Y-177300000D01*
X121530952Y-177252381D01*
X121721429Y-177252381D01*
X121816667Y-177300000D01*
X121864286Y-177347619D01*
X121911905Y-177442857D01*
X121911905Y-177490476D01*
X121864286Y-177585714D01*
X121816667Y-177633333D01*
X121721429Y-177680952D01*
X121530952Y-177680952D01*
X121435714Y-177728571D01*
X121388095Y-177776190D01*
X121340476Y-177871429D01*
X121340476Y-178061905D01*
X121388095Y-178157143D01*
X121435714Y-178204762D01*
X121530952Y-178252381D01*
X121721429Y-178252381D01*
X121816667Y-178204762D01*
X121864286Y-178157143D01*
X121911905Y-178061905D01*
X121911905Y-177871429D01*
X121864286Y-177776190D01*
X121816667Y-177728571D01*
X121721429Y-177680952D01*
X69111905Y-211182381D02*
X69111905Y-210182381D01*
X69350000Y-210182381D01*
X69492858Y-210230000D01*
X69588096Y-210325238D01*
X69635715Y-210420476D01*
X69683334Y-210610952D01*
X69683334Y-210753810D01*
X69635715Y-210944286D01*
X69588096Y-211039524D01*
X69492858Y-211134762D01*
X69350000Y-211182381D01*
X69111905Y-211182381D01*
X70635715Y-211182381D02*
X70064286Y-211182381D01*
X70350000Y-211182381D02*
X70350000Y-210182381D01*
X70254762Y-210325238D01*
X70159524Y-210420476D01*
X70064286Y-210468095D01*
X89431905Y-211182381D02*
X89431905Y-210182381D01*
X89670000Y-210182381D01*
X89812858Y-210230000D01*
X89908096Y-210325238D01*
X89955715Y-210420476D01*
X90003334Y-210610952D01*
X90003334Y-210753810D01*
X89955715Y-210944286D01*
X89908096Y-211039524D01*
X89812858Y-211134762D01*
X89670000Y-211182381D01*
X89431905Y-211182381D01*
X90384286Y-210277619D02*
X90431905Y-210230000D01*
X90527143Y-210182381D01*
X90765239Y-210182381D01*
X90860477Y-210230000D01*
X90908096Y-210277619D01*
X90955715Y-210372857D01*
X90955715Y-210468095D01*
X90908096Y-210610952D01*
X90336667Y-211182381D01*
X90955715Y-211182381D01*
X83081905Y-23312381D02*
X83081905Y-22312381D01*
X83462858Y-22312381D01*
X83558096Y-22360000D01*
X83605715Y-22407619D01*
X83653334Y-22502857D01*
X83653334Y-22645714D01*
X83605715Y-22740952D01*
X83558096Y-22788571D01*
X83462858Y-22836190D01*
X83081905Y-22836190D01*
X84605715Y-23312381D02*
X84034286Y-23312381D01*
X84320000Y-23312381D02*
X84320000Y-22312381D01*
X84224762Y-22455238D01*
X84129524Y-22550476D01*
X84034286Y-22598095D01*
X111021905Y-23312381D02*
X111021905Y-22312381D01*
X111402858Y-22312381D01*
X111498096Y-22360000D01*
X111545715Y-22407619D01*
X111593334Y-22502857D01*
X111593334Y-22645714D01*
X111545715Y-22740952D01*
X111498096Y-22788571D01*
X111402858Y-22836190D01*
X111021905Y-22836190D01*
X111974286Y-22407619D02*
X112021905Y-22360000D01*
X112117143Y-22312381D01*
X112355239Y-22312381D01*
X112450477Y-22360000D01*
X112498096Y-22407619D01*
X112545715Y-22502857D01*
X112545715Y-22598095D01*
X112498096Y-22740952D01*
X111926667Y-23312381D01*
X112545715Y-23312381D01*
X70381905Y-28392381D02*
X70381905Y-27392381D01*
X70762858Y-27392381D01*
X70858096Y-27440000D01*
X70905715Y-27487619D01*
X70953334Y-27582857D01*
X70953334Y-27725714D01*
X70905715Y-27820952D01*
X70858096Y-27868571D01*
X70762858Y-27916190D01*
X70381905Y-27916190D01*
X71286667Y-27392381D02*
X71905715Y-27392381D01*
X71572381Y-27773333D01*
X71715239Y-27773333D01*
X71810477Y-27820952D01*
X71858096Y-27868571D01*
X71905715Y-27963810D01*
X71905715Y-28201905D01*
X71858096Y-28297143D01*
X71810477Y-28344762D01*
X71715239Y-28392381D01*
X71429524Y-28392381D01*
X71334286Y-28344762D01*
X71286667Y-28297143D01*
X56983334Y-152852381D02*
X56650000Y-152376190D01*
X56411905Y-152852381D02*
X56411905Y-151852381D01*
X56792858Y-151852381D01*
X56888096Y-151900000D01*
X56935715Y-151947619D01*
X56983334Y-152042857D01*
X56983334Y-152185714D01*
X56935715Y-152280952D01*
X56888096Y-152328571D01*
X56792858Y-152376190D01*
X56411905Y-152376190D01*
X57935715Y-152852381D02*
X57364286Y-152852381D01*
X57650000Y-152852381D02*
X57650000Y-151852381D01*
X57554762Y-151995238D01*
X57459524Y-152090476D01*
X57364286Y-152138095D01*
X56983334Y-157932381D02*
X56650000Y-157456190D01*
X56411905Y-157932381D02*
X56411905Y-156932381D01*
X56792858Y-156932381D01*
X56888096Y-156980000D01*
X56935715Y-157027619D01*
X56983334Y-157122857D01*
X56983334Y-157265714D01*
X56935715Y-157360952D01*
X56888096Y-157408571D01*
X56792858Y-157456190D01*
X56411905Y-157456190D01*
X57840477Y-157265714D02*
X57840477Y-157932381D01*
X57602381Y-156884762D02*
X57364286Y-157599048D01*
X57983334Y-157599048D01*
X73493334Y-204922381D02*
X73160000Y-204446190D01*
X72921905Y-204922381D02*
X72921905Y-203922381D01*
X73302858Y-203922381D01*
X73398096Y-203970000D01*
X73445715Y-204017619D01*
X73493334Y-204112857D01*
X73493334Y-204255714D01*
X73445715Y-204350952D01*
X73398096Y-204398571D01*
X73302858Y-204446190D01*
X72921905Y-204446190D01*
X74350477Y-203922381D02*
X74160000Y-203922381D01*
X74064762Y-203970000D01*
X74017143Y-204017619D01*
X73921905Y-204160476D01*
X73874286Y-204350952D01*
X73874286Y-204731905D01*
X73921905Y-204827143D01*
X73969524Y-204874762D01*
X74064762Y-204922381D01*
X74255239Y-204922381D01*
X74350477Y-204874762D01*
X74398096Y-204827143D01*
X74445715Y-204731905D01*
X74445715Y-204493810D01*
X74398096Y-204398571D01*
X74350477Y-204350952D01*
X74255239Y-204303333D01*
X74064762Y-204303333D01*
X73969524Y-204350952D01*
X73921905Y-204398571D01*
X73874286Y-204493810D01*
X146677143Y-129992381D02*
X146343809Y-129516190D01*
X146105714Y-129992381D02*
X146105714Y-128992381D01*
X146486667Y-128992381D01*
X146581905Y-129040000D01*
X146629524Y-129087619D01*
X146677143Y-129182857D01*
X146677143Y-129325714D01*
X146629524Y-129420952D01*
X146581905Y-129468571D01*
X146486667Y-129516190D01*
X146105714Y-129516190D01*
X147058095Y-129087619D02*
X147105714Y-129040000D01*
X147200952Y-128992381D01*
X147439048Y-128992381D01*
X147534286Y-129040000D01*
X147581905Y-129087619D01*
X147629524Y-129182857D01*
X147629524Y-129278095D01*
X147581905Y-129420952D01*
X147010476Y-129992381D01*
X147629524Y-129992381D01*
X148248571Y-128992381D02*
X148343810Y-128992381D01*
X148439048Y-129040000D01*
X148486667Y-129087619D01*
X148534286Y-129182857D01*
X148581905Y-129373333D01*
X148581905Y-129611429D01*
X148534286Y-129801905D01*
X148486667Y-129897143D01*
X148439048Y-129944762D01*
X148343810Y-129992381D01*
X148248571Y-129992381D01*
X148153333Y-129944762D01*
X148105714Y-129897143D01*
X148058095Y-129801905D01*
X148010476Y-129611429D01*
X148010476Y-129373333D01*
X148058095Y-129182857D01*
X148105714Y-129087619D01*
X148153333Y-129040000D01*
X148248571Y-128992381D01*
X95877143Y-204922381D02*
X95543809Y-204446190D01*
X95305714Y-204922381D02*
X95305714Y-203922381D01*
X95686667Y-203922381D01*
X95781905Y-203970000D01*
X95829524Y-204017619D01*
X95877143Y-204112857D01*
X95877143Y-204255714D01*
X95829524Y-204350952D01*
X95781905Y-204398571D01*
X95686667Y-204446190D01*
X95305714Y-204446190D01*
X96258095Y-204017619D02*
X96305714Y-203970000D01*
X96400952Y-203922381D01*
X96639048Y-203922381D01*
X96734286Y-203970000D01*
X96781905Y-204017619D01*
X96829524Y-204112857D01*
X96829524Y-204208095D01*
X96781905Y-204350952D01*
X96210476Y-204922381D01*
X96829524Y-204922381D01*
X97734286Y-203922381D02*
X97258095Y-203922381D01*
X97210476Y-204398571D01*
X97258095Y-204350952D01*
X97353333Y-204303333D01*
X97591429Y-204303333D01*
X97686667Y-204350952D01*
X97734286Y-204398571D01*
X97781905Y-204493810D01*
X97781905Y-204731905D01*
X97734286Y-204827143D01*
X97686667Y-204874762D01*
X97591429Y-204922381D01*
X97353333Y-204922381D01*
X97258095Y-204874762D01*
X97210476Y-204827143D01*
X112363334Y-151582381D02*
X112030000Y-151106190D01*
X111791905Y-151582381D02*
X111791905Y-150582381D01*
X112172858Y-150582381D01*
X112268096Y-150630000D01*
X112315715Y-150677619D01*
X112363334Y-150772857D01*
X112363334Y-150915714D01*
X112315715Y-151010952D01*
X112268096Y-151058571D01*
X112172858Y-151106190D01*
X111791905Y-151106190D01*
X113363334Y-151582381D02*
X113030000Y-151106190D01*
X112791905Y-151582381D02*
X112791905Y-150582381D01*
X113172858Y-150582381D01*
X113268096Y-150630000D01*
X113315715Y-150677619D01*
X113363334Y-150772857D01*
X113363334Y-150915714D01*
X113315715Y-151010952D01*
X113268096Y-151058571D01*
X113172858Y-151106190D01*
X112791905Y-151106190D01*
X114315715Y-151582381D02*
X113744286Y-151582381D01*
X114030000Y-151582381D02*
X114030000Y-150582381D01*
X113934762Y-150725238D01*
X113839524Y-150820476D01*
X113744286Y-150868095D01*
X85693334Y-122372381D02*
X85360000Y-121896190D01*
X85121905Y-122372381D02*
X85121905Y-121372381D01*
X85502858Y-121372381D01*
X85598096Y-121420000D01*
X85645715Y-121467619D01*
X85693334Y-121562857D01*
X85693334Y-121705714D01*
X85645715Y-121800952D01*
X85598096Y-121848571D01*
X85502858Y-121896190D01*
X85121905Y-121896190D01*
X86693334Y-122372381D02*
X86360000Y-121896190D01*
X86121905Y-122372381D02*
X86121905Y-121372381D01*
X86502858Y-121372381D01*
X86598096Y-121420000D01*
X86645715Y-121467619D01*
X86693334Y-121562857D01*
X86693334Y-121705714D01*
X86645715Y-121800952D01*
X86598096Y-121848571D01*
X86502858Y-121896190D01*
X86121905Y-121896190D01*
X87074286Y-121467619D02*
X87121905Y-121420000D01*
X87217143Y-121372381D01*
X87455239Y-121372381D01*
X87550477Y-121420000D01*
X87598096Y-121467619D01*
X87645715Y-121562857D01*
X87645715Y-121658095D01*
X87598096Y-121800952D01*
X87026667Y-122372381D01*
X87645715Y-122372381D01*
X81883334Y-122372381D02*
X81550000Y-121896190D01*
X81311905Y-122372381D02*
X81311905Y-121372381D01*
X81692858Y-121372381D01*
X81788096Y-121420000D01*
X81835715Y-121467619D01*
X81883334Y-121562857D01*
X81883334Y-121705714D01*
X81835715Y-121800952D01*
X81788096Y-121848571D01*
X81692858Y-121896190D01*
X81311905Y-121896190D01*
X82883334Y-122372381D02*
X82550000Y-121896190D01*
X82311905Y-122372381D02*
X82311905Y-121372381D01*
X82692858Y-121372381D01*
X82788096Y-121420000D01*
X82835715Y-121467619D01*
X82883334Y-121562857D01*
X82883334Y-121705714D01*
X82835715Y-121800952D01*
X82788096Y-121848571D01*
X82692858Y-121896190D01*
X82311905Y-121896190D01*
X83216667Y-121372381D02*
X83835715Y-121372381D01*
X83502381Y-121753333D01*
X83645239Y-121753333D01*
X83740477Y-121800952D01*
X83788096Y-121848571D01*
X83835715Y-121943810D01*
X83835715Y-122181905D01*
X83788096Y-122277143D01*
X83740477Y-122324762D01*
X83645239Y-122372381D01*
X83359524Y-122372381D01*
X83264286Y-122324762D01*
X83216667Y-122277143D01*
X78073334Y-122372381D02*
X77740000Y-121896190D01*
X77501905Y-122372381D02*
X77501905Y-121372381D01*
X77882858Y-121372381D01*
X77978096Y-121420000D01*
X78025715Y-121467619D01*
X78073334Y-121562857D01*
X78073334Y-121705714D01*
X78025715Y-121800952D01*
X77978096Y-121848571D01*
X77882858Y-121896190D01*
X77501905Y-121896190D01*
X79073334Y-122372381D02*
X78740000Y-121896190D01*
X78501905Y-122372381D02*
X78501905Y-121372381D01*
X78882858Y-121372381D01*
X78978096Y-121420000D01*
X79025715Y-121467619D01*
X79073334Y-121562857D01*
X79073334Y-121705714D01*
X79025715Y-121800952D01*
X78978096Y-121848571D01*
X78882858Y-121896190D01*
X78501905Y-121896190D01*
X79930477Y-121705714D02*
X79930477Y-122372381D01*
X79692381Y-121324762D02*
X79454286Y-122039048D01*
X80073334Y-122039048D01*
X58406667Y-211234762D02*
X58549524Y-211282381D01*
X58787620Y-211282381D01*
X58882858Y-211234762D01*
X58930477Y-211187143D01*
X58978096Y-211091905D01*
X58978096Y-210996667D01*
X58930477Y-210901429D01*
X58882858Y-210853810D01*
X58787620Y-210806190D01*
X58597143Y-210758571D01*
X58501905Y-210710952D01*
X58454286Y-210663333D01*
X58406667Y-210568095D01*
X58406667Y-210472857D01*
X58454286Y-210377619D01*
X58501905Y-210330000D01*
X58597143Y-210282381D01*
X58835239Y-210282381D01*
X58978096Y-210330000D01*
X59311429Y-210282381D02*
X59549524Y-211282381D01*
X59740001Y-210568095D01*
X59930477Y-211282381D01*
X60168572Y-210282381D01*
X61073334Y-211282381D02*
X60501905Y-211282381D01*
X60787619Y-211282381D02*
X60787619Y-210282381D01*
X60692381Y-210425238D01*
X60597143Y-210520476D01*
X60501905Y-210568095D01*
X48246667Y-211234762D02*
X48389524Y-211282381D01*
X48627620Y-211282381D01*
X48722858Y-211234762D01*
X48770477Y-211187143D01*
X48818096Y-211091905D01*
X48818096Y-210996667D01*
X48770477Y-210901429D01*
X48722858Y-210853810D01*
X48627620Y-210806190D01*
X48437143Y-210758571D01*
X48341905Y-210710952D01*
X48294286Y-210663333D01*
X48246667Y-210568095D01*
X48246667Y-210472857D01*
X48294286Y-210377619D01*
X48341905Y-210330000D01*
X48437143Y-210282381D01*
X48675239Y-210282381D01*
X48818096Y-210330000D01*
X49151429Y-210282381D02*
X49389524Y-211282381D01*
X49580001Y-210568095D01*
X49770477Y-211282381D01*
X50008572Y-210282381D01*
X50341905Y-210377619D02*
X50389524Y-210330000D01*
X50484762Y-210282381D01*
X50722858Y-210282381D01*
X50818096Y-210330000D01*
X50865715Y-210377619D01*
X50913334Y-210472857D01*
X50913334Y-210568095D01*
X50865715Y-210710952D01*
X50294286Y-211282381D01*
X50913334Y-211282381D01*
X38086667Y-211234762D02*
X38229524Y-211282381D01*
X38467620Y-211282381D01*
X38562858Y-211234762D01*
X38610477Y-211187143D01*
X38658096Y-211091905D01*
X38658096Y-210996667D01*
X38610477Y-210901429D01*
X38562858Y-210853810D01*
X38467620Y-210806190D01*
X38277143Y-210758571D01*
X38181905Y-210710952D01*
X38134286Y-210663333D01*
X38086667Y-210568095D01*
X38086667Y-210472857D01*
X38134286Y-210377619D01*
X38181905Y-210330000D01*
X38277143Y-210282381D01*
X38515239Y-210282381D01*
X38658096Y-210330000D01*
X38991429Y-210282381D02*
X39229524Y-211282381D01*
X39420001Y-210568095D01*
X39610477Y-211282381D01*
X39848572Y-210282381D01*
X40134286Y-210282381D02*
X40753334Y-210282381D01*
X40420000Y-210663333D01*
X40562858Y-210663333D01*
X40658096Y-210710952D01*
X40705715Y-210758571D01*
X40753334Y-210853810D01*
X40753334Y-211091905D01*
X40705715Y-211187143D01*
X40658096Y-211234762D01*
X40562858Y-211282381D01*
X40277143Y-211282381D01*
X40181905Y-211234762D01*
X40134286Y-211187143D01*
X99046667Y-211234762D02*
X99189524Y-211282381D01*
X99427620Y-211282381D01*
X99522858Y-211234762D01*
X99570477Y-211187143D01*
X99618096Y-211091905D01*
X99618096Y-210996667D01*
X99570477Y-210901429D01*
X99522858Y-210853810D01*
X99427620Y-210806190D01*
X99237143Y-210758571D01*
X99141905Y-210710952D01*
X99094286Y-210663333D01*
X99046667Y-210568095D01*
X99046667Y-210472857D01*
X99094286Y-210377619D01*
X99141905Y-210330000D01*
X99237143Y-210282381D01*
X99475239Y-210282381D01*
X99618096Y-210330000D01*
X99951429Y-210282381D02*
X100189524Y-211282381D01*
X100380001Y-210568095D01*
X100570477Y-211282381D01*
X100808572Y-210282381D01*
X101618096Y-210615714D02*
X101618096Y-211282381D01*
X101380000Y-210234762D02*
X101141905Y-210949048D01*
X101760953Y-210949048D01*
X78726667Y-211234762D02*
X78869524Y-211282381D01*
X79107620Y-211282381D01*
X79202858Y-211234762D01*
X79250477Y-211187143D01*
X79298096Y-211091905D01*
X79298096Y-210996667D01*
X79250477Y-210901429D01*
X79202858Y-210853810D01*
X79107620Y-210806190D01*
X78917143Y-210758571D01*
X78821905Y-210710952D01*
X78774286Y-210663333D01*
X78726667Y-210568095D01*
X78726667Y-210472857D01*
X78774286Y-210377619D01*
X78821905Y-210330000D01*
X78917143Y-210282381D01*
X79155239Y-210282381D01*
X79298096Y-210330000D01*
X79631429Y-210282381D02*
X79869524Y-211282381D01*
X80060001Y-210568095D01*
X80250477Y-211282381D01*
X80488572Y-210282381D01*
X81345715Y-210282381D02*
X80869524Y-210282381D01*
X80821905Y-210758571D01*
X80869524Y-210710952D01*
X80964762Y-210663333D01*
X81202858Y-210663333D01*
X81298096Y-210710952D01*
X81345715Y-210758571D01*
X81393334Y-210853810D01*
X81393334Y-211091905D01*
X81345715Y-211187143D01*
X81298096Y-211234762D01*
X81202858Y-211282381D01*
X80964762Y-211282381D01*
X80869524Y-211234762D01*
X80821905Y-211187143D01*
X39878095Y-150582381D02*
X39878095Y-151391905D01*
X39925714Y-151487143D01*
X39973333Y-151534762D01*
X40068571Y-151582381D01*
X40259048Y-151582381D01*
X40354286Y-151534762D01*
X40401905Y-151487143D01*
X40449524Y-151391905D01*
X40449524Y-150582381D01*
X41449524Y-151582381D02*
X40878095Y-151582381D01*
X41163809Y-151582381D02*
X41163809Y-150582381D01*
X41068571Y-150725238D01*
X40973333Y-150820476D01*
X40878095Y-150868095D01*
X30988095Y-122642381D02*
X30988095Y-123451905D01*
X31035714Y-123547143D01*
X31083333Y-123594762D01*
X31178571Y-123642381D01*
X31369048Y-123642381D01*
X31464286Y-123594762D01*
X31511905Y-123547143D01*
X31559524Y-123451905D01*
X31559524Y-122642381D01*
X31988095Y-122737619D02*
X32035714Y-122690000D01*
X32130952Y-122642381D01*
X32369048Y-122642381D01*
X32464286Y-122690000D01*
X32511905Y-122737619D01*
X32559524Y-122832857D01*
X32559524Y-122928095D01*
X32511905Y-123070952D01*
X31940476Y-123642381D01*
X32559524Y-123642381D01*
X39878095Y-122642381D02*
X39878095Y-123451905D01*
X39925714Y-123547143D01*
X39973333Y-123594762D01*
X40068571Y-123642381D01*
X40259048Y-123642381D01*
X40354286Y-123594762D01*
X40401905Y-123547143D01*
X40449524Y-123451905D01*
X40449524Y-122642381D01*
X40830476Y-122642381D02*
X41449524Y-122642381D01*
X41116190Y-123023333D01*
X41259048Y-123023333D01*
X41354286Y-123070952D01*
X41401905Y-123118571D01*
X41449524Y-123213810D01*
X41449524Y-123451905D01*
X41401905Y-123547143D01*
X41354286Y-123594762D01*
X41259048Y-123642381D01*
X40973333Y-123642381D01*
X40878095Y-123594762D01*
X40830476Y-123547143D01*
X27178095Y-181062381D02*
X27178095Y-181871905D01*
X27225714Y-181967143D01*
X27273333Y-182014762D01*
X27368571Y-182062381D01*
X27559048Y-182062381D01*
X27654286Y-182014762D01*
X27701905Y-181967143D01*
X27749524Y-181871905D01*
X27749524Y-181062381D01*
X28654286Y-181395714D02*
X28654286Y-182062381D01*
X28416190Y-181014762D02*
X28178095Y-181729048D01*
X28797143Y-181729048D01*
X27178095Y-150582381D02*
X27178095Y-151391905D01*
X27225714Y-151487143D01*
X27273333Y-151534762D01*
X27368571Y-151582381D01*
X27559048Y-151582381D01*
X27654286Y-151534762D01*
X27701905Y-151487143D01*
X27749524Y-151391905D01*
X27749524Y-150582381D01*
X28701905Y-150582381D02*
X28225714Y-150582381D01*
X28178095Y-151058571D01*
X28225714Y-151010952D01*
X28320952Y-150963333D01*
X28559048Y-150963333D01*
X28654286Y-151010952D01*
X28701905Y-151058571D01*
X28749524Y-151153810D01*
X28749524Y-151391905D01*
X28701905Y-151487143D01*
X28654286Y-151534762D01*
X28559048Y-151582381D01*
X28320952Y-151582381D01*
X28225714Y-151534762D01*
X28178095Y-151487143D01*
X52578095Y-122642381D02*
X52578095Y-123451905D01*
X52625714Y-123547143D01*
X52673333Y-123594762D01*
X52768571Y-123642381D01*
X52959048Y-123642381D01*
X53054286Y-123594762D01*
X53101905Y-123547143D01*
X53149524Y-123451905D01*
X53149524Y-122642381D01*
X53530476Y-122642381D02*
X54197143Y-122642381D01*
X53768571Y-123642381D01*
X65278095Y-150582381D02*
X65278095Y-151391905D01*
X65325714Y-151487143D01*
X65373333Y-151534762D01*
X65468571Y-151582381D01*
X65659048Y-151582381D01*
X65754286Y-151534762D01*
X65801905Y-151487143D01*
X65849524Y-151391905D01*
X65849524Y-150582381D01*
X66468571Y-151010952D02*
X66373333Y-150963333D01*
X66325714Y-150915714D01*
X66278095Y-150820476D01*
X66278095Y-150772857D01*
X66325714Y-150677619D01*
X66373333Y-150630000D01*
X66468571Y-150582381D01*
X66659048Y-150582381D01*
X66754286Y-150630000D01*
X66801905Y-150677619D01*
X66849524Y-150772857D01*
X66849524Y-150820476D01*
X66801905Y-150915714D01*
X66754286Y-150963333D01*
X66659048Y-151010952D01*
X66468571Y-151010952D01*
X66373333Y-151058571D01*
X66325714Y-151106190D01*
X66278095Y-151201429D01*
X66278095Y-151391905D01*
X66325714Y-151487143D01*
X66373333Y-151534762D01*
X66468571Y-151582381D01*
X66659048Y-151582381D01*
X66754286Y-151534762D01*
X66801905Y-151487143D01*
X66849524Y-151391905D01*
X66849524Y-151201429D01*
X66801905Y-151106190D01*
X66754286Y-151058571D01*
X66659048Y-151010952D01*
X52578095Y-181062381D02*
X52578095Y-181871905D01*
X52625714Y-181967143D01*
X52673333Y-182014762D01*
X52768571Y-182062381D01*
X52959048Y-182062381D01*
X53054286Y-182014762D01*
X53101905Y-181967143D01*
X53149524Y-181871905D01*
X53149524Y-181062381D01*
X53673333Y-182062381D02*
X53863809Y-182062381D01*
X53959048Y-182014762D01*
X54006667Y-181967143D01*
X54101905Y-181824286D01*
X54149524Y-181633810D01*
X54149524Y-181252857D01*
X54101905Y-181157619D01*
X54054286Y-181110000D01*
X53959048Y-181062381D01*
X53768571Y-181062381D01*
X53673333Y-181110000D01*
X53625714Y-181157619D01*
X53578095Y-181252857D01*
X53578095Y-181490952D01*
X53625714Y-181586190D01*
X53673333Y-181633810D01*
X53768571Y-181681429D01*
X53959048Y-181681429D01*
X54054286Y-181633810D01*
X54101905Y-181586190D01*
X54149524Y-181490952D01*
X64801905Y-181062381D02*
X64801905Y-181871905D01*
X64849524Y-181967143D01*
X64897143Y-182014762D01*
X64992381Y-182062381D01*
X65182858Y-182062381D01*
X65278096Y-182014762D01*
X65325715Y-181967143D01*
X65373334Y-181871905D01*
X65373334Y-181062381D01*
X66373334Y-182062381D02*
X65801905Y-182062381D01*
X66087619Y-182062381D02*
X66087619Y-181062381D01*
X65992381Y-181205238D01*
X65897143Y-181300476D01*
X65801905Y-181348095D01*
X66992381Y-181062381D02*
X67087620Y-181062381D01*
X67182858Y-181110000D01*
X67230477Y-181157619D01*
X67278096Y-181252857D01*
X67325715Y-181443333D01*
X67325715Y-181681429D01*
X67278096Y-181871905D01*
X67230477Y-181967143D01*
X67182858Y-182014762D01*
X67087620Y-182062381D01*
X66992381Y-182062381D01*
X66897143Y-182014762D01*
X66849524Y-181967143D01*
X66801905Y-181871905D01*
X66754286Y-181681429D01*
X66754286Y-181443333D01*
X66801905Y-181252857D01*
X66849524Y-181157619D01*
X66897143Y-181110000D01*
X66992381Y-181062381D01*
X77501905Y-181062381D02*
X77501905Y-181871905D01*
X77549524Y-181967143D01*
X77597143Y-182014762D01*
X77692381Y-182062381D01*
X77882858Y-182062381D01*
X77978096Y-182014762D01*
X78025715Y-181967143D01*
X78073334Y-181871905D01*
X78073334Y-181062381D01*
X79073334Y-182062381D02*
X78501905Y-182062381D01*
X78787619Y-182062381D02*
X78787619Y-181062381D01*
X78692381Y-181205238D01*
X78597143Y-181300476D01*
X78501905Y-181348095D01*
X79549524Y-182062381D02*
X79740000Y-182062381D01*
X79835239Y-182014762D01*
X79882858Y-181967143D01*
X79978096Y-181824286D01*
X80025715Y-181633810D01*
X80025715Y-181252857D01*
X79978096Y-181157619D01*
X79930477Y-181110000D01*
X79835239Y-181062381D01*
X79644762Y-181062381D01*
X79549524Y-181110000D01*
X79501905Y-181157619D01*
X79454286Y-181252857D01*
X79454286Y-181490952D01*
X79501905Y-181586190D01*
X79549524Y-181633810D01*
X79644762Y-181681429D01*
X79835239Y-181681429D01*
X79930477Y-181633810D01*
X79978096Y-181586190D01*
X80025715Y-181490952D01*
X90201905Y-181062381D02*
X90201905Y-181871905D01*
X90249524Y-181967143D01*
X90297143Y-182014762D01*
X90392381Y-182062381D01*
X90582858Y-182062381D01*
X90678096Y-182014762D01*
X90725715Y-181967143D01*
X90773334Y-181871905D01*
X90773334Y-181062381D01*
X91201905Y-181157619D02*
X91249524Y-181110000D01*
X91344762Y-181062381D01*
X91582858Y-181062381D01*
X91678096Y-181110000D01*
X91725715Y-181157619D01*
X91773334Y-181252857D01*
X91773334Y-181348095D01*
X91725715Y-181490952D01*
X91154286Y-182062381D01*
X91773334Y-182062381D01*
X92392381Y-181062381D02*
X92487620Y-181062381D01*
X92582858Y-181110000D01*
X92630477Y-181157619D01*
X92678096Y-181252857D01*
X92725715Y-181443333D01*
X92725715Y-181681429D01*
X92678096Y-181871905D01*
X92630477Y-181967143D01*
X92582858Y-182014762D01*
X92487620Y-182062381D01*
X92392381Y-182062381D01*
X92297143Y-182014762D01*
X92249524Y-181967143D01*
X92201905Y-181871905D01*
X92154286Y-181681429D01*
X92154286Y-181443333D01*
X92201905Y-181252857D01*
X92249524Y-181157619D01*
X92297143Y-181110000D01*
X92392381Y-181062381D01*
X102901905Y-122642381D02*
X102901905Y-123451905D01*
X102949524Y-123547143D01*
X102997143Y-123594762D01*
X103092381Y-123642381D01*
X103282858Y-123642381D01*
X103378096Y-123594762D01*
X103425715Y-123547143D01*
X103473334Y-123451905D01*
X103473334Y-122642381D01*
X103901905Y-122737619D02*
X103949524Y-122690000D01*
X104044762Y-122642381D01*
X104282858Y-122642381D01*
X104378096Y-122690000D01*
X104425715Y-122737619D01*
X104473334Y-122832857D01*
X104473334Y-122928095D01*
X104425715Y-123070952D01*
X103854286Y-123642381D01*
X104473334Y-123642381D01*
X105425715Y-123642381D02*
X104854286Y-123642381D01*
X105140000Y-123642381D02*
X105140000Y-122642381D01*
X105044762Y-122785238D01*
X104949524Y-122880476D01*
X104854286Y-122928095D01*
X90201905Y-150582381D02*
X90201905Y-151391905D01*
X90249524Y-151487143D01*
X90297143Y-151534762D01*
X90392381Y-151582381D01*
X90582858Y-151582381D01*
X90678096Y-151534762D01*
X90725715Y-151487143D01*
X90773334Y-151391905D01*
X90773334Y-150582381D01*
X91201905Y-150677619D02*
X91249524Y-150630000D01*
X91344762Y-150582381D01*
X91582858Y-150582381D01*
X91678096Y-150630000D01*
X91725715Y-150677619D01*
X91773334Y-150772857D01*
X91773334Y-150868095D01*
X91725715Y-151010952D01*
X91154286Y-151582381D01*
X91773334Y-151582381D01*
X92154286Y-150677619D02*
X92201905Y-150630000D01*
X92297143Y-150582381D01*
X92535239Y-150582381D01*
X92630477Y-150630000D01*
X92678096Y-150677619D01*
X92725715Y-150772857D01*
X92725715Y-150868095D01*
X92678096Y-151010952D01*
X92106667Y-151582381D01*
X92725715Y-151582381D01*
X102901905Y-181062381D02*
X102901905Y-181871905D01*
X102949524Y-181967143D01*
X102997143Y-182014762D01*
X103092381Y-182062381D01*
X103282858Y-182062381D01*
X103378096Y-182014762D01*
X103425715Y-181967143D01*
X103473334Y-181871905D01*
X103473334Y-181062381D01*
X103901905Y-181157619D02*
X103949524Y-181110000D01*
X104044762Y-181062381D01*
X104282858Y-181062381D01*
X104378096Y-181110000D01*
X104425715Y-181157619D01*
X104473334Y-181252857D01*
X104473334Y-181348095D01*
X104425715Y-181490952D01*
X103854286Y-182062381D01*
X104473334Y-182062381D01*
X104806667Y-181062381D02*
X105425715Y-181062381D01*
X105092381Y-181443333D01*
X105235239Y-181443333D01*
X105330477Y-181490952D01*
X105378096Y-181538571D01*
X105425715Y-181633810D01*
X105425715Y-181871905D01*
X105378096Y-181967143D01*
X105330477Y-182014762D01*
X105235239Y-182062381D01*
X104949524Y-182062381D01*
X104854286Y-182014762D01*
X104806667Y-181967143D01*
X90201905Y-122642381D02*
X90201905Y-123451905D01*
X90249524Y-123547143D01*
X90297143Y-123594762D01*
X90392381Y-123642381D01*
X90582858Y-123642381D01*
X90678096Y-123594762D01*
X90725715Y-123547143D01*
X90773334Y-123451905D01*
X90773334Y-122642381D01*
X91201905Y-122737619D02*
X91249524Y-122690000D01*
X91344762Y-122642381D01*
X91582858Y-122642381D01*
X91678096Y-122690000D01*
X91725715Y-122737619D01*
X91773334Y-122832857D01*
X91773334Y-122928095D01*
X91725715Y-123070952D01*
X91154286Y-123642381D01*
X91773334Y-123642381D01*
X92630477Y-122975714D02*
X92630477Y-123642381D01*
X92392381Y-122594762D02*
X92154286Y-123309048D01*
X92773334Y-123309048D01*
X64801905Y-122642381D02*
X64801905Y-123451905D01*
X64849524Y-123547143D01*
X64897143Y-123594762D01*
X64992381Y-123642381D01*
X65182858Y-123642381D01*
X65278096Y-123594762D01*
X65325715Y-123547143D01*
X65373334Y-123451905D01*
X65373334Y-122642381D01*
X65801905Y-122737619D02*
X65849524Y-122690000D01*
X65944762Y-122642381D01*
X66182858Y-122642381D01*
X66278096Y-122690000D01*
X66325715Y-122737619D01*
X66373334Y-122832857D01*
X66373334Y-122928095D01*
X66325715Y-123070952D01*
X65754286Y-123642381D01*
X66373334Y-123642381D01*
X67278096Y-122642381D02*
X66801905Y-122642381D01*
X66754286Y-123118571D01*
X66801905Y-123070952D01*
X66897143Y-123023333D01*
X67135239Y-123023333D01*
X67230477Y-123070952D01*
X67278096Y-123118571D01*
X67325715Y-123213810D01*
X67325715Y-123451905D01*
X67278096Y-123547143D01*
X67230477Y-123594762D01*
X67135239Y-123642381D01*
X66897143Y-123642381D01*
X66801905Y-123594762D01*
X66754286Y-123547143D01*
X77501905Y-150582381D02*
X77501905Y-151391905D01*
X77549524Y-151487143D01*
X77597143Y-151534762D01*
X77692381Y-151582381D01*
X77882858Y-151582381D01*
X77978096Y-151534762D01*
X78025715Y-151487143D01*
X78073334Y-151391905D01*
X78073334Y-150582381D01*
X78501905Y-150677619D02*
X78549524Y-150630000D01*
X78644762Y-150582381D01*
X78882858Y-150582381D01*
X78978096Y-150630000D01*
X79025715Y-150677619D01*
X79073334Y-150772857D01*
X79073334Y-150868095D01*
X79025715Y-151010952D01*
X78454286Y-151582381D01*
X79073334Y-151582381D01*
X79930477Y-150582381D02*
X79740000Y-150582381D01*
X79644762Y-150630000D01*
X79597143Y-150677619D01*
X79501905Y-150820476D01*
X79454286Y-151010952D01*
X79454286Y-151391905D01*
X79501905Y-151487143D01*
X79549524Y-151534762D01*
X79644762Y-151582381D01*
X79835239Y-151582381D01*
X79930477Y-151534762D01*
X79978096Y-151487143D01*
X80025715Y-151391905D01*
X80025715Y-151153810D01*
X79978096Y-151058571D01*
X79930477Y-151010952D01*
X79835239Y-150963333D01*
X79644762Y-150963333D01*
X79549524Y-151010952D01*
X79501905Y-151058571D01*
X79454286Y-151153810D01*
X115601905Y-122642381D02*
X115601905Y-123451905D01*
X115649524Y-123547143D01*
X115697143Y-123594762D01*
X115792381Y-123642381D01*
X115982858Y-123642381D01*
X116078096Y-123594762D01*
X116125715Y-123547143D01*
X116173334Y-123451905D01*
X116173334Y-122642381D01*
X116601905Y-122737619D02*
X116649524Y-122690000D01*
X116744762Y-122642381D01*
X116982858Y-122642381D01*
X117078096Y-122690000D01*
X117125715Y-122737619D01*
X117173334Y-122832857D01*
X117173334Y-122928095D01*
X117125715Y-123070952D01*
X116554286Y-123642381D01*
X117173334Y-123642381D01*
X117744762Y-123070952D02*
X117649524Y-123023333D01*
X117601905Y-122975714D01*
X117554286Y-122880476D01*
X117554286Y-122832857D01*
X117601905Y-122737619D01*
X117649524Y-122690000D01*
X117744762Y-122642381D01*
X117935239Y-122642381D01*
X118030477Y-122690000D01*
X118078096Y-122737619D01*
X118125715Y-122832857D01*
X118125715Y-122880476D01*
X118078096Y-122975714D01*
X118030477Y-123023333D01*
X117935239Y-123070952D01*
X117744762Y-123070952D01*
X117649524Y-123118571D01*
X117601905Y-123166190D01*
X117554286Y-123261429D01*
X117554286Y-123451905D01*
X117601905Y-123547143D01*
X117649524Y-123594762D01*
X117744762Y-123642381D01*
X117935239Y-123642381D01*
X118030477Y-123594762D01*
X118078096Y-123547143D01*
X118125715Y-123451905D01*
X118125715Y-123261429D01*
X118078096Y-123166190D01*
X118030477Y-123118571D01*
X117935239Y-123070952D01*
X128301905Y-150582381D02*
X128301905Y-151391905D01*
X128349524Y-151487143D01*
X128397143Y-151534762D01*
X128492381Y-151582381D01*
X128682858Y-151582381D01*
X128778096Y-151534762D01*
X128825715Y-151487143D01*
X128873334Y-151391905D01*
X128873334Y-150582381D01*
X129254286Y-150582381D02*
X129873334Y-150582381D01*
X129540000Y-150963333D01*
X129682858Y-150963333D01*
X129778096Y-151010952D01*
X129825715Y-151058571D01*
X129873334Y-151153810D01*
X129873334Y-151391905D01*
X129825715Y-151487143D01*
X129778096Y-151534762D01*
X129682858Y-151582381D01*
X129397143Y-151582381D01*
X129301905Y-151534762D01*
X129254286Y-151487143D01*
X130254286Y-150677619D02*
X130301905Y-150630000D01*
X130397143Y-150582381D01*
X130635239Y-150582381D01*
X130730477Y-150630000D01*
X130778096Y-150677619D01*
X130825715Y-150772857D01*
X130825715Y-150868095D01*
X130778096Y-151010952D01*
X130206667Y-151582381D01*
X130825715Y-151582381D01*
X115601905Y-150582381D02*
X115601905Y-151391905D01*
X115649524Y-151487143D01*
X115697143Y-151534762D01*
X115792381Y-151582381D01*
X115982858Y-151582381D01*
X116078096Y-151534762D01*
X116125715Y-151487143D01*
X116173334Y-151391905D01*
X116173334Y-150582381D01*
X116554286Y-150582381D02*
X117173334Y-150582381D01*
X116840000Y-150963333D01*
X116982858Y-150963333D01*
X117078096Y-151010952D01*
X117125715Y-151058571D01*
X117173334Y-151153810D01*
X117173334Y-151391905D01*
X117125715Y-151487143D01*
X117078096Y-151534762D01*
X116982858Y-151582381D01*
X116697143Y-151582381D01*
X116601905Y-151534762D01*
X116554286Y-151487143D01*
X117506667Y-150582381D02*
X118125715Y-150582381D01*
X117792381Y-150963333D01*
X117935239Y-150963333D01*
X118030477Y-151010952D01*
X118078096Y-151058571D01*
X118125715Y-151153810D01*
X118125715Y-151391905D01*
X118078096Y-151487143D01*
X118030477Y-151534762D01*
X117935239Y-151582381D01*
X117649524Y-151582381D01*
X117554286Y-151534762D01*
X117506667Y-151487143D01*
X115601905Y-181062381D02*
X115601905Y-181871905D01*
X115649524Y-181967143D01*
X115697143Y-182014762D01*
X115792381Y-182062381D01*
X115982858Y-182062381D01*
X116078096Y-182014762D01*
X116125715Y-181967143D01*
X116173334Y-181871905D01*
X116173334Y-181062381D01*
X116554286Y-181062381D02*
X117173334Y-181062381D01*
X116840000Y-181443333D01*
X116982858Y-181443333D01*
X117078096Y-181490952D01*
X117125715Y-181538571D01*
X117173334Y-181633810D01*
X117173334Y-181871905D01*
X117125715Y-181967143D01*
X117078096Y-182014762D01*
X116982858Y-182062381D01*
X116697143Y-182062381D01*
X116601905Y-182014762D01*
X116554286Y-181967143D01*
X118030477Y-181395714D02*
X118030477Y-182062381D01*
X117792381Y-181014762D02*
X117554286Y-181729048D01*
X118173334Y-181729048D01*
X128301905Y-181062381D02*
X128301905Y-181871905D01*
X128349524Y-181967143D01*
X128397143Y-182014762D01*
X128492381Y-182062381D01*
X128682858Y-182062381D01*
X128778096Y-182014762D01*
X128825715Y-181967143D01*
X128873334Y-181871905D01*
X128873334Y-181062381D01*
X129254286Y-181062381D02*
X129873334Y-181062381D01*
X129540000Y-181443333D01*
X129682858Y-181443333D01*
X129778096Y-181490952D01*
X129825715Y-181538571D01*
X129873334Y-181633810D01*
X129873334Y-181871905D01*
X129825715Y-181967143D01*
X129778096Y-182014762D01*
X129682858Y-182062381D01*
X129397143Y-182062381D01*
X129301905Y-182014762D01*
X129254286Y-181967143D01*
X130778096Y-181062381D02*
X130301905Y-181062381D01*
X130254286Y-181538571D01*
X130301905Y-181490952D01*
X130397143Y-181443333D01*
X130635239Y-181443333D01*
X130730477Y-181490952D01*
X130778096Y-181538571D01*
X130825715Y-181633810D01*
X130825715Y-181871905D01*
X130778096Y-181967143D01*
X130730477Y-182014762D01*
X130635239Y-182062381D01*
X130397143Y-182062381D01*
X130301905Y-182014762D01*
X130254286Y-181967143D01*
X141763809Y-129516190D02*
X141763809Y-129992381D01*
X141430476Y-128992381D02*
X141763809Y-129516190D01*
X142097143Y-128992381D01*
X142954286Y-129992381D02*
X142382857Y-129992381D01*
X142668571Y-129992381D02*
X142668571Y-128992381D01*
X142573333Y-129135238D01*
X142478095Y-129230476D01*
X142382857Y-129278095D01*
X135921905Y-79462381D02*
X135921905Y-80271905D01*
X135969524Y-80367143D01*
X136017143Y-80414762D01*
X136112381Y-80462381D01*
X136302858Y-80462381D01*
X136398096Y-80414762D01*
X136445715Y-80367143D01*
X136493334Y-80271905D01*
X136493334Y-79462381D01*
X136874286Y-79462381D02*
X137493334Y-79462381D01*
X137160000Y-79843333D01*
X137302858Y-79843333D01*
X137398096Y-79890952D01*
X137445715Y-79938571D01*
X137493334Y-80033810D01*
X137493334Y-80271905D01*
X137445715Y-80367143D01*
X137398096Y-80414762D01*
X137302858Y-80462381D01*
X137017143Y-80462381D01*
X136921905Y-80414762D01*
X136874286Y-80367143D01*
X138112381Y-79462381D02*
X138207620Y-79462381D01*
X138302858Y-79510000D01*
X138350477Y-79557619D01*
X138398096Y-79652857D01*
X138445715Y-79843333D01*
X138445715Y-80081429D01*
X138398096Y-80271905D01*
X138350477Y-80367143D01*
X138302858Y-80414762D01*
X138207620Y-80462381D01*
X138112381Y-80462381D01*
X138017143Y-80414762D01*
X137969524Y-80367143D01*
X137921905Y-80271905D01*
X137874286Y-80081429D01*
X137874286Y-79843333D01*
X137921905Y-79652857D01*
X137969524Y-79557619D01*
X138017143Y-79510000D01*
X138112381Y-79462381D01*
X67818095Y-33742381D02*
X67818095Y-34551905D01*
X67865714Y-34647143D01*
X67913333Y-34694762D01*
X68008571Y-34742381D01*
X68199048Y-34742381D01*
X68294286Y-34694762D01*
X68341905Y-34647143D01*
X68389524Y-34551905D01*
X68389524Y-33742381D01*
X69294286Y-33742381D02*
X69103809Y-33742381D01*
X69008571Y-33790000D01*
X68960952Y-33837619D01*
X68865714Y-33980476D01*
X68818095Y-34170952D01*
X68818095Y-34551905D01*
X68865714Y-34647143D01*
X68913333Y-34694762D01*
X69008571Y-34742381D01*
X69199048Y-34742381D01*
X69294286Y-34694762D01*
X69341905Y-34647143D01*
X69389524Y-34551905D01*
X69389524Y-34313810D01*
X69341905Y-34218571D01*
X69294286Y-34170952D01*
X69199048Y-34123333D01*
X69008571Y-34123333D01*
X68913333Y-34170952D01*
X68865714Y-34218571D01*
X68818095Y-34313810D01*
X26701905Y-33742381D02*
X26701905Y-34551905D01*
X26749524Y-34647143D01*
X26797143Y-34694762D01*
X26892381Y-34742381D01*
X27082858Y-34742381D01*
X27178096Y-34694762D01*
X27225715Y-34647143D01*
X27273334Y-34551905D01*
X27273334Y-33742381D01*
X28273334Y-34742381D02*
X27701905Y-34742381D01*
X27987619Y-34742381D02*
X27987619Y-33742381D01*
X27892381Y-33885238D01*
X27797143Y-33980476D01*
X27701905Y-34028095D01*
X29225715Y-34742381D02*
X28654286Y-34742381D01*
X28940000Y-34742381D02*
X28940000Y-33742381D01*
X28844762Y-33885238D01*
X28749524Y-33980476D01*
X28654286Y-34028095D01*
X26701905Y-79462381D02*
X26701905Y-80271905D01*
X26749524Y-80367143D01*
X26797143Y-80414762D01*
X26892381Y-80462381D01*
X27082858Y-80462381D01*
X27178096Y-80414762D01*
X27225715Y-80367143D01*
X27273334Y-80271905D01*
X27273334Y-79462381D01*
X28273334Y-80462381D02*
X27701905Y-80462381D01*
X27987619Y-80462381D02*
X27987619Y-79462381D01*
X27892381Y-79605238D01*
X27797143Y-79700476D01*
X27701905Y-79748095D01*
X28654286Y-79557619D02*
X28701905Y-79510000D01*
X28797143Y-79462381D01*
X29035239Y-79462381D01*
X29130477Y-79510000D01*
X29178096Y-79557619D01*
X29225715Y-79652857D01*
X29225715Y-79748095D01*
X29178096Y-79890952D01*
X28606667Y-80462381D01*
X29225715Y-80462381D01*
X47021905Y-33742381D02*
X47021905Y-34551905D01*
X47069524Y-34647143D01*
X47117143Y-34694762D01*
X47212381Y-34742381D01*
X47402858Y-34742381D01*
X47498096Y-34694762D01*
X47545715Y-34647143D01*
X47593334Y-34551905D01*
X47593334Y-33742381D01*
X48593334Y-34742381D02*
X48021905Y-34742381D01*
X48307619Y-34742381D02*
X48307619Y-33742381D01*
X48212381Y-33885238D01*
X48117143Y-33980476D01*
X48021905Y-34028095D01*
X48926667Y-33742381D02*
X49545715Y-33742381D01*
X49212381Y-34123333D01*
X49355239Y-34123333D01*
X49450477Y-34170952D01*
X49498096Y-34218571D01*
X49545715Y-34313810D01*
X49545715Y-34551905D01*
X49498096Y-34647143D01*
X49450477Y-34694762D01*
X49355239Y-34742381D01*
X49069524Y-34742381D01*
X48974286Y-34694762D01*
X48926667Y-34647143D01*
X47021905Y-79462381D02*
X47021905Y-80271905D01*
X47069524Y-80367143D01*
X47117143Y-80414762D01*
X47212381Y-80462381D01*
X47402858Y-80462381D01*
X47498096Y-80414762D01*
X47545715Y-80367143D01*
X47593334Y-80271905D01*
X47593334Y-79462381D01*
X48593334Y-80462381D02*
X48021905Y-80462381D01*
X48307619Y-80462381D02*
X48307619Y-79462381D01*
X48212381Y-79605238D01*
X48117143Y-79700476D01*
X48021905Y-79748095D01*
X49450477Y-79795714D02*
X49450477Y-80462381D01*
X49212381Y-79414762D02*
X48974286Y-80129048D01*
X49593334Y-80129048D01*
X95281905Y-33742381D02*
X95281905Y-34551905D01*
X95329524Y-34647143D01*
X95377143Y-34694762D01*
X95472381Y-34742381D01*
X95662858Y-34742381D01*
X95758096Y-34694762D01*
X95805715Y-34647143D01*
X95853334Y-34551905D01*
X95853334Y-33742381D01*
X96853334Y-34742381D02*
X96281905Y-34742381D01*
X96567619Y-34742381D02*
X96567619Y-33742381D01*
X96472381Y-33885238D01*
X96377143Y-33980476D01*
X96281905Y-34028095D01*
X97758096Y-33742381D02*
X97281905Y-33742381D01*
X97234286Y-34218571D01*
X97281905Y-34170952D01*
X97377143Y-34123333D01*
X97615239Y-34123333D01*
X97710477Y-34170952D01*
X97758096Y-34218571D01*
X97805715Y-34313810D01*
X97805715Y-34551905D01*
X97758096Y-34647143D01*
X97710477Y-34694762D01*
X97615239Y-34742381D01*
X97377143Y-34742381D01*
X97281905Y-34694762D01*
X97234286Y-34647143D01*
X95281905Y-79462381D02*
X95281905Y-80271905D01*
X95329524Y-80367143D01*
X95377143Y-80414762D01*
X95472381Y-80462381D01*
X95662858Y-80462381D01*
X95758096Y-80414762D01*
X95805715Y-80367143D01*
X95853334Y-80271905D01*
X95853334Y-79462381D01*
X96853334Y-80462381D02*
X96281905Y-80462381D01*
X96567619Y-80462381D02*
X96567619Y-79462381D01*
X96472381Y-79605238D01*
X96377143Y-79700476D01*
X96281905Y-79748095D01*
X97710477Y-79462381D02*
X97520000Y-79462381D01*
X97424762Y-79510000D01*
X97377143Y-79557619D01*
X97281905Y-79700476D01*
X97234286Y-79890952D01*
X97234286Y-80271905D01*
X97281905Y-80367143D01*
X97329524Y-80414762D01*
X97424762Y-80462381D01*
X97615239Y-80462381D01*
X97710477Y-80414762D01*
X97758096Y-80367143D01*
X97805715Y-80271905D01*
X97805715Y-80033810D01*
X97758096Y-79938571D01*
X97710477Y-79890952D01*
X97615239Y-79843333D01*
X97424762Y-79843333D01*
X97329524Y-79890952D01*
X97281905Y-79938571D01*
X97234286Y-80033810D01*
X115601905Y-33742381D02*
X115601905Y-34551905D01*
X115649524Y-34647143D01*
X115697143Y-34694762D01*
X115792381Y-34742381D01*
X115982858Y-34742381D01*
X116078096Y-34694762D01*
X116125715Y-34647143D01*
X116173334Y-34551905D01*
X116173334Y-33742381D01*
X117173334Y-34742381D02*
X116601905Y-34742381D01*
X116887619Y-34742381D02*
X116887619Y-33742381D01*
X116792381Y-33885238D01*
X116697143Y-33980476D01*
X116601905Y-34028095D01*
X117506667Y-33742381D02*
X118173334Y-33742381D01*
X117744762Y-34742381D01*
X115601905Y-79462381D02*
X115601905Y-80271905D01*
X115649524Y-80367143D01*
X115697143Y-80414762D01*
X115792381Y-80462381D01*
X115982858Y-80462381D01*
X116078096Y-80414762D01*
X116125715Y-80367143D01*
X116173334Y-80271905D01*
X116173334Y-79462381D01*
X117173334Y-80462381D02*
X116601905Y-80462381D01*
X116887619Y-80462381D02*
X116887619Y-79462381D01*
X116792381Y-79605238D01*
X116697143Y-79700476D01*
X116601905Y-79748095D01*
X117744762Y-79890952D02*
X117649524Y-79843333D01*
X117601905Y-79795714D01*
X117554286Y-79700476D01*
X117554286Y-79652857D01*
X117601905Y-79557619D01*
X117649524Y-79510000D01*
X117744762Y-79462381D01*
X117935239Y-79462381D01*
X118030477Y-79510000D01*
X118078096Y-79557619D01*
X118125715Y-79652857D01*
X118125715Y-79700476D01*
X118078096Y-79795714D01*
X118030477Y-79843333D01*
X117935239Y-79890952D01*
X117744762Y-79890952D01*
X117649524Y-79938571D01*
X117601905Y-79986190D01*
X117554286Y-80081429D01*
X117554286Y-80271905D01*
X117601905Y-80367143D01*
X117649524Y-80414762D01*
X117744762Y-80462381D01*
X117935239Y-80462381D01*
X118030477Y-80414762D01*
X118078096Y-80367143D01*
X118125715Y-80271905D01*
X118125715Y-80081429D01*
X118078096Y-79986190D01*
X118030477Y-79938571D01*
X117935239Y-79890952D01*
X135921905Y-33742381D02*
X135921905Y-34551905D01*
X135969524Y-34647143D01*
X136017143Y-34694762D01*
X136112381Y-34742381D01*
X136302858Y-34742381D01*
X136398096Y-34694762D01*
X136445715Y-34647143D01*
X136493334Y-34551905D01*
X136493334Y-33742381D01*
X136921905Y-33837619D02*
X136969524Y-33790000D01*
X137064762Y-33742381D01*
X137302858Y-33742381D01*
X137398096Y-33790000D01*
X137445715Y-33837619D01*
X137493334Y-33932857D01*
X137493334Y-34028095D01*
X137445715Y-34170952D01*
X136874286Y-34742381D01*
X137493334Y-34742381D01*
X137969524Y-34742381D02*
X138160000Y-34742381D01*
X138255239Y-34694762D01*
X138302858Y-34647143D01*
X138398096Y-34504286D01*
X138445715Y-34313810D01*
X138445715Y-33932857D01*
X138398096Y-33837619D01*
X138350477Y-33790000D01*
X138255239Y-33742381D01*
X138064762Y-33742381D01*
X137969524Y-33790000D01*
X137921905Y-33837619D01*
X137874286Y-33932857D01*
X137874286Y-34170952D01*
X137921905Y-34266190D01*
X137969524Y-34313810D01*
X138064762Y-34361429D01*
X138255239Y-34361429D01*
X138350477Y-34313810D01*
X138398096Y-34266190D01*
X138445715Y-34170952D01*
X108386667Y-154392381D02*
X108386667Y-155106667D01*
X108339047Y-155249524D01*
X108243809Y-155344762D01*
X108100952Y-155392381D01*
X108005714Y-155392381D01*
X108862857Y-155392381D02*
X108862857Y-154392381D01*
X109243810Y-154392381D01*
X109339048Y-154440000D01*
X109386667Y-154487619D01*
X109434286Y-154582857D01*
X109434286Y-154725714D01*
X109386667Y-154820952D01*
X109339048Y-154868571D01*
X109243810Y-154916190D01*
X108862857Y-154916190D01*
X110386667Y-155392381D02*
X109815238Y-155392381D01*
X110100952Y-155392381D02*
X110100952Y-154392381D01*
X110005714Y-154535238D01*
X109910476Y-154630476D01*
X109815238Y-154678095D01*
X108386667Y-159472381D02*
X108386667Y-160186667D01*
X108339047Y-160329524D01*
X108243809Y-160424762D01*
X108100952Y-160472381D01*
X108005714Y-160472381D01*
X108862857Y-160472381D02*
X108862857Y-159472381D01*
X109243810Y-159472381D01*
X109339048Y-159520000D01*
X109386667Y-159567619D01*
X109434286Y-159662857D01*
X109434286Y-159805714D01*
X109386667Y-159900952D01*
X109339048Y-159948571D01*
X109243810Y-159996190D01*
X108862857Y-159996190D01*
X109815238Y-159567619D02*
X109862857Y-159520000D01*
X109958095Y-159472381D01*
X110196191Y-159472381D01*
X110291429Y-159520000D01*
X110339048Y-159567619D01*
X110386667Y-159662857D01*
X110386667Y-159758095D01*
X110339048Y-159900952D01*
X109767619Y-160472381D01*
X110386667Y-160472381D01*
X108386667Y-164552381D02*
X108386667Y-165266667D01*
X108339047Y-165409524D01*
X108243809Y-165504762D01*
X108100952Y-165552381D01*
X108005714Y-165552381D01*
X108862857Y-165552381D02*
X108862857Y-164552381D01*
X109243810Y-164552381D01*
X109339048Y-164600000D01*
X109386667Y-164647619D01*
X109434286Y-164742857D01*
X109434286Y-164885714D01*
X109386667Y-164980952D01*
X109339048Y-165028571D01*
X109243810Y-165076190D01*
X108862857Y-165076190D01*
X109767619Y-164552381D02*
X110386667Y-164552381D01*
X110053333Y-164933333D01*
X110196191Y-164933333D01*
X110291429Y-164980952D01*
X110339048Y-165028571D01*
X110386667Y-165123810D01*
X110386667Y-165361905D01*
X110339048Y-165457143D01*
X110291429Y-165504762D01*
X110196191Y-165552381D01*
X109910476Y-165552381D01*
X109815238Y-165504762D01*
X109767619Y-165457143D01*
X108386667Y-169632381D02*
X108386667Y-170346667D01*
X108339047Y-170489524D01*
X108243809Y-170584762D01*
X108100952Y-170632381D01*
X108005714Y-170632381D01*
X108862857Y-170632381D02*
X108862857Y-169632381D01*
X109243810Y-169632381D01*
X109339048Y-169680000D01*
X109386667Y-169727619D01*
X109434286Y-169822857D01*
X109434286Y-169965714D01*
X109386667Y-170060952D01*
X109339048Y-170108571D01*
X109243810Y-170156190D01*
X108862857Y-170156190D01*
X110291429Y-169965714D02*
X110291429Y-170632381D01*
X110053333Y-169584762D02*
X109815238Y-170299048D01*
X110434286Y-170299048D01*
X103306667Y-26122381D02*
X103306667Y-26836667D01*
X103259047Y-26979524D01*
X103163809Y-27074762D01*
X103020952Y-27122381D01*
X102925714Y-27122381D01*
X103782857Y-27122381D02*
X103782857Y-26122381D01*
X104163810Y-26122381D01*
X104259048Y-26170000D01*
X104306667Y-26217619D01*
X104354286Y-26312857D01*
X104354286Y-26455714D01*
X104306667Y-26550952D01*
X104259048Y-26598571D01*
X104163810Y-26646190D01*
X103782857Y-26646190D01*
X105259048Y-26122381D02*
X104782857Y-26122381D01*
X104735238Y-26598571D01*
X104782857Y-26550952D01*
X104878095Y-26503333D01*
X105116191Y-26503333D01*
X105211429Y-26550952D01*
X105259048Y-26598571D01*
X105306667Y-26693810D01*
X105306667Y-26931905D01*
X105259048Y-27027143D01*
X105211429Y-27074762D01*
X105116191Y-27122381D01*
X104878095Y-27122381D01*
X104782857Y-27074762D01*
X104735238Y-27027143D01*
X131246667Y-26122381D02*
X131246667Y-26836667D01*
X131199047Y-26979524D01*
X131103809Y-27074762D01*
X130960952Y-27122381D01*
X130865714Y-27122381D01*
X131722857Y-27122381D02*
X131722857Y-26122381D01*
X132103810Y-26122381D01*
X132199048Y-26170000D01*
X132246667Y-26217619D01*
X132294286Y-26312857D01*
X132294286Y-26455714D01*
X132246667Y-26550952D01*
X132199048Y-26598571D01*
X132103810Y-26646190D01*
X131722857Y-26646190D01*
X133151429Y-26122381D02*
X132960952Y-26122381D01*
X132865714Y-26170000D01*
X132818095Y-26217619D01*
X132722857Y-26360476D01*
X132675238Y-26550952D01*
X132675238Y-26931905D01*
X132722857Y-27027143D01*
X132770476Y-27074762D01*
X132865714Y-27122381D01*
X133056191Y-27122381D01*
X133151429Y-27074762D01*
X133199048Y-27027143D01*
X133246667Y-26931905D01*
X133246667Y-26693810D01*
X133199048Y-26598571D01*
X133151429Y-26550952D01*
X133056191Y-26503333D01*
X132865714Y-26503333D01*
X132770476Y-26550952D01*
X132722857Y-26598571D01*
X132675238Y-26693810D01*
X151777143Y-134937143D02*
X151729524Y-134984762D01*
X151586667Y-135032381D01*
X151491429Y-135032381D01*
X151348571Y-134984762D01*
X151253333Y-134889524D01*
X151205714Y-134794286D01*
X151158095Y-134603810D01*
X151158095Y-134460952D01*
X151205714Y-134270476D01*
X151253333Y-134175238D01*
X151348571Y-134080000D01*
X151491429Y-134032381D01*
X151586667Y-134032381D01*
X151729524Y-134080000D01*
X151777143Y-134127619D01*
X152110476Y-134032381D02*
X152729524Y-134032381D01*
X152396190Y-134413333D01*
X152539048Y-134413333D01*
X152634286Y-134460952D01*
X152681905Y-134508571D01*
X152729524Y-134603810D01*
X152729524Y-134841905D01*
X152681905Y-134937143D01*
X152634286Y-134984762D01*
X152539048Y-135032381D01*
X152253333Y-135032381D01*
X152158095Y-134984762D01*
X152110476Y-134937143D01*
X153205714Y-135032381D02*
X153396190Y-135032381D01*
X153491429Y-134984762D01*
X153539048Y-134937143D01*
X153634286Y-134794286D01*
X153681905Y-134603810D01*
X153681905Y-134222857D01*
X153634286Y-134127619D01*
X153586667Y-134080000D01*
X153491429Y-134032381D01*
X153300952Y-134032381D01*
X153205714Y-134080000D01*
X153158095Y-134127619D01*
X153110476Y-134222857D01*
X153110476Y-134460952D01*
X153158095Y-134556190D01*
X153205714Y-134603810D01*
X153300952Y-134651429D01*
X153491429Y-134651429D01*
X153586667Y-134603810D01*
X153634286Y-134556190D01*
X153681905Y-134460952D01*
X151737143Y-137557143D02*
X151689524Y-137604762D01*
X151546667Y-137652381D01*
X151451429Y-137652381D01*
X151308571Y-137604762D01*
X151213333Y-137509524D01*
X151165714Y-137414286D01*
X151118095Y-137223810D01*
X151118095Y-137080952D01*
X151165714Y-136890476D01*
X151213333Y-136795238D01*
X151308571Y-136700000D01*
X151451429Y-136652381D01*
X151546667Y-136652381D01*
X151689524Y-136700000D01*
X151737143Y-136747619D01*
X152594286Y-136985714D02*
X152594286Y-137652381D01*
X152356190Y-136604762D02*
X152118095Y-137319048D01*
X152737143Y-137319048D01*
X153308571Y-136652381D02*
X153403810Y-136652381D01*
X153499048Y-136700000D01*
X153546667Y-136747619D01*
X153594286Y-136842857D01*
X153641905Y-137033333D01*
X153641905Y-137271429D01*
X153594286Y-137461905D01*
X153546667Y-137557143D01*
X153499048Y-137604762D01*
X153403810Y-137652381D01*
X153308571Y-137652381D01*
X153213333Y-137604762D01*
X153165714Y-137557143D01*
X153118095Y-137461905D01*
X153070476Y-137271429D01*
X153070476Y-137033333D01*
X153118095Y-136842857D01*
X153165714Y-136747619D01*
X153213333Y-136700000D01*
X153308571Y-136652381D01*
X39401905Y-181062381D02*
X39401905Y-181871905D01*
X39449524Y-181967143D01*
X39497143Y-182014762D01*
X39592381Y-182062381D01*
X39782858Y-182062381D01*
X39878096Y-182014762D01*
X39925715Y-181967143D01*
X39973334Y-181871905D01*
X39973334Y-181062381D01*
X40401905Y-181157619D02*
X40449524Y-181110000D01*
X40544762Y-181062381D01*
X40782858Y-181062381D01*
X40878096Y-181110000D01*
X40925715Y-181157619D01*
X40973334Y-181252857D01*
X40973334Y-181348095D01*
X40925715Y-181490952D01*
X40354286Y-182062381D01*
X40973334Y-182062381D01*
X41306667Y-181062381D02*
X41973334Y-181062381D01*
X41544762Y-182062381D01*
X128301905Y-122642381D02*
X128301905Y-123451905D01*
X128349524Y-123547143D01*
X128397143Y-123594762D01*
X128492381Y-123642381D01*
X128682858Y-123642381D01*
X128778096Y-123594762D01*
X128825715Y-123547143D01*
X128873334Y-123451905D01*
X128873334Y-122642381D01*
X129254286Y-122642381D02*
X129873334Y-122642381D01*
X129540000Y-123023333D01*
X129682858Y-123023333D01*
X129778096Y-123070952D01*
X129825715Y-123118571D01*
X129873334Y-123213810D01*
X129873334Y-123451905D01*
X129825715Y-123547143D01*
X129778096Y-123594762D01*
X129682858Y-123642381D01*
X129397143Y-123642381D01*
X129301905Y-123594762D01*
X129254286Y-123547143D01*
X130825715Y-123642381D02*
X130254286Y-123642381D01*
X130540000Y-123642381D02*
X130540000Y-122642381D01*
X130444762Y-122785238D01*
X130349524Y-122880476D01*
X130254286Y-122928095D01*
X141001905Y-181062381D02*
X141001905Y-181871905D01*
X141049524Y-181967143D01*
X141097143Y-182014762D01*
X141192381Y-182062381D01*
X141382858Y-182062381D01*
X141478096Y-182014762D01*
X141525715Y-181967143D01*
X141573334Y-181871905D01*
X141573334Y-181062381D01*
X141954286Y-181062381D02*
X142573334Y-181062381D01*
X142240000Y-181443333D01*
X142382858Y-181443333D01*
X142478096Y-181490952D01*
X142525715Y-181538571D01*
X142573334Y-181633810D01*
X142573334Y-181871905D01*
X142525715Y-181967143D01*
X142478096Y-182014762D01*
X142382858Y-182062381D01*
X142097143Y-182062381D01*
X142001905Y-182014762D01*
X141954286Y-181967143D01*
X143430477Y-181062381D02*
X143240000Y-181062381D01*
X143144762Y-181110000D01*
X143097143Y-181157619D01*
X143001905Y-181300476D01*
X142954286Y-181490952D01*
X142954286Y-181871905D01*
X143001905Y-181967143D01*
X143049524Y-182014762D01*
X143144762Y-182062381D01*
X143335239Y-182062381D01*
X143430477Y-182014762D01*
X143478096Y-181967143D01*
X143525715Y-181871905D01*
X143525715Y-181633810D01*
X143478096Y-181538571D01*
X143430477Y-181490952D01*
X143335239Y-181443333D01*
X143144762Y-181443333D01*
X143049524Y-181490952D01*
X143001905Y-181538571D01*
X142954286Y-181633810D01*
X141001905Y-150582381D02*
X141001905Y-151391905D01*
X141049524Y-151487143D01*
X141097143Y-151534762D01*
X141192381Y-151582381D01*
X141382858Y-151582381D01*
X141478096Y-151534762D01*
X141525715Y-151487143D01*
X141573334Y-151391905D01*
X141573334Y-150582381D01*
X141954286Y-150582381D02*
X142573334Y-150582381D01*
X142240000Y-150963333D01*
X142382858Y-150963333D01*
X142478096Y-151010952D01*
X142525715Y-151058571D01*
X142573334Y-151153810D01*
X142573334Y-151391905D01*
X142525715Y-151487143D01*
X142478096Y-151534762D01*
X142382858Y-151582381D01*
X142097143Y-151582381D01*
X142001905Y-151534762D01*
X141954286Y-151487143D01*
X142906667Y-150582381D02*
X143573334Y-150582381D01*
X143144762Y-151582381D01*
X145407143Y-147677143D02*
X145359524Y-147724762D01*
X145216667Y-147772381D01*
X145121429Y-147772381D01*
X144978571Y-147724762D01*
X144883333Y-147629524D01*
X144835714Y-147534286D01*
X144788095Y-147343810D01*
X144788095Y-147200952D01*
X144835714Y-147010476D01*
X144883333Y-146915238D01*
X144978571Y-146820000D01*
X145121429Y-146772381D01*
X145216667Y-146772381D01*
X145359524Y-146820000D01*
X145407143Y-146867619D01*
X146264286Y-147105714D02*
X146264286Y-147772381D01*
X146026190Y-146724762D02*
X145788095Y-147439048D01*
X146407143Y-147439048D01*
X147311905Y-147772381D02*
X146740476Y-147772381D01*
X147026190Y-147772381D02*
X147026190Y-146772381D01*
X146930952Y-146915238D01*
X146835714Y-147010476D01*
X146740476Y-147058095D01*
X132707143Y-178157143D02*
X132659524Y-178204762D01*
X132516667Y-178252381D01*
X132421429Y-178252381D01*
X132278571Y-178204762D01*
X132183333Y-178109524D01*
X132135714Y-178014286D01*
X132088095Y-177823810D01*
X132088095Y-177680952D01*
X132135714Y-177490476D01*
X132183333Y-177395238D01*
X132278571Y-177300000D01*
X132421429Y-177252381D01*
X132516667Y-177252381D01*
X132659524Y-177300000D01*
X132707143Y-177347619D01*
X133564286Y-177585714D02*
X133564286Y-178252381D01*
X133326190Y-177204762D02*
X133088095Y-177919048D01*
X133707143Y-177919048D01*
X134040476Y-177347619D02*
X134088095Y-177300000D01*
X134183333Y-177252381D01*
X134421429Y-177252381D01*
X134516667Y-177300000D01*
X134564286Y-177347619D01*
X134611905Y-177442857D01*
X134611905Y-177538095D01*
X134564286Y-177680952D01*
X133992857Y-178252381D01*
X134611905Y-178252381D01*
M02*
