G04 #@! TF.FileFunction,Copper,L2,Bot,Signal*
%FSLAX46Y46*%
G04 Gerber Fmt 4.6, Leading zero omitted, Abs format (unit mm)*
G04 Created by KiCad (PCBNEW 4.0.2+dfsg1-stable) date Fri 10 Feb 2017 07:07:25 PM EST*
%MOMM*%
G01*
G04 APERTURE LIST*
%ADD10C,0.100000*%
%ADD11R,1.300000X1.300000*%
%ADD12C,1.300000*%
%ADD13R,1.400000X1.400000*%
%ADD14C,1.400000*%
%ADD15O,1.506220X3.014980*%
%ADD16C,1.699260*%
%ADD17R,1.699260X1.699260*%
%ADD18O,3.014980X1.506220*%
%ADD19C,1.998980*%
%ADD20R,1.397000X1.397000*%
%ADD21C,1.397000*%
%ADD22O,1.600000X1.600000*%
%ADD23C,1.501140*%
%ADD24C,0.600000*%
%ADD25C,0.250000*%
G04 APERTURE END LIST*
D10*
D11*
X53340000Y-165100000D03*
D12*
X55840000Y-165100000D03*
D11*
X58420000Y-165100000D03*
D12*
X60920000Y-165100000D03*
D13*
X53340000Y-170180000D03*
D14*
X61090000Y-170180000D03*
D11*
X60960000Y-22860000D03*
D12*
X58460000Y-22860000D03*
D11*
X33020000Y-33020000D03*
D12*
X35520000Y-33020000D03*
D11*
X53340000Y-33020000D03*
D12*
X55840000Y-33020000D03*
D11*
X78740000Y-33020000D03*
D12*
X81240000Y-33020000D03*
D11*
X101600000Y-33020000D03*
D12*
X104100000Y-33020000D03*
D11*
X121920000Y-33020000D03*
D12*
X124420000Y-33020000D03*
D11*
X132080000Y-22860000D03*
D12*
X132080000Y-25360000D03*
D11*
X33020000Y-78740000D03*
D12*
X35520000Y-78740000D03*
D11*
X53340000Y-78740000D03*
D12*
X55840000Y-78740000D03*
D11*
X101600000Y-78740000D03*
D12*
X104100000Y-78740000D03*
D11*
X121920000Y-78740000D03*
D12*
X124420000Y-78740000D03*
D11*
X121920000Y-121920000D03*
D12*
X124420000Y-121920000D03*
D11*
X139700000Y-33020000D03*
D12*
X142200000Y-33020000D03*
D11*
X139700000Y-60960000D03*
D12*
X142200000Y-60960000D03*
D11*
X43180000Y-121920000D03*
D12*
X45680000Y-121920000D03*
D11*
X55880000Y-121920000D03*
D12*
X58380000Y-121920000D03*
D11*
X68580000Y-121920000D03*
D12*
X71080000Y-121920000D03*
D11*
X139700000Y-88900000D03*
D12*
X142200000Y-88900000D03*
D11*
X139700000Y-114300000D03*
D12*
X142200000Y-114300000D03*
D11*
X93980000Y-121920000D03*
D12*
X96480000Y-121920000D03*
D11*
X106680000Y-121920000D03*
D12*
X109180000Y-121920000D03*
D11*
X30480000Y-149860000D03*
D12*
X32980000Y-149860000D03*
D11*
X43180000Y-149860000D03*
D12*
X45680000Y-149860000D03*
D11*
X93980000Y-149860000D03*
D12*
X96480000Y-149860000D03*
D11*
X68580000Y-149860000D03*
D12*
X71080000Y-149860000D03*
D11*
X81280000Y-149860000D03*
D12*
X83780000Y-149860000D03*
D11*
X121920000Y-160020000D03*
D12*
X124420000Y-160020000D03*
D11*
X30480000Y-180340000D03*
D12*
X32980000Y-180340000D03*
D11*
X43180000Y-180340000D03*
D12*
X45680000Y-180340000D03*
D11*
X55880000Y-180340000D03*
D12*
X58380000Y-180340000D03*
D11*
X68580000Y-180340000D03*
D12*
X71080000Y-180340000D03*
D11*
X81280000Y-180340000D03*
D12*
X83780000Y-180340000D03*
D11*
X93980000Y-180340000D03*
D12*
X96480000Y-180340000D03*
D11*
X106680000Y-180340000D03*
D12*
X109180000Y-180340000D03*
D11*
X121920000Y-198120000D03*
D12*
X124420000Y-198120000D03*
D15*
X68580000Y-228600000D03*
X71120000Y-228600000D03*
X88900000Y-228600000D03*
X91440000Y-228600000D03*
D16*
X53340520Y-22857460D03*
D17*
X43180520Y-22857460D03*
D18*
X142240000Y-143510000D03*
X142240000Y-146050000D03*
X142240000Y-148590000D03*
X142240000Y-151130000D03*
X142240000Y-153670000D03*
X142240000Y-156210000D03*
X142240000Y-173990000D03*
X142240000Y-176530000D03*
X142240000Y-179070000D03*
X142240000Y-181610000D03*
X142240000Y-184150000D03*
X142240000Y-186690000D03*
D15*
X69850000Y-22860000D03*
X72390000Y-22860000D03*
D19*
X60960000Y-154940000D03*
X53340000Y-154940000D03*
X53340000Y-160020000D03*
X60960000Y-160020000D03*
X69850000Y-220980000D03*
X77470000Y-220980000D03*
X139700000Y-223520000D03*
X139700000Y-215900000D03*
X92710000Y-220980000D03*
X100330000Y-220980000D03*
D20*
X81280000Y-24130000D03*
D21*
X83820000Y-24130000D03*
X86360000Y-24130000D03*
X88900000Y-24130000D03*
X91440000Y-24130000D03*
X93980000Y-24130000D03*
X96520000Y-24130000D03*
X99060000Y-24130000D03*
X101600000Y-24130000D03*
D20*
X86360000Y-124460000D03*
D21*
X86360000Y-127000000D03*
X86360000Y-129540000D03*
X86360000Y-132080000D03*
X86360000Y-134620000D03*
X86360000Y-137160000D03*
X86360000Y-139700000D03*
X86360000Y-142240000D03*
X86360000Y-144780000D03*
D20*
X82550000Y-124460000D03*
D21*
X82550000Y-127000000D03*
X82550000Y-129540000D03*
X82550000Y-132080000D03*
X82550000Y-134620000D03*
X82550000Y-137160000D03*
X82550000Y-139700000D03*
X82550000Y-142240000D03*
X82550000Y-144780000D03*
D20*
X78740000Y-124460000D03*
D21*
X78740000Y-127000000D03*
X78740000Y-129540000D03*
X78740000Y-132080000D03*
X78740000Y-134620000D03*
X78740000Y-137160000D03*
X78740000Y-139700000D03*
X78740000Y-142240000D03*
X78740000Y-144780000D03*
D15*
X57150000Y-228600000D03*
X59690000Y-228600000D03*
X62230000Y-228600000D03*
X46990000Y-228600000D03*
X49530000Y-228600000D03*
X52070000Y-228600000D03*
X36830000Y-228600000D03*
X39370000Y-228600000D03*
X41910000Y-228600000D03*
X97790000Y-228600000D03*
X100330000Y-228600000D03*
X102870000Y-228600000D03*
X77470000Y-228600000D03*
X80010000Y-228600000D03*
X82550000Y-228600000D03*
D22*
X40640000Y-154940000D03*
X40640000Y-157480000D03*
X40640000Y-160020000D03*
X40640000Y-162560000D03*
X48260000Y-162560000D03*
X48260000Y-160020000D03*
X48260000Y-157480000D03*
X48260000Y-154940000D03*
X27940000Y-127000000D03*
X27940000Y-129540000D03*
X27940000Y-132080000D03*
X27940000Y-134620000D03*
X27940000Y-137160000D03*
X27940000Y-139700000D03*
X27940000Y-142240000D03*
X35560000Y-142240000D03*
X35560000Y-139700000D03*
X35560000Y-137160000D03*
X35560000Y-134620000D03*
X35560000Y-132080000D03*
X35560000Y-129540000D03*
X35560000Y-127000000D03*
X40640000Y-127000000D03*
X40640000Y-129540000D03*
X40640000Y-132080000D03*
X40640000Y-134620000D03*
X40640000Y-137160000D03*
X40640000Y-139700000D03*
X40640000Y-142240000D03*
X48260000Y-142240000D03*
X48260000Y-139700000D03*
X48260000Y-137160000D03*
X48260000Y-134620000D03*
X48260000Y-132080000D03*
X48260000Y-129540000D03*
X48260000Y-127000000D03*
X27940000Y-185420000D03*
X27940000Y-187960000D03*
X27940000Y-190500000D03*
X27940000Y-193040000D03*
X27940000Y-195580000D03*
X27940000Y-198120000D03*
X27940000Y-200660000D03*
X35560000Y-200660000D03*
X35560000Y-198120000D03*
X35560000Y-195580000D03*
X35560000Y-193040000D03*
X35560000Y-190500000D03*
X35560000Y-187960000D03*
X35560000Y-185420000D03*
X27940000Y-154940000D03*
X27940000Y-157480000D03*
X27940000Y-160020000D03*
X27940000Y-162560000D03*
X27940000Y-165100000D03*
X27940000Y-167640000D03*
X27940000Y-170180000D03*
X35560000Y-170180000D03*
X35560000Y-167640000D03*
X35560000Y-165100000D03*
X35560000Y-162560000D03*
X35560000Y-160020000D03*
X35560000Y-157480000D03*
X35560000Y-154940000D03*
X53340000Y-127000000D03*
X53340000Y-129540000D03*
X53340000Y-132080000D03*
X53340000Y-134620000D03*
X53340000Y-137160000D03*
X53340000Y-139700000D03*
X53340000Y-142240000D03*
X60960000Y-142240000D03*
X60960000Y-139700000D03*
X60960000Y-137160000D03*
X60960000Y-134620000D03*
X60960000Y-132080000D03*
X60960000Y-129540000D03*
X60960000Y-127000000D03*
X66040000Y-154940000D03*
X66040000Y-157480000D03*
X66040000Y-160020000D03*
X66040000Y-162560000D03*
X66040000Y-165100000D03*
X66040000Y-167640000D03*
X66040000Y-170180000D03*
X73660000Y-170180000D03*
X73660000Y-167640000D03*
X73660000Y-165100000D03*
X73660000Y-162560000D03*
X73660000Y-160020000D03*
X73660000Y-157480000D03*
X73660000Y-154940000D03*
X53340000Y-185420000D03*
X53340000Y-187960000D03*
X53340000Y-190500000D03*
X53340000Y-193040000D03*
X53340000Y-195580000D03*
X53340000Y-198120000D03*
X53340000Y-200660000D03*
X60960000Y-200660000D03*
X60960000Y-198120000D03*
X60960000Y-195580000D03*
X60960000Y-193040000D03*
X60960000Y-190500000D03*
X60960000Y-187960000D03*
X60960000Y-185420000D03*
X66040000Y-185420000D03*
X66040000Y-187960000D03*
X66040000Y-190500000D03*
X66040000Y-193040000D03*
X66040000Y-195580000D03*
X66040000Y-198120000D03*
X66040000Y-200660000D03*
X73660000Y-200660000D03*
X73660000Y-198120000D03*
X73660000Y-195580000D03*
X73660000Y-193040000D03*
X73660000Y-190500000D03*
X73660000Y-187960000D03*
X73660000Y-185420000D03*
X78740000Y-185420000D03*
X78740000Y-187960000D03*
X78740000Y-190500000D03*
X78740000Y-193040000D03*
X78740000Y-195580000D03*
X78740000Y-198120000D03*
X78740000Y-200660000D03*
X86360000Y-200660000D03*
X86360000Y-198120000D03*
X86360000Y-195580000D03*
X86360000Y-193040000D03*
X86360000Y-190500000D03*
X86360000Y-187960000D03*
X86360000Y-185420000D03*
X91440000Y-185420000D03*
X91440000Y-187960000D03*
X91440000Y-190500000D03*
X91440000Y-193040000D03*
X91440000Y-195580000D03*
X91440000Y-198120000D03*
X91440000Y-200660000D03*
X99060000Y-200660000D03*
X99060000Y-198120000D03*
X99060000Y-195580000D03*
X99060000Y-193040000D03*
X99060000Y-190500000D03*
X99060000Y-187960000D03*
X99060000Y-185420000D03*
X104140000Y-127000000D03*
X104140000Y-129540000D03*
X104140000Y-132080000D03*
X104140000Y-134620000D03*
X104140000Y-137160000D03*
X104140000Y-139700000D03*
X104140000Y-142240000D03*
X104140000Y-144780000D03*
X111760000Y-144780000D03*
X111760000Y-142240000D03*
X111760000Y-139700000D03*
X111760000Y-137160000D03*
X111760000Y-134620000D03*
X111760000Y-132080000D03*
X111760000Y-129540000D03*
X111760000Y-127000000D03*
X91440000Y-154940000D03*
X91440000Y-157480000D03*
X91440000Y-160020000D03*
X91440000Y-162560000D03*
X91440000Y-165100000D03*
X91440000Y-167640000D03*
X91440000Y-170180000D03*
X91440000Y-172720000D03*
X99060000Y-172720000D03*
X99060000Y-170180000D03*
X99060000Y-167640000D03*
X99060000Y-165100000D03*
X99060000Y-162560000D03*
X99060000Y-160020000D03*
X99060000Y-157480000D03*
X99060000Y-154940000D03*
X104140000Y-185420000D03*
X104140000Y-187960000D03*
X104140000Y-190500000D03*
X104140000Y-193040000D03*
X104140000Y-195580000D03*
X104140000Y-198120000D03*
X104140000Y-200660000D03*
X111760000Y-200660000D03*
X111760000Y-198120000D03*
X111760000Y-195580000D03*
X111760000Y-193040000D03*
X111760000Y-190500000D03*
X111760000Y-187960000D03*
X111760000Y-185420000D03*
X91440000Y-127000000D03*
X91440000Y-129540000D03*
X91440000Y-132080000D03*
X91440000Y-134620000D03*
X91440000Y-137160000D03*
X91440000Y-139700000D03*
X91440000Y-142240000D03*
X99060000Y-142240000D03*
X99060000Y-139700000D03*
X99060000Y-137160000D03*
X99060000Y-134620000D03*
X99060000Y-132080000D03*
X99060000Y-129540000D03*
X99060000Y-127000000D03*
X66040000Y-127000000D03*
X66040000Y-129540000D03*
X66040000Y-132080000D03*
X66040000Y-134620000D03*
X66040000Y-137160000D03*
X66040000Y-139700000D03*
X66040000Y-142240000D03*
X73660000Y-142240000D03*
X73660000Y-139700000D03*
X73660000Y-137160000D03*
X73660000Y-134620000D03*
X73660000Y-132080000D03*
X73660000Y-129540000D03*
X73660000Y-127000000D03*
X78740000Y-154940000D03*
X78740000Y-157480000D03*
X78740000Y-160020000D03*
X78740000Y-162560000D03*
X78740000Y-165100000D03*
X78740000Y-167640000D03*
X78740000Y-170180000D03*
X78740000Y-172720000D03*
X86360000Y-172720000D03*
X86360000Y-170180000D03*
X86360000Y-167640000D03*
X86360000Y-165100000D03*
X86360000Y-162560000D03*
X86360000Y-160020000D03*
X86360000Y-157480000D03*
X86360000Y-154940000D03*
X40640000Y-185420000D03*
X40640000Y-187960000D03*
X40640000Y-190500000D03*
X40640000Y-193040000D03*
X40640000Y-195580000D03*
X40640000Y-198120000D03*
X40640000Y-200660000D03*
X40640000Y-203200000D03*
X40640000Y-205740000D03*
X40640000Y-208280000D03*
X48260000Y-208280000D03*
X48260000Y-205740000D03*
X48260000Y-203200000D03*
X48260000Y-200660000D03*
X48260000Y-198120000D03*
X48260000Y-195580000D03*
X48260000Y-193040000D03*
X48260000Y-190500000D03*
X48260000Y-187960000D03*
X48260000Y-185420000D03*
X127000000Y-20320000D03*
X124460000Y-20320000D03*
X121920000Y-20320000D03*
X119380000Y-20320000D03*
X116840000Y-20320000D03*
X114300000Y-20320000D03*
X111760000Y-20320000D03*
X109220000Y-20320000D03*
X109220000Y-27940000D03*
X111760000Y-27940000D03*
X114300000Y-27940000D03*
X116840000Y-27940000D03*
X119380000Y-27940000D03*
X121920000Y-27940000D03*
X124460000Y-27940000D03*
X127000000Y-27940000D03*
X137160000Y-38100000D03*
X137160000Y-40640000D03*
X137160000Y-43180000D03*
X137160000Y-45720000D03*
X137160000Y-48260000D03*
X137160000Y-50800000D03*
X137160000Y-53340000D03*
X137160000Y-55880000D03*
X144780000Y-55880000D03*
X144780000Y-53340000D03*
X144780000Y-50800000D03*
X144780000Y-48260000D03*
X144780000Y-45720000D03*
X144780000Y-43180000D03*
X144780000Y-40640000D03*
X144780000Y-38100000D03*
X137160000Y-66040000D03*
X137160000Y-68580000D03*
X137160000Y-71120000D03*
X137160000Y-73660000D03*
X137160000Y-76200000D03*
X137160000Y-78740000D03*
X137160000Y-81280000D03*
X137160000Y-83820000D03*
X144780000Y-83820000D03*
X144780000Y-81280000D03*
X144780000Y-78740000D03*
X144780000Y-76200000D03*
X144780000Y-73660000D03*
X144780000Y-71120000D03*
X144780000Y-68580000D03*
X144780000Y-66040000D03*
X137160000Y-119380000D03*
X137160000Y-121920000D03*
X137160000Y-124460000D03*
X137160000Y-127000000D03*
X137160000Y-129540000D03*
X137160000Y-132080000D03*
X137160000Y-134620000D03*
X144780000Y-134620000D03*
X144780000Y-132080000D03*
X144780000Y-129540000D03*
X144780000Y-127000000D03*
X144780000Y-124460000D03*
X144780000Y-121920000D03*
X144780000Y-119380000D03*
X137160000Y-93980000D03*
X137160000Y-96520000D03*
X137160000Y-99060000D03*
X137160000Y-101600000D03*
X137160000Y-104140000D03*
X137160000Y-106680000D03*
X137160000Y-109220000D03*
X144780000Y-109220000D03*
X144780000Y-106680000D03*
X144780000Y-104140000D03*
X144780000Y-101600000D03*
X144780000Y-99060000D03*
X144780000Y-96520000D03*
X144780000Y-93980000D03*
D23*
X139700000Y-208180940D03*
X139700000Y-203299060D03*
D22*
X116840000Y-203200000D03*
X116840000Y-205740000D03*
X116840000Y-208280000D03*
X116840000Y-210820000D03*
X116840000Y-213360000D03*
X116840000Y-215900000D03*
X116840000Y-218440000D03*
X116840000Y-220980000D03*
X116840000Y-223520000D03*
X116840000Y-226060000D03*
X116840000Y-228600000D03*
X116840000Y-231140000D03*
X132080000Y-231140000D03*
X132080000Y-228600000D03*
X132080000Y-226060000D03*
X132080000Y-223520000D03*
X132080000Y-220980000D03*
X132080000Y-218440000D03*
X132080000Y-215900000D03*
X132080000Y-213360000D03*
X132080000Y-210820000D03*
X132080000Y-208280000D03*
X132080000Y-205740000D03*
X132080000Y-203200000D03*
X116840000Y-165100000D03*
X116840000Y-167640000D03*
X116840000Y-170180000D03*
X116840000Y-172720000D03*
X116840000Y-175260000D03*
X116840000Y-177800000D03*
X116840000Y-180340000D03*
X116840000Y-182880000D03*
X116840000Y-185420000D03*
X116840000Y-187960000D03*
X116840000Y-190500000D03*
X116840000Y-193040000D03*
X132080000Y-193040000D03*
X132080000Y-190500000D03*
X132080000Y-187960000D03*
X132080000Y-185420000D03*
X132080000Y-182880000D03*
X132080000Y-180340000D03*
X132080000Y-177800000D03*
X132080000Y-175260000D03*
X132080000Y-172720000D03*
X132080000Y-170180000D03*
X132080000Y-167640000D03*
X132080000Y-165100000D03*
X68580000Y-38100000D03*
X68580000Y-40640000D03*
X68580000Y-43180000D03*
X68580000Y-45720000D03*
X68580000Y-48260000D03*
X68580000Y-50800000D03*
X68580000Y-53340000D03*
X68580000Y-55880000D03*
X68580000Y-58420000D03*
X68580000Y-60960000D03*
X68580000Y-63500000D03*
X68580000Y-66040000D03*
X68580000Y-68580000D03*
X68580000Y-71120000D03*
X68580000Y-73660000D03*
X68580000Y-76200000D03*
X68580000Y-78740000D03*
X68580000Y-81280000D03*
X68580000Y-83820000D03*
X68580000Y-86360000D03*
X68580000Y-88900000D03*
X68580000Y-91440000D03*
X68580000Y-93980000D03*
X68580000Y-96520000D03*
X68580000Y-99060000D03*
X68580000Y-101600000D03*
X68580000Y-104140000D03*
X68580000Y-106680000D03*
X68580000Y-109220000D03*
X68580000Y-111760000D03*
X68580000Y-114300000D03*
X68580000Y-116840000D03*
X91440000Y-116840000D03*
X91440000Y-114300000D03*
X91440000Y-111760000D03*
X91440000Y-109220000D03*
X91440000Y-106680000D03*
X91440000Y-104140000D03*
X91440000Y-101600000D03*
X91440000Y-99060000D03*
X91440000Y-96520000D03*
X91440000Y-93980000D03*
X91440000Y-91440000D03*
X91440000Y-88900000D03*
X91440000Y-86360000D03*
X91440000Y-83820000D03*
X91440000Y-81280000D03*
X91440000Y-78740000D03*
X91440000Y-76200000D03*
X91440000Y-73660000D03*
X91440000Y-71120000D03*
X91440000Y-68580000D03*
X91440000Y-66040000D03*
X91440000Y-63500000D03*
X91440000Y-60960000D03*
X91440000Y-58420000D03*
X91440000Y-55880000D03*
X91440000Y-53340000D03*
X91440000Y-50800000D03*
X91440000Y-48260000D03*
X91440000Y-45720000D03*
X91440000Y-43180000D03*
X91440000Y-40640000D03*
X91440000Y-38100000D03*
X27940000Y-38100000D03*
X27940000Y-40640000D03*
X27940000Y-43180000D03*
X27940000Y-45720000D03*
X27940000Y-48260000D03*
X27940000Y-50800000D03*
X27940000Y-53340000D03*
X27940000Y-55880000D03*
X27940000Y-58420000D03*
X27940000Y-60960000D03*
X27940000Y-63500000D03*
X27940000Y-66040000D03*
X27940000Y-68580000D03*
X27940000Y-71120000D03*
X43180000Y-71120000D03*
X43180000Y-68580000D03*
X43180000Y-66040000D03*
X43180000Y-63500000D03*
X43180000Y-60960000D03*
X43180000Y-58420000D03*
X43180000Y-55880000D03*
X43180000Y-53340000D03*
X43180000Y-50800000D03*
X43180000Y-48260000D03*
X43180000Y-45720000D03*
X43180000Y-43180000D03*
X43180000Y-40640000D03*
X43180000Y-38100000D03*
X27940000Y-83820000D03*
X27940000Y-86360000D03*
X27940000Y-88900000D03*
X27940000Y-91440000D03*
X27940000Y-93980000D03*
X27940000Y-96520000D03*
X27940000Y-99060000D03*
X27940000Y-101600000D03*
X27940000Y-104140000D03*
X27940000Y-106680000D03*
X27940000Y-109220000D03*
X27940000Y-111760000D03*
X27940000Y-114300000D03*
X27940000Y-116840000D03*
X43180000Y-116840000D03*
X43180000Y-114300000D03*
X43180000Y-111760000D03*
X43180000Y-109220000D03*
X43180000Y-106680000D03*
X43180000Y-104140000D03*
X43180000Y-101600000D03*
X43180000Y-99060000D03*
X43180000Y-96520000D03*
X43180000Y-93980000D03*
X43180000Y-91440000D03*
X43180000Y-88900000D03*
X43180000Y-86360000D03*
X43180000Y-83820000D03*
X48260000Y-38100000D03*
X48260000Y-40640000D03*
X48260000Y-43180000D03*
X48260000Y-45720000D03*
X48260000Y-48260000D03*
X48260000Y-50800000D03*
X48260000Y-53340000D03*
X48260000Y-55880000D03*
X48260000Y-58420000D03*
X48260000Y-60960000D03*
X48260000Y-63500000D03*
X48260000Y-66040000D03*
X48260000Y-68580000D03*
X48260000Y-71120000D03*
X63500000Y-71120000D03*
X63500000Y-68580000D03*
X63500000Y-66040000D03*
X63500000Y-63500000D03*
X63500000Y-60960000D03*
X63500000Y-58420000D03*
X63500000Y-55880000D03*
X63500000Y-53340000D03*
X63500000Y-50800000D03*
X63500000Y-48260000D03*
X63500000Y-45720000D03*
X63500000Y-43180000D03*
X63500000Y-40640000D03*
X63500000Y-38100000D03*
X48260000Y-83820000D03*
X48260000Y-86360000D03*
X48260000Y-88900000D03*
X48260000Y-91440000D03*
X48260000Y-93980000D03*
X48260000Y-96520000D03*
X48260000Y-99060000D03*
X48260000Y-101600000D03*
X48260000Y-104140000D03*
X48260000Y-106680000D03*
X48260000Y-109220000D03*
X48260000Y-111760000D03*
X48260000Y-114300000D03*
X48260000Y-116840000D03*
X63500000Y-116840000D03*
X63500000Y-114300000D03*
X63500000Y-111760000D03*
X63500000Y-109220000D03*
X63500000Y-106680000D03*
X63500000Y-104140000D03*
X63500000Y-101600000D03*
X63500000Y-99060000D03*
X63500000Y-96520000D03*
X63500000Y-93980000D03*
X63500000Y-91440000D03*
X63500000Y-88900000D03*
X63500000Y-86360000D03*
X63500000Y-83820000D03*
X96520000Y-38100000D03*
X96520000Y-40640000D03*
X96520000Y-43180000D03*
X96520000Y-45720000D03*
X96520000Y-48260000D03*
X96520000Y-50800000D03*
X96520000Y-53340000D03*
X96520000Y-55880000D03*
X96520000Y-58420000D03*
X96520000Y-60960000D03*
X96520000Y-63500000D03*
X96520000Y-66040000D03*
X96520000Y-68580000D03*
X96520000Y-71120000D03*
X111760000Y-71120000D03*
X111760000Y-68580000D03*
X111760000Y-66040000D03*
X111760000Y-63500000D03*
X111760000Y-60960000D03*
X111760000Y-58420000D03*
X111760000Y-55880000D03*
X111760000Y-53340000D03*
X111760000Y-50800000D03*
X111760000Y-48260000D03*
X111760000Y-45720000D03*
X111760000Y-43180000D03*
X111760000Y-40640000D03*
X111760000Y-38100000D03*
X96520000Y-83820000D03*
X96520000Y-86360000D03*
X96520000Y-88900000D03*
X96520000Y-91440000D03*
X96520000Y-93980000D03*
X96520000Y-96520000D03*
X96520000Y-99060000D03*
X96520000Y-101600000D03*
X96520000Y-104140000D03*
X96520000Y-106680000D03*
X96520000Y-109220000D03*
X96520000Y-111760000D03*
X96520000Y-114300000D03*
X96520000Y-116840000D03*
X111760000Y-116840000D03*
X111760000Y-114300000D03*
X111760000Y-111760000D03*
X111760000Y-109220000D03*
X111760000Y-106680000D03*
X111760000Y-104140000D03*
X111760000Y-101600000D03*
X111760000Y-99060000D03*
X111760000Y-96520000D03*
X111760000Y-93980000D03*
X111760000Y-91440000D03*
X111760000Y-88900000D03*
X111760000Y-86360000D03*
X111760000Y-83820000D03*
X116840000Y-38100000D03*
X116840000Y-40640000D03*
X116840000Y-43180000D03*
X116840000Y-45720000D03*
X116840000Y-48260000D03*
X116840000Y-50800000D03*
X116840000Y-53340000D03*
X116840000Y-55880000D03*
X116840000Y-58420000D03*
X116840000Y-60960000D03*
X116840000Y-63500000D03*
X116840000Y-66040000D03*
X116840000Y-68580000D03*
X116840000Y-71120000D03*
X132080000Y-71120000D03*
X132080000Y-68580000D03*
X132080000Y-66040000D03*
X132080000Y-63500000D03*
X132080000Y-60960000D03*
X132080000Y-58420000D03*
X132080000Y-55880000D03*
X132080000Y-53340000D03*
X132080000Y-50800000D03*
X132080000Y-48260000D03*
X132080000Y-45720000D03*
X132080000Y-43180000D03*
X132080000Y-40640000D03*
X132080000Y-38100000D03*
X116840000Y-83820000D03*
X116840000Y-86360000D03*
X116840000Y-88900000D03*
X116840000Y-91440000D03*
X116840000Y-93980000D03*
X116840000Y-96520000D03*
X116840000Y-99060000D03*
X116840000Y-101600000D03*
X116840000Y-104140000D03*
X116840000Y-106680000D03*
X116840000Y-109220000D03*
X116840000Y-111760000D03*
X116840000Y-114300000D03*
X116840000Y-116840000D03*
X132080000Y-116840000D03*
X132080000Y-114300000D03*
X132080000Y-111760000D03*
X132080000Y-109220000D03*
X132080000Y-106680000D03*
X132080000Y-104140000D03*
X132080000Y-101600000D03*
X132080000Y-99060000D03*
X132080000Y-96520000D03*
X132080000Y-93980000D03*
X132080000Y-91440000D03*
X132080000Y-88900000D03*
X132080000Y-86360000D03*
X132080000Y-83820000D03*
X116840000Y-127000000D03*
X116840000Y-129540000D03*
X116840000Y-132080000D03*
X116840000Y-134620000D03*
X116840000Y-137160000D03*
X116840000Y-139700000D03*
X116840000Y-142240000D03*
X116840000Y-144780000D03*
X116840000Y-147320000D03*
X116840000Y-149860000D03*
X116840000Y-152400000D03*
X116840000Y-154940000D03*
X132080000Y-154940000D03*
X132080000Y-152400000D03*
X132080000Y-149860000D03*
X132080000Y-147320000D03*
X132080000Y-144780000D03*
X132080000Y-142240000D03*
X132080000Y-139700000D03*
X132080000Y-137160000D03*
X132080000Y-134620000D03*
X132080000Y-132080000D03*
X132080000Y-129540000D03*
X132080000Y-127000000D03*
D15*
X107950000Y-154940000D03*
X105410000Y-154940000D03*
X105410000Y-160020000D03*
X107950000Y-160020000D03*
X107950000Y-165100000D03*
X105410000Y-165100000D03*
X105410000Y-170180000D03*
X107950000Y-170180000D03*
X140970000Y-162560000D03*
X143510000Y-162560000D03*
X140970000Y-193040000D03*
X143510000Y-193040000D03*
D24*
X91825700Y-178311500D03*
X94666300Y-70273700D03*
X55955400Y-71840000D03*
X55265600Y-117807700D03*
X103711200Y-71842200D03*
X106183000Y-153186000D03*
X56107900Y-75430000D03*
X79495700Y-175321200D03*
X104100000Y-44982800D03*
X124431200Y-82591600D03*
X129771400Y-165459200D03*
X68751900Y-141968200D03*
X66040000Y-177266600D03*
X67390300Y-178616900D03*
X49111500Y-153248000D03*
X57794000Y-159394000D03*
X60372200Y-163136600D03*
X60282800Y-182920900D03*
X101690500Y-76031600D03*
X68393900Y-182335800D03*
X34428300Y-147279800D03*
X83685900Y-181572100D03*
X35673700Y-125138100D03*
X91794000Y-144341000D03*
X94017200Y-157498900D03*
X87818600Y-149573600D03*
X95382400Y-161109600D03*
X90733500Y-146325100D03*
X90024800Y-146990000D03*
X118360800Y-138744600D03*
X71362700Y-216030900D03*
X125392600Y-148707500D03*
X125844300Y-147476900D03*
X125309700Y-119428800D03*
X124308300Y-116095400D03*
X89564900Y-140774900D03*
X89795400Y-208710500D03*
X58004300Y-145442900D03*
X87730100Y-191292300D03*
X68861400Y-214450200D03*
X88905800Y-186057800D03*
X88930100Y-142074400D03*
X96078300Y-193587000D03*
X94706700Y-156549000D03*
X87226000Y-149006800D03*
X93077600Y-205847900D03*
X82045400Y-102115100D03*
X81570600Y-100239300D03*
X81138800Y-93763700D03*
X80673300Y-70696800D03*
X79816200Y-72775400D03*
X37027700Y-189431900D03*
X81264200Y-90350100D03*
X57518600Y-146120800D03*
X43989500Y-145773000D03*
X43967700Y-148226300D03*
X76667700Y-91832300D03*
X76359800Y-128427800D03*
X31501000Y-154702900D03*
X71719200Y-69458800D03*
X78967300Y-72988400D03*
X37746200Y-84071200D03*
X75241300Y-79488900D03*
X77059000Y-83430600D03*
X29028000Y-181569500D03*
X37787000Y-146895200D03*
X68442200Y-119396100D03*
X83716500Y-120188600D03*
X38123900Y-123472800D03*
X26809600Y-172180100D03*
X86443000Y-181502300D03*
X82668400Y-170955000D03*
X50015600Y-162032100D03*
X51135500Y-195759200D03*
X71821000Y-184614000D03*
X65885900Y-55068100D03*
X42876100Y-195733200D03*
X62085400Y-186923400D03*
X51108100Y-148849000D03*
X38821800Y-125098500D03*
X45960700Y-191949900D03*
X54659700Y-190492300D03*
X71747400Y-165881000D03*
X51580700Y-156509800D03*
X105841200Y-199025000D03*
X38147500Y-197951400D03*
X91721300Y-205786000D03*
X67338600Y-215075500D03*
X50862900Y-133686000D03*
X66040000Y-147970000D03*
X32622000Y-156487000D03*
X103980600Y-97055200D03*
X62346800Y-100396300D03*
X61065600Y-35468900D03*
X109861100Y-124870200D03*
X79994800Y-189208700D03*
X76980200Y-172808400D03*
X139005300Y-74196600D03*
X93318800Y-201080800D03*
X50335500Y-200112800D03*
X67454700Y-82067500D03*
X40901700Y-84291800D03*
X66788500Y-72600900D03*
X120692000Y-174305800D03*
X65594800Y-113532800D03*
X115410200Y-115762300D03*
X99311200Y-118865600D03*
X71160100Y-73782400D03*
X93559400Y-79499100D03*
X127998500Y-88077500D03*
X88808200Y-64165500D03*
X64146700Y-32789500D03*
X89189300Y-65127800D03*
X104142200Y-112464800D03*
X108926500Y-133403100D03*
X65697700Y-33386500D03*
X87142200Y-64044200D03*
X119317500Y-112933600D03*
X29721400Y-109164100D03*
X67314700Y-33917200D03*
X106715300Y-131302100D03*
X128379600Y-138253500D03*
X81264200Y-87332700D03*
X88350800Y-122377900D03*
X92802200Y-36014000D03*
X102629600Y-42684600D03*
X89232000Y-106380600D03*
X92756000Y-78984100D03*
X138974000Y-63983000D03*
X109642200Y-146365300D03*
X108204500Y-106504400D03*
X48016900Y-72619000D03*
X115483300Y-68817200D03*
X98236600Y-73572200D03*
X30224200Y-103342700D03*
X116503700Y-80248200D03*
X108174000Y-57866500D03*
X70110500Y-105529800D03*
X113956300Y-100401000D03*
X93279700Y-102234400D03*
X89562600Y-114261400D03*
X66052500Y-115426700D03*
X30673200Y-102082500D03*
X58798400Y-105228800D03*
X110552800Y-57150000D03*
X113999700Y-80683000D03*
X72126600Y-117714300D03*
X26350700Y-97748300D03*
X99446500Y-100271800D03*
X118639800Y-98298100D03*
X73273900Y-102207600D03*
X97667700Y-100905900D03*
X119364700Y-95533600D03*
X44588000Y-95183000D03*
X92432600Y-121254200D03*
X98612300Y-98565600D03*
X119501500Y-93216200D03*
X76923200Y-115011400D03*
X106274800Y-50089700D03*
X93137400Y-101269900D03*
X31120300Y-92846800D03*
X77334900Y-112530200D03*
X33821400Y-90314700D03*
X34799400Y-151593400D03*
X119945800Y-87490200D03*
X89677300Y-91067700D03*
X33381200Y-87774700D03*
X89900200Y-88314400D03*
X49849800Y-143094700D03*
X56493000Y-90364000D03*
X58758700Y-134080500D03*
X89143600Y-107216700D03*
X86361300Y-44164500D03*
X100300900Y-131469300D03*
X94448000Y-49734200D03*
X90953600Y-123110700D03*
X87675900Y-105205100D03*
X126732100Y-101600000D03*
X44392800Y-103438900D03*
X126281800Y-96324800D03*
X69559900Y-97386800D03*
X102360100Y-97745000D03*
X34110700Y-84457100D03*
X85012700Y-98259200D03*
X92747900Y-87241000D03*
X77108800Y-94682500D03*
X77389700Y-92348100D03*
X71362400Y-135924900D03*
X77468400Y-90845300D03*
X70978400Y-128032900D03*
X77785200Y-87845200D03*
X70401500Y-127003100D03*
X77785200Y-86144200D03*
X89901000Y-71786000D03*
X87263400Y-64865900D03*
X86225200Y-64038700D03*
X133125600Y-69850000D03*
X76662700Y-71568200D03*
X128623800Y-109947800D03*
X128343600Y-78806900D03*
X92426600Y-75340500D03*
X89390600Y-72962900D03*
X77096200Y-68039800D03*
X131087900Y-73529500D03*
X134105500Y-72392500D03*
X60591200Y-72498200D03*
X65735100Y-44386900D03*
X122492800Y-125812700D03*
X99993100Y-79182000D03*
X117777600Y-82850000D03*
X49907300Y-77312600D03*
X124884100Y-126965900D03*
X50555800Y-109197800D03*
X114603800Y-76832000D03*
X51377400Y-76078700D03*
X114189500Y-58819900D03*
X114769400Y-109100800D03*
X120919200Y-124397200D03*
X53993500Y-45482600D03*
X39149000Y-60964600D03*
X41424200Y-106033000D03*
X45775400Y-107987800D03*
X52048500Y-46442500D03*
X100146000Y-107768300D03*
X99258600Y-64149100D03*
X100573200Y-109663800D03*
X46634600Y-107630000D03*
X114144000Y-113336100D03*
X76354600Y-171158900D03*
X55174600Y-162006200D03*
X72316200Y-166476200D03*
X54465300Y-150367700D03*
X56972700Y-135291400D03*
X65033700Y-205440200D03*
X57746900Y-185457800D03*
X53554700Y-181265600D03*
X63990100Y-199758700D03*
X108297500Y-128869600D03*
X92409600Y-141354200D03*
X62302300Y-146797300D03*
X114835900Y-124401200D03*
X111036200Y-120546800D03*
X63545600Y-123092200D03*
X141986200Y-129397700D03*
X116152500Y-124902400D03*
X62178000Y-118124700D03*
X110958600Y-118089600D03*
X142993300Y-86560500D03*
X58142000Y-83123600D03*
X129757300Y-89870800D03*
X129757300Y-102599600D03*
X61460000Y-124293500D03*
X68928300Y-183150900D03*
X54679100Y-194401800D03*
X62772500Y-159047200D03*
X44503200Y-150138800D03*
X76093800Y-173941600D03*
X71107900Y-173941600D03*
X106680000Y-156143800D03*
X45455500Y-61270700D03*
X56940300Y-70057300D03*
X124967900Y-152513100D03*
X92278600Y-59774200D03*
X69948900Y-188446700D03*
X98108900Y-197163900D03*
X70611200Y-199881500D03*
X69148400Y-135188800D03*
X65041300Y-150457300D03*
X75904400Y-159559400D03*
X83702300Y-197112400D03*
X75465700Y-157351600D03*
X76768000Y-199245600D03*
X71608400Y-199952000D03*
X83045800Y-198453300D03*
X110758600Y-141381600D03*
X55983600Y-188789200D03*
X116858800Y-194828300D03*
D25*
X48260000Y-162560000D02*
X49385300Y-162560000D01*
X53340000Y-165100000D02*
X52364700Y-165100000D01*
X51925300Y-165100000D02*
X52364700Y-165100000D01*
X49385300Y-162560000D02*
X51925300Y-165100000D01*
X27940000Y-116840000D02*
X29065300Y-116840000D01*
X115714700Y-20038600D02*
X115714700Y-20320000D01*
X114870800Y-19194700D02*
X115714700Y-20038600D01*
X111189300Y-19194700D02*
X114870800Y-19194700D01*
X110345300Y-20038700D02*
X111189300Y-19194700D01*
X110345300Y-20320000D02*
X110345300Y-20038700D01*
X109220000Y-20320000D02*
X110345300Y-20320000D01*
X116840000Y-20320000D02*
X115714700Y-20320000D01*
X106871600Y-169796800D02*
X106488400Y-170180000D01*
X106871600Y-165100000D02*
X106871600Y-169796800D01*
X107950000Y-165100000D02*
X106871600Y-165100000D01*
X39514700Y-143325300D02*
X32980000Y-149860000D01*
X39514700Y-142240000D02*
X39514700Y-143325300D01*
X95394700Y-71002100D02*
X94666300Y-70273700D01*
X95394700Y-71120000D02*
X95394700Y-71002100D01*
X96520000Y-71120000D02*
X95394700Y-71120000D01*
X94451500Y-178311500D02*
X96480000Y-180340000D01*
X91825700Y-178311500D02*
X94451500Y-178311500D01*
X97455400Y-179364600D02*
X96480000Y-180340000D01*
X108204600Y-179364600D02*
X97455400Y-179364600D01*
X109180000Y-180340000D02*
X108204600Y-179364600D01*
X137160000Y-55880000D02*
X136034700Y-55880000D01*
X137160000Y-48260000D02*
X137160000Y-49385300D01*
X134089500Y-53340000D02*
X132080000Y-53340000D01*
X134089500Y-53934800D02*
X134089500Y-53340000D01*
X136034700Y-55880000D02*
X134089500Y-53934800D01*
X136878700Y-49385300D02*
X137160000Y-49385300D01*
X134089500Y-52174500D02*
X136878700Y-49385300D01*
X134089500Y-53340000D02*
X134089500Y-52174500D01*
X91440000Y-172720000D02*
X90314700Y-172720000D01*
X104421400Y-143654700D02*
X104140000Y-143654700D01*
X105265300Y-142810800D02*
X104421400Y-143654700D01*
X105265300Y-141669300D02*
X105265300Y-142810800D01*
X104421300Y-140825300D02*
X105265300Y-141669300D01*
X104140000Y-140825300D02*
X104421300Y-140825300D01*
X104140000Y-139700000D02*
X104140000Y-140825300D01*
X104140000Y-144780000D02*
X104140000Y-143654700D01*
X105410000Y-170180000D02*
X106488400Y-170180000D01*
X48260000Y-71120000D02*
X49385300Y-71120000D01*
X48260000Y-116840000D02*
X49385300Y-116840000D01*
X66040000Y-170180000D02*
X61090000Y-170180000D01*
X59944600Y-169034600D02*
X59944600Y-166075400D01*
X61090000Y-170180000D02*
X59944600Y-169034600D01*
X60920000Y-165100000D02*
X59944600Y-166075400D01*
X56815400Y-166075400D02*
X55840000Y-165100000D01*
X59944600Y-166075400D02*
X56815400Y-166075400D01*
X53340000Y-142240000D02*
X54465300Y-142240000D01*
X142240000Y-172333100D02*
X135323600Y-165416700D01*
X142240000Y-173990000D02*
X142240000Y-172333100D01*
X133869800Y-163962900D02*
X135323600Y-165416700D01*
X131594400Y-163962900D02*
X133869800Y-163962900D01*
X130949400Y-164607900D02*
X131594400Y-163962900D01*
X130949400Y-166509400D02*
X130949400Y-164607900D01*
X132080000Y-167640000D02*
X130949400Y-166509400D01*
X40640000Y-142240000D02*
X39514700Y-142240000D01*
X40921400Y-141114700D02*
X40640000Y-141114700D01*
X41765300Y-140270800D02*
X40921400Y-141114700D01*
X41765300Y-139218600D02*
X41765300Y-140270800D01*
X41116300Y-138569600D02*
X41765300Y-139218600D01*
X32735700Y-138569600D02*
X41116300Y-138569600D01*
X29065300Y-142240000D02*
X32735700Y-138569600D01*
X27940000Y-142240000D02*
X29065300Y-142240000D01*
X40640000Y-142240000D02*
X40640000Y-141114700D01*
X66040000Y-142240000D02*
X64914700Y-142240000D01*
X54297900Y-116840000D02*
X55265600Y-117807700D01*
X49385300Y-116840000D02*
X54297900Y-116840000D01*
X100330000Y-228600000D02*
X101408400Y-228600000D01*
X98367500Y-71842200D02*
X97645300Y-71120000D01*
X103711200Y-71842200D02*
X98367500Y-71842200D01*
X96520000Y-71120000D02*
X97645300Y-71120000D01*
X50105300Y-71840000D02*
X55955400Y-71840000D01*
X49385300Y-71120000D02*
X50105300Y-71840000D01*
X63781400Y-54465300D02*
X63500000Y-54465300D01*
X64625300Y-55309200D02*
X63781400Y-54465300D01*
X64625300Y-56408700D02*
X64625300Y-55309200D01*
X63884000Y-57150000D02*
X64625300Y-56408700D01*
X63172500Y-57150000D02*
X63884000Y-57150000D01*
X60392300Y-59930200D02*
X63172500Y-57150000D01*
X60392300Y-67501800D02*
X60392300Y-59930200D01*
X56054100Y-71840000D02*
X60392300Y-67501800D01*
X55955400Y-71840000D02*
X56054100Y-71840000D01*
X63500000Y-53340000D02*
X63500000Y-54465300D01*
X106871600Y-153874600D02*
X106871600Y-154940000D01*
X106183000Y-153186000D02*
X106871600Y-153874600D01*
X27940000Y-71120000D02*
X29065300Y-71120000D01*
X68580000Y-76200000D02*
X67454700Y-76200000D01*
X66684700Y-75430000D02*
X56107900Y-75430000D01*
X67454700Y-76200000D02*
X66684700Y-75430000D01*
X37664700Y-75430000D02*
X35520000Y-77574700D01*
X56107900Y-75430000D02*
X37664700Y-75430000D01*
X29065300Y-71120000D02*
X35520000Y-77574700D01*
X35520000Y-77574700D02*
X35520000Y-78740000D01*
X107950000Y-154940000D02*
X106871600Y-154940000D01*
X83780000Y-176776900D02*
X83780000Y-180340000D01*
X86257800Y-176776900D02*
X83780000Y-176776900D01*
X90314700Y-172720000D02*
X86257800Y-176776900D01*
X80951400Y-176776900D02*
X79495700Y-175321200D01*
X83780000Y-176776900D02*
X80951400Y-176776900D01*
X111760000Y-53340000D02*
X111760000Y-52214700D01*
X132080000Y-25360000D02*
X124420000Y-33020000D01*
X111331900Y-52214700D02*
X104100000Y-44982800D01*
X111760000Y-52214700D02*
X111331900Y-52214700D01*
X103124700Y-33995300D02*
X104100000Y-33020000D01*
X82215300Y-33995300D02*
X103124700Y-33995300D01*
X81240000Y-33020000D02*
X82215300Y-33995300D01*
X111760000Y-27940000D02*
X111760000Y-29065300D01*
X111760000Y-29065300D02*
X111760000Y-29286300D01*
X107833700Y-29286300D02*
X111760000Y-29286300D01*
X104100000Y-33020000D02*
X107833700Y-29286300D01*
X120686300Y-29286300D02*
X124420000Y-33020000D01*
X111760000Y-29286300D02*
X120686300Y-29286300D01*
X138245300Y-84945300D02*
X137160000Y-84945300D01*
X142200000Y-88900000D02*
X138245300Y-84945300D01*
X137160000Y-83820000D02*
X137160000Y-84945300D01*
X144780000Y-104140000D02*
X143654700Y-104140000D01*
X142200000Y-112845300D02*
X138574700Y-109220000D01*
X142200000Y-114300000D02*
X142200000Y-112845300D01*
X143654700Y-104140000D02*
X138574700Y-109220000D01*
X138574700Y-109220000D02*
X137160000Y-109220000D01*
X124420000Y-160107800D02*
X124420000Y-160020000D01*
X129771400Y-165459200D02*
X124420000Y-160107800D01*
X117925300Y-72245300D02*
X116840000Y-72245300D01*
X124420000Y-78740000D02*
X117925300Y-72245300D01*
X116840000Y-71120000D02*
X116840000Y-72245300D01*
X110206400Y-78740000D02*
X104100000Y-78740000D01*
X113240700Y-81774300D02*
X110206400Y-78740000D01*
X123613900Y-81774300D02*
X113240700Y-81774300D01*
X124431200Y-82591600D02*
X123613900Y-81774300D01*
X126834500Y-84994900D02*
X124431200Y-82591600D01*
X132539900Y-84994900D02*
X126834500Y-84994900D01*
X135290600Y-82244200D02*
X132539900Y-84994900D01*
X135290600Y-81522400D02*
X135290600Y-82244200D01*
X136716000Y-80097000D02*
X135290600Y-81522400D01*
X137642400Y-80097000D02*
X136716000Y-80097000D01*
X138317000Y-80771600D02*
X137642400Y-80097000D01*
X138317000Y-82663000D02*
X138317000Y-80771600D01*
X137160000Y-83820000D02*
X138317000Y-82663000D01*
X40600000Y-116840000D02*
X45680000Y-121920000D01*
X29065300Y-116840000D02*
X40600000Y-116840000D01*
X60278400Y-120021600D02*
X58380000Y-121920000D01*
X69765900Y-120021600D02*
X60278400Y-120021600D01*
X71080000Y-121335700D02*
X69765900Y-120021600D01*
X71080000Y-121920000D02*
X71080000Y-121335700D01*
X137441300Y-44594700D02*
X137160000Y-44594700D01*
X142200000Y-39836000D02*
X137441300Y-44594700D01*
X142200000Y-33020000D02*
X142200000Y-39836000D01*
X137160000Y-45720000D02*
X137160000Y-44594700D01*
X36495400Y-32044600D02*
X35520000Y-33020000D01*
X54864600Y-32044600D02*
X36495400Y-32044600D01*
X55840000Y-33020000D02*
X54864600Y-32044600D01*
X44704600Y-179364600D02*
X45680000Y-180340000D01*
X33955400Y-179364600D02*
X44704600Y-179364600D01*
X32980000Y-180340000D02*
X33955400Y-179364600D01*
X55590600Y-141114700D02*
X54465300Y-142240000D01*
X61426200Y-141114700D02*
X55590600Y-141114700D01*
X62551400Y-142239900D02*
X61426200Y-141114700D01*
X62551400Y-142240000D02*
X62551400Y-142239900D01*
X64914700Y-142240000D02*
X62551400Y-142240000D01*
X67437100Y-141968200D02*
X67165300Y-142240000D01*
X68751900Y-141968200D02*
X67437100Y-141968200D01*
X66040000Y-142240000D02*
X67165300Y-142240000D01*
X91440000Y-142240000D02*
X90314700Y-142240000D01*
X90314700Y-142380700D02*
X83307700Y-149387700D01*
X90314700Y-142240000D02*
X90314700Y-142380700D01*
X82804600Y-148884600D02*
X83307700Y-149387700D01*
X72055400Y-148884600D02*
X82804600Y-148884600D01*
X71080000Y-149860000D02*
X72055400Y-148884600D01*
X83307700Y-149387700D02*
X83780000Y-149860000D01*
X116840000Y-116840000D02*
X115714700Y-116840000D01*
X110486500Y-121920000D02*
X109180000Y-121920000D01*
X104140000Y-132080000D02*
X104140000Y-130954700D01*
X130954700Y-128454700D02*
X130954700Y-129540000D01*
X124420000Y-121920000D02*
X130954700Y-128454700D01*
X132080000Y-129540000D02*
X130954700Y-129540000D01*
X110634700Y-121920000D02*
X115714700Y-116840000D01*
X110486500Y-121920000D02*
X110634700Y-121920000D01*
X108199800Y-120939800D02*
X109180000Y-121920000D01*
X97460200Y-120939800D02*
X108199800Y-120939800D01*
X96480000Y-121920000D02*
X97460200Y-120939800D01*
X144080400Y-145350400D02*
X142240000Y-143510000D01*
X144080400Y-156659900D02*
X144080400Y-145350400D01*
X135323600Y-165416700D02*
X144080400Y-156659900D01*
X137160000Y-134620000D02*
X137722700Y-134620000D01*
X142240000Y-139137300D02*
X142240000Y-143510000D01*
X137722700Y-134620000D02*
X142240000Y-139137300D01*
X40448400Y-229425700D02*
X40448400Y-228600000D01*
X41457200Y-230434500D02*
X40448400Y-229425700D01*
X47442700Y-230434500D02*
X41457200Y-230434500D01*
X48451600Y-229425600D02*
X47442700Y-230434500D01*
X48451600Y-228600000D02*
X48451600Y-229425600D01*
X49530000Y-228600000D02*
X48451600Y-228600000D01*
X39370000Y-228600000D02*
X40448400Y-228600000D01*
X71283300Y-180340000D02*
X71080000Y-180340000D01*
X78740000Y-172883300D02*
X71283300Y-180340000D01*
X78740000Y-172720000D02*
X78740000Y-172883300D01*
X58457500Y-22857500D02*
X58460000Y-22860000D01*
X53340500Y-22857500D02*
X58457500Y-22857500D01*
X59435400Y-23835400D02*
X58460000Y-22860000D01*
X67796200Y-23835400D02*
X59435400Y-23835400D01*
X68771600Y-22860000D02*
X67796200Y-23835400D01*
X69850000Y-22860000D02*
X68771600Y-22860000D01*
X142753800Y-129588900D02*
X137722700Y-134620000D01*
X142753800Y-127330200D02*
X142753800Y-129588900D01*
X144498700Y-125585300D02*
X142753800Y-127330200D01*
X144780000Y-125585300D02*
X144498700Y-125585300D01*
X144780000Y-124460000D02*
X144780000Y-125585300D01*
X69356900Y-178616900D02*
X67390300Y-178616900D01*
X71080000Y-180340000D02*
X69356900Y-178616900D01*
X61453400Y-177266600D02*
X66040000Y-177266600D01*
X58380000Y-180340000D02*
X61453400Y-177266600D01*
X91440000Y-200660000D02*
X90314700Y-200660000D01*
X66040000Y-200660000D02*
X67165300Y-200660000D01*
X69234800Y-202729500D02*
X67165300Y-200660000D01*
X88245200Y-202729500D02*
X69234800Y-202729500D01*
X90314700Y-200660000D02*
X88245200Y-202729500D01*
X104661000Y-130954700D02*
X104140000Y-130954700D01*
X110486500Y-125129200D02*
X104661000Y-130954700D01*
X110486500Y-121920000D02*
X110486500Y-125129200D01*
X103122700Y-231140000D02*
X116840000Y-231140000D01*
X101408400Y-229425700D02*
X103122700Y-231140000D01*
X101408400Y-228600000D02*
X101408400Y-229425700D01*
X131798600Y-206865300D02*
X132080000Y-206865300D01*
X117965300Y-220698600D02*
X131798600Y-206865300D01*
X117965300Y-229170800D02*
X117965300Y-220698600D01*
X117121400Y-230014700D02*
X117965300Y-229170800D01*
X116840000Y-230014700D02*
X117121400Y-230014700D01*
X132080000Y-205740000D02*
X132080000Y-206302600D01*
X132080000Y-206302600D02*
X132080000Y-206865300D01*
X124420000Y-198642600D02*
X124420000Y-198120000D01*
X132080000Y-206302600D02*
X124420000Y-198642600D01*
X116840000Y-231140000D02*
X116840000Y-230014700D01*
X51648000Y-153248000D02*
X53340000Y-154940000D01*
X49111500Y-153248000D02*
X51648000Y-153248000D01*
X53340000Y-154940000D02*
X57794000Y-159394000D01*
X48260000Y-157480000D02*
X48260000Y-160020000D01*
X53211800Y-169154700D02*
X53340000Y-169154700D01*
X47114200Y-163057100D02*
X53211800Y-169154700D01*
X47114200Y-162009800D02*
X47114200Y-163057100D01*
X47978700Y-161145300D02*
X47114200Y-162009800D01*
X48260000Y-161145300D02*
X47978700Y-161145300D01*
X48260000Y-160020000D02*
X48260000Y-161145300D01*
X53340000Y-170180000D02*
X53340000Y-169154700D01*
X57694200Y-163136600D02*
X60372200Y-163136600D01*
X55902600Y-161345000D02*
X57694200Y-163136600D01*
X48459700Y-161345000D02*
X55902600Y-161345000D01*
X48260000Y-161145300D02*
X48459700Y-161345000D01*
X111760000Y-38100000D02*
X112885300Y-38100000D01*
X33020000Y-33020000D02*
X33995300Y-33020000D01*
X121920000Y-78740000D02*
X120944700Y-78740000D01*
X143654700Y-65890000D02*
X139700000Y-61935300D01*
X143654700Y-66040000D02*
X143654700Y-65890000D01*
X144780000Y-66040000D02*
X143654700Y-66040000D01*
X139700000Y-60960000D02*
X139700000Y-61935300D01*
X136034700Y-78740000D02*
X132080000Y-82694700D01*
X137160000Y-78740000D02*
X136034700Y-78740000D01*
X132080000Y-83820000D02*
X132080000Y-82694700D01*
X127150000Y-26814700D02*
X131104700Y-22860000D01*
X127000000Y-26814700D02*
X127150000Y-26814700D01*
X127000000Y-27940000D02*
X127000000Y-26814700D01*
X132080000Y-22860000D02*
X131104700Y-22860000D01*
X91440000Y-190500000D02*
X92565300Y-190500000D01*
X99060000Y-190500000D02*
X92565300Y-190500000D01*
X55880000Y-180340000D02*
X56855300Y-180340000D01*
X48260000Y-154940000D02*
X49385300Y-154940000D01*
X90361600Y-229425600D02*
X90361600Y-228600000D01*
X89331700Y-230455500D02*
X90361600Y-229425600D01*
X82118200Y-230455500D02*
X89331700Y-230455500D01*
X81088400Y-229425700D02*
X82118200Y-230455500D01*
X81088400Y-228600000D02*
X81088400Y-229425700D01*
X80010000Y-228600000D02*
X81088400Y-228600000D01*
X91440000Y-228600000D02*
X90361600Y-228600000D01*
X33020000Y-78740000D02*
X33020000Y-79715300D01*
X101600000Y-33020000D02*
X100624700Y-33020000D01*
X78740000Y-33020000D02*
X79715300Y-33020000D01*
X39075300Y-38100000D02*
X43180000Y-38100000D01*
X33995300Y-33020000D02*
X39075300Y-38100000D01*
X48260000Y-154940000D02*
X47247300Y-154940000D01*
X43180000Y-150872700D02*
X43180000Y-149860000D01*
X47247300Y-154940000D02*
X43180000Y-150872700D01*
X117965300Y-33020000D02*
X121920000Y-33020000D01*
X112885300Y-38100000D02*
X117965300Y-33020000D01*
X73510000Y-153814700D02*
X73660000Y-153814700D01*
X69555300Y-149860000D02*
X73510000Y-153814700D01*
X68580000Y-149860000D02*
X69555300Y-149860000D01*
X73660000Y-154940000D02*
X73660000Y-153814700D01*
X104729400Y-181315300D02*
X105704700Y-180340000D01*
X95930600Y-181315300D02*
X104729400Y-181315300D01*
X94955300Y-180340000D02*
X95930600Y-181315300D01*
X93980000Y-180340000D02*
X94955300Y-180340000D01*
X43180000Y-83820000D02*
X42054700Y-83820000D01*
X47247300Y-155066600D02*
X47247300Y-154940000D01*
X40879200Y-161434700D02*
X47247300Y-155066600D01*
X40640000Y-161434700D02*
X40879200Y-161434700D01*
X40640000Y-162560000D02*
X40640000Y-161434700D01*
X77614700Y-149860000D02*
X80304700Y-149860000D01*
X73660000Y-153814700D02*
X77614700Y-149860000D01*
X81280000Y-149860000D02*
X80304700Y-149860000D01*
X137160000Y-96520000D02*
X137160000Y-95394700D01*
X136878700Y-95394700D02*
X137160000Y-95394700D01*
X136029700Y-94545700D02*
X136878700Y-95394700D01*
X136029700Y-88900000D02*
X136029700Y-94545700D01*
X132080000Y-88900000D02*
X136029700Y-88900000D01*
X136029700Y-88900000D02*
X139700000Y-88900000D01*
X35349800Y-161434700D02*
X40640000Y-161434700D01*
X34425200Y-160510100D02*
X35349800Y-161434700D01*
X34425200Y-156918800D02*
X34425200Y-160510100D01*
X35278700Y-156065300D02*
X34425200Y-156918800D01*
X35560000Y-156065300D02*
X35278700Y-156065300D01*
X35560000Y-154940000D02*
X35560000Y-156065300D01*
X53340000Y-78740000D02*
X53340000Y-79227600D01*
X45430600Y-82694700D02*
X44305300Y-83820000D01*
X49872900Y-82694700D02*
X45430600Y-82694700D01*
X53340000Y-79227600D02*
X49872900Y-82694700D01*
X43180000Y-83820000D02*
X44305300Y-83820000D01*
X57932400Y-83820000D02*
X53340000Y-79227600D01*
X62374700Y-83820000D02*
X57932400Y-83820000D01*
X63500000Y-83820000D02*
X62374700Y-83820000D01*
X81280000Y-31916500D02*
X81280000Y-24130000D01*
X99521200Y-31916500D02*
X81280000Y-31916500D01*
X100624700Y-33020000D02*
X99521200Y-31916500D01*
X80818800Y-31916500D02*
X79715300Y-33020000D01*
X81280000Y-31916500D02*
X80818800Y-31916500D01*
X77125400Y-20999200D02*
X80256200Y-24130000D01*
X63796100Y-20999200D02*
X77125400Y-20999200D01*
X61935300Y-22860000D02*
X63796100Y-20999200D01*
X60960000Y-22860000D02*
X61935300Y-22860000D01*
X81280000Y-24130000D02*
X80256200Y-24130000D01*
X106192400Y-180340000D02*
X105704700Y-180340000D01*
X106192400Y-180340000D02*
X106680000Y-180340000D01*
X121920000Y-161677500D02*
X121920000Y-160020000D01*
X117227500Y-166370000D02*
X121920000Y-161677500D01*
X116489600Y-166370000D02*
X117227500Y-166370000D01*
X114597700Y-168261900D02*
X116489600Y-166370000D01*
X114597700Y-176356300D02*
X114597700Y-168261900D01*
X109637800Y-181316200D02*
X114597700Y-176356300D01*
X108631500Y-181316200D02*
X109637800Y-181316200D01*
X107655300Y-180340000D02*
X108631500Y-181316200D01*
X106680000Y-180340000D02*
X107655300Y-180340000D01*
X144630000Y-118254700D02*
X144780000Y-118254700D01*
X140675300Y-114300000D02*
X144630000Y-118254700D01*
X144780000Y-119380000D02*
X144780000Y-118254700D01*
X34035500Y-147279800D02*
X34428300Y-147279800D01*
X31455300Y-149860000D02*
X34035500Y-147279800D01*
X30480000Y-149860000D02*
X31455300Y-149860000D01*
X104140000Y-193040000D02*
X103014700Y-193040000D01*
X99060000Y-193040000D02*
X103014700Y-193040000D01*
X108094700Y-193040000D02*
X104140000Y-193040000D01*
X110634700Y-190500000D02*
X108094700Y-193040000D01*
X111760000Y-190500000D02*
X110634700Y-190500000D01*
X132080000Y-43180000D02*
X132080000Y-42054700D01*
X121920000Y-33020000D02*
X122895300Y-33020000D01*
X138285300Y-33020000D02*
X133205300Y-38100000D01*
X139700000Y-33020000D02*
X138285300Y-33020000D01*
X132080000Y-38100000D02*
X133205300Y-38100000D01*
X132361400Y-42054700D02*
X132080000Y-42054700D01*
X133205300Y-41210800D02*
X132361400Y-42054700D01*
X133205300Y-38100000D02*
X133205300Y-41210800D01*
X86360000Y-124460000D02*
X86360000Y-123948100D01*
X86360000Y-123948100D02*
X86360000Y-123436200D01*
X84085700Y-123948100D02*
X83573800Y-124460000D01*
X86360000Y-123948100D02*
X84085700Y-123948100D01*
X82550000Y-124460000D02*
X83573800Y-124460000D01*
X99060000Y-185420000D02*
X99060000Y-186545300D01*
X99060000Y-193040000D02*
X99060000Y-190500000D01*
X99341400Y-186545300D02*
X99060000Y-186545300D01*
X100185300Y-187389200D02*
X99341400Y-186545300D01*
X100185300Y-188530800D02*
X100185300Y-187389200D01*
X99341400Y-189374700D02*
X100185300Y-188530800D01*
X99060000Y-189374700D02*
X99341400Y-189374700D01*
X89470400Y-185420000D02*
X87485300Y-185420000D01*
X90885100Y-186834700D02*
X89470400Y-185420000D01*
X91440000Y-186834700D02*
X90885100Y-186834700D01*
X91440000Y-187960000D02*
X91440000Y-186834700D01*
X86360000Y-185420000D02*
X87485300Y-185420000D01*
X140187700Y-114300000D02*
X140675300Y-114300000D01*
X99060000Y-190500000D02*
X99060000Y-189374700D01*
X35410000Y-184294700D02*
X31455300Y-180340000D01*
X35560000Y-184294700D02*
X35410000Y-184294700D01*
X30480000Y-180340000D02*
X31455300Y-180340000D01*
X48110000Y-184294700D02*
X48260000Y-184294700D01*
X44155300Y-180340000D02*
X48110000Y-184294700D01*
X48260000Y-185420000D02*
X48260000Y-184294700D01*
X43667700Y-180340000D02*
X44155300Y-180340000D01*
X43667700Y-180340000D02*
X43180000Y-180340000D01*
X41765300Y-180340000D02*
X36685300Y-185420000D01*
X43180000Y-180340000D02*
X41765300Y-180340000D01*
X35560000Y-185420000D02*
X36685300Y-185420000D01*
X35560000Y-185420000D02*
X35560000Y-184294700D01*
X36685300Y-185633200D02*
X36685300Y-185420000D01*
X40282100Y-189230000D02*
X36685300Y-185633200D01*
X41038500Y-189230000D02*
X40282100Y-189230000D01*
X41765500Y-189957000D02*
X41038500Y-189230000D01*
X41765500Y-195861500D02*
X41765500Y-189957000D01*
X47978700Y-202074700D02*
X41765500Y-195861500D01*
X48260000Y-202074700D02*
X47978700Y-202074700D01*
X48260000Y-203200000D02*
X48260000Y-202074700D01*
X59834700Y-126850000D02*
X55880000Y-122895300D01*
X59834700Y-127000000D02*
X59834700Y-126850000D01*
X55880000Y-121920000D02*
X55880000Y-122895300D01*
X48260000Y-127000000D02*
X47697400Y-127000000D01*
X47697400Y-127000000D02*
X47134700Y-127000000D01*
X51802100Y-122895300D02*
X55880000Y-122895300D01*
X47697400Y-127000000D02*
X51802100Y-122895300D01*
X127418000Y-38100000D02*
X132080000Y-38100000D01*
X122895300Y-33577300D02*
X127418000Y-38100000D01*
X122895300Y-33020000D02*
X122895300Y-33577300D01*
X81280000Y-180340000D02*
X80304700Y-180340000D01*
X83487400Y-181572100D02*
X82255300Y-180340000D01*
X83685900Y-181572100D02*
X83487400Y-181572100D01*
X81280000Y-180340000D02*
X82255300Y-180340000D01*
X97934700Y-126850000D02*
X93980000Y-122895300D01*
X97934700Y-127000000D02*
X97934700Y-126850000D01*
X99060000Y-127000000D02*
X97934700Y-127000000D01*
X105265300Y-121920000D02*
X100185300Y-127000000D01*
X106680000Y-121920000D02*
X105265300Y-121920000D01*
X99060000Y-127000000D02*
X100185300Y-127000000D01*
X93980000Y-122407600D02*
X93492400Y-121920000D01*
X93980000Y-121920000D02*
X93980000Y-122407600D01*
X93980000Y-122407600D02*
X93980000Y-122895300D01*
X93980000Y-149860000D02*
X94955300Y-149860000D01*
X121920000Y-121920000D02*
X120944700Y-121920000D01*
X111760000Y-127000000D02*
X112885300Y-127000000D01*
X91440000Y-154940000D02*
X86360000Y-154940000D01*
X109293300Y-142240000D02*
X111760000Y-142240000D01*
X102648600Y-148884700D02*
X109293300Y-142240000D01*
X95930600Y-148884700D02*
X102648600Y-148884700D01*
X94955300Y-149860000D02*
X95930600Y-148884700D01*
X111760000Y-142240000D02*
X112885300Y-142240000D01*
X114010600Y-143365300D02*
X112885300Y-142240000D01*
X117074500Y-143365300D02*
X114010600Y-143365300D01*
X125593200Y-151884000D02*
X117074500Y-143365300D01*
X125593200Y-152772200D02*
X125593200Y-151884000D01*
X121920000Y-156445400D02*
X125593200Y-152772200D01*
X121920000Y-160020000D02*
X121920000Y-156445400D01*
X92733700Y-76031600D02*
X101690500Y-76031600D01*
X92565300Y-76200000D02*
X92733700Y-76031600D01*
X118236300Y-76031600D02*
X101690500Y-76031600D01*
X120944700Y-78740000D02*
X118236300Y-76031600D01*
X91440000Y-76200000D02*
X92565300Y-76200000D01*
X140187700Y-114300000D02*
X139700000Y-114300000D01*
X139700000Y-114300000D02*
X138724700Y-114300000D01*
X59436200Y-182920900D02*
X60282800Y-182920900D01*
X56855300Y-180340000D02*
X59436200Y-182920900D01*
X95058400Y-226060000D02*
X92518400Y-228600000D01*
X116840000Y-226060000D02*
X95058400Y-226060000D01*
X91440000Y-228600000D02*
X92518400Y-228600000D01*
X49385300Y-33020000D02*
X44305300Y-38100000D01*
X53340000Y-33020000D02*
X49385300Y-33020000D01*
X43180000Y-38100000D02*
X44305300Y-38100000D01*
X42054700Y-84023200D02*
X42054700Y-83820000D01*
X41160800Y-84917100D02*
X42054700Y-84023200D01*
X37707800Y-84917100D02*
X41160800Y-84917100D01*
X33020000Y-80229300D02*
X37707800Y-84917100D01*
X33020000Y-79715300D02*
X33020000Y-80229300D01*
X137582400Y-115442300D02*
X138724700Y-114300000D01*
X122876000Y-115442300D02*
X137582400Y-115442300D01*
X112885300Y-125433000D02*
X122876000Y-115442300D01*
X112885300Y-127000000D02*
X112885300Y-125433000D01*
X73660000Y-127000000D02*
X72534700Y-127000000D01*
X60960000Y-127000000D02*
X60581900Y-127000000D01*
X60581900Y-127000000D02*
X59834700Y-127000000D01*
X64536600Y-123045300D02*
X68580000Y-123045300D01*
X60581900Y-127000000D02*
X64536600Y-123045300D01*
X72534700Y-127000000D02*
X68580000Y-123045300D01*
X68580000Y-123045300D02*
X68580000Y-121920000D01*
X77325300Y-124460000D02*
X74785300Y-127000000D01*
X78740000Y-124460000D02*
X77325300Y-124460000D01*
X73660000Y-127000000D02*
X74785300Y-127000000D01*
X93492400Y-121920000D02*
X93248600Y-121920000D01*
X93248600Y-121920000D02*
X93004700Y-121920000D01*
X78740000Y-124460000D02*
X79763800Y-124460000D01*
X73660000Y-185420000D02*
X72534700Y-185420000D01*
X78308900Y-182335800D02*
X68393900Y-182335800D01*
X80304700Y-180340000D02*
X78308900Y-182335800D01*
X60960000Y-185420000D02*
X62085300Y-185420000D01*
X64107000Y-183398300D02*
X62085300Y-185420000D01*
X68291300Y-183398300D02*
X64107000Y-183398300D01*
X68291300Y-182438400D02*
X68291300Y-183398300D01*
X68393900Y-182335800D02*
X68291300Y-182438400D01*
X72534700Y-184435400D02*
X72534700Y-185420000D01*
X71894100Y-183794800D02*
X72534700Y-184435400D01*
X68687800Y-183794800D02*
X71894100Y-183794800D01*
X68291300Y-183398300D02*
X68687800Y-183794800D01*
X88043600Y-121752600D02*
X86360000Y-123436200D01*
X88609900Y-121752600D02*
X88043600Y-121752600D01*
X88777300Y-121920000D02*
X88609900Y-121752600D01*
X93004700Y-121920000D02*
X88777300Y-121920000D01*
X82501200Y-121722600D02*
X79763800Y-124460000D01*
X85051100Y-121722600D02*
X82501200Y-121722600D01*
X86164300Y-120609400D02*
X85051100Y-121722600D01*
X92672200Y-120609400D02*
X86164300Y-120609400D01*
X93248600Y-121185800D02*
X92672200Y-120609400D01*
X93248600Y-121920000D02*
X93248600Y-121185800D01*
X49385300Y-156065300D02*
X53340000Y-160020000D01*
X49385300Y-154940000D02*
X49385300Y-156065300D01*
X120293800Y-122570900D02*
X120944700Y-121920000D01*
X120293800Y-127714000D02*
X120293800Y-122570900D01*
X117295000Y-130712800D02*
X120293800Y-127714000D01*
X116316800Y-130712800D02*
X117295000Y-130712800D01*
X112885300Y-127281300D02*
X116316800Y-130712800D01*
X112885300Y-127000000D02*
X112885300Y-127281300D01*
X36479100Y-124332700D02*
X35673700Y-125138100D01*
X41552200Y-124332700D02*
X36479100Y-124332700D01*
X42395000Y-123489900D02*
X41552200Y-124332700D01*
X43180000Y-123489900D02*
X42395000Y-123489900D01*
X43180000Y-121920000D02*
X43180000Y-123489900D01*
X43624600Y-123489900D02*
X47134700Y-127000000D01*
X43180000Y-123489900D02*
X43624600Y-123489900D01*
X93485400Y-142649600D02*
X91794000Y-144341000D01*
X93485400Y-140140500D02*
X93485400Y-142649600D01*
X91774900Y-138430000D02*
X93485400Y-140140500D01*
X90170000Y-138430000D02*
X91774900Y-138430000D01*
X86360000Y-134620000D02*
X90170000Y-138430000D01*
X107950000Y-160020000D02*
X106871600Y-160020000D01*
X95619000Y-161346200D02*
X95382400Y-161109600D01*
X103935900Y-161346200D02*
X95619000Y-161346200D01*
X104466900Y-161877200D02*
X103935900Y-161346200D01*
X105840000Y-161877200D02*
X104466900Y-161877200D01*
X106871600Y-160845600D02*
X105840000Y-161877200D01*
X106871600Y-160020000D02*
X106871600Y-160845600D01*
X94017200Y-155772200D02*
X94017200Y-157498900D01*
X87818600Y-149573600D02*
X94017200Y-155772200D01*
X103197100Y-163965500D02*
X104331600Y-165100000D01*
X93699800Y-163965500D02*
X103197100Y-163965500D01*
X92565300Y-165100000D02*
X93699800Y-163965500D01*
X105410000Y-165100000D02*
X104331600Y-165100000D01*
X91440000Y-165100000D02*
X92565300Y-165100000D01*
X93935700Y-143122900D02*
X90733500Y-146325100D01*
X93935700Y-138035100D02*
X93935700Y-143122900D01*
X91790600Y-135890000D02*
X93935700Y-138035100D01*
X91052600Y-135890000D02*
X91790600Y-135890000D01*
X87425700Y-132263100D02*
X91052600Y-135890000D01*
X87425700Y-130605700D02*
X87425700Y-132263100D01*
X86360000Y-129540000D02*
X87425700Y-130605700D01*
X90953000Y-146990000D02*
X90024800Y-146990000D01*
X94386000Y-143557000D02*
X90953000Y-146990000D01*
X94386000Y-135941200D02*
X94386000Y-143557000D01*
X91794800Y-133350000D02*
X94386000Y-135941200D01*
X91047800Y-133350000D02*
X91794800Y-133350000D01*
X87876100Y-130178300D02*
X91047800Y-133350000D01*
X87876100Y-128516100D02*
X87876100Y-130178300D01*
X86360000Y-127000000D02*
X87876100Y-128516100D01*
X134735700Y-143625700D02*
X142240000Y-151130000D01*
X134735700Y-128009400D02*
X134735700Y-143625700D01*
X127621200Y-120894900D02*
X134735700Y-128009400D01*
X121144600Y-120894900D02*
X127621200Y-120894900D01*
X117965300Y-124074200D02*
X121144600Y-120894900D01*
X117965300Y-127570800D02*
X117965300Y-124074200D01*
X117121400Y-128414700D02*
X117965300Y-127570800D01*
X116840000Y-128414700D02*
X117121400Y-128414700D01*
X116840000Y-129540000D02*
X116840000Y-128414700D01*
X125666200Y-146050000D02*
X118360800Y-138744600D01*
X134620000Y-146050000D02*
X125666200Y-146050000D01*
X142240000Y-153670000D02*
X134620000Y-146050000D01*
X144086300Y-183456300D02*
X142240000Y-181610000D01*
X144086300Y-184586000D02*
X144086300Y-183456300D01*
X143252300Y-185420000D02*
X144086300Y-184586000D01*
X137242100Y-185420000D02*
X143252300Y-185420000D01*
X136081100Y-186581000D02*
X137242100Y-185420000D01*
X122936400Y-186581000D02*
X136081100Y-186581000D01*
X117965400Y-181610000D02*
X122936400Y-186581000D01*
X116470700Y-181610000D02*
X117965400Y-181610000D01*
X115225900Y-180365200D02*
X116470700Y-181610000D01*
X115225900Y-170098100D02*
X115225900Y-180365200D01*
X116558700Y-168765300D02*
X115225900Y-170098100D01*
X116840000Y-168765300D02*
X116558700Y-168765300D01*
X116840000Y-167640000D02*
X116840000Y-168765300D01*
X124315300Y-184150000D02*
X142240000Y-184150000D01*
X117965300Y-177800000D02*
X124315300Y-184150000D01*
X116840000Y-177800000D02*
X117965300Y-177800000D01*
X27940000Y-162560000D02*
X27940000Y-163685300D01*
X68987100Y-213655300D02*
X71362700Y-216030900D01*
X49629600Y-213655300D02*
X68987100Y-213655300D01*
X42984300Y-207010000D02*
X49629600Y-213655300D01*
X40253400Y-207010000D02*
X42984300Y-207010000D01*
X33917100Y-200673700D02*
X40253400Y-207010000D01*
X33917100Y-199946700D02*
X33917100Y-200673700D01*
X28281100Y-194310700D02*
X33917100Y-199946700D01*
X27603700Y-194310700D02*
X28281100Y-194310700D01*
X26362700Y-193069700D02*
X27603700Y-194310700D01*
X26362700Y-177465500D02*
X26362700Y-193069700D01*
X29072300Y-174755900D02*
X26362700Y-177465500D01*
X29072300Y-164536300D02*
X29072300Y-174755900D01*
X28221300Y-163685300D02*
X29072300Y-164536300D01*
X27940000Y-163685300D02*
X28221300Y-163685300D01*
X139700000Y-213459100D02*
X139700000Y-215900000D01*
X137060900Y-210820000D02*
X139700000Y-213459100D01*
X139700000Y-208180900D02*
X137060900Y-210820000D01*
X137060900Y-210820000D02*
X132080000Y-210820000D01*
X114300000Y-27940000D02*
X113174700Y-27940000D01*
X86504700Y-26814700D02*
X83820000Y-24130000D01*
X112324900Y-26814700D02*
X86504700Y-26814700D01*
X113174700Y-27664500D02*
X112324900Y-26814700D01*
X113174700Y-27940000D02*
X113174700Y-27664500D01*
X116840000Y-27940000D02*
X115714700Y-27940000D01*
X115714700Y-27689600D02*
X115714700Y-27940000D01*
X114389500Y-26364400D02*
X115714700Y-27689600D01*
X88594400Y-26364400D02*
X114389500Y-26364400D01*
X86360000Y-24130000D02*
X88594400Y-26364400D01*
X90463200Y-25693200D02*
X88900000Y-24130000D01*
X116289200Y-25693200D02*
X90463200Y-25693200D01*
X118254700Y-27658700D02*
X116289200Y-25693200D01*
X118254700Y-27940000D02*
X118254700Y-27658700D01*
X119380000Y-27940000D02*
X118254700Y-27940000D01*
X127000000Y-20320000D02*
X125874700Y-20320000D01*
X96839100Y-18730900D02*
X91440000Y-24130000D01*
X124566900Y-18730900D02*
X96839100Y-18730900D01*
X125874700Y-20038700D02*
X124566900Y-18730900D01*
X125874700Y-20320000D02*
X125874700Y-20038700D01*
X95023200Y-25173200D02*
X93980000Y-24130000D01*
X118762800Y-25173200D02*
X95023200Y-25173200D01*
X123334700Y-20601300D02*
X118762800Y-25173200D01*
X123334700Y-20320000D02*
X123334700Y-20601300D01*
X124460000Y-20320000D02*
X123334700Y-20320000D01*
X116840000Y-142240000D02*
X117965300Y-142240000D01*
X124432800Y-148707500D02*
X125392600Y-148707500D01*
X117965300Y-142240000D02*
X124432800Y-148707500D01*
X97980700Y-22669300D02*
X96520000Y-24130000D01*
X118726700Y-22669300D02*
X97980700Y-22669300D01*
X120794700Y-20601300D02*
X118726700Y-22669300D01*
X120794700Y-20320000D02*
X120794700Y-20601300D01*
X121920000Y-20320000D02*
X120794700Y-20320000D01*
X116840000Y-180340000D02*
X116840000Y-179214700D01*
X126043500Y-147676100D02*
X125844300Y-147476900D01*
X126043500Y-156011800D02*
X126043500Y-147676100D01*
X123010700Y-159044600D02*
X126043500Y-156011800D01*
X123010700Y-168185000D02*
X123010700Y-159044600D01*
X117061100Y-174134600D02*
X123010700Y-168185000D01*
X116315100Y-174134600D02*
X117061100Y-174134600D01*
X115676300Y-174773400D02*
X116315100Y-174134600D01*
X115676300Y-178332300D02*
X115676300Y-174773400D01*
X116558700Y-179214700D02*
X115676300Y-178332300D01*
X116840000Y-179214700D02*
X116558700Y-179214700D01*
X125875000Y-119994100D02*
X125309700Y-119428800D01*
X127994200Y-119994100D02*
X125875000Y-119994100D01*
X136414800Y-128414700D02*
X127994200Y-119994100D01*
X137160000Y-128414700D02*
X136414800Y-128414700D01*
X137160000Y-129540000D02*
X137160000Y-128414700D01*
X137160000Y-119380000D02*
X136034700Y-119380000D01*
X126874200Y-118661300D02*
X124308300Y-116095400D01*
X135316000Y-118661300D02*
X126874200Y-118661300D01*
X136034700Y-119380000D02*
X135316000Y-118661300D01*
X89564900Y-140364900D02*
X89564900Y-140774900D01*
X86360000Y-137160000D02*
X89564900Y-140364900D01*
X52070000Y-228600000D02*
X53148400Y-228600000D01*
X80245800Y-208710500D02*
X89795400Y-208710500D01*
X63741400Y-225214900D02*
X80245800Y-208710500D01*
X56533500Y-225214900D02*
X63741400Y-225214900D01*
X53148400Y-228600000D02*
X56533500Y-225214900D01*
X58225900Y-145221300D02*
X58004300Y-145442900D01*
X73548800Y-145221300D02*
X58225900Y-145221300D01*
X78012400Y-140757700D02*
X73548800Y-145221300D01*
X79154400Y-140757700D02*
X78012400Y-140757700D01*
X81244000Y-138668100D02*
X79154400Y-140757700D01*
X85328100Y-138668100D02*
X81244000Y-138668100D01*
X86360000Y-139700000D02*
X85328100Y-138668100D01*
X99060000Y-187960000D02*
X97934700Y-187960000D01*
X36830000Y-228600000D02*
X37908400Y-228600000D01*
X86525600Y-142074400D02*
X86360000Y-142240000D01*
X88930100Y-142074400D02*
X86525600Y-142074400D01*
X96785300Y-189109400D02*
X89913000Y-189109400D01*
X97934700Y-187960000D02*
X96785300Y-189109400D01*
X67046000Y-216265600D02*
X68861400Y-214450200D01*
X49417100Y-216265600D02*
X67046000Y-216265600D01*
X37908400Y-227774300D02*
X49417100Y-216265600D01*
X37908400Y-228600000D02*
X37908400Y-227774300D01*
X89913000Y-189109400D02*
X87730100Y-191292300D01*
X89913000Y-187065000D02*
X88905800Y-186057800D01*
X89913000Y-189109400D02*
X89913000Y-187065000D01*
X87291500Y-148941300D02*
X87226000Y-149006800D01*
X88145200Y-148941300D02*
X87291500Y-148941300D01*
X94706700Y-155502800D02*
X88145200Y-148941300D01*
X94706700Y-156549000D02*
X94706700Y-155502800D01*
X97934700Y-195443400D02*
X96078300Y-193587000D01*
X97934700Y-195580000D02*
X97934700Y-195443400D01*
X99060000Y-195580000D02*
X97934700Y-195580000D01*
X51007500Y-220580900D02*
X42988400Y-228600000D01*
X67738500Y-220580900D02*
X51007500Y-220580900D01*
X80263800Y-208055600D02*
X67738500Y-220580900D01*
X90869900Y-208055600D02*
X80263800Y-208055600D01*
X93077600Y-205847900D02*
X90869900Y-208055600D01*
X41910000Y-228600000D02*
X42988400Y-228600000D01*
X78990300Y-99060000D02*
X82045400Y-102115100D01*
X68580000Y-99060000D02*
X78990300Y-99060000D01*
X79568300Y-98237000D02*
X81570600Y-100239300D01*
X69467100Y-98237000D02*
X79568300Y-98237000D01*
X68875400Y-97645300D02*
X69467100Y-98237000D01*
X68580000Y-97645300D02*
X68875400Y-97645300D01*
X68580000Y-96520000D02*
X68580000Y-97645300D01*
X69921600Y-93763700D02*
X81138800Y-93763700D01*
X69705300Y-93980000D02*
X69921600Y-93763700D01*
X68580000Y-93980000D02*
X69705300Y-93980000D01*
X76016500Y-66040000D02*
X80673300Y-70696800D01*
X68580000Y-66040000D02*
X76016500Y-66040000D01*
X75620800Y-68580000D02*
X79816200Y-72775400D01*
X68580000Y-68580000D02*
X75620800Y-68580000D01*
X38446600Y-189431900D02*
X37027700Y-189431900D01*
X39514700Y-190500000D02*
X38446600Y-189431900D01*
X40640000Y-190500000D02*
X39514700Y-190500000D01*
X80280500Y-89366400D02*
X81264200Y-90350100D01*
X70171700Y-89366400D02*
X80280500Y-89366400D01*
X69705300Y-88900000D02*
X70171700Y-89366400D01*
X68580000Y-88900000D02*
X69705300Y-88900000D01*
X37027700Y-187826400D02*
X37027700Y-189431900D01*
X35891300Y-186690000D02*
X37027700Y-187826400D01*
X35049400Y-186690000D02*
X35891300Y-186690000D01*
X29477200Y-181117800D02*
X35049400Y-186690000D01*
X29477200Y-179554200D02*
X29477200Y-181117800D01*
X31996700Y-177034700D02*
X29477200Y-179554200D01*
X31996700Y-156191800D02*
X31996700Y-177034700D01*
X35003400Y-153185100D02*
X31996700Y-156191800D01*
X35681900Y-153185100D02*
X35003400Y-153185100D01*
X42082500Y-146784500D02*
X35681900Y-153185100D01*
X61060600Y-146784500D02*
X42082500Y-146784500D01*
X61723200Y-146121900D02*
X61060600Y-146784500D01*
X73922000Y-146121900D02*
X61723200Y-146121900D01*
X76780100Y-143263800D02*
X73922000Y-146121900D01*
X82994800Y-143263800D02*
X76780100Y-143263800D01*
X83597400Y-142661200D02*
X82994800Y-143263800D01*
X83597400Y-140747400D02*
X83597400Y-142661200D01*
X82550000Y-139700000D02*
X83597400Y-140747400D01*
X61087300Y-146120800D02*
X57518600Y-146120800D01*
X61536500Y-145671600D02*
X61087300Y-146120800D01*
X73735400Y-145671600D02*
X61536500Y-145671600D01*
X78198900Y-141208100D02*
X73735400Y-145671600D01*
X81518100Y-141208100D02*
X78198900Y-141208100D01*
X82550000Y-142240000D02*
X81518100Y-141208100D01*
X57170800Y-145773000D02*
X57518600Y-146120800D01*
X43989500Y-145773000D02*
X57170800Y-145773000D01*
X40358600Y-128125300D02*
X40640000Y-128125300D01*
X39514700Y-128969200D02*
X40358600Y-128125300D01*
X39514700Y-129792200D02*
X39514700Y-128969200D01*
X35812300Y-133494600D02*
X39514700Y-129792200D01*
X35010600Y-133494600D02*
X35812300Y-133494600D01*
X33996300Y-134508900D02*
X35010600Y-133494600D01*
X33996300Y-135298000D02*
X33996300Y-134508900D01*
X28324300Y-140970000D02*
X33996300Y-135298000D01*
X27583100Y-140970000D02*
X28324300Y-140970000D01*
X25458700Y-143094400D02*
X27583100Y-140970000D01*
X25458700Y-219517100D02*
X25458700Y-143094400D01*
X36885700Y-230944100D02*
X25458700Y-219517100D01*
X53727500Y-230944100D02*
X36885700Y-230944100D01*
X56071600Y-228600000D02*
X53727500Y-230944100D01*
X57150000Y-228600000D02*
X56071600Y-228600000D01*
X40640000Y-127000000D02*
X40640000Y-128125300D01*
X80051700Y-147278300D02*
X82550000Y-144780000D01*
X72762200Y-147278300D02*
X80051700Y-147278300D01*
X71437400Y-148603100D02*
X72762200Y-147278300D01*
X58414000Y-148603100D02*
X71437400Y-148603100D01*
X57985200Y-148174300D02*
X58414000Y-148603100D01*
X44019700Y-148174300D02*
X57985200Y-148174300D01*
X43967700Y-148226300D02*
X44019700Y-148174300D01*
X77312200Y-128427800D02*
X78740000Y-127000000D01*
X76359800Y-128427800D02*
X77312200Y-128427800D01*
X76275400Y-91440000D02*
X76667700Y-91832300D01*
X68580000Y-91440000D02*
X76275400Y-91440000D01*
X33985200Y-152218700D02*
X31501000Y-154702900D01*
X35258600Y-152218700D02*
X33985200Y-152218700D01*
X43197900Y-144279400D02*
X35258600Y-152218700D01*
X73216800Y-144279400D02*
X43197900Y-144279400D01*
X75713500Y-141782700D02*
X73216800Y-144279400D01*
X75713500Y-133627600D02*
X75713500Y-141782700D01*
X78531100Y-130810000D02*
X75713500Y-133627600D01*
X78959600Y-130810000D02*
X78531100Y-130810000D01*
X79816500Y-129953100D02*
X78959600Y-130810000D01*
X79816500Y-128076500D02*
X79816500Y-129953100D01*
X78740000Y-127000000D02*
X79816500Y-128076500D01*
X53340000Y-139700000D02*
X52214700Y-139700000D01*
X75241900Y-133038100D02*
X78740000Y-129540000D01*
X75241900Y-139774900D02*
X75241900Y-133038100D01*
X73972900Y-141043900D02*
X75241900Y-139774900D01*
X72457000Y-141043900D02*
X73972900Y-141043900D01*
X70122100Y-143378800D02*
X72457000Y-141043900D01*
X52870900Y-143378800D02*
X70122100Y-143378800D01*
X52214700Y-142722600D02*
X52870900Y-143378800D01*
X52214700Y-139700000D02*
X52214700Y-142722600D01*
X75437700Y-69458800D02*
X78967300Y-72988400D01*
X71719200Y-69458800D02*
X75437700Y-69458800D01*
X27940000Y-193040000D02*
X29065300Y-193040000D01*
X29065300Y-193321300D02*
X29065300Y-193040000D01*
X35278700Y-199534700D02*
X29065300Y-193321300D01*
X35560000Y-199534700D02*
X35278700Y-199534700D01*
X27940000Y-160020000D02*
X27940000Y-161145300D01*
X35560000Y-200660000D02*
X35560000Y-199534700D01*
X68017400Y-78740000D02*
X67454700Y-78740000D01*
X65442100Y-76727400D02*
X67454700Y-78740000D01*
X50206500Y-76727400D02*
X65442100Y-76727400D01*
X50166400Y-76687300D02*
X50206500Y-76727400D01*
X45130100Y-76687300D02*
X50166400Y-76687300D01*
X37746200Y-84071200D02*
X45130100Y-76687300D01*
X68017400Y-78740000D02*
X68580000Y-78740000D01*
X74492400Y-78740000D02*
X75241300Y-79488900D01*
X68580000Y-78740000D02*
X74492400Y-78740000D01*
X29065300Y-184690500D02*
X29065300Y-193040000D01*
X27502100Y-183127300D02*
X29065300Y-184690500D01*
X27502100Y-177018100D02*
X27502100Y-183127300D01*
X29522700Y-174997500D02*
X27502100Y-177018100D01*
X29522700Y-162446700D02*
X29522700Y-174997500D01*
X28221300Y-161145300D02*
X29522700Y-162446700D01*
X27940000Y-161145300D02*
X28221300Y-161145300D01*
X74908400Y-81280000D02*
X77059000Y-83430600D01*
X68580000Y-81280000D02*
X74908400Y-81280000D01*
X28968700Y-181510200D02*
X29028000Y-181569500D01*
X28968700Y-178846300D02*
X28968700Y-181510200D01*
X31546300Y-176268700D02*
X28968700Y-178846300D01*
X31546300Y-155977400D02*
X31546300Y-176268700D01*
X34854600Y-152669100D02*
X31546300Y-155977400D01*
X35561000Y-152669100D02*
X34854600Y-152669100D01*
X43459100Y-144771000D02*
X35561000Y-152669100D01*
X73362100Y-144771000D02*
X43459100Y-144771000D01*
X77716100Y-140417000D02*
X73362100Y-144771000D01*
X77716100Y-135643900D02*
X77716100Y-140417000D01*
X78740000Y-134620000D02*
X77716100Y-135643900D01*
X27940000Y-154940000D02*
X29065300Y-154940000D01*
X32235000Y-151770300D02*
X29065300Y-154940000D01*
X32464400Y-151770300D02*
X32235000Y-151770300D01*
X37339500Y-146895200D02*
X32464400Y-151770300D01*
X37787000Y-146895200D02*
X37339500Y-146895200D01*
X40652100Y-120944600D02*
X38123900Y-123472800D01*
X43972400Y-120944600D02*
X40652100Y-120944600D01*
X44240200Y-121212400D02*
X43972400Y-120944600D01*
X44240200Y-121879100D02*
X44240200Y-121212400D01*
X45256500Y-122895400D02*
X44240200Y-121879100D01*
X47134600Y-122895400D02*
X45256500Y-122895400D01*
X50602500Y-119427500D02*
X47134600Y-122895400D01*
X68442200Y-119427500D02*
X50602500Y-119427500D01*
X68442200Y-119396100D02*
X68442200Y-119427500D01*
X82955400Y-119427500D02*
X83716500Y-120188600D01*
X68442200Y-119427500D02*
X82955400Y-119427500D01*
X27747200Y-186545300D02*
X27940000Y-186545300D01*
X26814700Y-187477800D02*
X27747200Y-186545300D01*
X26814700Y-188486500D02*
X26814700Y-187477800D01*
X27702900Y-189374700D02*
X26814700Y-188486500D01*
X27940000Y-189374700D02*
X27702900Y-189374700D01*
X27940000Y-190500000D02*
X27940000Y-189374700D01*
X27940000Y-185420000D02*
X27940000Y-186545300D01*
X40640000Y-139700000D02*
X39514700Y-139700000D01*
X26330900Y-171701400D02*
X26809600Y-172180100D01*
X26330900Y-152190300D02*
X26330900Y-171701400D01*
X34184000Y-144337200D02*
X26330900Y-152190300D01*
X35158800Y-144337200D02*
X34184000Y-144337200D01*
X39514700Y-139981300D02*
X35158800Y-144337200D01*
X39514700Y-139700000D02*
X39514700Y-139981300D01*
X87820700Y-182880000D02*
X86443000Y-181502300D01*
X116840000Y-182880000D02*
X87820700Y-182880000D01*
X80722300Y-169008900D02*
X82668400Y-170955000D01*
X78293100Y-169008900D02*
X80722300Y-169008900D01*
X77390000Y-169912000D02*
X78293100Y-169008900D01*
X77390000Y-171011200D02*
X77390000Y-169912000D01*
X76578700Y-171822500D02*
X77390000Y-171011200D01*
X61169700Y-171822500D02*
X76578700Y-171822500D01*
X54864600Y-165517400D02*
X61169700Y-171822500D01*
X54864600Y-164835100D02*
X54864600Y-165517400D01*
X52061600Y-162032100D02*
X54864600Y-164835100D01*
X50015600Y-162032100D02*
X52061600Y-162032100D01*
X71015000Y-185420000D02*
X71821000Y-184614000D01*
X66040000Y-185420000D02*
X71015000Y-185420000D01*
X67454700Y-53499300D02*
X65885900Y-55068100D01*
X67454700Y-53340000D02*
X67454700Y-53499300D01*
X68580000Y-53340000D02*
X67454700Y-53340000D01*
X55395200Y-198120000D02*
X60960000Y-198120000D01*
X54141100Y-196865900D02*
X55395200Y-198120000D01*
X52242200Y-196865900D02*
X54141100Y-196865900D01*
X51135500Y-195759200D02*
X52242200Y-196865900D01*
X43904400Y-196761500D02*
X42876100Y-195733200D01*
X50133200Y-196761500D02*
X43904400Y-196761500D01*
X51135500Y-195759200D02*
X50133200Y-196761500D01*
X63588800Y-185420000D02*
X62085400Y-186923400D01*
X66040000Y-185420000D02*
X63588800Y-185420000D01*
X116840000Y-144780000D02*
X115714700Y-144780000D01*
X58023000Y-148849000D02*
X51108100Y-148849000D01*
X65384000Y-156210000D02*
X58023000Y-148849000D01*
X66412900Y-156210000D02*
X65384000Y-156210000D01*
X67271200Y-157068300D02*
X66412900Y-156210000D01*
X67271200Y-157799500D02*
X67271200Y-157068300D01*
X73205200Y-163733500D02*
X67271200Y-157799500D01*
X75926700Y-163733500D02*
X73205200Y-163733500D01*
X78370200Y-161290000D02*
X75926700Y-163733500D01*
X79270200Y-161290000D02*
X78370200Y-161290000D01*
X81810200Y-158750000D02*
X79270200Y-161290000D01*
X93658500Y-158750000D02*
X81810200Y-158750000D01*
X106713300Y-145695200D02*
X93658500Y-158750000D01*
X109938100Y-145695200D02*
X106713300Y-145695200D01*
X110193300Y-145950400D02*
X109938100Y-145695200D01*
X114544300Y-145950400D02*
X110193300Y-145950400D01*
X115714700Y-144780000D02*
X114544300Y-145950400D01*
X46050700Y-191859900D02*
X45960700Y-191949900D01*
X51034600Y-191859900D02*
X46050700Y-191859900D01*
X52214700Y-193040000D02*
X51034600Y-191859900D01*
X53340000Y-193040000D02*
X52214700Y-193040000D01*
X48260000Y-132080000D02*
X48260000Y-130954700D01*
X48260000Y-129540000D02*
X48260000Y-130954700D01*
X59827000Y-190492300D02*
X59834700Y-190500000D01*
X54659700Y-190492300D02*
X59827000Y-190492300D01*
X60960000Y-190500000D02*
X59834700Y-190500000D01*
X66040000Y-162560000D02*
X67165300Y-162560000D01*
X70486300Y-165881000D02*
X71747400Y-165881000D01*
X67165300Y-162560000D02*
X70486300Y-165881000D01*
X64345100Y-161990400D02*
X64914700Y-162560000D01*
X59241000Y-161990400D02*
X64345100Y-161990400D01*
X53760400Y-156509800D02*
X59241000Y-161990400D01*
X51580700Y-156509800D02*
X53760400Y-156509800D01*
X66040000Y-162560000D02*
X64914700Y-162560000D01*
X38821800Y-125098600D02*
X38821800Y-125098500D01*
X42693300Y-125098600D02*
X38821800Y-125098600D01*
X47134700Y-129540000D02*
X42693300Y-125098600D01*
X48260000Y-129540000D02*
X47134700Y-129540000D01*
X35560000Y-193040000D02*
X35560000Y-194165300D01*
X35841300Y-194165300D02*
X35560000Y-194165300D01*
X39494700Y-197818700D02*
X35841300Y-194165300D01*
X39494700Y-198623000D02*
X39494700Y-197818700D01*
X40261700Y-199390000D02*
X39494700Y-198623000D01*
X42809500Y-199390000D02*
X40261700Y-199390000D01*
X47744900Y-204325400D02*
X42809500Y-199390000D01*
X91005700Y-204325400D02*
X47744900Y-204325400D01*
X91071000Y-204260100D02*
X91005700Y-204325400D01*
X102137500Y-204260100D02*
X91071000Y-204260100D01*
X105841200Y-200556400D02*
X102137500Y-204260100D01*
X105841200Y-199025000D02*
X105841200Y-200556400D01*
X144780000Y-134620000D02*
X144780000Y-135745300D01*
X38147500Y-199768800D02*
X38147500Y-197951400D01*
X40308700Y-201930000D02*
X38147500Y-199768800D01*
X42837200Y-201930000D02*
X40308700Y-201930000D01*
X47777700Y-206870500D02*
X42837200Y-201930000D01*
X89734400Y-206870500D02*
X47777700Y-206870500D01*
X91444200Y-205160700D02*
X89734400Y-206870500D01*
X112640400Y-205160700D02*
X91444200Y-205160700D01*
X120836100Y-196965000D02*
X112640400Y-205160700D01*
X133115800Y-196965000D02*
X120836100Y-196965000D01*
X139518300Y-190562500D02*
X133115800Y-196965000D01*
X141985900Y-190562500D02*
X139518300Y-190562500D01*
X145554400Y-186994000D02*
X141985900Y-190562500D01*
X145554400Y-136519700D02*
X145554400Y-186994000D01*
X144780000Y-135745300D02*
X145554400Y-136519700D01*
X27940000Y-157480000D02*
X27940000Y-158605300D01*
X28221300Y-158605300D02*
X27940000Y-158605300D01*
X29973100Y-160357100D02*
X28221300Y-158605300D01*
X29973100Y-175802300D02*
X29973100Y-160357100D01*
X27952400Y-177823000D02*
X29973100Y-175802300D01*
X27952400Y-182940700D02*
X27952400Y-177823000D01*
X30063900Y-185052200D02*
X27952400Y-182940700D01*
X30063900Y-191734200D02*
X30063900Y-185052200D01*
X35125100Y-196795400D02*
X30063900Y-191734200D01*
X35862200Y-196795400D02*
X35125100Y-196795400D01*
X36978500Y-197911700D02*
X35862200Y-196795400D01*
X36978500Y-201210800D02*
X36978500Y-197911700D01*
X40237700Y-204470000D02*
X36978500Y-201210800D01*
X42851100Y-204470000D02*
X40237700Y-204470000D01*
X47786500Y-209405400D02*
X42851100Y-204470000D01*
X59478600Y-209405400D02*
X47786500Y-209405400D01*
X61333300Y-207550700D02*
X59478600Y-209405400D01*
X89956600Y-207550700D02*
X61333300Y-207550700D01*
X91721300Y-205786000D02*
X89956600Y-207550700D01*
X45817600Y-215075500D02*
X67338600Y-215075500D01*
X29457700Y-198715600D02*
X45817600Y-215075500D01*
X29457700Y-197973700D02*
X29457700Y-198715600D01*
X28334000Y-196850000D02*
X29457700Y-197973700D01*
X27574200Y-196850000D02*
X28334000Y-196850000D01*
X25912300Y-195188100D02*
X27574200Y-196850000D01*
X25912300Y-175366100D02*
X25912300Y-195188100D01*
X27463400Y-173815000D02*
X25912300Y-175366100D01*
X27463400Y-171394700D02*
X27463400Y-173815000D01*
X26781300Y-170712600D02*
X27463400Y-171394700D01*
X26781300Y-166821300D02*
X26781300Y-170712600D01*
X27940000Y-165662600D02*
X26781300Y-166821300D01*
X27940000Y-165100000D02*
X27940000Y-165381300D01*
X27940000Y-165381300D02*
X27940000Y-165662600D01*
X26781300Y-164222600D02*
X27940000Y-165381300D01*
X26781300Y-156990300D02*
X26781300Y-164222600D01*
X27417000Y-156354600D02*
X26781300Y-156990300D01*
X28287600Y-156354600D02*
X27417000Y-156354600D01*
X32196500Y-152445700D02*
X28287600Y-156354600D01*
X32425900Y-152445700D02*
X32196500Y-152445700D01*
X37059900Y-147811700D02*
X32425900Y-152445700D01*
X37754900Y-147811700D02*
X37059900Y-147811700D01*
X42215700Y-143350900D02*
X37754900Y-147811700D01*
X42215700Y-141606800D02*
X42215700Y-143350900D01*
X47932500Y-135890000D02*
X42215700Y-141606800D01*
X48658900Y-135890000D02*
X47932500Y-135890000D01*
X50862900Y-133686000D02*
X48658900Y-135890000D01*
X65638000Y-147568000D02*
X66040000Y-147970000D01*
X42405900Y-147568000D02*
X65638000Y-147568000D01*
X36338400Y-153635500D02*
X42405900Y-147568000D01*
X35261700Y-153635500D02*
X36338400Y-153635500D01*
X32622000Y-156275200D02*
X35261700Y-153635500D01*
X32622000Y-156487000D02*
X32622000Y-156275200D01*
X63500000Y-99060000D02*
X64625300Y-99060000D01*
X113417500Y-99592200D02*
X112885300Y-99060000D01*
X115531200Y-99592200D02*
X113417500Y-99592200D01*
X116151500Y-100212500D02*
X115531200Y-99592200D01*
X129802200Y-100212500D02*
X116151500Y-100212500D01*
X130954700Y-99060000D02*
X129802200Y-100212500D01*
X132080000Y-99060000D02*
X130954700Y-99060000D01*
X111760000Y-99060000D02*
X112885300Y-99060000D01*
X45641600Y-100396300D02*
X44305300Y-99060000D01*
X62346800Y-100396300D02*
X45641600Y-100396300D01*
X43180000Y-99060000D02*
X44305300Y-99060000D01*
X102310400Y-95385000D02*
X103980600Y-97055200D01*
X68114300Y-95385000D02*
X102310400Y-95385000D01*
X64625300Y-98874000D02*
X68114300Y-95385000D01*
X64625300Y-99060000D02*
X64625300Y-98874000D01*
X132080000Y-40640000D02*
X130954700Y-40640000D01*
X115077800Y-40640000D02*
X111760000Y-40640000D01*
X116204100Y-41766300D02*
X115077800Y-40640000D01*
X129828400Y-41766300D02*
X116204100Y-41766300D01*
X130954700Y-40640000D02*
X129828400Y-41766300D01*
X61511400Y-35023100D02*
X61065600Y-35468900D01*
X90005900Y-35023100D02*
X61511400Y-35023100D01*
X93341500Y-38358700D02*
X90005900Y-35023100D01*
X93341500Y-39139700D02*
X93341500Y-38358700D01*
X96003300Y-41801500D02*
X93341500Y-39139700D01*
X97238900Y-41801500D02*
X96003300Y-41801500D01*
X98400400Y-40640000D02*
X97238900Y-41801500D01*
X111760000Y-40640000D02*
X98400400Y-40640000D01*
X46497800Y-40640000D02*
X43180000Y-40640000D01*
X47631000Y-41773200D02*
X46497800Y-40640000D01*
X54761300Y-41773200D02*
X47631000Y-41773200D01*
X61065600Y-35468900D02*
X54761300Y-41773200D01*
X65075700Y-56041000D02*
X67454700Y-58420000D01*
X65075700Y-43059700D02*
X65075700Y-56041000D01*
X63781300Y-41765300D02*
X65075700Y-43059700D01*
X63500000Y-41765300D02*
X63781300Y-41765300D01*
X63500000Y-40640000D02*
X63500000Y-41765300D01*
X68580000Y-58420000D02*
X67454700Y-58420000D01*
X35841300Y-168765300D02*
X35560000Y-168765300D01*
X51764300Y-184688300D02*
X35841300Y-168765300D01*
X51764300Y-190521800D02*
X51764300Y-184688300D01*
X53012500Y-191770000D02*
X51764300Y-190521800D01*
X55399500Y-191770000D02*
X53012500Y-191770000D01*
X57850900Y-194221400D02*
X55399500Y-191770000D01*
X93783300Y-194221400D02*
X57850900Y-194221400D01*
X95046900Y-192957800D02*
X93783300Y-194221400D01*
X96415100Y-192957800D02*
X95046900Y-192957800D01*
X97641400Y-194184100D02*
X96415100Y-192957800D01*
X129810600Y-194184100D02*
X97641400Y-194184100D01*
X130954700Y-193040000D02*
X129810600Y-194184100D01*
X132080000Y-193040000D02*
X130954700Y-193040000D01*
X35560000Y-167640000D02*
X35560000Y-168765300D01*
X104140000Y-127000000D02*
X105265300Y-127000000D01*
X107395100Y-124870200D02*
X109861100Y-124870200D01*
X105265300Y-127000000D02*
X107395100Y-124870200D01*
X44393700Y-172808400D02*
X36685300Y-165100000D01*
X76980200Y-172808400D02*
X44393700Y-172808400D01*
X84908900Y-184294600D02*
X79994800Y-189208700D01*
X106969300Y-184294600D02*
X84908900Y-184294600D01*
X110634700Y-187960000D02*
X106969300Y-184294600D01*
X111760000Y-187960000D02*
X110634700Y-187960000D01*
X35560000Y-165100000D02*
X36685300Y-165100000D01*
X137160000Y-76200000D02*
X137722700Y-76200000D01*
X53853000Y-203630300D02*
X50335500Y-200112800D01*
X90769300Y-203630300D02*
X53853000Y-203630300D01*
X93318800Y-201080800D02*
X90769300Y-203630300D01*
X104140000Y-190500000D02*
X105265300Y-190500000D01*
X137722700Y-76200000D02*
X139005300Y-74917400D01*
X139005300Y-74917400D02*
X139005300Y-74196600D01*
X106390600Y-189374700D02*
X105265300Y-190500000D01*
X134462600Y-189374700D02*
X106390600Y-189374700D01*
X136066200Y-187771100D02*
X134462600Y-189374700D01*
X143476600Y-187771100D02*
X136066200Y-187771100D01*
X144629900Y-186617800D02*
X143476600Y-187771100D01*
X144629900Y-142024200D02*
X144629900Y-186617800D01*
X143204200Y-140598500D02*
X144629900Y-142024200D01*
X143204200Y-129454000D02*
X143204200Y-140598500D01*
X144274600Y-128383600D02*
X143204200Y-129454000D01*
X145037200Y-128383600D02*
X144274600Y-128383600D01*
X146406100Y-127014700D02*
X145037200Y-128383600D01*
X146406100Y-78709300D02*
X146406100Y-127014700D01*
X145166800Y-77470000D02*
X146406100Y-78709300D01*
X141557900Y-77470000D02*
X145166800Y-77470000D01*
X139005300Y-74917400D02*
X141557900Y-77470000D01*
X35841400Y-158894700D02*
X35560000Y-158894700D01*
X36685300Y-158050800D02*
X35841400Y-158894700D01*
X36685300Y-154584200D02*
X36685300Y-158050800D01*
X42384900Y-148884600D02*
X36685300Y-154584200D01*
X48361300Y-148884600D02*
X42384900Y-148884600D01*
X52274300Y-152797600D02*
X48361300Y-148884600D01*
X55611500Y-152797600D02*
X52274300Y-152797600D01*
X63959300Y-161145400D02*
X55611500Y-152797600D01*
X67919900Y-161145400D02*
X63959300Y-161145400D01*
X73003700Y-166229200D02*
X67919900Y-161145400D01*
X80940300Y-166229200D02*
X73003700Y-166229200D01*
X85879500Y-161290000D02*
X80940300Y-166229200D01*
X92943000Y-161290000D02*
X85879500Y-161290000D01*
X98023000Y-156210000D02*
X92943000Y-161290000D01*
X101071400Y-156210000D02*
X98023000Y-156210000D01*
X104733600Y-152547800D02*
X101071400Y-156210000D01*
X111882000Y-152547800D02*
X104733600Y-152547800D01*
X112883500Y-153549300D02*
X111882000Y-152547800D01*
X117340900Y-153549300D02*
X112883500Y-153549300D01*
X117996800Y-152893400D02*
X117340900Y-153549300D01*
X117996800Y-151860800D02*
X117996800Y-152893400D01*
X117121300Y-150985300D02*
X117996800Y-151860800D01*
X116840000Y-150985300D02*
X117121300Y-150985300D01*
X116840000Y-149860000D02*
X116840000Y-150985300D01*
X35560000Y-160020000D02*
X35560000Y-158894700D01*
X63151800Y-77764600D02*
X67454700Y-82067500D01*
X50358800Y-77764600D02*
X63151800Y-77764600D01*
X46107000Y-82016400D02*
X50358800Y-77764600D01*
X43177100Y-82016400D02*
X46107000Y-82016400D01*
X40901700Y-84291800D02*
X43177100Y-82016400D01*
X43180000Y-68580000D02*
X43180000Y-69705300D01*
X66140000Y-73249400D02*
X66788500Y-72600900D01*
X43679200Y-73249400D02*
X66140000Y-73249400D01*
X42054700Y-71624900D02*
X43679200Y-73249400D01*
X42054700Y-70549200D02*
X42054700Y-71624900D01*
X42898600Y-69705300D02*
X42054700Y-70549200D01*
X43180000Y-69705300D02*
X42898600Y-69705300D01*
X132080000Y-180340000D02*
X130954700Y-180340000D01*
X124920500Y-174305800D02*
X120692000Y-174305800D01*
X130954700Y-180340000D02*
X124920500Y-174305800D01*
X111760000Y-114300000D02*
X110634700Y-114300000D01*
X43180000Y-114300000D02*
X44305300Y-114300000D01*
X111760000Y-68580000D02*
X110634700Y-68580000D01*
X65594800Y-114735300D02*
X65034200Y-115295900D01*
X65594800Y-113532800D02*
X65594800Y-114735300D01*
X45430600Y-115425300D02*
X44305300Y-114300000D01*
X64904800Y-115425300D02*
X45430600Y-115425300D01*
X65034200Y-115295900D02*
X64904800Y-115425300D01*
X65790400Y-116052200D02*
X65034200Y-115295900D01*
X67083000Y-116052200D02*
X65790400Y-116052200D01*
X67493000Y-115642200D02*
X67083000Y-116052200D01*
X108655700Y-115642200D02*
X67493000Y-115642200D01*
X109106000Y-115191900D02*
X108655700Y-115642200D01*
X109742800Y-115191900D02*
X109106000Y-115191900D01*
X110634700Y-114300000D02*
X109742800Y-115191900D01*
X106725800Y-72488900D02*
X110634700Y-68580000D01*
X91019100Y-72488900D02*
X106725800Y-72488900D01*
X89870500Y-73637500D02*
X91019100Y-72488900D01*
X77854600Y-73637500D02*
X89870500Y-73637500D01*
X76742900Y-72525800D02*
X77854600Y-73637500D01*
X66863600Y-72525800D02*
X76742900Y-72525800D01*
X66788500Y-72600900D02*
X66863600Y-72525800D01*
X114332500Y-116840000D02*
X112885300Y-116840000D01*
X115410200Y-115762300D02*
X114332500Y-116840000D01*
X111760000Y-116840000D02*
X112322700Y-116840000D01*
X112322700Y-116840000D02*
X112885300Y-116840000D01*
X43180000Y-116840000D02*
X44305300Y-116840000D01*
X70109400Y-118865600D02*
X99311200Y-118865600D01*
X69991500Y-118747700D02*
X70109400Y-118865600D01*
X62458500Y-118747700D02*
X69991500Y-118747700D01*
X62393300Y-118812900D02*
X62458500Y-118747700D01*
X46278200Y-118812900D02*
X62393300Y-118812900D01*
X44305300Y-116840000D02*
X46278200Y-118812900D01*
X112322700Y-117609900D02*
X112322700Y-116840000D01*
X111067000Y-118865600D02*
X112322700Y-117609900D01*
X99311200Y-118865600D02*
X111067000Y-118865600D01*
X111760000Y-71120000D02*
X110634700Y-71120000D01*
X71160100Y-74804600D02*
X71160100Y-73782400D01*
X92078100Y-74804600D02*
X71160100Y-74804600D01*
X92227100Y-74655600D02*
X92078100Y-74804600D01*
X107099100Y-74655600D02*
X92227100Y-74655600D01*
X110634700Y-71120000D02*
X107099100Y-74655600D01*
X44346700Y-69953300D02*
X43180000Y-71120000D01*
X44346700Y-68135400D02*
X44346700Y-69953300D01*
X43619300Y-67408000D02*
X44346700Y-68135400D01*
X42725100Y-67408000D02*
X43619300Y-67408000D01*
X41592700Y-68540400D02*
X42725100Y-67408000D01*
X41592700Y-71808300D02*
X41592700Y-68540400D01*
X44589000Y-74804600D02*
X41592700Y-71808300D01*
X71160100Y-74804600D02*
X44589000Y-74804600D01*
X95325800Y-77732700D02*
X93559400Y-79499100D01*
X102399600Y-77732700D02*
X95325800Y-77732700D01*
X103081000Y-78414100D02*
X102399600Y-77732700D01*
X103081000Y-79120200D02*
X103081000Y-78414100D01*
X103826000Y-79865200D02*
X103081000Y-79120200D01*
X110694700Y-79865200D02*
X103826000Y-79865200D01*
X113054200Y-82224700D02*
X110694700Y-79865200D01*
X122145700Y-82224700D02*
X113054200Y-82224700D01*
X127998500Y-88077500D02*
X122145700Y-82224700D01*
X68580000Y-43180000D02*
X68580000Y-44305300D01*
X68948000Y-44305300D02*
X88808200Y-64165500D01*
X68580000Y-44305300D02*
X68948000Y-44305300D01*
X27940000Y-68580000D02*
X27940000Y-67454700D01*
X62005900Y-30648700D02*
X64146700Y-32789500D01*
X32199900Y-30648700D02*
X62005900Y-30648700D01*
X25898600Y-36950000D02*
X32199900Y-30648700D01*
X25898600Y-65694600D02*
X25898600Y-36950000D01*
X27658700Y-67454700D02*
X25898600Y-65694600D01*
X27940000Y-67454700D02*
X27658700Y-67454700D01*
X88858400Y-65127800D02*
X89189300Y-65127800D01*
X87937300Y-64206700D02*
X88858400Y-65127800D01*
X87937300Y-63952000D02*
X87937300Y-64206700D01*
X69705300Y-45720000D02*
X87937300Y-63952000D01*
X98350100Y-112464800D02*
X104142200Y-112464800D01*
X97645300Y-111760000D02*
X98350100Y-112464800D01*
X132080000Y-172720000D02*
X132080000Y-171594700D01*
X96520000Y-111760000D02*
X97645300Y-111760000D01*
X131798700Y-171594700D02*
X132080000Y-171594700D01*
X130412500Y-170208500D02*
X131798700Y-171594700D01*
X130412500Y-151150400D02*
X130412500Y-170208500D01*
X126055200Y-146793100D02*
X130412500Y-151150400D01*
X125524800Y-146793100D02*
X126055200Y-146793100D01*
X117301500Y-138569800D02*
X125524800Y-146793100D01*
X114809600Y-138569800D02*
X117301500Y-138569800D01*
X112129800Y-135890000D02*
X114809600Y-138569800D01*
X111413400Y-135890000D02*
X112129800Y-135890000D01*
X108926500Y-133403100D02*
X111413400Y-135890000D01*
X68580000Y-45720000D02*
X69705300Y-45720000D01*
X27658700Y-64914700D02*
X27940000Y-64914700D01*
X26349000Y-63605000D02*
X27658700Y-64914700D01*
X26349000Y-37231200D02*
X26349000Y-63605000D01*
X32481100Y-31099100D02*
X26349000Y-37231200D01*
X61205500Y-31099100D02*
X32481100Y-31099100D01*
X63521300Y-33414900D02*
X61205500Y-31099100D01*
X65669300Y-33414900D02*
X63521300Y-33414900D01*
X65697700Y-33386500D02*
X65669300Y-33414900D01*
X27940000Y-66040000D02*
X27940000Y-64914700D01*
X96520000Y-109220000D02*
X97645300Y-109220000D01*
X115221100Y-112933600D02*
X119317500Y-112933600D01*
X112851400Y-110563900D02*
X115221100Y-112933600D01*
X107544800Y-110563900D02*
X112851400Y-110563900D01*
X106019400Y-109038500D02*
X107544800Y-110563900D01*
X97826800Y-109038500D02*
X106019400Y-109038500D01*
X97645300Y-109220000D02*
X97826800Y-109038500D01*
X29121200Y-109164100D02*
X29721400Y-109164100D01*
X29065300Y-109220000D02*
X29121200Y-109164100D01*
X27940000Y-109220000D02*
X29065300Y-109220000D01*
X71358000Y-48260000D02*
X68580000Y-48260000D01*
X87142200Y-64044200D02*
X71358000Y-48260000D01*
X27940000Y-63500000D02*
X27940000Y-62374700D01*
X67189600Y-34042300D02*
X67314700Y-33917200D01*
X58967900Y-34042300D02*
X67189600Y-34042300D01*
X56475200Y-31549600D02*
X58967900Y-34042300D01*
X32703500Y-31549600D02*
X56475200Y-31549600D01*
X26799400Y-37453700D02*
X32703500Y-31549600D01*
X26799400Y-61515400D02*
X26799400Y-37453700D01*
X27658700Y-62374700D02*
X26799400Y-61515400D01*
X27940000Y-62374700D02*
X27658700Y-62374700D01*
X108421400Y-131302100D02*
X106715300Y-131302100D01*
X110469300Y-133350000D02*
X108421400Y-131302100D01*
X123476100Y-133350000D02*
X110469300Y-133350000D01*
X128379600Y-138253500D02*
X123476100Y-133350000D01*
X81151400Y-87219900D02*
X81264200Y-87332700D01*
X70565200Y-87219900D02*
X81151400Y-87219900D01*
X69705300Y-86360000D02*
X70565200Y-87219900D01*
X104140000Y-129540000D02*
X103014700Y-129540000D01*
X68580000Y-86360000D02*
X69705300Y-86360000D01*
X101889400Y-128414700D02*
X103014700Y-129540000D01*
X97663500Y-128414700D02*
X101889400Y-128414700D01*
X91626700Y-122377900D02*
X97663500Y-128414700D01*
X88350800Y-122377900D02*
X91626700Y-122377900D01*
X137160000Y-43180000D02*
X137160000Y-42054700D01*
X137364400Y-42054700D02*
X137160000Y-42054700D01*
X140675400Y-38743700D02*
X137364400Y-42054700D01*
X140675400Y-32189100D02*
X140675400Y-38743700D01*
X140487600Y-32001300D02*
X140675400Y-32189100D01*
X134074000Y-32001300D02*
X140487600Y-32001300D01*
X132040600Y-34034700D02*
X134074000Y-32001300D01*
X124018200Y-34034700D02*
X132040600Y-34034700D01*
X123345600Y-33362100D02*
X124018200Y-34034700D01*
X123345600Y-32604600D02*
X123345600Y-33362100D01*
X122780400Y-32039400D02*
X123345600Y-32604600D01*
X110108900Y-32039400D02*
X122780400Y-32039400D01*
X106134300Y-36014000D02*
X110108900Y-32039400D01*
X92802200Y-36014000D02*
X106134300Y-36014000D01*
X137160000Y-40640000D02*
X136034700Y-40640000D01*
X104286500Y-44341500D02*
X102629600Y-42684600D01*
X132614500Y-44341500D02*
X104286500Y-44341500D01*
X136034700Y-40921300D02*
X132614500Y-44341500D01*
X136034700Y-40640000D02*
X136034700Y-40921300D01*
X70004700Y-106380600D02*
X89232000Y-106380600D01*
X69705300Y-106680000D02*
X70004700Y-106380600D01*
X68580000Y-106680000D02*
X69705300Y-106680000D01*
X94457700Y-77282400D02*
X92756000Y-78984100D01*
X109385700Y-77282400D02*
X94457700Y-77282400D01*
X113427300Y-81324000D02*
X109385700Y-77282400D01*
X129102300Y-81324000D02*
X113427300Y-81324000D01*
X135496300Y-74930000D02*
X129102300Y-81324000D01*
X137481600Y-74930000D02*
X135496300Y-74930000D01*
X138380000Y-74031600D02*
X137481600Y-74930000D01*
X138380000Y-73937600D02*
X138380000Y-74031600D01*
X139191700Y-73125900D02*
X138380000Y-73937600D01*
X139191700Y-64200700D02*
X139191700Y-73125900D01*
X138974000Y-63983000D02*
X139191700Y-64200700D01*
X116840000Y-106680000D02*
X115714700Y-106680000D01*
X96520000Y-106680000D02*
X97645300Y-106680000D01*
X48260000Y-60960000D02*
X47134700Y-60960000D01*
X27940000Y-60960000D02*
X29065300Y-60960000D01*
X109154200Y-105554700D02*
X108204500Y-106504400D01*
X114589400Y-105554700D02*
X109154200Y-105554700D01*
X115714700Y-106680000D02*
X114589400Y-105554700D01*
X97820900Y-106504400D02*
X97645300Y-106680000D01*
X108204500Y-106504400D02*
X97820900Y-106504400D01*
X116840000Y-152400000D02*
X115714700Y-152400000D01*
X109680000Y-146365300D02*
X109642200Y-146365300D01*
X115714700Y-152400000D02*
X109680000Y-146365300D01*
X68580000Y-109220000D02*
X67454700Y-109220000D01*
X48260000Y-106680000D02*
X47134700Y-106680000D01*
X27940000Y-106680000D02*
X29065300Y-106680000D01*
X39927300Y-106680000D02*
X29065300Y-106680000D01*
X42023200Y-108775900D02*
X39927300Y-106680000D01*
X42023200Y-112239400D02*
X42023200Y-108775900D01*
X42680100Y-112896300D02*
X42023200Y-112239400D01*
X44213800Y-112896300D02*
X42680100Y-112896300D01*
X46764800Y-110345300D02*
X44213800Y-112896300D01*
X66329400Y-110345300D02*
X46764800Y-110345300D01*
X67454700Y-109220000D02*
X66329400Y-110345300D01*
X42993800Y-107805300D02*
X42023200Y-108775900D01*
X44830300Y-107805300D02*
X42993800Y-107805300D01*
X45955600Y-106680000D02*
X44830300Y-107805300D01*
X47134700Y-106680000D02*
X45955600Y-106680000D01*
X45203300Y-63614500D02*
X43674100Y-62085300D01*
X45203300Y-69805400D02*
X45203300Y-63614500D01*
X48016900Y-72619000D02*
X45203300Y-69805400D01*
X45114000Y-60645400D02*
X43674100Y-62085300D01*
X46820100Y-60645400D02*
X45114000Y-60645400D01*
X47134700Y-60960000D02*
X46820100Y-60645400D01*
X30190600Y-62085300D02*
X29065300Y-60960000D01*
X43674100Y-62085300D02*
X30190600Y-62085300D01*
X106986300Y-73572200D02*
X98236600Y-73572200D01*
X110634600Y-69923900D02*
X106986300Y-73572200D01*
X114376600Y-69923900D02*
X110634600Y-69923900D01*
X115483300Y-68817200D02*
X114376600Y-69923900D01*
X116516100Y-69850000D02*
X115483300Y-68817200D01*
X128293000Y-69850000D02*
X116516100Y-69850000D01*
X131478300Y-73035300D02*
X128293000Y-69850000D01*
X134354800Y-73035300D02*
X131478300Y-73035300D01*
X134768700Y-72621400D02*
X134354800Y-73035300D01*
X134768700Y-68431300D02*
X134768700Y-72621400D01*
X137160000Y-66040000D02*
X134768700Y-68431300D01*
X116840000Y-58420000D02*
X117965300Y-58420000D01*
X137160000Y-68580000D02*
X137160000Y-67454700D01*
X48260000Y-104140000D02*
X47134700Y-104140000D01*
X27940000Y-104140000D02*
X29065300Y-104140000D01*
X29426900Y-104140000D02*
X30224200Y-103342700D01*
X29065300Y-104140000D02*
X29426900Y-104140000D01*
X137160000Y-68580000D02*
X137160000Y-69705300D01*
X32146800Y-105265300D02*
X30224200Y-103342700D01*
X46009400Y-105265300D02*
X32146800Y-105265300D01*
X47134700Y-104140000D02*
X46009400Y-105265300D01*
X116840000Y-104140000D02*
X116840000Y-105265300D01*
X96520000Y-104140000D02*
X96520000Y-105265300D01*
X96520000Y-58420000D02*
X97645300Y-58420000D01*
X48260000Y-104140000D02*
X49385300Y-104140000D01*
X95394700Y-107190600D02*
X95394700Y-106139400D01*
X96014000Y-107809900D02*
X95394700Y-107190600D01*
X99220100Y-107809900D02*
X96014000Y-107809900D01*
X99903700Y-107126300D02*
X99220100Y-107809900D01*
X100617200Y-107126300D02*
X99903700Y-107126300D01*
X101300800Y-107809900D02*
X100617200Y-107126300D01*
X117348900Y-107809900D02*
X101300800Y-107809900D01*
X117972700Y-107186100D02*
X117348900Y-107809900D01*
X117972700Y-106116700D02*
X117972700Y-107186100D01*
X117121300Y-105265300D02*
X117972700Y-106116700D01*
X116840000Y-105265300D02*
X117121300Y-105265300D01*
X96268800Y-105265300D02*
X96520000Y-105265300D01*
X95394700Y-106139400D02*
X96268800Y-105265300D01*
X70435000Y-105854300D02*
X70110500Y-105529800D01*
X88617900Y-105854300D02*
X70435000Y-105854300D01*
X88923300Y-105548900D02*
X88617900Y-105854300D01*
X94804200Y-105548900D02*
X88923300Y-105548900D01*
X95394700Y-106139400D02*
X94804200Y-105548900D01*
X137441400Y-67454700D02*
X137160000Y-67454700D01*
X138285300Y-66610800D02*
X137441400Y-67454700D01*
X138285300Y-64831700D02*
X138285300Y-66610800D01*
X136427800Y-62974200D02*
X138285300Y-64831700D01*
X136427800Y-61176000D02*
X136427800Y-62974200D01*
X132510300Y-57258500D02*
X136427800Y-61176000D01*
X119126800Y-57258500D02*
X132510300Y-57258500D01*
X117965300Y-58420000D02*
X119126800Y-57258500D01*
X61069500Y-105529800D02*
X70110500Y-105529800D01*
X60294900Y-106304400D02*
X61069500Y-105529800D01*
X51549700Y-106304400D02*
X60294900Y-106304400D01*
X49385300Y-104140000D02*
X51549700Y-106304400D01*
X98198800Y-57866500D02*
X108174000Y-57866500D01*
X97645300Y-58420000D02*
X98198800Y-57866500D01*
X127794000Y-80248200D02*
X116503700Y-80248200D01*
X135382600Y-72659600D02*
X127794000Y-80248200D01*
X135382600Y-71271700D02*
X135382600Y-72659600D01*
X136949000Y-69705300D02*
X135382600Y-71271700D01*
X137160000Y-69705300D02*
X136949000Y-69705300D01*
X46009400Y-59545300D02*
X47134700Y-58420000D01*
X30190600Y-59545300D02*
X46009400Y-59545300D01*
X29065300Y-58420000D02*
X30190600Y-59545300D01*
X27940000Y-58420000D02*
X29065300Y-58420000D01*
X48260000Y-58420000D02*
X47134700Y-58420000D01*
X46009400Y-54754700D02*
X47134700Y-55880000D01*
X30190600Y-54754700D02*
X46009400Y-54754700D01*
X29065300Y-55880000D02*
X30190600Y-54754700D01*
X27940000Y-55880000D02*
X29065300Y-55880000D01*
X48260000Y-55880000D02*
X47134700Y-55880000D01*
X116840000Y-101600000D02*
X115714700Y-101600000D01*
X115155300Y-101600000D02*
X115714700Y-101600000D01*
X113956300Y-100401000D02*
X115155300Y-101600000D01*
X69743900Y-114261400D02*
X69705300Y-114300000D01*
X89562600Y-114261400D02*
X69743900Y-114261400D01*
X104153300Y-101600000D02*
X96520000Y-101600000D01*
X105352300Y-100401000D02*
X104153300Y-101600000D01*
X113956300Y-100401000D02*
X105352300Y-100401000D01*
X94760300Y-102234400D02*
X93279700Y-102234400D01*
X95394700Y-101600000D02*
X94760300Y-102234400D01*
X96520000Y-101600000D02*
X95394700Y-101600000D01*
X69142700Y-114300000D02*
X69705300Y-114300000D01*
X69142700Y-114300000D02*
X68580000Y-114300000D01*
X67179200Y-114300000D02*
X66052500Y-115426700D01*
X68580000Y-114300000D02*
X67179200Y-114300000D01*
X48260000Y-101600000D02*
X47134700Y-101600000D01*
X30190700Y-101600000D02*
X27940000Y-101600000D01*
X30673200Y-102082500D02*
X30190700Y-101600000D01*
X31384300Y-102793600D02*
X30673200Y-102082500D01*
X45304300Y-102793600D02*
X31384300Y-102793600D01*
X46497900Y-101600000D02*
X45304300Y-102793600D01*
X47134700Y-101600000D02*
X46497900Y-101600000D01*
X53014100Y-105228800D02*
X49385300Y-101600000D01*
X58798400Y-105228800D02*
X53014100Y-105228800D01*
X48260000Y-101600000D02*
X49385300Y-101600000D01*
X96520000Y-55880000D02*
X97645300Y-55880000D01*
X109282800Y-55880000D02*
X110552800Y-57150000D01*
X97645300Y-55880000D02*
X109282800Y-55880000D01*
X114190300Y-80873600D02*
X113999700Y-80683000D01*
X127821000Y-80873600D02*
X114190300Y-80873600D01*
X137160000Y-71534600D02*
X127821000Y-80873600D01*
X137160000Y-71120000D02*
X137160000Y-71534600D01*
X30190600Y-52214700D02*
X29065300Y-53340000D01*
X43697300Y-52214700D02*
X30190600Y-52214700D01*
X44822600Y-53340000D02*
X43697300Y-52214700D01*
X47134700Y-53340000D02*
X44822600Y-53340000D01*
X48260000Y-53340000D02*
X47134700Y-53340000D01*
X71252300Y-116840000D02*
X72126600Y-117714300D01*
X68580000Y-116840000D02*
X71252300Y-116840000D01*
X26814700Y-98212300D02*
X26814700Y-99060000D01*
X26350700Y-97748300D02*
X26814700Y-98212300D01*
X27940000Y-99060000D02*
X26814700Y-99060000D01*
X117965300Y-98972600D02*
X118639800Y-98298100D01*
X117965300Y-99060000D02*
X117965300Y-98972600D01*
X116840000Y-99060000D02*
X117965300Y-99060000D01*
X116840000Y-99060000D02*
X115714700Y-99060000D01*
X27940000Y-53340000D02*
X29065300Y-53340000D01*
X113948200Y-99060000D02*
X115714700Y-99060000D01*
X112815000Y-97926800D02*
X113948200Y-99060000D01*
X105904100Y-97926800D02*
X112815000Y-97926800D01*
X103559100Y-100271800D02*
X105904100Y-97926800D01*
X99446500Y-100271800D02*
X103559100Y-100271800D01*
X96520000Y-99060000D02*
X95394700Y-99060000D01*
X27940000Y-99060000D02*
X29065300Y-99060000D01*
X30197400Y-97927900D02*
X29065300Y-99060000D01*
X43916100Y-97927900D02*
X30197400Y-97927900D01*
X45048200Y-99060000D02*
X43916100Y-97927900D01*
X48260000Y-99060000D02*
X45048200Y-99060000D01*
X61894900Y-99060000D02*
X48260000Y-99060000D01*
X63164900Y-100330000D02*
X61894900Y-99060000D01*
X71396300Y-100330000D02*
X63164900Y-100330000D01*
X73273900Y-102207600D02*
X71396300Y-100330000D01*
X95394700Y-49745600D02*
X95394700Y-53340000D01*
X92533500Y-46884400D02*
X95394700Y-49745600D01*
X90997400Y-46884400D02*
X92533500Y-46884400D01*
X90268600Y-46155600D02*
X90997400Y-46884400D01*
X90268600Y-45299700D02*
X90268600Y-46155600D01*
X91009800Y-44558500D02*
X90268600Y-45299700D01*
X101679200Y-44558500D02*
X91009800Y-44558500D01*
X107464600Y-50343900D02*
X101679200Y-44558500D01*
X107464600Y-50637100D02*
X107464600Y-50343900D01*
X111316900Y-54489400D02*
X107464600Y-50637100D01*
X113145900Y-54489400D02*
X111316900Y-54489400D01*
X114295300Y-53340000D02*
X113145900Y-54489400D01*
X116840000Y-53340000D02*
X114295300Y-53340000D01*
X96520000Y-53340000D02*
X95394700Y-53340000D01*
X94757900Y-99060000D02*
X95394700Y-99060000D01*
X93632600Y-100185300D02*
X94757900Y-99060000D01*
X85286300Y-100185300D02*
X93632600Y-100185300D01*
X82731200Y-102740400D02*
X85286300Y-100185300D01*
X78729100Y-102740400D02*
X82731200Y-102740400D01*
X78196300Y-102207600D02*
X78729100Y-102740400D01*
X73273900Y-102207600D02*
X78196300Y-102207600D01*
X118378300Y-96520000D02*
X119364700Y-95533600D01*
X116840000Y-96520000D02*
X118378300Y-96520000D01*
X27940000Y-96520000D02*
X29065300Y-96520000D01*
X48260000Y-96520000D02*
X49385300Y-96520000D01*
X96520000Y-96520000D02*
X97645300Y-96520000D01*
X30402300Y-95183000D02*
X29065300Y-96520000D01*
X44588000Y-95183000D02*
X30402300Y-95183000D01*
X45925000Y-96520000D02*
X48260000Y-96520000D01*
X44588000Y-95183000D02*
X45925000Y-96520000D01*
X44942200Y-50800000D02*
X48260000Y-50800000D01*
X43809000Y-49666800D02*
X44942200Y-50800000D01*
X30198500Y-49666800D02*
X43809000Y-49666800D01*
X29065300Y-50800000D02*
X30198500Y-49666800D01*
X27940000Y-50800000D02*
X29065300Y-50800000D01*
X114489700Y-96520000D02*
X116840000Y-96520000D01*
X113322200Y-95352500D02*
X114489700Y-96520000D01*
X107841500Y-95352500D02*
X113322200Y-95352500D01*
X103641700Y-99552300D02*
X107841500Y-95352500D01*
X99021300Y-99552300D02*
X103641700Y-99552300D01*
X97667700Y-100905900D02*
X99021300Y-99552300D01*
X73941400Y-136034700D02*
X73660000Y-136034700D01*
X74785300Y-135190800D02*
X73941400Y-136034700D01*
X74785300Y-129104400D02*
X74785300Y-135190800D01*
X78087200Y-125802500D02*
X74785300Y-129104400D01*
X79311500Y-125802500D02*
X78087200Y-125802500D01*
X81779400Y-123334600D02*
X79311500Y-125802500D01*
X85824700Y-123334600D02*
X81779400Y-123334600D01*
X87905100Y-121254200D02*
X85824700Y-123334600D01*
X92432600Y-121254200D02*
X87905100Y-121254200D01*
X73660000Y-137160000D02*
X73660000Y-136034700D01*
X102468800Y-96520000D02*
X97645300Y-96520000D01*
X103629300Y-97680500D02*
X102468800Y-96520000D01*
X104239700Y-97680500D02*
X103629300Y-97680500D01*
X104605900Y-97314300D02*
X104239700Y-97680500D01*
X104605900Y-96790500D02*
X104605900Y-97314300D01*
X100660400Y-92845000D02*
X104605900Y-96790500D01*
X77777200Y-92845000D02*
X100660400Y-92845000D01*
X77648800Y-92973400D02*
X77777200Y-92845000D01*
X77130700Y-92973400D02*
X77648800Y-92973400D01*
X77002300Y-92845000D02*
X77130700Y-92973400D01*
X67987600Y-92845000D02*
X77002300Y-92845000D01*
X65437900Y-95394700D02*
X67987600Y-92845000D01*
X63033800Y-95394700D02*
X65437900Y-95394700D01*
X62374800Y-96053700D02*
X63033800Y-95394700D01*
X49851600Y-96053700D02*
X62374800Y-96053700D01*
X49385300Y-96520000D02*
X49851600Y-96053700D01*
X116840000Y-93980000D02*
X117965300Y-93980000D01*
X73660000Y-139700000D02*
X72534700Y-139700000D01*
X40640000Y-198120000D02*
X40640000Y-196994700D01*
X116840000Y-93980000D02*
X115714700Y-93980000D01*
X91440000Y-114300000D02*
X90314700Y-114300000D01*
X96520000Y-48260000D02*
X97645300Y-48260000D01*
X118729100Y-93216200D02*
X119501500Y-93216200D01*
X117965300Y-93980000D02*
X118729100Y-93216200D01*
X103991500Y-98565600D02*
X98612300Y-98565600D01*
X109702400Y-92854700D02*
X103991500Y-98565600D01*
X114589400Y-92854700D02*
X109702400Y-92854700D01*
X115714700Y-93980000D02*
X114589400Y-92854700D01*
X93305800Y-101269900D02*
X93137400Y-101269900D01*
X94245700Y-100330000D02*
X93305800Y-101269900D01*
X96847900Y-100330000D02*
X94245700Y-100330000D01*
X98612300Y-98565600D02*
X96847900Y-100330000D01*
X44942200Y-48260000D02*
X48260000Y-48260000D01*
X43801700Y-47119500D02*
X44942200Y-48260000D01*
X30205800Y-47119500D02*
X43801700Y-47119500D01*
X29065300Y-48260000D02*
X30205800Y-47119500D01*
X27940000Y-48260000D02*
X29065300Y-48260000D01*
X27940000Y-93980000D02*
X29065300Y-93980000D01*
X104445100Y-48260000D02*
X106274800Y-50089700D01*
X97645300Y-48260000D02*
X104445100Y-48260000D01*
X76923200Y-115011300D02*
X76923200Y-115011400D01*
X89718700Y-115011300D02*
X76923200Y-115011300D01*
X90314700Y-114415300D02*
X89718700Y-115011300D01*
X90314700Y-114300000D02*
X90314700Y-114415300D01*
X30198500Y-92846800D02*
X31120300Y-92846800D01*
X29065300Y-93980000D02*
X30198500Y-92846800D01*
X44942200Y-93980000D02*
X48260000Y-93980000D01*
X43809000Y-92846800D02*
X44942200Y-93980000D01*
X31120300Y-92846800D02*
X43809000Y-92846800D01*
X27940000Y-93980000D02*
X27940000Y-95105300D01*
X27658700Y-95105300D02*
X27940000Y-95105300D01*
X25687900Y-97076100D02*
X27658700Y-95105300D01*
X25687900Y-116202400D02*
X25687900Y-97076100D01*
X35318500Y-125833000D02*
X25687900Y-116202400D01*
X41088900Y-125833000D02*
X35318500Y-125833000D01*
X42985900Y-127730000D02*
X41088900Y-125833000D01*
X42985900Y-128403400D02*
X42985900Y-127730000D01*
X47848700Y-133266200D02*
X42985900Y-128403400D01*
X50176700Y-133266200D02*
X47848700Y-133266200D01*
X50428100Y-133014800D02*
X50176700Y-133266200D01*
X51090100Y-133014800D02*
X50428100Y-133014800D01*
X52218900Y-134143500D02*
X51090100Y-133014800D01*
X52926300Y-133436100D02*
X52218900Y-134143500D01*
X66503800Y-133436100D02*
X52926300Y-133436100D01*
X72534700Y-139467000D02*
X66503800Y-133436100D01*
X72534700Y-139700000D02*
X72534700Y-139467000D01*
X40358600Y-196994700D02*
X40640000Y-196994700D01*
X39514700Y-196150800D02*
X40358600Y-196994700D01*
X39514700Y-192857200D02*
X39514700Y-196150800D01*
X35887500Y-189230000D02*
X39514700Y-192857200D01*
X35225400Y-189230000D02*
X35887500Y-189230000D01*
X28402700Y-182407300D02*
X35225400Y-189230000D01*
X28402700Y-178569700D02*
X28402700Y-182407300D01*
X30852300Y-176120100D02*
X28402700Y-178569700D01*
X30852300Y-154467300D02*
X30852300Y-176120100D01*
X32146900Y-153172700D02*
X30852300Y-154467300D01*
X32335800Y-153172700D02*
X32146900Y-153172700D01*
X34540400Y-150968100D02*
X32335800Y-153172700D01*
X35235400Y-150968100D02*
X34540400Y-150968100D01*
X47773500Y-138430000D02*
X35235400Y-150968100D01*
X48628500Y-138430000D02*
X47773500Y-138430000D01*
X51108300Y-135950200D02*
X48628500Y-138430000D01*
X51108300Y-135254100D02*
X51108300Y-135950200D01*
X52218900Y-134143500D02*
X51108300Y-135254100D01*
X27940000Y-91440000D02*
X29065300Y-91440000D01*
X48260000Y-91440000D02*
X47134700Y-91440000D01*
X91440000Y-111760000D02*
X90314700Y-111760000D01*
X46009400Y-90314700D02*
X33821400Y-90314700D01*
X47134700Y-91440000D02*
X46009400Y-90314700D01*
X30190600Y-90314700D02*
X29065300Y-91440000D01*
X33821400Y-90314700D02*
X30190600Y-90314700D01*
X73660000Y-142240000D02*
X72534700Y-142240000D01*
X116840000Y-91440000D02*
X116840000Y-90314700D01*
X96520000Y-91440000D02*
X95394700Y-91440000D01*
X48260000Y-91440000D02*
X49385300Y-91440000D01*
X90457200Y-90287800D02*
X89677300Y-91067700D01*
X94242500Y-90287800D02*
X90457200Y-90287800D01*
X95394700Y-91440000D02*
X94242500Y-90287800D01*
X117121300Y-90314700D02*
X116840000Y-90314700D01*
X119945800Y-87490200D02*
X117121300Y-90314700D01*
X98770600Y-90314700D02*
X97645300Y-91440000D01*
X116840000Y-90314700D02*
X98770600Y-90314700D01*
X96520000Y-91440000D02*
X97645300Y-91440000D01*
X89544500Y-112530200D02*
X77334900Y-112530200D01*
X90314700Y-111760000D02*
X89544500Y-112530200D01*
X89274400Y-91470600D02*
X89677300Y-91067700D01*
X77209400Y-91470600D02*
X89274400Y-91470600D01*
X76053500Y-90314700D02*
X77209400Y-91470600D01*
X57851600Y-90314700D02*
X76053500Y-90314700D01*
X56726300Y-91440000D02*
X57851600Y-90314700D01*
X49385300Y-91440000D02*
X56726300Y-91440000D01*
X35247000Y-151593400D02*
X34799400Y-151593400D01*
X43011300Y-143829100D02*
X35247000Y-151593400D01*
X70945600Y-143829100D02*
X43011300Y-143829100D01*
X72534700Y-142240000D02*
X70945600Y-143829100D01*
X46009400Y-44594700D02*
X47134700Y-45720000D01*
X30190600Y-44594700D02*
X46009400Y-44594700D01*
X29065300Y-45720000D02*
X30190600Y-44594700D01*
X27940000Y-45720000D02*
X29065300Y-45720000D01*
X48260000Y-45720000D02*
X47134700Y-45720000D01*
X48260000Y-88900000D02*
X47134700Y-88900000D01*
X27940000Y-88900000D02*
X29065300Y-88900000D01*
X30190600Y-87774700D02*
X29065300Y-88900000D01*
X33381200Y-87774700D02*
X30190600Y-87774700D01*
X46009400Y-87774700D02*
X33381200Y-87774700D01*
X47134700Y-88900000D02*
X46009400Y-87774700D01*
X48260000Y-88900000D02*
X49385300Y-88900000D01*
X96520000Y-43180000D02*
X96520000Y-43157300D01*
X114589400Y-42054700D02*
X115714700Y-43180000D01*
X97622600Y-42054700D02*
X114589400Y-42054700D01*
X96520000Y-43157300D02*
X97622600Y-42054700D01*
X116840000Y-43180000D02*
X115714700Y-43180000D01*
X46009400Y-42054700D02*
X47134700Y-43180000D01*
X30190600Y-42054700D02*
X46009400Y-42054700D01*
X29065300Y-43180000D02*
X30190600Y-42054700D01*
X27940000Y-43180000D02*
X29065300Y-43180000D01*
X48260000Y-43180000D02*
X47134700Y-43180000D01*
X54239000Y-43180000D02*
X48260000Y-43180000D01*
X61891500Y-35527500D02*
X54239000Y-43180000D01*
X70923100Y-35527500D02*
X61891500Y-35527500D01*
X74765600Y-39370000D02*
X70923100Y-35527500D01*
X92732700Y-39370000D02*
X74765600Y-39370000D01*
X96520000Y-43157300D02*
X92732700Y-39370000D01*
X96520000Y-88900000D02*
X95394700Y-88900000D01*
X98770600Y-87774700D02*
X97645300Y-88900000D01*
X114589400Y-87774700D02*
X98770600Y-87774700D01*
X115714700Y-88900000D02*
X114589400Y-87774700D01*
X116840000Y-88900000D02*
X115714700Y-88900000D01*
X96520000Y-88900000D02*
X97645300Y-88900000D01*
X93522600Y-88900000D02*
X95394700Y-88900000D01*
X92359600Y-87737000D02*
X93522600Y-88900000D01*
X90477600Y-87737000D02*
X92359600Y-87737000D01*
X89900200Y-88314400D02*
X90477600Y-87737000D01*
X66040000Y-134620000D02*
X64914700Y-134620000D01*
X58758700Y-134080500D02*
X58913400Y-134235200D01*
X60423500Y-135745300D02*
X58913400Y-134235200D01*
X63789400Y-135745300D02*
X60423500Y-135745300D01*
X64914700Y-134620000D02*
X63789400Y-135745300D01*
X49849800Y-141384600D02*
X49849800Y-143094700D01*
X52804400Y-138430000D02*
X49849800Y-141384600D01*
X54718600Y-138430000D02*
X52804400Y-138430000D01*
X58913400Y-134235200D02*
X54718600Y-138430000D01*
X89744100Y-88470500D02*
X89900200Y-88314400D01*
X77526200Y-88470500D02*
X89744100Y-88470500D01*
X76823600Y-87767900D02*
X77526200Y-88470500D01*
X59089100Y-87767900D02*
X76823600Y-87767900D01*
X56493000Y-90364000D02*
X59089100Y-87767900D01*
X55029000Y-88900000D02*
X56493000Y-90364000D01*
X49385300Y-88900000D02*
X55029000Y-88900000D01*
X114010600Y-46845300D02*
X112885300Y-45720000D01*
X129829400Y-46845300D02*
X114010600Y-46845300D01*
X130954700Y-45720000D02*
X129829400Y-46845300D01*
X132080000Y-45720000D02*
X130954700Y-45720000D01*
X111760000Y-45720000D02*
X112885300Y-45720000D01*
X63500000Y-45720000D02*
X62374700Y-45720000D01*
X43180000Y-45720000D02*
X44305300Y-45720000D01*
X91440000Y-106680000D02*
X90314700Y-106680000D01*
X61886200Y-38101300D02*
X61886200Y-45720000D01*
X63050500Y-36937000D02*
X61886200Y-38101300D01*
X69622100Y-36937000D02*
X63050500Y-36937000D01*
X76849600Y-44164500D02*
X69622100Y-36937000D01*
X86361300Y-44164500D02*
X76849600Y-44164500D01*
X61886200Y-45720000D02*
X62374700Y-45720000D01*
X115077800Y-91440000D02*
X111760000Y-91440000D01*
X116203200Y-92565400D02*
X115077800Y-91440000D01*
X129829300Y-92565400D02*
X116203200Y-92565400D01*
X130954700Y-91440000D02*
X129829300Y-92565400D01*
X132080000Y-91440000D02*
X130954700Y-91440000D01*
X89778000Y-107216700D02*
X89143600Y-107216700D01*
X90314700Y-106680000D02*
X89778000Y-107216700D01*
X99341300Y-133494700D02*
X99060000Y-133494700D01*
X100300900Y-132535100D02*
X99341300Y-133494700D01*
X100300900Y-131469300D02*
X100300900Y-132535100D01*
X99060000Y-134620000D02*
X99060000Y-133494700D01*
X60480200Y-47126000D02*
X61886200Y-45720000D01*
X45711300Y-47126000D02*
X60480200Y-47126000D01*
X44305300Y-45720000D02*
X45711300Y-47126000D01*
X61249400Y-92565300D02*
X62374700Y-91440000D01*
X45430600Y-92565300D02*
X61249400Y-92565300D01*
X44305300Y-91440000D02*
X45430600Y-92565300D01*
X43180000Y-91440000D02*
X44305300Y-91440000D01*
X63500000Y-91440000D02*
X62374700Y-91440000D01*
X132080000Y-93980000D02*
X130954700Y-93980000D01*
X111760000Y-93980000D02*
X112885300Y-93980000D01*
X114010600Y-49385300D02*
X112885300Y-48260000D01*
X129829400Y-49385300D02*
X114010600Y-49385300D01*
X130954700Y-48260000D02*
X129829400Y-49385300D01*
X132080000Y-48260000D02*
X130954700Y-48260000D01*
X111760000Y-48260000D02*
X112885300Y-48260000D01*
X63500000Y-48260000D02*
X62374700Y-48260000D01*
X43180000Y-48260000D02*
X44305300Y-48260000D01*
X45430600Y-49385300D02*
X44305300Y-48260000D01*
X61249400Y-49385300D02*
X45430600Y-49385300D01*
X62374700Y-48260000D02*
X61249400Y-49385300D01*
X114010600Y-95105300D02*
X112885300Y-93980000D01*
X118908700Y-95105300D02*
X114010600Y-95105300D01*
X120034000Y-93980000D02*
X118908700Y-95105300D01*
X130954700Y-93980000D02*
X120034000Y-93980000D01*
X63500000Y-48260000D02*
X63500000Y-47134700D01*
X99060000Y-137160000D02*
X99060000Y-136034700D01*
X88741000Y-104140000D02*
X87675900Y-105205100D01*
X91440000Y-104140000D02*
X88741000Y-104140000D01*
X94339900Y-49626100D02*
X94448000Y-49734200D01*
X81353000Y-49626100D02*
X94339900Y-49626100D01*
X71238800Y-39511900D02*
X81353000Y-49626100D01*
X62968600Y-39511900D02*
X71238800Y-39511900D01*
X62374600Y-40105900D02*
X62968600Y-39511900D01*
X62374600Y-43652100D02*
X62374600Y-40105900D01*
X63172500Y-44450000D02*
X62374600Y-43652100D01*
X63899000Y-44450000D02*
X63172500Y-44450000D01*
X64625300Y-45176300D02*
X63899000Y-44450000D01*
X64625300Y-46290800D02*
X64625300Y-45176300D01*
X63781400Y-47134700D02*
X64625300Y-46290800D01*
X63500000Y-47134700D02*
X63781400Y-47134700D01*
X97934700Y-130091800D02*
X90953600Y-123110700D01*
X97934700Y-135190800D02*
X97934700Y-130091800D01*
X98778600Y-136034700D02*
X97934700Y-135190800D01*
X99060000Y-136034700D02*
X98778600Y-136034700D01*
X61249400Y-95105300D02*
X62374700Y-93980000D01*
X45430600Y-95105300D02*
X61249400Y-95105300D01*
X44305300Y-93980000D02*
X45430600Y-95105300D01*
X43180000Y-93980000D02*
X44305300Y-93980000D01*
X63500000Y-93980000D02*
X62374700Y-93980000D01*
X114010600Y-54754700D02*
X112885300Y-55880000D01*
X129829400Y-54754700D02*
X114010600Y-54754700D01*
X130954700Y-55880000D02*
X129829400Y-54754700D01*
X132080000Y-55880000D02*
X130954700Y-55880000D01*
X111760000Y-55880000D02*
X112885300Y-55880000D01*
X91440000Y-101600000D02*
X90314700Y-101600000D01*
X111760000Y-101600000D02*
X110634700Y-101600000D01*
X91440000Y-101600000D02*
X92565300Y-101600000D01*
X132080000Y-101600000D02*
X130954700Y-101600000D01*
X111760000Y-101600000D02*
X112885300Y-101600000D01*
X61249400Y-57005300D02*
X62374700Y-55880000D01*
X45430600Y-57005300D02*
X61249400Y-57005300D01*
X44305300Y-55880000D02*
X45430600Y-57005300D01*
X43180000Y-55880000D02*
X44305300Y-55880000D01*
X63500000Y-55880000D02*
X62374700Y-55880000D01*
X64062700Y-101600000D02*
X63766700Y-101600000D01*
X64062700Y-101600000D02*
X64625300Y-101600000D01*
X130954700Y-101600000D02*
X126732100Y-101600000D01*
X114010600Y-102725300D02*
X112885300Y-101600000D01*
X125606800Y-102725300D02*
X114010600Y-102725300D01*
X126732100Y-101600000D02*
X125606800Y-102725300D01*
X109375000Y-102859700D02*
X110634700Y-101600000D01*
X93020700Y-102859700D02*
X109375000Y-102859700D01*
X92565300Y-102404300D02*
X93020700Y-102859700D01*
X92565300Y-101600000D02*
X92565300Y-102404300D01*
X63500000Y-101600000D02*
X63633400Y-101600000D01*
X63633400Y-101600000D02*
X63766700Y-101600000D01*
X59379300Y-105854100D02*
X63633400Y-101600000D01*
X51774300Y-105854100D02*
X59379300Y-105854100D01*
X48925500Y-103005300D02*
X51774300Y-105854100D01*
X46047700Y-103005300D02*
X48925500Y-103005300D01*
X45614100Y-103438900D02*
X46047700Y-103005300D01*
X44392800Y-103438900D02*
X45614100Y-103438900D01*
X88724000Y-103190700D02*
X90314700Y-101600000D01*
X78542500Y-103190700D02*
X88724000Y-103190700D01*
X78184700Y-102832900D02*
X78542500Y-103190700D01*
X65858200Y-102832900D02*
X78184700Y-102832900D01*
X64625300Y-101600000D02*
X65858200Y-102832900D01*
X132080000Y-96520000D02*
X130954700Y-96520000D01*
X111760000Y-96520000D02*
X112885300Y-96520000D01*
X63500000Y-50800000D02*
X62374700Y-50800000D01*
X43180000Y-50800000D02*
X44305300Y-50800000D01*
X45430600Y-51925300D02*
X44305300Y-50800000D01*
X61249400Y-51925300D02*
X45430600Y-51925300D01*
X62374700Y-50800000D02*
X61249400Y-51925300D01*
X91440000Y-99060000D02*
X90314700Y-99060000D01*
X93880300Y-97745000D02*
X92565300Y-99060000D01*
X102360100Y-97745000D02*
X93880300Y-97745000D01*
X91440000Y-99060000D02*
X92565300Y-99060000D01*
X114010600Y-51925300D02*
X112885300Y-50800000D01*
X129829400Y-51925300D02*
X114010600Y-51925300D01*
X130954700Y-50800000D02*
X129829400Y-51925300D01*
X132080000Y-50800000D02*
X130954700Y-50800000D01*
X111760000Y-50800000D02*
X112885300Y-50800000D01*
X126477000Y-96520000D02*
X126281800Y-96324800D01*
X130954700Y-96520000D02*
X126477000Y-96520000D01*
X124961300Y-97645300D02*
X126281800Y-96324800D01*
X114010600Y-97645300D02*
X124961300Y-97645300D01*
X112885300Y-96520000D02*
X114010600Y-97645300D01*
X84805400Y-99060000D02*
X90314700Y-99060000D01*
X83132200Y-97386800D02*
X84805400Y-99060000D01*
X69559900Y-97386800D02*
X83132200Y-97386800D01*
X45430600Y-97645300D02*
X44305300Y-96520000D01*
X61249400Y-97645300D02*
X45430600Y-97645300D01*
X62374700Y-96520000D02*
X61249400Y-97645300D01*
X63500000Y-96520000D02*
X62374700Y-96520000D01*
X43180000Y-96520000D02*
X44305300Y-96520000D01*
X48260000Y-86360000D02*
X47134700Y-86360000D01*
X27940000Y-86360000D02*
X29065300Y-86360000D01*
X32207800Y-86360000D02*
X29065300Y-86360000D01*
X34110700Y-84457100D02*
X32207800Y-86360000D01*
X48260000Y-86360000D02*
X49385300Y-86360000D01*
X96520000Y-86360000D02*
X95394700Y-86360000D01*
X48260000Y-40640000D02*
X49385300Y-40640000D01*
X98770600Y-39514700D02*
X97645300Y-40640000D01*
X114589400Y-39514700D02*
X98770600Y-39514700D01*
X115714700Y-40640000D02*
X114589400Y-39514700D01*
X116840000Y-40640000D02*
X115714700Y-40640000D01*
X96520000Y-40640000D02*
X97645300Y-40640000D01*
X46009400Y-39514700D02*
X47134700Y-40640000D01*
X30190600Y-39514700D02*
X46009400Y-39514700D01*
X29065300Y-40640000D02*
X30190600Y-39514700D01*
X27940000Y-40640000D02*
X29065300Y-40640000D01*
X48260000Y-40640000D02*
X47134700Y-40640000D01*
X91440000Y-96520000D02*
X90314700Y-96520000D01*
X98770600Y-85234700D02*
X97645300Y-86360000D01*
X114589400Y-85234700D02*
X98770600Y-85234700D01*
X115714700Y-86360000D02*
X114589400Y-85234700D01*
X116840000Y-86360000D02*
X115714700Y-86360000D01*
X96520000Y-86360000D02*
X97645300Y-86360000D01*
X55452500Y-34572800D02*
X49385300Y-40640000D01*
X90452800Y-34572800D02*
X55452500Y-34572800D01*
X96520000Y-40640000D02*
X90452800Y-34572800D01*
X45999000Y-85224300D02*
X47134700Y-86360000D01*
X41490500Y-85224300D02*
X45999000Y-85224300D01*
X41347400Y-85367400D02*
X41490500Y-85224300D01*
X35021000Y-85367400D02*
X41347400Y-85367400D01*
X34110700Y-84457100D02*
X35021000Y-85367400D01*
X93331400Y-86657500D02*
X92747900Y-87241000D01*
X95097100Y-86657600D02*
X95394700Y-86360000D01*
X93331400Y-86657600D02*
X95097100Y-86657600D01*
X93331400Y-86657500D02*
X93331400Y-86657600D01*
X91908400Y-85234600D02*
X93331400Y-86657500D01*
X81372400Y-85234600D02*
X91908400Y-85234600D01*
X80140500Y-86466500D02*
X81372400Y-85234600D01*
X78813300Y-86466500D02*
X80140500Y-86466500D01*
X78510300Y-86769500D02*
X78813300Y-86466500D01*
X77526200Y-86769500D02*
X78510300Y-86769500D01*
X75991300Y-85234600D02*
X77526200Y-86769500D01*
X50510700Y-85234600D02*
X75991300Y-85234600D01*
X49385300Y-86360000D02*
X50510700Y-85234600D01*
X88575500Y-98259200D02*
X85012700Y-98259200D01*
X90314700Y-96520000D02*
X88575500Y-98259200D01*
X91440000Y-93980000D02*
X90314700Y-93980000D01*
X89612200Y-94682500D02*
X77108800Y-94682500D01*
X90314700Y-93980000D02*
X89612200Y-94682500D01*
X89406600Y-92348100D02*
X77389700Y-92348100D01*
X90314700Y-91440000D02*
X89406600Y-92348100D01*
X91440000Y-91440000D02*
X90314700Y-91440000D01*
X66040000Y-132080000D02*
X67165300Y-132080000D01*
X71010200Y-135924900D02*
X71362400Y-135924900D01*
X67165300Y-132080000D02*
X71010200Y-135924900D01*
X91440000Y-88900000D02*
X90314700Y-88900000D01*
X88239300Y-90975400D02*
X90314700Y-88900000D01*
X77598500Y-90975400D02*
X88239300Y-90975400D01*
X77468400Y-90845300D02*
X77598500Y-90975400D01*
X69471300Y-129540000D02*
X66040000Y-129540000D01*
X70978400Y-128032900D02*
X69471300Y-129540000D01*
X91440000Y-86360000D02*
X90314700Y-86360000D01*
X88716700Y-87958000D02*
X90314700Y-86360000D01*
X77898000Y-87958000D02*
X88716700Y-87958000D01*
X77785200Y-87845200D02*
X77898000Y-87958000D01*
X66040000Y-127000000D02*
X67052700Y-127000000D01*
X67055800Y-127003100D02*
X70401500Y-127003100D01*
X67052700Y-127000000D02*
X67055800Y-127003100D01*
X80109400Y-83820000D02*
X77785200Y-86144200D01*
X91440000Y-83820000D02*
X80109400Y-83820000D01*
X91440000Y-68580000D02*
X91440000Y-69705300D01*
X89901000Y-70963000D02*
X89901000Y-71786000D01*
X91158700Y-69705300D02*
X89901000Y-70963000D01*
X91440000Y-69705300D02*
X91158700Y-69705300D01*
X63500000Y-60960000D02*
X64625300Y-60960000D01*
X85791800Y-64865900D02*
X87263400Y-64865900D01*
X83011200Y-62085300D02*
X85791800Y-64865900D01*
X65750600Y-62085300D02*
X83011200Y-62085300D01*
X64625300Y-60960000D02*
X65750600Y-62085300D01*
X93690600Y-62374700D02*
X92565300Y-63500000D01*
X129540000Y-62374700D02*
X93690600Y-62374700D01*
X130954700Y-60960000D02*
X129540000Y-62374700D01*
X132080000Y-60960000D02*
X130954700Y-60960000D01*
X91440000Y-63500000D02*
X92565300Y-63500000D01*
X91440000Y-60960000D02*
X92565300Y-60960000D01*
X132080000Y-62937300D02*
X132080000Y-62969700D01*
X132080000Y-63500000D02*
X132080000Y-62969700D01*
X132080000Y-62937300D02*
X132080000Y-62374700D01*
X63500000Y-63500000D02*
X63500000Y-62374700D01*
X81947300Y-59760800D02*
X86225200Y-64038700D01*
X63043000Y-59760800D02*
X81947300Y-59760800D01*
X62372900Y-60430900D02*
X63043000Y-59760800D01*
X62372900Y-61528900D02*
X62372900Y-60430900D01*
X63218700Y-62374700D02*
X62372900Y-61528900D01*
X63500000Y-62374700D02*
X63218700Y-62374700D01*
X132361400Y-64625300D02*
X132080000Y-64625300D01*
X133205300Y-65469200D02*
X132361400Y-64625300D01*
X133205300Y-69770300D02*
X133205300Y-65469200D01*
X133125600Y-69850000D02*
X133205300Y-69770300D01*
X132080000Y-63500000D02*
X132080000Y-64625300D01*
X132361300Y-62374700D02*
X132080000Y-62374700D01*
X133206400Y-61529600D02*
X132361300Y-62374700D01*
X133206400Y-60439100D02*
X133206400Y-61529600D01*
X132602000Y-59834700D02*
X133206400Y-60439100D01*
X93690600Y-59834700D02*
X132602000Y-59834700D01*
X92565300Y-60960000D02*
X93690600Y-59834700D01*
X91158600Y-59545300D02*
X91440000Y-59545300D01*
X90314700Y-60389200D02*
X91158600Y-59545300D01*
X90314700Y-64034300D02*
X90314700Y-60389200D01*
X91195100Y-64914700D02*
X90314700Y-64034300D01*
X129829400Y-64914700D02*
X91195100Y-64914700D01*
X130954700Y-66040000D02*
X129829400Y-64914700D01*
X132080000Y-66040000D02*
X130954700Y-66040000D01*
X91440000Y-58420000D02*
X91440000Y-59545300D01*
X63218600Y-67165300D02*
X63500000Y-67165300D01*
X62374700Y-68009200D02*
X63218600Y-67165300D01*
X62374700Y-69059600D02*
X62374700Y-68009200D01*
X63165100Y-69850000D02*
X62374700Y-69059600D01*
X70949200Y-69850000D02*
X63165100Y-69850000D01*
X72667400Y-71568200D02*
X70949200Y-69850000D01*
X76662700Y-71568200D02*
X72667400Y-71568200D01*
X63500000Y-66040000D02*
X63500000Y-67165300D01*
X132080000Y-114300000D02*
X132080000Y-113174700D01*
X63500000Y-68580000D02*
X64625300Y-68580000D01*
X131850700Y-113174700D02*
X128623800Y-109947800D01*
X132080000Y-113174700D02*
X131850700Y-113174700D01*
X76444500Y-67388100D02*
X77096200Y-68039800D01*
X65817200Y-67388100D02*
X76444500Y-67388100D01*
X64625300Y-68580000D02*
X65817200Y-67388100D01*
X126973400Y-79752700D02*
X128131400Y-78594700D01*
X123986700Y-79752700D02*
X126973400Y-79752700D01*
X122895400Y-78661400D02*
X123986700Y-79752700D01*
X122895400Y-77953400D02*
X122895400Y-78661400D01*
X120282500Y-75340500D02*
X122895400Y-77953400D01*
X92426600Y-75340500D02*
X120282500Y-75340500D01*
X128131400Y-76486000D02*
X128131400Y-78594700D01*
X131087900Y-73529500D02*
X128131400Y-76486000D01*
X128131400Y-78594700D02*
X128343600Y-78806900D01*
X82019300Y-72962900D02*
X89390600Y-72962900D01*
X77096200Y-68039800D02*
X82019300Y-72962900D01*
X133205300Y-71492300D02*
X134105500Y-72392500D01*
X133205300Y-71120000D02*
X133205300Y-71492300D01*
X63500000Y-71120000D02*
X62374700Y-71120000D01*
X132642700Y-71120000D02*
X133205300Y-71120000D01*
X132642700Y-71120000D02*
X132080000Y-71120000D01*
X132080000Y-71120000D02*
X130954700Y-71120000D01*
X91440000Y-53340000D02*
X91440000Y-54465300D01*
X89830900Y-66051000D02*
X89830900Y-65753500D01*
X91089900Y-67310000D02*
X89830900Y-66051000D01*
X127144700Y-67310000D02*
X91089900Y-67310000D01*
X130954700Y-71120000D02*
X127144700Y-67310000D01*
X91255000Y-54465300D02*
X91440000Y-54465300D01*
X89830900Y-55889400D02*
X91255000Y-54465300D01*
X89830900Y-65753500D02*
X89830900Y-55889400D01*
X62216000Y-70961300D02*
X61997900Y-70961300D01*
X62374700Y-71120000D02*
X62216000Y-70961300D01*
X61912000Y-70875400D02*
X61997900Y-70961300D01*
X61912000Y-65976700D02*
X61912000Y-70875400D01*
X63027600Y-64861100D02*
X61912000Y-65976700D01*
X83869300Y-64861100D02*
X63027600Y-64861100D01*
X84761700Y-65753500D02*
X83869300Y-64861100D01*
X89830900Y-65753500D02*
X84761700Y-65753500D01*
X60591200Y-72368000D02*
X60591200Y-72498200D01*
X61997900Y-70961300D02*
X60591200Y-72368000D01*
X116840000Y-114300000D02*
X115714700Y-114300000D01*
X48260000Y-114300000D02*
X49385300Y-114300000D01*
X114139200Y-114300000D02*
X115714700Y-114300000D01*
X113008800Y-113169600D02*
X114139200Y-114300000D01*
X66116000Y-113169600D02*
X113008800Y-113169600D01*
X65853900Y-112907500D02*
X66116000Y-113169600D01*
X50777800Y-112907500D02*
X65853900Y-112907500D01*
X49385300Y-114300000D02*
X50777800Y-112907500D01*
X131658000Y-136034700D02*
X132080000Y-136034700D01*
X122492800Y-126869500D02*
X131658000Y-136034700D01*
X122492800Y-125812700D02*
X122492800Y-126869500D01*
X132080000Y-137160000D02*
X132080000Y-136034700D01*
X68123400Y-41998600D02*
X65735100Y-44386900D01*
X69794000Y-41998600D02*
X68123400Y-41998600D01*
X78595400Y-50800000D02*
X69794000Y-41998600D01*
X91440000Y-50800000D02*
X78595400Y-50800000D01*
X99993100Y-79182000D02*
X99993100Y-79865200D01*
X117614000Y-82686400D02*
X117777600Y-82850000D01*
X112879000Y-82686400D02*
X117614000Y-82686400D01*
X110508100Y-80315500D02*
X112879000Y-82686400D01*
X100443400Y-80315500D02*
X110508100Y-80315500D01*
X99993100Y-79865200D02*
X100443400Y-80315500D01*
X99733900Y-80124400D02*
X99993100Y-79865200D01*
X68202200Y-80124400D02*
X99733900Y-80124400D01*
X65390400Y-77312600D02*
X68202200Y-80124400D01*
X49907300Y-77312600D02*
X65390400Y-77312600D01*
X132080000Y-134620000D02*
X130954700Y-134620000D01*
X130954700Y-133036500D02*
X124884100Y-126965900D01*
X130954700Y-134620000D02*
X130954700Y-133036500D01*
X48260000Y-109220000D02*
X49385300Y-109220000D01*
X50533600Y-109220000D02*
X50555800Y-109197800D01*
X49385300Y-109220000D02*
X50533600Y-109220000D01*
X66063300Y-76078700D02*
X51377400Y-76078700D01*
X67312300Y-77327700D02*
X66063300Y-76078700D01*
X93065000Y-77327700D02*
X67312300Y-77327700D01*
X93560700Y-76832000D02*
X93065000Y-77327700D01*
X114603800Y-76832000D02*
X93560700Y-76832000D01*
X91440000Y-45720000D02*
X92565300Y-45720000D01*
X92565300Y-45896900D02*
X92565300Y-45720000D01*
X96198400Y-49530000D02*
X92565300Y-45896900D01*
X103817200Y-49530000D02*
X96198400Y-49530000D01*
X111581800Y-57294600D02*
X103817200Y-49530000D01*
X112664200Y-57294600D02*
X111581800Y-57294600D01*
X114189500Y-58819900D02*
X112664200Y-57294600D01*
X114888600Y-109220000D02*
X114769400Y-109100800D01*
X116840000Y-109220000D02*
X114888600Y-109220000D01*
X132080000Y-132080000D02*
X130954700Y-132080000D01*
X123271900Y-124397200D02*
X120919200Y-124397200D01*
X130954700Y-132080000D02*
X123271900Y-124397200D01*
X91440000Y-43180000D02*
X90314700Y-43180000D01*
X53993500Y-45286800D02*
X53993500Y-45482600D01*
X62797500Y-36482800D02*
X53993500Y-45286800D01*
X70604600Y-36482800D02*
X62797500Y-36482800D01*
X77301800Y-43180000D02*
X70604600Y-36482800D01*
X90314700Y-43180000D02*
X77301800Y-43180000D01*
X39153600Y-60960000D02*
X39149000Y-60964600D01*
X43180000Y-60960000D02*
X39153600Y-60960000D01*
X42054700Y-106663500D02*
X41424200Y-106033000D01*
X42054700Y-106680000D02*
X42054700Y-106663500D01*
X43180000Y-106680000D02*
X42054700Y-106680000D01*
X43180000Y-109220000D02*
X44305300Y-109220000D01*
X111760000Y-63500000D02*
X110634700Y-63500000D01*
X111760000Y-109220000D02*
X110634700Y-109220000D01*
X109985600Y-64149100D02*
X99258600Y-64149100D01*
X110634700Y-63500000D02*
X109985600Y-64149100D01*
X45537500Y-107987800D02*
X45775400Y-107987800D01*
X44305300Y-109220000D02*
X45537500Y-107987800D01*
X100965800Y-108588100D02*
X100146000Y-107768300D01*
X110002800Y-108588100D02*
X100965800Y-108588100D01*
X110634700Y-109220000D02*
X110002800Y-108588100D01*
X62510200Y-35980800D02*
X52048500Y-46442500D01*
X70739500Y-35980800D02*
X62510200Y-35980800D01*
X75398700Y-40640000D02*
X70739500Y-35980800D01*
X91440000Y-40640000D02*
X75398700Y-40640000D01*
X43180000Y-111760000D02*
X44305300Y-111760000D01*
X47091400Y-108086700D02*
X46634600Y-107630000D01*
X93746900Y-108086700D02*
X47091400Y-108086700D01*
X96005500Y-110345300D02*
X93746900Y-108086700D01*
X99891700Y-110345300D02*
X96005500Y-110345300D01*
X100573200Y-109663800D02*
X99891700Y-110345300D01*
X44305300Y-110872800D02*
X44305300Y-111760000D01*
X47091400Y-108086700D02*
X44305300Y-110872800D01*
X102669400Y-111760000D02*
X111760000Y-111760000D01*
X100573200Y-109663800D02*
X102669400Y-111760000D01*
X111760000Y-111760000D02*
X112885300Y-111760000D01*
X112885300Y-112077400D02*
X114144000Y-113336100D01*
X112885300Y-111760000D02*
X112885300Y-112077400D01*
X57282200Y-164113800D02*
X55174600Y-162006200D01*
X61357000Y-164113800D02*
X57282200Y-164113800D01*
X64644000Y-167400800D02*
X61357000Y-164113800D01*
X64644000Y-167892600D02*
X64644000Y-167400800D01*
X65661400Y-168910000D02*
X64644000Y-167892600D01*
X67977900Y-168910000D02*
X65661400Y-168910000D01*
X70377900Y-171310000D02*
X67977900Y-168910000D01*
X76203500Y-171310000D02*
X70377900Y-171310000D01*
X76354600Y-171158900D02*
X76203500Y-171310000D01*
X72259100Y-166533300D02*
X72316200Y-166476200D01*
X70380000Y-166533300D02*
X72259100Y-166533300D01*
X68946700Y-165100000D02*
X70380000Y-166533300D01*
X66040000Y-165100000D02*
X68946700Y-165100000D01*
X73660000Y-165100000D02*
X72534700Y-165100000D01*
X61404600Y-157307000D02*
X54465300Y-150367700D01*
X62779600Y-157307000D02*
X61404600Y-157307000D01*
X64222600Y-158750000D02*
X62779600Y-157307000D01*
X66466000Y-158750000D02*
X64222600Y-158750000D01*
X72534700Y-164818700D02*
X66466000Y-158750000D01*
X72534700Y-165100000D02*
X72534700Y-164818700D01*
X55105700Y-135260400D02*
X54465300Y-134620000D01*
X56941800Y-135260400D02*
X55105700Y-135260400D01*
X56941800Y-135260500D02*
X56941800Y-135260400D01*
X56972700Y-135291400D02*
X56941800Y-135260500D01*
X53340000Y-134620000D02*
X54465300Y-134620000D01*
X111760000Y-200660000D02*
X110634700Y-200660000D01*
X57746900Y-185457800D02*
X53554700Y-181265600D01*
X90527800Y-205440200D02*
X65033700Y-205440200D01*
X91257600Y-204710400D02*
X90527800Y-205440200D01*
X106584300Y-204710400D02*
X91257600Y-204710400D01*
X110634700Y-200660000D02*
X106584300Y-204710400D01*
X63990100Y-200238600D02*
X63990100Y-199758700D01*
X66931400Y-203179900D02*
X63990100Y-200238600D01*
X90547300Y-203179900D02*
X66931400Y-203179900D01*
X92693400Y-201033800D02*
X90547300Y-203179900D01*
X92693400Y-200807600D02*
X92693400Y-201033800D01*
X93991400Y-199509600D02*
X92693400Y-200807600D01*
X104342000Y-199509600D02*
X93991400Y-199509600D01*
X105461400Y-198390200D02*
X104342000Y-199509600D01*
X106845800Y-198390200D02*
X105461400Y-198390200D01*
X107743800Y-199288200D02*
X106845800Y-198390200D01*
X113281000Y-199288200D02*
X107743800Y-199288200D01*
X117115500Y-195453700D02*
X113281000Y-199288200D01*
X132849400Y-195453700D02*
X117115500Y-195453700D01*
X140081600Y-188221500D02*
X132849400Y-195453700D01*
X143689900Y-188221500D02*
X140081600Y-188221500D01*
X145080300Y-186831100D02*
X143689900Y-188221500D01*
X145080300Y-137148100D02*
X145080300Y-186831100D01*
X143654600Y-135722400D02*
X145080300Y-137148100D01*
X143654600Y-134049400D02*
X143654600Y-135722400D01*
X144498700Y-133205300D02*
X143654600Y-134049400D01*
X144780000Y-133205300D02*
X144498700Y-133205300D01*
X144780000Y-132080000D02*
X144780000Y-133205300D01*
X144780000Y-78740000D02*
X144780000Y-79865300D01*
X131901700Y-105265400D02*
X108297500Y-128869600D01*
X132579800Y-105265400D02*
X131901700Y-105265400D01*
X133986600Y-103858600D02*
X132579800Y-105265400D01*
X133986600Y-103101500D02*
X133986600Y-103858600D01*
X136758100Y-100330000D02*
X133986600Y-103101500D01*
X137510400Y-100330000D02*
X136758100Y-100330000D01*
X143654700Y-94185700D02*
X137510400Y-100330000D01*
X143654700Y-80709200D02*
X143654700Y-94185700D01*
X144498600Y-79865300D02*
X143654700Y-80709200D01*
X144780000Y-79865300D02*
X144498600Y-79865300D01*
X75192800Y-146797300D02*
X62302300Y-146797300D01*
X78275900Y-143714200D02*
X75192800Y-146797300D01*
X88174900Y-143714200D02*
X78275900Y-143714200D01*
X90822700Y-141066400D02*
X88174900Y-143714200D01*
X92121800Y-141066400D02*
X90822700Y-141066400D01*
X92409600Y-141354200D02*
X92121800Y-141066400D01*
X144780000Y-81280000D02*
X144780000Y-82405300D01*
X120433600Y-118803500D02*
X114835900Y-124401200D01*
X125568800Y-118803500D02*
X120433600Y-118803500D01*
X125877000Y-119111700D02*
X125568800Y-118803500D01*
X127748700Y-119111700D02*
X125877000Y-119111700D01*
X129190400Y-120553400D02*
X127748700Y-119111700D01*
X145247500Y-120553400D02*
X129190400Y-120553400D01*
X145923500Y-119877400D02*
X145247500Y-120553400D01*
X145923500Y-83267500D02*
X145923500Y-119877400D01*
X145061300Y-82405300D02*
X145923500Y-83267500D01*
X144780000Y-82405300D02*
X145061300Y-82405300D01*
X65715600Y-120922200D02*
X63545600Y-123092200D01*
X69392700Y-120922200D02*
X65715600Y-120922200D01*
X69555400Y-121084900D02*
X69392700Y-120922200D01*
X69555400Y-122496800D02*
X69555400Y-121084900D01*
X70436000Y-123377400D02*
X69555400Y-122496800D01*
X78691300Y-123377400D02*
X70436000Y-123377400D01*
X80796400Y-121272300D02*
X78691300Y-123377400D01*
X84717700Y-121272300D02*
X80796400Y-121272300D01*
X85854500Y-120135500D02*
X84717700Y-121272300D01*
X110624900Y-120135500D02*
X85854500Y-120135500D01*
X111036200Y-120546800D02*
X110624900Y-120135500D01*
X98719200Y-118089600D02*
X110958600Y-118089600D01*
X98431400Y-118377400D02*
X98719200Y-118089600D01*
X70258100Y-118377400D02*
X98431400Y-118377400D01*
X70005400Y-118124700D02*
X70258100Y-118377400D01*
X62178000Y-118124700D02*
X70005400Y-118124700D01*
X120610400Y-120444500D02*
X116152500Y-124902400D01*
X127807700Y-120444500D02*
X120610400Y-120444500D01*
X135544500Y-128181300D02*
X127807700Y-120444500D01*
X135544500Y-129523600D02*
X135544500Y-128181300D01*
X136749700Y-130728800D02*
X135544500Y-129523600D01*
X140655100Y-130728800D02*
X136749700Y-130728800D01*
X141986200Y-129397700D02*
X140655100Y-130728800D01*
X143194800Y-86762000D02*
X142993300Y-86560500D01*
X143194800Y-92152500D02*
X143194800Y-86762000D01*
X137656500Y-97690800D02*
X143194800Y-92152500D01*
X136728700Y-97690800D02*
X137656500Y-97690800D01*
X134128800Y-95090900D02*
X136728700Y-97690800D01*
X134128800Y-91864100D02*
X134128800Y-95090900D01*
X132531200Y-90266500D02*
X134128800Y-91864100D01*
X130490300Y-90266500D02*
X132531200Y-90266500D01*
X130224400Y-90532400D02*
X130490300Y-90266500D01*
X129290200Y-90532400D02*
X130224400Y-90532400D01*
X123847800Y-85090000D02*
X129290200Y-90532400D01*
X115282600Y-85090000D02*
X123847800Y-85090000D01*
X113779600Y-83587000D02*
X115282600Y-85090000D01*
X113142700Y-83587000D02*
X113779600Y-83587000D01*
X112250400Y-82694700D02*
X113142700Y-83587000D01*
X78679200Y-82694700D02*
X112250400Y-82694700D01*
X78679200Y-82694800D02*
X78679200Y-82694700D01*
X77318100Y-84055900D02*
X78679200Y-82694800D01*
X76800000Y-84055900D02*
X77318100Y-84055900D01*
X75438700Y-82694600D02*
X76800000Y-84055900D01*
X58571000Y-82694600D02*
X75438700Y-82694600D01*
X58142000Y-83123600D02*
X58571000Y-82694600D01*
X129757300Y-89626400D02*
X129757300Y-89870800D01*
X131898300Y-87485400D02*
X129757300Y-89626400D01*
X132594100Y-87485400D02*
X131898300Y-87485400D01*
X136034700Y-84044800D02*
X132594100Y-87485400D01*
X136034700Y-83249200D02*
X136034700Y-84044800D01*
X136878600Y-82405300D02*
X136034700Y-83249200D01*
X137160000Y-82405300D02*
X136878600Y-82405300D01*
X137160000Y-81280000D02*
X137160000Y-82405300D01*
X65281600Y-120471900D02*
X61460000Y-124293500D01*
X69579300Y-120471900D02*
X65281600Y-120471900D01*
X70005700Y-120898300D02*
X69579300Y-120471900D01*
X70005700Y-122291700D02*
X70005700Y-120898300D01*
X70612800Y-122898800D02*
X70005700Y-122291700D01*
X71601400Y-122898800D02*
X70612800Y-122898800D01*
X73678200Y-120822000D02*
X71601400Y-122898800D01*
X84041000Y-120822000D02*
X73678200Y-120822000D01*
X85368200Y-119494800D02*
X84041000Y-120822000D01*
X112325600Y-119494800D02*
X85368200Y-119494800D01*
X115432700Y-116387700D02*
X112325600Y-119494800D01*
X115700800Y-116387700D02*
X115432700Y-116387700D01*
X116663100Y-115425400D02*
X115700800Y-116387700D01*
X117710100Y-115425400D02*
X116663100Y-115425400D01*
X129757300Y-103378200D02*
X117710100Y-115425400D01*
X129757300Y-102599600D02*
X129757300Y-103378200D01*
X75345600Y-183150900D02*
X68928300Y-183150900D01*
X77614700Y-185420000D02*
X75345600Y-183150900D01*
X78740000Y-185420000D02*
X77614700Y-185420000D01*
X55857300Y-195580000D02*
X54679100Y-194401800D01*
X60960000Y-195580000D02*
X55857300Y-195580000D01*
X63745300Y-160020000D02*
X62772500Y-159047200D01*
X66040000Y-160020000D02*
X63745300Y-160020000D01*
X73660000Y-170180000D02*
X72534700Y-170180000D01*
X68724700Y-166370000D02*
X72534700Y-170180000D01*
X64826700Y-166370000D02*
X68724700Y-166370000D01*
X60954800Y-162498100D02*
X64826700Y-166370000D01*
X57746700Y-162498100D02*
X60954800Y-162498100D01*
X52436900Y-157188300D02*
X57746700Y-162498100D01*
X51367700Y-157188300D02*
X52436900Y-157188300D01*
X50955400Y-156776000D02*
X51367700Y-157188300D01*
X50955400Y-155868800D02*
X50955400Y-156776000D01*
X48959900Y-153873300D02*
X50955400Y-155868800D01*
X48852500Y-153873300D02*
X48959900Y-153873300D01*
X48674600Y-153695400D02*
X48852500Y-153873300D01*
X48059800Y-153695400D02*
X48674600Y-153695400D01*
X44503200Y-150138800D02*
X48059800Y-153695400D01*
X74785300Y-162334900D02*
X74785300Y-162560000D01*
X78370200Y-158750000D02*
X74785300Y-162334900D01*
X79077500Y-158750000D02*
X78370200Y-158750000D01*
X86314100Y-151513400D02*
X79077500Y-158750000D01*
X86314100Y-148979300D02*
X86314100Y-151513400D01*
X86956400Y-148337000D02*
X86314100Y-148979300D01*
X90251900Y-148337000D02*
X86956400Y-148337000D01*
X97934600Y-140654300D02*
X90251900Y-148337000D01*
X97934600Y-139186000D02*
X97934600Y-140654300D01*
X98690600Y-138430000D02*
X97934600Y-139186000D01*
X99446700Y-138430000D02*
X98690600Y-138430000D01*
X100558300Y-137318400D02*
X99446700Y-138430000D01*
X100558300Y-136604200D02*
X100558300Y-137318400D01*
X103812500Y-133350000D02*
X100558300Y-136604200D01*
X104487000Y-133350000D02*
X103812500Y-133350000D01*
X105771300Y-132065700D02*
X104487000Y-133350000D01*
X105771300Y-130481300D02*
X105771300Y-132065700D01*
X132080000Y-104172600D02*
X105771300Y-130481300D01*
X132080000Y-104140000D02*
X132080000Y-104172600D01*
X73660000Y-162560000D02*
X74785300Y-162560000D01*
X53340000Y-187960000D02*
X53340000Y-186834700D01*
X71107900Y-173941600D02*
X76093800Y-173941600D01*
X71107900Y-173941700D02*
X71107900Y-173941600D01*
X59985400Y-173941700D02*
X71107900Y-173941700D01*
X52214700Y-181712400D02*
X59985400Y-173941700D01*
X52214700Y-185990800D02*
X52214700Y-181712400D01*
X53058600Y-186834700D02*
X52214700Y-185990800D01*
X53340000Y-186834700D02*
X53058600Y-186834700D01*
X53340000Y-190500000D02*
X53340000Y-189374700D01*
X104031800Y-158792000D02*
X106680000Y-156143800D01*
X96808700Y-158792000D02*
X104031800Y-158792000D01*
X91915300Y-163685400D02*
X96808700Y-158792000D01*
X91214800Y-163685400D02*
X91915300Y-163685400D01*
X88674800Y-166225400D02*
X91214800Y-163685400D01*
X86136300Y-166225400D02*
X88674800Y-166225400D01*
X83406100Y-168955600D02*
X86136300Y-166225400D01*
X83406100Y-171124700D02*
X83406100Y-168955600D01*
X82941600Y-171589200D02*
X83406100Y-171124700D01*
X78252800Y-171589200D02*
X82941600Y-171589200D01*
X77605500Y-172236500D02*
X78252800Y-171589200D01*
X77605500Y-173314300D02*
X77605500Y-172236500D01*
X72952500Y-177967300D02*
X77605500Y-173314300D01*
X66121800Y-177967300D02*
X72952500Y-177967300D01*
X58006000Y-186083100D02*
X66121800Y-177967300D01*
X57780400Y-186083100D02*
X58006000Y-186083100D01*
X54488800Y-189374700D02*
X57780400Y-186083100D01*
X53340000Y-189374700D02*
X54488800Y-189374700D01*
X49113000Y-62230000D02*
X56940300Y-70057300D01*
X46414800Y-62230000D02*
X49113000Y-62230000D01*
X45455500Y-61270700D02*
X46414800Y-62230000D01*
X60960000Y-193040000D02*
X62085300Y-193040000D01*
X63210600Y-191914700D02*
X62085300Y-193040000D01*
X75685500Y-191914700D02*
X63210600Y-191914700D01*
X78370200Y-189230000D02*
X75685500Y-191914700D01*
X79073300Y-189230000D02*
X78370200Y-189230000D01*
X79982500Y-188320800D02*
X79073300Y-189230000D01*
X79982500Y-187078500D02*
X79982500Y-188320800D01*
X90385200Y-176675800D02*
X79982500Y-187078500D01*
X103735500Y-176675800D02*
X90385200Y-176675800D01*
X109716500Y-170694800D02*
X103735500Y-176675800D01*
X109716500Y-167764500D02*
X109716500Y-170694800D01*
X124967900Y-152513100D02*
X109716500Y-167764500D01*
X60960000Y-187960000D02*
X66040000Y-187960000D01*
X68290600Y-189085300D02*
X67165300Y-187960000D01*
X76489400Y-189085300D02*
X68290600Y-189085300D01*
X77614700Y-187960000D02*
X76489400Y-189085300D01*
X78740000Y-187960000D02*
X77614700Y-187960000D01*
X66040000Y-187960000D02*
X67165300Y-187960000D01*
X94850700Y-57202100D02*
X92278600Y-59774200D01*
X108818100Y-57202100D02*
X94850700Y-57202100D01*
X110036000Y-58420000D02*
X108818100Y-57202100D01*
X111760000Y-58420000D02*
X110036000Y-58420000D01*
X99060000Y-167640000D02*
X97934700Y-167640000D01*
X97934700Y-168207700D02*
X97934700Y-167640000D01*
X79597000Y-186545400D02*
X97934700Y-168207700D01*
X71850200Y-186545400D02*
X79597000Y-186545400D01*
X69948900Y-188446700D02*
X71850200Y-186545400D01*
X73000300Y-202270600D02*
X70611200Y-199881500D01*
X79816900Y-202270600D02*
X73000300Y-202270600D01*
X82657200Y-199430300D02*
X79816900Y-202270600D01*
X93255100Y-199430300D02*
X82657200Y-199430300D01*
X93626200Y-199059200D02*
X93255100Y-199430300D01*
X96213600Y-199059200D02*
X93626200Y-199059200D01*
X98108900Y-197163900D02*
X96213600Y-199059200D01*
X73660000Y-134620000D02*
X72534700Y-134620000D01*
X70509900Y-136550300D02*
X69148400Y-135188800D01*
X71729700Y-136550300D02*
X70509900Y-136550300D01*
X72534700Y-135745300D02*
X71729700Y-136550300D01*
X72534700Y-134620000D02*
X72534700Y-135745300D01*
X96273100Y-166472200D02*
X92565300Y-170180000D01*
X99493700Y-166472200D02*
X96273100Y-166472200D01*
X100209300Y-167187800D02*
X99493700Y-166472200D01*
X100209300Y-170726700D02*
X100209300Y-167187800D01*
X99341300Y-171594700D02*
X100209300Y-170726700D01*
X99060000Y-171594700D02*
X99341300Y-171594700D01*
X99060000Y-172720000D02*
X99060000Y-171594700D01*
X91440000Y-170180000D02*
X92565300Y-170180000D01*
X73221900Y-158637900D02*
X65041300Y-150457300D01*
X74982900Y-158637900D02*
X73221900Y-158637900D01*
X75904400Y-159559400D02*
X74982900Y-158637900D01*
X48260000Y-200660000D02*
X49385300Y-200660000D01*
X83390800Y-197112400D02*
X83702300Y-197112400D01*
X81257600Y-199245600D02*
X83390800Y-197112400D01*
X76768000Y-199245600D02*
X81257600Y-199245600D01*
X76607300Y-156210000D02*
X75465700Y-157351600D01*
X79082900Y-156210000D02*
X76607300Y-156210000D01*
X84836000Y-150456900D02*
X79082900Y-156210000D01*
X84836000Y-149765500D02*
X84836000Y-150456900D01*
X91185000Y-143416500D02*
X84836000Y-149765500D01*
X91904300Y-143416500D02*
X91185000Y-143416500D01*
X93035100Y-142285700D02*
X91904300Y-143416500D01*
X93035100Y-141092600D02*
X93035100Y-142285700D01*
X91642500Y-139700000D02*
X93035100Y-141092600D01*
X91440000Y-139700000D02*
X91642500Y-139700000D01*
X49385300Y-200178700D02*
X49385300Y-200660000D01*
X50318400Y-199245600D02*
X49385300Y-200178700D01*
X63262500Y-199245600D02*
X50318400Y-199245600D01*
X63374700Y-199133400D02*
X63262500Y-199245600D01*
X64249200Y-199133400D02*
X63374700Y-199133400D01*
X64361400Y-199245600D02*
X64249200Y-199133400D01*
X76768000Y-199245600D02*
X64361400Y-199245600D01*
X82686800Y-198453300D02*
X83045800Y-198453300D01*
X79319900Y-201820200D02*
X82686800Y-198453300D01*
X73186800Y-201820200D02*
X79319900Y-201820200D01*
X71608400Y-200241800D02*
X73186800Y-201820200D01*
X71608400Y-199952000D02*
X71608400Y-200241800D01*
X107905300Y-138528300D02*
X110758600Y-141381600D01*
X103663300Y-138528300D02*
X107905300Y-138528300D01*
X102975200Y-139216400D02*
X103663300Y-138528300D01*
X102975200Y-141075200D02*
X102975200Y-139216400D01*
X104140000Y-142240000D02*
X102975200Y-141075200D01*
X86360000Y-167640000D02*
X86360000Y-168765300D01*
X86145600Y-168765300D02*
X86360000Y-168765300D01*
X83856400Y-171054500D02*
X86145600Y-168765300D01*
X83856400Y-171311300D02*
X83856400Y-171054500D01*
X81190200Y-173977500D02*
X83856400Y-171311300D01*
X78878900Y-173977500D02*
X81190200Y-173977500D01*
X71176300Y-181680100D02*
X78878900Y-173977500D01*
X63092700Y-181680100D02*
X71176300Y-181680100D01*
X55983600Y-188789200D02*
X63092700Y-181680100D01*
X40640000Y-187960000D02*
X41765300Y-187960000D01*
X41765300Y-188638800D02*
X41765300Y-187960000D01*
X47581100Y-194454600D02*
X41765300Y-188638800D01*
X53847600Y-194454600D02*
X47581100Y-194454600D01*
X56108300Y-196715300D02*
X53847600Y-194454600D01*
X82903600Y-196715300D02*
X56108300Y-196715300D01*
X83158900Y-196460000D02*
X82903600Y-196715300D01*
X83997300Y-196460000D02*
X83158900Y-196460000D01*
X84252600Y-196715300D02*
X83997300Y-196460000D01*
X95635000Y-196715300D02*
X84252600Y-196715300D01*
X95846600Y-196503700D02*
X95635000Y-196715300D01*
X98392100Y-196503700D02*
X95846600Y-196503700D01*
X98652200Y-196763800D02*
X98392100Y-196503700D01*
X114923300Y-196763800D02*
X98652200Y-196763800D01*
X116858800Y-194828300D02*
X114923300Y-196763800D01*
X119172600Y-137160000D02*
X116840000Y-137160000D01*
X120905900Y-138893300D02*
X119172600Y-137160000D01*
X129156800Y-138893300D02*
X120905900Y-138893300D01*
X129764700Y-138285400D02*
X129156800Y-138893300D01*
X132551600Y-138285400D02*
X129764700Y-138285400D01*
X133236300Y-137600700D02*
X132551600Y-138285400D01*
X133236300Y-129000300D02*
X133236300Y-137600700D01*
X132361300Y-128125300D02*
X133236300Y-129000300D01*
X132080000Y-128125300D02*
X132361300Y-128125300D01*
X132080000Y-127000000D02*
X132080000Y-128125300D01*
X119557100Y-173668200D02*
X117965300Y-175260000D01*
X121435200Y-173668200D02*
X119557100Y-173668200D01*
X121617900Y-173850900D02*
X121435200Y-173668200D01*
X132540700Y-173850900D02*
X121617900Y-173850900D01*
X133213800Y-173177800D02*
X132540700Y-173850900D01*
X133213800Y-167077800D02*
X133213800Y-173177800D01*
X132361300Y-166225300D02*
X133213800Y-167077800D01*
X132080000Y-166225300D02*
X132361300Y-166225300D01*
X132080000Y-165100000D02*
X132080000Y-166225300D01*
X116840000Y-175260000D02*
X117965300Y-175260000D01*
X137441400Y-54465300D02*
X137160000Y-54465300D01*
X138285300Y-55309200D02*
X137441400Y-54465300D01*
X138285300Y-64178900D02*
X138285300Y-55309200D01*
X138735700Y-64629300D02*
X138285300Y-64178900D01*
X138735700Y-71240300D02*
X138735700Y-64629300D01*
X137441300Y-72534700D02*
X138735700Y-71240300D01*
X137160000Y-72534700D02*
X137441300Y-72534700D01*
X137160000Y-73660000D02*
X137160000Y-72534700D01*
X137160000Y-53340000D02*
X137160000Y-54465300D01*
M02*
