G04 #@! TF.GenerationSoftware,KiCad,Pcbnew,(5.1.4)-1*
G04 #@! TF.CreationDate,2020-10-24T17:15:51+02:00*
G04 #@! TF.ProjectId,ts2,7473322e-6b69-4636-9164-5f7063625858,2.1*
G04 #@! TF.SameCoordinates,Original*
G04 #@! TF.FileFunction,Legend,Top*
G04 #@! TF.FilePolarity,Positive*
%FSLAX46Y46*%
G04 Gerber Fmt 4.6, Leading zero omitted, Abs format (unit mm)*
G04 Created by KiCad (PCBNEW (5.1.4)-1) date 2020-10-24 17:15:51*
%MOMM*%
%LPD*%
G04 APERTURE LIST*
%ADD10C,0.300000*%
%ADD11C,0.150000*%
G04 APERTURE END LIST*
D10*
X118435714Y-18030000D02*
X119150000Y-18030000D01*
X118292857Y-18458571D02*
X118792857Y-16958571D01*
X119292857Y-18458571D01*
X119792857Y-16958571D02*
X119792857Y-18172857D01*
X119864285Y-18315714D01*
X119935714Y-18387142D01*
X120078571Y-18458571D01*
X120364285Y-18458571D01*
X120507142Y-18387142D01*
X120578571Y-18315714D01*
X120650000Y-18172857D01*
X120650000Y-16958571D01*
X121221428Y-16958571D02*
X122221428Y-18458571D01*
X122221428Y-16958571D02*
X121221428Y-18458571D01*
X122792857Y-18315714D02*
X122864285Y-18387142D01*
X122792857Y-18458571D01*
X122721428Y-18387142D01*
X122792857Y-18315714D01*
X122792857Y-18458571D01*
X88817142Y-18315714D02*
X88745714Y-18387142D01*
X88531428Y-18458571D01*
X88388571Y-18458571D01*
X88174285Y-18387142D01*
X88031428Y-18244285D01*
X87960000Y-18101428D01*
X87888571Y-17815714D01*
X87888571Y-17601428D01*
X87960000Y-17315714D01*
X88031428Y-17172857D01*
X88174285Y-17030000D01*
X88388571Y-16958571D01*
X88531428Y-16958571D01*
X88745714Y-17030000D01*
X88817142Y-17101428D01*
X89745714Y-16958571D02*
X90031428Y-16958571D01*
X90174285Y-17030000D01*
X90317142Y-17172857D01*
X90388571Y-17458571D01*
X90388571Y-17958571D01*
X90317142Y-18244285D01*
X90174285Y-18387142D01*
X90031428Y-18458571D01*
X89745714Y-18458571D01*
X89602857Y-18387142D01*
X89460000Y-18244285D01*
X89388571Y-17958571D01*
X89388571Y-17458571D01*
X89460000Y-17172857D01*
X89602857Y-17030000D01*
X89745714Y-16958571D01*
X91031428Y-18458571D02*
X91031428Y-16958571D01*
X91888571Y-18458571D01*
X91888571Y-16958571D01*
X92531428Y-18387142D02*
X92745714Y-18458571D01*
X93102857Y-18458571D01*
X93245714Y-18387142D01*
X93317142Y-18315714D01*
X93388571Y-18172857D01*
X93388571Y-18030000D01*
X93317142Y-17887142D01*
X93245714Y-17815714D01*
X93102857Y-17744285D01*
X92817142Y-17672857D01*
X92674285Y-17601428D01*
X92602857Y-17530000D01*
X92531428Y-17387142D01*
X92531428Y-17244285D01*
X92602857Y-17101428D01*
X92674285Y-17030000D01*
X92817142Y-16958571D01*
X93174285Y-16958571D01*
X93388571Y-17030000D01*
X94317142Y-16958571D02*
X94602857Y-16958571D01*
X94745714Y-17030000D01*
X94888571Y-17172857D01*
X94960000Y-17458571D01*
X94960000Y-17958571D01*
X94888571Y-18244285D01*
X94745714Y-18387142D01*
X94602857Y-18458571D01*
X94317142Y-18458571D01*
X94174285Y-18387142D01*
X94031428Y-18244285D01*
X93960000Y-17958571D01*
X93960000Y-17458571D01*
X94031428Y-17172857D01*
X94174285Y-17030000D01*
X94317142Y-16958571D01*
X96317142Y-18458571D02*
X95602857Y-18458571D01*
X95602857Y-16958571D01*
X96817142Y-17672857D02*
X97317142Y-17672857D01*
X97531428Y-18458571D02*
X96817142Y-18458571D01*
X96817142Y-16958571D01*
X97531428Y-16958571D01*
X76545714Y-220388571D02*
X76545714Y-218888571D01*
X77117142Y-218888571D01*
X77260000Y-218960000D01*
X77331428Y-219031428D01*
X77402857Y-219174285D01*
X77402857Y-219388571D01*
X77331428Y-219531428D01*
X77260000Y-219602857D01*
X77117142Y-219674285D01*
X76545714Y-219674285D01*
X78331428Y-218888571D02*
X78617142Y-218888571D01*
X78760000Y-218960000D01*
X78902857Y-219102857D01*
X78974285Y-219388571D01*
X78974285Y-219888571D01*
X78902857Y-220174285D01*
X78760000Y-220317142D01*
X78617142Y-220388571D01*
X78331428Y-220388571D01*
X78188571Y-220317142D01*
X78045714Y-220174285D01*
X77974285Y-219888571D01*
X77974285Y-219388571D01*
X78045714Y-219102857D01*
X78188571Y-218960000D01*
X78331428Y-218888571D01*
X79474285Y-218888571D02*
X79831428Y-220388571D01*
X80117142Y-219317142D01*
X80402857Y-220388571D01*
X80760000Y-218888571D01*
X81331428Y-219602857D02*
X81831428Y-219602857D01*
X82045714Y-220388571D02*
X81331428Y-220388571D01*
X81331428Y-218888571D01*
X82045714Y-218888571D01*
X83545714Y-220388571D02*
X83045714Y-219674285D01*
X82688571Y-220388571D02*
X82688571Y-218888571D01*
X83260000Y-218888571D01*
X83402857Y-218960000D01*
X83474285Y-219031428D01*
X83545714Y-219174285D01*
X83545714Y-219388571D01*
X83474285Y-219531428D01*
X83402857Y-219602857D01*
X83260000Y-219674285D01*
X82688571Y-219674285D01*
X86705714Y-220388571D02*
X86705714Y-218888571D01*
X87277142Y-218888571D01*
X87420000Y-218960000D01*
X87491428Y-219031428D01*
X87562857Y-219174285D01*
X87562857Y-219388571D01*
X87491428Y-219531428D01*
X87420000Y-219602857D01*
X87277142Y-219674285D01*
X86705714Y-219674285D01*
X88491428Y-218888571D02*
X88777142Y-218888571D01*
X88920000Y-218960000D01*
X89062857Y-219102857D01*
X89134285Y-219388571D01*
X89134285Y-219888571D01*
X89062857Y-220174285D01*
X88920000Y-220317142D01*
X88777142Y-220388571D01*
X88491428Y-220388571D01*
X88348571Y-220317142D01*
X88205714Y-220174285D01*
X88134285Y-219888571D01*
X88134285Y-219388571D01*
X88205714Y-219102857D01*
X88348571Y-218960000D01*
X88491428Y-218888571D01*
X89634285Y-218888571D02*
X89991428Y-220388571D01*
X90277142Y-219317142D01*
X90562857Y-220388571D01*
X90920000Y-218888571D01*
X91491428Y-219602857D02*
X91991428Y-219602857D01*
X92205714Y-220388571D02*
X91491428Y-220388571D01*
X91491428Y-218888571D01*
X92205714Y-218888571D01*
X93705714Y-220388571D02*
X93205714Y-219674285D01*
X92848571Y-220388571D02*
X92848571Y-218888571D01*
X93420000Y-218888571D01*
X93562857Y-218960000D01*
X93634285Y-219031428D01*
X93705714Y-219174285D01*
X93705714Y-219388571D01*
X93634285Y-219531428D01*
X93562857Y-219602857D01*
X93420000Y-219674285D01*
X92848571Y-219674285D01*
X97115714Y-219960000D02*
X97830000Y-219960000D01*
X96972857Y-220388571D02*
X97472857Y-218888571D01*
X97972857Y-220388571D01*
X98972857Y-219602857D02*
X99187142Y-219674285D01*
X99258571Y-219745714D01*
X99330000Y-219888571D01*
X99330000Y-220102857D01*
X99258571Y-220245714D01*
X99187142Y-220317142D01*
X99044285Y-220388571D01*
X98472857Y-220388571D01*
X98472857Y-218888571D01*
X98972857Y-218888571D01*
X99115714Y-218960000D01*
X99187142Y-219031428D01*
X99258571Y-219174285D01*
X99258571Y-219317142D01*
X99187142Y-219460000D01*
X99115714Y-219531428D01*
X98972857Y-219602857D01*
X98472857Y-219602857D01*
X100258571Y-218888571D02*
X100544285Y-218888571D01*
X100687142Y-218960000D01*
X100830000Y-219102857D01*
X100901428Y-219388571D01*
X100901428Y-219888571D01*
X100830000Y-220174285D01*
X100687142Y-220317142D01*
X100544285Y-220388571D01*
X100258571Y-220388571D01*
X100115714Y-220317142D01*
X99972857Y-220174285D01*
X99901428Y-219888571D01*
X99901428Y-219388571D01*
X99972857Y-219102857D01*
X100115714Y-218960000D01*
X100258571Y-218888571D01*
X102401428Y-220388571D02*
X101901428Y-219674285D01*
X101544285Y-220388571D02*
X101544285Y-218888571D01*
X102115714Y-218888571D01*
X102258571Y-218960000D01*
X102330000Y-219031428D01*
X102401428Y-219174285D01*
X102401428Y-219388571D01*
X102330000Y-219531428D01*
X102258571Y-219602857D01*
X102115714Y-219674285D01*
X101544285Y-219674285D01*
X102830000Y-218888571D02*
X103687142Y-218888571D01*
X103258571Y-220388571D02*
X103258571Y-218888571D01*
X67600000Y-220388571D02*
X67600000Y-218888571D01*
X67600000Y-219602857D02*
X68457142Y-219602857D01*
X68457142Y-220388571D02*
X68457142Y-218888571D01*
X69100000Y-219960000D02*
X69814285Y-219960000D01*
X68957142Y-220388571D02*
X69457142Y-218888571D01*
X69957142Y-220388571D01*
X71171428Y-220388571D02*
X70457142Y-220388571D01*
X70457142Y-218888571D01*
X71457142Y-218888571D02*
X72314285Y-218888571D01*
X71885714Y-220388571D02*
X71885714Y-218888571D01*
X57511428Y-220388571D02*
X57011428Y-219674285D01*
X56654285Y-220388571D02*
X56654285Y-218888571D01*
X57225714Y-218888571D01*
X57368571Y-218960000D01*
X57440000Y-219031428D01*
X57511428Y-219174285D01*
X57511428Y-219388571D01*
X57440000Y-219531428D01*
X57368571Y-219602857D01*
X57225714Y-219674285D01*
X56654285Y-219674285D01*
X58154285Y-219602857D02*
X58654285Y-219602857D01*
X58868571Y-220388571D02*
X58154285Y-220388571D01*
X58154285Y-218888571D01*
X58868571Y-218888571D01*
X59440000Y-220317142D02*
X59654285Y-220388571D01*
X60011428Y-220388571D01*
X60154285Y-220317142D01*
X60225714Y-220245714D01*
X60297142Y-220102857D01*
X60297142Y-219960000D01*
X60225714Y-219817142D01*
X60154285Y-219745714D01*
X60011428Y-219674285D01*
X59725714Y-219602857D01*
X59582857Y-219531428D01*
X59511428Y-219460000D01*
X59440000Y-219317142D01*
X59440000Y-219174285D01*
X59511428Y-219031428D01*
X59582857Y-218960000D01*
X59725714Y-218888571D01*
X60082857Y-218888571D01*
X60297142Y-218960000D01*
X60940000Y-219602857D02*
X61440000Y-219602857D01*
X61654285Y-220388571D02*
X60940000Y-220388571D01*
X60940000Y-218888571D01*
X61654285Y-218888571D01*
X62082857Y-218888571D02*
X62940000Y-218888571D01*
X62511428Y-220388571D02*
X62511428Y-218888571D01*
X43994285Y-220317142D02*
X44208571Y-220388571D01*
X44565714Y-220388571D01*
X44708571Y-220317142D01*
X44780000Y-220245714D01*
X44851428Y-220102857D01*
X44851428Y-219960000D01*
X44780000Y-219817142D01*
X44708571Y-219745714D01*
X44565714Y-219674285D01*
X44280000Y-219602857D01*
X44137142Y-219531428D01*
X44065714Y-219460000D01*
X43994285Y-219317142D01*
X43994285Y-219174285D01*
X44065714Y-219031428D01*
X44137142Y-218960000D01*
X44280000Y-218888571D01*
X44637142Y-218888571D01*
X44851428Y-218960000D01*
X45280000Y-218888571D02*
X46137142Y-218888571D01*
X45708571Y-220388571D02*
X45708571Y-218888571D01*
X46637142Y-219602857D02*
X47137142Y-219602857D01*
X47351428Y-220388571D02*
X46637142Y-220388571D01*
X46637142Y-218888571D01*
X47351428Y-218888571D01*
X47994285Y-220388571D02*
X47994285Y-218888571D01*
X48565714Y-218888571D01*
X48708571Y-218960000D01*
X48780000Y-219031428D01*
X48851428Y-219174285D01*
X48851428Y-219388571D01*
X48780000Y-219531428D01*
X48708571Y-219602857D01*
X48565714Y-219674285D01*
X47994285Y-219674285D01*
X50565714Y-218817142D02*
X49280000Y-220745714D01*
X51922857Y-220388571D02*
X51422857Y-219674285D01*
X51065714Y-220388571D02*
X51065714Y-218888571D01*
X51637142Y-218888571D01*
X51780000Y-218960000D01*
X51851428Y-219031428D01*
X51922857Y-219174285D01*
X51922857Y-219388571D01*
X51851428Y-219531428D01*
X51780000Y-219602857D01*
X51637142Y-219674285D01*
X51065714Y-219674285D01*
X52565714Y-218888571D02*
X52565714Y-220102857D01*
X52637142Y-220245714D01*
X52708571Y-220317142D01*
X52851428Y-220388571D01*
X53137142Y-220388571D01*
X53280000Y-220317142D01*
X53351428Y-220245714D01*
X53422857Y-220102857D01*
X53422857Y-218888571D01*
X54137142Y-220388571D02*
X54137142Y-218888571D01*
X54994285Y-220388571D01*
X54994285Y-218888571D01*
X36941428Y-220317142D02*
X37155714Y-220388571D01*
X37512857Y-220388571D01*
X37655714Y-220317142D01*
X37727142Y-220245714D01*
X37798571Y-220102857D01*
X37798571Y-219960000D01*
X37727142Y-219817142D01*
X37655714Y-219745714D01*
X37512857Y-219674285D01*
X37227142Y-219602857D01*
X37084285Y-219531428D01*
X37012857Y-219460000D01*
X36941428Y-219317142D01*
X36941428Y-219174285D01*
X37012857Y-219031428D01*
X37084285Y-218960000D01*
X37227142Y-218888571D01*
X37584285Y-218888571D01*
X37798571Y-218960000D01*
X38227142Y-218888571D02*
X39084285Y-218888571D01*
X38655714Y-220388571D02*
X38655714Y-218888571D01*
X39584285Y-219602857D02*
X40084285Y-219602857D01*
X40298571Y-220388571D02*
X39584285Y-220388571D01*
X39584285Y-218888571D01*
X40298571Y-218888571D01*
X40941428Y-220388571D02*
X40941428Y-218888571D01*
X41512857Y-218888571D01*
X41655714Y-218960000D01*
X41727142Y-219031428D01*
X41798571Y-219174285D01*
X41798571Y-219388571D01*
X41727142Y-219531428D01*
X41655714Y-219602857D01*
X41512857Y-219674285D01*
X40941428Y-219674285D01*
X67120000Y-17030000D02*
X66977142Y-16958571D01*
X66762857Y-16958571D01*
X66548571Y-17030000D01*
X66405714Y-17172857D01*
X66334285Y-17315714D01*
X66262857Y-17601428D01*
X66262857Y-17815714D01*
X66334285Y-18101428D01*
X66405714Y-18244285D01*
X66548571Y-18387142D01*
X66762857Y-18458571D01*
X66905714Y-18458571D01*
X67120000Y-18387142D01*
X67191428Y-18315714D01*
X67191428Y-17815714D01*
X66905714Y-17815714D01*
X67834285Y-18458571D02*
X67834285Y-16958571D01*
X68691428Y-18458571D01*
X68691428Y-16958571D01*
X69405714Y-18458571D02*
X69405714Y-16958571D01*
X69762857Y-16958571D01*
X69977142Y-17030000D01*
X70120000Y-17172857D01*
X70191428Y-17315714D01*
X70262857Y-17601428D01*
X70262857Y-17815714D01*
X70191428Y-18101428D01*
X70120000Y-18244285D01*
X69977142Y-18387142D01*
X69762857Y-18458571D01*
X69405714Y-18458571D01*
X72048571Y-17887142D02*
X73191428Y-17887142D01*
X72620000Y-18458571D02*
X72620000Y-17315714D01*
X74620000Y-16958571D02*
X73905714Y-16958571D01*
X73834285Y-17672857D01*
X73905714Y-17601428D01*
X74048571Y-17530000D01*
X74405714Y-17530000D01*
X74548571Y-17601428D01*
X74620000Y-17672857D01*
X74691428Y-17815714D01*
X74691428Y-18172857D01*
X74620000Y-18315714D01*
X74548571Y-18387142D01*
X74405714Y-18458571D01*
X74048571Y-18458571D01*
X73905714Y-18387142D01*
X73834285Y-18315714D01*
X75120000Y-16958571D02*
X75620000Y-18458571D01*
X76120000Y-16958571D01*
X105428571Y-208718571D02*
X106285714Y-208718571D01*
X105857142Y-210218571D02*
X105857142Y-208718571D01*
X106714285Y-210147142D02*
X106928571Y-210218571D01*
X107285714Y-210218571D01*
X107428571Y-210147142D01*
X107500000Y-210075714D01*
X107571428Y-209932857D01*
X107571428Y-209790000D01*
X107500000Y-209647142D01*
X107428571Y-209575714D01*
X107285714Y-209504285D01*
X107000000Y-209432857D01*
X106857142Y-209361428D01*
X106785714Y-209290000D01*
X106714285Y-209147142D01*
X106714285Y-209004285D01*
X106785714Y-208861428D01*
X106857142Y-208790000D01*
X107000000Y-208718571D01*
X107357142Y-208718571D01*
X107571428Y-208790000D01*
X108142857Y-208861428D02*
X108214285Y-208790000D01*
X108357142Y-208718571D01*
X108714285Y-208718571D01*
X108857142Y-208790000D01*
X108928571Y-208861428D01*
X109000000Y-209004285D01*
X109000000Y-209147142D01*
X108928571Y-209361428D01*
X108071428Y-210218571D01*
X109000000Y-210218571D01*
X110714285Y-210147142D02*
X110928571Y-210218571D01*
X111285714Y-210218571D01*
X111428571Y-210147142D01*
X111500000Y-210075714D01*
X111571428Y-209932857D01*
X111571428Y-209790000D01*
X111500000Y-209647142D01*
X111428571Y-209575714D01*
X111285714Y-209504285D01*
X111000000Y-209432857D01*
X110857142Y-209361428D01*
X110785714Y-209290000D01*
X110714285Y-209147142D01*
X110714285Y-209004285D01*
X110785714Y-208861428D01*
X110857142Y-208790000D01*
X111000000Y-208718571D01*
X111357142Y-208718571D01*
X111571428Y-208790000D01*
X112214285Y-210218571D02*
X112214285Y-209218571D01*
X112214285Y-208718571D02*
X112142857Y-208790000D01*
X112214285Y-208861428D01*
X112285714Y-208790000D01*
X112214285Y-208718571D01*
X112214285Y-208861428D01*
X112928571Y-209218571D02*
X112928571Y-210218571D01*
X112928571Y-209361428D02*
X113000000Y-209290000D01*
X113142857Y-209218571D01*
X113357142Y-209218571D01*
X113500000Y-209290000D01*
X113571428Y-209432857D01*
X113571428Y-210218571D01*
X114928571Y-209218571D02*
X114928571Y-210432857D01*
X114857142Y-210575714D01*
X114785714Y-210647142D01*
X114642857Y-210718571D01*
X114428571Y-210718571D01*
X114285714Y-210647142D01*
X114928571Y-210147142D02*
X114785714Y-210218571D01*
X114500000Y-210218571D01*
X114357142Y-210147142D01*
X114285714Y-210075714D01*
X114214285Y-209932857D01*
X114214285Y-209504285D01*
X114285714Y-209361428D01*
X114357142Y-209290000D01*
X114500000Y-209218571D01*
X114785714Y-209218571D01*
X114928571Y-209290000D01*
X115857142Y-210218571D02*
X115714285Y-210147142D01*
X115642857Y-210004285D01*
X115642857Y-208718571D01*
X117000000Y-210147142D02*
X116857142Y-210218571D01*
X116571428Y-210218571D01*
X116428571Y-210147142D01*
X116357142Y-210004285D01*
X116357142Y-209432857D01*
X116428571Y-209290000D01*
X116571428Y-209218571D01*
X116857142Y-209218571D01*
X117000000Y-209290000D01*
X117071428Y-209432857D01*
X117071428Y-209575714D01*
X116357142Y-209718571D01*
X119357142Y-209432857D02*
X119571428Y-209504285D01*
X119642857Y-209575714D01*
X119714285Y-209718571D01*
X119714285Y-209932857D01*
X119642857Y-210075714D01*
X119571428Y-210147142D01*
X119428571Y-210218571D01*
X118857142Y-210218571D01*
X118857142Y-208718571D01*
X119357142Y-208718571D01*
X119500000Y-208790000D01*
X119571428Y-208861428D01*
X119642857Y-209004285D01*
X119642857Y-209147142D01*
X119571428Y-209290000D01*
X119500000Y-209361428D01*
X119357142Y-209432857D01*
X118857142Y-209432857D01*
X120571428Y-210218571D02*
X120428571Y-210147142D01*
X120357142Y-210075714D01*
X120285714Y-209932857D01*
X120285714Y-209504285D01*
X120357142Y-209361428D01*
X120428571Y-209290000D01*
X120571428Y-209218571D01*
X120785714Y-209218571D01*
X120928571Y-209290000D01*
X121000000Y-209361428D01*
X121071428Y-209504285D01*
X121071428Y-209932857D01*
X121000000Y-210075714D01*
X120928571Y-210147142D01*
X120785714Y-210218571D01*
X120571428Y-210218571D01*
X122357142Y-210218571D02*
X122357142Y-209432857D01*
X122285714Y-209290000D01*
X122142857Y-209218571D01*
X121857142Y-209218571D01*
X121714285Y-209290000D01*
X122357142Y-210147142D02*
X122214285Y-210218571D01*
X121857142Y-210218571D01*
X121714285Y-210147142D01*
X121642857Y-210004285D01*
X121642857Y-209861428D01*
X121714285Y-209718571D01*
X121857142Y-209647142D01*
X122214285Y-209647142D01*
X122357142Y-209575714D01*
X123071428Y-210218571D02*
X123071428Y-209218571D01*
X123071428Y-209504285D02*
X123142857Y-209361428D01*
X123214285Y-209290000D01*
X123357142Y-209218571D01*
X123500000Y-209218571D01*
X124642857Y-210218571D02*
X124642857Y-208718571D01*
X124642857Y-210147142D02*
X124500000Y-210218571D01*
X124214285Y-210218571D01*
X124071428Y-210147142D01*
X124000000Y-210075714D01*
X123928571Y-209932857D01*
X123928571Y-209504285D01*
X124000000Y-209361428D01*
X124071428Y-209290000D01*
X124214285Y-209218571D01*
X124500000Y-209218571D01*
X124642857Y-209290000D01*
X127357142Y-210075714D02*
X127285714Y-210147142D01*
X127071428Y-210218571D01*
X126928571Y-210218571D01*
X126714285Y-210147142D01*
X126571428Y-210004285D01*
X126500000Y-209861428D01*
X126428571Y-209575714D01*
X126428571Y-209361428D01*
X126500000Y-209075714D01*
X126571428Y-208932857D01*
X126714285Y-208790000D01*
X126928571Y-208718571D01*
X127071428Y-208718571D01*
X127285714Y-208790000D01*
X127357142Y-208861428D01*
X128214285Y-210218571D02*
X128071428Y-210147142D01*
X128000000Y-210075714D01*
X127928571Y-209932857D01*
X127928571Y-209504285D01*
X128000000Y-209361428D01*
X128071428Y-209290000D01*
X128214285Y-209218571D01*
X128428571Y-209218571D01*
X128571428Y-209290000D01*
X128642857Y-209361428D01*
X128714285Y-209504285D01*
X128714285Y-209932857D01*
X128642857Y-210075714D01*
X128571428Y-210147142D01*
X128428571Y-210218571D01*
X128214285Y-210218571D01*
X129357142Y-210218571D02*
X129357142Y-209218571D01*
X129357142Y-209361428D02*
X129428571Y-209290000D01*
X129571428Y-209218571D01*
X129785714Y-209218571D01*
X129928571Y-209290000D01*
X130000000Y-209432857D01*
X130000000Y-210218571D01*
X130000000Y-209432857D02*
X130071428Y-209290000D01*
X130214285Y-209218571D01*
X130428571Y-209218571D01*
X130571428Y-209290000D01*
X130642857Y-209432857D01*
X130642857Y-210218571D01*
X131357142Y-209218571D02*
X131357142Y-210718571D01*
X131357142Y-209290000D02*
X131500000Y-209218571D01*
X131785714Y-209218571D01*
X131928571Y-209290000D01*
X132000000Y-209361428D01*
X132071428Y-209504285D01*
X132071428Y-209932857D01*
X132000000Y-210075714D01*
X131928571Y-210147142D01*
X131785714Y-210218571D01*
X131500000Y-210218571D01*
X131357142Y-210147142D01*
X133357142Y-209218571D02*
X133357142Y-210218571D01*
X132714285Y-209218571D02*
X132714285Y-210004285D01*
X132785714Y-210147142D01*
X132928571Y-210218571D01*
X133142857Y-210218571D01*
X133285714Y-210147142D01*
X133357142Y-210075714D01*
X133857142Y-209218571D02*
X134428571Y-209218571D01*
X134071428Y-208718571D02*
X134071428Y-210004285D01*
X134142857Y-210147142D01*
X134285714Y-210218571D01*
X134428571Y-210218571D01*
X135500000Y-210147142D02*
X135357142Y-210218571D01*
X135071428Y-210218571D01*
X134928571Y-210147142D01*
X134857142Y-210004285D01*
X134857142Y-209432857D01*
X134928571Y-209290000D01*
X135071428Y-209218571D01*
X135357142Y-209218571D01*
X135500000Y-209290000D01*
X135571428Y-209432857D01*
X135571428Y-209575714D01*
X134857142Y-209718571D01*
X136214285Y-210218571D02*
X136214285Y-209218571D01*
X136214285Y-209504285D02*
X136285714Y-209361428D01*
X136357142Y-209290000D01*
X136500000Y-209218571D01*
X136642857Y-209218571D01*
X139142857Y-210218571D02*
X138642857Y-209504285D01*
X138285714Y-210218571D02*
X138285714Y-208718571D01*
X138857142Y-208718571D01*
X139000000Y-208790000D01*
X139071428Y-208861428D01*
X139142857Y-209004285D01*
X139142857Y-209218571D01*
X139071428Y-209361428D01*
X139000000Y-209432857D01*
X138857142Y-209504285D01*
X138285714Y-209504285D01*
X140357142Y-210147142D02*
X140214285Y-210218571D01*
X139928571Y-210218571D01*
X139785714Y-210147142D01*
X139714285Y-210004285D01*
X139714285Y-209432857D01*
X139785714Y-209290000D01*
X139928571Y-209218571D01*
X140214285Y-209218571D01*
X140357142Y-209290000D01*
X140428571Y-209432857D01*
X140428571Y-209575714D01*
X139714285Y-209718571D01*
X140928571Y-209218571D02*
X141285714Y-210218571D01*
X141642857Y-209218571D01*
X143285714Y-208861428D02*
X143357142Y-208790000D01*
X143500000Y-208718571D01*
X143857142Y-208718571D01*
X144000000Y-208790000D01*
X144071428Y-208861428D01*
X144142857Y-209004285D01*
X144142857Y-209147142D01*
X144071428Y-209361428D01*
X143214285Y-210218571D01*
X144142857Y-210218571D01*
X144785714Y-210075714D02*
X144857142Y-210147142D01*
X144785714Y-210218571D01*
X144714285Y-210147142D01*
X144785714Y-210075714D01*
X144785714Y-210218571D01*
X146285714Y-210218571D02*
X145428571Y-210218571D01*
X145857142Y-210218571D02*
X145857142Y-208718571D01*
X145714285Y-208932857D01*
X145571428Y-209075714D01*
X145428571Y-209147142D01*
X146928571Y-210075714D02*
X147000000Y-210147142D01*
X146928571Y-210218571D01*
X146857142Y-210147142D01*
X146928571Y-210075714D01*
X146928571Y-210218571D01*
X148428571Y-210218571D02*
X147571428Y-210218571D01*
X148000000Y-210218571D02*
X148000000Y-208718571D01*
X147857142Y-208932857D01*
X147714285Y-209075714D01*
X147571428Y-209147142D01*
X117285714Y-212625714D02*
X117214285Y-212697142D01*
X117000000Y-212768571D01*
X116857142Y-212768571D01*
X116642857Y-212697142D01*
X116500000Y-212554285D01*
X116428571Y-212411428D01*
X116357142Y-212125714D01*
X116357142Y-211911428D01*
X116428571Y-211625714D01*
X116500000Y-211482857D01*
X116642857Y-211340000D01*
X116857142Y-211268571D01*
X117000000Y-211268571D01*
X117214285Y-211340000D01*
X117285714Y-211411428D01*
X118142857Y-212768571D02*
X118000000Y-212697142D01*
X117928571Y-212625714D01*
X117857142Y-212482857D01*
X117857142Y-212054285D01*
X117928571Y-211911428D01*
X118000000Y-211840000D01*
X118142857Y-211768571D01*
X118357142Y-211768571D01*
X118500000Y-211840000D01*
X118571428Y-211911428D01*
X118642857Y-212054285D01*
X118642857Y-212482857D01*
X118571428Y-212625714D01*
X118500000Y-212697142D01*
X118357142Y-212768571D01*
X118142857Y-212768571D01*
X119285714Y-211768571D02*
X119285714Y-213268571D01*
X119285714Y-211840000D02*
X119428571Y-211768571D01*
X119714285Y-211768571D01*
X119857142Y-211840000D01*
X119928571Y-211911428D01*
X120000000Y-212054285D01*
X120000000Y-212482857D01*
X119928571Y-212625714D01*
X119857142Y-212697142D01*
X119714285Y-212768571D01*
X119428571Y-212768571D01*
X119285714Y-212697142D01*
X120500000Y-211768571D02*
X120857142Y-212768571D01*
X121214285Y-211768571D02*
X120857142Y-212768571D01*
X120714285Y-213125714D01*
X120642857Y-213197142D01*
X120500000Y-213268571D01*
X121785714Y-212768571D02*
X121785714Y-211768571D01*
X121785714Y-212054285D02*
X121857142Y-211911428D01*
X121928571Y-211840000D01*
X122071428Y-211768571D01*
X122214285Y-211768571D01*
X122714285Y-212768571D02*
X122714285Y-211768571D01*
X122714285Y-211268571D02*
X122642857Y-211340000D01*
X122714285Y-211411428D01*
X122785714Y-211340000D01*
X122714285Y-211268571D01*
X122714285Y-211411428D01*
X124071428Y-211768571D02*
X124071428Y-212982857D01*
X124000000Y-213125714D01*
X123928571Y-213197142D01*
X123785714Y-213268571D01*
X123571428Y-213268571D01*
X123428571Y-213197142D01*
X124071428Y-212697142D02*
X123928571Y-212768571D01*
X123642857Y-212768571D01*
X123500000Y-212697142D01*
X123428571Y-212625714D01*
X123357142Y-212482857D01*
X123357142Y-212054285D01*
X123428571Y-211911428D01*
X123500000Y-211840000D01*
X123642857Y-211768571D01*
X123928571Y-211768571D01*
X124071428Y-211840000D01*
X124785714Y-212768571D02*
X124785714Y-211268571D01*
X125428571Y-212768571D02*
X125428571Y-211982857D01*
X125357142Y-211840000D01*
X125214285Y-211768571D01*
X125000000Y-211768571D01*
X124857142Y-211840000D01*
X124785714Y-211911428D01*
X125928571Y-211768571D02*
X126500000Y-211768571D01*
X126142857Y-211268571D02*
X126142857Y-212554285D01*
X126214285Y-212697142D01*
X126357142Y-212768571D01*
X126500000Y-212768571D01*
X128571428Y-213340000D02*
X128500000Y-213268571D01*
X128357142Y-213054285D01*
X128285714Y-212911428D01*
X128214285Y-212697142D01*
X128142857Y-212340000D01*
X128142857Y-212054285D01*
X128214285Y-211697142D01*
X128285714Y-211482857D01*
X128357142Y-211340000D01*
X128500000Y-211125714D01*
X128571428Y-211054285D01*
X129785714Y-212697142D02*
X129642857Y-212768571D01*
X129357142Y-212768571D01*
X129214285Y-212697142D01*
X129142857Y-212625714D01*
X129071428Y-212482857D01*
X129071428Y-212054285D01*
X129142857Y-211911428D01*
X129214285Y-211840000D01*
X129357142Y-211768571D01*
X129642857Y-211768571D01*
X129785714Y-211840000D01*
X130285714Y-213340000D02*
X130357142Y-213268571D01*
X130500000Y-213054285D01*
X130571428Y-212911428D01*
X130642857Y-212697142D01*
X130714285Y-212340000D01*
X130714285Y-212054285D01*
X130642857Y-211697142D01*
X130571428Y-211482857D01*
X130500000Y-211340000D01*
X130357142Y-211125714D01*
X130285714Y-211054285D01*
X132500000Y-211411428D02*
X132571428Y-211340000D01*
X132714285Y-211268571D01*
X133071428Y-211268571D01*
X133214285Y-211340000D01*
X133285714Y-211411428D01*
X133357142Y-211554285D01*
X133357142Y-211697142D01*
X133285714Y-211911428D01*
X132428571Y-212768571D01*
X133357142Y-212768571D01*
X134285714Y-211268571D02*
X134428571Y-211268571D01*
X134571428Y-211340000D01*
X134642857Y-211411428D01*
X134714285Y-211554285D01*
X134785714Y-211840000D01*
X134785714Y-212197142D01*
X134714285Y-212482857D01*
X134642857Y-212625714D01*
X134571428Y-212697142D01*
X134428571Y-212768571D01*
X134285714Y-212768571D01*
X134142857Y-212697142D01*
X134071428Y-212625714D01*
X134000000Y-212482857D01*
X133928571Y-212197142D01*
X133928571Y-211840000D01*
X134000000Y-211554285D01*
X134071428Y-211411428D01*
X134142857Y-211340000D01*
X134285714Y-211268571D01*
X136214285Y-212768571D02*
X135357142Y-212768571D01*
X135785714Y-212768571D02*
X135785714Y-211268571D01*
X135642857Y-211482857D01*
X135500000Y-211625714D01*
X135357142Y-211697142D01*
X136714285Y-211268571D02*
X137714285Y-211268571D01*
X137071428Y-212768571D01*
X108035714Y-213818571D02*
X108035714Y-214890000D01*
X107964285Y-215104285D01*
X107821428Y-215247142D01*
X107607142Y-215318571D01*
X107464285Y-215318571D01*
X109321428Y-215247142D02*
X109178571Y-215318571D01*
X108892857Y-215318571D01*
X108750000Y-215247142D01*
X108678571Y-215104285D01*
X108678571Y-214532857D01*
X108750000Y-214390000D01*
X108892857Y-214318571D01*
X109178571Y-214318571D01*
X109321428Y-214390000D01*
X109392857Y-214532857D01*
X109392857Y-214675714D01*
X108678571Y-214818571D01*
X109821428Y-214318571D02*
X110392857Y-214318571D01*
X110035714Y-215318571D02*
X110035714Y-214032857D01*
X110107142Y-213890000D01*
X110250000Y-213818571D01*
X110392857Y-213818571D01*
X110678571Y-214318571D02*
X111250000Y-214318571D01*
X110892857Y-215318571D02*
X110892857Y-214032857D01*
X110964285Y-213890000D01*
X111107142Y-213818571D01*
X111250000Y-213818571D01*
X112678571Y-213818571D02*
X113535714Y-213818571D01*
X113107142Y-215318571D02*
X113107142Y-213818571D01*
X114035714Y-215318571D02*
X114035714Y-214318571D01*
X114035714Y-214604285D02*
X114107142Y-214461428D01*
X114178571Y-214390000D01*
X114321428Y-214318571D01*
X114464285Y-214318571D01*
X115607142Y-215318571D02*
X115607142Y-214532857D01*
X115535714Y-214390000D01*
X115392857Y-214318571D01*
X115107142Y-214318571D01*
X114964285Y-214390000D01*
X115607142Y-215247142D02*
X115464285Y-215318571D01*
X115107142Y-215318571D01*
X114964285Y-215247142D01*
X114892857Y-215104285D01*
X114892857Y-214961428D01*
X114964285Y-214818571D01*
X115107142Y-214747142D01*
X115464285Y-214747142D01*
X115607142Y-214675714D01*
X116321428Y-214318571D02*
X116321428Y-215318571D01*
X116321428Y-214461428D02*
X116392857Y-214390000D01*
X116535714Y-214318571D01*
X116750000Y-214318571D01*
X116892857Y-214390000D01*
X116964285Y-214532857D01*
X116964285Y-215318571D01*
X117464285Y-214318571D02*
X118035714Y-214318571D01*
X117678571Y-213818571D02*
X117678571Y-215104285D01*
X117750000Y-215247142D01*
X117892857Y-215318571D01*
X118035714Y-215318571D01*
X119107142Y-215247142D02*
X118964285Y-215318571D01*
X118678571Y-215318571D01*
X118535714Y-215247142D01*
X118464285Y-215104285D01*
X118464285Y-214532857D01*
X118535714Y-214390000D01*
X118678571Y-214318571D01*
X118964285Y-214318571D01*
X119107142Y-214390000D01*
X119178571Y-214532857D01*
X119178571Y-214675714D01*
X118464285Y-214818571D01*
X119821428Y-215318571D02*
X119821428Y-214318571D01*
X119821428Y-214604285D02*
X119892857Y-214461428D01*
X119964285Y-214390000D01*
X120107142Y-214318571D01*
X120250000Y-214318571D01*
X123035714Y-214318571D02*
X121892857Y-214747142D01*
X123035714Y-215175714D01*
X123535714Y-214318571D02*
X124107142Y-214318571D01*
X123750000Y-213818571D02*
X123750000Y-215104285D01*
X123821428Y-215247142D01*
X123964285Y-215318571D01*
X124107142Y-215318571D01*
X124607142Y-215318571D02*
X124607142Y-214318571D01*
X124607142Y-214604285D02*
X124678571Y-214461428D01*
X124750000Y-214390000D01*
X124892857Y-214318571D01*
X125035714Y-214318571D01*
X126178571Y-215318571D02*
X126178571Y-214532857D01*
X126107142Y-214390000D01*
X125964285Y-214318571D01*
X125678571Y-214318571D01*
X125535714Y-214390000D01*
X126178571Y-215247142D02*
X126035714Y-215318571D01*
X125678571Y-215318571D01*
X125535714Y-215247142D01*
X125464285Y-215104285D01*
X125464285Y-214961428D01*
X125535714Y-214818571D01*
X125678571Y-214747142D01*
X126035714Y-214747142D01*
X126178571Y-214675714D01*
X126892857Y-214318571D02*
X126892857Y-215318571D01*
X126892857Y-214461428D02*
X126964285Y-214390000D01*
X127107142Y-214318571D01*
X127321428Y-214318571D01*
X127464285Y-214390000D01*
X127535714Y-214532857D01*
X127535714Y-215318571D01*
X128035714Y-214318571D02*
X128607142Y-214318571D01*
X128250000Y-213818571D02*
X128250000Y-215104285D01*
X128321428Y-215247142D01*
X128464285Y-215318571D01*
X128607142Y-215318571D01*
X129678571Y-215247142D02*
X129535714Y-215318571D01*
X129250000Y-215318571D01*
X129107142Y-215247142D01*
X129035714Y-215104285D01*
X129035714Y-214532857D01*
X129107142Y-214390000D01*
X129250000Y-214318571D01*
X129535714Y-214318571D01*
X129678571Y-214390000D01*
X129750000Y-214532857D01*
X129750000Y-214675714D01*
X129035714Y-214818571D01*
X130392857Y-215318571D02*
X130392857Y-214318571D01*
X130392857Y-214604285D02*
X130464285Y-214461428D01*
X130535714Y-214390000D01*
X130678571Y-214318571D01*
X130821428Y-214318571D01*
X132250000Y-214604285D02*
X132178571Y-214532857D01*
X132035714Y-214461428D01*
X131892857Y-214461428D01*
X131750000Y-214532857D01*
X131678571Y-214604285D01*
X131607142Y-214747142D01*
X131607142Y-214890000D01*
X131678571Y-215032857D01*
X131750000Y-215104285D01*
X131892857Y-215175714D01*
X132035714Y-215175714D01*
X132178571Y-215104285D01*
X132250000Y-215032857D01*
X132250000Y-214461428D02*
X132250000Y-215032857D01*
X132321428Y-215104285D01*
X132392857Y-215104285D01*
X132535714Y-215032857D01*
X132607142Y-214890000D01*
X132607142Y-214532857D01*
X132464285Y-214318571D01*
X132250000Y-214175714D01*
X131964285Y-214104285D01*
X131678571Y-214175714D01*
X131464285Y-214318571D01*
X131321428Y-214532857D01*
X131250000Y-214818571D01*
X131321428Y-215104285D01*
X131464285Y-215318571D01*
X131678571Y-215461428D01*
X131964285Y-215532857D01*
X132250000Y-215461428D01*
X132464285Y-215318571D01*
X133250000Y-214318571D02*
X133250000Y-215818571D01*
X133250000Y-214390000D02*
X133392857Y-214318571D01*
X133678571Y-214318571D01*
X133821428Y-214390000D01*
X133892857Y-214461428D01*
X133964285Y-214604285D01*
X133964285Y-215032857D01*
X133892857Y-215175714D01*
X133821428Y-215247142D01*
X133678571Y-215318571D01*
X133392857Y-215318571D01*
X133250000Y-215247142D01*
X134821428Y-215318571D02*
X134678571Y-215247142D01*
X134607142Y-215175714D01*
X134535714Y-215032857D01*
X134535714Y-214604285D01*
X134607142Y-214461428D01*
X134678571Y-214390000D01*
X134821428Y-214318571D01*
X135035714Y-214318571D01*
X135178571Y-214390000D01*
X135250000Y-214461428D01*
X135321428Y-214604285D01*
X135321428Y-215032857D01*
X135250000Y-215175714D01*
X135178571Y-215247142D01*
X135035714Y-215318571D01*
X134821428Y-215318571D01*
X135964285Y-215318571D02*
X135964285Y-213818571D01*
X135964285Y-214390000D02*
X136107142Y-214318571D01*
X136392857Y-214318571D01*
X136535714Y-214390000D01*
X136607142Y-214461428D01*
X136678571Y-214604285D01*
X136678571Y-215032857D01*
X136607142Y-215175714D01*
X136535714Y-215247142D01*
X136392857Y-215318571D01*
X136107142Y-215318571D01*
X135964285Y-215247142D01*
X137535714Y-215318571D02*
X137392857Y-215247142D01*
X137321428Y-215175714D01*
X137250000Y-215032857D01*
X137250000Y-214604285D01*
X137321428Y-214461428D01*
X137392857Y-214390000D01*
X137535714Y-214318571D01*
X137750000Y-214318571D01*
X137892857Y-214390000D01*
X137964285Y-214461428D01*
X138035714Y-214604285D01*
X138035714Y-215032857D01*
X137964285Y-215175714D01*
X137892857Y-215247142D01*
X137750000Y-215318571D01*
X137535714Y-215318571D01*
X138535714Y-215318571D02*
X139321428Y-214318571D01*
X138535714Y-214318571D02*
X139321428Y-215318571D01*
X139892857Y-215175714D02*
X139964285Y-215247142D01*
X139892857Y-215318571D01*
X139821428Y-215247142D01*
X139892857Y-215175714D01*
X139892857Y-215318571D01*
X141250000Y-215247142D02*
X141107142Y-215318571D01*
X140821428Y-215318571D01*
X140678571Y-215247142D01*
X140607142Y-215175714D01*
X140535714Y-215032857D01*
X140535714Y-214604285D01*
X140607142Y-214461428D01*
X140678571Y-214390000D01*
X140821428Y-214318571D01*
X141107142Y-214318571D01*
X141250000Y-214390000D01*
X142107142Y-215318571D02*
X141964285Y-215247142D01*
X141892857Y-215175714D01*
X141821428Y-215032857D01*
X141821428Y-214604285D01*
X141892857Y-214461428D01*
X141964285Y-214390000D01*
X142107142Y-214318571D01*
X142321428Y-214318571D01*
X142464285Y-214390000D01*
X142535714Y-214461428D01*
X142607142Y-214604285D01*
X142607142Y-215032857D01*
X142535714Y-215175714D01*
X142464285Y-215247142D01*
X142321428Y-215318571D01*
X142107142Y-215318571D01*
X143250000Y-215318571D02*
X143250000Y-214318571D01*
X143250000Y-214461428D02*
X143321428Y-214390000D01*
X143464285Y-214318571D01*
X143678571Y-214318571D01*
X143821428Y-214390000D01*
X143892857Y-214532857D01*
X143892857Y-215318571D01*
X143892857Y-214532857D02*
X143964285Y-214390000D01*
X144107142Y-214318571D01*
X144321428Y-214318571D01*
X144464285Y-214390000D01*
X144535714Y-214532857D01*
X144535714Y-215318571D01*
X145250000Y-214318571D02*
X146392857Y-214747142D01*
X145250000Y-215175714D01*
D11*
X50546520Y-22857460D02*
X51943520Y-22857460D01*
X46101520Y-22857460D02*
X44577520Y-22857460D01*
X46482520Y-22095460D02*
X46482520Y-23619460D01*
X46228520Y-22095460D02*
X46228520Y-23619460D01*
X45974520Y-22857460D02*
X45974520Y-23619460D01*
X45974520Y-23619460D02*
X50546520Y-23619460D01*
X50546520Y-23619460D02*
X50546520Y-22095460D01*
X50546520Y-22095460D02*
X45974520Y-22095460D01*
X45974520Y-22095460D02*
X45974520Y-22857460D01*
X53090000Y-163850000D02*
X56090000Y-163850000D01*
X56090000Y-166350000D02*
X53090000Y-166350000D01*
X58170000Y-163850000D02*
X61170000Y-163850000D01*
X61170000Y-166350000D02*
X58170000Y-166350000D01*
X51215000Y-167930000D02*
X63215000Y-167930000D01*
X63215000Y-167930000D02*
X63215000Y-172430000D01*
X63215000Y-172430000D02*
X51215000Y-172430000D01*
X51215000Y-172430000D02*
X51215000Y-167930000D01*
X59635000Y-25359000D02*
X59635000Y-20361000D01*
X59495000Y-25351000D02*
X59495000Y-20369000D01*
X59355000Y-25335000D02*
X59355000Y-22955000D01*
X59355000Y-22765000D02*
X59355000Y-20385000D01*
X59215000Y-25311000D02*
X59215000Y-23350000D01*
X59215000Y-22370000D02*
X59215000Y-20409000D01*
X59075000Y-25278000D02*
X59075000Y-23517000D01*
X59075000Y-22203000D02*
X59075000Y-20442000D01*
X58935000Y-25237000D02*
X58935000Y-23624000D01*
X58935000Y-22096000D02*
X58935000Y-20483000D01*
X58795000Y-25187000D02*
X58795000Y-23695000D01*
X58795000Y-22025000D02*
X58795000Y-20533000D01*
X58655000Y-25126000D02*
X58655000Y-23739000D01*
X58655000Y-21981000D02*
X58655000Y-20594000D01*
X58515000Y-25056000D02*
X58515000Y-23758000D01*
X58515000Y-21962000D02*
X58515000Y-20664000D01*
X58375000Y-24974000D02*
X58375000Y-23756000D01*
X58375000Y-21964000D02*
X58375000Y-20746000D01*
X58235000Y-24879000D02*
X58235000Y-23731000D01*
X58235000Y-21989000D02*
X58235000Y-20841000D01*
X58095000Y-24768000D02*
X58095000Y-23683000D01*
X58095000Y-22037000D02*
X58095000Y-20952000D01*
X57955000Y-24640000D02*
X57955000Y-23605000D01*
X57955000Y-22115000D02*
X57955000Y-21080000D01*
X57815000Y-24491000D02*
X57815000Y-23488000D01*
X57815000Y-22232000D02*
X57815000Y-21229000D01*
X57675000Y-24312000D02*
X57675000Y-23300000D01*
X57675000Y-22420000D02*
X57675000Y-21408000D01*
X57535000Y-24093000D02*
X57535000Y-21627000D01*
X57395000Y-23804000D02*
X57395000Y-21916000D01*
X57255000Y-23332000D02*
X57255000Y-22388000D01*
X59360000Y-22860000D02*
G75*
G03X59360000Y-22860000I-900000J0D01*
G01*
X62247500Y-22860000D02*
G75*
G03X62247500Y-22860000I-2537500J0D01*
G01*
X37080000Y-34270000D02*
X34080000Y-34270000D01*
X34080000Y-31770000D02*
X37080000Y-31770000D01*
X57400000Y-34270000D02*
X54400000Y-34270000D01*
X54400000Y-31770000D02*
X57400000Y-31770000D01*
X78490000Y-31770000D02*
X81490000Y-31770000D01*
X81490000Y-34270000D02*
X78490000Y-34270000D01*
X105660000Y-34270000D02*
X102660000Y-34270000D01*
X102660000Y-31770000D02*
X105660000Y-31770000D01*
X125980000Y-34270000D02*
X122980000Y-34270000D01*
X122980000Y-31770000D02*
X125980000Y-31770000D01*
X122170000Y-151110000D02*
X119170000Y-151110000D01*
X119170000Y-148610000D02*
X122170000Y-148610000D01*
X37080000Y-79990000D02*
X34080000Y-79990000D01*
X34080000Y-77490000D02*
X37080000Y-77490000D01*
X57400000Y-79990000D02*
X54400000Y-79990000D01*
X54400000Y-77490000D02*
X57400000Y-77490000D01*
X104390000Y-79990000D02*
X101390000Y-79990000D01*
X101390000Y-77490000D02*
X104390000Y-77490000D01*
X125980000Y-79990000D02*
X122980000Y-79990000D01*
X122980000Y-77490000D02*
X125980000Y-77490000D01*
X146300000Y-34270000D02*
X143300000Y-34270000D01*
X143300000Y-31770000D02*
X146300000Y-31770000D01*
X134870000Y-151110000D02*
X131870000Y-151110000D01*
X131870000Y-148610000D02*
X134870000Y-148610000D01*
X147570000Y-181590000D02*
X144570000Y-181590000D01*
X144570000Y-179090000D02*
X147570000Y-179090000D01*
X45970000Y-123170000D02*
X42970000Y-123170000D01*
X42970000Y-120670000D02*
X45970000Y-120670000D01*
X58670000Y-123170000D02*
X55670000Y-123170000D01*
X55670000Y-120670000D02*
X58670000Y-120670000D01*
X71370000Y-123170000D02*
X68370000Y-123170000D01*
X68370000Y-120670000D02*
X71370000Y-120670000D01*
X134870000Y-123170000D02*
X131870000Y-123170000D01*
X131870000Y-120670000D02*
X134870000Y-120670000D01*
X122170000Y-123170000D02*
X119170000Y-123170000D01*
X119170000Y-120670000D02*
X122170000Y-120670000D01*
X96770000Y-123170000D02*
X93770000Y-123170000D01*
X93770000Y-120670000D02*
X96770000Y-120670000D01*
X109470000Y-123170000D02*
X106470000Y-123170000D01*
X106470000Y-120670000D02*
X109470000Y-120670000D01*
X33270000Y-151110000D02*
X30270000Y-151110000D01*
X30270000Y-148610000D02*
X33270000Y-148610000D01*
X45970000Y-151110000D02*
X42970000Y-151110000D01*
X42970000Y-148610000D02*
X45970000Y-148610000D01*
X96770000Y-151110000D02*
X93770000Y-151110000D01*
X93770000Y-148610000D02*
X96770000Y-148610000D01*
X71370000Y-151110000D02*
X68370000Y-151110000D01*
X68370000Y-148610000D02*
X71370000Y-148610000D01*
X84070000Y-151110000D02*
X81070000Y-151110000D01*
X81070000Y-148610000D02*
X84070000Y-148610000D01*
X146300000Y-79990000D02*
X143300000Y-79990000D01*
X143300000Y-77490000D02*
X146300000Y-77490000D01*
X33270000Y-181590000D02*
X30270000Y-181590000D01*
X30270000Y-179090000D02*
X33270000Y-179090000D01*
X45970000Y-181590000D02*
X42970000Y-181590000D01*
X42970000Y-179090000D02*
X45970000Y-179090000D01*
X58670000Y-181590000D02*
X55670000Y-181590000D01*
X55670000Y-179090000D02*
X58670000Y-179090000D01*
X71370000Y-181590000D02*
X68370000Y-181590000D01*
X68370000Y-179090000D02*
X71370000Y-179090000D01*
X84070000Y-181590000D02*
X81070000Y-181590000D01*
X81070000Y-179090000D02*
X84070000Y-179090000D01*
X96770000Y-181590000D02*
X93770000Y-181590000D01*
X93770000Y-179090000D02*
X96770000Y-179090000D01*
X109470000Y-181590000D02*
X106470000Y-181590000D01*
X106470000Y-179090000D02*
X109470000Y-179090000D01*
X122170000Y-181590000D02*
X119170000Y-181590000D01*
X119170000Y-179090000D02*
X122170000Y-179090000D01*
X72390000Y-213360000D02*
X67310000Y-213360000D01*
X72390000Y-217805000D02*
X67310000Y-217805000D01*
X67310000Y-211455000D02*
X72390000Y-211455000D01*
X67310000Y-211455000D02*
X67310000Y-217805000D01*
X72390000Y-211455000D02*
X72390000Y-217805000D01*
X92710000Y-213360000D02*
X87630000Y-213360000D01*
X92710000Y-217805000D02*
X87630000Y-217805000D01*
X87630000Y-211455000D02*
X92710000Y-211455000D01*
X87630000Y-211455000D02*
X87630000Y-217805000D01*
X92710000Y-211455000D02*
X92710000Y-217805000D01*
X92710000Y-26035000D02*
X100330000Y-26035000D01*
X92710000Y-21590000D02*
X100330000Y-21590000D01*
X92710000Y-19685000D02*
X100330000Y-19685000D01*
X85090000Y-19685000D02*
X85090000Y-26035000D01*
X100330000Y-19685000D02*
X100330000Y-26035000D01*
X92710000Y-21590000D02*
X85090000Y-21590000D01*
X85090000Y-19685000D02*
X92710000Y-19685000D01*
X92710000Y-26035000D02*
X85090000Y-26035000D01*
X120650000Y-26035000D02*
X128270000Y-26035000D01*
X120650000Y-21590000D02*
X128270000Y-21590000D01*
X120650000Y-19685000D02*
X128270000Y-19685000D01*
X113030000Y-19685000D02*
X113030000Y-26035000D01*
X128270000Y-19685000D02*
X128270000Y-26035000D01*
X120650000Y-21590000D02*
X113030000Y-21590000D01*
X113030000Y-19685000D02*
X120650000Y-19685000D01*
X120650000Y-26035000D02*
X113030000Y-26035000D01*
X73660000Y-21590000D02*
X68580000Y-21590000D01*
X73660000Y-26035000D02*
X68580000Y-26035000D01*
X68580000Y-19685000D02*
X73660000Y-19685000D01*
X68580000Y-19685000D02*
X68580000Y-26035000D01*
X73660000Y-19685000D02*
X73660000Y-26035000D01*
X59690000Y-156210000D02*
X54610000Y-156210000D01*
X54610000Y-156210000D02*
X54610000Y-153670000D01*
X54610000Y-153670000D02*
X59690000Y-153670000D01*
X59690000Y-153670000D02*
X59690000Y-156210000D01*
X54610000Y-158750000D02*
X59690000Y-158750000D01*
X59690000Y-158750000D02*
X59690000Y-161290000D01*
X59690000Y-161290000D02*
X54610000Y-161290000D01*
X54610000Y-161290000D02*
X54610000Y-158750000D01*
X71120000Y-205740000D02*
X76200000Y-205740000D01*
X76200000Y-205740000D02*
X76200000Y-208280000D01*
X76200000Y-208280000D02*
X71120000Y-208280000D01*
X71120000Y-208280000D02*
X71120000Y-205740000D01*
X146050000Y-138430000D02*
X146050000Y-133350000D01*
X146050000Y-133350000D02*
X148590000Y-133350000D01*
X148590000Y-133350000D02*
X148590000Y-138430000D01*
X148590000Y-138430000D02*
X146050000Y-138430000D01*
X93980000Y-205740000D02*
X99060000Y-205740000D01*
X99060000Y-205740000D02*
X99060000Y-208280000D01*
X99060000Y-208280000D02*
X93980000Y-208280000D01*
X93980000Y-208280000D02*
X93980000Y-205740000D01*
X111760000Y-152400000D02*
X114300000Y-152400000D01*
X114300000Y-152400000D02*
X114300000Y-175260000D01*
X114300000Y-175260000D02*
X111760000Y-175260000D01*
X111760000Y-152400000D02*
X111760000Y-175260000D01*
X111760000Y-172720000D02*
X114300000Y-172720000D01*
X87630000Y-146050000D02*
X85090000Y-146050000D01*
X85090000Y-146050000D02*
X85090000Y-123190000D01*
X85090000Y-123190000D02*
X87630000Y-123190000D01*
X87630000Y-146050000D02*
X87630000Y-123190000D01*
X87630000Y-125730000D02*
X85090000Y-125730000D01*
X83820000Y-146050000D02*
X81280000Y-146050000D01*
X81280000Y-146050000D02*
X81280000Y-123190000D01*
X81280000Y-123190000D02*
X83820000Y-123190000D01*
X83820000Y-146050000D02*
X83820000Y-123190000D01*
X83820000Y-125730000D02*
X81280000Y-125730000D01*
X80010000Y-146050000D02*
X77470000Y-146050000D01*
X77470000Y-146050000D02*
X77470000Y-123190000D01*
X77470000Y-123190000D02*
X80010000Y-123190000D01*
X80010000Y-146050000D02*
X80010000Y-123190000D01*
X80010000Y-125730000D02*
X77470000Y-125730000D01*
X55880000Y-211455000D02*
X55880000Y-217805000D01*
X63500000Y-211455000D02*
X63500000Y-217805000D01*
X63500000Y-213360000D02*
X55880000Y-213360000D01*
X55880000Y-211455000D02*
X63500000Y-211455000D01*
X63500000Y-217805000D02*
X55880000Y-217805000D01*
X45720000Y-211455000D02*
X45720000Y-217805000D01*
X53340000Y-211455000D02*
X53340000Y-217805000D01*
X53340000Y-213360000D02*
X45720000Y-213360000D01*
X45720000Y-211455000D02*
X53340000Y-211455000D01*
X53340000Y-217805000D02*
X45720000Y-217805000D01*
X35560000Y-211455000D02*
X35560000Y-217805000D01*
X43180000Y-211455000D02*
X43180000Y-217805000D01*
X43180000Y-213360000D02*
X35560000Y-213360000D01*
X35560000Y-211455000D02*
X43180000Y-211455000D01*
X43180000Y-217805000D02*
X35560000Y-217805000D01*
X96520000Y-211455000D02*
X96520000Y-217805000D01*
X104140000Y-211455000D02*
X104140000Y-217805000D01*
X104140000Y-213360000D02*
X96520000Y-213360000D01*
X96520000Y-211455000D02*
X104140000Y-211455000D01*
X104140000Y-217805000D02*
X96520000Y-217805000D01*
X76200000Y-211455000D02*
X76200000Y-217805000D01*
X83820000Y-211455000D02*
X83820000Y-217805000D01*
X83820000Y-213360000D02*
X76200000Y-213360000D01*
X76200000Y-211455000D02*
X83820000Y-211455000D01*
X83820000Y-217805000D02*
X76200000Y-217805000D01*
X40775000Y-152645000D02*
X40775000Y-153915000D01*
X48125000Y-152645000D02*
X48125000Y-153915000D01*
X48125000Y-164855000D02*
X48125000Y-163585000D01*
X40775000Y-164855000D02*
X40775000Y-163585000D01*
X40775000Y-152645000D02*
X48125000Y-152645000D01*
X40775000Y-164855000D02*
X48125000Y-164855000D01*
X40775000Y-153915000D02*
X39840000Y-153915000D01*
X28075000Y-124705000D02*
X28075000Y-125975000D01*
X35425000Y-124705000D02*
X35425000Y-125975000D01*
X35425000Y-144535000D02*
X35425000Y-143265000D01*
X28075000Y-144535000D02*
X28075000Y-143265000D01*
X28075000Y-124705000D02*
X35425000Y-124705000D01*
X28075000Y-144535000D02*
X35425000Y-144535000D01*
X28075000Y-125975000D02*
X27140000Y-125975000D01*
X40775000Y-124705000D02*
X40775000Y-125975000D01*
X48125000Y-124705000D02*
X48125000Y-125975000D01*
X48125000Y-144535000D02*
X48125000Y-143265000D01*
X40775000Y-144535000D02*
X40775000Y-143265000D01*
X40775000Y-124705000D02*
X48125000Y-124705000D01*
X40775000Y-144535000D02*
X48125000Y-144535000D01*
X40775000Y-125975000D02*
X39840000Y-125975000D01*
X28075000Y-183125000D02*
X28075000Y-184395000D01*
X35425000Y-183125000D02*
X35425000Y-184395000D01*
X35425000Y-202955000D02*
X35425000Y-201685000D01*
X28075000Y-202955000D02*
X28075000Y-201685000D01*
X28075000Y-183125000D02*
X35425000Y-183125000D01*
X28075000Y-202955000D02*
X35425000Y-202955000D01*
X28075000Y-184395000D02*
X27140000Y-184395000D01*
X28075000Y-152645000D02*
X28075000Y-153915000D01*
X35425000Y-152645000D02*
X35425000Y-153915000D01*
X35425000Y-172475000D02*
X35425000Y-171205000D01*
X28075000Y-172475000D02*
X28075000Y-171205000D01*
X28075000Y-152645000D02*
X35425000Y-152645000D01*
X28075000Y-172475000D02*
X35425000Y-172475000D01*
X28075000Y-153915000D02*
X27140000Y-153915000D01*
X53475000Y-124705000D02*
X53475000Y-125975000D01*
X60825000Y-124705000D02*
X60825000Y-125975000D01*
X60825000Y-144535000D02*
X60825000Y-143265000D01*
X53475000Y-144535000D02*
X53475000Y-143265000D01*
X53475000Y-124705000D02*
X60825000Y-124705000D01*
X53475000Y-144535000D02*
X60825000Y-144535000D01*
X53475000Y-125975000D02*
X52540000Y-125975000D01*
X66175000Y-152645000D02*
X66175000Y-153915000D01*
X73525000Y-152645000D02*
X73525000Y-153915000D01*
X73525000Y-172475000D02*
X73525000Y-171205000D01*
X66175000Y-172475000D02*
X66175000Y-171205000D01*
X66175000Y-152645000D02*
X73525000Y-152645000D01*
X66175000Y-172475000D02*
X73525000Y-172475000D01*
X66175000Y-153915000D02*
X65240000Y-153915000D01*
X53475000Y-183125000D02*
X53475000Y-184395000D01*
X60825000Y-183125000D02*
X60825000Y-184395000D01*
X60825000Y-202955000D02*
X60825000Y-201685000D01*
X53475000Y-202955000D02*
X53475000Y-201685000D01*
X53475000Y-183125000D02*
X60825000Y-183125000D01*
X53475000Y-202955000D02*
X60825000Y-202955000D01*
X53475000Y-184395000D02*
X52540000Y-184395000D01*
X66175000Y-183125000D02*
X66175000Y-184395000D01*
X73525000Y-183125000D02*
X73525000Y-184395000D01*
X73525000Y-202955000D02*
X73525000Y-201685000D01*
X66175000Y-202955000D02*
X66175000Y-201685000D01*
X66175000Y-183125000D02*
X73525000Y-183125000D01*
X66175000Y-202955000D02*
X73525000Y-202955000D01*
X66175000Y-184395000D02*
X65240000Y-184395000D01*
X78875000Y-183125000D02*
X78875000Y-184395000D01*
X86225000Y-183125000D02*
X86225000Y-184395000D01*
X86225000Y-202955000D02*
X86225000Y-201685000D01*
X78875000Y-202955000D02*
X78875000Y-201685000D01*
X78875000Y-183125000D02*
X86225000Y-183125000D01*
X78875000Y-202955000D02*
X86225000Y-202955000D01*
X78875000Y-184395000D02*
X77940000Y-184395000D01*
X91575000Y-183125000D02*
X91575000Y-184395000D01*
X98925000Y-183125000D02*
X98925000Y-184395000D01*
X98925000Y-202955000D02*
X98925000Y-201685000D01*
X91575000Y-202955000D02*
X91575000Y-201685000D01*
X91575000Y-183125000D02*
X98925000Y-183125000D01*
X91575000Y-202955000D02*
X98925000Y-202955000D01*
X91575000Y-184395000D02*
X90640000Y-184395000D01*
X104275000Y-124705000D02*
X104275000Y-125975000D01*
X111625000Y-124705000D02*
X111625000Y-125975000D01*
X111625000Y-147075000D02*
X111625000Y-145805000D01*
X104275000Y-147075000D02*
X104275000Y-145805000D01*
X104275000Y-124705000D02*
X111625000Y-124705000D01*
X104275000Y-147075000D02*
X111625000Y-147075000D01*
X104275000Y-125975000D02*
X103340000Y-125975000D01*
X91575000Y-152645000D02*
X91575000Y-153915000D01*
X98925000Y-152645000D02*
X98925000Y-153915000D01*
X98925000Y-175015000D02*
X98925000Y-173745000D01*
X91575000Y-175015000D02*
X91575000Y-173745000D01*
X91575000Y-152645000D02*
X98925000Y-152645000D01*
X91575000Y-175015000D02*
X98925000Y-175015000D01*
X91575000Y-153915000D02*
X90640000Y-153915000D01*
X104275000Y-183125000D02*
X104275000Y-184395000D01*
X111625000Y-183125000D02*
X111625000Y-184395000D01*
X111625000Y-202955000D02*
X111625000Y-201685000D01*
X104275000Y-202955000D02*
X104275000Y-201685000D01*
X104275000Y-183125000D02*
X111625000Y-183125000D01*
X104275000Y-202955000D02*
X111625000Y-202955000D01*
X104275000Y-184395000D02*
X103340000Y-184395000D01*
X91575000Y-124705000D02*
X91575000Y-125975000D01*
X98925000Y-124705000D02*
X98925000Y-125975000D01*
X98925000Y-144535000D02*
X98925000Y-143265000D01*
X91575000Y-144535000D02*
X91575000Y-143265000D01*
X91575000Y-124705000D02*
X98925000Y-124705000D01*
X91575000Y-144535000D02*
X98925000Y-144535000D01*
X91575000Y-125975000D02*
X90640000Y-125975000D01*
X66175000Y-124705000D02*
X66175000Y-125975000D01*
X73525000Y-124705000D02*
X73525000Y-125975000D01*
X73525000Y-144535000D02*
X73525000Y-143265000D01*
X66175000Y-144535000D02*
X66175000Y-143265000D01*
X66175000Y-124705000D02*
X73525000Y-124705000D01*
X66175000Y-144535000D02*
X73525000Y-144535000D01*
X66175000Y-125975000D02*
X65240000Y-125975000D01*
X78875000Y-152645000D02*
X78875000Y-153915000D01*
X86225000Y-152645000D02*
X86225000Y-153915000D01*
X86225000Y-175015000D02*
X86225000Y-173745000D01*
X78875000Y-175015000D02*
X78875000Y-173745000D01*
X78875000Y-152645000D02*
X86225000Y-152645000D01*
X78875000Y-175015000D02*
X86225000Y-175015000D01*
X78875000Y-153915000D02*
X77940000Y-153915000D01*
X116975000Y-124705000D02*
X116975000Y-125975000D01*
X124325000Y-124705000D02*
X124325000Y-125975000D01*
X124325000Y-147075000D02*
X124325000Y-145805000D01*
X116975000Y-147075000D02*
X116975000Y-145805000D01*
X116975000Y-124705000D02*
X124325000Y-124705000D01*
X116975000Y-147075000D02*
X124325000Y-147075000D01*
X116975000Y-125975000D02*
X116040000Y-125975000D01*
X129675000Y-152645000D02*
X129675000Y-153915000D01*
X137025000Y-152645000D02*
X137025000Y-153915000D01*
X137025000Y-175015000D02*
X137025000Y-173745000D01*
X129675000Y-175015000D02*
X129675000Y-173745000D01*
X129675000Y-152645000D02*
X137025000Y-152645000D01*
X129675000Y-175015000D02*
X137025000Y-175015000D01*
X129675000Y-153915000D02*
X128740000Y-153915000D01*
X116975000Y-152645000D02*
X116975000Y-153915000D01*
X124325000Y-152645000D02*
X124325000Y-153915000D01*
X124325000Y-175015000D02*
X124325000Y-173745000D01*
X116975000Y-175015000D02*
X116975000Y-173745000D01*
X116975000Y-152645000D02*
X124325000Y-152645000D01*
X116975000Y-175015000D02*
X124325000Y-175015000D01*
X116975000Y-153915000D02*
X116040000Y-153915000D01*
X116975000Y-183125000D02*
X116975000Y-184395000D01*
X124325000Y-183125000D02*
X124325000Y-184395000D01*
X124325000Y-202955000D02*
X124325000Y-201685000D01*
X116975000Y-202955000D02*
X116975000Y-201685000D01*
X116975000Y-183125000D02*
X124325000Y-183125000D01*
X116975000Y-202955000D02*
X124325000Y-202955000D01*
X116975000Y-184395000D02*
X116040000Y-184395000D01*
X129675000Y-183125000D02*
X129675000Y-184395000D01*
X137025000Y-183125000D02*
X137025000Y-184395000D01*
X137025000Y-202955000D02*
X137025000Y-201685000D01*
X129675000Y-202955000D02*
X129675000Y-201685000D01*
X129675000Y-183125000D02*
X137025000Y-183125000D01*
X129675000Y-202955000D02*
X137025000Y-202955000D01*
X129675000Y-184395000D02*
X128740000Y-184395000D01*
X143240760Y-140589000D02*
X142839440Y-140789660D01*
X142839440Y-140789660D02*
X142240000Y-140891260D01*
X142240000Y-140891260D02*
X141739620Y-140789660D01*
X141739620Y-140789660D02*
X141041120Y-140390880D01*
X141041120Y-140390880D02*
X140639800Y-139788900D01*
X140639800Y-139788900D02*
X140439140Y-139189460D01*
X140439140Y-139189460D02*
X140439140Y-132590540D01*
X140439140Y-132590540D02*
X140639800Y-131889500D01*
X140639800Y-131889500D02*
X140939520Y-131490720D01*
X140939520Y-131490720D02*
X141439900Y-131089400D01*
X141439900Y-131089400D02*
X142039340Y-130888740D01*
X142039340Y-130888740D02*
X142539720Y-130888740D01*
X142539720Y-130888740D02*
X143040100Y-131089400D01*
X143040100Y-131089400D02*
X143639540Y-131589780D01*
X143639540Y-131589780D02*
X143939260Y-132090160D01*
X143939260Y-132090160D02*
X144040860Y-132590540D01*
X144040860Y-132689600D02*
X144040860Y-139291060D01*
X144040860Y-139291060D02*
X143939260Y-139689840D01*
X143939260Y-139689840D02*
X143639540Y-140190220D01*
X143639540Y-140190220D02*
X143139160Y-140690600D01*
X144569180Y-132699760D02*
X144520920Y-132240020D01*
X144520920Y-132240020D02*
X144409160Y-131841240D01*
X144409160Y-131841240D02*
X144190720Y-131409440D01*
X144190720Y-131409440D02*
X143959580Y-131119880D01*
X143959580Y-131119880D02*
X143609060Y-130789680D01*
X143609060Y-130789680D02*
X143070580Y-130500120D01*
X143070580Y-130500120D02*
X142471140Y-130370580D01*
X142471140Y-130370580D02*
X141960600Y-130370580D01*
X141960600Y-130370580D02*
X141259560Y-130540760D01*
X141259560Y-130540760D02*
X140670280Y-130939540D01*
X140670280Y-130939540D02*
X140299440Y-131399280D01*
X140299440Y-131399280D02*
X140091160Y-131820920D01*
X140091160Y-131820920D02*
X139931140Y-132270500D01*
X139931140Y-132270500D02*
X139900660Y-132709920D01*
X140119100Y-140050520D02*
X140340080Y-140428980D01*
X140340080Y-140428980D02*
X140619480Y-140749020D01*
X140619480Y-140749020D02*
X140949680Y-141000480D01*
X140949680Y-141000480D02*
X141500860Y-141300200D01*
X141500860Y-141300200D02*
X141970760Y-141409420D01*
X141970760Y-141409420D02*
X142430500Y-141429740D01*
X142430500Y-141429740D02*
X142890240Y-141340840D01*
X142890240Y-141340840D02*
X143339820Y-141150340D01*
X143339820Y-141150340D02*
X143809720Y-140789660D01*
X143809720Y-140789660D02*
X144129760Y-140439140D01*
X144129760Y-140439140D02*
X144360900Y-140050520D01*
X144360900Y-140050520D02*
X144500600Y-139621260D01*
X144500600Y-139621260D02*
X144569180Y-139179300D01*
X139910820Y-132689600D02*
X139910820Y-139141200D01*
X139910820Y-139141200D02*
X139948920Y-139560300D01*
X139948920Y-139560300D02*
X140119100Y-140050520D01*
X144569180Y-132689600D02*
X144569180Y-139141200D01*
X137295000Y-81525000D02*
X137295000Y-82795000D01*
X152265000Y-81525000D02*
X152265000Y-82795000D01*
X152265000Y-114055000D02*
X152265000Y-112785000D01*
X137295000Y-114055000D02*
X137295000Y-112785000D01*
X137295000Y-81525000D02*
X152265000Y-81525000D01*
X137295000Y-114055000D02*
X152265000Y-114055000D01*
X137295000Y-82795000D02*
X136360000Y-82795000D01*
X68715000Y-35805000D02*
X68715000Y-37075000D01*
X91305000Y-35805000D02*
X91305000Y-37075000D01*
X91305000Y-119135000D02*
X91305000Y-117865000D01*
X68715000Y-119135000D02*
X68715000Y-117865000D01*
X68715000Y-35805000D02*
X91305000Y-35805000D01*
X68715000Y-119135000D02*
X91305000Y-119135000D01*
X68715000Y-37075000D02*
X67780000Y-37075000D01*
X28075000Y-35805000D02*
X28075000Y-37075000D01*
X43045000Y-35805000D02*
X43045000Y-37075000D01*
X43045000Y-73415000D02*
X43045000Y-72145000D01*
X28075000Y-73415000D02*
X28075000Y-72145000D01*
X28075000Y-35805000D02*
X43045000Y-35805000D01*
X28075000Y-73415000D02*
X43045000Y-73415000D01*
X28075000Y-37075000D02*
X27140000Y-37075000D01*
X28075000Y-81525000D02*
X28075000Y-82795000D01*
X43045000Y-81525000D02*
X43045000Y-82795000D01*
X43045000Y-119135000D02*
X43045000Y-117865000D01*
X28075000Y-119135000D02*
X28075000Y-117865000D01*
X28075000Y-81525000D02*
X43045000Y-81525000D01*
X28075000Y-119135000D02*
X43045000Y-119135000D01*
X28075000Y-82795000D02*
X27140000Y-82795000D01*
X48395000Y-35805000D02*
X48395000Y-37075000D01*
X63365000Y-35805000D02*
X63365000Y-37075000D01*
X63365000Y-73415000D02*
X63365000Y-72145000D01*
X48395000Y-73415000D02*
X48395000Y-72145000D01*
X48395000Y-35805000D02*
X63365000Y-35805000D01*
X48395000Y-73415000D02*
X63365000Y-73415000D01*
X48395000Y-37075000D02*
X47460000Y-37075000D01*
X48395000Y-81525000D02*
X48395000Y-82795000D01*
X63365000Y-81525000D02*
X63365000Y-82795000D01*
X63365000Y-119135000D02*
X63365000Y-117865000D01*
X48395000Y-119135000D02*
X48395000Y-117865000D01*
X48395000Y-81525000D02*
X63365000Y-81525000D01*
X48395000Y-119135000D02*
X63365000Y-119135000D01*
X48395000Y-82795000D02*
X47460000Y-82795000D01*
X96655000Y-35805000D02*
X96655000Y-37075000D01*
X111625000Y-35805000D02*
X111625000Y-37075000D01*
X111625000Y-73415000D02*
X111625000Y-72145000D01*
X96655000Y-73415000D02*
X96655000Y-72145000D01*
X96655000Y-35805000D02*
X111625000Y-35805000D01*
X96655000Y-73415000D02*
X111625000Y-73415000D01*
X96655000Y-37075000D02*
X95720000Y-37075000D01*
X96655000Y-81525000D02*
X96655000Y-82795000D01*
X111625000Y-81525000D02*
X111625000Y-82795000D01*
X111625000Y-119135000D02*
X111625000Y-117865000D01*
X96655000Y-119135000D02*
X96655000Y-117865000D01*
X96655000Y-81525000D02*
X111625000Y-81525000D01*
X96655000Y-119135000D02*
X111625000Y-119135000D01*
X96655000Y-82795000D02*
X95720000Y-82795000D01*
X116975000Y-35805000D02*
X116975000Y-37075000D01*
X131945000Y-35805000D02*
X131945000Y-37075000D01*
X131945000Y-73415000D02*
X131945000Y-72145000D01*
X116975000Y-73415000D02*
X116975000Y-72145000D01*
X116975000Y-35805000D02*
X131945000Y-35805000D01*
X116975000Y-73415000D02*
X131945000Y-73415000D01*
X116975000Y-37075000D02*
X116040000Y-37075000D01*
X116975000Y-81525000D02*
X116975000Y-82795000D01*
X131945000Y-81525000D02*
X131945000Y-82795000D01*
X131945000Y-119135000D02*
X131945000Y-117865000D01*
X116975000Y-119135000D02*
X116975000Y-117865000D01*
X116975000Y-81525000D02*
X131945000Y-81525000D01*
X116975000Y-119135000D02*
X131945000Y-119135000D01*
X116975000Y-82795000D02*
X116040000Y-82795000D01*
X137295000Y-35805000D02*
X137295000Y-37075000D01*
X152265000Y-35805000D02*
X152265000Y-37075000D01*
X152265000Y-68335000D02*
X152265000Y-67065000D01*
X137295000Y-68335000D02*
X137295000Y-67065000D01*
X137295000Y-35805000D02*
X152265000Y-35805000D01*
X137295000Y-68335000D02*
X152265000Y-68335000D01*
X137295000Y-37075000D02*
X136360000Y-37075000D01*
X102870000Y-156210000D02*
X107950000Y-156210000D01*
X102870000Y-151765000D02*
X107950000Y-151765000D01*
X107950000Y-158115000D02*
X102870000Y-158115000D01*
X107950000Y-158115000D02*
X107950000Y-151765000D01*
X102870000Y-158115000D02*
X102870000Y-151765000D01*
X107950000Y-158750000D02*
X102870000Y-158750000D01*
X107950000Y-163195000D02*
X102870000Y-163195000D01*
X102870000Y-156845000D02*
X107950000Y-156845000D01*
X102870000Y-156845000D02*
X102870000Y-163195000D01*
X107950000Y-156845000D02*
X107950000Y-163195000D01*
X102870000Y-166370000D02*
X107950000Y-166370000D01*
X102870000Y-161925000D02*
X107950000Y-161925000D01*
X107950000Y-168275000D02*
X102870000Y-168275000D01*
X107950000Y-168275000D02*
X107950000Y-161925000D01*
X102870000Y-168275000D02*
X102870000Y-161925000D01*
X107950000Y-168910000D02*
X102870000Y-168910000D01*
X107950000Y-173355000D02*
X102870000Y-173355000D01*
X102870000Y-167005000D02*
X107950000Y-167005000D01*
X102870000Y-167005000D02*
X102870000Y-173355000D01*
X107950000Y-167005000D02*
X107950000Y-173355000D01*
X102870000Y-20320000D02*
X102870000Y-25400000D01*
X107315000Y-20320000D02*
X107315000Y-25400000D01*
X100965000Y-25400000D02*
X100965000Y-20320000D01*
X100965000Y-25400000D02*
X107315000Y-25400000D01*
X100965000Y-20320000D02*
X107315000Y-20320000D01*
X130810000Y-20320000D02*
X130810000Y-25400000D01*
X135255000Y-20320000D02*
X135255000Y-25400000D01*
X128905000Y-25400000D02*
X128905000Y-20320000D01*
X128905000Y-25400000D02*
X135255000Y-25400000D01*
X128905000Y-20320000D02*
X135255000Y-20320000D01*
X153920000Y-133330000D02*
X150920000Y-133330000D01*
X150920000Y-130830000D02*
X153920000Y-130830000D01*
X150880000Y-138450000D02*
X153880000Y-138450000D01*
X153880000Y-140950000D02*
X150880000Y-140950000D01*
X40775000Y-183125000D02*
X40775000Y-184395000D01*
X48125000Y-183125000D02*
X48125000Y-184395000D01*
X48125000Y-205495000D02*
X48125000Y-204225000D01*
X40775000Y-205495000D02*
X40775000Y-204225000D01*
X40775000Y-183125000D02*
X48125000Y-183125000D01*
X40775000Y-205495000D02*
X48125000Y-205495000D01*
X40775000Y-184395000D02*
X39840000Y-184395000D01*
X129675000Y-124705000D02*
X129675000Y-125975000D01*
X137025000Y-124705000D02*
X137025000Y-125975000D01*
X137025000Y-147075000D02*
X137025000Y-145805000D01*
X129675000Y-147075000D02*
X129675000Y-145805000D01*
X129675000Y-124705000D02*
X137025000Y-124705000D01*
X129675000Y-147075000D02*
X137025000Y-147075000D01*
X129675000Y-125975000D02*
X128740000Y-125975000D01*
X142375000Y-183125000D02*
X142375000Y-184395000D01*
X149725000Y-183125000D02*
X149725000Y-184395000D01*
X149725000Y-202955000D02*
X149725000Y-201685000D01*
X142375000Y-202955000D02*
X142375000Y-201685000D01*
X142375000Y-183125000D02*
X149725000Y-183125000D01*
X142375000Y-202955000D02*
X149725000Y-202955000D01*
X142375000Y-184395000D02*
X141440000Y-184395000D01*
X142375000Y-152645000D02*
X142375000Y-153915000D01*
X149725000Y-152645000D02*
X149725000Y-153915000D01*
X149725000Y-172475000D02*
X149725000Y-171205000D01*
X142375000Y-172475000D02*
X142375000Y-171205000D01*
X142375000Y-152645000D02*
X149725000Y-152645000D01*
X142375000Y-172475000D02*
X149725000Y-172475000D01*
X142375000Y-153915000D02*
X141440000Y-153915000D01*
X147570000Y-151110000D02*
X144570000Y-151110000D01*
X144570000Y-148610000D02*
X147570000Y-148610000D01*
X134870000Y-181590000D02*
X131870000Y-181590000D01*
X131870000Y-179090000D02*
X134870000Y-179090000D01*
X47872424Y-25849840D02*
X47872424Y-24849840D01*
X48110520Y-24849840D01*
X48253377Y-24897460D01*
X48348615Y-24992698D01*
X48396234Y-25087936D01*
X48443853Y-25278412D01*
X48443853Y-25421269D01*
X48396234Y-25611745D01*
X48348615Y-25706983D01*
X48253377Y-25802221D01*
X48110520Y-25849840D01*
X47872424Y-25849840D01*
X48777186Y-24849840D02*
X49396234Y-24849840D01*
X49062900Y-25230793D01*
X49205758Y-25230793D01*
X49300996Y-25278412D01*
X49348615Y-25326031D01*
X49396234Y-25421269D01*
X49396234Y-25659364D01*
X49348615Y-25754602D01*
X49300996Y-25802221D01*
X49205758Y-25849840D01*
X48920043Y-25849840D01*
X48824805Y-25802221D01*
X48777186Y-25754602D01*
X54443333Y-162917142D02*
X54395714Y-162964761D01*
X54252857Y-163012380D01*
X54157619Y-163012380D01*
X54014761Y-162964761D01*
X53919523Y-162869523D01*
X53871904Y-162774285D01*
X53824285Y-162583809D01*
X53824285Y-162440952D01*
X53871904Y-162250476D01*
X53919523Y-162155238D01*
X54014761Y-162060000D01*
X54157619Y-162012380D01*
X54252857Y-162012380D01*
X54395714Y-162060000D01*
X54443333Y-162107619D01*
X55395714Y-163012380D02*
X54824285Y-163012380D01*
X55110000Y-163012380D02*
X55110000Y-162012380D01*
X55014761Y-162155238D01*
X54919523Y-162250476D01*
X54824285Y-162298095D01*
X59523333Y-162917142D02*
X59475714Y-162964761D01*
X59332857Y-163012380D01*
X59237619Y-163012380D01*
X59094761Y-162964761D01*
X58999523Y-162869523D01*
X58951904Y-162774285D01*
X58904285Y-162583809D01*
X58904285Y-162440952D01*
X58951904Y-162250476D01*
X58999523Y-162155238D01*
X59094761Y-162060000D01*
X59237619Y-162012380D01*
X59332857Y-162012380D01*
X59475714Y-162060000D01*
X59523333Y-162107619D01*
X59904285Y-162107619D02*
X59951904Y-162060000D01*
X60047142Y-162012380D01*
X60285238Y-162012380D01*
X60380476Y-162060000D01*
X60428095Y-162107619D01*
X60475714Y-162202857D01*
X60475714Y-162298095D01*
X60428095Y-162440952D01*
X59856666Y-163012380D01*
X60475714Y-163012380D01*
X56983333Y-174347142D02*
X56935714Y-174394761D01*
X56792857Y-174442380D01*
X56697619Y-174442380D01*
X56554761Y-174394761D01*
X56459523Y-174299523D01*
X56411904Y-174204285D01*
X56364285Y-174013809D01*
X56364285Y-173870952D01*
X56411904Y-173680476D01*
X56459523Y-173585238D01*
X56554761Y-173490000D01*
X56697619Y-173442380D01*
X56792857Y-173442380D01*
X56935714Y-173490000D01*
X56983333Y-173537619D01*
X57316666Y-173442380D02*
X57935714Y-173442380D01*
X57602380Y-173823333D01*
X57745238Y-173823333D01*
X57840476Y-173870952D01*
X57888095Y-173918571D01*
X57935714Y-174013809D01*
X57935714Y-174251904D01*
X57888095Y-174347142D01*
X57840476Y-174394761D01*
X57745238Y-174442380D01*
X57459523Y-174442380D01*
X57364285Y-174394761D01*
X57316666Y-174347142D01*
X59543333Y-27017142D02*
X59495714Y-27064761D01*
X59352857Y-27112380D01*
X59257619Y-27112380D01*
X59114761Y-27064761D01*
X59019523Y-26969523D01*
X58971904Y-26874285D01*
X58924285Y-26683809D01*
X58924285Y-26540952D01*
X58971904Y-26350476D01*
X59019523Y-26255238D01*
X59114761Y-26160000D01*
X59257619Y-26112380D01*
X59352857Y-26112380D01*
X59495714Y-26160000D01*
X59543333Y-26207619D01*
X60400476Y-26445714D02*
X60400476Y-27112380D01*
X60162380Y-26064761D02*
X59924285Y-26779047D01*
X60543333Y-26779047D01*
X35393333Y-30837142D02*
X35345714Y-30884761D01*
X35202857Y-30932380D01*
X35107619Y-30932380D01*
X34964761Y-30884761D01*
X34869523Y-30789523D01*
X34821904Y-30694285D01*
X34774285Y-30503809D01*
X34774285Y-30360952D01*
X34821904Y-30170476D01*
X34869523Y-30075238D01*
X34964761Y-29980000D01*
X35107619Y-29932380D01*
X35202857Y-29932380D01*
X35345714Y-29980000D01*
X35393333Y-30027619D01*
X36298095Y-29932380D02*
X35821904Y-29932380D01*
X35774285Y-30408571D01*
X35821904Y-30360952D01*
X35917142Y-30313333D01*
X36155238Y-30313333D01*
X36250476Y-30360952D01*
X36298095Y-30408571D01*
X36345714Y-30503809D01*
X36345714Y-30741904D01*
X36298095Y-30837142D01*
X36250476Y-30884761D01*
X36155238Y-30932380D01*
X35917142Y-30932380D01*
X35821904Y-30884761D01*
X35774285Y-30837142D01*
X55713333Y-30837142D02*
X55665714Y-30884761D01*
X55522857Y-30932380D01*
X55427619Y-30932380D01*
X55284761Y-30884761D01*
X55189523Y-30789523D01*
X55141904Y-30694285D01*
X55094285Y-30503809D01*
X55094285Y-30360952D01*
X55141904Y-30170476D01*
X55189523Y-30075238D01*
X55284761Y-29980000D01*
X55427619Y-29932380D01*
X55522857Y-29932380D01*
X55665714Y-29980000D01*
X55713333Y-30027619D01*
X56570476Y-29932380D02*
X56380000Y-29932380D01*
X56284761Y-29980000D01*
X56237142Y-30027619D01*
X56141904Y-30170476D01*
X56094285Y-30360952D01*
X56094285Y-30741904D01*
X56141904Y-30837142D01*
X56189523Y-30884761D01*
X56284761Y-30932380D01*
X56475238Y-30932380D01*
X56570476Y-30884761D01*
X56618095Y-30837142D01*
X56665714Y-30741904D01*
X56665714Y-30503809D01*
X56618095Y-30408571D01*
X56570476Y-30360952D01*
X56475238Y-30313333D01*
X56284761Y-30313333D01*
X56189523Y-30360952D01*
X56141904Y-30408571D01*
X56094285Y-30503809D01*
X79823333Y-30877142D02*
X79775714Y-30924761D01*
X79632857Y-30972380D01*
X79537619Y-30972380D01*
X79394761Y-30924761D01*
X79299523Y-30829523D01*
X79251904Y-30734285D01*
X79204285Y-30543809D01*
X79204285Y-30400952D01*
X79251904Y-30210476D01*
X79299523Y-30115238D01*
X79394761Y-30020000D01*
X79537619Y-29972380D01*
X79632857Y-29972380D01*
X79775714Y-30020000D01*
X79823333Y-30067619D01*
X80156666Y-29972380D02*
X80823333Y-29972380D01*
X80394761Y-30972380D01*
X103973333Y-30837142D02*
X103925714Y-30884761D01*
X103782857Y-30932380D01*
X103687619Y-30932380D01*
X103544761Y-30884761D01*
X103449523Y-30789523D01*
X103401904Y-30694285D01*
X103354285Y-30503809D01*
X103354285Y-30360952D01*
X103401904Y-30170476D01*
X103449523Y-30075238D01*
X103544761Y-29980000D01*
X103687619Y-29932380D01*
X103782857Y-29932380D01*
X103925714Y-29980000D01*
X103973333Y-30027619D01*
X104544761Y-30360952D02*
X104449523Y-30313333D01*
X104401904Y-30265714D01*
X104354285Y-30170476D01*
X104354285Y-30122857D01*
X104401904Y-30027619D01*
X104449523Y-29980000D01*
X104544761Y-29932380D01*
X104735238Y-29932380D01*
X104830476Y-29980000D01*
X104878095Y-30027619D01*
X104925714Y-30122857D01*
X104925714Y-30170476D01*
X104878095Y-30265714D01*
X104830476Y-30313333D01*
X104735238Y-30360952D01*
X104544761Y-30360952D01*
X104449523Y-30408571D01*
X104401904Y-30456190D01*
X104354285Y-30551428D01*
X104354285Y-30741904D01*
X104401904Y-30837142D01*
X104449523Y-30884761D01*
X104544761Y-30932380D01*
X104735238Y-30932380D01*
X104830476Y-30884761D01*
X104878095Y-30837142D01*
X104925714Y-30741904D01*
X104925714Y-30551428D01*
X104878095Y-30456190D01*
X104830476Y-30408571D01*
X104735238Y-30360952D01*
X124293333Y-30837142D02*
X124245714Y-30884761D01*
X124102857Y-30932380D01*
X124007619Y-30932380D01*
X123864761Y-30884761D01*
X123769523Y-30789523D01*
X123721904Y-30694285D01*
X123674285Y-30503809D01*
X123674285Y-30360952D01*
X123721904Y-30170476D01*
X123769523Y-30075238D01*
X123864761Y-29980000D01*
X124007619Y-29932380D01*
X124102857Y-29932380D01*
X124245714Y-29980000D01*
X124293333Y-30027619D01*
X124769523Y-30932380D02*
X124960000Y-30932380D01*
X125055238Y-30884761D01*
X125102857Y-30837142D01*
X125198095Y-30694285D01*
X125245714Y-30503809D01*
X125245714Y-30122857D01*
X125198095Y-30027619D01*
X125150476Y-29980000D01*
X125055238Y-29932380D01*
X124864761Y-29932380D01*
X124769523Y-29980000D01*
X124721904Y-30027619D01*
X124674285Y-30122857D01*
X124674285Y-30360952D01*
X124721904Y-30456190D01*
X124769523Y-30503809D01*
X124864761Y-30551428D01*
X125055238Y-30551428D01*
X125150476Y-30503809D01*
X125198095Y-30456190D01*
X125245714Y-30360952D01*
X124817142Y-150502857D02*
X124864761Y-150550476D01*
X124912380Y-150693333D01*
X124912380Y-150788571D01*
X124864761Y-150931428D01*
X124769523Y-151026666D01*
X124674285Y-151074285D01*
X124483809Y-151121904D01*
X124340952Y-151121904D01*
X124150476Y-151074285D01*
X124055238Y-151026666D01*
X123960000Y-150931428D01*
X123912380Y-150788571D01*
X123912380Y-150693333D01*
X123960000Y-150550476D01*
X124007619Y-150502857D01*
X124912380Y-149550476D02*
X124912380Y-150121904D01*
X124912380Y-149836190D02*
X123912380Y-149836190D01*
X124055238Y-149931428D01*
X124150476Y-150026666D01*
X124198095Y-150121904D01*
X123912380Y-148931428D02*
X123912380Y-148836190D01*
X123960000Y-148740952D01*
X124007619Y-148693333D01*
X124102857Y-148645714D01*
X124293333Y-148598095D01*
X124531428Y-148598095D01*
X124721904Y-148645714D01*
X124817142Y-148693333D01*
X124864761Y-148740952D01*
X124912380Y-148836190D01*
X124912380Y-148931428D01*
X124864761Y-149026666D01*
X124817142Y-149074285D01*
X124721904Y-149121904D01*
X124531428Y-149169523D01*
X124293333Y-149169523D01*
X124102857Y-149121904D01*
X124007619Y-149074285D01*
X123960000Y-149026666D01*
X123912380Y-148931428D01*
X34917142Y-76557142D02*
X34869523Y-76604761D01*
X34726666Y-76652380D01*
X34631428Y-76652380D01*
X34488571Y-76604761D01*
X34393333Y-76509523D01*
X34345714Y-76414285D01*
X34298095Y-76223809D01*
X34298095Y-76080952D01*
X34345714Y-75890476D01*
X34393333Y-75795238D01*
X34488571Y-75700000D01*
X34631428Y-75652380D01*
X34726666Y-75652380D01*
X34869523Y-75700000D01*
X34917142Y-75747619D01*
X35869523Y-76652380D02*
X35298095Y-76652380D01*
X35583809Y-76652380D02*
X35583809Y-75652380D01*
X35488571Y-75795238D01*
X35393333Y-75890476D01*
X35298095Y-75938095D01*
X36821904Y-76652380D02*
X36250476Y-76652380D01*
X36536190Y-76652380D02*
X36536190Y-75652380D01*
X36440952Y-75795238D01*
X36345714Y-75890476D01*
X36250476Y-75938095D01*
X55237142Y-76557142D02*
X55189523Y-76604761D01*
X55046666Y-76652380D01*
X54951428Y-76652380D01*
X54808571Y-76604761D01*
X54713333Y-76509523D01*
X54665714Y-76414285D01*
X54618095Y-76223809D01*
X54618095Y-76080952D01*
X54665714Y-75890476D01*
X54713333Y-75795238D01*
X54808571Y-75700000D01*
X54951428Y-75652380D01*
X55046666Y-75652380D01*
X55189523Y-75700000D01*
X55237142Y-75747619D01*
X56189523Y-76652380D02*
X55618095Y-76652380D01*
X55903809Y-76652380D02*
X55903809Y-75652380D01*
X55808571Y-75795238D01*
X55713333Y-75890476D01*
X55618095Y-75938095D01*
X56570476Y-75747619D02*
X56618095Y-75700000D01*
X56713333Y-75652380D01*
X56951428Y-75652380D01*
X57046666Y-75700000D01*
X57094285Y-75747619D01*
X57141904Y-75842857D01*
X57141904Y-75938095D01*
X57094285Y-76080952D01*
X56522857Y-76652380D01*
X57141904Y-76652380D01*
X102227142Y-76557142D02*
X102179523Y-76604761D01*
X102036666Y-76652380D01*
X101941428Y-76652380D01*
X101798571Y-76604761D01*
X101703333Y-76509523D01*
X101655714Y-76414285D01*
X101608095Y-76223809D01*
X101608095Y-76080952D01*
X101655714Y-75890476D01*
X101703333Y-75795238D01*
X101798571Y-75700000D01*
X101941428Y-75652380D01*
X102036666Y-75652380D01*
X102179523Y-75700000D01*
X102227142Y-75747619D01*
X103179523Y-76652380D02*
X102608095Y-76652380D01*
X102893809Y-76652380D02*
X102893809Y-75652380D01*
X102798571Y-75795238D01*
X102703333Y-75890476D01*
X102608095Y-75938095D01*
X103512857Y-75652380D02*
X104131904Y-75652380D01*
X103798571Y-76033333D01*
X103941428Y-76033333D01*
X104036666Y-76080952D01*
X104084285Y-76128571D01*
X104131904Y-76223809D01*
X104131904Y-76461904D01*
X104084285Y-76557142D01*
X104036666Y-76604761D01*
X103941428Y-76652380D01*
X103655714Y-76652380D01*
X103560476Y-76604761D01*
X103512857Y-76557142D01*
X123817142Y-76557142D02*
X123769523Y-76604761D01*
X123626666Y-76652380D01*
X123531428Y-76652380D01*
X123388571Y-76604761D01*
X123293333Y-76509523D01*
X123245714Y-76414285D01*
X123198095Y-76223809D01*
X123198095Y-76080952D01*
X123245714Y-75890476D01*
X123293333Y-75795238D01*
X123388571Y-75700000D01*
X123531428Y-75652380D01*
X123626666Y-75652380D01*
X123769523Y-75700000D01*
X123817142Y-75747619D01*
X124769523Y-76652380D02*
X124198095Y-76652380D01*
X124483809Y-76652380D02*
X124483809Y-75652380D01*
X124388571Y-75795238D01*
X124293333Y-75890476D01*
X124198095Y-75938095D01*
X125626666Y-75985714D02*
X125626666Y-76652380D01*
X125388571Y-75604761D02*
X125150476Y-76319047D01*
X125769523Y-76319047D01*
X144137142Y-30837142D02*
X144089523Y-30884761D01*
X143946666Y-30932380D01*
X143851428Y-30932380D01*
X143708571Y-30884761D01*
X143613333Y-30789523D01*
X143565714Y-30694285D01*
X143518095Y-30503809D01*
X143518095Y-30360952D01*
X143565714Y-30170476D01*
X143613333Y-30075238D01*
X143708571Y-29980000D01*
X143851428Y-29932380D01*
X143946666Y-29932380D01*
X144089523Y-29980000D01*
X144137142Y-30027619D01*
X145089523Y-30932380D02*
X144518095Y-30932380D01*
X144803809Y-30932380D02*
X144803809Y-29932380D01*
X144708571Y-30075238D01*
X144613333Y-30170476D01*
X144518095Y-30218095D01*
X145994285Y-29932380D02*
X145518095Y-29932380D01*
X145470476Y-30408571D01*
X145518095Y-30360952D01*
X145613333Y-30313333D01*
X145851428Y-30313333D01*
X145946666Y-30360952D01*
X145994285Y-30408571D01*
X146041904Y-30503809D01*
X146041904Y-30741904D01*
X145994285Y-30837142D01*
X145946666Y-30884761D01*
X145851428Y-30932380D01*
X145613333Y-30932380D01*
X145518095Y-30884761D01*
X145470476Y-30837142D01*
X137517142Y-150502857D02*
X137564761Y-150550476D01*
X137612380Y-150693333D01*
X137612380Y-150788571D01*
X137564761Y-150931428D01*
X137469523Y-151026666D01*
X137374285Y-151074285D01*
X137183809Y-151121904D01*
X137040952Y-151121904D01*
X136850476Y-151074285D01*
X136755238Y-151026666D01*
X136660000Y-150931428D01*
X136612380Y-150788571D01*
X136612380Y-150693333D01*
X136660000Y-150550476D01*
X136707619Y-150502857D01*
X137612380Y-149550476D02*
X137612380Y-150121904D01*
X137612380Y-149836190D02*
X136612380Y-149836190D01*
X136755238Y-149931428D01*
X136850476Y-150026666D01*
X136898095Y-150121904D01*
X136612380Y-148693333D02*
X136612380Y-148883809D01*
X136660000Y-148979047D01*
X136707619Y-149026666D01*
X136850476Y-149121904D01*
X137040952Y-149169523D01*
X137421904Y-149169523D01*
X137517142Y-149121904D01*
X137564761Y-149074285D01*
X137612380Y-148979047D01*
X137612380Y-148788571D01*
X137564761Y-148693333D01*
X137517142Y-148645714D01*
X137421904Y-148598095D01*
X137183809Y-148598095D01*
X137088571Y-148645714D01*
X137040952Y-148693333D01*
X136993333Y-148788571D01*
X136993333Y-148979047D01*
X137040952Y-149074285D01*
X137088571Y-149121904D01*
X137183809Y-149169523D01*
X145407142Y-178157142D02*
X145359523Y-178204761D01*
X145216666Y-178252380D01*
X145121428Y-178252380D01*
X144978571Y-178204761D01*
X144883333Y-178109523D01*
X144835714Y-178014285D01*
X144788095Y-177823809D01*
X144788095Y-177680952D01*
X144835714Y-177490476D01*
X144883333Y-177395238D01*
X144978571Y-177300000D01*
X145121428Y-177252380D01*
X145216666Y-177252380D01*
X145359523Y-177300000D01*
X145407142Y-177347619D01*
X146359523Y-178252380D02*
X145788095Y-178252380D01*
X146073809Y-178252380D02*
X146073809Y-177252380D01*
X145978571Y-177395238D01*
X145883333Y-177490476D01*
X145788095Y-177538095D01*
X146692857Y-177252380D02*
X147359523Y-177252380D01*
X146930952Y-178252380D01*
X47617142Y-122277142D02*
X47569523Y-122324761D01*
X47426666Y-122372380D01*
X47331428Y-122372380D01*
X47188571Y-122324761D01*
X47093333Y-122229523D01*
X47045714Y-122134285D01*
X46998095Y-121943809D01*
X46998095Y-121800952D01*
X47045714Y-121610476D01*
X47093333Y-121515238D01*
X47188571Y-121420000D01*
X47331428Y-121372380D01*
X47426666Y-121372380D01*
X47569523Y-121420000D01*
X47617142Y-121467619D01*
X48569523Y-122372380D02*
X47998095Y-122372380D01*
X48283809Y-122372380D02*
X48283809Y-121372380D01*
X48188571Y-121515238D01*
X48093333Y-121610476D01*
X47998095Y-121658095D01*
X49140952Y-121800952D02*
X49045714Y-121753333D01*
X48998095Y-121705714D01*
X48950476Y-121610476D01*
X48950476Y-121562857D01*
X48998095Y-121467619D01*
X49045714Y-121420000D01*
X49140952Y-121372380D01*
X49331428Y-121372380D01*
X49426666Y-121420000D01*
X49474285Y-121467619D01*
X49521904Y-121562857D01*
X49521904Y-121610476D01*
X49474285Y-121705714D01*
X49426666Y-121753333D01*
X49331428Y-121800952D01*
X49140952Y-121800952D01*
X49045714Y-121848571D01*
X48998095Y-121896190D01*
X48950476Y-121991428D01*
X48950476Y-122181904D01*
X48998095Y-122277142D01*
X49045714Y-122324761D01*
X49140952Y-122372380D01*
X49331428Y-122372380D01*
X49426666Y-122324761D01*
X49474285Y-122277142D01*
X49521904Y-122181904D01*
X49521904Y-121991428D01*
X49474285Y-121896190D01*
X49426666Y-121848571D01*
X49331428Y-121800952D01*
X60317142Y-122277142D02*
X60269523Y-122324761D01*
X60126666Y-122372380D01*
X60031428Y-122372380D01*
X59888571Y-122324761D01*
X59793333Y-122229523D01*
X59745714Y-122134285D01*
X59698095Y-121943809D01*
X59698095Y-121800952D01*
X59745714Y-121610476D01*
X59793333Y-121515238D01*
X59888571Y-121420000D01*
X60031428Y-121372380D01*
X60126666Y-121372380D01*
X60269523Y-121420000D01*
X60317142Y-121467619D01*
X61269523Y-122372380D02*
X60698095Y-122372380D01*
X60983809Y-122372380D02*
X60983809Y-121372380D01*
X60888571Y-121515238D01*
X60793333Y-121610476D01*
X60698095Y-121658095D01*
X61745714Y-122372380D02*
X61936190Y-122372380D01*
X62031428Y-122324761D01*
X62079047Y-122277142D01*
X62174285Y-122134285D01*
X62221904Y-121943809D01*
X62221904Y-121562857D01*
X62174285Y-121467619D01*
X62126666Y-121420000D01*
X62031428Y-121372380D01*
X61840952Y-121372380D01*
X61745714Y-121420000D01*
X61698095Y-121467619D01*
X61650476Y-121562857D01*
X61650476Y-121800952D01*
X61698095Y-121896190D01*
X61745714Y-121943809D01*
X61840952Y-121991428D01*
X62031428Y-121991428D01*
X62126666Y-121943809D01*
X62174285Y-121896190D01*
X62221904Y-121800952D01*
X73017142Y-122277142D02*
X72969523Y-122324761D01*
X72826666Y-122372380D01*
X72731428Y-122372380D01*
X72588571Y-122324761D01*
X72493333Y-122229523D01*
X72445714Y-122134285D01*
X72398095Y-121943809D01*
X72398095Y-121800952D01*
X72445714Y-121610476D01*
X72493333Y-121515238D01*
X72588571Y-121420000D01*
X72731428Y-121372380D01*
X72826666Y-121372380D01*
X72969523Y-121420000D01*
X73017142Y-121467619D01*
X73398095Y-121467619D02*
X73445714Y-121420000D01*
X73540952Y-121372380D01*
X73779047Y-121372380D01*
X73874285Y-121420000D01*
X73921904Y-121467619D01*
X73969523Y-121562857D01*
X73969523Y-121658095D01*
X73921904Y-121800952D01*
X73350476Y-122372380D01*
X73969523Y-122372380D01*
X74588571Y-121372380D02*
X74683809Y-121372380D01*
X74779047Y-121420000D01*
X74826666Y-121467619D01*
X74874285Y-121562857D01*
X74921904Y-121753333D01*
X74921904Y-121991428D01*
X74874285Y-122181904D01*
X74826666Y-122277142D01*
X74779047Y-122324761D01*
X74683809Y-122372380D01*
X74588571Y-122372380D01*
X74493333Y-122324761D01*
X74445714Y-122277142D01*
X74398095Y-122181904D01*
X74350476Y-121991428D01*
X74350476Y-121753333D01*
X74398095Y-121562857D01*
X74445714Y-121467619D01*
X74493333Y-121420000D01*
X74588571Y-121372380D01*
X136517142Y-122277142D02*
X136469523Y-122324761D01*
X136326666Y-122372380D01*
X136231428Y-122372380D01*
X136088571Y-122324761D01*
X135993333Y-122229523D01*
X135945714Y-122134285D01*
X135898095Y-121943809D01*
X135898095Y-121800952D01*
X135945714Y-121610476D01*
X135993333Y-121515238D01*
X136088571Y-121420000D01*
X136231428Y-121372380D01*
X136326666Y-121372380D01*
X136469523Y-121420000D01*
X136517142Y-121467619D01*
X136898095Y-121467619D02*
X136945714Y-121420000D01*
X137040952Y-121372380D01*
X137279047Y-121372380D01*
X137374285Y-121420000D01*
X137421904Y-121467619D01*
X137469523Y-121562857D01*
X137469523Y-121658095D01*
X137421904Y-121800952D01*
X136850476Y-122372380D01*
X137469523Y-122372380D01*
X138421904Y-122372380D02*
X137850476Y-122372380D01*
X138136190Y-122372380D02*
X138136190Y-121372380D01*
X138040952Y-121515238D01*
X137945714Y-121610476D01*
X137850476Y-121658095D01*
X123817142Y-122277142D02*
X123769523Y-122324761D01*
X123626666Y-122372380D01*
X123531428Y-122372380D01*
X123388571Y-122324761D01*
X123293333Y-122229523D01*
X123245714Y-122134285D01*
X123198095Y-121943809D01*
X123198095Y-121800952D01*
X123245714Y-121610476D01*
X123293333Y-121515238D01*
X123388571Y-121420000D01*
X123531428Y-121372380D01*
X123626666Y-121372380D01*
X123769523Y-121420000D01*
X123817142Y-121467619D01*
X124198095Y-121467619D02*
X124245714Y-121420000D01*
X124340952Y-121372380D01*
X124579047Y-121372380D01*
X124674285Y-121420000D01*
X124721904Y-121467619D01*
X124769523Y-121562857D01*
X124769523Y-121658095D01*
X124721904Y-121800952D01*
X124150476Y-122372380D01*
X124769523Y-122372380D01*
X125150476Y-121467619D02*
X125198095Y-121420000D01*
X125293333Y-121372380D01*
X125531428Y-121372380D01*
X125626666Y-121420000D01*
X125674285Y-121467619D01*
X125721904Y-121562857D01*
X125721904Y-121658095D01*
X125674285Y-121800952D01*
X125102857Y-122372380D01*
X125721904Y-122372380D01*
X98417142Y-122277142D02*
X98369523Y-122324761D01*
X98226666Y-122372380D01*
X98131428Y-122372380D01*
X97988571Y-122324761D01*
X97893333Y-122229523D01*
X97845714Y-122134285D01*
X97798095Y-121943809D01*
X97798095Y-121800952D01*
X97845714Y-121610476D01*
X97893333Y-121515238D01*
X97988571Y-121420000D01*
X98131428Y-121372380D01*
X98226666Y-121372380D01*
X98369523Y-121420000D01*
X98417142Y-121467619D01*
X98798095Y-121467619D02*
X98845714Y-121420000D01*
X98940952Y-121372380D01*
X99179047Y-121372380D01*
X99274285Y-121420000D01*
X99321904Y-121467619D01*
X99369523Y-121562857D01*
X99369523Y-121658095D01*
X99321904Y-121800952D01*
X98750476Y-122372380D01*
X99369523Y-122372380D01*
X99702857Y-121372380D02*
X100321904Y-121372380D01*
X99988571Y-121753333D01*
X100131428Y-121753333D01*
X100226666Y-121800952D01*
X100274285Y-121848571D01*
X100321904Y-121943809D01*
X100321904Y-122181904D01*
X100274285Y-122277142D01*
X100226666Y-122324761D01*
X100131428Y-122372380D01*
X99845714Y-122372380D01*
X99750476Y-122324761D01*
X99702857Y-122277142D01*
X111117142Y-122277142D02*
X111069523Y-122324761D01*
X110926666Y-122372380D01*
X110831428Y-122372380D01*
X110688571Y-122324761D01*
X110593333Y-122229523D01*
X110545714Y-122134285D01*
X110498095Y-121943809D01*
X110498095Y-121800952D01*
X110545714Y-121610476D01*
X110593333Y-121515238D01*
X110688571Y-121420000D01*
X110831428Y-121372380D01*
X110926666Y-121372380D01*
X111069523Y-121420000D01*
X111117142Y-121467619D01*
X111498095Y-121467619D02*
X111545714Y-121420000D01*
X111640952Y-121372380D01*
X111879047Y-121372380D01*
X111974285Y-121420000D01*
X112021904Y-121467619D01*
X112069523Y-121562857D01*
X112069523Y-121658095D01*
X112021904Y-121800952D01*
X111450476Y-122372380D01*
X112069523Y-122372380D01*
X112926666Y-121705714D02*
X112926666Y-122372380D01*
X112688571Y-121324761D02*
X112450476Y-122039047D01*
X113069523Y-122039047D01*
X31107142Y-147677142D02*
X31059523Y-147724761D01*
X30916666Y-147772380D01*
X30821428Y-147772380D01*
X30678571Y-147724761D01*
X30583333Y-147629523D01*
X30535714Y-147534285D01*
X30488095Y-147343809D01*
X30488095Y-147200952D01*
X30535714Y-147010476D01*
X30583333Y-146915238D01*
X30678571Y-146820000D01*
X30821428Y-146772380D01*
X30916666Y-146772380D01*
X31059523Y-146820000D01*
X31107142Y-146867619D01*
X31488095Y-146867619D02*
X31535714Y-146820000D01*
X31630952Y-146772380D01*
X31869047Y-146772380D01*
X31964285Y-146820000D01*
X32011904Y-146867619D01*
X32059523Y-146962857D01*
X32059523Y-147058095D01*
X32011904Y-147200952D01*
X31440476Y-147772380D01*
X32059523Y-147772380D01*
X32964285Y-146772380D02*
X32488095Y-146772380D01*
X32440476Y-147248571D01*
X32488095Y-147200952D01*
X32583333Y-147153333D01*
X32821428Y-147153333D01*
X32916666Y-147200952D01*
X32964285Y-147248571D01*
X33011904Y-147343809D01*
X33011904Y-147581904D01*
X32964285Y-147677142D01*
X32916666Y-147724761D01*
X32821428Y-147772380D01*
X32583333Y-147772380D01*
X32488095Y-147724761D01*
X32440476Y-147677142D01*
X43807142Y-147677142D02*
X43759523Y-147724761D01*
X43616666Y-147772380D01*
X43521428Y-147772380D01*
X43378571Y-147724761D01*
X43283333Y-147629523D01*
X43235714Y-147534285D01*
X43188095Y-147343809D01*
X43188095Y-147200952D01*
X43235714Y-147010476D01*
X43283333Y-146915238D01*
X43378571Y-146820000D01*
X43521428Y-146772380D01*
X43616666Y-146772380D01*
X43759523Y-146820000D01*
X43807142Y-146867619D01*
X44188095Y-146867619D02*
X44235714Y-146820000D01*
X44330952Y-146772380D01*
X44569047Y-146772380D01*
X44664285Y-146820000D01*
X44711904Y-146867619D01*
X44759523Y-146962857D01*
X44759523Y-147058095D01*
X44711904Y-147200952D01*
X44140476Y-147772380D01*
X44759523Y-147772380D01*
X45616666Y-146772380D02*
X45426190Y-146772380D01*
X45330952Y-146820000D01*
X45283333Y-146867619D01*
X45188095Y-147010476D01*
X45140476Y-147200952D01*
X45140476Y-147581904D01*
X45188095Y-147677142D01*
X45235714Y-147724761D01*
X45330952Y-147772380D01*
X45521428Y-147772380D01*
X45616666Y-147724761D01*
X45664285Y-147677142D01*
X45711904Y-147581904D01*
X45711904Y-147343809D01*
X45664285Y-147248571D01*
X45616666Y-147200952D01*
X45521428Y-147153333D01*
X45330952Y-147153333D01*
X45235714Y-147200952D01*
X45188095Y-147248571D01*
X45140476Y-147343809D01*
X94607142Y-147677142D02*
X94559523Y-147724761D01*
X94416666Y-147772380D01*
X94321428Y-147772380D01*
X94178571Y-147724761D01*
X94083333Y-147629523D01*
X94035714Y-147534285D01*
X93988095Y-147343809D01*
X93988095Y-147200952D01*
X94035714Y-147010476D01*
X94083333Y-146915238D01*
X94178571Y-146820000D01*
X94321428Y-146772380D01*
X94416666Y-146772380D01*
X94559523Y-146820000D01*
X94607142Y-146867619D01*
X94988095Y-146867619D02*
X95035714Y-146820000D01*
X95130952Y-146772380D01*
X95369047Y-146772380D01*
X95464285Y-146820000D01*
X95511904Y-146867619D01*
X95559523Y-146962857D01*
X95559523Y-147058095D01*
X95511904Y-147200952D01*
X94940476Y-147772380D01*
X95559523Y-147772380D01*
X95892857Y-146772380D02*
X96559523Y-146772380D01*
X96130952Y-147772380D01*
X69207142Y-147677142D02*
X69159523Y-147724761D01*
X69016666Y-147772380D01*
X68921428Y-147772380D01*
X68778571Y-147724761D01*
X68683333Y-147629523D01*
X68635714Y-147534285D01*
X68588095Y-147343809D01*
X68588095Y-147200952D01*
X68635714Y-147010476D01*
X68683333Y-146915238D01*
X68778571Y-146820000D01*
X68921428Y-146772380D01*
X69016666Y-146772380D01*
X69159523Y-146820000D01*
X69207142Y-146867619D01*
X69588095Y-146867619D02*
X69635714Y-146820000D01*
X69730952Y-146772380D01*
X69969047Y-146772380D01*
X70064285Y-146820000D01*
X70111904Y-146867619D01*
X70159523Y-146962857D01*
X70159523Y-147058095D01*
X70111904Y-147200952D01*
X69540476Y-147772380D01*
X70159523Y-147772380D01*
X70730952Y-147200952D02*
X70635714Y-147153333D01*
X70588095Y-147105714D01*
X70540476Y-147010476D01*
X70540476Y-146962857D01*
X70588095Y-146867619D01*
X70635714Y-146820000D01*
X70730952Y-146772380D01*
X70921428Y-146772380D01*
X71016666Y-146820000D01*
X71064285Y-146867619D01*
X71111904Y-146962857D01*
X71111904Y-147010476D01*
X71064285Y-147105714D01*
X71016666Y-147153333D01*
X70921428Y-147200952D01*
X70730952Y-147200952D01*
X70635714Y-147248571D01*
X70588095Y-147296190D01*
X70540476Y-147391428D01*
X70540476Y-147581904D01*
X70588095Y-147677142D01*
X70635714Y-147724761D01*
X70730952Y-147772380D01*
X70921428Y-147772380D01*
X71016666Y-147724761D01*
X71064285Y-147677142D01*
X71111904Y-147581904D01*
X71111904Y-147391428D01*
X71064285Y-147296190D01*
X71016666Y-147248571D01*
X70921428Y-147200952D01*
X81907142Y-147677142D02*
X81859523Y-147724761D01*
X81716666Y-147772380D01*
X81621428Y-147772380D01*
X81478571Y-147724761D01*
X81383333Y-147629523D01*
X81335714Y-147534285D01*
X81288095Y-147343809D01*
X81288095Y-147200952D01*
X81335714Y-147010476D01*
X81383333Y-146915238D01*
X81478571Y-146820000D01*
X81621428Y-146772380D01*
X81716666Y-146772380D01*
X81859523Y-146820000D01*
X81907142Y-146867619D01*
X82288095Y-146867619D02*
X82335714Y-146820000D01*
X82430952Y-146772380D01*
X82669047Y-146772380D01*
X82764285Y-146820000D01*
X82811904Y-146867619D01*
X82859523Y-146962857D01*
X82859523Y-147058095D01*
X82811904Y-147200952D01*
X82240476Y-147772380D01*
X82859523Y-147772380D01*
X83335714Y-147772380D02*
X83526190Y-147772380D01*
X83621428Y-147724761D01*
X83669047Y-147677142D01*
X83764285Y-147534285D01*
X83811904Y-147343809D01*
X83811904Y-146962857D01*
X83764285Y-146867619D01*
X83716666Y-146820000D01*
X83621428Y-146772380D01*
X83430952Y-146772380D01*
X83335714Y-146820000D01*
X83288095Y-146867619D01*
X83240476Y-146962857D01*
X83240476Y-147200952D01*
X83288095Y-147296190D01*
X83335714Y-147343809D01*
X83430952Y-147391428D01*
X83621428Y-147391428D01*
X83716666Y-147343809D01*
X83764285Y-147296190D01*
X83811904Y-147200952D01*
X144137142Y-76557142D02*
X144089523Y-76604761D01*
X143946666Y-76652380D01*
X143851428Y-76652380D01*
X143708571Y-76604761D01*
X143613333Y-76509523D01*
X143565714Y-76414285D01*
X143518095Y-76223809D01*
X143518095Y-76080952D01*
X143565714Y-75890476D01*
X143613333Y-75795238D01*
X143708571Y-75700000D01*
X143851428Y-75652380D01*
X143946666Y-75652380D01*
X144089523Y-75700000D01*
X144137142Y-75747619D01*
X144470476Y-75652380D02*
X145089523Y-75652380D01*
X144756190Y-76033333D01*
X144899047Y-76033333D01*
X144994285Y-76080952D01*
X145041904Y-76128571D01*
X145089523Y-76223809D01*
X145089523Y-76461904D01*
X145041904Y-76557142D01*
X144994285Y-76604761D01*
X144899047Y-76652380D01*
X144613333Y-76652380D01*
X144518095Y-76604761D01*
X144470476Y-76557142D01*
X145708571Y-75652380D02*
X145803809Y-75652380D01*
X145899047Y-75700000D01*
X145946666Y-75747619D01*
X145994285Y-75842857D01*
X146041904Y-76033333D01*
X146041904Y-76271428D01*
X145994285Y-76461904D01*
X145946666Y-76557142D01*
X145899047Y-76604761D01*
X145803809Y-76652380D01*
X145708571Y-76652380D01*
X145613333Y-76604761D01*
X145565714Y-76557142D01*
X145518095Y-76461904D01*
X145470476Y-76271428D01*
X145470476Y-76033333D01*
X145518095Y-75842857D01*
X145565714Y-75747619D01*
X145613333Y-75700000D01*
X145708571Y-75652380D01*
X31107142Y-178157142D02*
X31059523Y-178204761D01*
X30916666Y-178252380D01*
X30821428Y-178252380D01*
X30678571Y-178204761D01*
X30583333Y-178109523D01*
X30535714Y-178014285D01*
X30488095Y-177823809D01*
X30488095Y-177680952D01*
X30535714Y-177490476D01*
X30583333Y-177395238D01*
X30678571Y-177300000D01*
X30821428Y-177252380D01*
X30916666Y-177252380D01*
X31059523Y-177300000D01*
X31107142Y-177347619D01*
X31440476Y-177252380D02*
X32059523Y-177252380D01*
X31726190Y-177633333D01*
X31869047Y-177633333D01*
X31964285Y-177680952D01*
X32011904Y-177728571D01*
X32059523Y-177823809D01*
X32059523Y-178061904D01*
X32011904Y-178157142D01*
X31964285Y-178204761D01*
X31869047Y-178252380D01*
X31583333Y-178252380D01*
X31488095Y-178204761D01*
X31440476Y-178157142D01*
X33011904Y-178252380D02*
X32440476Y-178252380D01*
X32726190Y-178252380D02*
X32726190Y-177252380D01*
X32630952Y-177395238D01*
X32535714Y-177490476D01*
X32440476Y-177538095D01*
X43807142Y-178157142D02*
X43759523Y-178204761D01*
X43616666Y-178252380D01*
X43521428Y-178252380D01*
X43378571Y-178204761D01*
X43283333Y-178109523D01*
X43235714Y-178014285D01*
X43188095Y-177823809D01*
X43188095Y-177680952D01*
X43235714Y-177490476D01*
X43283333Y-177395238D01*
X43378571Y-177300000D01*
X43521428Y-177252380D01*
X43616666Y-177252380D01*
X43759523Y-177300000D01*
X43807142Y-177347619D01*
X44140476Y-177252380D02*
X44759523Y-177252380D01*
X44426190Y-177633333D01*
X44569047Y-177633333D01*
X44664285Y-177680952D01*
X44711904Y-177728571D01*
X44759523Y-177823809D01*
X44759523Y-178061904D01*
X44711904Y-178157142D01*
X44664285Y-178204761D01*
X44569047Y-178252380D01*
X44283333Y-178252380D01*
X44188095Y-178204761D01*
X44140476Y-178157142D01*
X45140476Y-177347619D02*
X45188095Y-177300000D01*
X45283333Y-177252380D01*
X45521428Y-177252380D01*
X45616666Y-177300000D01*
X45664285Y-177347619D01*
X45711904Y-177442857D01*
X45711904Y-177538095D01*
X45664285Y-177680952D01*
X45092857Y-178252380D01*
X45711904Y-178252380D01*
X56507142Y-178157142D02*
X56459523Y-178204761D01*
X56316666Y-178252380D01*
X56221428Y-178252380D01*
X56078571Y-178204761D01*
X55983333Y-178109523D01*
X55935714Y-178014285D01*
X55888095Y-177823809D01*
X55888095Y-177680952D01*
X55935714Y-177490476D01*
X55983333Y-177395238D01*
X56078571Y-177300000D01*
X56221428Y-177252380D01*
X56316666Y-177252380D01*
X56459523Y-177300000D01*
X56507142Y-177347619D01*
X56840476Y-177252380D02*
X57459523Y-177252380D01*
X57126190Y-177633333D01*
X57269047Y-177633333D01*
X57364285Y-177680952D01*
X57411904Y-177728571D01*
X57459523Y-177823809D01*
X57459523Y-178061904D01*
X57411904Y-178157142D01*
X57364285Y-178204761D01*
X57269047Y-178252380D01*
X56983333Y-178252380D01*
X56888095Y-178204761D01*
X56840476Y-178157142D01*
X57792857Y-177252380D02*
X58411904Y-177252380D01*
X58078571Y-177633333D01*
X58221428Y-177633333D01*
X58316666Y-177680952D01*
X58364285Y-177728571D01*
X58411904Y-177823809D01*
X58411904Y-178061904D01*
X58364285Y-178157142D01*
X58316666Y-178204761D01*
X58221428Y-178252380D01*
X57935714Y-178252380D01*
X57840476Y-178204761D01*
X57792857Y-178157142D01*
X69207142Y-178157142D02*
X69159523Y-178204761D01*
X69016666Y-178252380D01*
X68921428Y-178252380D01*
X68778571Y-178204761D01*
X68683333Y-178109523D01*
X68635714Y-178014285D01*
X68588095Y-177823809D01*
X68588095Y-177680952D01*
X68635714Y-177490476D01*
X68683333Y-177395238D01*
X68778571Y-177300000D01*
X68921428Y-177252380D01*
X69016666Y-177252380D01*
X69159523Y-177300000D01*
X69207142Y-177347619D01*
X69540476Y-177252380D02*
X70159523Y-177252380D01*
X69826190Y-177633333D01*
X69969047Y-177633333D01*
X70064285Y-177680952D01*
X70111904Y-177728571D01*
X70159523Y-177823809D01*
X70159523Y-178061904D01*
X70111904Y-178157142D01*
X70064285Y-178204761D01*
X69969047Y-178252380D01*
X69683333Y-178252380D01*
X69588095Y-178204761D01*
X69540476Y-178157142D01*
X71016666Y-177585714D02*
X71016666Y-178252380D01*
X70778571Y-177204761D02*
X70540476Y-177919047D01*
X71159523Y-177919047D01*
X81907142Y-178157142D02*
X81859523Y-178204761D01*
X81716666Y-178252380D01*
X81621428Y-178252380D01*
X81478571Y-178204761D01*
X81383333Y-178109523D01*
X81335714Y-178014285D01*
X81288095Y-177823809D01*
X81288095Y-177680952D01*
X81335714Y-177490476D01*
X81383333Y-177395238D01*
X81478571Y-177300000D01*
X81621428Y-177252380D01*
X81716666Y-177252380D01*
X81859523Y-177300000D01*
X81907142Y-177347619D01*
X82240476Y-177252380D02*
X82859523Y-177252380D01*
X82526190Y-177633333D01*
X82669047Y-177633333D01*
X82764285Y-177680952D01*
X82811904Y-177728571D01*
X82859523Y-177823809D01*
X82859523Y-178061904D01*
X82811904Y-178157142D01*
X82764285Y-178204761D01*
X82669047Y-178252380D01*
X82383333Y-178252380D01*
X82288095Y-178204761D01*
X82240476Y-178157142D01*
X83764285Y-177252380D02*
X83288095Y-177252380D01*
X83240476Y-177728571D01*
X83288095Y-177680952D01*
X83383333Y-177633333D01*
X83621428Y-177633333D01*
X83716666Y-177680952D01*
X83764285Y-177728571D01*
X83811904Y-177823809D01*
X83811904Y-178061904D01*
X83764285Y-178157142D01*
X83716666Y-178204761D01*
X83621428Y-178252380D01*
X83383333Y-178252380D01*
X83288095Y-178204761D01*
X83240476Y-178157142D01*
X94607142Y-178157142D02*
X94559523Y-178204761D01*
X94416666Y-178252380D01*
X94321428Y-178252380D01*
X94178571Y-178204761D01*
X94083333Y-178109523D01*
X94035714Y-178014285D01*
X93988095Y-177823809D01*
X93988095Y-177680952D01*
X94035714Y-177490476D01*
X94083333Y-177395238D01*
X94178571Y-177300000D01*
X94321428Y-177252380D01*
X94416666Y-177252380D01*
X94559523Y-177300000D01*
X94607142Y-177347619D01*
X94940476Y-177252380D02*
X95559523Y-177252380D01*
X95226190Y-177633333D01*
X95369047Y-177633333D01*
X95464285Y-177680952D01*
X95511904Y-177728571D01*
X95559523Y-177823809D01*
X95559523Y-178061904D01*
X95511904Y-178157142D01*
X95464285Y-178204761D01*
X95369047Y-178252380D01*
X95083333Y-178252380D01*
X94988095Y-178204761D01*
X94940476Y-178157142D01*
X96416666Y-177252380D02*
X96226190Y-177252380D01*
X96130952Y-177300000D01*
X96083333Y-177347619D01*
X95988095Y-177490476D01*
X95940476Y-177680952D01*
X95940476Y-178061904D01*
X95988095Y-178157142D01*
X96035714Y-178204761D01*
X96130952Y-178252380D01*
X96321428Y-178252380D01*
X96416666Y-178204761D01*
X96464285Y-178157142D01*
X96511904Y-178061904D01*
X96511904Y-177823809D01*
X96464285Y-177728571D01*
X96416666Y-177680952D01*
X96321428Y-177633333D01*
X96130952Y-177633333D01*
X96035714Y-177680952D01*
X95988095Y-177728571D01*
X95940476Y-177823809D01*
X107307142Y-178157142D02*
X107259523Y-178204761D01*
X107116666Y-178252380D01*
X107021428Y-178252380D01*
X106878571Y-178204761D01*
X106783333Y-178109523D01*
X106735714Y-178014285D01*
X106688095Y-177823809D01*
X106688095Y-177680952D01*
X106735714Y-177490476D01*
X106783333Y-177395238D01*
X106878571Y-177300000D01*
X107021428Y-177252380D01*
X107116666Y-177252380D01*
X107259523Y-177300000D01*
X107307142Y-177347619D01*
X107640476Y-177252380D02*
X108259523Y-177252380D01*
X107926190Y-177633333D01*
X108069047Y-177633333D01*
X108164285Y-177680952D01*
X108211904Y-177728571D01*
X108259523Y-177823809D01*
X108259523Y-178061904D01*
X108211904Y-178157142D01*
X108164285Y-178204761D01*
X108069047Y-178252380D01*
X107783333Y-178252380D01*
X107688095Y-178204761D01*
X107640476Y-178157142D01*
X108592857Y-177252380D02*
X109259523Y-177252380D01*
X108830952Y-178252380D01*
X120007142Y-178157142D02*
X119959523Y-178204761D01*
X119816666Y-178252380D01*
X119721428Y-178252380D01*
X119578571Y-178204761D01*
X119483333Y-178109523D01*
X119435714Y-178014285D01*
X119388095Y-177823809D01*
X119388095Y-177680952D01*
X119435714Y-177490476D01*
X119483333Y-177395238D01*
X119578571Y-177300000D01*
X119721428Y-177252380D01*
X119816666Y-177252380D01*
X119959523Y-177300000D01*
X120007142Y-177347619D01*
X120340476Y-177252380D02*
X120959523Y-177252380D01*
X120626190Y-177633333D01*
X120769047Y-177633333D01*
X120864285Y-177680952D01*
X120911904Y-177728571D01*
X120959523Y-177823809D01*
X120959523Y-178061904D01*
X120911904Y-178157142D01*
X120864285Y-178204761D01*
X120769047Y-178252380D01*
X120483333Y-178252380D01*
X120388095Y-178204761D01*
X120340476Y-178157142D01*
X121530952Y-177680952D02*
X121435714Y-177633333D01*
X121388095Y-177585714D01*
X121340476Y-177490476D01*
X121340476Y-177442857D01*
X121388095Y-177347619D01*
X121435714Y-177300000D01*
X121530952Y-177252380D01*
X121721428Y-177252380D01*
X121816666Y-177300000D01*
X121864285Y-177347619D01*
X121911904Y-177442857D01*
X121911904Y-177490476D01*
X121864285Y-177585714D01*
X121816666Y-177633333D01*
X121721428Y-177680952D01*
X121530952Y-177680952D01*
X121435714Y-177728571D01*
X121388095Y-177776190D01*
X121340476Y-177871428D01*
X121340476Y-178061904D01*
X121388095Y-178157142D01*
X121435714Y-178204761D01*
X121530952Y-178252380D01*
X121721428Y-178252380D01*
X121816666Y-178204761D01*
X121864285Y-178157142D01*
X121911904Y-178061904D01*
X121911904Y-177871428D01*
X121864285Y-177776190D01*
X121816666Y-177728571D01*
X121721428Y-177680952D01*
X69111904Y-211182380D02*
X69111904Y-210182380D01*
X69350000Y-210182380D01*
X69492857Y-210230000D01*
X69588095Y-210325238D01*
X69635714Y-210420476D01*
X69683333Y-210610952D01*
X69683333Y-210753809D01*
X69635714Y-210944285D01*
X69588095Y-211039523D01*
X69492857Y-211134761D01*
X69350000Y-211182380D01*
X69111904Y-211182380D01*
X70635714Y-211182380D02*
X70064285Y-211182380D01*
X70350000Y-211182380D02*
X70350000Y-210182380D01*
X70254761Y-210325238D01*
X70159523Y-210420476D01*
X70064285Y-210468095D01*
X89431904Y-211182380D02*
X89431904Y-210182380D01*
X89670000Y-210182380D01*
X89812857Y-210230000D01*
X89908095Y-210325238D01*
X89955714Y-210420476D01*
X90003333Y-210610952D01*
X90003333Y-210753809D01*
X89955714Y-210944285D01*
X89908095Y-211039523D01*
X89812857Y-211134761D01*
X89670000Y-211182380D01*
X89431904Y-211182380D01*
X90384285Y-210277619D02*
X90431904Y-210230000D01*
X90527142Y-210182380D01*
X90765238Y-210182380D01*
X90860476Y-210230000D01*
X90908095Y-210277619D01*
X90955714Y-210372857D01*
X90955714Y-210468095D01*
X90908095Y-210610952D01*
X90336666Y-211182380D01*
X90955714Y-211182380D01*
X83081904Y-23312380D02*
X83081904Y-22312380D01*
X83462857Y-22312380D01*
X83558095Y-22360000D01*
X83605714Y-22407619D01*
X83653333Y-22502857D01*
X83653333Y-22645714D01*
X83605714Y-22740952D01*
X83558095Y-22788571D01*
X83462857Y-22836190D01*
X83081904Y-22836190D01*
X84605714Y-23312380D02*
X84034285Y-23312380D01*
X84320000Y-23312380D02*
X84320000Y-22312380D01*
X84224761Y-22455238D01*
X84129523Y-22550476D01*
X84034285Y-22598095D01*
X111021904Y-23312380D02*
X111021904Y-22312380D01*
X111402857Y-22312380D01*
X111498095Y-22360000D01*
X111545714Y-22407619D01*
X111593333Y-22502857D01*
X111593333Y-22645714D01*
X111545714Y-22740952D01*
X111498095Y-22788571D01*
X111402857Y-22836190D01*
X111021904Y-22836190D01*
X111974285Y-22407619D02*
X112021904Y-22360000D01*
X112117142Y-22312380D01*
X112355238Y-22312380D01*
X112450476Y-22360000D01*
X112498095Y-22407619D01*
X112545714Y-22502857D01*
X112545714Y-22598095D01*
X112498095Y-22740952D01*
X111926666Y-23312380D01*
X112545714Y-23312380D01*
X70381904Y-28392380D02*
X70381904Y-27392380D01*
X70762857Y-27392380D01*
X70858095Y-27440000D01*
X70905714Y-27487619D01*
X70953333Y-27582857D01*
X70953333Y-27725714D01*
X70905714Y-27820952D01*
X70858095Y-27868571D01*
X70762857Y-27916190D01*
X70381904Y-27916190D01*
X71286666Y-27392380D02*
X71905714Y-27392380D01*
X71572380Y-27773333D01*
X71715238Y-27773333D01*
X71810476Y-27820952D01*
X71858095Y-27868571D01*
X71905714Y-27963809D01*
X71905714Y-28201904D01*
X71858095Y-28297142D01*
X71810476Y-28344761D01*
X71715238Y-28392380D01*
X71429523Y-28392380D01*
X71334285Y-28344761D01*
X71286666Y-28297142D01*
X56983333Y-152852380D02*
X56650000Y-152376190D01*
X56411904Y-152852380D02*
X56411904Y-151852380D01*
X56792857Y-151852380D01*
X56888095Y-151900000D01*
X56935714Y-151947619D01*
X56983333Y-152042857D01*
X56983333Y-152185714D01*
X56935714Y-152280952D01*
X56888095Y-152328571D01*
X56792857Y-152376190D01*
X56411904Y-152376190D01*
X57935714Y-152852380D02*
X57364285Y-152852380D01*
X57650000Y-152852380D02*
X57650000Y-151852380D01*
X57554761Y-151995238D01*
X57459523Y-152090476D01*
X57364285Y-152138095D01*
X56983333Y-157932380D02*
X56650000Y-157456190D01*
X56411904Y-157932380D02*
X56411904Y-156932380D01*
X56792857Y-156932380D01*
X56888095Y-156980000D01*
X56935714Y-157027619D01*
X56983333Y-157122857D01*
X56983333Y-157265714D01*
X56935714Y-157360952D01*
X56888095Y-157408571D01*
X56792857Y-157456190D01*
X56411904Y-157456190D01*
X57840476Y-157265714D02*
X57840476Y-157932380D01*
X57602380Y-156884761D02*
X57364285Y-157599047D01*
X57983333Y-157599047D01*
X73493333Y-204922380D02*
X73160000Y-204446190D01*
X72921904Y-204922380D02*
X72921904Y-203922380D01*
X73302857Y-203922380D01*
X73398095Y-203970000D01*
X73445714Y-204017619D01*
X73493333Y-204112857D01*
X73493333Y-204255714D01*
X73445714Y-204350952D01*
X73398095Y-204398571D01*
X73302857Y-204446190D01*
X72921904Y-204446190D01*
X74350476Y-203922380D02*
X74160000Y-203922380D01*
X74064761Y-203970000D01*
X74017142Y-204017619D01*
X73921904Y-204160476D01*
X73874285Y-204350952D01*
X73874285Y-204731904D01*
X73921904Y-204827142D01*
X73969523Y-204874761D01*
X74064761Y-204922380D01*
X74255238Y-204922380D01*
X74350476Y-204874761D01*
X74398095Y-204827142D01*
X74445714Y-204731904D01*
X74445714Y-204493809D01*
X74398095Y-204398571D01*
X74350476Y-204350952D01*
X74255238Y-204303333D01*
X74064761Y-204303333D01*
X73969523Y-204350952D01*
X73921904Y-204398571D01*
X73874285Y-204493809D01*
X146677142Y-129992380D02*
X146343809Y-129516190D01*
X146105714Y-129992380D02*
X146105714Y-128992380D01*
X146486666Y-128992380D01*
X146581904Y-129040000D01*
X146629523Y-129087619D01*
X146677142Y-129182857D01*
X146677142Y-129325714D01*
X146629523Y-129420952D01*
X146581904Y-129468571D01*
X146486666Y-129516190D01*
X146105714Y-129516190D01*
X147058095Y-129087619D02*
X147105714Y-129040000D01*
X147200952Y-128992380D01*
X147439047Y-128992380D01*
X147534285Y-129040000D01*
X147581904Y-129087619D01*
X147629523Y-129182857D01*
X147629523Y-129278095D01*
X147581904Y-129420952D01*
X147010476Y-129992380D01*
X147629523Y-129992380D01*
X148248571Y-128992380D02*
X148343809Y-128992380D01*
X148439047Y-129040000D01*
X148486666Y-129087619D01*
X148534285Y-129182857D01*
X148581904Y-129373333D01*
X148581904Y-129611428D01*
X148534285Y-129801904D01*
X148486666Y-129897142D01*
X148439047Y-129944761D01*
X148343809Y-129992380D01*
X148248571Y-129992380D01*
X148153333Y-129944761D01*
X148105714Y-129897142D01*
X148058095Y-129801904D01*
X148010476Y-129611428D01*
X148010476Y-129373333D01*
X148058095Y-129182857D01*
X148105714Y-129087619D01*
X148153333Y-129040000D01*
X148248571Y-128992380D01*
X95877142Y-204922380D02*
X95543809Y-204446190D01*
X95305714Y-204922380D02*
X95305714Y-203922380D01*
X95686666Y-203922380D01*
X95781904Y-203970000D01*
X95829523Y-204017619D01*
X95877142Y-204112857D01*
X95877142Y-204255714D01*
X95829523Y-204350952D01*
X95781904Y-204398571D01*
X95686666Y-204446190D01*
X95305714Y-204446190D01*
X96258095Y-204017619D02*
X96305714Y-203970000D01*
X96400952Y-203922380D01*
X96639047Y-203922380D01*
X96734285Y-203970000D01*
X96781904Y-204017619D01*
X96829523Y-204112857D01*
X96829523Y-204208095D01*
X96781904Y-204350952D01*
X96210476Y-204922380D01*
X96829523Y-204922380D01*
X97734285Y-203922380D02*
X97258095Y-203922380D01*
X97210476Y-204398571D01*
X97258095Y-204350952D01*
X97353333Y-204303333D01*
X97591428Y-204303333D01*
X97686666Y-204350952D01*
X97734285Y-204398571D01*
X97781904Y-204493809D01*
X97781904Y-204731904D01*
X97734285Y-204827142D01*
X97686666Y-204874761D01*
X97591428Y-204922380D01*
X97353333Y-204922380D01*
X97258095Y-204874761D01*
X97210476Y-204827142D01*
X112363333Y-151582380D02*
X112030000Y-151106190D01*
X111791904Y-151582380D02*
X111791904Y-150582380D01*
X112172857Y-150582380D01*
X112268095Y-150630000D01*
X112315714Y-150677619D01*
X112363333Y-150772857D01*
X112363333Y-150915714D01*
X112315714Y-151010952D01*
X112268095Y-151058571D01*
X112172857Y-151106190D01*
X111791904Y-151106190D01*
X113363333Y-151582380D02*
X113030000Y-151106190D01*
X112791904Y-151582380D02*
X112791904Y-150582380D01*
X113172857Y-150582380D01*
X113268095Y-150630000D01*
X113315714Y-150677619D01*
X113363333Y-150772857D01*
X113363333Y-150915714D01*
X113315714Y-151010952D01*
X113268095Y-151058571D01*
X113172857Y-151106190D01*
X112791904Y-151106190D01*
X114315714Y-151582380D02*
X113744285Y-151582380D01*
X114030000Y-151582380D02*
X114030000Y-150582380D01*
X113934761Y-150725238D01*
X113839523Y-150820476D01*
X113744285Y-150868095D01*
X85693333Y-122372380D02*
X85360000Y-121896190D01*
X85121904Y-122372380D02*
X85121904Y-121372380D01*
X85502857Y-121372380D01*
X85598095Y-121420000D01*
X85645714Y-121467619D01*
X85693333Y-121562857D01*
X85693333Y-121705714D01*
X85645714Y-121800952D01*
X85598095Y-121848571D01*
X85502857Y-121896190D01*
X85121904Y-121896190D01*
X86693333Y-122372380D02*
X86360000Y-121896190D01*
X86121904Y-122372380D02*
X86121904Y-121372380D01*
X86502857Y-121372380D01*
X86598095Y-121420000D01*
X86645714Y-121467619D01*
X86693333Y-121562857D01*
X86693333Y-121705714D01*
X86645714Y-121800952D01*
X86598095Y-121848571D01*
X86502857Y-121896190D01*
X86121904Y-121896190D01*
X87074285Y-121467619D02*
X87121904Y-121420000D01*
X87217142Y-121372380D01*
X87455238Y-121372380D01*
X87550476Y-121420000D01*
X87598095Y-121467619D01*
X87645714Y-121562857D01*
X87645714Y-121658095D01*
X87598095Y-121800952D01*
X87026666Y-122372380D01*
X87645714Y-122372380D01*
X81883333Y-122372380D02*
X81550000Y-121896190D01*
X81311904Y-122372380D02*
X81311904Y-121372380D01*
X81692857Y-121372380D01*
X81788095Y-121420000D01*
X81835714Y-121467619D01*
X81883333Y-121562857D01*
X81883333Y-121705714D01*
X81835714Y-121800952D01*
X81788095Y-121848571D01*
X81692857Y-121896190D01*
X81311904Y-121896190D01*
X82883333Y-122372380D02*
X82550000Y-121896190D01*
X82311904Y-122372380D02*
X82311904Y-121372380D01*
X82692857Y-121372380D01*
X82788095Y-121420000D01*
X82835714Y-121467619D01*
X82883333Y-121562857D01*
X82883333Y-121705714D01*
X82835714Y-121800952D01*
X82788095Y-121848571D01*
X82692857Y-121896190D01*
X82311904Y-121896190D01*
X83216666Y-121372380D02*
X83835714Y-121372380D01*
X83502380Y-121753333D01*
X83645238Y-121753333D01*
X83740476Y-121800952D01*
X83788095Y-121848571D01*
X83835714Y-121943809D01*
X83835714Y-122181904D01*
X83788095Y-122277142D01*
X83740476Y-122324761D01*
X83645238Y-122372380D01*
X83359523Y-122372380D01*
X83264285Y-122324761D01*
X83216666Y-122277142D01*
X78073333Y-122372380D02*
X77740000Y-121896190D01*
X77501904Y-122372380D02*
X77501904Y-121372380D01*
X77882857Y-121372380D01*
X77978095Y-121420000D01*
X78025714Y-121467619D01*
X78073333Y-121562857D01*
X78073333Y-121705714D01*
X78025714Y-121800952D01*
X77978095Y-121848571D01*
X77882857Y-121896190D01*
X77501904Y-121896190D01*
X79073333Y-122372380D02*
X78740000Y-121896190D01*
X78501904Y-122372380D02*
X78501904Y-121372380D01*
X78882857Y-121372380D01*
X78978095Y-121420000D01*
X79025714Y-121467619D01*
X79073333Y-121562857D01*
X79073333Y-121705714D01*
X79025714Y-121800952D01*
X78978095Y-121848571D01*
X78882857Y-121896190D01*
X78501904Y-121896190D01*
X79930476Y-121705714D02*
X79930476Y-122372380D01*
X79692380Y-121324761D02*
X79454285Y-122039047D01*
X80073333Y-122039047D01*
X58406666Y-211234761D02*
X58549523Y-211282380D01*
X58787619Y-211282380D01*
X58882857Y-211234761D01*
X58930476Y-211187142D01*
X58978095Y-211091904D01*
X58978095Y-210996666D01*
X58930476Y-210901428D01*
X58882857Y-210853809D01*
X58787619Y-210806190D01*
X58597142Y-210758571D01*
X58501904Y-210710952D01*
X58454285Y-210663333D01*
X58406666Y-210568095D01*
X58406666Y-210472857D01*
X58454285Y-210377619D01*
X58501904Y-210330000D01*
X58597142Y-210282380D01*
X58835238Y-210282380D01*
X58978095Y-210330000D01*
X59311428Y-210282380D02*
X59549523Y-211282380D01*
X59740000Y-210568095D01*
X59930476Y-211282380D01*
X60168571Y-210282380D01*
X61073333Y-211282380D02*
X60501904Y-211282380D01*
X60787619Y-211282380D02*
X60787619Y-210282380D01*
X60692380Y-210425238D01*
X60597142Y-210520476D01*
X60501904Y-210568095D01*
X48246666Y-211234761D02*
X48389523Y-211282380D01*
X48627619Y-211282380D01*
X48722857Y-211234761D01*
X48770476Y-211187142D01*
X48818095Y-211091904D01*
X48818095Y-210996666D01*
X48770476Y-210901428D01*
X48722857Y-210853809D01*
X48627619Y-210806190D01*
X48437142Y-210758571D01*
X48341904Y-210710952D01*
X48294285Y-210663333D01*
X48246666Y-210568095D01*
X48246666Y-210472857D01*
X48294285Y-210377619D01*
X48341904Y-210330000D01*
X48437142Y-210282380D01*
X48675238Y-210282380D01*
X48818095Y-210330000D01*
X49151428Y-210282380D02*
X49389523Y-211282380D01*
X49580000Y-210568095D01*
X49770476Y-211282380D01*
X50008571Y-210282380D01*
X50341904Y-210377619D02*
X50389523Y-210330000D01*
X50484761Y-210282380D01*
X50722857Y-210282380D01*
X50818095Y-210330000D01*
X50865714Y-210377619D01*
X50913333Y-210472857D01*
X50913333Y-210568095D01*
X50865714Y-210710952D01*
X50294285Y-211282380D01*
X50913333Y-211282380D01*
X38086666Y-211234761D02*
X38229523Y-211282380D01*
X38467619Y-211282380D01*
X38562857Y-211234761D01*
X38610476Y-211187142D01*
X38658095Y-211091904D01*
X38658095Y-210996666D01*
X38610476Y-210901428D01*
X38562857Y-210853809D01*
X38467619Y-210806190D01*
X38277142Y-210758571D01*
X38181904Y-210710952D01*
X38134285Y-210663333D01*
X38086666Y-210568095D01*
X38086666Y-210472857D01*
X38134285Y-210377619D01*
X38181904Y-210330000D01*
X38277142Y-210282380D01*
X38515238Y-210282380D01*
X38658095Y-210330000D01*
X38991428Y-210282380D02*
X39229523Y-211282380D01*
X39420000Y-210568095D01*
X39610476Y-211282380D01*
X39848571Y-210282380D01*
X40134285Y-210282380D02*
X40753333Y-210282380D01*
X40420000Y-210663333D01*
X40562857Y-210663333D01*
X40658095Y-210710952D01*
X40705714Y-210758571D01*
X40753333Y-210853809D01*
X40753333Y-211091904D01*
X40705714Y-211187142D01*
X40658095Y-211234761D01*
X40562857Y-211282380D01*
X40277142Y-211282380D01*
X40181904Y-211234761D01*
X40134285Y-211187142D01*
X99046666Y-211234761D02*
X99189523Y-211282380D01*
X99427619Y-211282380D01*
X99522857Y-211234761D01*
X99570476Y-211187142D01*
X99618095Y-211091904D01*
X99618095Y-210996666D01*
X99570476Y-210901428D01*
X99522857Y-210853809D01*
X99427619Y-210806190D01*
X99237142Y-210758571D01*
X99141904Y-210710952D01*
X99094285Y-210663333D01*
X99046666Y-210568095D01*
X99046666Y-210472857D01*
X99094285Y-210377619D01*
X99141904Y-210330000D01*
X99237142Y-210282380D01*
X99475238Y-210282380D01*
X99618095Y-210330000D01*
X99951428Y-210282380D02*
X100189523Y-211282380D01*
X100380000Y-210568095D01*
X100570476Y-211282380D01*
X100808571Y-210282380D01*
X101618095Y-210615714D02*
X101618095Y-211282380D01*
X101380000Y-210234761D02*
X101141904Y-210949047D01*
X101760952Y-210949047D01*
X78726666Y-211234761D02*
X78869523Y-211282380D01*
X79107619Y-211282380D01*
X79202857Y-211234761D01*
X79250476Y-211187142D01*
X79298095Y-211091904D01*
X79298095Y-210996666D01*
X79250476Y-210901428D01*
X79202857Y-210853809D01*
X79107619Y-210806190D01*
X78917142Y-210758571D01*
X78821904Y-210710952D01*
X78774285Y-210663333D01*
X78726666Y-210568095D01*
X78726666Y-210472857D01*
X78774285Y-210377619D01*
X78821904Y-210330000D01*
X78917142Y-210282380D01*
X79155238Y-210282380D01*
X79298095Y-210330000D01*
X79631428Y-210282380D02*
X79869523Y-211282380D01*
X80060000Y-210568095D01*
X80250476Y-211282380D01*
X80488571Y-210282380D01*
X81345714Y-210282380D02*
X80869523Y-210282380D01*
X80821904Y-210758571D01*
X80869523Y-210710952D01*
X80964761Y-210663333D01*
X81202857Y-210663333D01*
X81298095Y-210710952D01*
X81345714Y-210758571D01*
X81393333Y-210853809D01*
X81393333Y-211091904D01*
X81345714Y-211187142D01*
X81298095Y-211234761D01*
X81202857Y-211282380D01*
X80964761Y-211282380D01*
X80869523Y-211234761D01*
X80821904Y-211187142D01*
X39878095Y-150582380D02*
X39878095Y-151391904D01*
X39925714Y-151487142D01*
X39973333Y-151534761D01*
X40068571Y-151582380D01*
X40259047Y-151582380D01*
X40354285Y-151534761D01*
X40401904Y-151487142D01*
X40449523Y-151391904D01*
X40449523Y-150582380D01*
X41449523Y-151582380D02*
X40878095Y-151582380D01*
X41163809Y-151582380D02*
X41163809Y-150582380D01*
X41068571Y-150725238D01*
X40973333Y-150820476D01*
X40878095Y-150868095D01*
X30988095Y-122642380D02*
X30988095Y-123451904D01*
X31035714Y-123547142D01*
X31083333Y-123594761D01*
X31178571Y-123642380D01*
X31369047Y-123642380D01*
X31464285Y-123594761D01*
X31511904Y-123547142D01*
X31559523Y-123451904D01*
X31559523Y-122642380D01*
X31988095Y-122737619D02*
X32035714Y-122690000D01*
X32130952Y-122642380D01*
X32369047Y-122642380D01*
X32464285Y-122690000D01*
X32511904Y-122737619D01*
X32559523Y-122832857D01*
X32559523Y-122928095D01*
X32511904Y-123070952D01*
X31940476Y-123642380D01*
X32559523Y-123642380D01*
X39878095Y-122642380D02*
X39878095Y-123451904D01*
X39925714Y-123547142D01*
X39973333Y-123594761D01*
X40068571Y-123642380D01*
X40259047Y-123642380D01*
X40354285Y-123594761D01*
X40401904Y-123547142D01*
X40449523Y-123451904D01*
X40449523Y-122642380D01*
X40830476Y-122642380D02*
X41449523Y-122642380D01*
X41116190Y-123023333D01*
X41259047Y-123023333D01*
X41354285Y-123070952D01*
X41401904Y-123118571D01*
X41449523Y-123213809D01*
X41449523Y-123451904D01*
X41401904Y-123547142D01*
X41354285Y-123594761D01*
X41259047Y-123642380D01*
X40973333Y-123642380D01*
X40878095Y-123594761D01*
X40830476Y-123547142D01*
X27178095Y-181062380D02*
X27178095Y-181871904D01*
X27225714Y-181967142D01*
X27273333Y-182014761D01*
X27368571Y-182062380D01*
X27559047Y-182062380D01*
X27654285Y-182014761D01*
X27701904Y-181967142D01*
X27749523Y-181871904D01*
X27749523Y-181062380D01*
X28654285Y-181395714D02*
X28654285Y-182062380D01*
X28416190Y-181014761D02*
X28178095Y-181729047D01*
X28797142Y-181729047D01*
X27178095Y-150582380D02*
X27178095Y-151391904D01*
X27225714Y-151487142D01*
X27273333Y-151534761D01*
X27368571Y-151582380D01*
X27559047Y-151582380D01*
X27654285Y-151534761D01*
X27701904Y-151487142D01*
X27749523Y-151391904D01*
X27749523Y-150582380D01*
X28701904Y-150582380D02*
X28225714Y-150582380D01*
X28178095Y-151058571D01*
X28225714Y-151010952D01*
X28320952Y-150963333D01*
X28559047Y-150963333D01*
X28654285Y-151010952D01*
X28701904Y-151058571D01*
X28749523Y-151153809D01*
X28749523Y-151391904D01*
X28701904Y-151487142D01*
X28654285Y-151534761D01*
X28559047Y-151582380D01*
X28320952Y-151582380D01*
X28225714Y-151534761D01*
X28178095Y-151487142D01*
X52578095Y-122642380D02*
X52578095Y-123451904D01*
X52625714Y-123547142D01*
X52673333Y-123594761D01*
X52768571Y-123642380D01*
X52959047Y-123642380D01*
X53054285Y-123594761D01*
X53101904Y-123547142D01*
X53149523Y-123451904D01*
X53149523Y-122642380D01*
X53530476Y-122642380D02*
X54197142Y-122642380D01*
X53768571Y-123642380D01*
X65278095Y-150582380D02*
X65278095Y-151391904D01*
X65325714Y-151487142D01*
X65373333Y-151534761D01*
X65468571Y-151582380D01*
X65659047Y-151582380D01*
X65754285Y-151534761D01*
X65801904Y-151487142D01*
X65849523Y-151391904D01*
X65849523Y-150582380D01*
X66468571Y-151010952D02*
X66373333Y-150963333D01*
X66325714Y-150915714D01*
X66278095Y-150820476D01*
X66278095Y-150772857D01*
X66325714Y-150677619D01*
X66373333Y-150630000D01*
X66468571Y-150582380D01*
X66659047Y-150582380D01*
X66754285Y-150630000D01*
X66801904Y-150677619D01*
X66849523Y-150772857D01*
X66849523Y-150820476D01*
X66801904Y-150915714D01*
X66754285Y-150963333D01*
X66659047Y-151010952D01*
X66468571Y-151010952D01*
X66373333Y-151058571D01*
X66325714Y-151106190D01*
X66278095Y-151201428D01*
X66278095Y-151391904D01*
X66325714Y-151487142D01*
X66373333Y-151534761D01*
X66468571Y-151582380D01*
X66659047Y-151582380D01*
X66754285Y-151534761D01*
X66801904Y-151487142D01*
X66849523Y-151391904D01*
X66849523Y-151201428D01*
X66801904Y-151106190D01*
X66754285Y-151058571D01*
X66659047Y-151010952D01*
X52578095Y-181062380D02*
X52578095Y-181871904D01*
X52625714Y-181967142D01*
X52673333Y-182014761D01*
X52768571Y-182062380D01*
X52959047Y-182062380D01*
X53054285Y-182014761D01*
X53101904Y-181967142D01*
X53149523Y-181871904D01*
X53149523Y-181062380D01*
X53673333Y-182062380D02*
X53863809Y-182062380D01*
X53959047Y-182014761D01*
X54006666Y-181967142D01*
X54101904Y-181824285D01*
X54149523Y-181633809D01*
X54149523Y-181252857D01*
X54101904Y-181157619D01*
X54054285Y-181110000D01*
X53959047Y-181062380D01*
X53768571Y-181062380D01*
X53673333Y-181110000D01*
X53625714Y-181157619D01*
X53578095Y-181252857D01*
X53578095Y-181490952D01*
X53625714Y-181586190D01*
X53673333Y-181633809D01*
X53768571Y-181681428D01*
X53959047Y-181681428D01*
X54054285Y-181633809D01*
X54101904Y-181586190D01*
X54149523Y-181490952D01*
X64801904Y-181062380D02*
X64801904Y-181871904D01*
X64849523Y-181967142D01*
X64897142Y-182014761D01*
X64992380Y-182062380D01*
X65182857Y-182062380D01*
X65278095Y-182014761D01*
X65325714Y-181967142D01*
X65373333Y-181871904D01*
X65373333Y-181062380D01*
X66373333Y-182062380D02*
X65801904Y-182062380D01*
X66087619Y-182062380D02*
X66087619Y-181062380D01*
X65992380Y-181205238D01*
X65897142Y-181300476D01*
X65801904Y-181348095D01*
X66992380Y-181062380D02*
X67087619Y-181062380D01*
X67182857Y-181110000D01*
X67230476Y-181157619D01*
X67278095Y-181252857D01*
X67325714Y-181443333D01*
X67325714Y-181681428D01*
X67278095Y-181871904D01*
X67230476Y-181967142D01*
X67182857Y-182014761D01*
X67087619Y-182062380D01*
X66992380Y-182062380D01*
X66897142Y-182014761D01*
X66849523Y-181967142D01*
X66801904Y-181871904D01*
X66754285Y-181681428D01*
X66754285Y-181443333D01*
X66801904Y-181252857D01*
X66849523Y-181157619D01*
X66897142Y-181110000D01*
X66992380Y-181062380D01*
X77501904Y-181062380D02*
X77501904Y-181871904D01*
X77549523Y-181967142D01*
X77597142Y-182014761D01*
X77692380Y-182062380D01*
X77882857Y-182062380D01*
X77978095Y-182014761D01*
X78025714Y-181967142D01*
X78073333Y-181871904D01*
X78073333Y-181062380D01*
X79073333Y-182062380D02*
X78501904Y-182062380D01*
X78787619Y-182062380D02*
X78787619Y-181062380D01*
X78692380Y-181205238D01*
X78597142Y-181300476D01*
X78501904Y-181348095D01*
X79549523Y-182062380D02*
X79740000Y-182062380D01*
X79835238Y-182014761D01*
X79882857Y-181967142D01*
X79978095Y-181824285D01*
X80025714Y-181633809D01*
X80025714Y-181252857D01*
X79978095Y-181157619D01*
X79930476Y-181110000D01*
X79835238Y-181062380D01*
X79644761Y-181062380D01*
X79549523Y-181110000D01*
X79501904Y-181157619D01*
X79454285Y-181252857D01*
X79454285Y-181490952D01*
X79501904Y-181586190D01*
X79549523Y-181633809D01*
X79644761Y-181681428D01*
X79835238Y-181681428D01*
X79930476Y-181633809D01*
X79978095Y-181586190D01*
X80025714Y-181490952D01*
X90201904Y-181062380D02*
X90201904Y-181871904D01*
X90249523Y-181967142D01*
X90297142Y-182014761D01*
X90392380Y-182062380D01*
X90582857Y-182062380D01*
X90678095Y-182014761D01*
X90725714Y-181967142D01*
X90773333Y-181871904D01*
X90773333Y-181062380D01*
X91201904Y-181157619D02*
X91249523Y-181110000D01*
X91344761Y-181062380D01*
X91582857Y-181062380D01*
X91678095Y-181110000D01*
X91725714Y-181157619D01*
X91773333Y-181252857D01*
X91773333Y-181348095D01*
X91725714Y-181490952D01*
X91154285Y-182062380D01*
X91773333Y-182062380D01*
X92392380Y-181062380D02*
X92487619Y-181062380D01*
X92582857Y-181110000D01*
X92630476Y-181157619D01*
X92678095Y-181252857D01*
X92725714Y-181443333D01*
X92725714Y-181681428D01*
X92678095Y-181871904D01*
X92630476Y-181967142D01*
X92582857Y-182014761D01*
X92487619Y-182062380D01*
X92392380Y-182062380D01*
X92297142Y-182014761D01*
X92249523Y-181967142D01*
X92201904Y-181871904D01*
X92154285Y-181681428D01*
X92154285Y-181443333D01*
X92201904Y-181252857D01*
X92249523Y-181157619D01*
X92297142Y-181110000D01*
X92392380Y-181062380D01*
X102901904Y-122642380D02*
X102901904Y-123451904D01*
X102949523Y-123547142D01*
X102997142Y-123594761D01*
X103092380Y-123642380D01*
X103282857Y-123642380D01*
X103378095Y-123594761D01*
X103425714Y-123547142D01*
X103473333Y-123451904D01*
X103473333Y-122642380D01*
X103901904Y-122737619D02*
X103949523Y-122690000D01*
X104044761Y-122642380D01*
X104282857Y-122642380D01*
X104378095Y-122690000D01*
X104425714Y-122737619D01*
X104473333Y-122832857D01*
X104473333Y-122928095D01*
X104425714Y-123070952D01*
X103854285Y-123642380D01*
X104473333Y-123642380D01*
X105425714Y-123642380D02*
X104854285Y-123642380D01*
X105140000Y-123642380D02*
X105140000Y-122642380D01*
X105044761Y-122785238D01*
X104949523Y-122880476D01*
X104854285Y-122928095D01*
X90201904Y-150582380D02*
X90201904Y-151391904D01*
X90249523Y-151487142D01*
X90297142Y-151534761D01*
X90392380Y-151582380D01*
X90582857Y-151582380D01*
X90678095Y-151534761D01*
X90725714Y-151487142D01*
X90773333Y-151391904D01*
X90773333Y-150582380D01*
X91201904Y-150677619D02*
X91249523Y-150630000D01*
X91344761Y-150582380D01*
X91582857Y-150582380D01*
X91678095Y-150630000D01*
X91725714Y-150677619D01*
X91773333Y-150772857D01*
X91773333Y-150868095D01*
X91725714Y-151010952D01*
X91154285Y-151582380D01*
X91773333Y-151582380D01*
X92154285Y-150677619D02*
X92201904Y-150630000D01*
X92297142Y-150582380D01*
X92535238Y-150582380D01*
X92630476Y-150630000D01*
X92678095Y-150677619D01*
X92725714Y-150772857D01*
X92725714Y-150868095D01*
X92678095Y-151010952D01*
X92106666Y-151582380D01*
X92725714Y-151582380D01*
X102901904Y-181062380D02*
X102901904Y-181871904D01*
X102949523Y-181967142D01*
X102997142Y-182014761D01*
X103092380Y-182062380D01*
X103282857Y-182062380D01*
X103378095Y-182014761D01*
X103425714Y-181967142D01*
X103473333Y-181871904D01*
X103473333Y-181062380D01*
X103901904Y-181157619D02*
X103949523Y-181110000D01*
X104044761Y-181062380D01*
X104282857Y-181062380D01*
X104378095Y-181110000D01*
X104425714Y-181157619D01*
X104473333Y-181252857D01*
X104473333Y-181348095D01*
X104425714Y-181490952D01*
X103854285Y-182062380D01*
X104473333Y-182062380D01*
X104806666Y-181062380D02*
X105425714Y-181062380D01*
X105092380Y-181443333D01*
X105235238Y-181443333D01*
X105330476Y-181490952D01*
X105378095Y-181538571D01*
X105425714Y-181633809D01*
X105425714Y-181871904D01*
X105378095Y-181967142D01*
X105330476Y-182014761D01*
X105235238Y-182062380D01*
X104949523Y-182062380D01*
X104854285Y-182014761D01*
X104806666Y-181967142D01*
X90201904Y-122642380D02*
X90201904Y-123451904D01*
X90249523Y-123547142D01*
X90297142Y-123594761D01*
X90392380Y-123642380D01*
X90582857Y-123642380D01*
X90678095Y-123594761D01*
X90725714Y-123547142D01*
X90773333Y-123451904D01*
X90773333Y-122642380D01*
X91201904Y-122737619D02*
X91249523Y-122690000D01*
X91344761Y-122642380D01*
X91582857Y-122642380D01*
X91678095Y-122690000D01*
X91725714Y-122737619D01*
X91773333Y-122832857D01*
X91773333Y-122928095D01*
X91725714Y-123070952D01*
X91154285Y-123642380D01*
X91773333Y-123642380D01*
X92630476Y-122975714D02*
X92630476Y-123642380D01*
X92392380Y-122594761D02*
X92154285Y-123309047D01*
X92773333Y-123309047D01*
X64801904Y-122642380D02*
X64801904Y-123451904D01*
X64849523Y-123547142D01*
X64897142Y-123594761D01*
X64992380Y-123642380D01*
X65182857Y-123642380D01*
X65278095Y-123594761D01*
X65325714Y-123547142D01*
X65373333Y-123451904D01*
X65373333Y-122642380D01*
X65801904Y-122737619D02*
X65849523Y-122690000D01*
X65944761Y-122642380D01*
X66182857Y-122642380D01*
X66278095Y-122690000D01*
X66325714Y-122737619D01*
X66373333Y-122832857D01*
X66373333Y-122928095D01*
X66325714Y-123070952D01*
X65754285Y-123642380D01*
X66373333Y-123642380D01*
X67278095Y-122642380D02*
X66801904Y-122642380D01*
X66754285Y-123118571D01*
X66801904Y-123070952D01*
X66897142Y-123023333D01*
X67135238Y-123023333D01*
X67230476Y-123070952D01*
X67278095Y-123118571D01*
X67325714Y-123213809D01*
X67325714Y-123451904D01*
X67278095Y-123547142D01*
X67230476Y-123594761D01*
X67135238Y-123642380D01*
X66897142Y-123642380D01*
X66801904Y-123594761D01*
X66754285Y-123547142D01*
X77501904Y-150582380D02*
X77501904Y-151391904D01*
X77549523Y-151487142D01*
X77597142Y-151534761D01*
X77692380Y-151582380D01*
X77882857Y-151582380D01*
X77978095Y-151534761D01*
X78025714Y-151487142D01*
X78073333Y-151391904D01*
X78073333Y-150582380D01*
X78501904Y-150677619D02*
X78549523Y-150630000D01*
X78644761Y-150582380D01*
X78882857Y-150582380D01*
X78978095Y-150630000D01*
X79025714Y-150677619D01*
X79073333Y-150772857D01*
X79073333Y-150868095D01*
X79025714Y-151010952D01*
X78454285Y-151582380D01*
X79073333Y-151582380D01*
X79930476Y-150582380D02*
X79740000Y-150582380D01*
X79644761Y-150630000D01*
X79597142Y-150677619D01*
X79501904Y-150820476D01*
X79454285Y-151010952D01*
X79454285Y-151391904D01*
X79501904Y-151487142D01*
X79549523Y-151534761D01*
X79644761Y-151582380D01*
X79835238Y-151582380D01*
X79930476Y-151534761D01*
X79978095Y-151487142D01*
X80025714Y-151391904D01*
X80025714Y-151153809D01*
X79978095Y-151058571D01*
X79930476Y-151010952D01*
X79835238Y-150963333D01*
X79644761Y-150963333D01*
X79549523Y-151010952D01*
X79501904Y-151058571D01*
X79454285Y-151153809D01*
X115601904Y-122642380D02*
X115601904Y-123451904D01*
X115649523Y-123547142D01*
X115697142Y-123594761D01*
X115792380Y-123642380D01*
X115982857Y-123642380D01*
X116078095Y-123594761D01*
X116125714Y-123547142D01*
X116173333Y-123451904D01*
X116173333Y-122642380D01*
X116601904Y-122737619D02*
X116649523Y-122690000D01*
X116744761Y-122642380D01*
X116982857Y-122642380D01*
X117078095Y-122690000D01*
X117125714Y-122737619D01*
X117173333Y-122832857D01*
X117173333Y-122928095D01*
X117125714Y-123070952D01*
X116554285Y-123642380D01*
X117173333Y-123642380D01*
X117744761Y-123070952D02*
X117649523Y-123023333D01*
X117601904Y-122975714D01*
X117554285Y-122880476D01*
X117554285Y-122832857D01*
X117601904Y-122737619D01*
X117649523Y-122690000D01*
X117744761Y-122642380D01*
X117935238Y-122642380D01*
X118030476Y-122690000D01*
X118078095Y-122737619D01*
X118125714Y-122832857D01*
X118125714Y-122880476D01*
X118078095Y-122975714D01*
X118030476Y-123023333D01*
X117935238Y-123070952D01*
X117744761Y-123070952D01*
X117649523Y-123118571D01*
X117601904Y-123166190D01*
X117554285Y-123261428D01*
X117554285Y-123451904D01*
X117601904Y-123547142D01*
X117649523Y-123594761D01*
X117744761Y-123642380D01*
X117935238Y-123642380D01*
X118030476Y-123594761D01*
X118078095Y-123547142D01*
X118125714Y-123451904D01*
X118125714Y-123261428D01*
X118078095Y-123166190D01*
X118030476Y-123118571D01*
X117935238Y-123070952D01*
X128301904Y-150582380D02*
X128301904Y-151391904D01*
X128349523Y-151487142D01*
X128397142Y-151534761D01*
X128492380Y-151582380D01*
X128682857Y-151582380D01*
X128778095Y-151534761D01*
X128825714Y-151487142D01*
X128873333Y-151391904D01*
X128873333Y-150582380D01*
X129254285Y-150582380D02*
X129873333Y-150582380D01*
X129540000Y-150963333D01*
X129682857Y-150963333D01*
X129778095Y-151010952D01*
X129825714Y-151058571D01*
X129873333Y-151153809D01*
X129873333Y-151391904D01*
X129825714Y-151487142D01*
X129778095Y-151534761D01*
X129682857Y-151582380D01*
X129397142Y-151582380D01*
X129301904Y-151534761D01*
X129254285Y-151487142D01*
X130254285Y-150677619D02*
X130301904Y-150630000D01*
X130397142Y-150582380D01*
X130635238Y-150582380D01*
X130730476Y-150630000D01*
X130778095Y-150677619D01*
X130825714Y-150772857D01*
X130825714Y-150868095D01*
X130778095Y-151010952D01*
X130206666Y-151582380D01*
X130825714Y-151582380D01*
X115601904Y-150582380D02*
X115601904Y-151391904D01*
X115649523Y-151487142D01*
X115697142Y-151534761D01*
X115792380Y-151582380D01*
X115982857Y-151582380D01*
X116078095Y-151534761D01*
X116125714Y-151487142D01*
X116173333Y-151391904D01*
X116173333Y-150582380D01*
X116554285Y-150582380D02*
X117173333Y-150582380D01*
X116840000Y-150963333D01*
X116982857Y-150963333D01*
X117078095Y-151010952D01*
X117125714Y-151058571D01*
X117173333Y-151153809D01*
X117173333Y-151391904D01*
X117125714Y-151487142D01*
X117078095Y-151534761D01*
X116982857Y-151582380D01*
X116697142Y-151582380D01*
X116601904Y-151534761D01*
X116554285Y-151487142D01*
X117506666Y-150582380D02*
X118125714Y-150582380D01*
X117792380Y-150963333D01*
X117935238Y-150963333D01*
X118030476Y-151010952D01*
X118078095Y-151058571D01*
X118125714Y-151153809D01*
X118125714Y-151391904D01*
X118078095Y-151487142D01*
X118030476Y-151534761D01*
X117935238Y-151582380D01*
X117649523Y-151582380D01*
X117554285Y-151534761D01*
X117506666Y-151487142D01*
X115601904Y-181062380D02*
X115601904Y-181871904D01*
X115649523Y-181967142D01*
X115697142Y-182014761D01*
X115792380Y-182062380D01*
X115982857Y-182062380D01*
X116078095Y-182014761D01*
X116125714Y-181967142D01*
X116173333Y-181871904D01*
X116173333Y-181062380D01*
X116554285Y-181062380D02*
X117173333Y-181062380D01*
X116840000Y-181443333D01*
X116982857Y-181443333D01*
X117078095Y-181490952D01*
X117125714Y-181538571D01*
X117173333Y-181633809D01*
X117173333Y-181871904D01*
X117125714Y-181967142D01*
X117078095Y-182014761D01*
X116982857Y-182062380D01*
X116697142Y-182062380D01*
X116601904Y-182014761D01*
X116554285Y-181967142D01*
X118030476Y-181395714D02*
X118030476Y-182062380D01*
X117792380Y-181014761D02*
X117554285Y-181729047D01*
X118173333Y-181729047D01*
X128301904Y-181062380D02*
X128301904Y-181871904D01*
X128349523Y-181967142D01*
X128397142Y-182014761D01*
X128492380Y-182062380D01*
X128682857Y-182062380D01*
X128778095Y-182014761D01*
X128825714Y-181967142D01*
X128873333Y-181871904D01*
X128873333Y-181062380D01*
X129254285Y-181062380D02*
X129873333Y-181062380D01*
X129540000Y-181443333D01*
X129682857Y-181443333D01*
X129778095Y-181490952D01*
X129825714Y-181538571D01*
X129873333Y-181633809D01*
X129873333Y-181871904D01*
X129825714Y-181967142D01*
X129778095Y-182014761D01*
X129682857Y-182062380D01*
X129397142Y-182062380D01*
X129301904Y-182014761D01*
X129254285Y-181967142D01*
X130778095Y-181062380D02*
X130301904Y-181062380D01*
X130254285Y-181538571D01*
X130301904Y-181490952D01*
X130397142Y-181443333D01*
X130635238Y-181443333D01*
X130730476Y-181490952D01*
X130778095Y-181538571D01*
X130825714Y-181633809D01*
X130825714Y-181871904D01*
X130778095Y-181967142D01*
X130730476Y-182014761D01*
X130635238Y-182062380D01*
X130397142Y-182062380D01*
X130301904Y-182014761D01*
X130254285Y-181967142D01*
X141763809Y-129516190D02*
X141763809Y-129992380D01*
X141430476Y-128992380D02*
X141763809Y-129516190D01*
X142097142Y-128992380D01*
X142954285Y-129992380D02*
X142382857Y-129992380D01*
X142668571Y-129992380D02*
X142668571Y-128992380D01*
X142573333Y-129135238D01*
X142478095Y-129230476D01*
X142382857Y-129278095D01*
X135921904Y-79462380D02*
X135921904Y-80271904D01*
X135969523Y-80367142D01*
X136017142Y-80414761D01*
X136112380Y-80462380D01*
X136302857Y-80462380D01*
X136398095Y-80414761D01*
X136445714Y-80367142D01*
X136493333Y-80271904D01*
X136493333Y-79462380D01*
X136874285Y-79462380D02*
X137493333Y-79462380D01*
X137160000Y-79843333D01*
X137302857Y-79843333D01*
X137398095Y-79890952D01*
X137445714Y-79938571D01*
X137493333Y-80033809D01*
X137493333Y-80271904D01*
X137445714Y-80367142D01*
X137398095Y-80414761D01*
X137302857Y-80462380D01*
X137017142Y-80462380D01*
X136921904Y-80414761D01*
X136874285Y-80367142D01*
X138112380Y-79462380D02*
X138207619Y-79462380D01*
X138302857Y-79510000D01*
X138350476Y-79557619D01*
X138398095Y-79652857D01*
X138445714Y-79843333D01*
X138445714Y-80081428D01*
X138398095Y-80271904D01*
X138350476Y-80367142D01*
X138302857Y-80414761D01*
X138207619Y-80462380D01*
X138112380Y-80462380D01*
X138017142Y-80414761D01*
X137969523Y-80367142D01*
X137921904Y-80271904D01*
X137874285Y-80081428D01*
X137874285Y-79843333D01*
X137921904Y-79652857D01*
X137969523Y-79557619D01*
X138017142Y-79510000D01*
X138112380Y-79462380D01*
X67818095Y-33742380D02*
X67818095Y-34551904D01*
X67865714Y-34647142D01*
X67913333Y-34694761D01*
X68008571Y-34742380D01*
X68199047Y-34742380D01*
X68294285Y-34694761D01*
X68341904Y-34647142D01*
X68389523Y-34551904D01*
X68389523Y-33742380D01*
X69294285Y-33742380D02*
X69103809Y-33742380D01*
X69008571Y-33790000D01*
X68960952Y-33837619D01*
X68865714Y-33980476D01*
X68818095Y-34170952D01*
X68818095Y-34551904D01*
X68865714Y-34647142D01*
X68913333Y-34694761D01*
X69008571Y-34742380D01*
X69199047Y-34742380D01*
X69294285Y-34694761D01*
X69341904Y-34647142D01*
X69389523Y-34551904D01*
X69389523Y-34313809D01*
X69341904Y-34218571D01*
X69294285Y-34170952D01*
X69199047Y-34123333D01*
X69008571Y-34123333D01*
X68913333Y-34170952D01*
X68865714Y-34218571D01*
X68818095Y-34313809D01*
X26701904Y-33742380D02*
X26701904Y-34551904D01*
X26749523Y-34647142D01*
X26797142Y-34694761D01*
X26892380Y-34742380D01*
X27082857Y-34742380D01*
X27178095Y-34694761D01*
X27225714Y-34647142D01*
X27273333Y-34551904D01*
X27273333Y-33742380D01*
X28273333Y-34742380D02*
X27701904Y-34742380D01*
X27987619Y-34742380D02*
X27987619Y-33742380D01*
X27892380Y-33885238D01*
X27797142Y-33980476D01*
X27701904Y-34028095D01*
X29225714Y-34742380D02*
X28654285Y-34742380D01*
X28940000Y-34742380D02*
X28940000Y-33742380D01*
X28844761Y-33885238D01*
X28749523Y-33980476D01*
X28654285Y-34028095D01*
X26701904Y-79462380D02*
X26701904Y-80271904D01*
X26749523Y-80367142D01*
X26797142Y-80414761D01*
X26892380Y-80462380D01*
X27082857Y-80462380D01*
X27178095Y-80414761D01*
X27225714Y-80367142D01*
X27273333Y-80271904D01*
X27273333Y-79462380D01*
X28273333Y-80462380D02*
X27701904Y-80462380D01*
X27987619Y-80462380D02*
X27987619Y-79462380D01*
X27892380Y-79605238D01*
X27797142Y-79700476D01*
X27701904Y-79748095D01*
X28654285Y-79557619D02*
X28701904Y-79510000D01*
X28797142Y-79462380D01*
X29035238Y-79462380D01*
X29130476Y-79510000D01*
X29178095Y-79557619D01*
X29225714Y-79652857D01*
X29225714Y-79748095D01*
X29178095Y-79890952D01*
X28606666Y-80462380D01*
X29225714Y-80462380D01*
X47021904Y-33742380D02*
X47021904Y-34551904D01*
X47069523Y-34647142D01*
X47117142Y-34694761D01*
X47212380Y-34742380D01*
X47402857Y-34742380D01*
X47498095Y-34694761D01*
X47545714Y-34647142D01*
X47593333Y-34551904D01*
X47593333Y-33742380D01*
X48593333Y-34742380D02*
X48021904Y-34742380D01*
X48307619Y-34742380D02*
X48307619Y-33742380D01*
X48212380Y-33885238D01*
X48117142Y-33980476D01*
X48021904Y-34028095D01*
X48926666Y-33742380D02*
X49545714Y-33742380D01*
X49212380Y-34123333D01*
X49355238Y-34123333D01*
X49450476Y-34170952D01*
X49498095Y-34218571D01*
X49545714Y-34313809D01*
X49545714Y-34551904D01*
X49498095Y-34647142D01*
X49450476Y-34694761D01*
X49355238Y-34742380D01*
X49069523Y-34742380D01*
X48974285Y-34694761D01*
X48926666Y-34647142D01*
X47021904Y-79462380D02*
X47021904Y-80271904D01*
X47069523Y-80367142D01*
X47117142Y-80414761D01*
X47212380Y-80462380D01*
X47402857Y-80462380D01*
X47498095Y-80414761D01*
X47545714Y-80367142D01*
X47593333Y-80271904D01*
X47593333Y-79462380D01*
X48593333Y-80462380D02*
X48021904Y-80462380D01*
X48307619Y-80462380D02*
X48307619Y-79462380D01*
X48212380Y-79605238D01*
X48117142Y-79700476D01*
X48021904Y-79748095D01*
X49450476Y-79795714D02*
X49450476Y-80462380D01*
X49212380Y-79414761D02*
X48974285Y-80129047D01*
X49593333Y-80129047D01*
X95281904Y-33742380D02*
X95281904Y-34551904D01*
X95329523Y-34647142D01*
X95377142Y-34694761D01*
X95472380Y-34742380D01*
X95662857Y-34742380D01*
X95758095Y-34694761D01*
X95805714Y-34647142D01*
X95853333Y-34551904D01*
X95853333Y-33742380D01*
X96853333Y-34742380D02*
X96281904Y-34742380D01*
X96567619Y-34742380D02*
X96567619Y-33742380D01*
X96472380Y-33885238D01*
X96377142Y-33980476D01*
X96281904Y-34028095D01*
X97758095Y-33742380D02*
X97281904Y-33742380D01*
X97234285Y-34218571D01*
X97281904Y-34170952D01*
X97377142Y-34123333D01*
X97615238Y-34123333D01*
X97710476Y-34170952D01*
X97758095Y-34218571D01*
X97805714Y-34313809D01*
X97805714Y-34551904D01*
X97758095Y-34647142D01*
X97710476Y-34694761D01*
X97615238Y-34742380D01*
X97377142Y-34742380D01*
X97281904Y-34694761D01*
X97234285Y-34647142D01*
X95281904Y-79462380D02*
X95281904Y-80271904D01*
X95329523Y-80367142D01*
X95377142Y-80414761D01*
X95472380Y-80462380D01*
X95662857Y-80462380D01*
X95758095Y-80414761D01*
X95805714Y-80367142D01*
X95853333Y-80271904D01*
X95853333Y-79462380D01*
X96853333Y-80462380D02*
X96281904Y-80462380D01*
X96567619Y-80462380D02*
X96567619Y-79462380D01*
X96472380Y-79605238D01*
X96377142Y-79700476D01*
X96281904Y-79748095D01*
X97710476Y-79462380D02*
X97520000Y-79462380D01*
X97424761Y-79510000D01*
X97377142Y-79557619D01*
X97281904Y-79700476D01*
X97234285Y-79890952D01*
X97234285Y-80271904D01*
X97281904Y-80367142D01*
X97329523Y-80414761D01*
X97424761Y-80462380D01*
X97615238Y-80462380D01*
X97710476Y-80414761D01*
X97758095Y-80367142D01*
X97805714Y-80271904D01*
X97805714Y-80033809D01*
X97758095Y-79938571D01*
X97710476Y-79890952D01*
X97615238Y-79843333D01*
X97424761Y-79843333D01*
X97329523Y-79890952D01*
X97281904Y-79938571D01*
X97234285Y-80033809D01*
X115601904Y-33742380D02*
X115601904Y-34551904D01*
X115649523Y-34647142D01*
X115697142Y-34694761D01*
X115792380Y-34742380D01*
X115982857Y-34742380D01*
X116078095Y-34694761D01*
X116125714Y-34647142D01*
X116173333Y-34551904D01*
X116173333Y-33742380D01*
X117173333Y-34742380D02*
X116601904Y-34742380D01*
X116887619Y-34742380D02*
X116887619Y-33742380D01*
X116792380Y-33885238D01*
X116697142Y-33980476D01*
X116601904Y-34028095D01*
X117506666Y-33742380D02*
X118173333Y-33742380D01*
X117744761Y-34742380D01*
X115601904Y-79462380D02*
X115601904Y-80271904D01*
X115649523Y-80367142D01*
X115697142Y-80414761D01*
X115792380Y-80462380D01*
X115982857Y-80462380D01*
X116078095Y-80414761D01*
X116125714Y-80367142D01*
X116173333Y-80271904D01*
X116173333Y-79462380D01*
X117173333Y-80462380D02*
X116601904Y-80462380D01*
X116887619Y-80462380D02*
X116887619Y-79462380D01*
X116792380Y-79605238D01*
X116697142Y-79700476D01*
X116601904Y-79748095D01*
X117744761Y-79890952D02*
X117649523Y-79843333D01*
X117601904Y-79795714D01*
X117554285Y-79700476D01*
X117554285Y-79652857D01*
X117601904Y-79557619D01*
X117649523Y-79510000D01*
X117744761Y-79462380D01*
X117935238Y-79462380D01*
X118030476Y-79510000D01*
X118078095Y-79557619D01*
X118125714Y-79652857D01*
X118125714Y-79700476D01*
X118078095Y-79795714D01*
X118030476Y-79843333D01*
X117935238Y-79890952D01*
X117744761Y-79890952D01*
X117649523Y-79938571D01*
X117601904Y-79986190D01*
X117554285Y-80081428D01*
X117554285Y-80271904D01*
X117601904Y-80367142D01*
X117649523Y-80414761D01*
X117744761Y-80462380D01*
X117935238Y-80462380D01*
X118030476Y-80414761D01*
X118078095Y-80367142D01*
X118125714Y-80271904D01*
X118125714Y-80081428D01*
X118078095Y-79986190D01*
X118030476Y-79938571D01*
X117935238Y-79890952D01*
X135921904Y-33742380D02*
X135921904Y-34551904D01*
X135969523Y-34647142D01*
X136017142Y-34694761D01*
X136112380Y-34742380D01*
X136302857Y-34742380D01*
X136398095Y-34694761D01*
X136445714Y-34647142D01*
X136493333Y-34551904D01*
X136493333Y-33742380D01*
X136921904Y-33837619D02*
X136969523Y-33790000D01*
X137064761Y-33742380D01*
X137302857Y-33742380D01*
X137398095Y-33790000D01*
X137445714Y-33837619D01*
X137493333Y-33932857D01*
X137493333Y-34028095D01*
X137445714Y-34170952D01*
X136874285Y-34742380D01*
X137493333Y-34742380D01*
X137969523Y-34742380D02*
X138160000Y-34742380D01*
X138255238Y-34694761D01*
X138302857Y-34647142D01*
X138398095Y-34504285D01*
X138445714Y-34313809D01*
X138445714Y-33932857D01*
X138398095Y-33837619D01*
X138350476Y-33790000D01*
X138255238Y-33742380D01*
X138064761Y-33742380D01*
X137969523Y-33790000D01*
X137921904Y-33837619D01*
X137874285Y-33932857D01*
X137874285Y-34170952D01*
X137921904Y-34266190D01*
X137969523Y-34313809D01*
X138064761Y-34361428D01*
X138255238Y-34361428D01*
X138350476Y-34313809D01*
X138398095Y-34266190D01*
X138445714Y-34170952D01*
X108386666Y-154392380D02*
X108386666Y-155106666D01*
X108339047Y-155249523D01*
X108243809Y-155344761D01*
X108100952Y-155392380D01*
X108005714Y-155392380D01*
X108862857Y-155392380D02*
X108862857Y-154392380D01*
X109243809Y-154392380D01*
X109339047Y-154440000D01*
X109386666Y-154487619D01*
X109434285Y-154582857D01*
X109434285Y-154725714D01*
X109386666Y-154820952D01*
X109339047Y-154868571D01*
X109243809Y-154916190D01*
X108862857Y-154916190D01*
X110386666Y-155392380D02*
X109815238Y-155392380D01*
X110100952Y-155392380D02*
X110100952Y-154392380D01*
X110005714Y-154535238D01*
X109910476Y-154630476D01*
X109815238Y-154678095D01*
X108386666Y-159472380D02*
X108386666Y-160186666D01*
X108339047Y-160329523D01*
X108243809Y-160424761D01*
X108100952Y-160472380D01*
X108005714Y-160472380D01*
X108862857Y-160472380D02*
X108862857Y-159472380D01*
X109243809Y-159472380D01*
X109339047Y-159520000D01*
X109386666Y-159567619D01*
X109434285Y-159662857D01*
X109434285Y-159805714D01*
X109386666Y-159900952D01*
X109339047Y-159948571D01*
X109243809Y-159996190D01*
X108862857Y-159996190D01*
X109815238Y-159567619D02*
X109862857Y-159520000D01*
X109958095Y-159472380D01*
X110196190Y-159472380D01*
X110291428Y-159520000D01*
X110339047Y-159567619D01*
X110386666Y-159662857D01*
X110386666Y-159758095D01*
X110339047Y-159900952D01*
X109767619Y-160472380D01*
X110386666Y-160472380D01*
X108386666Y-164552380D02*
X108386666Y-165266666D01*
X108339047Y-165409523D01*
X108243809Y-165504761D01*
X108100952Y-165552380D01*
X108005714Y-165552380D01*
X108862857Y-165552380D02*
X108862857Y-164552380D01*
X109243809Y-164552380D01*
X109339047Y-164600000D01*
X109386666Y-164647619D01*
X109434285Y-164742857D01*
X109434285Y-164885714D01*
X109386666Y-164980952D01*
X109339047Y-165028571D01*
X109243809Y-165076190D01*
X108862857Y-165076190D01*
X109767619Y-164552380D02*
X110386666Y-164552380D01*
X110053333Y-164933333D01*
X110196190Y-164933333D01*
X110291428Y-164980952D01*
X110339047Y-165028571D01*
X110386666Y-165123809D01*
X110386666Y-165361904D01*
X110339047Y-165457142D01*
X110291428Y-165504761D01*
X110196190Y-165552380D01*
X109910476Y-165552380D01*
X109815238Y-165504761D01*
X109767619Y-165457142D01*
X108386666Y-169632380D02*
X108386666Y-170346666D01*
X108339047Y-170489523D01*
X108243809Y-170584761D01*
X108100952Y-170632380D01*
X108005714Y-170632380D01*
X108862857Y-170632380D02*
X108862857Y-169632380D01*
X109243809Y-169632380D01*
X109339047Y-169680000D01*
X109386666Y-169727619D01*
X109434285Y-169822857D01*
X109434285Y-169965714D01*
X109386666Y-170060952D01*
X109339047Y-170108571D01*
X109243809Y-170156190D01*
X108862857Y-170156190D01*
X110291428Y-169965714D02*
X110291428Y-170632380D01*
X110053333Y-169584761D02*
X109815238Y-170299047D01*
X110434285Y-170299047D01*
X103306666Y-26122380D02*
X103306666Y-26836666D01*
X103259047Y-26979523D01*
X103163809Y-27074761D01*
X103020952Y-27122380D01*
X102925714Y-27122380D01*
X103782857Y-27122380D02*
X103782857Y-26122380D01*
X104163809Y-26122380D01*
X104259047Y-26170000D01*
X104306666Y-26217619D01*
X104354285Y-26312857D01*
X104354285Y-26455714D01*
X104306666Y-26550952D01*
X104259047Y-26598571D01*
X104163809Y-26646190D01*
X103782857Y-26646190D01*
X105259047Y-26122380D02*
X104782857Y-26122380D01*
X104735238Y-26598571D01*
X104782857Y-26550952D01*
X104878095Y-26503333D01*
X105116190Y-26503333D01*
X105211428Y-26550952D01*
X105259047Y-26598571D01*
X105306666Y-26693809D01*
X105306666Y-26931904D01*
X105259047Y-27027142D01*
X105211428Y-27074761D01*
X105116190Y-27122380D01*
X104878095Y-27122380D01*
X104782857Y-27074761D01*
X104735238Y-27027142D01*
X131246666Y-26122380D02*
X131246666Y-26836666D01*
X131199047Y-26979523D01*
X131103809Y-27074761D01*
X130960952Y-27122380D01*
X130865714Y-27122380D01*
X131722857Y-27122380D02*
X131722857Y-26122380D01*
X132103809Y-26122380D01*
X132199047Y-26170000D01*
X132246666Y-26217619D01*
X132294285Y-26312857D01*
X132294285Y-26455714D01*
X132246666Y-26550952D01*
X132199047Y-26598571D01*
X132103809Y-26646190D01*
X131722857Y-26646190D01*
X133151428Y-26122380D02*
X132960952Y-26122380D01*
X132865714Y-26170000D01*
X132818095Y-26217619D01*
X132722857Y-26360476D01*
X132675238Y-26550952D01*
X132675238Y-26931904D01*
X132722857Y-27027142D01*
X132770476Y-27074761D01*
X132865714Y-27122380D01*
X133056190Y-27122380D01*
X133151428Y-27074761D01*
X133199047Y-27027142D01*
X133246666Y-26931904D01*
X133246666Y-26693809D01*
X133199047Y-26598571D01*
X133151428Y-26550952D01*
X133056190Y-26503333D01*
X132865714Y-26503333D01*
X132770476Y-26550952D01*
X132722857Y-26598571D01*
X132675238Y-26693809D01*
X151777142Y-134937142D02*
X151729523Y-134984761D01*
X151586666Y-135032380D01*
X151491428Y-135032380D01*
X151348571Y-134984761D01*
X151253333Y-134889523D01*
X151205714Y-134794285D01*
X151158095Y-134603809D01*
X151158095Y-134460952D01*
X151205714Y-134270476D01*
X151253333Y-134175238D01*
X151348571Y-134080000D01*
X151491428Y-134032380D01*
X151586666Y-134032380D01*
X151729523Y-134080000D01*
X151777142Y-134127619D01*
X152110476Y-134032380D02*
X152729523Y-134032380D01*
X152396190Y-134413333D01*
X152539047Y-134413333D01*
X152634285Y-134460952D01*
X152681904Y-134508571D01*
X152729523Y-134603809D01*
X152729523Y-134841904D01*
X152681904Y-134937142D01*
X152634285Y-134984761D01*
X152539047Y-135032380D01*
X152253333Y-135032380D01*
X152158095Y-134984761D01*
X152110476Y-134937142D01*
X153205714Y-135032380D02*
X153396190Y-135032380D01*
X153491428Y-134984761D01*
X153539047Y-134937142D01*
X153634285Y-134794285D01*
X153681904Y-134603809D01*
X153681904Y-134222857D01*
X153634285Y-134127619D01*
X153586666Y-134080000D01*
X153491428Y-134032380D01*
X153300952Y-134032380D01*
X153205714Y-134080000D01*
X153158095Y-134127619D01*
X153110476Y-134222857D01*
X153110476Y-134460952D01*
X153158095Y-134556190D01*
X153205714Y-134603809D01*
X153300952Y-134651428D01*
X153491428Y-134651428D01*
X153586666Y-134603809D01*
X153634285Y-134556190D01*
X153681904Y-134460952D01*
X151737142Y-137557142D02*
X151689523Y-137604761D01*
X151546666Y-137652380D01*
X151451428Y-137652380D01*
X151308571Y-137604761D01*
X151213333Y-137509523D01*
X151165714Y-137414285D01*
X151118095Y-137223809D01*
X151118095Y-137080952D01*
X151165714Y-136890476D01*
X151213333Y-136795238D01*
X151308571Y-136700000D01*
X151451428Y-136652380D01*
X151546666Y-136652380D01*
X151689523Y-136700000D01*
X151737142Y-136747619D01*
X152594285Y-136985714D02*
X152594285Y-137652380D01*
X152356190Y-136604761D02*
X152118095Y-137319047D01*
X152737142Y-137319047D01*
X153308571Y-136652380D02*
X153403809Y-136652380D01*
X153499047Y-136700000D01*
X153546666Y-136747619D01*
X153594285Y-136842857D01*
X153641904Y-137033333D01*
X153641904Y-137271428D01*
X153594285Y-137461904D01*
X153546666Y-137557142D01*
X153499047Y-137604761D01*
X153403809Y-137652380D01*
X153308571Y-137652380D01*
X153213333Y-137604761D01*
X153165714Y-137557142D01*
X153118095Y-137461904D01*
X153070476Y-137271428D01*
X153070476Y-137033333D01*
X153118095Y-136842857D01*
X153165714Y-136747619D01*
X153213333Y-136700000D01*
X153308571Y-136652380D01*
X39401904Y-181062380D02*
X39401904Y-181871904D01*
X39449523Y-181967142D01*
X39497142Y-182014761D01*
X39592380Y-182062380D01*
X39782857Y-182062380D01*
X39878095Y-182014761D01*
X39925714Y-181967142D01*
X39973333Y-181871904D01*
X39973333Y-181062380D01*
X40401904Y-181157619D02*
X40449523Y-181110000D01*
X40544761Y-181062380D01*
X40782857Y-181062380D01*
X40878095Y-181110000D01*
X40925714Y-181157619D01*
X40973333Y-181252857D01*
X40973333Y-181348095D01*
X40925714Y-181490952D01*
X40354285Y-182062380D01*
X40973333Y-182062380D01*
X41306666Y-181062380D02*
X41973333Y-181062380D01*
X41544761Y-182062380D01*
X128301904Y-122642380D02*
X128301904Y-123451904D01*
X128349523Y-123547142D01*
X128397142Y-123594761D01*
X128492380Y-123642380D01*
X128682857Y-123642380D01*
X128778095Y-123594761D01*
X128825714Y-123547142D01*
X128873333Y-123451904D01*
X128873333Y-122642380D01*
X129254285Y-122642380D02*
X129873333Y-122642380D01*
X129540000Y-123023333D01*
X129682857Y-123023333D01*
X129778095Y-123070952D01*
X129825714Y-123118571D01*
X129873333Y-123213809D01*
X129873333Y-123451904D01*
X129825714Y-123547142D01*
X129778095Y-123594761D01*
X129682857Y-123642380D01*
X129397142Y-123642380D01*
X129301904Y-123594761D01*
X129254285Y-123547142D01*
X130825714Y-123642380D02*
X130254285Y-123642380D01*
X130540000Y-123642380D02*
X130540000Y-122642380D01*
X130444761Y-122785238D01*
X130349523Y-122880476D01*
X130254285Y-122928095D01*
X141001904Y-181062380D02*
X141001904Y-181871904D01*
X141049523Y-181967142D01*
X141097142Y-182014761D01*
X141192380Y-182062380D01*
X141382857Y-182062380D01*
X141478095Y-182014761D01*
X141525714Y-181967142D01*
X141573333Y-181871904D01*
X141573333Y-181062380D01*
X141954285Y-181062380D02*
X142573333Y-181062380D01*
X142240000Y-181443333D01*
X142382857Y-181443333D01*
X142478095Y-181490952D01*
X142525714Y-181538571D01*
X142573333Y-181633809D01*
X142573333Y-181871904D01*
X142525714Y-181967142D01*
X142478095Y-182014761D01*
X142382857Y-182062380D01*
X142097142Y-182062380D01*
X142001904Y-182014761D01*
X141954285Y-181967142D01*
X143430476Y-181062380D02*
X143240000Y-181062380D01*
X143144761Y-181110000D01*
X143097142Y-181157619D01*
X143001904Y-181300476D01*
X142954285Y-181490952D01*
X142954285Y-181871904D01*
X143001904Y-181967142D01*
X143049523Y-182014761D01*
X143144761Y-182062380D01*
X143335238Y-182062380D01*
X143430476Y-182014761D01*
X143478095Y-181967142D01*
X143525714Y-181871904D01*
X143525714Y-181633809D01*
X143478095Y-181538571D01*
X143430476Y-181490952D01*
X143335238Y-181443333D01*
X143144761Y-181443333D01*
X143049523Y-181490952D01*
X143001904Y-181538571D01*
X142954285Y-181633809D01*
X141001904Y-150582380D02*
X141001904Y-151391904D01*
X141049523Y-151487142D01*
X141097142Y-151534761D01*
X141192380Y-151582380D01*
X141382857Y-151582380D01*
X141478095Y-151534761D01*
X141525714Y-151487142D01*
X141573333Y-151391904D01*
X141573333Y-150582380D01*
X141954285Y-150582380D02*
X142573333Y-150582380D01*
X142240000Y-150963333D01*
X142382857Y-150963333D01*
X142478095Y-151010952D01*
X142525714Y-151058571D01*
X142573333Y-151153809D01*
X142573333Y-151391904D01*
X142525714Y-151487142D01*
X142478095Y-151534761D01*
X142382857Y-151582380D01*
X142097142Y-151582380D01*
X142001904Y-151534761D01*
X141954285Y-151487142D01*
X142906666Y-150582380D02*
X143573333Y-150582380D01*
X143144761Y-151582380D01*
X145407142Y-147677142D02*
X145359523Y-147724761D01*
X145216666Y-147772380D01*
X145121428Y-147772380D01*
X144978571Y-147724761D01*
X144883333Y-147629523D01*
X144835714Y-147534285D01*
X144788095Y-147343809D01*
X144788095Y-147200952D01*
X144835714Y-147010476D01*
X144883333Y-146915238D01*
X144978571Y-146820000D01*
X145121428Y-146772380D01*
X145216666Y-146772380D01*
X145359523Y-146820000D01*
X145407142Y-146867619D01*
X146264285Y-147105714D02*
X146264285Y-147772380D01*
X146026190Y-146724761D02*
X145788095Y-147439047D01*
X146407142Y-147439047D01*
X147311904Y-147772380D02*
X146740476Y-147772380D01*
X147026190Y-147772380D02*
X147026190Y-146772380D01*
X146930952Y-146915238D01*
X146835714Y-147010476D01*
X146740476Y-147058095D01*
X132707142Y-178157142D02*
X132659523Y-178204761D01*
X132516666Y-178252380D01*
X132421428Y-178252380D01*
X132278571Y-178204761D01*
X132183333Y-178109523D01*
X132135714Y-178014285D01*
X132088095Y-177823809D01*
X132088095Y-177680952D01*
X132135714Y-177490476D01*
X132183333Y-177395238D01*
X132278571Y-177300000D01*
X132421428Y-177252380D01*
X132516666Y-177252380D01*
X132659523Y-177300000D01*
X132707142Y-177347619D01*
X133564285Y-177585714D02*
X133564285Y-178252380D01*
X133326190Y-177204761D02*
X133088095Y-177919047D01*
X133707142Y-177919047D01*
X134040476Y-177347619D02*
X134088095Y-177300000D01*
X134183333Y-177252380D01*
X134421428Y-177252380D01*
X134516666Y-177300000D01*
X134564285Y-177347619D01*
X134611904Y-177442857D01*
X134611904Y-177538095D01*
X134564285Y-177680952D01*
X133992857Y-178252380D01*
X134611904Y-178252380D01*
M02*
