G04 #@! TF.FileFunction,Copper,L2,Bot,Signal*
%FSLAX46Y46*%
G04 Gerber Fmt 4.6, Leading zero omitted, Abs format (unit mm)*
G04 Created by KiCad (PCBNEW 4.0.2+dfsg1-stable) date Thu 01 Jun 2017 06:03:18 PM EDT*
%MOMM*%
G01*
G04 APERTURE LIST*
%ADD10C,0.100000*%
%ADD11C,2.000000*%
%ADD12R,2.000000X2.000000*%
%ADD13R,1.300000X1.300000*%
%ADD14C,1.300000*%
%ADD15R,1.400000X1.400000*%
%ADD16C,1.400000*%
%ADD17O,1.506220X3.014980*%
%ADD18C,1.998980*%
%ADD19R,1.397000X1.397000*%
%ADD20C,1.397000*%
%ADD21O,1.600000X1.600000*%
%ADD22C,1.501140*%
%ADD23O,3.014980X1.506220*%
%ADD24C,0.600000*%
%ADD25C,0.250000*%
%ADD26C,1.000000*%
G04 APERTURE END LIST*
D10*
D11*
X53340520Y-22857460D03*
D12*
X43180520Y-22857460D03*
D13*
X53340000Y-165100000D03*
D14*
X55840000Y-165100000D03*
D13*
X58420000Y-165100000D03*
D14*
X60920000Y-165100000D03*
D15*
X53340000Y-170180000D03*
D16*
X61090000Y-170180000D03*
D13*
X60960000Y-22860000D03*
D14*
X58460000Y-22860000D03*
D13*
X36830000Y-33020000D03*
D14*
X34330000Y-33020000D03*
D13*
X57150000Y-33020000D03*
D14*
X54650000Y-33020000D03*
D13*
X78740000Y-33020000D03*
D14*
X81240000Y-33020000D03*
D13*
X105410000Y-33020000D03*
D14*
X102910000Y-33020000D03*
D13*
X125730000Y-33020000D03*
D14*
X123230000Y-33020000D03*
D13*
X121920000Y-149860000D03*
D14*
X119420000Y-149860000D03*
D13*
X36830000Y-78740000D03*
D14*
X34330000Y-78740000D03*
D13*
X57150000Y-78740000D03*
D14*
X54650000Y-78740000D03*
D13*
X104140000Y-78740000D03*
D14*
X101640000Y-78740000D03*
D13*
X125730000Y-78740000D03*
D14*
X123230000Y-78740000D03*
D13*
X146050000Y-33020000D03*
D14*
X143550000Y-33020000D03*
D13*
X134620000Y-149860000D03*
D14*
X132120000Y-149860000D03*
D13*
X147320000Y-180340000D03*
D14*
X144820000Y-180340000D03*
D13*
X45720000Y-121920000D03*
D14*
X43220000Y-121920000D03*
D13*
X58420000Y-121920000D03*
D14*
X55920000Y-121920000D03*
D13*
X71120000Y-121920000D03*
D14*
X68620000Y-121920000D03*
D13*
X134620000Y-121920000D03*
D14*
X132120000Y-121920000D03*
D13*
X121920000Y-121920000D03*
D14*
X119420000Y-121920000D03*
D13*
X96520000Y-121920000D03*
D14*
X94020000Y-121920000D03*
D13*
X109220000Y-121920000D03*
D14*
X106720000Y-121920000D03*
D13*
X33020000Y-149860000D03*
D14*
X30520000Y-149860000D03*
D13*
X45720000Y-149860000D03*
D14*
X43220000Y-149860000D03*
D13*
X96520000Y-149860000D03*
D14*
X94020000Y-149860000D03*
D13*
X71120000Y-149860000D03*
D14*
X68620000Y-149860000D03*
D13*
X83820000Y-149860000D03*
D14*
X81320000Y-149860000D03*
D13*
X146050000Y-78740000D03*
D14*
X143550000Y-78740000D03*
D13*
X33020000Y-180340000D03*
D14*
X30520000Y-180340000D03*
D13*
X45720000Y-180340000D03*
D14*
X43220000Y-180340000D03*
D13*
X58420000Y-180340000D03*
D14*
X55920000Y-180340000D03*
D13*
X71120000Y-180340000D03*
D14*
X68620000Y-180340000D03*
D13*
X83820000Y-180340000D03*
D14*
X81320000Y-180340000D03*
D13*
X96520000Y-180340000D03*
D14*
X94020000Y-180340000D03*
D13*
X109220000Y-180340000D03*
D14*
X106720000Y-180340000D03*
D13*
X121920000Y-180340000D03*
D14*
X119420000Y-180340000D03*
D17*
X68580000Y-214630000D03*
X71120000Y-214630000D03*
X88900000Y-214630000D03*
X91440000Y-214630000D03*
X86360000Y-22860000D03*
X88900000Y-22860000D03*
X91440000Y-22860000D03*
X93980000Y-22860000D03*
X96520000Y-22860000D03*
X99060000Y-22860000D03*
X114300000Y-22860000D03*
X116840000Y-22860000D03*
X119380000Y-22860000D03*
X121920000Y-22860000D03*
X124460000Y-22860000D03*
X127000000Y-22860000D03*
X69850000Y-22860000D03*
X72390000Y-22860000D03*
D18*
X60960000Y-154940000D03*
X53340000Y-154940000D03*
X53340000Y-160020000D03*
X60960000Y-160020000D03*
X69850000Y-207010000D03*
X77470000Y-207010000D03*
X147320000Y-139700000D03*
X147320000Y-132080000D03*
X92710000Y-207010000D03*
X100330000Y-207010000D03*
D19*
X113030000Y-173990000D03*
D20*
X113030000Y-171450000D03*
X113030000Y-168910000D03*
X113030000Y-166370000D03*
X113030000Y-163830000D03*
X113030000Y-161290000D03*
X113030000Y-158750000D03*
X113030000Y-156210000D03*
X113030000Y-153670000D03*
D19*
X86360000Y-124460000D03*
D20*
X86360000Y-127000000D03*
X86360000Y-129540000D03*
X86360000Y-132080000D03*
X86360000Y-134620000D03*
X86360000Y-137160000D03*
X86360000Y-139700000D03*
X86360000Y-142240000D03*
X86360000Y-144780000D03*
D19*
X82550000Y-124460000D03*
D20*
X82550000Y-127000000D03*
X82550000Y-129540000D03*
X82550000Y-132080000D03*
X82550000Y-134620000D03*
X82550000Y-137160000D03*
X82550000Y-139700000D03*
X82550000Y-142240000D03*
X82550000Y-144780000D03*
D19*
X78740000Y-124460000D03*
D20*
X78740000Y-127000000D03*
X78740000Y-129540000D03*
X78740000Y-132080000D03*
X78740000Y-134620000D03*
X78740000Y-137160000D03*
X78740000Y-139700000D03*
X78740000Y-142240000D03*
X78740000Y-144780000D03*
D17*
X57150000Y-214630000D03*
X59690000Y-214630000D03*
X62230000Y-214630000D03*
X46990000Y-214630000D03*
X49530000Y-214630000D03*
X52070000Y-214630000D03*
X36830000Y-214630000D03*
X39370000Y-214630000D03*
X41910000Y-214630000D03*
X97790000Y-214630000D03*
X100330000Y-214630000D03*
X102870000Y-214630000D03*
X77470000Y-214630000D03*
X80010000Y-214630000D03*
X82550000Y-214630000D03*
D21*
X40640000Y-154940000D03*
X40640000Y-157480000D03*
X40640000Y-160020000D03*
X40640000Y-162560000D03*
X48260000Y-162560000D03*
X48260000Y-160020000D03*
X48260000Y-157480000D03*
X48260000Y-154940000D03*
X27940000Y-127000000D03*
X27940000Y-129540000D03*
X27940000Y-132080000D03*
X27940000Y-134620000D03*
X27940000Y-137160000D03*
X27940000Y-139700000D03*
X27940000Y-142240000D03*
X35560000Y-142240000D03*
X35560000Y-139700000D03*
X35560000Y-137160000D03*
X35560000Y-134620000D03*
X35560000Y-132080000D03*
X35560000Y-129540000D03*
X35560000Y-127000000D03*
X40640000Y-127000000D03*
X40640000Y-129540000D03*
X40640000Y-132080000D03*
X40640000Y-134620000D03*
X40640000Y-137160000D03*
X40640000Y-139700000D03*
X40640000Y-142240000D03*
X48260000Y-142240000D03*
X48260000Y-139700000D03*
X48260000Y-137160000D03*
X48260000Y-134620000D03*
X48260000Y-132080000D03*
X48260000Y-129540000D03*
X48260000Y-127000000D03*
X27940000Y-185420000D03*
X27940000Y-187960000D03*
X27940000Y-190500000D03*
X27940000Y-193040000D03*
X27940000Y-195580000D03*
X27940000Y-198120000D03*
X27940000Y-200660000D03*
X35560000Y-200660000D03*
X35560000Y-198120000D03*
X35560000Y-195580000D03*
X35560000Y-193040000D03*
X35560000Y-190500000D03*
X35560000Y-187960000D03*
X35560000Y-185420000D03*
X27940000Y-154940000D03*
X27940000Y-157480000D03*
X27940000Y-160020000D03*
X27940000Y-162560000D03*
X27940000Y-165100000D03*
X27940000Y-167640000D03*
X27940000Y-170180000D03*
X35560000Y-170180000D03*
X35560000Y-167640000D03*
X35560000Y-165100000D03*
X35560000Y-162560000D03*
X35560000Y-160020000D03*
X35560000Y-157480000D03*
X35560000Y-154940000D03*
X53340000Y-127000000D03*
X53340000Y-129540000D03*
X53340000Y-132080000D03*
X53340000Y-134620000D03*
X53340000Y-137160000D03*
X53340000Y-139700000D03*
X53340000Y-142240000D03*
X60960000Y-142240000D03*
X60960000Y-139700000D03*
X60960000Y-137160000D03*
X60960000Y-134620000D03*
X60960000Y-132080000D03*
X60960000Y-129540000D03*
X60960000Y-127000000D03*
X66040000Y-154940000D03*
X66040000Y-157480000D03*
X66040000Y-160020000D03*
X66040000Y-162560000D03*
X66040000Y-165100000D03*
X66040000Y-167640000D03*
X66040000Y-170180000D03*
X73660000Y-170180000D03*
X73660000Y-167640000D03*
X73660000Y-165100000D03*
X73660000Y-162560000D03*
X73660000Y-160020000D03*
X73660000Y-157480000D03*
X73660000Y-154940000D03*
X53340000Y-185420000D03*
X53340000Y-187960000D03*
X53340000Y-190500000D03*
X53340000Y-193040000D03*
X53340000Y-195580000D03*
X53340000Y-198120000D03*
X53340000Y-200660000D03*
X60960000Y-200660000D03*
X60960000Y-198120000D03*
X60960000Y-195580000D03*
X60960000Y-193040000D03*
X60960000Y-190500000D03*
X60960000Y-187960000D03*
X60960000Y-185420000D03*
X66040000Y-185420000D03*
X66040000Y-187960000D03*
X66040000Y-190500000D03*
X66040000Y-193040000D03*
X66040000Y-195580000D03*
X66040000Y-198120000D03*
X66040000Y-200660000D03*
X73660000Y-200660000D03*
X73660000Y-198120000D03*
X73660000Y-195580000D03*
X73660000Y-193040000D03*
X73660000Y-190500000D03*
X73660000Y-187960000D03*
X73660000Y-185420000D03*
X78740000Y-185420000D03*
X78740000Y-187960000D03*
X78740000Y-190500000D03*
X78740000Y-193040000D03*
X78740000Y-195580000D03*
X78740000Y-198120000D03*
X78740000Y-200660000D03*
X86360000Y-200660000D03*
X86360000Y-198120000D03*
X86360000Y-195580000D03*
X86360000Y-193040000D03*
X86360000Y-190500000D03*
X86360000Y-187960000D03*
X86360000Y-185420000D03*
X91440000Y-185420000D03*
X91440000Y-187960000D03*
X91440000Y-190500000D03*
X91440000Y-193040000D03*
X91440000Y-195580000D03*
X91440000Y-198120000D03*
X91440000Y-200660000D03*
X99060000Y-200660000D03*
X99060000Y-198120000D03*
X99060000Y-195580000D03*
X99060000Y-193040000D03*
X99060000Y-190500000D03*
X99060000Y-187960000D03*
X99060000Y-185420000D03*
X104140000Y-127000000D03*
X104140000Y-129540000D03*
X104140000Y-132080000D03*
X104140000Y-134620000D03*
X104140000Y-137160000D03*
X104140000Y-139700000D03*
X104140000Y-142240000D03*
X104140000Y-144780000D03*
X111760000Y-144780000D03*
X111760000Y-142240000D03*
X111760000Y-139700000D03*
X111760000Y-137160000D03*
X111760000Y-134620000D03*
X111760000Y-132080000D03*
X111760000Y-129540000D03*
X111760000Y-127000000D03*
X91440000Y-154940000D03*
X91440000Y-157480000D03*
X91440000Y-160020000D03*
X91440000Y-162560000D03*
X91440000Y-165100000D03*
X91440000Y-167640000D03*
X91440000Y-170180000D03*
X91440000Y-172720000D03*
X99060000Y-172720000D03*
X99060000Y-170180000D03*
X99060000Y-167640000D03*
X99060000Y-165100000D03*
X99060000Y-162560000D03*
X99060000Y-160020000D03*
X99060000Y-157480000D03*
X99060000Y-154940000D03*
X104140000Y-185420000D03*
X104140000Y-187960000D03*
X104140000Y-190500000D03*
X104140000Y-193040000D03*
X104140000Y-195580000D03*
X104140000Y-198120000D03*
X104140000Y-200660000D03*
X111760000Y-200660000D03*
X111760000Y-198120000D03*
X111760000Y-195580000D03*
X111760000Y-193040000D03*
X111760000Y-190500000D03*
X111760000Y-187960000D03*
X111760000Y-185420000D03*
X91440000Y-127000000D03*
X91440000Y-129540000D03*
X91440000Y-132080000D03*
X91440000Y-134620000D03*
X91440000Y-137160000D03*
X91440000Y-139700000D03*
X91440000Y-142240000D03*
X99060000Y-142240000D03*
X99060000Y-139700000D03*
X99060000Y-137160000D03*
X99060000Y-134620000D03*
X99060000Y-132080000D03*
X99060000Y-129540000D03*
X99060000Y-127000000D03*
X66040000Y-127000000D03*
X66040000Y-129540000D03*
X66040000Y-132080000D03*
X66040000Y-134620000D03*
X66040000Y-137160000D03*
X66040000Y-139700000D03*
X66040000Y-142240000D03*
X73660000Y-142240000D03*
X73660000Y-139700000D03*
X73660000Y-137160000D03*
X73660000Y-134620000D03*
X73660000Y-132080000D03*
X73660000Y-129540000D03*
X73660000Y-127000000D03*
X78740000Y-154940000D03*
X78740000Y-157480000D03*
X78740000Y-160020000D03*
X78740000Y-162560000D03*
X78740000Y-165100000D03*
X78740000Y-167640000D03*
X78740000Y-170180000D03*
X78740000Y-172720000D03*
X86360000Y-172720000D03*
X86360000Y-170180000D03*
X86360000Y-167640000D03*
X86360000Y-165100000D03*
X86360000Y-162560000D03*
X86360000Y-160020000D03*
X86360000Y-157480000D03*
X86360000Y-154940000D03*
X116840000Y-127000000D03*
X116840000Y-129540000D03*
X116840000Y-132080000D03*
X116840000Y-134620000D03*
X116840000Y-137160000D03*
X116840000Y-139700000D03*
X116840000Y-142240000D03*
X116840000Y-144780000D03*
X124460000Y-144780000D03*
X124460000Y-142240000D03*
X124460000Y-139700000D03*
X124460000Y-137160000D03*
X124460000Y-134620000D03*
X124460000Y-132080000D03*
X124460000Y-129540000D03*
X124460000Y-127000000D03*
X129540000Y-154940000D03*
X129540000Y-157480000D03*
X129540000Y-160020000D03*
X129540000Y-162560000D03*
X129540000Y-165100000D03*
X129540000Y-167640000D03*
X129540000Y-170180000D03*
X129540000Y-172720000D03*
X137160000Y-172720000D03*
X137160000Y-170180000D03*
X137160000Y-167640000D03*
X137160000Y-165100000D03*
X137160000Y-162560000D03*
X137160000Y-160020000D03*
X137160000Y-157480000D03*
X137160000Y-154940000D03*
X116840000Y-154940000D03*
X116840000Y-157480000D03*
X116840000Y-160020000D03*
X116840000Y-162560000D03*
X116840000Y-165100000D03*
X116840000Y-167640000D03*
X116840000Y-170180000D03*
X116840000Y-172720000D03*
X124460000Y-172720000D03*
X124460000Y-170180000D03*
X124460000Y-167640000D03*
X124460000Y-165100000D03*
X124460000Y-162560000D03*
X124460000Y-160020000D03*
X124460000Y-157480000D03*
X124460000Y-154940000D03*
X116840000Y-185420000D03*
X116840000Y-187960000D03*
X116840000Y-190500000D03*
X116840000Y-193040000D03*
X116840000Y-195580000D03*
X116840000Y-198120000D03*
X116840000Y-200660000D03*
X124460000Y-200660000D03*
X124460000Y-198120000D03*
X124460000Y-195580000D03*
X124460000Y-193040000D03*
X124460000Y-190500000D03*
X124460000Y-187960000D03*
X124460000Y-185420000D03*
X129540000Y-185420000D03*
X129540000Y-187960000D03*
X129540000Y-190500000D03*
X129540000Y-193040000D03*
X129540000Y-195580000D03*
X129540000Y-198120000D03*
X129540000Y-200660000D03*
X137160000Y-200660000D03*
X137160000Y-198120000D03*
X137160000Y-195580000D03*
X137160000Y-193040000D03*
X137160000Y-190500000D03*
X137160000Y-187960000D03*
X137160000Y-185420000D03*
D22*
X142240000Y-133449060D03*
X142240000Y-138330940D03*
D21*
X137160000Y-83820000D03*
X137160000Y-86360000D03*
X137160000Y-88900000D03*
X137160000Y-91440000D03*
X137160000Y-93980000D03*
X137160000Y-96520000D03*
X137160000Y-99060000D03*
X137160000Y-101600000D03*
X137160000Y-104140000D03*
X137160000Y-106680000D03*
X137160000Y-109220000D03*
X137160000Y-111760000D03*
X152400000Y-111760000D03*
X152400000Y-109220000D03*
X152400000Y-106680000D03*
X152400000Y-104140000D03*
X152400000Y-101600000D03*
X152400000Y-99060000D03*
X152400000Y-96520000D03*
X152400000Y-93980000D03*
X152400000Y-91440000D03*
X152400000Y-88900000D03*
X152400000Y-86360000D03*
X152400000Y-83820000D03*
X68580000Y-38100000D03*
X68580000Y-40640000D03*
X68580000Y-43180000D03*
X68580000Y-45720000D03*
X68580000Y-48260000D03*
X68580000Y-50800000D03*
X68580000Y-53340000D03*
X68580000Y-55880000D03*
X68580000Y-58420000D03*
X68580000Y-60960000D03*
X68580000Y-63500000D03*
X68580000Y-66040000D03*
X68580000Y-68580000D03*
X68580000Y-71120000D03*
X68580000Y-73660000D03*
X68580000Y-76200000D03*
X68580000Y-78740000D03*
X68580000Y-81280000D03*
X68580000Y-83820000D03*
X68580000Y-86360000D03*
X68580000Y-88900000D03*
X68580000Y-91440000D03*
X68580000Y-93980000D03*
X68580000Y-96520000D03*
X68580000Y-99060000D03*
X68580000Y-101600000D03*
X68580000Y-104140000D03*
X68580000Y-106680000D03*
X68580000Y-109220000D03*
X68580000Y-111760000D03*
X68580000Y-114300000D03*
X68580000Y-116840000D03*
X91440000Y-116840000D03*
X91440000Y-114300000D03*
X91440000Y-111760000D03*
X91440000Y-109220000D03*
X91440000Y-106680000D03*
X91440000Y-104140000D03*
X91440000Y-101600000D03*
X91440000Y-99060000D03*
X91440000Y-96520000D03*
X91440000Y-93980000D03*
X91440000Y-91440000D03*
X91440000Y-88900000D03*
X91440000Y-86360000D03*
X91440000Y-83820000D03*
X91440000Y-81280000D03*
X91440000Y-78740000D03*
X91440000Y-76200000D03*
X91440000Y-73660000D03*
X91440000Y-71120000D03*
X91440000Y-68580000D03*
X91440000Y-66040000D03*
X91440000Y-63500000D03*
X91440000Y-60960000D03*
X91440000Y-58420000D03*
X91440000Y-55880000D03*
X91440000Y-53340000D03*
X91440000Y-50800000D03*
X91440000Y-48260000D03*
X91440000Y-45720000D03*
X91440000Y-43180000D03*
X91440000Y-40640000D03*
X91440000Y-38100000D03*
X27940000Y-38100000D03*
X27940000Y-40640000D03*
X27940000Y-43180000D03*
X27940000Y-45720000D03*
X27940000Y-48260000D03*
X27940000Y-50800000D03*
X27940000Y-53340000D03*
X27940000Y-55880000D03*
X27940000Y-58420000D03*
X27940000Y-60960000D03*
X27940000Y-63500000D03*
X27940000Y-66040000D03*
X27940000Y-68580000D03*
X27940000Y-71120000D03*
X43180000Y-71120000D03*
X43180000Y-68580000D03*
X43180000Y-66040000D03*
X43180000Y-63500000D03*
X43180000Y-60960000D03*
X43180000Y-58420000D03*
X43180000Y-55880000D03*
X43180000Y-53340000D03*
X43180000Y-50800000D03*
X43180000Y-48260000D03*
X43180000Y-45720000D03*
X43180000Y-43180000D03*
X43180000Y-40640000D03*
X43180000Y-38100000D03*
X27940000Y-83820000D03*
X27940000Y-86360000D03*
X27940000Y-88900000D03*
X27940000Y-91440000D03*
X27940000Y-93980000D03*
X27940000Y-96520000D03*
X27940000Y-99060000D03*
X27940000Y-101600000D03*
X27940000Y-104140000D03*
X27940000Y-106680000D03*
X27940000Y-109220000D03*
X27940000Y-111760000D03*
X27940000Y-114300000D03*
X27940000Y-116840000D03*
X43180000Y-116840000D03*
X43180000Y-114300000D03*
X43180000Y-111760000D03*
X43180000Y-109220000D03*
X43180000Y-106680000D03*
X43180000Y-104140000D03*
X43180000Y-101600000D03*
X43180000Y-99060000D03*
X43180000Y-96520000D03*
X43180000Y-93980000D03*
X43180000Y-91440000D03*
X43180000Y-88900000D03*
X43180000Y-86360000D03*
X43180000Y-83820000D03*
X48260000Y-38100000D03*
X48260000Y-40640000D03*
X48260000Y-43180000D03*
X48260000Y-45720000D03*
X48260000Y-48260000D03*
X48260000Y-50800000D03*
X48260000Y-53340000D03*
X48260000Y-55880000D03*
X48260000Y-58420000D03*
X48260000Y-60960000D03*
X48260000Y-63500000D03*
X48260000Y-66040000D03*
X48260000Y-68580000D03*
X48260000Y-71120000D03*
X63500000Y-71120000D03*
X63500000Y-68580000D03*
X63500000Y-66040000D03*
X63500000Y-63500000D03*
X63500000Y-60960000D03*
X63500000Y-58420000D03*
X63500000Y-55880000D03*
X63500000Y-53340000D03*
X63500000Y-50800000D03*
X63500000Y-48260000D03*
X63500000Y-45720000D03*
X63500000Y-43180000D03*
X63500000Y-40640000D03*
X63500000Y-38100000D03*
X48260000Y-83820000D03*
X48260000Y-86360000D03*
X48260000Y-88900000D03*
X48260000Y-91440000D03*
X48260000Y-93980000D03*
X48260000Y-96520000D03*
X48260000Y-99060000D03*
X48260000Y-101600000D03*
X48260000Y-104140000D03*
X48260000Y-106680000D03*
X48260000Y-109220000D03*
X48260000Y-111760000D03*
X48260000Y-114300000D03*
X48260000Y-116840000D03*
X63500000Y-116840000D03*
X63500000Y-114300000D03*
X63500000Y-111760000D03*
X63500000Y-109220000D03*
X63500000Y-106680000D03*
X63500000Y-104140000D03*
X63500000Y-101600000D03*
X63500000Y-99060000D03*
X63500000Y-96520000D03*
X63500000Y-93980000D03*
X63500000Y-91440000D03*
X63500000Y-88900000D03*
X63500000Y-86360000D03*
X63500000Y-83820000D03*
X96520000Y-38100000D03*
X96520000Y-40640000D03*
X96520000Y-43180000D03*
X96520000Y-45720000D03*
X96520000Y-48260000D03*
X96520000Y-50800000D03*
X96520000Y-53340000D03*
X96520000Y-55880000D03*
X96520000Y-58420000D03*
X96520000Y-60960000D03*
X96520000Y-63500000D03*
X96520000Y-66040000D03*
X96520000Y-68580000D03*
X96520000Y-71120000D03*
X111760000Y-71120000D03*
X111760000Y-68580000D03*
X111760000Y-66040000D03*
X111760000Y-63500000D03*
X111760000Y-60960000D03*
X111760000Y-58420000D03*
X111760000Y-55880000D03*
X111760000Y-53340000D03*
X111760000Y-50800000D03*
X111760000Y-48260000D03*
X111760000Y-45720000D03*
X111760000Y-43180000D03*
X111760000Y-40640000D03*
X111760000Y-38100000D03*
X96520000Y-83820000D03*
X96520000Y-86360000D03*
X96520000Y-88900000D03*
X96520000Y-91440000D03*
X96520000Y-93980000D03*
X96520000Y-96520000D03*
X96520000Y-99060000D03*
X96520000Y-101600000D03*
X96520000Y-104140000D03*
X96520000Y-106680000D03*
X96520000Y-109220000D03*
X96520000Y-111760000D03*
X96520000Y-114300000D03*
X96520000Y-116840000D03*
X111760000Y-116840000D03*
X111760000Y-114300000D03*
X111760000Y-111760000D03*
X111760000Y-109220000D03*
X111760000Y-106680000D03*
X111760000Y-104140000D03*
X111760000Y-101600000D03*
X111760000Y-99060000D03*
X111760000Y-96520000D03*
X111760000Y-93980000D03*
X111760000Y-91440000D03*
X111760000Y-88900000D03*
X111760000Y-86360000D03*
X111760000Y-83820000D03*
X116840000Y-38100000D03*
X116840000Y-40640000D03*
X116840000Y-43180000D03*
X116840000Y-45720000D03*
X116840000Y-48260000D03*
X116840000Y-50800000D03*
X116840000Y-53340000D03*
X116840000Y-55880000D03*
X116840000Y-58420000D03*
X116840000Y-60960000D03*
X116840000Y-63500000D03*
X116840000Y-66040000D03*
X116840000Y-68580000D03*
X116840000Y-71120000D03*
X132080000Y-71120000D03*
X132080000Y-68580000D03*
X132080000Y-66040000D03*
X132080000Y-63500000D03*
X132080000Y-60960000D03*
X132080000Y-58420000D03*
X132080000Y-55880000D03*
X132080000Y-53340000D03*
X132080000Y-50800000D03*
X132080000Y-48260000D03*
X132080000Y-45720000D03*
X132080000Y-43180000D03*
X132080000Y-40640000D03*
X132080000Y-38100000D03*
X116840000Y-83820000D03*
X116840000Y-86360000D03*
X116840000Y-88900000D03*
X116840000Y-91440000D03*
X116840000Y-93980000D03*
X116840000Y-96520000D03*
X116840000Y-99060000D03*
X116840000Y-101600000D03*
X116840000Y-104140000D03*
X116840000Y-106680000D03*
X116840000Y-109220000D03*
X116840000Y-111760000D03*
X116840000Y-114300000D03*
X116840000Y-116840000D03*
X132080000Y-116840000D03*
X132080000Y-114300000D03*
X132080000Y-111760000D03*
X132080000Y-109220000D03*
X132080000Y-106680000D03*
X132080000Y-104140000D03*
X132080000Y-101600000D03*
X132080000Y-99060000D03*
X132080000Y-96520000D03*
X132080000Y-93980000D03*
X132080000Y-91440000D03*
X132080000Y-88900000D03*
X132080000Y-86360000D03*
X132080000Y-83820000D03*
X137160000Y-38100000D03*
X137160000Y-40640000D03*
X137160000Y-43180000D03*
X137160000Y-45720000D03*
X137160000Y-48260000D03*
X137160000Y-50800000D03*
X137160000Y-53340000D03*
X137160000Y-55880000D03*
X137160000Y-58420000D03*
X137160000Y-60960000D03*
X137160000Y-63500000D03*
X137160000Y-66040000D03*
X152400000Y-66040000D03*
X152400000Y-63500000D03*
X152400000Y-60960000D03*
X152400000Y-58420000D03*
X152400000Y-55880000D03*
X152400000Y-53340000D03*
X152400000Y-50800000D03*
X152400000Y-48260000D03*
X152400000Y-45720000D03*
X152400000Y-43180000D03*
X152400000Y-40640000D03*
X152400000Y-38100000D03*
D17*
X106680000Y-154940000D03*
X104140000Y-154940000D03*
X104140000Y-160020000D03*
X106680000Y-160020000D03*
X106680000Y-165100000D03*
X104140000Y-165100000D03*
X104140000Y-170180000D03*
X106680000Y-170180000D03*
D23*
X104140000Y-24130000D03*
X104140000Y-21590000D03*
X132080000Y-24130000D03*
X132080000Y-21590000D03*
D13*
X153670000Y-132080000D03*
D14*
X151170000Y-132080000D03*
D13*
X151130000Y-139700000D03*
D14*
X153630000Y-139700000D03*
D21*
X40640000Y-185420000D03*
X40640000Y-187960000D03*
X40640000Y-190500000D03*
X40640000Y-193040000D03*
X40640000Y-195580000D03*
X40640000Y-198120000D03*
X40640000Y-200660000D03*
X40640000Y-203200000D03*
X48260000Y-203200000D03*
X48260000Y-200660000D03*
X48260000Y-198120000D03*
X48260000Y-195580000D03*
X48260000Y-193040000D03*
X48260000Y-190500000D03*
X48260000Y-187960000D03*
X48260000Y-185420000D03*
X129540000Y-127000000D03*
X129540000Y-129540000D03*
X129540000Y-132080000D03*
X129540000Y-134620000D03*
X129540000Y-137160000D03*
X129540000Y-139700000D03*
X129540000Y-142240000D03*
X129540000Y-144780000D03*
X137160000Y-144780000D03*
X137160000Y-142240000D03*
X137160000Y-139700000D03*
X137160000Y-137160000D03*
X137160000Y-134620000D03*
X137160000Y-132080000D03*
X137160000Y-129540000D03*
X137160000Y-127000000D03*
X142240000Y-185420000D03*
X142240000Y-187960000D03*
X142240000Y-190500000D03*
X142240000Y-193040000D03*
X142240000Y-195580000D03*
X142240000Y-198120000D03*
X142240000Y-200660000D03*
X149860000Y-200660000D03*
X149860000Y-198120000D03*
X149860000Y-195580000D03*
X149860000Y-193040000D03*
X149860000Y-190500000D03*
X149860000Y-187960000D03*
X149860000Y-185420000D03*
X142240000Y-154940000D03*
X142240000Y-157480000D03*
X142240000Y-160020000D03*
X142240000Y-162560000D03*
X142240000Y-165100000D03*
X142240000Y-167640000D03*
X142240000Y-170180000D03*
X149860000Y-170180000D03*
X149860000Y-167640000D03*
X149860000Y-165100000D03*
X149860000Y-162560000D03*
X149860000Y-160020000D03*
X149860000Y-157480000D03*
X149860000Y-154940000D03*
D13*
X147320000Y-149860000D03*
D14*
X144820000Y-149860000D03*
D13*
X134620000Y-180340000D03*
D14*
X132120000Y-180340000D03*
D24*
X107715000Y-49295000D03*
X48260000Y-74242800D03*
X66663400Y-148659200D03*
X108301900Y-119528400D03*
X55920000Y-118058500D03*
X122472000Y-112274000D03*
X150336500Y-75967000D03*
X89453100Y-126840600D03*
X94293900Y-144991400D03*
X102422600Y-73261300D03*
X96618400Y-73550900D03*
X68499900Y-170499600D03*
X48068500Y-76385600D03*
X154013000Y-70237500D03*
X60304100Y-121402600D03*
X78226800Y-180234300D03*
X51020600Y-159119900D03*
X61972500Y-166271500D03*
X134589000Y-69763800D03*
X60960000Y-183207100D03*
X148165300Y-64728800D03*
X109961200Y-192613200D03*
X97313900Y-182455600D03*
X134567500Y-124835800D03*
X131040300Y-182284100D03*
X71331700Y-147196600D03*
X83820000Y-154027200D03*
X35652200Y-152904000D03*
X41755300Y-176963200D03*
X60672100Y-180529900D03*
X98994500Y-212553400D03*
X147436400Y-183755300D03*
X83211800Y-183914100D03*
X102896000Y-76771100D03*
X90183200Y-209247600D03*
X87411900Y-152398700D03*
X93501000Y-138606300D03*
X93651500Y-134316600D03*
X95506800Y-165011300D03*
X95447900Y-135089600D03*
X138683800Y-40517700D03*
X140795100Y-90778800D03*
X113992900Y-147030300D03*
X108938300Y-171229100D03*
X115518900Y-161949300D03*
X118774800Y-153918600D03*
X112260900Y-159678500D03*
X133350000Y-56485100D03*
X138629900Y-105398700D03*
X138620200Y-121061500D03*
X117965400Y-155892400D03*
X105747600Y-196930900D03*
X111205800Y-159992900D03*
X89576000Y-149240000D03*
X87085900Y-146434700D03*
X83924700Y-189377400D03*
X70268900Y-210591200D03*
X89557300Y-190291000D03*
X89947000Y-144429900D03*
X72247200Y-210914900D03*
X100100100Y-169341300D03*
X96113500Y-165993300D03*
X93044700Y-146445700D03*
X92278800Y-205329900D03*
X96162000Y-205433400D03*
X90239900Y-147840000D03*
X67182100Y-102070000D03*
X82032200Y-108321000D03*
X96625400Y-139069100D03*
X97785100Y-144211900D03*
X81496500Y-99932900D03*
X79345900Y-98131100D03*
X77409300Y-127271800D03*
X74952100Y-67138900D03*
X79916700Y-94054100D03*
X82943700Y-98266300D03*
X74766400Y-69701200D03*
X78987100Y-90932000D03*
X83569500Y-95514400D03*
X69008200Y-131334300D03*
X69008200Y-141714100D03*
X54020000Y-152649400D03*
X60784400Y-150728500D03*
X55429700Y-156911400D03*
X44100700Y-143626800D03*
X55340400Y-154143200D03*
X66029000Y-120582600D03*
X77909400Y-121536900D03*
X52714400Y-123607200D03*
X71992600Y-135621600D03*
X75051800Y-129488700D03*
X72354800Y-111463500D03*
X79399900Y-111685900D03*
X35411100Y-117865200D03*
X74144700Y-93272600D03*
X80245900Y-97617200D03*
X64770200Y-74895100D03*
X34695500Y-73305800D03*
X39604500Y-151973400D03*
X53274000Y-77706400D03*
X50572100Y-137551200D03*
X72637500Y-141232200D03*
X77327800Y-158159600D03*
X33230400Y-177471900D03*
X133508600Y-112924300D03*
X127662200Y-109099900D03*
X51302900Y-122463300D03*
X56562000Y-186679800D03*
X58074300Y-186679800D03*
X72534700Y-180690300D03*
X55997600Y-139213700D03*
X133314400Y-190423500D03*
X60081100Y-61462400D03*
X135964000Y-150339200D03*
X56623900Y-155541200D03*
X56623900Y-134858200D03*
X72356400Y-163006100D03*
X137674000Y-153434900D03*
X65085500Y-174034200D03*
X53008400Y-180713200D03*
X63718100Y-132812700D03*
X61043300Y-179359400D03*
X58770300Y-61489800D03*
X92966900Y-136114100D03*
X89408700Y-169386400D03*
X39987500Y-191770000D03*
X108209600Y-175893500D03*
X95560900Y-189563800D03*
X92190200Y-204517200D03*
X49529000Y-199390000D03*
X34434200Y-138738400D03*
X72371500Y-43944400D03*
X62750100Y-179752200D03*
X60617100Y-177619200D03*
X103136900Y-168564800D03*
X111310200Y-168609200D03*
X105432700Y-203302300D03*
X139513500Y-194840900D03*
X39042800Y-56404800D03*
X122853800Y-155977400D03*
X62453200Y-85483200D03*
X37967200Y-77306300D03*
X115407000Y-119760900D03*
X150374500Y-102917400D03*
X40914300Y-111259500D03*
X78221300Y-64168200D03*
X65460500Y-118792400D03*
X62546300Y-72672200D03*
X117242900Y-120531700D03*
X94799500Y-82362400D03*
X94093200Y-60156900D03*
X131510800Y-102870000D03*
X134809100Y-99770000D03*
X95208500Y-58720200D03*
X98061000Y-75235800D03*
X132705100Y-87630000D03*
X134809100Y-93270100D03*
X98640100Y-101571400D03*
X98315900Y-97975600D03*
X66202000Y-35383400D03*
X26061900Y-57029400D03*
X29515700Y-107615300D03*
X98308900Y-99816600D03*
X109160800Y-111361100D03*
X113947700Y-121528000D03*
X73446400Y-69273900D03*
X73446400Y-60309500D03*
X85224400Y-94052500D03*
X87964300Y-127043600D03*
X87751900Y-105656800D03*
X98655900Y-150573400D03*
X88426100Y-108899600D03*
X100649500Y-150506400D03*
X88195700Y-109700100D03*
X96983900Y-144310400D03*
X126319200Y-151447500D03*
X94489600Y-107838600D03*
X26996300Y-73641000D03*
X117973000Y-69850000D03*
X126823200Y-69383000D03*
X131123700Y-65082500D03*
X108535500Y-109573800D03*
X67264600Y-106676000D03*
X30169000Y-103591600D03*
X107693200Y-110429100D03*
X114544800Y-103372500D03*
X112497600Y-100458100D03*
X111028000Y-100458100D03*
X66364200Y-102506100D03*
X109455200Y-175143900D03*
X121849800Y-158499800D03*
X121854300Y-102097700D03*
X44946400Y-100259500D03*
X44997200Y-57403100D03*
X99158000Y-59123300D03*
X99161100Y-82586700D03*
X71543800Y-84706000D03*
X92085000Y-100360800D03*
X25288700Y-98800400D03*
X67392300Y-198813300D03*
X69918800Y-99748800D03*
X97758200Y-95880800D03*
X102893600Y-98423400D03*
X114539100Y-95146500D03*
X91116000Y-121315100D03*
X74963200Y-134293700D03*
X30630300Y-95386800D03*
X94180900Y-94792700D03*
X113174400Y-49296900D03*
X62341300Y-47105500D03*
X119753600Y-93202200D03*
X75677100Y-114836800D03*
X31250500Y-93465000D03*
X38236700Y-93465000D03*
X37882200Y-164765000D03*
X77638600Y-112328800D03*
X92067600Y-95243700D03*
X89988300Y-96724600D03*
X24241100Y-86897100D03*
X54242100Y-156173700D03*
X120155900Y-87420800D03*
X54928000Y-136652100D03*
X71089600Y-109688900D03*
X54477800Y-91355600D03*
X120576300Y-85593700D03*
X32287700Y-87774700D03*
X95394700Y-99827800D03*
X93306200Y-116174300D03*
X92979200Y-117425000D03*
X70895000Y-100084300D03*
X121048200Y-94430400D03*
X74001800Y-102167300D03*
X71671600Y-104704600D03*
X95173800Y-102435500D03*
X113848500Y-97645400D03*
X125814000Y-58236200D03*
X93373000Y-98071200D03*
X88224000Y-94586100D03*
X89513500Y-106142800D03*
X77721900Y-107712000D03*
X77408400Y-135684400D03*
X84962800Y-91724300D03*
X76681700Y-131824700D03*
X67826800Y-129690300D03*
X80871200Y-123158900D03*
X89046900Y-89513900D03*
X84645200Y-121607900D03*
X69940900Y-125541100D03*
X71016100Y-151516200D03*
X75130200Y-154816400D03*
X99381000Y-85029100D03*
X99508300Y-99092000D03*
X100004600Y-101998100D03*
X100173900Y-82844400D03*
X101148900Y-98188500D03*
X101140600Y-101955200D03*
X92870700Y-88172900D03*
X88363900Y-92351900D03*
X90190700Y-85731300D03*
X88059500Y-91157800D03*
X88433800Y-86860400D03*
X87400100Y-92709300D03*
X62544600Y-64945700D03*
X130870500Y-84866000D03*
X94558000Y-73368700D03*
X93751700Y-62835000D03*
X130157700Y-106631800D03*
X62916800Y-119184600D03*
X64590700Y-60198900D03*
X60959900Y-66789700D03*
X92821300Y-73755300D03*
X60959800Y-75780600D03*
X127346800Y-83654100D03*
X77014600Y-54129300D03*
X60334500Y-69354000D03*
X78226100Y-44662000D03*
X59576400Y-72086700D03*
X129486300Y-72618300D03*
X126772400Y-85133500D03*
X78407500Y-74282300D03*
X121452200Y-63861000D03*
X146405500Y-48721300D03*
X50094700Y-115009400D03*
X118791500Y-52673700D03*
X74616200Y-50129500D03*
X87245700Y-42651000D03*
X55907100Y-46413100D03*
X85244700Y-38110000D03*
X54082100Y-45265700D03*
X99009600Y-50283200D03*
X45656500Y-60850800D03*
X118213100Y-121548700D03*
X108905900Y-105847900D03*
X120436600Y-119350500D03*
X109074500Y-60964100D03*
X100243500Y-51681900D03*
X46479900Y-62219200D03*
X54929000Y-46185500D03*
X107463400Y-106853300D03*
X116246600Y-119503800D03*
X107867200Y-59181600D03*
X101000000Y-51272200D03*
X50785000Y-66574300D03*
X115080600Y-109201000D03*
X115171400Y-69242700D03*
X79710800Y-159087400D03*
X73458000Y-145152800D03*
X69592600Y-144133300D03*
X64212600Y-134932100D03*
X59101000Y-160068500D03*
X59101000Y-134775400D03*
X62091000Y-197275900D03*
X58417900Y-135494600D03*
X108418500Y-204861200D03*
X38673600Y-185644300D03*
X63184200Y-199401300D03*
X122830300Y-152098400D03*
X62750100Y-177969900D03*
X51628400Y-176787100D03*
X47005200Y-172163900D03*
X47005200Y-136330200D03*
X111346900Y-161706700D03*
X63810800Y-153790800D03*
X121162800Y-165104900D03*
X101877100Y-163452300D03*
X92261200Y-121491300D03*
X67195600Y-120421200D03*
X83669700Y-166740600D03*
X61435300Y-161554200D03*
X57699600Y-160201700D03*
X44556700Y-150466500D03*
X94344100Y-129389900D03*
X91991100Y-148449800D03*
X72240000Y-157296000D03*
X82556300Y-165705600D03*
X79205400Y-178494500D03*
X102030600Y-150071900D03*
X75712800Y-161337500D03*
X75712800Y-179181200D03*
X35575000Y-58490100D03*
X41991400Y-198844200D03*
X118732400Y-165346400D03*
X79865300Y-182443700D03*
X97541800Y-49786300D03*
X72413700Y-113295600D03*
X71106700Y-114602600D03*
X93000500Y-179605800D03*
X102833000Y-200318100D03*
X68489100Y-202986800D03*
X70248500Y-200065000D03*
X69509800Y-175391400D03*
X87652800Y-176734500D03*
X103033100Y-189666400D03*
X102003500Y-196241100D03*
X52848500Y-171415600D03*
X86776600Y-183669300D03*
X128917200Y-143510000D03*
X140449700Y-93331200D03*
X135176400Y-135759700D03*
X80398800Y-208409100D03*
X135443800Y-189760400D03*
X129395200Y-181652100D03*
D25*
X51925300Y-165100000D02*
X53340000Y-165100000D01*
X49385300Y-162560000D02*
X51925300Y-165100000D01*
X48260000Y-162560000D02*
X49385300Y-162560000D01*
D26*
X137160000Y-137160000D02*
X135659700Y-137160000D01*
X142240000Y-200660000D02*
X143740300Y-200660000D01*
X30520000Y-174260300D02*
X27940000Y-171680300D01*
X30520000Y-180340000D02*
X30520000Y-174260300D01*
X27940000Y-170180000D02*
X27940000Y-171680300D01*
X25963800Y-168203800D02*
X27940000Y-170180000D01*
X25963800Y-154416200D02*
X25963800Y-168203800D01*
X30520000Y-149860000D02*
X25963800Y-154416200D01*
X52757200Y-78740000D02*
X54650000Y-78740000D01*
X48260000Y-74242800D02*
X52757200Y-78740000D01*
X68580000Y-214630000D02*
X68580000Y-212422200D01*
X92940300Y-67540300D02*
X92940300Y-66040000D01*
X96520000Y-71120000D02*
X92940300Y-67540300D01*
X91440000Y-66040000D02*
X92940300Y-66040000D01*
X104140000Y-134620000D02*
X104140000Y-137160000D01*
X111760000Y-53340000D02*
X107715000Y-49295000D01*
X137160000Y-193040000D02*
X138660300Y-193040000D01*
X116206500Y-200660000D02*
X115339700Y-200660000D01*
X116206500Y-200660000D02*
X116840000Y-200660000D01*
X126535500Y-202164200D02*
X128039700Y-200660000D01*
X119844500Y-202164200D02*
X126535500Y-202164200D01*
X118340300Y-200660000D02*
X119844500Y-202164200D01*
X116840000Y-200660000D02*
X118340300Y-200660000D01*
X129540000Y-200660000D02*
X128039700Y-200660000D01*
X137160000Y-83820000D02*
X138660300Y-83820000D01*
X138660300Y-83629700D02*
X138660300Y-83820000D01*
X143550000Y-78740000D02*
X138660300Y-83629700D01*
X142240000Y-195580000D02*
X143740300Y-195580000D01*
X143740300Y-195580000D02*
X146280300Y-198120000D01*
X143740300Y-200660000D02*
X146280300Y-198120000D01*
X146280300Y-198120000D02*
X149860000Y-198120000D01*
X27940000Y-116840000D02*
X27940000Y-118340300D01*
X43220000Y-121920000D02*
X29493800Y-121920000D01*
X29493800Y-140686200D02*
X29493800Y-121920000D01*
X27940000Y-142240000D02*
X29493800Y-140686200D01*
X29493800Y-119894100D02*
X27940000Y-118340300D01*
X29493800Y-121920000D02*
X29493800Y-119894100D01*
X73660000Y-190500000D02*
X73660000Y-187960000D01*
X104140000Y-200660000D02*
X105640300Y-200660000D01*
X107141500Y-202161200D02*
X105640300Y-200660000D01*
X113838500Y-202161200D02*
X107141500Y-202161200D01*
X115339700Y-200660000D02*
X113838500Y-202161200D01*
X104140000Y-144780000D02*
X105640300Y-144780000D01*
X116840000Y-144780000D02*
X115339700Y-144780000D01*
X142240000Y-193040000D02*
X142240000Y-195580000D01*
X129540000Y-172720000D02*
X131040300Y-172720000D01*
X153630000Y-141050000D02*
X153630000Y-139700000D01*
X144820000Y-149860000D02*
X153630000Y-141050000D01*
X154832300Y-88792300D02*
X152400000Y-86360000D01*
X154832300Y-129567400D02*
X154832300Y-88792300D01*
X153670000Y-130729700D02*
X154832300Y-129567400D01*
X153670000Y-132080000D02*
X153670000Y-130729700D01*
X68580000Y-76200000D02*
X67079700Y-76200000D01*
X27940000Y-71120000D02*
X29440300Y-71120000D01*
X69850000Y-22860000D02*
X69850000Y-25067800D01*
X100330000Y-210901700D02*
X100077600Y-211154100D01*
X100330000Y-207010000D02*
X100330000Y-210901700D01*
X125960300Y-142700600D02*
X125960300Y-142240000D01*
X128039700Y-144780000D02*
X125960300Y-142700600D01*
X129540000Y-144780000D02*
X131040300Y-144780000D01*
X152400000Y-40640000D02*
X150899700Y-40640000D01*
X133470400Y-178989600D02*
X132120000Y-180340000D01*
X143469600Y-178989600D02*
X133470400Y-178989600D01*
X144820000Y-180340000D02*
X143469600Y-178989600D01*
X25989300Y-184870700D02*
X30520000Y-180340000D01*
X25989300Y-198709300D02*
X25989300Y-184870700D01*
X27940000Y-200660000D02*
X25989300Y-198709300D01*
X48260000Y-116840000D02*
X49760300Y-116840000D01*
X107155800Y-146295500D02*
X105640300Y-144780000D01*
X113275600Y-146295500D02*
X107155800Y-146295500D01*
X114791100Y-144780000D02*
X113275600Y-146295500D01*
X115339700Y-144780000D02*
X114791100Y-144780000D01*
X121406000Y-112274000D02*
X122472000Y-112274000D01*
X116840000Y-116840000D02*
X121406000Y-112274000D01*
X135659700Y-196040600D02*
X131040300Y-200660000D01*
X135659700Y-195580000D02*
X135659700Y-196040600D01*
X129540000Y-200660000D02*
X131040300Y-200660000D01*
X137160000Y-195580000D02*
X135659700Y-195580000D01*
X137160000Y-38100000D02*
X138660300Y-38100000D01*
X143550000Y-33894900D02*
X143550000Y-33020000D01*
X144154600Y-33894900D02*
X143550000Y-33894900D01*
X150899700Y-40640000D02*
X144154600Y-33894900D01*
X142865400Y-33894900D02*
X138660300Y-38100000D01*
X143550000Y-33894900D02*
X142865400Y-33894900D01*
X104140000Y-170180000D02*
X102686600Y-170180000D01*
X91440000Y-172720000D02*
X92940300Y-172720000D01*
X94459200Y-174238900D02*
X92940300Y-172720000D01*
X99717700Y-174238900D02*
X94459200Y-174238900D01*
X102686600Y-171270000D02*
X99717700Y-174238900D01*
X102686600Y-170180000D02*
X102686600Y-171270000D01*
X100330000Y-211406500D02*
X100077600Y-211154100D01*
X100330000Y-214630000D02*
X100330000Y-211406500D01*
X116840000Y-71120000D02*
X116840000Y-72538900D01*
X108070400Y-178989600D02*
X106720000Y-180340000D01*
X118069600Y-178989600D02*
X108070400Y-178989600D01*
X119420000Y-180340000D02*
X118069600Y-178989600D01*
X129540000Y-144780000D02*
X128039700Y-144780000D01*
X124460000Y-142240000D02*
X125960300Y-142240000D01*
X142240000Y-193040000D02*
X138660300Y-193040000D01*
X92940300Y-143637800D02*
X94293900Y-144991400D01*
X92940300Y-142240000D02*
X92940300Y-143637800D01*
X91440000Y-142240000D02*
X92940300Y-142240000D01*
X116117600Y-73261300D02*
X102422600Y-73261300D01*
X116840000Y-72538900D02*
X116117600Y-73261300D01*
X102133000Y-73550900D02*
X102422600Y-73261300D01*
X96618400Y-73550900D02*
X102133000Y-73550900D01*
X123041100Y-78740000D02*
X123230000Y-78740000D01*
X116840000Y-72538900D02*
X123041100Y-78740000D01*
X111571800Y-119528400D02*
X108301900Y-119528400D01*
X114260200Y-116840000D02*
X111571800Y-119528400D01*
X116840000Y-116840000D02*
X114260200Y-116840000D01*
X94629400Y-123296000D02*
X94020000Y-122686600D01*
X98800900Y-123296000D02*
X94629400Y-123296000D01*
X100176900Y-121920000D02*
X98800900Y-123296000D01*
X106720000Y-121920000D02*
X100176900Y-121920000D01*
X93607100Y-122686600D02*
X94020000Y-122686600D01*
X89453100Y-126840600D02*
X93607100Y-122686600D01*
X94020000Y-122686600D02*
X94020000Y-121920000D01*
X130769700Y-148509700D02*
X132120000Y-149860000D01*
X120770300Y-148509700D02*
X130769700Y-148509700D01*
X119420000Y-149860000D02*
X120770300Y-148509700D01*
X34749700Y-78320300D02*
X34749700Y-76429400D01*
X34330000Y-78740000D02*
X34749700Y-78320300D01*
X34749700Y-76429400D02*
X29440300Y-71120000D01*
X53340000Y-142240000D02*
X51839700Y-142240000D01*
X54701500Y-116840000D02*
X49760300Y-116840000D01*
X55920000Y-118058500D02*
X54701500Y-116840000D01*
X56341900Y-143741600D02*
X54840300Y-142240000D01*
X63038100Y-143741600D02*
X56341900Y-143741600D01*
X64539700Y-142240000D02*
X63038100Y-143741600D01*
X66040000Y-142240000D02*
X64539700Y-142240000D01*
X53340000Y-142240000D02*
X54840300Y-142240000D01*
X67864200Y-149860000D02*
X66663400Y-148659200D01*
X68620000Y-149860000D02*
X67864200Y-149860000D01*
X69970400Y-148509600D02*
X68620000Y-149860000D01*
X72060000Y-148509600D02*
X69970400Y-148509600D01*
X72470300Y-148919900D02*
X72060000Y-148509600D01*
X72470300Y-148920000D02*
X72470300Y-148919900D01*
X80380000Y-148920000D02*
X72470300Y-148920000D01*
X81320000Y-149860000D02*
X80380000Y-148920000D01*
X73287800Y-25067800D02*
X81240000Y-33020000D01*
X69850000Y-25067800D02*
X73287800Y-25067800D01*
X86360000Y-22860000D02*
X86360000Y-25067800D01*
X86360000Y-28300100D02*
X86360000Y-25067800D01*
X91079900Y-33020000D02*
X86360000Y-28300100D01*
X102910000Y-33020000D02*
X91079900Y-33020000D01*
X85959900Y-28300100D02*
X81240000Y-33020000D01*
X86360000Y-28300100D02*
X85959900Y-28300100D01*
X135659700Y-141992900D02*
X133944000Y-143708600D01*
X135659700Y-137160000D02*
X135659700Y-141992900D01*
X132872600Y-144780000D02*
X131040300Y-144780000D01*
X133944000Y-143708600D02*
X132872600Y-144780000D01*
X140095300Y-149860000D02*
X140729300Y-149860000D01*
X133944000Y-143708600D02*
X140095300Y-149860000D01*
X140729300Y-149860000D02*
X144820000Y-149860000D01*
X140729300Y-169055200D02*
X141854100Y-170180000D01*
X140729300Y-149860000D02*
X140729300Y-169055200D01*
X137813700Y-174220400D02*
X141854100Y-170180000D01*
X132540700Y-174220400D02*
X137813700Y-174220400D01*
X131040300Y-172720000D02*
X132540700Y-174220400D01*
X141854100Y-170180000D02*
X142240000Y-170180000D01*
X40640000Y-142240000D02*
X42140300Y-142240000D01*
X146323000Y-75967000D02*
X143550000Y-78740000D01*
X150336500Y-75967000D02*
X146323000Y-75967000D01*
X150336500Y-73914000D02*
X154013000Y-70237500D01*
X150336500Y-75967000D02*
X150336500Y-73914000D01*
X34873100Y-76306000D02*
X34749700Y-76429400D01*
X47988700Y-76306000D02*
X34873100Y-76306000D01*
X48068300Y-76385600D02*
X47988700Y-76306000D01*
X48068500Y-76385600D02*
X48068300Y-76385600D01*
X57190400Y-166450400D02*
X55840000Y-165100000D01*
X59569600Y-166450400D02*
X57190400Y-166450400D01*
X60920000Y-165100000D02*
X59569600Y-166450400D01*
X53343000Y-22860000D02*
X53340500Y-22857500D01*
X58460000Y-22860000D02*
X53343000Y-22860000D01*
X39370000Y-216837800D02*
X49530000Y-216837800D01*
X39370000Y-214630000D02*
X39370000Y-216837800D01*
X49530000Y-214630000D02*
X49530000Y-216837800D01*
X44596000Y-181716000D02*
X43220000Y-180340000D01*
X54544000Y-181716000D02*
X44596000Y-181716000D01*
X55920000Y-180340000D02*
X54544000Y-181716000D01*
X60821500Y-121920000D02*
X68620000Y-121920000D01*
X60304100Y-121402600D02*
X60821500Y-121920000D01*
X68180300Y-170180000D02*
X66040000Y-170180000D01*
X68499900Y-170499600D02*
X68180300Y-170180000D01*
X66040000Y-170180000D02*
X61090000Y-170180000D01*
X76867700Y-212422200D02*
X68580000Y-212422200D01*
X78135800Y-211154100D02*
X76867700Y-212422200D01*
X100077600Y-211154100D02*
X78135800Y-211154100D01*
X68580000Y-212422200D02*
X59690000Y-212422200D01*
X59690000Y-214630000D02*
X59690000Y-212422200D01*
X44782500Y-142240000D02*
X42140300Y-142240000D01*
X46296600Y-143754100D02*
X44782500Y-142240000D01*
X50325600Y-143754100D02*
X46296600Y-143754100D01*
X51839700Y-142240000D02*
X50325600Y-143754100D01*
X81214300Y-180234300D02*
X81320000Y-180340000D01*
X78226800Y-180234300D02*
X81214300Y-180234300D01*
X82817300Y-178842700D02*
X81320000Y-180340000D01*
X88687900Y-178842700D02*
X82817300Y-178842700D01*
X88935600Y-178595000D02*
X88687900Y-178842700D01*
X93410200Y-178595000D02*
X88935600Y-178595000D01*
X94020000Y-179204800D02*
X93410200Y-178595000D01*
X94020000Y-180340000D02*
X94020000Y-179204800D01*
X66377600Y-76902100D02*
X67079700Y-76200000D01*
X56487900Y-76902100D02*
X66377600Y-76902100D01*
X54650000Y-78740000D02*
X56487900Y-76902100D01*
X35680400Y-34370400D02*
X34330000Y-33020000D01*
X53299600Y-34370400D02*
X35680400Y-34370400D01*
X54650000Y-33020000D02*
X53299600Y-34370400D01*
D25*
X40640000Y-157480000D02*
X41765300Y-157480000D01*
X58420000Y-165100000D02*
X57444700Y-165100000D01*
X50506000Y-158605300D02*
X51020600Y-159119900D01*
X42890600Y-158605300D02*
X50506000Y-158605300D01*
X41765300Y-157480000D02*
X42890600Y-158605300D01*
X56469400Y-164124700D02*
X57444700Y-165100000D01*
X55565600Y-164124700D02*
X56469400Y-164124700D01*
X51020600Y-159579700D02*
X55565600Y-164124700D01*
X51020600Y-159119900D02*
X51020600Y-159579700D01*
X60934300Y-167309700D02*
X61972500Y-166271500D01*
X54374600Y-167309700D02*
X60934300Y-167309700D01*
X54374600Y-168120100D02*
X53340000Y-169154700D01*
X54374600Y-167309700D02*
X54374600Y-168120100D01*
X53340000Y-170180000D02*
X53340000Y-169154700D01*
X54374600Y-164336800D02*
X54374600Y-167309700D01*
X50057800Y-160020000D02*
X54374600Y-164336800D01*
X48260000Y-160020000D02*
X50057800Y-160020000D01*
D26*
X126850000Y-80090300D02*
X125730000Y-80090300D01*
X130579700Y-83820000D02*
X126850000Y-80090300D01*
X132080000Y-83820000D02*
X130579700Y-83820000D01*
X125730000Y-78740000D02*
X125730000Y-80090300D01*
X106530000Y-34370300D02*
X105410000Y-34370300D01*
X110259700Y-38100000D02*
X106530000Y-34370300D01*
X111760000Y-38100000D02*
X110259700Y-38100000D01*
X127000000Y-170180000D02*
X129540000Y-167640000D01*
X127000000Y-172305700D02*
X127000000Y-170180000D01*
X125073900Y-174231800D02*
X127000000Y-172305700D01*
X123806900Y-174231800D02*
X125073900Y-174231800D01*
X118340300Y-168765200D02*
X123806900Y-174231800D01*
X118340300Y-167640000D02*
X118340300Y-168765200D01*
X116840000Y-167640000D02*
X118340300Y-167640000D01*
X99060000Y-154940000D02*
X91440000Y-154940000D01*
X87860300Y-154940000D02*
X89939700Y-154940000D01*
X86360000Y-154940000D02*
X87860300Y-154940000D01*
X91440000Y-154940000D02*
X89939700Y-154940000D01*
X86360000Y-185420000D02*
X87860300Y-185420000D01*
X91440000Y-187960000D02*
X89939700Y-187960000D01*
X78740000Y-124460000D02*
X82550000Y-124460000D01*
X125730000Y-33020000D02*
X126405200Y-33020000D01*
X116944000Y-34416300D02*
X113260300Y-38100000D01*
X125008900Y-34416300D02*
X116944000Y-34416300D01*
X126405200Y-33020000D02*
X125008900Y-34416300D01*
X111760000Y-38100000D02*
X113260300Y-38100000D01*
X105410000Y-33020000D02*
X105410000Y-34070200D01*
X105410000Y-34070200D02*
X105410000Y-34370300D01*
X36830000Y-78740000D02*
X38180300Y-78740000D01*
X43180000Y-83820000D02*
X43180000Y-82319700D01*
X48260000Y-185420000D02*
X49760300Y-185420000D01*
X57150000Y-33020000D02*
X58500300Y-33020000D01*
X80090300Y-34370300D02*
X78740000Y-33020000D01*
X105410000Y-34370300D02*
X80090300Y-34370300D01*
X78740000Y-33020000D02*
X58500300Y-33020000D01*
X84961200Y-124460000D02*
X82550000Y-124460000D01*
X86360000Y-124460000D02*
X84961200Y-124460000D01*
X54840300Y-183919700D02*
X58420000Y-180340000D01*
X51260600Y-183919700D02*
X54840300Y-183919700D01*
X49760300Y-185420000D02*
X51260600Y-183919700D01*
X87860300Y-185880600D02*
X89939700Y-187960000D01*
X87860300Y-185420000D02*
X87860300Y-185880600D01*
X103402900Y-124157400D02*
X100560300Y-127000000D01*
X106982600Y-124157400D02*
X103402900Y-124157400D01*
X109220000Y-121920000D02*
X106982600Y-124157400D01*
X99060000Y-127000000D02*
X100560300Y-127000000D01*
X99060000Y-193040000D02*
X104140000Y-193040000D01*
X133580400Y-39600400D02*
X132080000Y-38100000D01*
X133580400Y-41679600D02*
X133580400Y-39600400D01*
X132080000Y-43180000D02*
X133580400Y-41679600D01*
X130579700Y-37194500D02*
X126405200Y-33020000D01*
X130579700Y-38100000D02*
X130579700Y-37194500D01*
X132080000Y-38100000D02*
X130579700Y-38100000D01*
X136812500Y-67540300D02*
X137160000Y-67540300D01*
X134589000Y-69763800D02*
X136812500Y-67540300D01*
X104140000Y-193040000D02*
X105640300Y-193040000D01*
X39952200Y-124108100D02*
X37060300Y-127000000D01*
X43531900Y-124108100D02*
X39952200Y-124108100D01*
X45720000Y-121920000D02*
X43531900Y-124108100D01*
X35560000Y-127000000D02*
X37060300Y-127000000D01*
X43180500Y-22857500D02*
X44880800Y-22857500D01*
X57150000Y-33020000D02*
X57150000Y-31669700D01*
X57150000Y-24557900D02*
X57150000Y-31669700D01*
X46581200Y-24557900D02*
X57150000Y-24557900D01*
X44880800Y-22857500D02*
X46581200Y-24557900D01*
X59262100Y-24557900D02*
X60960000Y-22860000D01*
X57150000Y-24557900D02*
X59262100Y-24557900D01*
X39600300Y-78740000D02*
X43180000Y-82319700D01*
X38180300Y-78740000D02*
X39600300Y-78740000D01*
X110259700Y-83509400D02*
X105490300Y-78740000D01*
X110259700Y-83820000D02*
X110259700Y-83509400D01*
X104140000Y-78740000D02*
X105490300Y-78740000D01*
X111760000Y-83820000D02*
X110259700Y-83820000D01*
X132080000Y-88900000D02*
X130579700Y-88900000D01*
X111760000Y-83820000D02*
X113260300Y-83820000D01*
X130210200Y-149860000D02*
X123270300Y-149860000D01*
X131582200Y-151232000D02*
X130210200Y-149860000D01*
X133248000Y-151232000D02*
X131582200Y-151232000D01*
X134620000Y-149860000D02*
X133248000Y-151232000D01*
X121920000Y-149860000D02*
X123270300Y-149860000D01*
X137160000Y-66040000D02*
X137160000Y-66790100D01*
X137160000Y-66790100D02*
X137160000Y-67540300D01*
X146104000Y-66790100D02*
X148165300Y-64728800D01*
X137160000Y-66790100D02*
X146104000Y-66790100D01*
X109961200Y-192298800D02*
X111760000Y-190500000D01*
X109961200Y-192613200D02*
X109961200Y-192298800D01*
X114787500Y-82292800D02*
X113260300Y-83820000D01*
X118690200Y-82292800D02*
X114787500Y-82292800D01*
X125297400Y-88900000D02*
X118690200Y-82292800D01*
X130579700Y-88900000D02*
X125297400Y-88900000D01*
X106067100Y-192613200D02*
X109961200Y-192613200D01*
X105640300Y-193040000D02*
X106067100Y-192613200D01*
X80010000Y-212422200D02*
X91440000Y-212422200D01*
X80010000Y-214630000D02*
X80010000Y-212422200D01*
X91440000Y-214630000D02*
X91440000Y-212422200D01*
X96548600Y-181690300D02*
X96520000Y-181690300D01*
X97313900Y-182455600D02*
X96548600Y-181690300D01*
X96520000Y-180340000D02*
X96520000Y-181690300D01*
X137160000Y-127000000D02*
X135659700Y-127000000D01*
X124460000Y-127000000D02*
X125960300Y-127000000D01*
X134031600Y-125371800D02*
X135659700Y-127000000D01*
X133903700Y-125499700D02*
X134031600Y-125371800D01*
X127460600Y-125499700D02*
X133903700Y-125499700D01*
X125960300Y-127000000D02*
X127460600Y-125499700D01*
X134567500Y-124835900D02*
X134567500Y-124835800D01*
X134031600Y-125371800D02*
X134567500Y-124835900D01*
X65352200Y-124108100D02*
X62460300Y-127000000D01*
X68931900Y-124108100D02*
X65352200Y-124108100D01*
X71120000Y-121920000D02*
X68931900Y-124108100D01*
X60960000Y-127000000D02*
X62460300Y-127000000D01*
X58730600Y-123270300D02*
X60960000Y-125499700D01*
X58420000Y-123270300D02*
X58730600Y-123270300D01*
X60960000Y-127000000D02*
X60960000Y-125499700D01*
X58420000Y-121920000D02*
X58420000Y-123270300D01*
X73660000Y-154940000D02*
X72159700Y-154940000D01*
X63127700Y-152772300D02*
X60960000Y-154940000D01*
X69992000Y-152772300D02*
X63127700Y-152772300D01*
X72159700Y-154940000D02*
X69992000Y-152772300D01*
X69992000Y-150988000D02*
X71120000Y-149860000D01*
X69992000Y-152772300D02*
X69992000Y-150988000D01*
X128039700Y-187499400D02*
X125960300Y-185420000D01*
X128039700Y-187960000D02*
X128039700Y-187499400D01*
X124460000Y-185420000D02*
X125960300Y-185420000D01*
X129540000Y-187960000D02*
X128039700Y-187960000D01*
X136849400Y-183919700D02*
X137160000Y-183919700D01*
X134620000Y-181690300D02*
X136849400Y-183919700D01*
X134620000Y-180340000D02*
X134620000Y-181690300D01*
X137160000Y-185420000D02*
X137160000Y-183919700D01*
X68252900Y-183207100D02*
X60960000Y-183207100D01*
X71120000Y-180340000D02*
X68252900Y-183207100D01*
X131634100Y-181690300D02*
X131040300Y-182284100D01*
X134620000Y-181690300D02*
X131634100Y-181690300D01*
X115806900Y-124453400D02*
X113260300Y-127000000D01*
X119386600Y-124453400D02*
X115806900Y-124453400D01*
X121920000Y-121920000D02*
X119386600Y-124453400D01*
X111760000Y-127000000D02*
X113260300Y-127000000D01*
X81156600Y-147196600D02*
X71331700Y-147196600D01*
X83820000Y-149860000D02*
X81156600Y-147196600D01*
X58270000Y-80090300D02*
X57150000Y-80090300D01*
X61999700Y-83820000D02*
X58270000Y-80090300D01*
X63500000Y-83820000D02*
X61999700Y-83820000D01*
X57150000Y-78740000D02*
X57150000Y-80090300D01*
X86360000Y-154940000D02*
X84859700Y-154940000D01*
X53340000Y-160020000D02*
X48260000Y-154940000D01*
X83946900Y-154027200D02*
X83820000Y-154027200D01*
X84859700Y-154940000D02*
X83946900Y-154027200D01*
X77341200Y-124819100D02*
X77341200Y-124460000D01*
X75160300Y-127000000D02*
X77341200Y-124819100D01*
X73660000Y-127000000D02*
X75160300Y-127000000D01*
X78740000Y-124460000D02*
X77341200Y-124460000D01*
X63376500Y-86483500D02*
X63500000Y-86360000D01*
X53094400Y-86483500D02*
X63376500Y-86483500D01*
X48930600Y-82319700D02*
X53094400Y-86483500D01*
X43180000Y-82319700D02*
X48930600Y-82319700D01*
X109530600Y-181690300D02*
X109220000Y-181690300D01*
X111760000Y-183919700D02*
X109530600Y-181690300D01*
X111760000Y-185420000D02*
X111760000Y-183919700D01*
X109220000Y-180340000D02*
X109220000Y-181690300D01*
X33958500Y-151210300D02*
X33020000Y-151210300D01*
X35652200Y-152904000D02*
X33958500Y-151210300D01*
X33020000Y-149860000D02*
X33020000Y-151210300D01*
X42343200Y-176963200D02*
X41755300Y-176963200D01*
X45720000Y-180340000D02*
X42343200Y-176963200D01*
X59960200Y-180529900D02*
X59770300Y-180340000D01*
X60672100Y-180529900D02*
X59960200Y-180529900D01*
X58420000Y-180340000D02*
X59770300Y-180340000D01*
X48260000Y-154940000D02*
X46759700Y-154940000D01*
X37978000Y-159898000D02*
X37978000Y-155243300D01*
X40640000Y-162560000D02*
X37978000Y-159898000D01*
X37363600Y-155243300D02*
X37978000Y-155243300D01*
X37060300Y-154940000D02*
X37363600Y-155243300D01*
X35560000Y-154940000D02*
X37060300Y-154940000D01*
X98863300Y-212422200D02*
X91440000Y-212422200D01*
X98994500Y-212553400D02*
X98863300Y-212422200D01*
X148359700Y-184678600D02*
X148359700Y-185420000D01*
X147436400Y-183755300D02*
X148359700Y-184678600D01*
X149860000Y-185420000D02*
X148359700Y-185420000D01*
X73660000Y-185420000D02*
X75160300Y-185420000D01*
X92940300Y-190039400D02*
X92940300Y-190500000D01*
X97559700Y-185420000D02*
X92940300Y-190039400D01*
X99060000Y-185420000D02*
X97559700Y-185420000D01*
X91440000Y-190500000D02*
X92940300Y-190500000D01*
X93511400Y-76771100D02*
X92940300Y-76200000D01*
X102896000Y-76771100D02*
X93511400Y-76771100D01*
X91440000Y-76200000D02*
X92940300Y-76200000D01*
X76666200Y-183914100D02*
X83211800Y-183914100D01*
X75160300Y-185420000D02*
X76666200Y-183914100D01*
X45243700Y-153424000D02*
X46759700Y-154940000D01*
X39797300Y-153424000D02*
X45243700Y-153424000D01*
X37978000Y-155243300D02*
X39797300Y-153424000D01*
D25*
X92420800Y-207010000D02*
X90183200Y-209247600D01*
X92710000Y-207010000D02*
X92420800Y-207010000D01*
X91440000Y-160020000D02*
X92565300Y-160020000D01*
X104140000Y-154940000D02*
X103061600Y-154940000D01*
X99431200Y-156210000D02*
X100676400Y-154964800D01*
X96375300Y-156210000D02*
X99431200Y-156210000D01*
X92565300Y-160020000D02*
X96375300Y-156210000D01*
X100701200Y-154940000D02*
X103061600Y-154940000D01*
X100676400Y-154964800D02*
X100701200Y-154940000D01*
X98110300Y-152398700D02*
X87411900Y-152398700D01*
X100676400Y-154964800D02*
X98110300Y-152398700D01*
X105601600Y-159194400D02*
X105601600Y-160020000D01*
X104593000Y-158185800D02*
X105601600Y-159194400D01*
X103173900Y-158185800D02*
X104593000Y-158185800D01*
X102625000Y-158734700D02*
X103173900Y-158185800D01*
X96390600Y-158734700D02*
X102625000Y-158734700D01*
X92565300Y-162560000D02*
X96390600Y-158734700D01*
X91440000Y-162560000D02*
X92565300Y-162560000D01*
X106680000Y-160020000D02*
X105601600Y-160020000D01*
X89998600Y-135718600D02*
X86360000Y-132080000D01*
X89998600Y-137331500D02*
X89998600Y-135718600D01*
X90994200Y-138327100D02*
X89998600Y-137331500D01*
X93221800Y-138327100D02*
X90994200Y-138327100D01*
X93501000Y-138606300D02*
X93221800Y-138327100D01*
X92791500Y-133456600D02*
X93651500Y-134316600D01*
X90276600Y-133456600D02*
X92791500Y-133456600D01*
X86360000Y-129540000D02*
X90276600Y-133456600D01*
X101927100Y-166234500D02*
X103061600Y-165100000D01*
X97239200Y-166234500D02*
X101927100Y-166234500D01*
X96016000Y-165011300D02*
X97239200Y-166234500D01*
X95506800Y-165011300D02*
X96016000Y-165011300D01*
X104140000Y-165100000D02*
X103061600Y-165100000D01*
X95447800Y-135089600D02*
X95447900Y-135089600D01*
X95447800Y-134476400D02*
X95447800Y-135089600D01*
X91781400Y-130810000D02*
X95447800Y-134476400D01*
X90170000Y-130810000D02*
X91781400Y-130810000D01*
X86360000Y-127000000D02*
X90170000Y-130810000D01*
D26*
X141837900Y-24130000D02*
X132080000Y-24130000D01*
X156571400Y-38863500D02*
X141837900Y-24130000D01*
X156571400Y-196123500D02*
X156571400Y-38863500D01*
X135857100Y-216837800D02*
X156571400Y-196123500D01*
X77470000Y-216837800D02*
X135857100Y-216837800D01*
X77470000Y-214630000D02*
X77470000Y-216837800D01*
X100994400Y-20652200D02*
X101932200Y-21590000D01*
X91440000Y-20652200D02*
X100994400Y-20652200D01*
X91440000Y-22860000D02*
X91440000Y-20652200D01*
X104140000Y-21590000D02*
X101932200Y-21590000D01*
X128934400Y-20652200D02*
X129872200Y-21590000D01*
X119380000Y-20652200D02*
X128934400Y-20652200D01*
X119380000Y-22860000D02*
X119380000Y-20652200D01*
X132080000Y-21590000D02*
X129872200Y-21590000D01*
D25*
X98028000Y-26908000D02*
X93980000Y-22860000D01*
X122584000Y-26908000D02*
X98028000Y-26908000D01*
X136034700Y-40358700D02*
X122584000Y-26908000D01*
X136034700Y-40640000D02*
X136034700Y-40358700D01*
X137160000Y-40640000D02*
X136034700Y-40640000D01*
X99071200Y-25411200D02*
X96520000Y-22860000D01*
X122826700Y-25411200D02*
X99071200Y-25411200D01*
X136785500Y-39370000D02*
X122826700Y-25411200D01*
X137536100Y-39370000D02*
X136785500Y-39370000D01*
X138683800Y-40517700D02*
X137536100Y-39370000D01*
X137160000Y-86360000D02*
X137160000Y-87485300D01*
X131091800Y-32031800D02*
X121920000Y-22860000D01*
X147923400Y-32031800D02*
X131091800Y-32031800D01*
X155288600Y-39397000D02*
X147923400Y-32031800D01*
X155288600Y-72928500D02*
X155288600Y-39397000D01*
X138190400Y-90026700D02*
X155288600Y-72928500D01*
X136654800Y-90026700D02*
X138190400Y-90026700D01*
X136021300Y-89393200D02*
X136654800Y-90026700D01*
X136021300Y-88342700D02*
X136021300Y-89393200D01*
X136878700Y-87485300D02*
X136021300Y-88342700D01*
X137160000Y-87485300D02*
X136878700Y-87485300D01*
X126968200Y-25368200D02*
X124460000Y-22860000D01*
X141896700Y-25368200D02*
X126968200Y-25368200D01*
X155738900Y-39210400D02*
X141896700Y-25368200D01*
X155738900Y-75835000D02*
X155738900Y-39210400D01*
X140795100Y-90778800D02*
X155738900Y-75835000D01*
X75761600Y-205301600D02*
X77470000Y-207010000D01*
X40458000Y-205301600D02*
X75761600Y-205301600D01*
X37135700Y-201979300D02*
X40458000Y-205301600D01*
X37135700Y-180087700D02*
X37135700Y-201979300D01*
X31345400Y-174297400D02*
X37135700Y-180087700D01*
X31345400Y-166809400D02*
X31345400Y-174297400D01*
X28221300Y-163685300D02*
X31345400Y-166809400D01*
X27940000Y-163685300D02*
X28221300Y-163685300D01*
X27940000Y-162560000D02*
X27940000Y-163685300D01*
X109159200Y-171450000D02*
X113030000Y-171450000D01*
X108938300Y-171229100D02*
X109159200Y-171450000D01*
X116186200Y-147030300D02*
X113992900Y-147030300D01*
X118922500Y-144294000D02*
X116186200Y-147030300D01*
X118922500Y-141075900D02*
X118922500Y-144294000D01*
X123982900Y-136015500D02*
X118922500Y-141075900D01*
X124977900Y-136015500D02*
X123982900Y-136015500D01*
X125623200Y-136660800D02*
X124977900Y-136015500D01*
X125623200Y-138536800D02*
X125623200Y-136660800D01*
X124460000Y-139700000D02*
X125623200Y-138536800D01*
X124460000Y-137160000D02*
X124460000Y-138285300D01*
X124178700Y-138285300D02*
X124460000Y-138285300D01*
X123283100Y-139180900D02*
X124178700Y-138285300D01*
X123283100Y-142715800D02*
X123283100Y-139180900D01*
X124077300Y-143510000D02*
X123283100Y-142715800D01*
X125577400Y-143510000D02*
X124077300Y-143510000D01*
X129751700Y-147684300D02*
X125577400Y-143510000D01*
X134204700Y-147684300D02*
X129751700Y-147684300D01*
X138330200Y-151809800D02*
X134204700Y-147684300D01*
X138330200Y-155435500D02*
X138330200Y-151809800D01*
X137555700Y-156210000D02*
X138330200Y-155435500D01*
X136795100Y-156210000D02*
X137555700Y-156210000D01*
X131599500Y-161405600D02*
X136795100Y-156210000D01*
X131599500Y-169768300D02*
X131599500Y-161405600D01*
X129917800Y-171450000D02*
X131599500Y-169768300D01*
X129134900Y-171450000D02*
X129917800Y-171450000D01*
X125527100Y-175057800D02*
X129134900Y-171450000D01*
X123387600Y-175057800D02*
X125527100Y-175057800D01*
X117239800Y-168910000D02*
X123387600Y-175057800D01*
X113030000Y-168910000D02*
X117239800Y-168910000D01*
X113638200Y-163830000D02*
X115518900Y-161949300D01*
X113030000Y-163830000D02*
X113638200Y-163830000D01*
X137160000Y-53340000D02*
X136034700Y-53340000D01*
X136034700Y-53800400D02*
X133350000Y-56485100D01*
X136034700Y-53340000D02*
X136034700Y-53800400D01*
X118665000Y-153808800D02*
X118774800Y-153918600D01*
X116376900Y-153808800D02*
X118665000Y-153808800D01*
X114950300Y-155235400D02*
X116376900Y-153808800D01*
X114950300Y-155780000D02*
X114950300Y-155235400D01*
X113168800Y-157561500D02*
X114950300Y-155780000D01*
X112730100Y-157561500D02*
X113168800Y-157561500D01*
X111962300Y-158329300D02*
X112730100Y-157561500D01*
X111962300Y-159379900D02*
X111962300Y-158329300D01*
X112260900Y-159678500D02*
X111962300Y-159379900D01*
X116840000Y-132080000D02*
X117965300Y-132080000D01*
X137160000Y-99060000D02*
X137160000Y-100185300D01*
X117965300Y-131798700D02*
X117965300Y-132080000D01*
X125753500Y-124010500D02*
X117965300Y-131798700D01*
X135671200Y-124010500D02*
X125753500Y-124010500D01*
X138620200Y-121061500D02*
X135671200Y-124010500D01*
X138629900Y-101373900D02*
X138629900Y-105398700D01*
X137441300Y-100185300D02*
X138629900Y-101373900D01*
X137160000Y-100185300D02*
X137441300Y-100185300D01*
X117647800Y-156210000D02*
X117965400Y-155892400D01*
X115570000Y-156210000D02*
X117647800Y-156210000D01*
X113030000Y-158750000D02*
X115570000Y-156210000D01*
X114363800Y-196930900D02*
X105747600Y-196930900D01*
X115714700Y-195580000D02*
X114363800Y-196930900D01*
X116840000Y-195580000D02*
X115714700Y-195580000D01*
X111205800Y-155494200D02*
X113030000Y-153670000D01*
X111205800Y-159992900D02*
X111205800Y-155494200D01*
X89576000Y-148924800D02*
X89576000Y-149240000D01*
X87085900Y-146434700D02*
X89576000Y-148924800D01*
X83924700Y-186213600D02*
X83924700Y-189377400D01*
X85843700Y-184294600D02*
X83924700Y-186213600D01*
X89189300Y-184294600D02*
X85843700Y-184294600D01*
X90314700Y-185420000D02*
X89189300Y-184294600D01*
X48068400Y-213804300D02*
X48068400Y-214630000D01*
X51281500Y-210591200D02*
X48068400Y-213804300D01*
X70268900Y-210591200D02*
X51281500Y-210591200D01*
X46990000Y-214630000D02*
X48068400Y-214630000D01*
X91440000Y-185420000D02*
X90314700Y-185420000D01*
X91440000Y-193040000D02*
X91440000Y-191914700D01*
X89947000Y-143287000D02*
X89947000Y-144429900D01*
X86360000Y-139700000D02*
X89947000Y-143287000D01*
X91181000Y-191914700D02*
X89557300Y-190291000D01*
X91440000Y-191914700D02*
X91181000Y-191914700D01*
X56403000Y-211375400D02*
X53148400Y-214630000D01*
X71786700Y-211375400D02*
X56403000Y-211375400D01*
X72247200Y-210914900D02*
X71786700Y-211375400D01*
X52070000Y-214630000D02*
X53148400Y-214630000D01*
X36830000Y-214630000D02*
X37908400Y-214630000D01*
X91934400Y-145335400D02*
X93044700Y-146445700D01*
X89953200Y-145335400D02*
X91934400Y-145335400D01*
X86857800Y-142240000D02*
X89953200Y-145335400D01*
X86360000Y-142240000D02*
X86857800Y-142240000D01*
X88540600Y-209068100D02*
X92278800Y-205329900D01*
X42644600Y-209068100D02*
X88540600Y-209068100D01*
X37908400Y-213804300D02*
X42644600Y-209068100D01*
X37908400Y-214630000D02*
X37908400Y-213804300D01*
X99781300Y-169022500D02*
X100100100Y-169341300D01*
X98813100Y-169022500D02*
X99781300Y-169022500D01*
X96113500Y-166322900D02*
X98813100Y-169022500D01*
X96113500Y-165993300D02*
X96113500Y-166322900D01*
X47726600Y-209891800D02*
X42988400Y-214630000D01*
X91703600Y-209891800D02*
X47726600Y-209891800D01*
X96162000Y-205433400D02*
X91703600Y-209891800D01*
X41910000Y-214630000D02*
X42988400Y-214630000D01*
X89420000Y-147840000D02*
X90239900Y-147840000D01*
X86360000Y-144780000D02*
X89420000Y-147840000D01*
X124460000Y-144780000D02*
X123334700Y-144780000D01*
X95037600Y-139069100D02*
X96625400Y-139069100D01*
X91859100Y-135890600D02*
X95037600Y-139069100D01*
X91107500Y-135890600D02*
X91859100Y-135890600D01*
X89797100Y-134580200D02*
X91107500Y-135890600D01*
X89797100Y-134050400D02*
X89797100Y-134580200D01*
X86556700Y-130810000D02*
X89797100Y-134050400D01*
X86122500Y-130810000D02*
X86556700Y-130810000D01*
X82550000Y-127237500D02*
X86122500Y-130810000D01*
X82550000Y-127000000D02*
X82550000Y-127237500D01*
X81981400Y-108371800D02*
X82032200Y-108321000D01*
X76876700Y-108371800D02*
X81981400Y-108371800D01*
X71509400Y-103004500D02*
X76876700Y-108371800D01*
X68116600Y-103004500D02*
X71509400Y-103004500D01*
X67182100Y-102070000D02*
X68116600Y-103004500D01*
X120459100Y-147655600D02*
X123334700Y-144780000D01*
X113733900Y-147655600D02*
X120459100Y-147655600D01*
X113539100Y-147460800D02*
X113733900Y-147655600D01*
X101034000Y-147460800D02*
X113539100Y-147460800D01*
X97785100Y-144211900D02*
X101034000Y-147460800D01*
X68580000Y-96520000D02*
X69705300Y-96520000D01*
X79626500Y-99932900D02*
X81496500Y-99932900D01*
X76213600Y-96520000D02*
X79626500Y-99932900D01*
X69705300Y-96520000D02*
X76213600Y-96520000D01*
X116840000Y-142240000D02*
X115714700Y-142240000D01*
X82550000Y-129799500D02*
X82550000Y-129540000D01*
X86100500Y-133350000D02*
X82550000Y-129799500D01*
X86545700Y-133350000D02*
X86100500Y-133350000D01*
X89323200Y-136127500D02*
X86545700Y-133350000D01*
X89323200Y-139180500D02*
X89323200Y-136127500D01*
X91257400Y-141114700D02*
X89323200Y-139180500D01*
X114589400Y-141114700D02*
X91257400Y-141114700D01*
X115714700Y-142240000D02*
X114589400Y-141114700D01*
X75194800Y-93980000D02*
X79345900Y-98131100D01*
X68580000Y-93980000D02*
X75194800Y-93980000D01*
X82550000Y-131893300D02*
X82550000Y-132080000D01*
X78926700Y-128270000D02*
X82550000Y-131893300D01*
X78407500Y-128270000D02*
X78926700Y-128270000D01*
X77409300Y-127271800D02*
X78407500Y-128270000D01*
X117121400Y-140825300D02*
X116840000Y-140825300D01*
X117965300Y-141669200D02*
X117121400Y-140825300D01*
X117965300Y-142713200D02*
X117965300Y-141669200D01*
X117168500Y-143510000D02*
X117965300Y-142713200D01*
X96846800Y-143510000D02*
X117168500Y-143510000D01*
X96016400Y-144340400D02*
X96846800Y-143510000D01*
X96016400Y-144448200D02*
X96016400Y-144340400D01*
X94647800Y-145816800D02*
X96016400Y-144448200D01*
X93425200Y-145816800D02*
X94647800Y-145816800D01*
X87969100Y-140360700D02*
X93425200Y-145816800D01*
X87969100Y-137262200D02*
X87969100Y-140360700D01*
X86596900Y-135890000D02*
X87969100Y-137262200D01*
X86124700Y-135890000D02*
X86596900Y-135890000D01*
X82550000Y-132315300D02*
X86124700Y-135890000D01*
X82550000Y-132080000D02*
X82550000Y-132315300D01*
X116840000Y-139700000D02*
X116840000Y-140825300D01*
X73853200Y-66040000D02*
X74952100Y-67138900D01*
X68580000Y-66040000D02*
X73853200Y-66040000D01*
X79916700Y-95239300D02*
X82943700Y-98266300D01*
X79916700Y-94054100D02*
X79916700Y-95239300D01*
X73645200Y-68580000D02*
X74766400Y-69701200D01*
X68580000Y-68580000D02*
X73645200Y-68580000D01*
X83569500Y-95514400D02*
X78987100Y-90932000D01*
X69008200Y-131564700D02*
X69008200Y-131334300D01*
X73445400Y-136001900D02*
X69008200Y-131564700D01*
X76034500Y-136001900D02*
X73445400Y-136001900D01*
X78303200Y-138270600D02*
X76034500Y-136001900D01*
X81120600Y-138270600D02*
X78303200Y-138270600D01*
X82550000Y-139700000D02*
X81120600Y-138270600D01*
X62089900Y-144579500D02*
X54020000Y-152649400D01*
X66142800Y-144579500D02*
X62089900Y-144579500D01*
X69008200Y-141714100D02*
X66142800Y-144579500D01*
X40640000Y-137160000D02*
X39514700Y-137160000D01*
X64869600Y-146643300D02*
X60784400Y-150728500D01*
X66127800Y-146643300D02*
X64869600Y-146643300D01*
X69263100Y-143508000D02*
X66127800Y-146643300D01*
X81282000Y-143508000D02*
X69263100Y-143508000D01*
X82550000Y-142240000D02*
X81282000Y-143508000D01*
X39514700Y-137441300D02*
X39514700Y-137160000D01*
X35986000Y-140970000D02*
X39514700Y-137441300D01*
X35180300Y-140970000D02*
X35986000Y-140970000D01*
X34405600Y-141744700D02*
X35180300Y-140970000D01*
X34405600Y-142751500D02*
X34405600Y-141744700D01*
X39451600Y-147797500D02*
X34405600Y-142751500D01*
X46123900Y-147797500D02*
X39451600Y-147797500D01*
X49991700Y-151665300D02*
X46123900Y-147797500D01*
X49991700Y-153483000D02*
X49991700Y-151665300D01*
X53325400Y-156816700D02*
X49991700Y-153483000D01*
X54528400Y-156816700D02*
X53325400Y-156816700D01*
X55998600Y-155346500D02*
X54528400Y-156816700D01*
X55998600Y-155282200D02*
X55998600Y-155346500D01*
X60552300Y-150728500D02*
X55998600Y-155282200D01*
X60784400Y-150728500D02*
X60552300Y-150728500D01*
X57062400Y-156911400D02*
X55429700Y-156911400D01*
X66429900Y-147543900D02*
X57062400Y-156911400D01*
X67903200Y-147543900D02*
X66429900Y-147543900D01*
X69188300Y-146258800D02*
X67903200Y-147543900D01*
X81071200Y-146258800D02*
X69188300Y-146258800D01*
X82550000Y-144780000D02*
X81071200Y-146258800D01*
X54617100Y-154143200D02*
X55340400Y-154143200D01*
X44100700Y-143626800D02*
X54617100Y-154143200D01*
X77251300Y-120878800D02*
X77909400Y-121536900D01*
X67622400Y-120878800D02*
X77251300Y-120878800D01*
X67433400Y-121067800D02*
X67622400Y-120878800D01*
X66514200Y-121067800D02*
X67433400Y-121067800D01*
X66029000Y-120582600D02*
X66514200Y-121067800D01*
X65938500Y-120492100D02*
X66029000Y-120582600D01*
X55829500Y-120492100D02*
X65938500Y-120492100D01*
X52714400Y-123607200D02*
X55829500Y-120492100D01*
X78688700Y-129488700D02*
X78740000Y-129540000D01*
X75051800Y-129488700D02*
X78688700Y-129488700D01*
X71579600Y-136034600D02*
X71992600Y-135621600D01*
X71579600Y-136034700D02*
X71579600Y-136034600D01*
X64886800Y-136034700D02*
X71579600Y-136034700D01*
X62627900Y-138293600D02*
X64886800Y-136034700D01*
X58756700Y-138293600D02*
X62627900Y-138293600D01*
X57211300Y-139839000D02*
X58756700Y-138293600D01*
X54604300Y-139839000D02*
X57211300Y-139839000D01*
X54465300Y-139700000D02*
X54604300Y-139839000D01*
X53340000Y-139700000D02*
X54465300Y-139700000D01*
X79177500Y-111463500D02*
X72354800Y-111463500D01*
X79399900Y-111685900D02*
X79177500Y-111463500D01*
X35411100Y-115871000D02*
X35411100Y-117865200D01*
X40650300Y-110631800D02*
X35411100Y-115871000D01*
X69987100Y-110631800D02*
X40650300Y-110631800D01*
X70818800Y-111463500D02*
X69987100Y-110631800D01*
X72354800Y-111463500D02*
X70818800Y-111463500D01*
X27658600Y-189085300D02*
X27940000Y-189085300D01*
X26814700Y-189929200D02*
X27658600Y-189085300D01*
X26814700Y-196150700D02*
X26814700Y-189929200D01*
X27658700Y-196994700D02*
X26814700Y-196150700D01*
X27940000Y-196994700D02*
X27658700Y-196994700D01*
X27940000Y-198120000D02*
X27940000Y-196994700D01*
X27940000Y-187960000D02*
X27940000Y-189085300D01*
X75901300Y-93272600D02*
X80245900Y-97617200D01*
X74144700Y-93272600D02*
X75901300Y-93272600D01*
X63180900Y-73305800D02*
X34695500Y-73305800D01*
X64770200Y-74895100D02*
X63180900Y-73305800D01*
X31605300Y-198120000D02*
X35560000Y-198120000D01*
X29065300Y-195580000D02*
X31605300Y-198120000D01*
X27940000Y-195580000D02*
X29065300Y-195580000D01*
X36515700Y-148884600D02*
X39604500Y-151973400D01*
X32187500Y-148884600D02*
X36515700Y-148884600D01*
X31929300Y-149142800D02*
X32187500Y-148884600D01*
X31929300Y-149966100D02*
X31929300Y-149142800D01*
X28080700Y-153814700D02*
X31929300Y-149966100D01*
X27940000Y-153814700D02*
X28080700Y-153814700D01*
X27940000Y-154940000D02*
X27940000Y-153814700D01*
X35560000Y-142240000D02*
X36685300Y-142240000D01*
X68580000Y-73660000D02*
X67454700Y-73660000D01*
X50074500Y-138048800D02*
X50572100Y-137551200D01*
X91440000Y-157480000D02*
X90314700Y-157480000D01*
X77778700Y-158610500D02*
X77327800Y-158159600D01*
X79201100Y-158610500D02*
X77778700Y-158610500D01*
X79356900Y-158454700D02*
X79201100Y-158610500D01*
X85534500Y-158454700D02*
X79356900Y-158454700D01*
X85685100Y-158605300D02*
X85534500Y-158454700D01*
X89189400Y-158605300D02*
X85685100Y-158605300D01*
X90314700Y-157480000D02*
X89189400Y-158605300D01*
X72243800Y-140838500D02*
X72637500Y-141232200D01*
X52864200Y-140838500D02*
X72243800Y-140838500D01*
X50074500Y-138048800D02*
X52864200Y-140838500D01*
X49576800Y-138546500D02*
X50074500Y-138048800D01*
X40097500Y-138546500D02*
X49576800Y-138546500D01*
X36685300Y-141958700D02*
X40097500Y-138546500D01*
X36685300Y-142240000D02*
X36685300Y-141958700D01*
X65594300Y-75520400D02*
X67454700Y-73660000D01*
X62959500Y-75520400D02*
X65594300Y-75520400D01*
X62594400Y-75155300D02*
X62959500Y-75520400D01*
X55825100Y-75155300D02*
X62594400Y-75155300D01*
X53274000Y-77706400D02*
X55825100Y-75155300D01*
X31959900Y-178742400D02*
X33230400Y-177471900D01*
X31959900Y-180415500D02*
X31959900Y-178742400D01*
X28080700Y-184294700D02*
X31959900Y-180415500D01*
X27940000Y-184294700D02*
X28080700Y-184294700D01*
X27940000Y-185420000D02*
X27940000Y-184294700D01*
X137160000Y-101600000D02*
X137160000Y-102725300D01*
X134986000Y-111446900D02*
X133508600Y-112924300D01*
X134986000Y-104618000D02*
X134986000Y-111446900D01*
X136878700Y-102725300D02*
X134986000Y-104618000D01*
X137160000Y-102725300D02*
X136878700Y-102725300D01*
X53814900Y-119951300D02*
X51302900Y-122463300D01*
X66727700Y-119951300D02*
X53814900Y-119951300D01*
X66890500Y-119788500D02*
X66727700Y-119951300D01*
X91802200Y-119788500D02*
X66890500Y-119788500D01*
X92820600Y-120806900D02*
X91802200Y-119788500D01*
X112137300Y-120806900D02*
X92820600Y-120806900D01*
X114526400Y-118417800D02*
X112137300Y-120806900D01*
X117507700Y-118417800D02*
X114526400Y-118417800D01*
X119301700Y-116623800D02*
X117507700Y-118417800D01*
X120138300Y-116623800D02*
X119301700Y-116623800D01*
X127662200Y-109099900D02*
X120138300Y-116623800D01*
X67805000Y-185420000D02*
X72534700Y-180690300D01*
X66040000Y-185420000D02*
X67805000Y-185420000D01*
X48260000Y-137160000D02*
X49385300Y-137160000D01*
X56562000Y-186679800D02*
X58074300Y-186679800D01*
X63789400Y-184294700D02*
X64914700Y-185420000D01*
X60459400Y-184294700D02*
X63789400Y-184294700D01*
X58074300Y-186679800D02*
X60459400Y-184294700D01*
X66040000Y-185420000D02*
X64914700Y-185420000D01*
X133314400Y-190887600D02*
X133314400Y-190423500D01*
X129892000Y-194310000D02*
X133314400Y-190887600D01*
X107013900Y-194310000D02*
X129892000Y-194310000D01*
X104329300Y-196994600D02*
X107013900Y-194310000D01*
X84950100Y-196994600D02*
X104329300Y-196994600D01*
X82505200Y-199439500D02*
X84950100Y-196994600D01*
X64656900Y-199439500D02*
X82505200Y-199439500D01*
X63337400Y-198120000D02*
X64656900Y-199439500D01*
X60960000Y-198120000D02*
X63337400Y-198120000D01*
X55337800Y-138553900D02*
X55997600Y-139213700D01*
X52488100Y-138553900D02*
X55337800Y-138553900D01*
X50812300Y-136878100D02*
X52488100Y-138553900D01*
X49667200Y-136878100D02*
X50812300Y-136878100D01*
X49385300Y-137160000D02*
X49667200Y-136878100D01*
X61853500Y-59690000D02*
X60081100Y-61462400D01*
X63883800Y-59690000D02*
X61853500Y-59690000D01*
X67454700Y-56119100D02*
X63883800Y-59690000D01*
X67454700Y-55880000D02*
X67454700Y-56119100D01*
X68580000Y-55880000D02*
X67454700Y-55880000D01*
X48260000Y-134620000D02*
X49385300Y-134620000D01*
X55260400Y-133494700D02*
X56623900Y-134858200D01*
X50510600Y-133494700D02*
X55260400Y-133494700D01*
X49385300Y-134620000D02*
X50510600Y-133494700D01*
X133570300Y-152732900D02*
X135964000Y-150339200D01*
X122350000Y-152732900D02*
X133570300Y-152732900D01*
X121534700Y-151917600D02*
X122350000Y-152732900D01*
X118794700Y-151917600D02*
X121534700Y-151917600D01*
X115883600Y-149006500D02*
X118794700Y-151917600D01*
X113174100Y-149006500D02*
X115883600Y-149006500D01*
X113148100Y-148980500D02*
X113174100Y-149006500D01*
X98900500Y-148980500D02*
X113148100Y-148980500D01*
X97904000Y-147984000D02*
X98900500Y-148980500D01*
X93020900Y-147984000D02*
X97904000Y-147984000D01*
X91498000Y-146461100D02*
X93020900Y-147984000D01*
X89576600Y-146461100D02*
X91498000Y-146461100D01*
X86868600Y-143753100D02*
X89576600Y-146461100D01*
X81920400Y-143753100D02*
X86868600Y-143753100D01*
X79865200Y-145808300D02*
X81920400Y-143753100D01*
X69001900Y-145808300D02*
X79865200Y-145808300D01*
X67716600Y-147093600D02*
X69001900Y-145808300D01*
X65606400Y-147093600D02*
X67716600Y-147093600D01*
X57158800Y-155541200D02*
X65606400Y-147093600D01*
X56623900Y-155541200D02*
X57158800Y-155541200D01*
X66040000Y-162560000D02*
X67165300Y-162560000D01*
X67611400Y-163006100D02*
X72356400Y-163006100D01*
X67165300Y-162560000D02*
X67611400Y-163006100D01*
X73660000Y-160020000D02*
X73660000Y-158894700D01*
X48260000Y-132080000D02*
X49385300Y-132080000D01*
X61570800Y-130665400D02*
X63718100Y-132812700D01*
X59253100Y-130665400D02*
X61570800Y-130665400D01*
X56993300Y-128405600D02*
X59253100Y-130665400D01*
X52778400Y-128405600D02*
X56993300Y-128405600D01*
X49385300Y-131798700D02*
X52778400Y-128405600D01*
X49385300Y-132080000D02*
X49385300Y-131798700D01*
X65085500Y-174113300D02*
X65085500Y-174034200D01*
X61043300Y-178155500D02*
X65085500Y-174113300D01*
X61043300Y-179359400D02*
X61043300Y-178155500D01*
X54362200Y-179359400D02*
X53008400Y-180713200D01*
X61043300Y-179359400D02*
X54362200Y-179359400D01*
X137548100Y-153309000D02*
X137674000Y-153434900D01*
X120999800Y-153309000D02*
X137548100Y-153309000D01*
X120058700Y-152367900D02*
X120999800Y-153309000D01*
X118608100Y-152367900D02*
X120058700Y-152367900D01*
X115697000Y-149456800D02*
X118608100Y-152367900D01*
X112987500Y-149456800D02*
X115697000Y-149456800D01*
X112961500Y-149430800D02*
X112987500Y-149456800D01*
X98713900Y-149430800D02*
X112961500Y-149430800D01*
X97717400Y-148434300D02*
X98713900Y-149430800D01*
X93380000Y-148434300D02*
X97717400Y-148434300D01*
X90746600Y-151067700D02*
X93380000Y-148434300D01*
X85599800Y-151067700D02*
X90746600Y-151067700D01*
X84184200Y-152483300D02*
X85599800Y-151067700D01*
X79605100Y-152483300D02*
X84184200Y-152483300D01*
X74785300Y-157303100D02*
X79605100Y-152483300D01*
X74785300Y-158050800D02*
X74785300Y-157303100D01*
X73941400Y-158894700D02*
X74785300Y-158050800D01*
X73660000Y-158894700D02*
X73941400Y-158894700D01*
X68580000Y-53340000D02*
X67454700Y-53340000D01*
X63110100Y-57150000D02*
X58770300Y-61489800D01*
X63926000Y-57150000D02*
X63110100Y-57150000D01*
X67454700Y-53621300D02*
X63926000Y-57150000D01*
X67454700Y-53340000D02*
X67454700Y-53621300D01*
X93104000Y-135977000D02*
X92966900Y-136114100D01*
X101142200Y-135977000D02*
X93104000Y-135977000D01*
X103769200Y-133350000D02*
X101142200Y-135977000D01*
X106824700Y-133350000D02*
X103769200Y-133350000D01*
X110634700Y-129540000D02*
X106824700Y-133350000D01*
X111760000Y-129540000D02*
X110634700Y-129540000D01*
X42059200Y-191770000D02*
X39987500Y-191770000D01*
X47283800Y-186545400D02*
X42059200Y-191770000D01*
X54701600Y-186545400D02*
X47283800Y-186545400D01*
X59638400Y-181608600D02*
X54701600Y-186545400D01*
X60807600Y-181608600D02*
X59638400Y-181608600D01*
X62124800Y-180291400D02*
X60807600Y-181608600D01*
X62124800Y-177710900D02*
X62124800Y-180291400D01*
X65145000Y-174690700D02*
X62124800Y-177710900D01*
X79390900Y-174690700D02*
X65145000Y-174690700D01*
X82631600Y-171450000D02*
X79390900Y-174690700D01*
X87345100Y-171450000D02*
X82631600Y-171450000D01*
X89408700Y-169386400D02*
X87345100Y-171450000D01*
X149860000Y-167640000D02*
X149860000Y-168765300D01*
X124460000Y-200660000D02*
X125585300Y-200660000D01*
X125585300Y-200378700D02*
X125585300Y-200660000D01*
X129114000Y-196850000D02*
X125585300Y-200378700D01*
X131689700Y-196850000D02*
X129114000Y-196850000D01*
X136914300Y-191625400D02*
X131689700Y-196850000D01*
X139474800Y-191625400D02*
X136914300Y-191625400D01*
X141870200Y-189230000D02*
X139474800Y-191625400D01*
X142626700Y-189230000D02*
X141870200Y-189230000D01*
X143738300Y-188118400D02*
X142626700Y-189230000D01*
X143738300Y-186286200D02*
X143738300Y-188118400D01*
X148734700Y-181289800D02*
X143738300Y-186286200D01*
X148734700Y-169609200D02*
X148734700Y-181289800D01*
X149578600Y-168765300D02*
X148734700Y-169609200D01*
X149860000Y-168765300D02*
X149578600Y-168765300D01*
X104140000Y-179963100D02*
X108209600Y-175893500D01*
X104140000Y-184407300D02*
X104140000Y-179963100D01*
X104140000Y-185420000D02*
X104140000Y-184913600D01*
X104140000Y-184913600D02*
X104140000Y-184407300D01*
X98434700Y-186690000D02*
X95560900Y-189563800D01*
X102363600Y-186690000D02*
X98434700Y-186690000D01*
X104140000Y-184913600D02*
X102363600Y-186690000D01*
X28221300Y-158605300D02*
X27940000Y-158605300D01*
X33938100Y-164322100D02*
X28221300Y-158605300D01*
X33938100Y-171010300D02*
X33938100Y-164322100D01*
X38048300Y-175120500D02*
X33938100Y-171010300D01*
X38048300Y-202219100D02*
X38048300Y-175120500D01*
X40628500Y-204799300D02*
X38048300Y-202219100D01*
X91908100Y-204799300D02*
X40628500Y-204799300D01*
X92190200Y-204517200D02*
X91908100Y-204799300D01*
X27940000Y-157480000D02*
X27940000Y-158605300D01*
X86360000Y-200660000D02*
X85234700Y-200660000D01*
X52500500Y-202361500D02*
X49529000Y-199390000D01*
X70373700Y-202361500D02*
X52500500Y-202361500D01*
X70723800Y-202711600D02*
X70373700Y-202361500D01*
X83183100Y-202711600D02*
X70723800Y-202711600D01*
X85234700Y-200660000D02*
X83183100Y-202711600D01*
X34742200Y-138430400D02*
X34434200Y-138738400D01*
X37057900Y-138430400D02*
X34742200Y-138430400D01*
X39524400Y-135963900D02*
X37057900Y-138430400D01*
X42722500Y-135963900D02*
X39524400Y-135963900D01*
X47876400Y-130810000D02*
X42722500Y-135963900D01*
X48686000Y-130810000D02*
X47876400Y-130810000D01*
X52214700Y-127281300D02*
X48686000Y-130810000D01*
X52214700Y-127000000D02*
X52214700Y-127281300D01*
X53340000Y-127000000D02*
X52214700Y-127000000D01*
X66040000Y-154940000D02*
X64914700Y-154940000D01*
X27940000Y-167640000D02*
X27940000Y-166514700D01*
X62306200Y-157548500D02*
X64914700Y-154940000D01*
X53420300Y-157548500D02*
X62306200Y-157548500D01*
X46861600Y-150989800D02*
X53420300Y-157548500D01*
X46861600Y-149203100D02*
X46861600Y-150989800D01*
X46508100Y-148849600D02*
X46861600Y-149203100D01*
X42787300Y-148849600D02*
X46508100Y-148849600D01*
X40268700Y-151368200D02*
X42787300Y-148849600D01*
X40268700Y-152193600D02*
X40268700Y-151368200D01*
X39863600Y-152598700D02*
X40268700Y-152193600D01*
X39221500Y-152598700D02*
X39863600Y-152598700D01*
X38028000Y-153792200D02*
X39221500Y-152598700D01*
X32417300Y-153792200D02*
X38028000Y-153792200D01*
X29999500Y-156210000D02*
X32417300Y-153792200D01*
X27610800Y-156210000D02*
X29999500Y-156210000D01*
X26814700Y-157006100D02*
X27610800Y-156210000D01*
X26814700Y-165670800D02*
X26814700Y-157006100D01*
X27658600Y-166514700D02*
X26814700Y-165670800D01*
X27940000Y-166514700D02*
X27658600Y-166514700D01*
X63500000Y-99060000D02*
X62374700Y-99060000D01*
X43180000Y-99060000D02*
X44305300Y-99060000D01*
X63500000Y-99060000D02*
X64625300Y-99060000D01*
X114010600Y-100185300D02*
X112885300Y-99060000D01*
X129829400Y-100185300D02*
X114010600Y-100185300D01*
X130954700Y-99060000D02*
X129829400Y-100185300D01*
X132080000Y-99060000D02*
X130954700Y-99060000D01*
X111760000Y-99060000D02*
X112885300Y-99060000D01*
X44631300Y-99060000D02*
X44305300Y-99060000D01*
X45772100Y-100200800D02*
X44631300Y-99060000D01*
X61233900Y-100200800D02*
X45772100Y-100200800D01*
X62374700Y-99060000D02*
X61233900Y-100200800D01*
X111760000Y-99060000D02*
X110634700Y-99060000D01*
X65869900Y-100304600D02*
X64625300Y-99060000D01*
X69354100Y-100304600D02*
X65869900Y-100304600D01*
X70539900Y-101490400D02*
X69354100Y-100304600D01*
X71609700Y-101490400D02*
X70539900Y-101490400D01*
X74895000Y-104775700D02*
X71609700Y-101490400D01*
X89030800Y-104775700D02*
X74895000Y-104775700D01*
X90138800Y-105883700D02*
X89030800Y-104775700D01*
X90138800Y-106973200D02*
X90138800Y-105883700D01*
X90978000Y-107812400D02*
X90138800Y-106973200D01*
X91900700Y-107812400D02*
X90978000Y-107812400D01*
X93233100Y-106480000D02*
X91900700Y-107812400D01*
X93233100Y-100714700D02*
X93233100Y-106480000D01*
X96277700Y-97670100D02*
X93233100Y-100714700D01*
X97315700Y-97670100D02*
X96277700Y-97670100D01*
X97635500Y-97350300D02*
X97315700Y-97670100D01*
X101195100Y-97350300D02*
X97635500Y-97350300D01*
X101774200Y-97929400D02*
X101195100Y-97350300D01*
X101774200Y-98195900D02*
X101774200Y-97929400D01*
X102638300Y-99060000D02*
X101774200Y-98195900D01*
X110634700Y-99060000D02*
X102638300Y-99060000D01*
X132080000Y-40640000D02*
X130954700Y-40640000D01*
X43461400Y-41765300D02*
X43180000Y-41765300D01*
X44305300Y-42609200D02*
X43461400Y-41765300D01*
X44305300Y-43437200D02*
X44305300Y-42609200D01*
X47930400Y-47062300D02*
X44305300Y-43437200D01*
X56233700Y-47062300D02*
X47930400Y-47062300D01*
X62374700Y-40921300D02*
X56233700Y-47062300D01*
X62374700Y-40640000D02*
X62374700Y-40921300D01*
X63500000Y-40640000D02*
X62374700Y-40640000D01*
X43180000Y-40640000D02*
X43180000Y-41765300D01*
X115077800Y-40640000D02*
X111760000Y-40640000D01*
X116211000Y-41773200D02*
X115077800Y-40640000D01*
X129821500Y-41773200D02*
X116211000Y-41773200D01*
X130954700Y-40640000D02*
X129821500Y-41773200D01*
X63500000Y-40640000D02*
X64625300Y-40640000D01*
X73036900Y-43279000D02*
X72371500Y-43944400D01*
X87897800Y-43279000D02*
X73036900Y-43279000D01*
X89194200Y-41982600D02*
X87897800Y-43279000D01*
X100607600Y-41982600D02*
X89194200Y-41982600D01*
X101950200Y-40640000D02*
X100607600Y-41982600D01*
X111760000Y-40640000D02*
X101950200Y-40640000D01*
X65750600Y-41765300D02*
X64625300Y-40640000D01*
X70192400Y-41765300D02*
X65750600Y-41765300D01*
X72371500Y-43944400D02*
X70192400Y-41765300D01*
X34388500Y-163928500D02*
X35560000Y-165100000D01*
X34388500Y-162042100D02*
X34388500Y-163928500D01*
X35053500Y-161377100D02*
X34388500Y-162042100D01*
X37102800Y-161377100D02*
X35053500Y-161377100D01*
X53344900Y-177619200D02*
X37102800Y-161377100D01*
X60617100Y-177619200D02*
X53344900Y-177619200D01*
X105583900Y-168337500D02*
X105236900Y-168684500D01*
X111038500Y-168337500D02*
X105583900Y-168337500D01*
X111310200Y-168609200D02*
X111038500Y-168337500D01*
X103355800Y-168345900D02*
X103136900Y-168564800D01*
X104898300Y-168345900D02*
X103355800Y-168345900D01*
X105236900Y-168684500D02*
X104898300Y-168345900D01*
X64633100Y-177869200D02*
X62750100Y-179752200D01*
X88460400Y-177869200D02*
X64633100Y-177869200D01*
X88610800Y-177718800D02*
X88460400Y-177869200D01*
X98913800Y-177718800D02*
X88610800Y-177718800D01*
X105236900Y-171395700D02*
X98913800Y-177718800D01*
X105236900Y-168684500D02*
X105236900Y-171395700D01*
X40640000Y-195580000D02*
X40640000Y-195298600D01*
X35560000Y-162560000D02*
X35560000Y-163685300D01*
X137504400Y-196850000D02*
X139513500Y-194840900D01*
X136202700Y-196850000D02*
X137504400Y-196850000D01*
X129750400Y-203302300D02*
X136202700Y-196850000D01*
X105432700Y-203302300D02*
X129750400Y-203302300D01*
X68580000Y-50800000D02*
X67454700Y-50800000D01*
X35785400Y-163685300D02*
X35560000Y-163685300D01*
X39335000Y-167234900D02*
X35785400Y-163685300D01*
X39335000Y-193993600D02*
X39335000Y-167234900D01*
X40640000Y-195298600D02*
X39335000Y-193993600D01*
X40837600Y-54610000D02*
X39042800Y-56404800D01*
X63926000Y-54610000D02*
X40837600Y-54610000D01*
X67454700Y-51081300D02*
X63926000Y-54610000D01*
X67454700Y-50800000D02*
X67454700Y-51081300D01*
X39493500Y-196445100D02*
X40640000Y-195298600D01*
X39493500Y-198595000D02*
X39493500Y-196445100D01*
X40368800Y-199470300D02*
X39493500Y-198595000D01*
X44041000Y-199470300D02*
X40368800Y-199470300D01*
X46356100Y-201785400D02*
X44041000Y-199470300D01*
X50428000Y-201785400D02*
X46356100Y-201785400D01*
X52288800Y-203646200D02*
X50428000Y-201785400D01*
X90882400Y-203646200D02*
X52288800Y-203646200D01*
X91087000Y-203441600D02*
X90882400Y-203646200D01*
X105293400Y-203441600D02*
X91087000Y-203441600D01*
X105432700Y-203302300D02*
X105293400Y-203441600D01*
X35560000Y-160020000D02*
X36685300Y-160020000D01*
X36685300Y-160212900D02*
X36685300Y-160020000D01*
X48548700Y-172076300D02*
X36685300Y-160212900D01*
X75723900Y-172076300D02*
X48548700Y-172076300D01*
X76263500Y-171536700D02*
X75723900Y-172076300D01*
X81003200Y-171536700D02*
X76263500Y-171536700D01*
X83774500Y-168765400D02*
X81003200Y-171536700D01*
X88673300Y-168765400D02*
X83774500Y-168765400D01*
X91068700Y-166370000D02*
X88673300Y-168765400D01*
X93263800Y-166370000D02*
X91068700Y-166370000D01*
X95701900Y-163931900D02*
X93263800Y-166370000D01*
X100513200Y-163931900D02*
X95701900Y-163931900D01*
X102107900Y-162337200D02*
X100513200Y-163931900D01*
X111600800Y-162337200D02*
X102107900Y-162337200D01*
X111972200Y-161965800D02*
X111600800Y-162337200D01*
X111972200Y-160899800D02*
X111972200Y-161965800D01*
X112672700Y-160199300D02*
X111972200Y-160899800D01*
X114727900Y-160199300D02*
X112672700Y-160199300D01*
X116321800Y-158605400D02*
X114727900Y-160199300D01*
X120225800Y-158605400D02*
X116321800Y-158605400D01*
X122853800Y-155977400D02*
X120225800Y-158605400D01*
X46757000Y-77306300D02*
X37967200Y-77306300D01*
X54933900Y-85483200D02*
X46757000Y-77306300D01*
X62453200Y-85483200D02*
X54933900Y-85483200D01*
X43180000Y-114300000D02*
X43180000Y-113174700D01*
X42829500Y-113174700D02*
X40914300Y-111259500D01*
X43180000Y-113174700D02*
X42829500Y-113174700D01*
X43180000Y-68580000D02*
X44305300Y-68580000D01*
X111760000Y-68580000D02*
X110634700Y-68580000D01*
X75222200Y-67764200D02*
X78519800Y-64466600D01*
X74693100Y-67764200D02*
X75222200Y-67764200D01*
X74383600Y-67454700D02*
X74693100Y-67764200D01*
X45430600Y-67454700D02*
X74383600Y-67454700D01*
X44305300Y-68580000D02*
X45430600Y-67454700D01*
X78678500Y-64625400D02*
X78519800Y-64466600D01*
X92887900Y-64625400D02*
X78678500Y-64625400D01*
X94536700Y-62976600D02*
X92887900Y-64625400D01*
X94536700Y-61345200D02*
X94536700Y-62976600D01*
X96055300Y-59826600D02*
X94536700Y-61345200D01*
X101881300Y-59826600D02*
X96055300Y-59826600D01*
X110634700Y-68580000D02*
X101881300Y-59826600D01*
X78519800Y-64466600D02*
X78221300Y-64168200D01*
X45430600Y-115425300D02*
X44305300Y-114300000D01*
X48747300Y-115425300D02*
X45430600Y-115425300D01*
X49788600Y-114384000D02*
X48747300Y-115425300D01*
X50566100Y-114384000D02*
X49788600Y-114384000D01*
X51644200Y-115462100D02*
X50566100Y-114384000D01*
X102216600Y-115462100D02*
X51644200Y-115462100D01*
X103378700Y-114300000D02*
X102216600Y-115462100D01*
X111760000Y-114300000D02*
X103378700Y-114300000D01*
X43180000Y-114300000D02*
X44305300Y-114300000D01*
X115808400Y-120162300D02*
X115407000Y-119760900D01*
X116728000Y-120162300D02*
X115808400Y-120162300D01*
X116983900Y-119906400D02*
X116728000Y-120162300D01*
X117929800Y-119906400D02*
X116983900Y-119906400D01*
X119681600Y-118154600D02*
X117929800Y-119906400D01*
X135137300Y-118154600D02*
X119681600Y-118154600D01*
X150374500Y-102917400D02*
X135137300Y-118154600D01*
X43180000Y-116840000D02*
X44305300Y-116840000D01*
X111760000Y-116840000D02*
X110634700Y-116840000D01*
X43180000Y-71120000D02*
X44305300Y-71120000D01*
X62683900Y-72534600D02*
X62546300Y-72672200D01*
X93206800Y-72534600D02*
X62683900Y-72534600D01*
X93397500Y-72725300D02*
X93206800Y-72534600D01*
X101123800Y-72725300D02*
X93397500Y-72725300D01*
X102729100Y-71120000D02*
X101123800Y-72725300D01*
X111760000Y-71120000D02*
X102729100Y-71120000D01*
X65197100Y-118529000D02*
X65460500Y-118792400D01*
X60299400Y-118529000D02*
X65197100Y-118529000D01*
X59915700Y-118912700D02*
X60299400Y-118529000D01*
X46378000Y-118912700D02*
X59915700Y-118912700D01*
X44305300Y-116840000D02*
X46378000Y-118912700D01*
X108840200Y-118634500D02*
X110634700Y-116840000D01*
X65618400Y-118634500D02*
X108840200Y-118634500D01*
X65460500Y-118792400D02*
X65618400Y-118634500D01*
X45897300Y-72712000D02*
X44305300Y-71120000D01*
X62506500Y-72712000D02*
X45897300Y-72712000D01*
X62546300Y-72672200D02*
X62506500Y-72712000D01*
X152681400Y-97645300D02*
X152400000Y-97645300D01*
X153525300Y-98489200D02*
X152681400Y-97645300D01*
X153525300Y-102115200D02*
X153525300Y-98489200D01*
X152770500Y-102870000D02*
X153525300Y-102115200D01*
X151799700Y-102870000D02*
X152770500Y-102870000D01*
X135990900Y-118678800D02*
X151799700Y-102870000D01*
X119794300Y-118678800D02*
X135990900Y-118678800D01*
X118043100Y-120430000D02*
X119794300Y-118678800D01*
X117344600Y-120430000D02*
X118043100Y-120430000D01*
X117242900Y-120531700D02*
X117344600Y-120430000D01*
X152400000Y-96520000D02*
X152400000Y-97645300D01*
X27940000Y-68580000D02*
X29065300Y-68580000D01*
X68580000Y-43180000D02*
X67454700Y-43180000D01*
X147482900Y-97771800D02*
X151274700Y-93980000D01*
X136807300Y-97771800D02*
X147482900Y-97771800D01*
X134809100Y-99770000D02*
X136807300Y-97771800D01*
X152400000Y-93980000D02*
X151274700Y-93980000D01*
X96520000Y-114300000D02*
X97645300Y-114300000D01*
X129967500Y-104413300D02*
X131510800Y-102870000D01*
X126582100Y-104413300D02*
X129967500Y-104413300D01*
X117965400Y-113030000D02*
X126582100Y-104413300D01*
X98915300Y-113030000D02*
X117965400Y-113030000D01*
X97645300Y-114300000D02*
X98915300Y-113030000D01*
X93626300Y-59690000D02*
X94093200Y-60156900D01*
X81054100Y-59690000D02*
X93626300Y-59690000D01*
X75939000Y-54574900D02*
X81054100Y-59690000D01*
X75939000Y-53953200D02*
X75939000Y-54574900D01*
X69049700Y-47063900D02*
X75939000Y-53953200D01*
X63191800Y-47063900D02*
X69049700Y-47063900D01*
X62334000Y-46206100D02*
X63191800Y-47063900D01*
X62334000Y-45245700D02*
X62334000Y-46206100D01*
X63274400Y-44305300D02*
X62334000Y-45245700D01*
X66329400Y-44305300D02*
X63274400Y-44305300D01*
X67454700Y-43180000D02*
X66329400Y-44305300D01*
X92076900Y-85085000D02*
X94799500Y-82362400D01*
X72049200Y-85085000D02*
X92076900Y-85085000D01*
X71802900Y-85331300D02*
X72049200Y-85085000D01*
X71284800Y-85331300D02*
X71802900Y-85331300D01*
X71038500Y-85085000D02*
X71284800Y-85331300D01*
X62939400Y-85085000D02*
X71038500Y-85085000D01*
X62712300Y-84857900D02*
X62939400Y-85085000D01*
X57707900Y-84857900D02*
X62712300Y-84857900D01*
X47208800Y-74358800D02*
X57707900Y-84857900D01*
X34844100Y-74358800D02*
X47208800Y-74358800D01*
X29065300Y-68580000D02*
X34844100Y-74358800D01*
X68580000Y-45720000D02*
X69705300Y-45720000D01*
X152400000Y-91440000D02*
X151274700Y-91440000D01*
X147608900Y-95105800D02*
X151274700Y-91440000D01*
X136644800Y-95105800D02*
X147608900Y-95105800D01*
X134809100Y-93270100D02*
X136644800Y-95105800D01*
X93564400Y-57076100D02*
X95208500Y-58720200D01*
X79077100Y-57076100D02*
X93564400Y-57076100D01*
X76389300Y-54388300D02*
X79077100Y-57076100D01*
X76389300Y-53487900D02*
X76389300Y-54388300D01*
X69705300Y-46803900D02*
X76389300Y-53487900D01*
X69705300Y-45720000D02*
X69705300Y-46803900D01*
X33191900Y-35383400D02*
X66202000Y-35383400D01*
X29205300Y-39370000D02*
X33191900Y-35383400D01*
X27607200Y-39370000D02*
X29205300Y-39370000D01*
X26061900Y-40915300D02*
X27607200Y-39370000D01*
X26061900Y-57029400D02*
X26061900Y-40915300D01*
X114490900Y-75235800D02*
X98061000Y-75235800D01*
X121319400Y-82064300D02*
X114490900Y-75235800D01*
X126641400Y-82064300D02*
X121319400Y-82064300D01*
X127972100Y-83395000D02*
X126641400Y-82064300D01*
X127972100Y-83843600D02*
X127972100Y-83395000D01*
X131758500Y-87630000D02*
X127972100Y-83843600D01*
X132705100Y-87630000D02*
X131758500Y-87630000D01*
X98934200Y-101277300D02*
X98640100Y-101571400D01*
X98934200Y-99402200D02*
X98934200Y-101277300D01*
X98315900Y-98783900D02*
X98934200Y-99402200D01*
X98315900Y-97975600D02*
X98315900Y-98783900D01*
X27940000Y-109220000D02*
X27940000Y-108094700D01*
X29036300Y-108094700D02*
X29515700Y-107615300D01*
X27940000Y-108094700D02*
X29036300Y-108094700D01*
X96520000Y-63500000D02*
X96520000Y-64625300D01*
X27940000Y-63500000D02*
X29065300Y-63500000D01*
X152400000Y-88900000D02*
X152400000Y-90025300D01*
X97650800Y-100474700D02*
X98308900Y-99816600D01*
X96049500Y-100474700D02*
X97650800Y-100474700D01*
X94528400Y-101995800D02*
X96049500Y-100474700D01*
X94528400Y-106977700D02*
X94528400Y-101995800D01*
X96520000Y-108969300D02*
X94528400Y-106977700D01*
X96520000Y-109220000D02*
X96520000Y-108969300D01*
X96520000Y-109220000D02*
X97645300Y-109220000D01*
X99786400Y-111361100D02*
X109160800Y-111361100D01*
X97645300Y-109220000D02*
X99786400Y-111361100D01*
X72725700Y-69994600D02*
X73446400Y-69273900D01*
X35559900Y-69994600D02*
X72725700Y-69994600D01*
X29065300Y-63500000D02*
X35559900Y-69994600D01*
X68580000Y-48260000D02*
X68580000Y-49385300D01*
X96801300Y-64625300D02*
X96520000Y-64625300D01*
X97693100Y-65517100D02*
X96801300Y-64625300D01*
X97693100Y-71612200D02*
X97693100Y-65517100D01*
X97030400Y-72274900D02*
X97693100Y-71612200D01*
X95572400Y-72274900D02*
X97030400Y-72274900D01*
X93280100Y-69982600D02*
X95572400Y-72274900D01*
X78104100Y-69982600D02*
X93280100Y-69982600D01*
X77739700Y-70347000D02*
X78104100Y-69982600D01*
X74519500Y-70347000D02*
X77739700Y-70347000D01*
X73446400Y-69273900D02*
X74519500Y-70347000D01*
X73446400Y-53970400D02*
X73446400Y-60309500D01*
X68861300Y-49385300D02*
X73446400Y-53970400D01*
X68580000Y-49385300D02*
X68861300Y-49385300D01*
X152681300Y-90025300D02*
X152400000Y-90025300D01*
X154006900Y-91350900D02*
X152681300Y-90025300D01*
X154006900Y-104157100D02*
X154006900Y-91350900D01*
X152754000Y-105410000D02*
X154006900Y-104157100D01*
X151134900Y-105410000D02*
X152754000Y-105410000D01*
X136150600Y-120394300D02*
X151134900Y-105410000D01*
X118715700Y-120394300D02*
X136150600Y-120394300D01*
X118229700Y-120880300D02*
X118715700Y-120394300D01*
X117942700Y-120880300D02*
X118229700Y-120880300D01*
X117295000Y-121528000D02*
X117942700Y-120880300D01*
X113947700Y-121528000D02*
X117295000Y-121528000D01*
X152400000Y-109220000D02*
X151274700Y-109220000D01*
X106390600Y-128414700D02*
X105265300Y-129540000D01*
X119160900Y-128414700D02*
X106390600Y-128414700D01*
X124015400Y-123560200D02*
X119160900Y-128414700D01*
X135237200Y-123560200D02*
X124015400Y-123560200D01*
X149577400Y-109220000D02*
X135237200Y-123560200D01*
X151274700Y-109220000D02*
X149577400Y-109220000D01*
X104702700Y-129540000D02*
X105265300Y-129540000D01*
X104702700Y-129540000D02*
X104140000Y-129540000D01*
X77531900Y-86360000D02*
X85224400Y-94052500D01*
X68580000Y-86360000D02*
X77531900Y-86360000D01*
X101889400Y-130665300D02*
X103014700Y-129540000D01*
X94156800Y-130665300D02*
X101889400Y-130665300D01*
X91761700Y-128270200D02*
X94156800Y-130665300D01*
X89190900Y-128270200D02*
X91761700Y-128270200D01*
X87964300Y-127043600D02*
X89190900Y-128270200D01*
X104140000Y-129540000D02*
X103014700Y-129540000D01*
X129540000Y-160020000D02*
X128414700Y-160020000D01*
X68580000Y-101600000D02*
X69705300Y-101600000D01*
X74875400Y-105656800D02*
X87751900Y-105656800D01*
X71159400Y-101940800D02*
X74875400Y-105656800D01*
X70046100Y-101940800D02*
X71159400Y-101940800D01*
X69705300Y-101600000D02*
X70046100Y-101940800D01*
X99384400Y-151301900D02*
X98655900Y-150573400D01*
X116132100Y-151301900D02*
X99384400Y-151301900D01*
X118098700Y-153268500D02*
X116132100Y-151301900D01*
X119685400Y-153268500D02*
X118098700Y-153268500D01*
X120849500Y-154432600D02*
X119685400Y-153268500D01*
X122216200Y-154432600D02*
X120849500Y-154432600D01*
X123993600Y-156210000D02*
X122216200Y-154432600D01*
X124886000Y-156210000D02*
X123993600Y-156210000D01*
X128414700Y-159738700D02*
X124886000Y-156210000D01*
X128414700Y-160020000D02*
X128414700Y-159738700D01*
X129540000Y-157480000D02*
X128414700Y-157480000D01*
X68580000Y-104140000D02*
X69705300Y-104140000D01*
X88351300Y-108974400D02*
X88426100Y-108899600D01*
X76825900Y-108974400D02*
X88351300Y-108974400D01*
X71919300Y-104067800D02*
X76825900Y-108974400D01*
X69777500Y-104067800D02*
X71919300Y-104067800D01*
X69705300Y-104140000D02*
X69777500Y-104067800D01*
X100962100Y-150819000D02*
X100649500Y-150506400D01*
X116350500Y-150819000D02*
X100962100Y-150819000D01*
X118349700Y-152818200D02*
X116350500Y-150819000D01*
X119872000Y-152818200D02*
X118349700Y-152818200D01*
X120813200Y-153759400D02*
X119872000Y-152818200D01*
X124975400Y-153759400D02*
X120813200Y-153759400D01*
X128414700Y-157198700D02*
X124975400Y-153759400D01*
X128414700Y-157480000D02*
X128414700Y-157198700D01*
X72725400Y-109700100D02*
X88195700Y-109700100D01*
X69705300Y-106680000D02*
X72725400Y-109700100D01*
X68580000Y-106680000D02*
X69705300Y-106680000D01*
X125707100Y-150835400D02*
X126319200Y-151447500D01*
X118986300Y-150835400D02*
X125707100Y-150835400D01*
X116256800Y-148105900D02*
X118986300Y-150835400D01*
X113547300Y-148105900D02*
X116256800Y-148105900D01*
X113352500Y-147911100D02*
X113547300Y-148105900D01*
X100584600Y-147911100D02*
X113352500Y-147911100D01*
X96983900Y-144310400D02*
X100584600Y-147911100D01*
X48260000Y-106680000D02*
X47134700Y-106680000D01*
X50510600Y-107805300D02*
X49385300Y-106680000D01*
X66040000Y-107805300D02*
X50510600Y-107805300D01*
X67454700Y-109220000D02*
X66040000Y-107805300D01*
X68580000Y-109220000D02*
X67454700Y-109220000D01*
X48260000Y-106680000D02*
X49385300Y-106680000D01*
X68580000Y-109220000D02*
X69705300Y-109220000D01*
X27940000Y-106680000D02*
X29065300Y-106680000D01*
X29478700Y-106680000D02*
X29065300Y-106680000D01*
X30604000Y-107805300D02*
X29478700Y-106680000D01*
X46009400Y-107805300D02*
X30604000Y-107805300D01*
X47134700Y-106680000D02*
X46009400Y-107805300D01*
X27940000Y-60960000D02*
X27940000Y-62085300D01*
X48260000Y-60960000D02*
X47134700Y-60960000D01*
X26814700Y-73459400D02*
X26996300Y-73641000D01*
X26814700Y-62929200D02*
X26814700Y-73459400D01*
X27658600Y-62085300D02*
X26814700Y-62929200D01*
X27940000Y-62085300D02*
X27658600Y-62085300D01*
X96520000Y-60960000D02*
X97645300Y-60960000D01*
X45372600Y-62085300D02*
X27940000Y-62085300D01*
X46497900Y-60960000D02*
X45372600Y-62085300D01*
X47134700Y-60960000D02*
X46497900Y-60960000D01*
X91697200Y-110631000D02*
X94489600Y-107838600D01*
X88803500Y-110631000D02*
X91697200Y-110631000D01*
X88658800Y-110775700D02*
X88803500Y-110631000D01*
X71261000Y-110775700D02*
X88658800Y-110775700D01*
X69705300Y-109220000D02*
X71261000Y-110775700D01*
X134124900Y-63500000D02*
X137160000Y-63500000D01*
X132854900Y-64770000D02*
X134124900Y-63500000D01*
X131436200Y-64770000D02*
X132854900Y-64770000D01*
X131123700Y-65082500D02*
X131436200Y-64770000D01*
X122085500Y-69383000D02*
X126823200Y-69383000D01*
X122085500Y-63576200D02*
X122085500Y-69383000D01*
X119469300Y-60960000D02*
X122085500Y-63576200D01*
X116840000Y-60960000D02*
X119469300Y-60960000D01*
X121618500Y-69850000D02*
X117973000Y-69850000D01*
X122085500Y-69383000D02*
X121618500Y-69850000D01*
X116840000Y-106680000D02*
X115714700Y-106680000D01*
X96520000Y-106680000D02*
X97645300Y-106680000D01*
X106616900Y-106680000D02*
X97645300Y-106680000D01*
X117955000Y-69868000D02*
X117973000Y-69850000D01*
X106553300Y-69868000D02*
X117955000Y-69868000D01*
X97645300Y-60960000D02*
X106553300Y-69868000D01*
X106616900Y-107655200D02*
X108535500Y-109573800D01*
X106616900Y-106680000D02*
X106616900Y-107655200D01*
X108101800Y-105195100D02*
X106616900Y-106680000D01*
X109137500Y-105195100D02*
X108101800Y-105195100D01*
X109414200Y-105471800D02*
X109137500Y-105195100D01*
X114506500Y-105471800D02*
X109414200Y-105471800D01*
X115714700Y-106680000D02*
X114506500Y-105471800D01*
X66115100Y-105526500D02*
X67264600Y-106676000D01*
X50771800Y-105526500D02*
X66115100Y-105526500D01*
X49385300Y-104140000D02*
X50771800Y-105526500D01*
X27940000Y-104140000D02*
X29065300Y-104140000D01*
X29613700Y-103591600D02*
X30169000Y-103591600D01*
X29065300Y-104140000D02*
X29613700Y-103591600D01*
X48822700Y-104140000D02*
X49385300Y-104140000D01*
X48822700Y-104140000D02*
X48260000Y-104140000D01*
X48260000Y-104140000D02*
X47134700Y-104140000D01*
X31849000Y-105271600D02*
X30169000Y-103591600D01*
X46003100Y-105271600D02*
X31849000Y-105271600D01*
X47134700Y-104140000D02*
X46003100Y-105271600D01*
X27940000Y-58420000D02*
X29065300Y-58420000D01*
X48260000Y-58420000D02*
X47134700Y-58420000D01*
X45944100Y-59610600D02*
X47134700Y-58420000D01*
X30255900Y-59610600D02*
X45944100Y-59610600D01*
X29065300Y-58420000D02*
X30255900Y-59610600D01*
X96520000Y-104140000D02*
X96520000Y-105265300D01*
X105358700Y-108094600D02*
X107693200Y-110429100D01*
X96282200Y-108094600D02*
X105358700Y-108094600D01*
X95394700Y-107207100D02*
X96282200Y-108094600D01*
X95394700Y-106109200D02*
X95394700Y-107207100D01*
X96238600Y-105265300D02*
X95394700Y-106109200D01*
X96520000Y-105265300D02*
X96238600Y-105265300D01*
X116840000Y-104140000D02*
X116840000Y-105265300D01*
X116840000Y-104140000D02*
X115714700Y-104140000D01*
X112968200Y-110429100D02*
X107693200Y-110429100D01*
X115521200Y-107876100D02*
X112968200Y-110429100D01*
X117235400Y-107876100D02*
X115521200Y-107876100D01*
X117965300Y-107146200D02*
X117235400Y-107876100D01*
X117965300Y-106109200D02*
X117965300Y-107146200D01*
X117121400Y-105265300D02*
X117965300Y-106109200D01*
X116840000Y-105265300D02*
X117121400Y-105265300D01*
X114947200Y-103372500D02*
X114544800Y-103372500D01*
X115714700Y-104140000D02*
X114947200Y-103372500D01*
X53080400Y-62115100D02*
X49385300Y-58420000D01*
X93074600Y-62115100D02*
X53080400Y-62115100D01*
X96520000Y-58669700D02*
X93074600Y-62115100D01*
X96520000Y-58420000D02*
X96520000Y-58669700D01*
X48260000Y-58420000D02*
X49385300Y-58420000D01*
X116840000Y-101600000D02*
X115714700Y-101600000D01*
X27940000Y-101600000D02*
X29065300Y-101600000D01*
X48260000Y-101600000D02*
X49385300Y-101600000D01*
X73660000Y-195580000D02*
X74785300Y-195580000D01*
X116840000Y-101600000D02*
X117965300Y-101600000D01*
X96520000Y-101600000D02*
X97645300Y-101600000D01*
X64276800Y-100418700D02*
X66364200Y-102506100D01*
X63089800Y-100418700D02*
X64276800Y-100418700D01*
X62375000Y-101133500D02*
X63089800Y-100418700D01*
X49851800Y-101133500D02*
X62375000Y-101133500D01*
X49385300Y-101600000D02*
X49851800Y-101133500D01*
X113639500Y-101600000D02*
X112497600Y-100458100D01*
X115714700Y-101600000D02*
X113639500Y-101600000D01*
X30198500Y-100466800D02*
X44748900Y-100466800D01*
X29065300Y-101600000D02*
X30198500Y-100466800D01*
X44748900Y-100457000D02*
X44748900Y-100466800D01*
X44946400Y-100259500D02*
X44748900Y-100457000D01*
X45882100Y-101600000D02*
X48260000Y-101600000D01*
X44748900Y-100466800D02*
X45882100Y-101600000D01*
X27940000Y-55880000D02*
X29065300Y-55880000D01*
X44636000Y-57041900D02*
X44997200Y-57403100D01*
X44636000Y-57041800D02*
X44636000Y-57041900D01*
X30227100Y-57041800D02*
X44636000Y-57041800D01*
X29065300Y-55880000D02*
X30227100Y-57041800D01*
X118463000Y-102097700D02*
X121854300Y-102097700D01*
X117965300Y-101600000D02*
X118463000Y-102097700D01*
X120329600Y-160020000D02*
X121849800Y-158499800D01*
X116840000Y-160020000D02*
X120329600Y-160020000D01*
X97040000Y-57005300D02*
X96520000Y-57005300D01*
X99158000Y-59123300D02*
X97040000Y-57005300D01*
X96520000Y-55880000D02*
X96520000Y-57005300D01*
X76119400Y-80130400D02*
X71543800Y-84706000D01*
X96704800Y-80130400D02*
X76119400Y-80130400D01*
X99161100Y-82586700D02*
X96704800Y-80130400D01*
X106546600Y-175143900D02*
X109455200Y-175143900D01*
X92591500Y-189099000D02*
X106546600Y-175143900D01*
X85205600Y-189099000D02*
X92591500Y-189099000D01*
X79849900Y-194454700D02*
X85205600Y-189099000D01*
X75910600Y-194454700D02*
X79849900Y-194454700D01*
X74785300Y-195580000D02*
X75910600Y-194454700D01*
X108862700Y-102623400D02*
X111028000Y-100458100D01*
X99745600Y-102623400D02*
X108862700Y-102623400D01*
X99647900Y-102525700D02*
X99745600Y-102623400D01*
X98571000Y-102525700D02*
X99647900Y-102525700D01*
X97645300Y-101600000D02*
X98571000Y-102525700D01*
X27940000Y-99060000D02*
X26814700Y-99060000D01*
X26555100Y-98800400D02*
X26814700Y-99060000D01*
X25288700Y-98800400D02*
X26555100Y-98800400D01*
X48822700Y-99060000D02*
X49385300Y-99060000D01*
X48822700Y-99060000D02*
X48260000Y-99060000D01*
X30190600Y-97934700D02*
X29065300Y-99060000D01*
X44343300Y-97934700D02*
X30190600Y-97934700D01*
X45468600Y-99060000D02*
X44343300Y-97934700D01*
X48260000Y-99060000D02*
X45468600Y-99060000D01*
X27940000Y-99060000D02*
X29065300Y-99060000D01*
X71841400Y-198813300D02*
X67392300Y-198813300D01*
X72534700Y-198120000D02*
X71841400Y-198813300D01*
X73660000Y-198120000D02*
X72534700Y-198120000D01*
X50510600Y-97934700D02*
X49385300Y-99060000D01*
X69114900Y-97934700D02*
X50510600Y-97934700D01*
X70269800Y-99089600D02*
X69114900Y-97934700D01*
X70269800Y-99397800D02*
X70269800Y-99089600D01*
X70269800Y-99397800D02*
X69918800Y-99748800D01*
X84894700Y-100360800D02*
X92085000Y-100360800D01*
X84691000Y-100564500D02*
X84894700Y-100360800D01*
X79621200Y-100564500D02*
X84691000Y-100564500D01*
X78454500Y-99397800D02*
X79621200Y-100564500D01*
X70269800Y-99397800D02*
X78454500Y-99397800D01*
X45269700Y-53340000D02*
X48260000Y-53340000D01*
X44133400Y-52203700D02*
X45269700Y-53340000D01*
X30201600Y-52203700D02*
X44133400Y-52203700D01*
X29065300Y-53340000D02*
X30201600Y-52203700D01*
X27940000Y-53340000D02*
X29065300Y-53340000D01*
X109358600Y-95880800D02*
X97758200Y-95880800D01*
X111224200Y-97746400D02*
X109358600Y-95880800D01*
X112646100Y-97746400D02*
X111224200Y-97746400D01*
X113959700Y-99060000D02*
X112646100Y-97746400D01*
X116840000Y-99060000D02*
X113959700Y-99060000D01*
X96520000Y-96520000D02*
X97645300Y-96520000D01*
X116840000Y-96520000D02*
X115714700Y-96520000D01*
X73874900Y-133205400D02*
X74963200Y-134293700D01*
X73113900Y-133205400D02*
X73874900Y-133205400D01*
X72534600Y-132626100D02*
X73113900Y-133205400D01*
X72534600Y-130676900D02*
X72534600Y-132626100D01*
X44942200Y-50800000D02*
X48260000Y-50800000D01*
X43809000Y-49666800D02*
X44942200Y-50800000D01*
X30198500Y-49666800D02*
X43809000Y-49666800D01*
X29065300Y-50800000D02*
X30198500Y-49666800D01*
X27940000Y-50800000D02*
X29065300Y-50800000D01*
X27940000Y-96520000D02*
X29065300Y-96520000D01*
X43809000Y-95386800D02*
X30630300Y-95386800D01*
X44942200Y-96520000D02*
X43809000Y-95386800D01*
X48260000Y-96520000D02*
X44942200Y-96520000D01*
X30198500Y-95386800D02*
X29065300Y-96520000D01*
X30630300Y-95386800D02*
X30198500Y-95386800D01*
X91116000Y-121608300D02*
X91116000Y-121315100D01*
X86878300Y-125846000D02*
X91116000Y-121608300D01*
X77930300Y-125846000D02*
X86878300Y-125846000D01*
X75506300Y-128270000D02*
X77930300Y-125846000D01*
X73334300Y-128270000D02*
X75506300Y-128270000D01*
X72534600Y-129069700D02*
X73334300Y-128270000D01*
X72534600Y-130676900D02*
X72534600Y-129069700D01*
X115714700Y-96322100D02*
X114539100Y-95146500D01*
X115714700Y-96520000D02*
X115714700Y-96322100D01*
X102893600Y-98339900D02*
X102893600Y-98423400D01*
X101073700Y-96520000D02*
X102893600Y-98339900D01*
X97645300Y-96520000D02*
X101073700Y-96520000D01*
X63736700Y-130676900D02*
X72534600Y-130676900D01*
X61329800Y-128270000D02*
X63736700Y-130676900D01*
X60584200Y-128270000D02*
X61329800Y-128270000D01*
X56552400Y-124238200D02*
X60584200Y-128270000D01*
X52134400Y-124238200D02*
X56552400Y-124238200D01*
X48599100Y-120702900D02*
X52134400Y-124238200D01*
X37362500Y-120702900D02*
X48599100Y-120702900D01*
X34785800Y-118126200D02*
X37362500Y-120702900D01*
X34785800Y-116964900D02*
X34785800Y-118126200D01*
X28310900Y-110490000D02*
X34785800Y-116964900D01*
X27556500Y-110490000D02*
X28310900Y-110490000D01*
X24631500Y-107565000D02*
X27556500Y-110490000D01*
X24631500Y-98491700D02*
X24631500Y-107565000D01*
X26603200Y-96520000D02*
X24631500Y-98491700D01*
X27940000Y-96520000D02*
X26603200Y-96520000D01*
X96520000Y-93980000D02*
X95394700Y-93980000D01*
X94582000Y-94792700D02*
X94180900Y-94792700D01*
X95394700Y-93980000D02*
X94582000Y-94792700D01*
X108222700Y-48260000D02*
X96520000Y-48260000D01*
X109354000Y-49391300D02*
X108222700Y-48260000D01*
X113080000Y-49391300D02*
X109354000Y-49391300D01*
X113174400Y-49296900D02*
X113080000Y-49391300D01*
X108309000Y-93980000D02*
X97645300Y-93980000D01*
X109442300Y-92846700D02*
X108309000Y-93980000D01*
X114581400Y-92846700D02*
X109442300Y-92846700D01*
X115714700Y-93980000D02*
X114581400Y-92846700D01*
X96520000Y-93980000D02*
X97645300Y-93980000D01*
X48566600Y-48260000D02*
X49385300Y-48260000D01*
X48566600Y-48260000D02*
X48260000Y-48260000D01*
X48260000Y-48260000D02*
X47134700Y-48260000D01*
X27940000Y-48260000D02*
X29065300Y-48260000D01*
X116277400Y-93980000D02*
X115714700Y-93980000D01*
X116277400Y-93980000D02*
X116840000Y-93980000D01*
X47134700Y-48060300D02*
X47134700Y-48260000D01*
X43646400Y-44572000D02*
X47134700Y-48060300D01*
X32753300Y-44572000D02*
X43646400Y-44572000D01*
X29065300Y-48260000D02*
X32753300Y-44572000D01*
X61186800Y-48260000D02*
X49385300Y-48260000D01*
X62341300Y-47105500D02*
X61186800Y-48260000D01*
X27940000Y-93980000D02*
X29065300Y-93980000D01*
X29580300Y-93465000D02*
X29065300Y-93980000D01*
X31250500Y-93465000D02*
X29580300Y-93465000D01*
X76213900Y-114300000D02*
X75677100Y-114836800D01*
X91440000Y-114300000D02*
X76213900Y-114300000D01*
X118975800Y-93980000D02*
X119753600Y-93202200D01*
X116840000Y-93980000D02*
X118975800Y-93980000D01*
X38857700Y-92844000D02*
X38236700Y-93465000D01*
X43806200Y-92844000D02*
X38857700Y-92844000D01*
X44942200Y-93980000D02*
X43806200Y-92844000D01*
X48260000Y-93980000D02*
X44942200Y-93980000D01*
X38236700Y-93465000D02*
X31250500Y-93465000D01*
X40640000Y-167522800D02*
X37882200Y-164765000D01*
X40640000Y-185420000D02*
X40640000Y-167522800D01*
X27940000Y-45720000D02*
X29065300Y-45720000D01*
X91440000Y-111760000D02*
X90314700Y-111760000D01*
X96520000Y-91440000D02*
X95394700Y-91440000D01*
X35329900Y-39455400D02*
X29065300Y-45720000D01*
X43606300Y-39455400D02*
X35329900Y-39455400D01*
X44887400Y-40736500D02*
X43606300Y-39455400D01*
X44887400Y-41433100D02*
X44887400Y-40736500D01*
X48049000Y-44594700D02*
X44887400Y-41433100D01*
X48260000Y-44594700D02*
X48049000Y-44594700D01*
X95394700Y-91916600D02*
X92067600Y-95243700D01*
X95394700Y-91440000D02*
X95394700Y-91916600D01*
X30190600Y-90314700D02*
X29065300Y-91440000D01*
X46009400Y-90314700D02*
X30190600Y-90314700D01*
X47134700Y-91440000D02*
X46009400Y-90314700D01*
X48260000Y-91440000D02*
X47134700Y-91440000D01*
X48260000Y-91440000D02*
X49385300Y-91440000D01*
X48260000Y-45720000D02*
X48260000Y-44594700D01*
X28502700Y-91440000D02*
X29065300Y-91440000D01*
X28502700Y-91440000D02*
X27940000Y-91440000D01*
X27940000Y-91440000D02*
X27940000Y-90314700D01*
X98770600Y-90314700D02*
X97645300Y-91440000D01*
X114589400Y-90314700D02*
X98770600Y-90314700D01*
X115714700Y-91440000D02*
X114589400Y-90314700D01*
X116840000Y-91440000D02*
X115714700Y-91440000D01*
X96520000Y-91440000D02*
X97645300Y-91440000D01*
X116840000Y-91440000D02*
X116840000Y-90314700D01*
X89745900Y-112328800D02*
X77638600Y-112328800D01*
X90314700Y-111760000D02*
X89745900Y-112328800D01*
X117262000Y-90314700D02*
X120155900Y-87420800D01*
X116840000Y-90314700D02*
X117262000Y-90314700D01*
X49926200Y-91980900D02*
X49385300Y-91440000D01*
X58236500Y-91980900D02*
X49926200Y-91980900D01*
X59947400Y-90270000D02*
X58236500Y-91980900D01*
X79219700Y-90270000D02*
X59947400Y-90270000D01*
X85674300Y-96724600D02*
X79219700Y-90270000D01*
X89988300Y-96724600D02*
X85674300Y-96724600D01*
X69894200Y-142240000D02*
X73660000Y-142240000D01*
X65941200Y-146193000D02*
X69894200Y-142240000D01*
X64222800Y-146193000D02*
X65941200Y-146193000D01*
X54242100Y-156173700D02*
X64222800Y-146193000D01*
X98770600Y-44594700D02*
X97645300Y-45720000D01*
X114589400Y-44594700D02*
X98770600Y-44594700D01*
X115714700Y-45720000D02*
X114589400Y-44594700D01*
X116840000Y-45720000D02*
X115714700Y-45720000D01*
X96520000Y-45720000D02*
X97645300Y-45720000D01*
X27658700Y-90314700D02*
X24241100Y-86897100D01*
X27940000Y-90314700D02*
X27658700Y-90314700D01*
X98770600Y-87774700D02*
X97645300Y-88900000D01*
X114589400Y-87774700D02*
X98770600Y-87774700D01*
X115714700Y-88900000D02*
X114589400Y-87774700D01*
X116840000Y-88900000D02*
X115714700Y-88900000D01*
X96520000Y-88900000D02*
X97645300Y-88900000D01*
X47697400Y-88900000D02*
X47134700Y-88900000D01*
X114589400Y-42054700D02*
X115714700Y-43180000D01*
X104560300Y-42054700D02*
X114589400Y-42054700D01*
X103435000Y-43180000D02*
X104560300Y-42054700D01*
X96520000Y-43180000D02*
X103435000Y-43180000D01*
X116840000Y-43180000D02*
X115714700Y-43180000D01*
X47697400Y-88900000D02*
X48260000Y-88900000D01*
X66040000Y-134620000D02*
X64914700Y-134620000D01*
X91440000Y-109220000D02*
X90314700Y-109220000D01*
X47978600Y-42054700D02*
X48260000Y-42054700D01*
X47134700Y-41210800D02*
X47978600Y-42054700D01*
X47134700Y-40450700D02*
X47134700Y-41210800D01*
X43649800Y-36965800D02*
X47134700Y-40450700D01*
X35279500Y-36965800D02*
X43649800Y-36965800D01*
X29065300Y-43180000D02*
X35279500Y-36965800D01*
X27940000Y-43180000D02*
X29065300Y-43180000D01*
X48260000Y-43180000D02*
X48260000Y-42054700D01*
X116840000Y-88900000D02*
X117965300Y-88900000D01*
X117965300Y-88204700D02*
X120576300Y-85593700D01*
X117965300Y-88900000D02*
X117965300Y-88204700D01*
X46009400Y-87774700D02*
X32287700Y-87774700D01*
X47134700Y-88900000D02*
X46009400Y-87774700D01*
X30190600Y-87774700D02*
X29065300Y-88900000D01*
X32287700Y-87774700D02*
X30190600Y-87774700D01*
X27940000Y-88900000D02*
X29065300Y-88900000D01*
X93864200Y-101358300D02*
X95394700Y-99827800D01*
X93864200Y-106795800D02*
X93864200Y-101358300D01*
X91440000Y-109220000D02*
X93864200Y-106795800D01*
X89577600Y-109220000D02*
X90314700Y-109220000D01*
X88472200Y-110325400D02*
X89577600Y-109220000D01*
X71726100Y-110325400D02*
X88472200Y-110325400D01*
X71089600Y-109688900D02*
X71726100Y-110325400D01*
X64914700Y-135133700D02*
X64914700Y-134620000D01*
X64021700Y-136026700D02*
X64914700Y-135133700D01*
X60137400Y-136026700D02*
X64021700Y-136026700D01*
X59512000Y-136652100D02*
X60137400Y-136026700D01*
X54928000Y-136652100D02*
X59512000Y-136652100D01*
X52022200Y-88900000D02*
X54477800Y-91355600D01*
X48260000Y-88900000D02*
X52022200Y-88900000D01*
X114010600Y-46845300D02*
X112885300Y-45720000D01*
X129829400Y-46845300D02*
X114010600Y-46845300D01*
X130954700Y-45720000D02*
X129829400Y-46845300D01*
X132080000Y-45720000D02*
X130954700Y-45720000D01*
X112322700Y-45720000D02*
X112885300Y-45720000D01*
X112322700Y-45720000D02*
X111760000Y-45720000D01*
X91440000Y-106680000D02*
X91440000Y-105554700D01*
X111760000Y-91440000D02*
X110634700Y-91440000D01*
X45430600Y-92565300D02*
X44305300Y-91440000D01*
X61249400Y-92565300D02*
X45430600Y-92565300D01*
X62374700Y-91440000D02*
X61249400Y-92565300D01*
X63500000Y-91440000D02*
X62374700Y-91440000D01*
X43180000Y-91440000D02*
X44305300Y-91440000D01*
X111760000Y-45720000D02*
X110634700Y-45720000D01*
X63500000Y-91440000D02*
X64625300Y-91440000D01*
X115077800Y-91440000D02*
X111760000Y-91440000D01*
X116203200Y-92565400D02*
X115077800Y-91440000D01*
X129829300Y-92565400D02*
X116203200Y-92565400D01*
X130954700Y-91440000D02*
X129829300Y-92565400D01*
X132080000Y-91440000D02*
X130954700Y-91440000D01*
X92713100Y-97867400D02*
X92554300Y-97708600D01*
X92713100Y-104562900D02*
X92713100Y-97867400D01*
X91721300Y-105554700D02*
X92713100Y-104562900D01*
X91440000Y-105554700D02*
X91721300Y-105554700D01*
X109997800Y-91440000D02*
X110634700Y-91440000D01*
X108872500Y-92565300D02*
X109997800Y-91440000D01*
X95481600Y-92565300D02*
X108872500Y-92565300D01*
X92965000Y-95081900D02*
X95481600Y-92565300D01*
X92965000Y-97297900D02*
X92965000Y-95081900D01*
X92554300Y-97708600D02*
X92965000Y-97297900D01*
X66988500Y-45720000D02*
X63500000Y-45720000D01*
X68113800Y-44594700D02*
X66988500Y-45720000D01*
X77409100Y-44594700D02*
X68113800Y-44594700D01*
X77967100Y-44036700D02*
X77409100Y-44594700D01*
X78485200Y-44036700D02*
X77967100Y-44036700D01*
X79043200Y-44594700D02*
X78485200Y-44036700D01*
X92310600Y-44594700D02*
X79043200Y-44594700D01*
X94561200Y-46845300D02*
X92310600Y-44594700D01*
X109509400Y-46845300D02*
X94561200Y-46845300D01*
X110634700Y-45720000D02*
X109509400Y-46845300D01*
X93306200Y-117098000D02*
X92979200Y-117425000D01*
X93306200Y-116174300D02*
X93306200Y-117098000D01*
X65750600Y-92565300D02*
X64625300Y-91440000D01*
X79665900Y-92565300D02*
X65750600Y-92565300D01*
X84809200Y-97708600D02*
X79665900Y-92565300D01*
X92554300Y-97708600D02*
X84809200Y-97708600D01*
X132080000Y-48260000D02*
X130954700Y-48260000D01*
X111760000Y-48260000D02*
X112885300Y-48260000D01*
X91440000Y-104140000D02*
X90314700Y-104140000D01*
X63500000Y-93980000D02*
X62374700Y-93980000D01*
X43180000Y-93980000D02*
X44305300Y-93980000D01*
X113021900Y-48260000D02*
X112885300Y-48260000D01*
X114147200Y-49385300D02*
X113021900Y-48260000D01*
X129829400Y-49385300D02*
X114147200Y-49385300D01*
X130954700Y-48260000D02*
X129829400Y-49385300D01*
X132080000Y-93980000D02*
X130954700Y-93980000D01*
X111760000Y-93980000D02*
X112885300Y-93980000D01*
X130504300Y-94430400D02*
X121048200Y-94430400D01*
X130954700Y-93980000D02*
X130504300Y-94430400D01*
X114271000Y-93980000D02*
X112885300Y-93980000D01*
X115396300Y-95105300D02*
X114271000Y-93980000D01*
X120373300Y-95105300D02*
X115396300Y-95105300D01*
X121048200Y-94430400D02*
X120373300Y-95105300D01*
X61249400Y-49385300D02*
X62374700Y-48260000D01*
X45430600Y-49385300D02*
X61249400Y-49385300D01*
X44305300Y-48260000D02*
X45430600Y-49385300D01*
X43180000Y-48260000D02*
X44305300Y-48260000D01*
X63500000Y-48260000D02*
X62374700Y-48260000D01*
X74950700Y-104140000D02*
X70895000Y-100084300D01*
X90314700Y-104140000D02*
X74950700Y-104140000D01*
X45430600Y-95105300D02*
X44305300Y-93980000D01*
X61249400Y-95105300D02*
X45430600Y-95105300D01*
X62374700Y-93980000D02*
X61249400Y-95105300D01*
X112322700Y-101600000D02*
X112885300Y-101600000D01*
X45430600Y-102725300D02*
X44305300Y-101600000D01*
X61249400Y-102725300D02*
X45430600Y-102725300D01*
X62374700Y-101600000D02*
X61249400Y-102725300D01*
X43180000Y-101600000D02*
X44305300Y-101600000D01*
X62937400Y-101600000D02*
X62374700Y-101600000D01*
X62937400Y-101600000D02*
X63500000Y-101600000D01*
X63500000Y-55880000D02*
X62374700Y-55880000D01*
X61249400Y-57005300D02*
X62374700Y-55880000D01*
X45587500Y-57005300D02*
X61249400Y-57005300D01*
X44462200Y-55880000D02*
X45587500Y-57005300D01*
X43180000Y-55880000D02*
X44462200Y-55880000D01*
X63500000Y-101600000D02*
X64625300Y-101600000D01*
X131994900Y-101600000D02*
X130954700Y-101600000D01*
X114010600Y-102725300D02*
X112885300Y-101600000D01*
X129829400Y-102725300D02*
X114010600Y-102725300D01*
X130954700Y-101600000D02*
X129829400Y-102725300D01*
X91440000Y-101600000D02*
X90314700Y-101600000D01*
X64625300Y-101881300D02*
X64625300Y-101600000D01*
X68070500Y-105326500D02*
X64625300Y-101881300D01*
X71049700Y-105326500D02*
X68070500Y-105326500D01*
X71671600Y-104704600D02*
X71049700Y-105326500D01*
X131994900Y-101600000D02*
X132080000Y-101600000D01*
X132080000Y-101600000D02*
X132080000Y-100474700D01*
X111760000Y-55880000D02*
X112885300Y-55880000D01*
X132080000Y-55880000D02*
X130954700Y-55880000D01*
X127812300Y-59022400D02*
X130954700Y-55880000D01*
X128374900Y-59585100D02*
X127812300Y-59022400D01*
X128374900Y-73367600D02*
X128374900Y-59585100D01*
X133780700Y-78773400D02*
X128374900Y-73367600D01*
X133780700Y-88200800D02*
X133780700Y-78773400D01*
X133655600Y-88325900D02*
X133780700Y-88200800D01*
X133655600Y-99180400D02*
X133655600Y-88325900D01*
X132361300Y-100474700D02*
X133655600Y-99180400D01*
X132080000Y-100474700D02*
X132361300Y-100474700D01*
X114010600Y-57005300D02*
X112885300Y-55880000D01*
X125795100Y-57005300D02*
X114010600Y-57005300D01*
X127812300Y-59022400D02*
X125795100Y-57005300D01*
X89747400Y-102167300D02*
X74001800Y-102167300D01*
X90314700Y-101600000D02*
X89747400Y-102167300D01*
X112322700Y-101600000D02*
X111760000Y-101600000D01*
X111760000Y-101600000D02*
X110634700Y-101600000D01*
X109161000Y-103073700D02*
X110634700Y-101600000D01*
X99559000Y-103073700D02*
X109161000Y-103073700D01*
X99461300Y-102976000D02*
X99559000Y-103073700D01*
X95714300Y-102976000D02*
X99461300Y-102976000D01*
X95173800Y-102435500D02*
X95714300Y-102976000D01*
X63500000Y-96520000D02*
X62374700Y-96520000D01*
X43180000Y-96520000D02*
X44305300Y-96520000D01*
X111760000Y-50800000D02*
X112885300Y-50800000D01*
X132080000Y-96520000D02*
X130954700Y-96520000D01*
X132080000Y-96520000D02*
X132080000Y-95394700D01*
X91440000Y-99060000D02*
X90314700Y-99060000D01*
X63500000Y-96520000D02*
X64625300Y-96520000D01*
X43180000Y-50800000D02*
X44305300Y-50800000D01*
X63500000Y-50800000D02*
X62374700Y-50800000D01*
X127464800Y-59887000D02*
X125814000Y-58236200D01*
X127464800Y-73129100D02*
X127464800Y-59887000D01*
X133330400Y-78994700D02*
X127464800Y-73129100D01*
X133330400Y-88014200D02*
X133330400Y-78994700D01*
X133205300Y-88139300D02*
X133330400Y-88014200D01*
X133205300Y-94550800D02*
X133205300Y-88139300D01*
X132361400Y-95394700D02*
X133205300Y-94550800D01*
X132080000Y-95394700D02*
X132361400Y-95394700D01*
X123031300Y-50800000D02*
X132080000Y-50800000D01*
X120532300Y-53299000D02*
X123031300Y-50800000D01*
X118532500Y-53299000D02*
X120532300Y-53299000D01*
X117448100Y-52214600D02*
X118532500Y-53299000D01*
X114299900Y-52214600D02*
X117448100Y-52214600D01*
X112885300Y-50800000D02*
X114299900Y-52214600D01*
X79390500Y-99060000D02*
X90314700Y-99060000D01*
X75725200Y-95394700D02*
X79390500Y-99060000D01*
X65750600Y-95394700D02*
X75725200Y-95394700D01*
X64625300Y-96520000D02*
X65750600Y-95394700D01*
X111760000Y-96520000D02*
X110634700Y-96520000D01*
X129829300Y-97645400D02*
X113848500Y-97645400D01*
X130954700Y-96520000D02*
X129829300Y-97645400D01*
X112885300Y-96682200D02*
X112885300Y-96520000D01*
X113848500Y-97645400D02*
X112885300Y-96682200D01*
X111760000Y-96520000D02*
X112885300Y-96520000D01*
X45430600Y-51925300D02*
X44305300Y-50800000D01*
X61249400Y-51925300D02*
X45430600Y-51925300D01*
X62374700Y-50800000D02*
X61249400Y-51925300D01*
X51135100Y-96520000D02*
X62374700Y-96520000D01*
X49998800Y-97656300D02*
X51135100Y-96520000D01*
X45441600Y-97656300D02*
X49998800Y-97656300D01*
X44305300Y-96520000D02*
X45441600Y-97656300D01*
X96240800Y-95203400D02*
X93373000Y-98071200D01*
X109318100Y-95203400D02*
X96240800Y-95203400D01*
X110634700Y-96520000D02*
X109318100Y-95203400D01*
X96520000Y-86360000D02*
X96520000Y-87485300D01*
X91440000Y-96520000D02*
X91440000Y-95394700D01*
X116840000Y-86360000D02*
X115714700Y-86360000D01*
X96520000Y-86360000D02*
X97645300Y-86360000D01*
X48260000Y-86360000D02*
X47134700Y-86360000D01*
X27940000Y-86360000D02*
X29065300Y-86360000D01*
X48260000Y-86360000D02*
X49385300Y-86360000D01*
X27940000Y-40640000D02*
X27940000Y-41765300D01*
X27658600Y-41765300D02*
X27940000Y-41765300D01*
X26814700Y-42609200D02*
X27658600Y-41765300D01*
X26814700Y-57953700D02*
X26814700Y-42609200D01*
X26316000Y-58452400D02*
X26814700Y-57953700D01*
X26316000Y-79446900D02*
X26316000Y-58452400D01*
X30190600Y-83321500D02*
X26316000Y-79446900D01*
X30190600Y-85234700D02*
X30190600Y-83321500D01*
X46009400Y-85234700D02*
X30190600Y-85234700D01*
X47134700Y-86360000D02*
X46009400Y-85234700D01*
X30190600Y-85234700D02*
X29065300Y-86360000D01*
X27940000Y-40640000D02*
X29065300Y-40640000D01*
X114589400Y-85234700D02*
X115714700Y-86360000D01*
X103853000Y-85234700D02*
X114589400Y-85234700D01*
X102727700Y-86360000D02*
X103853000Y-85234700D01*
X97645300Y-86360000D02*
X102727700Y-86360000D01*
X96520000Y-40640000D02*
X95394700Y-40640000D01*
X48260000Y-40640000D02*
X48260000Y-39514700D01*
X48260000Y-39445700D02*
X48260000Y-39514700D01*
X95394700Y-40358700D02*
X95394700Y-40640000D01*
X91055300Y-36019300D02*
X95394700Y-40358700D01*
X62298200Y-36019300D02*
X91055300Y-36019300D01*
X58871800Y-39445700D02*
X62298200Y-36019300D01*
X48260000Y-39445700D02*
X58871800Y-39445700D01*
X47814600Y-39445700D02*
X48260000Y-39445700D01*
X44884300Y-36515400D02*
X47814600Y-39445700D01*
X33189900Y-36515400D02*
X44884300Y-36515400D01*
X29065300Y-40640000D02*
X33189900Y-36515400D01*
X98770600Y-39514700D02*
X97645300Y-40640000D01*
X114589400Y-39514700D02*
X98770600Y-39514700D01*
X115714700Y-40640000D02*
X114589400Y-39514700D01*
X116840000Y-40640000D02*
X115714700Y-40640000D01*
X96520000Y-40640000D02*
X97645300Y-40640000D01*
X90314700Y-93510400D02*
X90314700Y-94550800D01*
X91115100Y-92710000D02*
X90314700Y-93510400D01*
X91826700Y-92710000D02*
X91115100Y-92710000D01*
X95394700Y-89142000D02*
X91826700Y-92710000D01*
X95394700Y-88329200D02*
X95394700Y-89142000D01*
X96238600Y-87485300D02*
X95394700Y-88329200D01*
X96520000Y-87485300D02*
X96238600Y-87485300D01*
X91158600Y-95394700D02*
X91440000Y-95394700D01*
X90314700Y-94550800D02*
X91158600Y-95394700D01*
X88259300Y-94550800D02*
X88224000Y-94586100D01*
X90314700Y-94550800D02*
X88259300Y-94550800D01*
X88132300Y-94677800D02*
X88224000Y-94586100D01*
X84965400Y-94677800D02*
X88132300Y-94677800D01*
X77773000Y-87485400D02*
X84965400Y-94677800D01*
X77773000Y-87485300D02*
X77773000Y-87485400D01*
X50510600Y-87485300D02*
X77773000Y-87485300D01*
X49385300Y-86360000D02*
X50510600Y-87485300D01*
X89118300Y-106538000D02*
X89513500Y-106142800D01*
X78895900Y-106538000D02*
X89118300Y-106538000D01*
X77721900Y-107712000D02*
X78895900Y-106538000D01*
X77408400Y-131641700D02*
X77408400Y-135684400D01*
X76530300Y-130763600D02*
X77408400Y-131641700D01*
X74883600Y-130763600D02*
X76530300Y-130763600D01*
X73660000Y-129540000D02*
X74883600Y-130763600D01*
X73660000Y-132080000D02*
X74785300Y-132080000D01*
X91440000Y-91440000D02*
X90314700Y-91440000D01*
X76426400Y-132080000D02*
X76681700Y-131824700D01*
X74785300Y-132080000D02*
X76426400Y-132080000D01*
X88407600Y-93347100D02*
X90314700Y-91440000D01*
X86585600Y-93347100D02*
X88407600Y-93347100D01*
X84962800Y-91724300D02*
X86585600Y-93347100D01*
X74358200Y-123158900D02*
X67826800Y-129690300D01*
X80871200Y-123158900D02*
X74358200Y-123158900D01*
X91440000Y-86360000D02*
X91440000Y-87485300D01*
X91075500Y-87485300D02*
X89046900Y-89513900D01*
X91440000Y-87485300D02*
X91075500Y-87485300D01*
X66040000Y-129540000D02*
X67165300Y-129540000D01*
X84090900Y-122162200D02*
X84645200Y-121607900D01*
X74470500Y-122162200D02*
X84090900Y-122162200D01*
X67165300Y-129467400D02*
X74470500Y-122162200D01*
X67165300Y-129540000D02*
X67165300Y-129467400D01*
X68624200Y-125541100D02*
X67165300Y-127000000D01*
X69940900Y-125541100D02*
X68624200Y-125541100D01*
X66040000Y-127000000D02*
X67165300Y-127000000D01*
X71830000Y-151516200D02*
X71016100Y-151516200D01*
X75130200Y-154816400D02*
X71830000Y-151516200D01*
X95631900Y-81280000D02*
X99381000Y-85029100D01*
X91440000Y-81280000D02*
X95631900Y-81280000D01*
X100004600Y-99588300D02*
X100004600Y-101998100D01*
X99508300Y-99092000D02*
X100004600Y-99588300D01*
X100173900Y-82691700D02*
X100173900Y-82844400D01*
X96222200Y-78740000D02*
X100173900Y-82691700D01*
X91440000Y-78740000D02*
X96222200Y-78740000D01*
X101148900Y-101946900D02*
X101140600Y-101955200D01*
X101148900Y-98188500D02*
X101148900Y-101946900D01*
X90690400Y-90025400D02*
X88363900Y-92351900D01*
X91925100Y-90025400D02*
X90690400Y-90025400D01*
X92870700Y-89079800D02*
X91925100Y-90025400D01*
X92870700Y-88172900D02*
X92870700Y-89079800D01*
X88059500Y-88119100D02*
X88059500Y-91157800D01*
X90190700Y-85987900D02*
X88059500Y-88119100D01*
X90190700Y-85731300D02*
X90190700Y-85987900D01*
X87400100Y-87894100D02*
X87400100Y-92709300D01*
X88433800Y-86860400D02*
X87400100Y-87894100D01*
X132080000Y-60960000D02*
X133205300Y-60960000D01*
X152400000Y-60960000D02*
X151274700Y-60960000D01*
X134330600Y-62085300D02*
X133205300Y-60960000D01*
X150149400Y-62085300D02*
X134330600Y-62085300D01*
X151274700Y-60960000D02*
X150149400Y-62085300D01*
X62714600Y-64775700D02*
X62544600Y-64945700D01*
X69993500Y-64775700D02*
X62714600Y-64775700D01*
X71269200Y-63500000D02*
X69993500Y-64775700D01*
X90314700Y-63500000D02*
X71269200Y-63500000D01*
X91440000Y-63500000D02*
X90314700Y-63500000D01*
X93230300Y-62835000D02*
X92565300Y-63500000D01*
X93751700Y-62835000D02*
X93230300Y-62835000D01*
X91440000Y-63500000D02*
X92565300Y-63500000D01*
X95565600Y-74376300D02*
X94558000Y-73368700D01*
X115432300Y-74376300D02*
X95565600Y-74376300D01*
X122670000Y-81614000D02*
X115432300Y-74376300D01*
X127206400Y-81614000D02*
X122670000Y-81614000D01*
X130458400Y-84866000D02*
X127206400Y-81614000D01*
X130870500Y-84866000D02*
X130458400Y-84866000D01*
X150149400Y-59545300D02*
X151274700Y-58420000D01*
X131827000Y-59545300D02*
X150149400Y-59545300D01*
X130942900Y-60429400D02*
X131827000Y-59545300D01*
X130942900Y-61518900D02*
X130942900Y-60429400D01*
X131798700Y-62374700D02*
X130942900Y-61518900D01*
X132080000Y-62374700D02*
X131798700Y-62374700D01*
X132080000Y-63500000D02*
X132080000Y-62374700D01*
X152400000Y-58420000D02*
X151274700Y-58420000D01*
X63191600Y-119459400D02*
X62916800Y-119184600D01*
X66582700Y-119459400D02*
X63191600Y-119459400D01*
X66768400Y-119273700D02*
X66582700Y-119459400D01*
X92561100Y-119273700D02*
X66768400Y-119273700D01*
X93643900Y-120356500D02*
X92561100Y-119273700D01*
X111950800Y-120356500D02*
X93643900Y-120356500D01*
X114339800Y-117967500D02*
X111950800Y-120356500D01*
X117321100Y-117967500D02*
X114339800Y-117967500D01*
X121840200Y-113448400D02*
X117321100Y-117967500D01*
X122495300Y-113448400D02*
X121840200Y-113448400D01*
X125468200Y-110475500D02*
X122495300Y-113448400D01*
X125468200Y-110365700D02*
X125468200Y-110475500D01*
X129202100Y-106631800D02*
X125468200Y-110365700D01*
X130157700Y-106631800D02*
X129202100Y-106631800D01*
X91440000Y-60960000D02*
X90314700Y-60960000D01*
X72994800Y-60960000D02*
X90314700Y-60960000D01*
X71852000Y-59817200D02*
X72994800Y-60960000D01*
X64972400Y-59817200D02*
X71852000Y-59817200D01*
X64590700Y-60198900D02*
X64972400Y-59817200D01*
X132080000Y-66040000D02*
X133205300Y-66040000D01*
X152400000Y-55880000D02*
X152400000Y-57005300D01*
X63500000Y-66040000D02*
X62374700Y-66040000D01*
X134375400Y-64869900D02*
X133205300Y-66040000D01*
X137913000Y-64869900D02*
X134375400Y-64869900D01*
X138879400Y-63903500D02*
X137913000Y-64869900D01*
X149396100Y-63903500D02*
X138879400Y-63903500D01*
X151069600Y-62230000D02*
X149396100Y-63903500D01*
X152754000Y-62230000D02*
X151069600Y-62230000D01*
X153525300Y-61458700D02*
X152754000Y-62230000D01*
X153525300Y-57849200D02*
X153525300Y-61458700D01*
X152681400Y-57005300D02*
X153525300Y-57849200D01*
X152400000Y-57005300D02*
X152681400Y-57005300D01*
X92821300Y-73985000D02*
X92821300Y-73755300D01*
X61625000Y-66789700D02*
X60959900Y-66789700D01*
X62374700Y-66040000D02*
X61625000Y-66789700D01*
X94782000Y-75945700D02*
X92821300Y-73985000D01*
X114563900Y-75945700D02*
X94782000Y-75945700D01*
X122272300Y-83654100D02*
X114563900Y-75945700D01*
X127346800Y-83654100D02*
X122272300Y-83654100D01*
X61166300Y-75987100D02*
X60959800Y-75780600D01*
X65764500Y-75987100D02*
X61166300Y-75987100D01*
X66677000Y-75074600D02*
X65764500Y-75987100D01*
X75441100Y-75074600D02*
X66677000Y-75074600D01*
X76870700Y-73645000D02*
X75441100Y-75074600D01*
X78654600Y-73645000D02*
X76870700Y-73645000D01*
X79811600Y-74802000D02*
X78654600Y-73645000D01*
X92004300Y-74802000D02*
X79811600Y-74802000D01*
X92821300Y-73985000D02*
X92004300Y-74802000D01*
X91440000Y-55880000D02*
X90314700Y-55880000D01*
X132080000Y-114300000D02*
X132080000Y-113174700D01*
X132080000Y-68580000D02*
X132080000Y-69705300D01*
X152400000Y-53340000D02*
X152400000Y-54465300D01*
X134356100Y-88262300D02*
X134356100Y-71450000D01*
X134106000Y-88512400D02*
X134356100Y-88262300D01*
X134106000Y-111430100D02*
X134106000Y-88512400D01*
X132361400Y-113174700D02*
X134106000Y-111430100D01*
X132080000Y-113174700D02*
X132361400Y-113174700D01*
X132611400Y-69705300D02*
X134356100Y-71450000D01*
X132080000Y-69705300D02*
X132611400Y-69705300D01*
X152681300Y-54465300D02*
X152400000Y-54465300D01*
X153999400Y-55783400D02*
X152681300Y-54465300D01*
X153999400Y-63512300D02*
X153999400Y-55783400D01*
X152741700Y-64770000D02*
X153999400Y-63512300D01*
X150684900Y-64770000D02*
X152741700Y-64770000D01*
X144004900Y-71450000D02*
X150684900Y-64770000D01*
X134356100Y-71450000D02*
X144004900Y-71450000D01*
X88564000Y-54129300D02*
X77014600Y-54129300D01*
X90314700Y-55880000D02*
X88564000Y-54129300D01*
X77014600Y-53412200D02*
X77014600Y-54129300D01*
X73976700Y-50374300D02*
X77014600Y-53412200D01*
X73976700Y-48911400D02*
X73976700Y-50374300D01*
X78226100Y-44662000D02*
X73976700Y-48911400D01*
X61108500Y-68580000D02*
X60334500Y-69354000D01*
X63500000Y-68580000D02*
X61108500Y-68580000D01*
X132080000Y-71120000D02*
X131067300Y-71120000D01*
X152400000Y-50800000D02*
X151274700Y-50800000D01*
X130954700Y-71149900D02*
X130954700Y-71120000D01*
X129486300Y-72618300D02*
X130954700Y-71149900D01*
X131067300Y-71120000D02*
X130954700Y-71120000D01*
X144924700Y-57150000D02*
X151274700Y-50800000D01*
X131746400Y-57150000D02*
X144924700Y-57150000D01*
X130471500Y-58424900D02*
X131746400Y-57150000D01*
X130471500Y-70636800D02*
X130471500Y-58424900D01*
X130954700Y-71120000D02*
X130471500Y-70636800D01*
X60543100Y-71120000D02*
X59576400Y-72086700D01*
X63500000Y-71120000D02*
X60543100Y-71120000D01*
X123114800Y-85133500D02*
X126772400Y-85133500D01*
X115595900Y-77614600D02*
X123114800Y-85133500D01*
X81739800Y-77614600D02*
X115595900Y-77614600D01*
X78407500Y-74282300D02*
X81739800Y-77614600D01*
X91440000Y-50800000D02*
X92565300Y-50800000D01*
X116277400Y-68580000D02*
X115714700Y-68580000D01*
X92565300Y-51081300D02*
X92565300Y-50800000D01*
X96094000Y-54610000D02*
X92565300Y-51081300D01*
X99024200Y-54610000D02*
X96094000Y-54610000D01*
X109184200Y-64770000D02*
X99024200Y-54610000D01*
X112186000Y-64770000D02*
X109184200Y-64770000D01*
X115714700Y-68298700D02*
X112186000Y-64770000D01*
X115714700Y-68580000D02*
X115714700Y-68298700D01*
X150813400Y-48721300D02*
X151274700Y-48260000D01*
X146405500Y-48721300D02*
X150813400Y-48721300D01*
X152400000Y-48260000D02*
X151274700Y-48260000D01*
X116277400Y-68580000D02*
X116840000Y-68580000D01*
X117858500Y-67454700D02*
X121452200Y-63861000D01*
X116840000Y-67454700D02*
X117858500Y-67454700D01*
X116840000Y-68580000D02*
X116840000Y-67454700D01*
X116840000Y-114300000D02*
X115714700Y-114300000D01*
X51099900Y-116014600D02*
X50094700Y-115009400D01*
X57032000Y-116014600D02*
X51099900Y-116014600D01*
X59096000Y-118078600D02*
X57032000Y-116014600D01*
X105053500Y-118078600D02*
X59096000Y-118078600D01*
X107706800Y-115425300D02*
X105053500Y-118078600D01*
X114589400Y-115425300D02*
X107706800Y-115425300D01*
X115714700Y-114300000D02*
X114589400Y-115425300D01*
X116840000Y-66040000D02*
X115714700Y-66040000D01*
X92002700Y-48260000D02*
X92565300Y-48260000D01*
X152400000Y-45720000D02*
X152400000Y-44594700D01*
X115714700Y-65761600D02*
X115714700Y-66040000D01*
X112299000Y-62345900D02*
X115714700Y-65761600D01*
X109421600Y-62345900D02*
X112299000Y-62345900D01*
X99145700Y-52070000D02*
X109421600Y-62345900D01*
X96094000Y-52070000D02*
X99145700Y-52070000D01*
X92565300Y-48541300D02*
X96094000Y-52070000D01*
X92565300Y-48260000D02*
X92565300Y-48541300D01*
X121115600Y-50349600D02*
X118791500Y-52673700D01*
X129995100Y-50349600D02*
X121115600Y-50349600D01*
X130814700Y-49530000D02*
X129995100Y-50349600D01*
X132443500Y-49530000D02*
X130814700Y-49530000D01*
X133735500Y-48238000D02*
X132443500Y-49530000D01*
X133735500Y-44942800D02*
X133735500Y-48238000D01*
X136670600Y-42007700D02*
X133735500Y-44942800D01*
X152841100Y-42007700D02*
X136670600Y-42007700D01*
X153552500Y-42719100D02*
X152841100Y-42007700D01*
X153552500Y-43723500D02*
X153552500Y-42719100D01*
X152681300Y-44594700D02*
X153552500Y-43723500D01*
X152400000Y-44594700D02*
X152681300Y-44594700D01*
X92002700Y-48260000D02*
X91440000Y-48260000D01*
X76485700Y-48260000D02*
X74616200Y-50129500D01*
X91440000Y-48260000D02*
X76485700Y-48260000D01*
X152400000Y-43180000D02*
X151274700Y-43180000D01*
X91440000Y-45720000D02*
X92565300Y-45720000D01*
X121910900Y-54737500D02*
X110607300Y-54737500D01*
X124606300Y-52042100D02*
X121910900Y-54737500D01*
X132469500Y-52042100D02*
X124606300Y-52042100D01*
X135034500Y-49477100D02*
X132469500Y-52042100D01*
X135034500Y-46179100D02*
X135034500Y-49477100D01*
X136908300Y-44305300D02*
X135034500Y-46179100D01*
X150149400Y-44305300D02*
X136908300Y-44305300D01*
X151274700Y-43180000D02*
X150149400Y-44305300D01*
X116558600Y-62374700D02*
X116840000Y-62374700D01*
X115714700Y-61530800D02*
X116558600Y-62374700D01*
X115714700Y-60777200D02*
X115714700Y-61530800D01*
X112087500Y-57150000D02*
X115714700Y-60777200D01*
X111438300Y-57150000D02*
X112087500Y-57150000D01*
X110607300Y-56319000D02*
X111438300Y-57150000D01*
X110607300Y-54737500D02*
X110607300Y-56319000D01*
X116840000Y-63500000D02*
X116840000Y-62374700D01*
X92565300Y-46001300D02*
X92565300Y-45720000D01*
X95957400Y-49393400D02*
X92565300Y-46001300D01*
X97014200Y-49393400D02*
X95957400Y-49393400D01*
X97305100Y-49102500D02*
X97014200Y-49393400D01*
X104972300Y-49102500D02*
X97305100Y-49102500D01*
X110607300Y-54737500D02*
X104972300Y-49102500D01*
X84091000Y-39496300D02*
X87245700Y-42651000D01*
X62823900Y-39496300D02*
X84091000Y-39496300D01*
X55907100Y-46413100D02*
X62823900Y-39496300D01*
X54082100Y-45190300D02*
X54082100Y-45265700D01*
X62758000Y-36514400D02*
X54082100Y-45190300D01*
X83649100Y-36514400D02*
X62758000Y-36514400D01*
X85244700Y-38110000D02*
X83649100Y-36514400D01*
X100942500Y-50283200D02*
X99009600Y-50283200D01*
X110634700Y-59975400D02*
X100942500Y-50283200D01*
X110634700Y-60960000D02*
X110634700Y-59975400D01*
X111760000Y-60960000D02*
X110634700Y-60960000D01*
X44414500Y-60850800D02*
X45656500Y-60850800D01*
X44305300Y-60960000D02*
X44414500Y-60850800D01*
X43180000Y-60960000D02*
X44305300Y-60960000D01*
X118817200Y-120944600D02*
X118213100Y-121548700D01*
X136676800Y-120944600D02*
X118817200Y-120944600D01*
X150941400Y-106680000D02*
X136676800Y-120944600D01*
X152400000Y-106680000D02*
X150941400Y-106680000D01*
X109738000Y-106680000D02*
X108905900Y-105847900D01*
X111760000Y-106680000D02*
X109738000Y-106680000D01*
X152400000Y-104140000D02*
X151274700Y-104140000D01*
X108735900Y-60964100D02*
X109074500Y-60964100D01*
X100243500Y-52471700D02*
X108735900Y-60964100D01*
X100243500Y-51681900D02*
X100243500Y-52471700D01*
X45199100Y-63500000D02*
X43180000Y-63500000D01*
X46479900Y-62219200D02*
X45199100Y-63500000D01*
X54929000Y-45053100D02*
X54929000Y-46185500D01*
X63017300Y-36964800D02*
X54929000Y-45053100D01*
X71255900Y-36964800D02*
X63017300Y-36964800D01*
X73065900Y-38774800D02*
X71255900Y-36964800D01*
X88449500Y-38774800D02*
X73065900Y-38774800D01*
X90314700Y-40640000D02*
X88449500Y-38774800D01*
X91440000Y-40640000D02*
X90314700Y-40640000D01*
X111760000Y-109220000D02*
X110634700Y-109220000D01*
X108268000Y-106853300D02*
X107463400Y-106853300D01*
X110634700Y-109220000D02*
X108268000Y-106853300D01*
X136064200Y-119350500D02*
X120436600Y-119350500D01*
X151274700Y-104140000D02*
X136064200Y-119350500D01*
X101000000Y-52314400D02*
X101000000Y-51272200D01*
X107867200Y-59181600D02*
X101000000Y-52314400D01*
X43180000Y-111760000D02*
X44305300Y-111760000D01*
X43180000Y-66040000D02*
X44305300Y-66040000D01*
X110405300Y-111989400D02*
X110634700Y-111760000D01*
X98890300Y-111989400D02*
X110405300Y-111989400D01*
X97925300Y-112954400D02*
X98890300Y-111989400D01*
X73450300Y-112954400D02*
X97925300Y-112954400D01*
X73157200Y-112661300D02*
X73450300Y-112954400D01*
X72012400Y-112661300D02*
X73157200Y-112661300D01*
X71788400Y-112885300D02*
X72012400Y-112661300D01*
X45430600Y-112885300D02*
X71788400Y-112885300D01*
X44305300Y-111760000D02*
X45430600Y-112885300D01*
X111197400Y-111760000D02*
X110634700Y-111760000D01*
X111197400Y-111760000D02*
X111760000Y-111760000D01*
X111968700Y-66040000D02*
X111760000Y-66040000D01*
X115171400Y-69242700D02*
X111968700Y-66040000D01*
X111760000Y-111760000D02*
X112885300Y-111760000D01*
X49125400Y-64914700D02*
X50785000Y-66574300D01*
X45430600Y-64914700D02*
X49125400Y-64914700D01*
X44305300Y-66040000D02*
X45430600Y-64914700D01*
X112885300Y-111396300D02*
X115080600Y-109201000D01*
X112885300Y-111760000D02*
X112885300Y-111396300D01*
X116432000Y-119318400D02*
X116246600Y-119503800D01*
X117880900Y-119318400D02*
X116432000Y-119318400D01*
X119495000Y-117704300D02*
X117880900Y-119318400D01*
X120764100Y-117704300D02*
X119495000Y-117704300D01*
X122898400Y-115570000D02*
X120764100Y-117704300D01*
X135006500Y-115570000D02*
X122898400Y-115570000D01*
X148976500Y-101600000D02*
X135006500Y-115570000D01*
X152400000Y-101600000D02*
X148976500Y-101600000D01*
X83183400Y-162560000D02*
X79710800Y-159087400D01*
X86360000Y-162560000D02*
X83183400Y-162560000D01*
X70612100Y-145152800D02*
X73458000Y-145152800D01*
X69592600Y-144133300D02*
X70612100Y-145152800D01*
X62630500Y-133350000D02*
X64212600Y-134932100D01*
X60510600Y-133350000D02*
X62630500Y-133350000D01*
X56700600Y-129540000D02*
X60510600Y-133350000D01*
X53340000Y-129540000D02*
X56700600Y-129540000D01*
X56405600Y-132080000D02*
X59101000Y-134775400D01*
X53340000Y-132080000D02*
X56405600Y-132080000D01*
X73660000Y-165100000D02*
X66040000Y-165100000D01*
X59101000Y-160123200D02*
X59101000Y-160068500D01*
X64077800Y-165100000D02*
X59101000Y-160123200D01*
X66040000Y-165100000D02*
X64077800Y-165100000D01*
X64070600Y-197275900D02*
X62091000Y-197275900D01*
X64914700Y-198120000D02*
X64070600Y-197275900D01*
X53340000Y-134620000D02*
X54465300Y-134620000D01*
X66040000Y-198120000D02*
X64914700Y-198120000D01*
X55339900Y-135494600D02*
X54465300Y-134620000D01*
X58417900Y-135494600D02*
X55339900Y-135494600D01*
X38673600Y-200312200D02*
X38673600Y-185644300D01*
X40291400Y-201930000D02*
X38673600Y-200312200D01*
X42543300Y-201930000D02*
X40291400Y-201930000D01*
X44949200Y-204335900D02*
X42543300Y-201930000D01*
X90829600Y-204335900D02*
X44949200Y-204335900D01*
X91273600Y-203891900D02*
X90829600Y-204335900D01*
X92449300Y-203891900D02*
X91273600Y-203891900D01*
X92540400Y-203983000D02*
X92449300Y-203891900D01*
X107540300Y-203983000D02*
X92540400Y-203983000D01*
X108418500Y-204861200D02*
X107540300Y-203983000D01*
X124460000Y-198120000D02*
X123334700Y-198120000D01*
X65694100Y-201911200D02*
X63184200Y-199401300D01*
X71888900Y-201911200D02*
X65694100Y-201911200D01*
X72239000Y-202261300D02*
X71888900Y-201911200D01*
X82411400Y-202261300D02*
X72239000Y-202261300D01*
X85427400Y-199245300D02*
X82411400Y-202261300D01*
X122209400Y-199245300D02*
X85427400Y-199245300D01*
X123334700Y-198120000D02*
X122209400Y-199245300D01*
X122199200Y-151467300D02*
X122830300Y-152098400D01*
X118981300Y-151467300D02*
X122199200Y-151467300D01*
X116070200Y-148556200D02*
X118981300Y-151467300D01*
X113360700Y-148556200D02*
X116070200Y-148556200D01*
X113334700Y-148530200D02*
X113360700Y-148556200D01*
X100566800Y-148530200D02*
X113334700Y-148530200D01*
X99170400Y-147133800D02*
X100566800Y-148530200D01*
X92807600Y-147133800D02*
X99170400Y-147133800D01*
X91459500Y-145785700D02*
X92807600Y-147133800D01*
X89538100Y-145785700D02*
X91459500Y-145785700D01*
X87016300Y-143263900D02*
X89538100Y-145785700D01*
X85051400Y-143263900D02*
X87016300Y-143263900D01*
X82757500Y-140970000D02*
X85051400Y-143263900D01*
X76546000Y-140970000D02*
X82757500Y-140970000D01*
X74094700Y-138518700D02*
X76546000Y-140970000D01*
X64956600Y-138518700D02*
X74094700Y-138518700D01*
X63775300Y-139700000D02*
X64956600Y-138518700D01*
X60960000Y-139700000D02*
X63775300Y-139700000D01*
X124460000Y-170180000D02*
X123334700Y-170180000D01*
X63301100Y-177418900D02*
X62750100Y-177969900D01*
X87889400Y-177418900D02*
X63301100Y-177418900D01*
X89622100Y-175686200D02*
X87889400Y-177418900D01*
X89622100Y-172940700D02*
X89622100Y-175686200D01*
X91257400Y-171305400D02*
X89622100Y-172940700D01*
X99612500Y-171305400D02*
X91257400Y-171305400D01*
X101861200Y-169056700D02*
X99612500Y-171305400D01*
X101861200Y-168934500D02*
X101861200Y-169056700D01*
X103398000Y-167397700D02*
X101861200Y-168934500D01*
X108378700Y-167397700D02*
X103398000Y-167397700D01*
X110676400Y-165100000D02*
X108378700Y-167397700D01*
X114384800Y-165100000D02*
X110676400Y-165100000D01*
X115538500Y-163946300D02*
X114384800Y-165100000D01*
X118226300Y-163946300D02*
X115538500Y-163946300D01*
X123334700Y-169054700D02*
X118226300Y-163946300D01*
X123334700Y-170180000D02*
X123334700Y-169054700D01*
X60960000Y-134620000D02*
X59834700Y-134620000D01*
X47355200Y-135980200D02*
X47005200Y-136330200D01*
X55927100Y-135980200D02*
X47355200Y-135980200D01*
X56107800Y-136160900D02*
X55927100Y-135980200D01*
X58717400Y-136160900D02*
X56107800Y-136160900D01*
X59834700Y-135043600D02*
X58717400Y-136160900D01*
X59834700Y-134620000D02*
X59834700Y-135043600D01*
X51628400Y-176787100D02*
X47005200Y-172163900D01*
X111166800Y-161886800D02*
X111346900Y-161706700D01*
X103513700Y-161886800D02*
X111166800Y-161886800D01*
X103056800Y-161429900D02*
X103513700Y-161886800D01*
X96090300Y-161429900D02*
X103056800Y-161429900D01*
X93776300Y-163743900D02*
X96090300Y-161429900D01*
X77213700Y-163743900D02*
X93776300Y-163743900D01*
X74718900Y-161249100D02*
X77213700Y-163743900D01*
X73237100Y-161249100D02*
X74718900Y-161249100D01*
X68411900Y-156423900D02*
X73237100Y-161249100D01*
X68411900Y-155689900D02*
X68411900Y-156423900D01*
X66512800Y-153790800D02*
X68411900Y-155689900D01*
X63810800Y-153790800D02*
X66512800Y-153790800D01*
X129540000Y-183724000D02*
X129540000Y-184294700D01*
X117121300Y-171305300D02*
X129540000Y-183724000D01*
X116840000Y-171305300D02*
X117121300Y-171305300D01*
X129540000Y-185420000D02*
X129540000Y-184294700D01*
X116840000Y-170180000D02*
X116840000Y-171305300D01*
X91191100Y-120421200D02*
X92261200Y-121491300D01*
X67195600Y-120421200D02*
X91191100Y-120421200D01*
X117381800Y-161323900D02*
X121162800Y-165104900D01*
X115201200Y-161323900D02*
X117381800Y-161323900D01*
X113737500Y-162787600D02*
X115201200Y-161323900D01*
X102541800Y-162787600D02*
X113737500Y-162787600D01*
X101877100Y-163452300D02*
X102541800Y-162787600D01*
X83299100Y-166370000D02*
X83669700Y-166740600D01*
X78034700Y-166370000D02*
X83299100Y-166370000D01*
X75494700Y-163830000D02*
X78034700Y-166370000D01*
X65685900Y-163830000D02*
X75494700Y-163830000D01*
X64914600Y-163058700D02*
X65685900Y-163830000D01*
X64914600Y-162087900D02*
X64914600Y-163058700D01*
X65638600Y-161363900D02*
X64914600Y-162087900D01*
X66293000Y-161363900D02*
X65638600Y-161363900D01*
X67177800Y-160479100D02*
X66293000Y-161363900D01*
X67177800Y-159461800D02*
X67177800Y-160479100D01*
X66321300Y-158605300D02*
X67177800Y-159461800D01*
X66040000Y-158605300D02*
X66321300Y-158605300D01*
X66040000Y-157480000D02*
X66040000Y-158605300D01*
X60960000Y-195580000D02*
X53340000Y-195580000D01*
X66040000Y-160020000D02*
X64914700Y-160020000D01*
X62969500Y-160020000D02*
X64914700Y-160020000D01*
X61435300Y-161554200D02*
X62969500Y-160020000D01*
X66040000Y-167640000D02*
X64914700Y-167640000D01*
X57699600Y-160424900D02*
X57699600Y-160201700D01*
X64914700Y-167640000D02*
X57699600Y-160424900D01*
X45218800Y-151128600D02*
X44556700Y-150466500D01*
X46322400Y-151128600D02*
X45218800Y-151128600D01*
X54179600Y-158985800D02*
X46322400Y-151128600D01*
X57370300Y-158985800D02*
X54179600Y-158985800D01*
X58394500Y-160010000D02*
X57370300Y-158985800D01*
X58394500Y-160246400D02*
X58394500Y-160010000D01*
X64518100Y-166370000D02*
X58394500Y-160246400D01*
X68724700Y-166370000D02*
X64518100Y-166370000D01*
X72534700Y-170180000D02*
X68724700Y-166370000D01*
X73660000Y-170180000D02*
X72534700Y-170180000D01*
X132080000Y-104140000D02*
X132080000Y-105265300D01*
X90285600Y-150155300D02*
X91991100Y-148449800D01*
X85875300Y-150155300D02*
X90285600Y-150155300D01*
X84826900Y-151203700D02*
X85875300Y-150155300D01*
X79843200Y-151203700D02*
X84826900Y-151203700D01*
X74836900Y-156210000D02*
X79843200Y-151203700D01*
X73326000Y-156210000D02*
X74836900Y-156210000D01*
X72240000Y-157296000D02*
X73326000Y-156210000D01*
X95464000Y-128270000D02*
X94344100Y-129389900D01*
X105311100Y-128270000D02*
X95464000Y-128270000D01*
X114713000Y-118868100D02*
X105311100Y-128270000D01*
X117694300Y-118868100D02*
X114713000Y-118868100D01*
X119308400Y-117254000D02*
X117694300Y-118868100D01*
X120419900Y-117254000D02*
X119308400Y-117254000D01*
X130783000Y-106890900D02*
X120419900Y-117254000D01*
X130783000Y-106366600D02*
X130783000Y-106890900D01*
X131884300Y-105265300D02*
X130783000Y-106366600D01*
X132080000Y-105265300D02*
X131884300Y-105265300D01*
X84629100Y-165705600D02*
X82556300Y-165705600D01*
X85234700Y-165100000D02*
X84629100Y-165705600D01*
X86360000Y-165100000D02*
X85234700Y-165100000D01*
X54465300Y-187830300D02*
X54465300Y-187960000D01*
X60236600Y-182059000D02*
X54465300Y-187830300D01*
X64462100Y-182059000D02*
X60236600Y-182059000D01*
X68026600Y-178494500D02*
X64462100Y-182059000D01*
X79205400Y-178494500D02*
X68026600Y-178494500D01*
X53340000Y-187960000D02*
X54465300Y-187960000D01*
X101839800Y-149881100D02*
X102030600Y-150071900D01*
X98527300Y-149881100D02*
X101839800Y-149881100D01*
X97530800Y-148884600D02*
X98527300Y-149881100D01*
X93566700Y-148884600D02*
X97530800Y-148884600D01*
X90933200Y-151518100D02*
X93566700Y-148884600D01*
X87060200Y-151518100D02*
X90933200Y-151518100D01*
X85644600Y-152933700D02*
X87060200Y-151518100D01*
X83435500Y-152933700D02*
X85644600Y-152933700D01*
X80159200Y-156210000D02*
X83435500Y-152933700D01*
X78356300Y-156210000D02*
X80159200Y-156210000D01*
X75712800Y-158853500D02*
X78356300Y-156210000D01*
X75712800Y-161337500D02*
X75712800Y-158853500D01*
X68348600Y-186545400D02*
X75712800Y-179181200D01*
X59849200Y-186545400D02*
X68348600Y-186545400D01*
X55894600Y-190500000D02*
X59849200Y-186545400D01*
X53340000Y-190500000D02*
X55894600Y-190500000D01*
X35645100Y-58420000D02*
X35575000Y-58490100D01*
X43180000Y-58420000D02*
X35645100Y-58420000D01*
X60960000Y-200660000D02*
X59834700Y-200660000D01*
X44596800Y-198844200D02*
X41991400Y-198844200D01*
X44999300Y-199246700D02*
X44596800Y-198844200D01*
X48756400Y-199246700D02*
X44999300Y-199246700D01*
X49285800Y-198717300D02*
X48756400Y-199246700D01*
X50894400Y-198717300D02*
X49285800Y-198717300D01*
X51711800Y-199534700D02*
X50894400Y-198717300D01*
X58709400Y-199534700D02*
X51711800Y-199534700D01*
X59834700Y-200660000D02*
X58709400Y-199534700D01*
X60960000Y-193040000D02*
X62085300Y-193040000D01*
X63210600Y-191914700D02*
X62085300Y-193040000D01*
X78919000Y-191914700D02*
X63210600Y-191914700D01*
X80982600Y-189851100D02*
X78919000Y-191914700D01*
X80982600Y-188518800D02*
X80982600Y-189851100D01*
X86457400Y-183044000D02*
X80982600Y-188518800D01*
X92729100Y-183044000D02*
X86457400Y-183044000D01*
X95544700Y-180228400D02*
X92729100Y-183044000D01*
X95544700Y-179555200D02*
X95544700Y-180228400D01*
X95735200Y-179364700D02*
X95544700Y-179555200D01*
X99918500Y-179364700D02*
X95735200Y-179364700D01*
X99918500Y-179364600D02*
X99918500Y-179364700D01*
X110048600Y-169234500D02*
X99918500Y-179364600D01*
X111569300Y-169234500D02*
X110048600Y-169234500D01*
X111972200Y-168831600D02*
X111569300Y-169234500D01*
X111972200Y-168510900D02*
X111972200Y-168831600D01*
X112898900Y-167584200D02*
X111972200Y-168510900D01*
X115042300Y-167584200D02*
X112898900Y-167584200D01*
X116256500Y-166370000D02*
X115042300Y-167584200D01*
X117708800Y-166370000D02*
X116256500Y-166370000D01*
X118732400Y-165346400D02*
X117708800Y-166370000D01*
X66040000Y-187960000D02*
X60960000Y-187960000D01*
X73803600Y-182443700D02*
X79865300Y-182443700D01*
X68287300Y-187960000D02*
X73803600Y-182443700D01*
X66040000Y-187960000D02*
X68287300Y-187960000D01*
X111760000Y-58420000D02*
X110634700Y-58420000D01*
X71106700Y-114602600D02*
X72413700Y-113295600D01*
X97709400Y-49618700D02*
X97541800Y-49786300D01*
X101833400Y-49618700D02*
X97709400Y-49618700D01*
X110634700Y-58420000D02*
X101833400Y-49618700D01*
X66040000Y-193040000D02*
X64914700Y-193040000D01*
X89092100Y-179605800D02*
X93000500Y-179605800D01*
X85609200Y-183088700D02*
X89092100Y-179605800D01*
X74061300Y-183088700D02*
X85609200Y-183088700D01*
X67920000Y-189230000D02*
X74061300Y-183088700D01*
X60568000Y-189230000D02*
X67920000Y-189230000D01*
X59812200Y-189985800D02*
X60568000Y-189230000D01*
X59812200Y-193493000D02*
X59812200Y-189985800D01*
X60484500Y-194165300D02*
X59812200Y-193493000D01*
X63789400Y-194165300D02*
X60484500Y-194165300D01*
X64914700Y-193040000D02*
X63789400Y-194165300D01*
X68664200Y-203161900D02*
X68489100Y-202986800D01*
X85561600Y-203161900D02*
X68664200Y-203161900D01*
X85740200Y-202983300D02*
X85561600Y-203161900D01*
X100167800Y-202983300D02*
X85740200Y-202983300D01*
X102833000Y-200318100D02*
X100167800Y-202983300D01*
X86360000Y-198120000D02*
X85234700Y-198120000D01*
X71374200Y-200065000D02*
X70248500Y-200065000D01*
X73120200Y-201811000D02*
X71374200Y-200065000D01*
X81543700Y-201811000D02*
X73120200Y-201811000D01*
X85234700Y-198120000D02*
X81543700Y-201811000D01*
X86360000Y-195580000D02*
X87485300Y-195580000D01*
X149860000Y-160020000D02*
X149860000Y-161145300D01*
X40640000Y-198120000D02*
X41765300Y-198120000D01*
X86360000Y-195580000D02*
X85234700Y-195580000D01*
X88610600Y-194454700D02*
X87485300Y-195580000D01*
X91657300Y-194454700D02*
X88610600Y-194454700D01*
X96854800Y-189257200D02*
X91657300Y-194454700D01*
X102558000Y-189257200D02*
X96854800Y-189257200D01*
X102774100Y-189041100D02*
X102558000Y-189257200D01*
X103292200Y-189041100D02*
X102774100Y-189041100D01*
X103368300Y-189117200D02*
X103292200Y-189041100D01*
X139282600Y-189117200D02*
X103368300Y-189117200D01*
X141709800Y-186690000D02*
X139282600Y-189117200D01*
X142637200Y-186690000D02*
X141709800Y-186690000D01*
X146131400Y-183195800D02*
X142637200Y-186690000D01*
X146131400Y-164592600D02*
X146131400Y-183195800D01*
X149578700Y-161145300D02*
X146131400Y-164592600D01*
X149860000Y-161145300D02*
X149578700Y-161145300D01*
X149860000Y-157480000D02*
X149860000Y-156354700D01*
X91440000Y-139700000D02*
X92565300Y-139700000D01*
X43179800Y-196705500D02*
X41765300Y-198120000D01*
X61637400Y-196705500D02*
X43179800Y-196705500D01*
X61716300Y-196626600D02*
X61637400Y-196705500D01*
X62542000Y-196626600D02*
X61716300Y-196626600D01*
X62620900Y-196705500D02*
X62542000Y-196626600D01*
X84109200Y-196705500D02*
X62620900Y-196705500D01*
X85234700Y-195580000D02*
X84109200Y-196705500D01*
X150141300Y-156354700D02*
X149860000Y-156354700D01*
X154632200Y-151863800D02*
X150141300Y-156354700D01*
X154632200Y-135386500D02*
X154632200Y-151863800D01*
X152579300Y-133333600D02*
X154632200Y-135386500D01*
X152579300Y-132044300D02*
X152579300Y-133333600D01*
X151272700Y-130737700D02*
X152579300Y-132044300D01*
X119982500Y-130737700D02*
X151272700Y-130737700D01*
X117370200Y-133350000D02*
X119982500Y-130737700D01*
X110718300Y-133350000D02*
X117370200Y-133350000D01*
X105782900Y-138285400D02*
X110718300Y-133350000D01*
X98788900Y-138285400D02*
X105782900Y-138285400D01*
X97374300Y-139700000D02*
X98788900Y-138285400D01*
X92565300Y-139700000D02*
X97374300Y-139700000D01*
X86309700Y-175391400D02*
X87652800Y-176734500D01*
X69509800Y-175391400D02*
X86309700Y-175391400D01*
X96375300Y-191770000D02*
X92565300Y-195580000D01*
X100929500Y-191770000D02*
X96375300Y-191770000D01*
X103033100Y-189666400D02*
X100929500Y-191770000D01*
X91440000Y-195580000D02*
X92565300Y-195580000D01*
X102003500Y-196108000D02*
X102003500Y-196241100D01*
X103946100Y-194165400D02*
X102003500Y-196108000D01*
X106509000Y-194165400D02*
X103946100Y-194165400D01*
X107235800Y-193438600D02*
X106509000Y-194165400D01*
X111361400Y-193438600D02*
X107235800Y-193438600D01*
X111760000Y-193040000D02*
X111361400Y-193438600D01*
X86360000Y-167640000D02*
X85234700Y-167640000D01*
X83175500Y-167640000D02*
X85234700Y-167640000D01*
X81905500Y-168910000D02*
X83175500Y-167640000D01*
X77612800Y-168910000D02*
X81905500Y-168910000D01*
X75107200Y-171415600D02*
X77612800Y-168910000D01*
X52848500Y-171415600D02*
X75107200Y-171415600D01*
X142240000Y-185420000D02*
X141114700Y-185420000D01*
X97267400Y-183669300D02*
X86776600Y-183669300D01*
X106422400Y-174514300D02*
X97267400Y-183669300D01*
X110332100Y-174514300D02*
X106422400Y-174514300D01*
X113000000Y-177182200D02*
X110332100Y-174514300D01*
X117661200Y-177182200D02*
X113000000Y-177182200D01*
X120859900Y-180380900D02*
X117661200Y-177182200D01*
X120859900Y-181051300D02*
X120859900Y-180380900D01*
X123172800Y-183364200D02*
X120859900Y-181051300D01*
X125256900Y-183364200D02*
X123172800Y-183364200D01*
X128438000Y-186545300D02*
X125256900Y-183364200D01*
X139989400Y-186545300D02*
X128438000Y-186545300D01*
X141114700Y-185420000D02*
X139989400Y-186545300D01*
X127628300Y-142221100D02*
X128917200Y-143510000D01*
X127628300Y-136150600D02*
X127628300Y-142221100D01*
X124963800Y-133486100D02*
X127628300Y-136150600D01*
X119099200Y-133486100D02*
X124963800Y-133486100D01*
X117965300Y-134620000D02*
X119099200Y-133486100D01*
X116840000Y-134620000D02*
X117965300Y-134620000D01*
X137160000Y-45720000D02*
X137160000Y-46845300D01*
X137160000Y-88900000D02*
X138285300Y-88900000D01*
X140176500Y-93331200D02*
X140449700Y-93331200D01*
X138285300Y-91440000D02*
X140176500Y-93331200D01*
X129540000Y-142240000D02*
X129540000Y-141114700D01*
X137160000Y-91440000D02*
X138285300Y-91440000D01*
X129821400Y-141114700D02*
X129540000Y-141114700D01*
X135176400Y-135759700D02*
X129821400Y-141114700D01*
X136878700Y-46845300D02*
X137160000Y-46845300D01*
X135995200Y-47728800D02*
X136878700Y-46845300D01*
X135995200Y-48743600D02*
X135995200Y-47728800D01*
X136919000Y-49667400D02*
X135995200Y-48743600D01*
X152906700Y-49667400D02*
X136919000Y-49667400D01*
X154838300Y-51599000D02*
X152906700Y-49667400D01*
X154838300Y-72681100D02*
X154838300Y-51599000D01*
X138619400Y-88900000D02*
X154838300Y-72681100D01*
X138285300Y-88900000D02*
X138619400Y-88900000D01*
X139410600Y-47134700D02*
X138285300Y-48260000D01*
X152592900Y-47134700D02*
X139410600Y-47134700D01*
X154002900Y-45724700D02*
X152592900Y-47134700D01*
X154002900Y-40546900D02*
X154002900Y-45724700D01*
X152681300Y-39225300D02*
X154002900Y-40546900D01*
X152400000Y-39225300D02*
X152681300Y-39225300D01*
X152400000Y-38100000D02*
X152400000Y-39225300D01*
X137160000Y-48260000D02*
X138285300Y-48260000D01*
X152400000Y-83820000D02*
X151274700Y-83820000D01*
X137160000Y-93980000D02*
X138285300Y-93980000D01*
X141114700Y-93980000D02*
X151274700Y-83820000D01*
X138285300Y-93980000D02*
X141114700Y-93980000D01*
X129821400Y-169054700D02*
X129540000Y-169054700D01*
X130665300Y-168210800D02*
X129821400Y-169054700D01*
X130665300Y-167151000D02*
X130665300Y-168210800D01*
X129884300Y-166370000D02*
X130665300Y-167151000D01*
X121531100Y-166370000D02*
X129884300Y-166370000D01*
X117965300Y-162804200D02*
X121531100Y-166370000D01*
X117965300Y-162560000D02*
X117965300Y-162804200D01*
X116840000Y-162560000D02*
X117965300Y-162560000D01*
X129540000Y-170180000D02*
X129540000Y-169054700D01*
X35560000Y-187960000D02*
X35560000Y-189085300D01*
X42928600Y-208409100D02*
X80398800Y-208409100D01*
X36685300Y-202165800D02*
X42928600Y-208409100D01*
X36685300Y-190017800D02*
X36685300Y-202165800D01*
X35752800Y-189085300D02*
X36685300Y-190017800D01*
X35560000Y-189085300D02*
X35752800Y-189085300D01*
X137160000Y-139700000D02*
X137160000Y-138574700D01*
X147320000Y-132080000D02*
X151170000Y-132080000D01*
X142240000Y-133776000D02*
X142240000Y-133449100D01*
X137441300Y-138574700D02*
X142240000Y-133776000D01*
X137160000Y-138574700D02*
X137441300Y-138574700D01*
X145950900Y-133449100D02*
X147320000Y-132080000D01*
X142240000Y-133449100D02*
X145950900Y-133449100D01*
X151130000Y-139700000D02*
X147320000Y-139700000D01*
X145950900Y-138330900D02*
X142240000Y-138330900D01*
X147320000Y-139700000D02*
X145950900Y-138330900D01*
X142194400Y-138330900D02*
X138285300Y-142240000D01*
X142240000Y-138330900D02*
X142194400Y-138330900D01*
X137160000Y-142240000D02*
X138285300Y-142240000D01*
X124460000Y-190500000D02*
X125585300Y-190500000D01*
X126710600Y-191625300D02*
X125585300Y-190500000D01*
X131228300Y-191625300D02*
X126710600Y-191625300D01*
X133093100Y-189760500D02*
X131228300Y-191625300D01*
X135443800Y-189760500D02*
X133093100Y-189760500D01*
X135443800Y-189760400D02*
X135443800Y-189760500D01*
X133136800Y-177910500D02*
X129395200Y-181652100D01*
X136117900Y-177910500D02*
X133136800Y-177910500D01*
X143415300Y-170613100D02*
X136117900Y-177910500D01*
X143415300Y-169659300D02*
X143415300Y-170613100D01*
X142521300Y-168765300D02*
X143415300Y-169659300D01*
X142240000Y-168765300D02*
X142521300Y-168765300D01*
X142240000Y-167640000D02*
X142240000Y-168765300D01*
M02*
