M48
;DRILL file {KiCad 4.0.2+dfsg1-stable} date Sat 18 Feb 2017 07:09:59 PM EST
;FORMAT={-:-/ absolute / inch / decimal}
FMAT,2
INCH,TZ
T1C0.016
T2C0.028
T3C0.031
T4C0.032
T5C0.032
T6C0.035
T7C0.039
T8C0.039
T9C0.118
%
G90
G05
M72
T1
X1.0474Y-2.0363
X1.1949Y-6.0386
X1.3879Y-6.7521
X1.4947Y-3.9189
X1.5102Y-5.0257
X1.5384Y-2.8797
X1.624Y-5.5505
X1.6855Y-7.9245
X1.7437Y-5.5778
X1.7485Y-3.5391
X1.7616Y-7.2278
X1.9779Y-4.5189
X1.9904Y-7.2132
X1.9929Y-5.354
X2.0133Y-6.9714
X2.0153Y-1.8799
X2.0222Y-6.6981
X2.025Y-3.3486
X2.0435Y-5.4673
X2.0515Y-2.5698
X2.1081Y-5.9339
X2.1159Y-1.5999
X2.1421Y-3.5101
X2.1434Y-5.9685
X2.1637Y-4.7592
X2.1751Y-2.4246
X2.1982Y-4.6943
X2.2234Y-2.4635
X2.24Y-7.1941
X2.2911Y-7.5553
X2.3001Y-4.1698
X2.3256Y-3.1609
X2.3461Y-4.2874
X2.3526Y-6.2249
X2.355Y-5.717
X2.3602Y-3.2569
X2.368Y-2.9607
X2.372Y-4.7974
X2.3948Y-3.1077
X2.4Y-5.7879
X2.4436Y-2.1577
X2.4469Y-5.7541
X2.4509Y-5.0406
X2.4575Y-3.6317
X2.4629Y-3.5379
X2.4979Y-2.9032
X2.5096Y-5.3139
X2.5426Y-5.7288
X2.5487Y-1.4539
X2.5624Y-4.0466
X2.5671Y-3.7111
X2.581Y-5.9231
X2.5897Y-4.8975
X2.6038Y-4.156
X2.6074Y-4.535
X2.628Y-1.6845
X2.6356Y-5.3436
X2.6469Y-2.7126
X2.65Y-7.3529
X2.6646Y-4.2507
X2.6705Y-6.4034
X2.6835Y-7.3717
X2.7085Y-6.824
X2.7266Y-5.8113
X2.7413Y-5.3714
X2.7434Y-3.3662
X2.7612Y-4.238
X2.7622Y-5.1747
X2.7998Y-7.3439
X2.8061Y-4.5038
X2.8104Y-6.4754
X2.8107Y-4.4308
X2.8406Y-4.5048
X2.8535Y-6.7501
X2.8826Y-4.4904
X2.8839Y-4.8824
X2.8871Y-5.6518
X2.8946Y-7.1984
X2.9Y-4.7115
X2.9131Y-6.7872
X2.9219Y-8.5118
X2.9255Y-6.9927
X2.9317Y-3.6963
X2.9388Y-5.9924
X2.9589Y-3.7236
X2.9652Y-8.5175
X2.979Y-7.9637
X2.994Y-5.27
X2.9958Y-8.4778
X3.0204Y-7.0084
X3.0245Y-7.041
X3.0267Y-6.779
X3.0437Y-5.2701
X3.0614Y-4.9687
X3.062Y-3.8299
X3.1122Y-3.9094
X3.1148Y-4.1723
X3.1323Y-4.8497
X3.1472Y-5.6456
X3.164Y-6.7132
X3.166Y-6.6212
X3.171Y-5.3441
X3.1773Y-4.86
X3.1884Y-8.1513
X3.2016Y-6.9426
X3.2096Y-6.6662
X3.2145Y-6.1289
X3.2161Y-2.4038
X3.2301Y-8.2376
X3.2402Y-8.2714
X3.2615Y-7.4161
X3.2678Y-6.7655
X3.3072Y-2.6872
X3.3141Y-2.199
X3.3141Y-8.5994
X3.3152Y-3.5432
X3.317Y-4.6195
X3.317Y-5.2966
X3.3379Y-7.9728
X3.3416Y-3.263
X3.349Y-6.8508
X3.3532Y-2.6545
X3.3594Y-5.8278
X3.4064Y-7.1144
X3.4121Y-2.3375
X3.4144Y-2.431
X3.4234Y-3.434
X3.436Y-2.9518
X3.4449Y-1.6059
X3.495Y-2.3123
X3.4951Y-5.0254
X3.5011Y-2.4816
X3.5029Y-5.688
X3.5127Y-2.4343
X3.5189Y-5.2004
X3.5448Y-5.9647
X3.5631Y-6.0578
X3.5702Y-4.9169
X3.6416Y-3.0453
X3.6442Y-3.8439
X3.6465Y-2.1601
X3.6534Y-2.384
X3.6621Y-5.7253
X3.6646Y-4.5901
X3.6714Y-3.7309
X3.7365Y-5.9677
X3.7395Y-3.1631
X3.7403Y-2.9739
X3.7479Y-4.5041
X3.7547Y-1.5582
X3.7589Y-7.404
X3.7596Y-5.9406
X3.793Y-2.8923
X3.8865Y-8.2527
X3.931Y-4.3592
X3.9552Y-6.1139
X3.9772Y-3.3712
X3.9927Y-7.5377
X4.0024Y-3.3449
X4.0054Y-7.6255
X4.0056Y-5.9038
X4.0104Y-6.0167
X4.0428Y-3.9141
X4.0465Y-4.0119
X4.0609Y-6.9877
X4.0624Y-3.1989
X4.1109Y-2.4588
X4.1455Y-6.9623
X4.1564Y-1.7952
X4.1768Y-8.1201
X4.1783Y-3.1814
X4.2035Y-2.6812
X4.2128Y-2.4276
X4.2181Y-2.7865
X4.2247Y-4.4513
X4.2285Y-4.0531
X4.2297Y-4.246
X4.23Y-4.6453
X4.2307Y-5.2504
X4.2411Y-4.6077
X4.2553Y-6.9578
X4.2591Y-5.7096
X4.276Y-6.9117
X4.276Y-2.6278
X4.276Y-2.9725
X4.2785Y-3.1814
X4.2834Y-6.9909
X4.284Y-4.3093
X4.2986Y-4.9016
X4.3053Y-2.4834
X4.3133Y-7.9747
X4.3301Y-7.9423
X4.3306Y-5.6651
X4.3387Y-7.3084
X4.3485Y-2.1133
X4.3487Y-6.2496
X4.3559Y-2.244
X4.3562Y-6.9078
X4.363Y-4.6994
X4.3755Y-6.9336
X4.4237Y-6.7908
X4.4376Y-5.9091
X4.4478Y-5.2256
X4.458Y-5.8437
X4.4707Y-4.6699
X4.4779Y-4.7539
X4.4906Y-4.1402
X4.5054Y-4.6638
X4.5114Y-4.7573
X4.5151Y-6.842
X4.563Y-5.4571
X4.5738Y-7.2488
X4.5999Y-1.4178
X4.6359Y-2.5377
X4.6394Y-6.5392
X4.6427Y-5.8618
X4.6564Y-7.1871
X4.7354Y-4.4539
X4.7364Y-6.8716
X4.7397Y-6.4389
X4.7424Y-5.6731
X4.7772Y-7.3795
X4.7883Y-5.7364
X4.7976Y-2.4508
X4.8172Y-2.424
X4.8901Y-2.9562
X4.9202Y-1.6191
X4.9644Y-3.9305
X4.9694Y-7.2208
X4.9969Y-4.3871
X5.0199Y-6.9604
X5.0345Y-1.215
X5.0386Y-4.0692
X5.0412Y-3.2101
X5.042Y-3.1693
X5.0593Y-4.9219
X5.2274Y-2.1535
X5.2399Y-2.0331
X5.2493Y-2.675
X5.2789Y-3.9127
X5.3132Y-6.7343
X5.4809Y-4.4107
X5.6961Y-3.2113
X5.7923Y-2.0132
X5.8358Y-2.4921
T2
X1.7Y-0.8999
X2.1Y-0.8999
T3
X1.1Y-1.5
X1.1Y-1.6
X1.1Y-1.7
X1.1Y-1.8
X1.1Y-1.9
X1.1Y-2.
X1.1Y-2.1
X1.1Y-2.2
X1.1Y-2.3
X1.1Y-2.4
X1.1Y-2.5
X1.1Y-2.6
X1.1Y-2.7
X1.1Y-2.8
X1.1Y-3.3
X1.1Y-3.4
X1.1Y-3.5
X1.1Y-3.6
X1.1Y-3.7
X1.1Y-3.8
X1.1Y-3.9
X1.1Y-4.
X1.1Y-4.1
X1.1Y-4.2
X1.1Y-4.3
X1.1Y-4.4
X1.1Y-4.5
X1.1Y-4.6
X1.1Y-5.
X1.1Y-5.1
X1.1Y-5.2
X1.1Y-5.3
X1.1Y-5.4
X1.1Y-5.5
X1.1Y-5.6
X1.1Y-6.1
X1.1Y-6.2
X1.1Y-6.3
X1.1Y-6.4
X1.1Y-6.5
X1.1Y-6.6
X1.1Y-6.7
X1.1Y-7.3
X1.1Y-7.4
X1.1Y-7.5
X1.1Y-7.6
X1.1Y-7.7
X1.1Y-7.8
X1.1Y-7.9
X1.3Y-5.9
X1.3Y-7.1
X1.4Y-5.
X1.4Y-5.1
X1.4Y-5.2
X1.4Y-5.3
X1.4Y-5.4
X1.4Y-5.5
X1.4Y-5.6
X1.4Y-6.1
X1.4Y-6.2
X1.4Y-6.3
X1.4Y-6.4
X1.4Y-6.5
X1.4Y-6.6
X1.4Y-6.7
X1.4Y-7.3
X1.4Y-7.4
X1.4Y-7.5
X1.4Y-7.6
X1.4Y-7.7
X1.4Y-7.8
X1.4Y-7.9
X1.45Y-1.3
X1.45Y-3.1
X1.6Y-5.
X1.6Y-5.1
X1.6Y-5.2
X1.6Y-5.3
X1.6Y-5.4
X1.6Y-5.5
X1.6Y-5.6
X1.6Y-6.1
X1.6Y-6.2
X1.6Y-6.3
X1.6Y-6.4
X1.6Y-7.3
X1.6Y-7.4
X1.6Y-7.5
X1.6Y-7.6
X1.6Y-7.7
X1.6Y-7.8
X1.6Y-7.9
X1.6Y-8.
X1.7Y-1.5
X1.7Y-1.6
X1.7Y-1.7
X1.7Y-1.8
X1.7Y-1.9
X1.7Y-2.
X1.7Y-2.1
X1.7Y-2.2
X1.7Y-2.3
X1.7Y-2.4
X1.7Y-2.5
X1.7Y-2.6
X1.7Y-2.7
X1.7Y-2.8
X1.7Y-3.3
X1.7Y-3.4
X1.7Y-3.5
X1.7Y-3.6
X1.7Y-3.7
X1.7Y-3.8
X1.7Y-3.9
X1.7Y-4.
X1.7Y-4.1
X1.7Y-4.2
X1.7Y-4.3
X1.7Y-4.4
X1.7Y-4.5
X1.7Y-4.6
X1.8Y-4.8
X1.8Y-5.9
X1.8Y-7.1
X1.9Y-1.5
X1.9Y-1.6
X1.9Y-1.7
X1.9Y-1.8
X1.9Y-1.9
X1.9Y-2.
X1.9Y-2.1
X1.9Y-2.2
X1.9Y-2.3
X1.9Y-2.4
X1.9Y-2.5
X1.9Y-2.6
X1.9Y-2.7
X1.9Y-2.8
X1.9Y-3.3
X1.9Y-3.4
X1.9Y-3.5
X1.9Y-3.6
X1.9Y-3.7
X1.9Y-3.8
X1.9Y-3.9
X1.9Y-4.
X1.9Y-4.1
X1.9Y-4.2
X1.9Y-4.3
X1.9Y-4.4
X1.9Y-4.5
X1.9Y-4.6
X1.9Y-5.
X1.9Y-5.1
X1.9Y-5.2
X1.9Y-5.3
X1.9Y-5.4
X1.9Y-5.5
X1.9Y-5.6
X1.9Y-6.1
X1.9Y-6.2
X1.9Y-6.3
X1.9Y-6.4
X1.9Y-7.3
X1.9Y-7.4
X1.9Y-7.5
X1.9Y-7.6
X1.9Y-7.7
X1.9Y-7.8
X1.9Y-7.9
X1.9Y-8.
X2.1Y-5.
X2.1Y-5.1
X2.1Y-5.2
X2.1Y-5.3
X2.1Y-5.4
X2.1Y-5.5
X2.1Y-5.6
X2.1Y-6.5
X2.1Y-7.3
X2.1Y-7.4
X2.1Y-7.5
X2.1Y-7.6
X2.1Y-7.7
X2.1Y-7.8
X2.1Y-7.9
X2.25Y-1.3
X2.25Y-3.1
X2.3Y-4.8
X2.3Y-6.5
X2.3Y-7.1
X2.3016Y-0.9
X2.4Y-0.9
X2.4Y-5.
X2.4Y-5.1
X2.4Y-5.2
X2.4Y-5.3
X2.4Y-5.4
X2.4Y-5.5
X2.4Y-5.6
X2.4Y-7.3
X2.4Y-7.4
X2.4Y-7.5
X2.4Y-7.6
X2.4Y-7.7
X2.4Y-7.8
X2.4Y-7.9
X2.5Y-1.5
X2.5Y-1.6
X2.5Y-1.7
X2.5Y-1.8
X2.5Y-1.9
X2.5Y-2.
X2.5Y-2.1
X2.5Y-2.2
X2.5Y-2.3
X2.5Y-2.4
X2.5Y-2.5
X2.5Y-2.6
X2.5Y-2.7
X2.5Y-2.8
X2.5Y-3.3
X2.5Y-3.4
X2.5Y-3.5
X2.5Y-3.6
X2.5Y-3.7
X2.5Y-3.8
X2.5Y-3.9
X2.5Y-4.
X2.5Y-4.1
X2.5Y-4.2
X2.5Y-4.3
X2.5Y-4.4
X2.5Y-4.5
X2.5Y-4.6
X2.6Y-5.
X2.6Y-5.1
X2.6Y-5.2
X2.6Y-5.3
X2.6Y-5.4
X2.6Y-5.5
X2.6Y-5.6
X2.6Y-6.1
X2.6Y-6.2
X2.6Y-6.3
X2.6Y-6.4
X2.6Y-6.5
X2.6Y-6.6
X2.6Y-6.7
X2.6Y-7.3
X2.6Y-7.4
X2.6Y-7.5
X2.6Y-7.6
X2.6Y-7.7
X2.6Y-7.8
X2.6Y-7.9
X2.7Y-1.5
X2.7Y-1.6
X2.7Y-1.7
X2.7Y-1.8
X2.7Y-1.9
X2.7Y-2.
X2.7Y-2.1
X2.7Y-2.2
X2.7Y-2.3
X2.7Y-2.4
X2.7Y-2.5
X2.7Y-2.6
X2.7Y-2.7
X2.7Y-2.8
X2.7Y-2.9
X2.7Y-3.
X2.7Y-3.1
X2.7Y-3.2
X2.7Y-3.3
X2.7Y-3.4
X2.7Y-3.5
X2.7Y-3.6
X2.7Y-3.7
X2.7Y-3.8
X2.7Y-3.9
X2.7Y-4.
X2.7Y-4.1
X2.7Y-4.2
X2.7Y-4.3
X2.7Y-4.4
X2.7Y-4.5
X2.7Y-4.6
X2.8Y-4.8
X2.8Y-5.9
X2.8Y-7.1
X2.9Y-5.
X2.9Y-5.1
X2.9Y-5.2
X2.9Y-5.3
X2.9Y-5.4
X2.9Y-5.5
X2.9Y-5.6
X2.9Y-6.1
X2.9Y-6.2
X2.9Y-6.3
X2.9Y-6.4
X2.9Y-6.5
X2.9Y-6.6
X2.9Y-6.7
X2.9Y-7.3
X2.9Y-7.4
X2.9Y-7.5
X2.9Y-7.6
X2.9Y-7.7
X2.9Y-7.8
X2.9Y-7.9
X3.1Y-1.3
X3.1Y-6.1
X3.1Y-6.2
X3.1Y-6.3
X3.1Y-6.4
X3.1Y-6.5
X3.1Y-6.6
X3.1Y-6.7
X3.1Y-6.8
X3.1Y-7.3
X3.1Y-7.4
X3.1Y-7.5
X3.1Y-7.6
X3.1Y-7.7
X3.1Y-7.8
X3.1Y-7.9
X3.3Y-5.9
X3.3Y-7.1
X3.4Y-6.1
X3.4Y-6.2
X3.4Y-6.3
X3.4Y-6.4
X3.4Y-6.5
X3.4Y-6.6
X3.4Y-6.7
X3.4Y-6.8
X3.4Y-7.3
X3.4Y-7.4
X3.4Y-7.5
X3.4Y-7.6
X3.4Y-7.7
X3.4Y-7.8
X3.4Y-7.9
X3.6Y-1.5
X3.6Y-1.6
X3.6Y-1.7
X3.6Y-1.8
X3.6Y-1.9
X3.6Y-2.
X3.6Y-2.1
X3.6Y-2.2
X3.6Y-2.3
X3.6Y-2.4
X3.6Y-2.5
X3.6Y-2.6
X3.6Y-2.7
X3.6Y-2.8
X3.6Y-2.9
X3.6Y-3.
X3.6Y-3.1
X3.6Y-3.2
X3.6Y-3.3
X3.6Y-3.4
X3.6Y-3.5
X3.6Y-3.6
X3.6Y-3.7
X3.6Y-3.8
X3.6Y-3.9
X3.6Y-4.
X3.6Y-4.1
X3.6Y-4.2
X3.6Y-4.3
X3.6Y-4.4
X3.6Y-4.5
X3.6Y-4.6
X3.6Y-5.
X3.6Y-5.1
X3.6Y-5.2
X3.6Y-5.3
X3.6Y-5.4
X3.6Y-5.5
X3.6Y-5.6
X3.6Y-6.1
X3.6Y-6.2
X3.6Y-6.3
X3.6Y-6.4
X3.6Y-6.5
X3.6Y-6.6
X3.6Y-6.7
X3.6Y-6.8
X3.6Y-7.3
X3.6Y-7.4
X3.6Y-7.5
X3.6Y-7.6
X3.6Y-7.7
X3.6Y-7.8
X3.6Y-7.9
X3.8Y-1.5
X3.8Y-1.6
X3.8Y-1.7
X3.8Y-1.8
X3.8Y-1.9
X3.8Y-2.
X3.8Y-2.1
X3.8Y-2.2
X3.8Y-2.3
X3.8Y-2.4
X3.8Y-2.5
X3.8Y-2.6
X3.8Y-2.7
X3.8Y-2.8
X3.8Y-3.3
X3.8Y-3.4
X3.8Y-3.5
X3.8Y-3.6
X3.8Y-3.7
X3.8Y-3.8
X3.8Y-3.9
X3.8Y-4.
X3.8Y-4.1
X3.8Y-4.2
X3.8Y-4.3
X3.8Y-4.4
X3.8Y-4.5
X3.8Y-4.6
X3.8Y-4.8
X3.8Y-5.9
X3.8Y-7.1
X3.9Y-5.
X3.9Y-5.1
X3.9Y-5.2
X3.9Y-5.3
X3.9Y-5.4
X3.9Y-5.5
X3.9Y-5.6
X3.9Y-6.1
X3.9Y-6.2
X3.9Y-6.3
X3.9Y-6.4
X3.9Y-6.5
X3.9Y-6.6
X3.9Y-6.7
X3.9Y-6.8
X3.9Y-7.3
X3.9Y-7.4
X3.9Y-7.5
X3.9Y-7.6
X3.9Y-7.7
X3.9Y-7.8
X3.9Y-7.9
X4.1Y-3.1
X4.1Y-5.
X4.1Y-5.1
X4.1Y-5.2
X4.1Y-5.3
X4.1Y-5.4
X4.1Y-5.5
X4.1Y-5.6
X4.1Y-5.7
X4.1Y-7.3
X4.1Y-7.4
X4.1Y-7.5
X4.1Y-7.6
X4.1Y-7.7
X4.1Y-7.8
X4.1Y-7.9
X4.15Y-1.3
X4.3Y-4.8
X4.3Y-7.1
X4.4Y-1.5
X4.4Y-1.6
X4.4Y-1.7
X4.4Y-1.8
X4.4Y-1.9
X4.4Y-2.
X4.4Y-2.1
X4.4Y-2.2
X4.4Y-2.3
X4.4Y-2.4
X4.4Y-2.5
X4.4Y-2.6
X4.4Y-2.7
X4.4Y-2.8
X4.4Y-3.3
X4.4Y-3.4
X4.4Y-3.5
X4.4Y-3.6
X4.4Y-3.7
X4.4Y-3.8
X4.4Y-3.9
X4.4Y-4.
X4.4Y-4.1
X4.4Y-4.2
X4.4Y-4.3
X4.4Y-4.4
X4.4Y-4.5
X4.4Y-4.6
X4.4Y-5.
X4.4Y-5.1
X4.4Y-5.2
X4.4Y-5.3
X4.4Y-5.4
X4.4Y-5.5
X4.4Y-5.6
X4.4Y-5.7
X4.4Y-7.3
X4.4Y-7.4
X4.4Y-7.5
X4.4Y-7.6
X4.4Y-7.7
X4.4Y-7.8
X4.4Y-7.9
X4.6Y-1.5
X4.6Y-1.6
X4.6Y-1.7
X4.6Y-1.8
X4.6Y-1.9
X4.6Y-2.
X4.6Y-2.1
X4.6Y-2.2
X4.6Y-2.3
X4.6Y-2.4
X4.6Y-2.5
X4.6Y-2.6
X4.6Y-2.7
X4.6Y-2.8
X4.6Y-3.3
X4.6Y-3.4
X4.6Y-3.5
X4.6Y-3.6
X4.6Y-3.7
X4.6Y-3.8
X4.6Y-3.9
X4.6Y-4.
X4.6Y-4.1
X4.6Y-4.2
X4.6Y-4.3
X4.6Y-4.4
X4.6Y-4.5
X4.6Y-4.6
X4.6Y-5.
X4.6Y-5.1
X4.6Y-5.2
X4.6Y-5.3
X4.6Y-5.4
X4.6Y-5.5
X4.6Y-5.6
X4.6Y-5.7
X4.6Y-6.1
X4.6Y-6.2
X4.6Y-6.3
X4.6Y-6.4
X4.6Y-6.5
X4.6Y-6.6
X4.6Y-6.7
X4.6Y-6.8
X4.6Y-7.3
X4.6Y-7.4
X4.6Y-7.5
X4.6Y-7.6
X4.6Y-7.7
X4.6Y-7.8
X4.6Y-7.9
X4.8Y-4.8
X4.8Y-5.9
X4.8Y-7.1
X4.9Y-5.
X4.9Y-5.1
X4.9Y-5.2
X4.9Y-5.3
X4.9Y-5.4
X4.9Y-5.5
X4.9Y-5.6
X4.9Y-5.7
X4.9Y-6.1
X4.9Y-6.2
X4.9Y-6.3
X4.9Y-6.4
X4.9Y-6.5
X4.9Y-6.6
X4.9Y-6.7
X4.9Y-6.8
X4.9Y-7.3
X4.9Y-7.4
X4.9Y-7.5
X4.9Y-7.6
X4.9Y-7.7
X4.9Y-7.8
X4.9Y-7.9
X4.95Y-1.3
X4.95Y-3.1
X5.1Y-5.
X5.1Y-5.1
X5.1Y-5.2
X5.1Y-5.3
X5.1Y-5.4
X5.1Y-5.5
X5.1Y-5.6
X5.1Y-5.7
X5.1Y-6.1
X5.1Y-6.2
X5.1Y-6.3
X5.1Y-6.4
X5.1Y-6.5
X5.1Y-6.6
X5.1Y-6.7
X5.1Y-6.8
X5.1Y-7.3
X5.1Y-7.4
X5.1Y-7.5
X5.1Y-7.6
X5.1Y-7.7
X5.1Y-7.8
X5.1Y-7.9
X5.2Y-1.5
X5.2Y-1.6
X5.2Y-1.7
X5.2Y-1.8
X5.2Y-1.9
X5.2Y-2.
X5.2Y-2.1
X5.2Y-2.2
X5.2Y-2.3
X5.2Y-2.4
X5.2Y-2.5
X5.2Y-2.6
X5.2Y-2.7
X5.2Y-2.8
X5.2Y-3.3
X5.2Y-3.4
X5.2Y-3.5
X5.2Y-3.6
X5.2Y-3.7
X5.2Y-3.8
X5.2Y-3.9
X5.2Y-4.
X5.2Y-4.1
X5.2Y-4.2
X5.2Y-4.3
X5.2Y-4.4
X5.2Y-4.5
X5.2Y-4.6
X5.3Y-4.8
X5.3Y-5.9
X5.3Y-7.1
X5.4Y-1.5
X5.4Y-1.6
X5.4Y-1.7
X5.4Y-1.8
X5.4Y-1.9
X5.4Y-2.
X5.4Y-2.1
X5.4Y-2.2
X5.4Y-2.3
X5.4Y-2.4
X5.4Y-2.5
X5.4Y-2.6
X5.4Y-3.3
X5.4Y-3.4
X5.4Y-3.5
X5.4Y-3.6
X5.4Y-3.7
X5.4Y-3.8
X5.4Y-3.9
X5.4Y-4.
X5.4Y-4.1
X5.4Y-4.2
X5.4Y-4.3
X5.4Y-4.4
X5.4Y-5.
X5.4Y-5.1
X5.4Y-5.2
X5.4Y-5.3
X5.4Y-5.4
X5.4Y-5.5
X5.4Y-5.6
X5.4Y-5.7
X5.4Y-6.1
X5.4Y-6.2
X5.4Y-6.3
X5.4Y-6.4
X5.4Y-6.5
X5.4Y-6.6
X5.4Y-6.7
X5.4Y-6.8
X5.4Y-7.3
X5.4Y-7.4
X5.4Y-7.5
X5.4Y-7.6
X5.4Y-7.7
X5.4Y-7.8
X5.4Y-7.9
X5.6Y-6.1
X5.6Y-6.2
X5.6Y-6.3
X5.6Y-6.4
X5.6Y-6.5
X5.6Y-6.6
X5.6Y-6.7
X5.6Y-7.3
X5.6Y-7.4
X5.6Y-7.5
X5.6Y-7.6
X5.6Y-7.7
X5.6Y-7.8
X5.6Y-7.9
X5.75Y-1.3
X5.75Y-3.1
X5.8Y-5.9
X5.8Y-7.1
X5.9Y-6.1
X5.9Y-6.2
X5.9Y-6.3
X5.9Y-6.4
X5.9Y-6.5
X5.9Y-6.6
X5.9Y-6.7
X5.9Y-7.3
X5.9Y-7.4
X5.9Y-7.5
X5.9Y-7.6
X5.9Y-7.7
X5.9Y-7.8
X5.9Y-7.9
X5.95Y-5.5
X6.Y-1.5
X6.Y-1.6
X6.Y-1.7
X6.Y-1.8
X6.Y-1.9
X6.Y-2.
X6.Y-2.1
X6.Y-2.2
X6.Y-2.3
X6.Y-2.4
X6.Y-2.5
X6.Y-2.6
X6.Y-3.3
X6.Y-3.4
X6.Y-3.5
X6.Y-3.6
X6.Y-3.7
X6.Y-3.8
X6.Y-3.9
X6.Y-4.
X6.Y-4.1
X6.Y-4.2
X6.Y-4.3
X6.Y-4.4
X6.05Y-5.2
T4
X1.2016Y-5.9
X1.2016Y-7.1
X1.3516Y-1.3
X1.3516Y-3.1
X1.7016Y-4.8
X1.7016Y-5.9
X1.7016Y-7.1
X2.1516Y-1.3
X2.1516Y-3.1
X2.1984Y-6.5
X2.2016Y-4.8
X2.2016Y-7.1
X2.3984Y-6.5
X2.7016Y-4.8
X2.7016Y-5.9
X2.7016Y-7.1
X3.1984Y-1.3
X3.2016Y-5.9
X3.2016Y-7.1
X3.7016Y-4.8
X3.7016Y-5.9
X3.7016Y-7.1
X4.0016Y-3.1
X4.0516Y-1.3
X4.2016Y-4.8
X4.2016Y-7.1
X4.7016Y-4.8
X4.7016Y-5.9
X4.7016Y-7.1
X4.8516Y-1.3
X4.8516Y-3.1
X5.2016Y-4.8
X5.2016Y-5.9
X5.2016Y-7.1
X5.6Y-5.2539
X5.6Y-5.4461
X5.6516Y-1.3
X5.6516Y-3.1
X5.7016Y-5.9
X5.7016Y-7.1
X5.9516Y-5.2
X6.0484Y-5.5
T5
X3.1Y-4.9
X3.1Y-5.
X3.1Y-5.1
X3.1Y-5.2
X3.1Y-5.3
X3.1Y-5.4
X3.1Y-5.5
X3.1Y-5.6
X3.1Y-5.7
X3.25Y-4.9
X3.25Y-5.
X3.25Y-5.1
X3.25Y-5.2
X3.25Y-5.3
X3.25Y-5.4
X3.25Y-5.5
X3.25Y-5.6
X3.25Y-5.7
X3.4Y-4.9
X3.4Y-5.
X3.4Y-5.1
X3.4Y-5.2
X3.4Y-5.3
X3.4Y-5.4
X3.4Y-5.5
X3.4Y-5.6
X3.4Y-5.7
X4.45Y-6.05
X4.45Y-6.15
X4.45Y-6.25
X4.45Y-6.35
X4.45Y-6.45
X4.45Y-6.55
X4.45Y-6.65
X4.45Y-6.75
X4.45Y-6.85
T6
X2.1Y-6.7
X2.4051Y-6.7
T7
X1.45Y-8.45
X1.55Y-8.45
X1.65Y-8.45
X1.85Y-8.45
X1.95Y-8.45
X2.05Y-8.45
X2.25Y-8.45
X2.35Y-8.45
X2.45Y-8.45
X2.7Y-8.45
X2.75Y-0.9
X2.8Y-8.45
X2.85Y-0.9
X3.05Y-8.45
X3.15Y-8.45
X3.25Y-8.45
X3.4Y-0.9
X3.5Y-0.9
X3.5Y-8.45
X3.6Y-0.9
X3.6Y-8.45
X3.7Y-0.9
X3.8Y-0.9
X3.85Y-8.45
X3.9Y-0.9
X3.95Y-8.45
X4.05Y-8.45
X4.1Y-0.85
X4.1Y-0.95
X4.1Y-6.1
X4.1Y-6.3
X4.1Y-6.5
X4.1Y-6.7
X4.2Y-6.1
X4.2Y-6.3
X4.2Y-6.5
X4.2Y-6.7
X4.5Y-0.9
X4.6Y-0.9
X4.7Y-0.9
X4.8Y-0.9
X4.9Y-0.9
X5.Y-0.9
X5.2Y-0.85
X5.2Y-0.95
T8
X2.1Y-6.1
X2.1Y-6.3
X2.4Y-6.1
X2.4Y-6.3
X2.75Y-8.15
X3.05Y-8.15
X3.65Y-8.15
X3.95Y-8.15
X5.8Y-5.2
X5.8Y-5.5
T9
X1.2Y-0.9
X1.2Y-8.5
X5.9Y-0.9
X5.9Y-8.5
T0
M30
