M48
; DRILL file {KiCad (5.1.4)-1} date 10/24/20 17:20:51
; FORMAT={-:-/ absolute / inch / decimal}
; #@! TF.CreationDate,2020-10-24T17:20:51+02:00
; #@! TF.GenerationSoftware,Kicad,Pcbnew,(5.1.4)-1
FMAT,2
INCH
T1C0.0157
T2C0.0315
T3C0.0315
T4C0.0320
T5C0.0354
T6C0.0393
T7C0.0394
T8C0.0591
T9C0.1181
%
G90
G05
T1
X0.9544Y-3.4211
X0.9956Y-3.8898
X1.0261Y-2.2453
X1.0628Y-2.8993
X1.162Y-4.2368
X1.1878Y-4.0784
X1.2059Y-3.7554
X1.2303Y-3.6797
X1.2712Y-3.4557
X1.3083Y-6.9871
X1.3557Y-5.4621
X1.366Y-2.8861
X1.3941Y-4.6404
X1.4006Y-2.3028
X1.4036Y-6.0198
X1.4914Y-6.4868
X1.4948Y-3.0436
X1.5054Y-3.6797
X1.5226Y-7.3088
X1.5371Y-2.2207
X1.5592Y-5.9832
X1.5743Y-7.55
X1.6108Y-4.3803
X1.6439Y-6.9671
X1.6532Y-7.8285
X1.7362Y-5.6546
X1.7542Y-5.9239
X1.7695Y-3.9472
X1.7715Y-2.26
X1.7975Y-2.3957
X1.8299Y-2.4496
X1.8506Y-5.3673
X1.8506Y-6.7781
X1.8925Y-3.0073
X1.9Y-2.9229
X1.95Y-7.85
X1.9722Y-4.5279
X1.991Y-5.4154
X1.9994Y-2.621
X2.0087Y-6.2646
X2.0198Y-4.8214
X2.0326Y-6.9601
X2.0754Y-4.8664
X2.0806Y-6.7486
X2.0869Y-7.1147
X2.0974Y-3.0593
X2.1268Y-6.0098
X2.1292Y-1.7821
X2.1355Y-6.1486
X2.1448Y-3.5967
X2.1625Y-5.38
X2.1626Y-1.8183
X2.1788Y-6.0686
X2.1823Y-6.1776
X2.2011Y-1.8273
X2.2016Y-4.648
X2.2046Y-5.4809
X2.2269Y-7.3496
X2.2293Y-5.3094
X2.2293Y-6.1237
X2.2716Y-6.3072
X2.2864Y-7.3496
X2.2999Y-5.3344
X2.3138Y-2.4209
X2.3268Y-5.3061
X2.3268Y-6.3019
X2.3455Y-2.8381
X2.3654Y-2.4198
X2.3742Y-4.7796
X2.3754Y-2.7305
X2.3865Y-6.9929
X2.3887Y-7.1075
X2.3931Y-5.9342
X2.4Y-2.9835
X2.4Y-2.6295
X2.4Y-7.2129
X2.4033Y-7.0614
X2.4187Y-6.3604
X2.4399Y-6.5461
X2.4445Y-7.7668
X2.4544Y-1.8545
X2.4588Y-3.3655
X2.4624Y-2.5569
X2.4625Y-2.8611
X2.4705Y-7.0067
X2.4705Y-7.0769
X2.477Y-4.6923
X2.4876Y-7.8504
X2.5086Y-5.2288
X2.5122Y-6.0548
X2.5281Y-5.3123
X2.5429Y-2.37
X2.55Y-2.9486
X2.5624Y-6.8517
X2.5772Y-4.6769
X2.5996Y-4.7473
X2.6064Y-1.393
X2.6128Y-4.0357
X2.6245Y-5.8527
X2.645Y-4.0185
X2.6455Y-4.741
X2.6482Y-4.1998
X2.6532Y-7.8273
X2.6703Y-5.1059
X2.6964Y-7.9916
X2.6968Y-6.7126
X2.7169Y-5.1706
X2.7169Y-5.5793
X2.7366Y-6.9052
X2.7399Y-5.6745
X2.7527Y-3.9271
X2.7536Y-4.9426
X2.7657Y-7.8766
X2.7665Y-8.291
X2.7911Y-3.9403
X2.7959Y-5.9652
X2.7988Y-4.3185
X2.7995Y-4.5119
X2.8083Y-5.7951
X2.8167Y-3.3349
X2.8217Y-4.1222
X2.8344Y-5.3394
X2.8441Y-6.1928
X2.8444Y-8.3037
X2.8486Y-4.3883
X2.8487Y-6.4176
X2.8493Y-1.7301
X2.8509Y-4.4605
X2.8557Y-7.1138
X2.8597Y-5.5603
X2.8916Y-2.3744
X2.8916Y-2.7273
X2.892Y-5.7147
X2.9135Y-4.0223
X2.9191Y-3.6721
X2.9376Y-1.9736
X2.9436Y-2.7441
X2.9509Y-2.6433
X2.9513Y-5.2872
X2.9548Y-5.098
X2.9579Y-6.0951
X2.9794Y-4.5211
X2.9808Y-6.3519
X2.9808Y-7.0544
X3.019Y-5.1899
X3.0321Y-2.1311
X3.0444Y-6.2268
X3.0476Y-5.3419
X3.0476Y-5.0107
X3.0566Y-4.4224
X3.0599Y-4.2406
X3.0673Y-4.7849
X3.0796Y-2.5263
X3.0798Y-1.7583
X3.0798Y-7.0958
X3.0869Y-2.9245
X3.1097Y-3.58
X3.1183Y-7.0273
X3.1239Y-3.8634
X3.126Y-4.3971
X3.1382Y-6.2633
X3.1443Y-7.1828
X3.1463Y-3.7029
X3.1593Y-3.8432
X3.1653Y-8.2051
X3.1839Y-4.8488
X3.2085Y-3.9344
X3.2296Y-4.2646
X3.2502Y-6.5238
X3.2655Y-3.8688
X3.2761Y-7.2407
X3.2901Y-3.7604
X3.2941Y-6.5646
X3.3Y-6.0641
X3.3041Y-7.4558
X3.3325Y-4.7877
X3.345Y-3.6112
X3.3553Y-3.7029
X3.3561Y-1.5004
X3.4164Y-7.2311
X3.4286Y-5.7651
X3.4349Y-1.6792
X3.4409Y-3.65
X3.4414Y-5.9999
X3.4509Y-6.9581
X3.4548Y-4.1597
X3.4632Y-5.0017
X3.4669Y-3.5889
X3.4723Y-4.3189
X3.4734Y-3.7239
X3.4789Y-3.6359
X3.4813Y-4.2874
X3.4816Y-3.4197
X3.5058Y-3.5242
X3.52Y-6.6688
X3.5218Y-4.9937
X3.5242Y-4.1789
X3.5259Y-7.4918
X3.5266Y-5.8756
X3.5412Y-5.6862
X3.5428Y-3.8081
X3.5505Y-8.2381
X3.5508Y-3.3752
X3.5528Y-5.8205
X3.5872Y-4.7762
X3.6217Y-5.8445
X3.6247Y-3.7498
X3.6254Y-3.9512
X3.6295Y-8.0519
X3.6323Y-4.7831
X3.633Y-8.0839
X3.6544Y-2.9038
X3.6563Y-3.4714
X3.6601Y-5.3588
X3.6606Y-4.623
X3.6614Y-7.0711
X3.6632Y-5.7656
X3.6735Y-4.5738
X3.6761Y-3.8611
X3.6811Y-5.4569
X3.6871Y-5.2881
X3.691Y-2.4738
X3.7045Y-2.3684
X3.7079Y-3.732
X3.7124Y-5.7083
X3.7143Y-5.0941
X3.7201Y-4.2456
X3.7228Y-2.8885
X3.7323Y-3.2426
X3.747Y-4.0329
X3.7484Y-2.3118
X3.7557Y-3.9302
X3.7578Y-5.3185
X3.7601Y-6.4965
X3.7622Y-7.4631
X3.784Y-6.5352
X3.7859Y-8.0879
X3.8039Y-2.8957
X3.8041Y-5.4752
X3.8183Y-5.6815
X3.8313Y-7.1833
X3.8402Y-1.9601
X3.8487Y-3.7748
X3.8498Y-5.6776
X3.8607Y-2.962
X3.8704Y-3.9298
X3.8707Y-3.8573
X3.8835Y-3.9989
X3.8841Y-5.9281
X3.8974Y-8.3682
X3.898Y-1.9797
X3.9039Y-2.3277
X3.904Y-3.2514
X3.9126Y-3.3476
X3.9176Y-3.9013
X3.9372Y-4.0157
X3.9409Y-6.667
X3.9439Y-3.2616
X3.9466Y-2.0347
X3.9626Y-5.9254
X3.9764Y-2.0186
X3.9819Y-4.014
X3.9822Y-3.8657
X4.0109Y-6.4351
X4.0159Y-7.726
X4.017Y-5.9083
X4.0324Y-2.8843
X4.0485Y-7.8865
X4.0509Y-3.8749
X4.051Y-3.0225
X4.0564Y-7.4672
X4.0605Y-6.6364
X4.1509Y-8.004
X4.1633Y-7.7532
X4.2308Y-4.2068
X4.2399Y-4.3476
X4.2407Y-1.9407
X4.2467Y-2.33
X4.2602Y-6.9249
X4.2639Y-4.7058
X4.2684Y-8.0654
X4.2731Y-4.3139
X4.2876Y-4.1672
X4.2889Y-6.7413
X4.2943Y-2.4002
X4.2977Y-4.3843
X4.3093Y-6.8954
X4.3292Y-7.5832
X4.3712Y-3.955
X4.3782Y-6.2989
X4.3823Y-6.6382
X4.3837Y-6.3664
X4.4197Y-6.2866
X4.429Y-3.955
X4.4557Y-1.9408
X4.4822Y-3.8443
X4.4861Y-4.7846
X4.4879Y-5.7886
X4.5094Y-3.7459
X4.5096Y-4.0698
X4.5307Y-4.2993
X4.5343Y-2.7261
X4.5436Y-4.715
X4.548Y-6.376
X4.5766Y-4.7049
X4.6159Y-4.7453
X4.6443Y-6.1375
X4.6446Y-2.75
X4.6541Y-4.7854
X4.6745Y-6.5097
X4.6762Y-6.0598
X4.6768Y-2.0738
X4.7147Y-3.6694
X4.7305Y-3.4418
X4.7416Y-4.6988
X4.7471Y-3.3698
X4.7657Y-3.7177
X4.7702Y-6.5002
X4.7816Y-2.5142
X4.7972Y-6.2401
X4.7974Y-4.0196
X4.8217Y-4.4202
X4.8358Y-5.9881
X4.8368Y-6.1408
X4.9533Y-2.2928
X4.9732Y-5.9625
X4.991Y-3.3517
X4.993Y-2.7316
X5.0137Y-3.2935
X5.0261Y-4.2953
X5.0755Y-5.65
X5.0943Y-7.1517
X5.0979Y-2.859
X5.1243Y-4.1981
X5.1524Y-3.3412
X5.1591Y-7.1765
X5.1624Y-2.5623
X5.1776Y-4.05
X5.2246Y-3.45
X5.2486Y-7.497
X5.25Y-2.2238
X5.2562Y-4.4458
X5.2979Y-4.9148
X5.2988Y-2.7466
X5.3074Y-3.6721
X5.3074Y-3.928
X5.3219Y-5.3449
X5.3324Y-7.4709
X5.3529Y-5.9189
X5.4202Y-6.0407
X5.4575Y-4.7662
X5.4579Y-4.1496
X5.46Y-1.5952
X5.4927Y-7.6709
X5.5295Y-3.6745
X5.5431Y-3.574
X5.764Y-1.9182
X5.8046Y-7.2345
X5.8333Y-2.5484
X5.9188Y-2.9908
X5.9203Y-4.0519
X6.0635Y-2.7653
T2
X1.1Y-3.3
X1.1Y-3.4
X1.1Y-3.5
X1.1Y-3.6
X1.1Y-3.7
X1.1Y-3.8
X1.1Y-3.9
X1.1Y-4.0
X1.1Y-4.1
X1.1Y-4.2
X1.1Y-4.3
X1.1Y-4.4
X1.1Y-4.5
X1.1Y-4.6
X1.7Y-3.3
X1.7Y-3.4
X1.7Y-3.5
X1.7Y-3.6
X1.7Y-3.7
X1.7Y-3.8
X1.7Y-3.9
X1.7Y-4.0
X1.7Y-4.1
X1.7Y-4.2
X1.7Y-4.3
X1.7Y-4.4
X1.7Y-4.5
X1.7Y-4.6
X2.8Y-4.8
X3.1Y-1.3
X2.3Y-7.1
X4.8Y-5.9
X2.1Y-5.0
X2.1Y-5.1
X2.1Y-5.2
X2.1Y-5.3
X2.1Y-5.4
X2.1Y-5.5
X2.1Y-5.6
X2.4Y-5.0
X2.4Y-5.1
X2.4Y-5.2
X2.4Y-5.3
X2.4Y-5.4
X2.4Y-5.5
X2.4Y-5.6
X4.1Y-3.1
X3.8Y-3.3
X3.8Y-3.4
X3.8Y-3.5
X3.8Y-3.6
X3.8Y-3.7
X3.8Y-3.8
X3.8Y-3.9
X3.8Y-4.0
X3.8Y-4.1
X3.8Y-4.2
X3.8Y-4.3
X3.8Y-4.4
X3.8Y-4.5
X3.8Y-4.6
X4.4Y-3.3
X4.4Y-3.4
X4.4Y-3.5
X4.4Y-3.6
X4.4Y-3.7
X4.4Y-3.8
X4.4Y-3.9
X4.4Y-4.0
X4.4Y-4.1
X4.4Y-4.2
X4.4Y-4.3
X4.4Y-4.4
X4.4Y-4.5
X4.4Y-4.6
X1.1Y-7.3
X1.1Y-7.4
X1.1Y-7.5
X1.1Y-7.6
X1.1Y-7.7
X1.1Y-7.8
X1.1Y-7.9
X1.4Y-7.3
X1.4Y-7.4
X1.4Y-7.5
X1.4Y-7.6
X1.4Y-7.7
X1.4Y-7.8
X1.4Y-7.9
X4.6Y-7.3
X4.6Y-7.4
X4.6Y-7.5
X4.6Y-7.6
X4.6Y-7.7
X4.6Y-7.8
X4.6Y-7.9
X4.9Y-7.3
X4.9Y-7.4
X4.9Y-7.5
X4.9Y-7.6
X4.9Y-7.7
X4.9Y-7.8
X4.9Y-7.9
X2.3Y-4.8
X4.6Y-1.5
X4.6Y-1.6
X4.6Y-1.7
X4.6Y-1.8
X4.6Y-1.9
X4.6Y-2.0
X4.6Y-2.1
X4.6Y-2.2
X4.6Y-2.3
X4.6Y-2.4
X4.6Y-2.5
X4.6Y-2.6
X4.6Y-2.7
X4.6Y-2.8
X5.2Y-1.5
X5.2Y-1.6
X5.2Y-1.7
X5.2Y-1.8
X5.2Y-1.9
X5.2Y-2.0
X5.2Y-2.1
X5.2Y-2.2
X5.2Y-2.3
X5.2Y-2.4
X5.2Y-2.5
X5.2Y-2.6
X5.2Y-2.7
X5.2Y-2.8
X3.6Y-5.0
X3.6Y-5.1
X3.6Y-5.2
X3.6Y-5.3
X3.6Y-5.4
X3.6Y-5.5
X3.6Y-5.6
X3.9Y-5.0
X3.9Y-5.1
X3.9Y-5.2
X3.9Y-5.3
X3.9Y-5.4
X3.9Y-5.5
X3.9Y-5.6
X4.95Y-3.1
X6.05Y-5.2
X3.1Y-6.1
X3.1Y-6.2
X3.1Y-6.3
X3.1Y-6.4
X3.1Y-6.5
X3.1Y-6.6
X3.1Y-6.7
X3.1Y-6.8
X3.4Y-6.1
X3.4Y-6.2
X3.4Y-6.3
X3.4Y-6.4
X3.4Y-6.5
X3.4Y-6.6
X3.4Y-6.7
X3.4Y-6.8
X4.8Y-4.8
X5.6Y-6.1
X5.6Y-6.2
X5.6Y-6.3
X5.6Y-6.4
X5.6Y-6.5
X5.6Y-6.6
X5.6Y-6.7
X5.9Y-6.1
X5.9Y-6.2
X5.9Y-6.3
X5.9Y-6.4
X5.9Y-6.5
X5.9Y-6.6
X5.9Y-6.7
X4.6Y-6.1
X4.6Y-6.2
X4.6Y-6.3
X4.6Y-6.4
X4.6Y-6.5
X4.6Y-6.6
X4.6Y-6.7
X4.6Y-6.8
X4.9Y-6.1
X4.9Y-6.2
X4.9Y-6.3
X4.9Y-6.4
X4.9Y-6.5
X4.9Y-6.6
X4.9Y-6.7
X4.9Y-6.8
X1.8Y-5.9
X3.3Y-7.1
X1.45Y-1.3
X1.1Y-1.5
X1.1Y-1.6
X1.1Y-1.7
X1.1Y-1.8
X1.1Y-1.9
X1.1Y-2.0
X1.1Y-2.1
X1.1Y-2.2
X1.1Y-2.3
X1.1Y-2.4
X1.1Y-2.5
X1.1Y-2.6
X1.1Y-2.7
X1.1Y-2.8
X1.7Y-1.5
X1.7Y-1.6
X1.7Y-1.7
X1.7Y-1.8
X1.7Y-1.9
X1.7Y-2.0
X1.7Y-2.1
X1.7Y-2.2
X1.7Y-2.3
X1.7Y-2.4
X1.7Y-2.5
X1.7Y-2.6
X1.7Y-2.7
X1.7Y-2.8
X5.75Y-3.1
X3.8Y-7.1
X4.6Y-3.3
X4.6Y-3.4
X4.6Y-3.5
X4.6Y-3.6
X4.6Y-3.7
X4.6Y-3.8
X4.6Y-3.9
X4.6Y-4.0
X4.6Y-4.1
X4.6Y-4.2
X4.6Y-4.3
X4.6Y-4.4
X4.6Y-4.5
X4.6Y-4.6
X5.2Y-3.3
X5.2Y-3.4
X5.2Y-3.5
X5.2Y-3.6
X5.2Y-3.7
X5.2Y-3.8
X5.2Y-3.9
X5.2Y-4.0
X5.2Y-4.1
X5.2Y-4.2
X5.2Y-4.3
X5.2Y-4.4
X5.2Y-4.5
X5.2Y-4.6
X1.9Y-1.5
X1.9Y-1.6
X1.9Y-1.7
X1.9Y-1.8
X1.9Y-1.9
X1.9Y-2.0
X1.9Y-2.1
X1.9Y-2.2
X1.9Y-2.3
X1.9Y-2.4
X1.9Y-2.5
X1.9Y-2.6
X1.9Y-2.7
X1.9Y-2.8
X2.5Y-1.5
X2.5Y-1.6
X2.5Y-1.7
X2.5Y-1.8
X2.5Y-1.9
X2.5Y-2.0
X2.5Y-2.1
X2.5Y-2.2
X2.5Y-2.3
X2.5Y-2.4
X2.5Y-2.5
X2.5Y-2.6
X2.5Y-2.7
X2.5Y-2.8
X3.3Y-5.9
X2.25Y-1.3
X2.25Y-3.1
X2.6Y-6.1
X2.6Y-6.2
X2.6Y-6.3
X2.6Y-6.4
X2.6Y-6.5
X2.6Y-6.6
X2.6Y-6.7
X2.9Y-6.1
X2.9Y-6.2
X2.9Y-6.3
X2.9Y-6.4
X2.9Y-6.5
X2.9Y-6.6
X2.9Y-6.7
X2.1Y-7.3
X2.1Y-7.4
X2.1Y-7.5
X2.1Y-7.6
X2.1Y-7.7
X2.1Y-7.8
X2.1Y-7.9
X2.4Y-7.3
X2.4Y-7.4
X2.4Y-7.5
X2.4Y-7.6
X2.4Y-7.7
X2.4Y-7.8
X2.4Y-7.9
X2.6Y-7.3
X2.6Y-7.4
X2.6Y-7.5
X2.6Y-7.6
X2.6Y-7.7
X2.6Y-7.8
X2.6Y-7.9
X2.9Y-7.3
X2.9Y-7.4
X2.9Y-7.5
X2.9Y-7.6
X2.9Y-7.7
X2.9Y-7.8
X2.9Y-7.9
X5.6Y-7.3
X5.6Y-7.4
X5.6Y-7.5
X5.6Y-7.6
X5.6Y-7.7
X5.6Y-7.8
X5.6Y-7.9
X5.9Y-7.3
X5.9Y-7.4
X5.9Y-7.5
X5.9Y-7.6
X5.9Y-7.7
X5.9Y-7.8
X5.9Y-7.9
X1.1Y-6.1
X1.1Y-6.2
X1.1Y-6.3
X1.1Y-6.4
X1.1Y-6.5
X1.1Y-6.6
X1.1Y-6.7
X1.4Y-6.1
X1.4Y-6.2
X1.4Y-6.3
X1.4Y-6.4
X1.4Y-6.5
X1.4Y-6.6
X1.4Y-6.7
X5.1Y-7.3
X5.1Y-7.4
X5.1Y-7.5
X5.1Y-7.6
X5.1Y-7.7
X5.1Y-7.8
X5.1Y-7.9
X5.4Y-7.3
X5.4Y-7.4
X5.4Y-7.5
X5.4Y-7.6
X5.4Y-7.7
X5.4Y-7.8
X5.4Y-7.9
X5.3Y-4.8
X4.6Y-5.0
X4.6Y-5.1
X4.6Y-5.2
X4.6Y-5.3
X4.6Y-5.4
X4.6Y-5.5
X4.6Y-5.6
X4.6Y-5.7
X4.9Y-5.0
X4.9Y-5.1
X4.9Y-5.2
X4.9Y-5.3
X4.9Y-5.4
X4.9Y-5.5
X4.9Y-5.6
X4.9Y-5.7
X5.75Y-1.3
X1.1Y-5.0
X1.1Y-5.1
X1.1Y-5.2
X1.1Y-5.3
X1.1Y-5.4
X1.1Y-5.5
X1.1Y-5.6
X1.4Y-5.0
X1.4Y-5.1
X1.4Y-5.2
X1.4Y-5.3
X1.4Y-5.4
X1.4Y-5.5
X1.4Y-5.6
X5.1Y-6.1
X5.1Y-6.2
X5.1Y-6.3
X5.1Y-6.4
X5.1Y-6.5
X5.1Y-6.6
X5.1Y-6.7
X5.1Y-6.8
X5.4Y-6.1
X5.4Y-6.2
X5.4Y-6.3
X5.4Y-6.4
X5.4Y-6.5
X5.4Y-6.6
X5.4Y-6.7
X5.4Y-6.8
X3.8Y-4.8
X3.8Y-1.5
X3.8Y-1.6
X3.8Y-1.7
X3.8Y-1.8
X3.8Y-1.9
X3.8Y-2.0
X3.8Y-2.1
X3.8Y-2.2
X3.8Y-2.3
X3.8Y-2.4
X3.8Y-2.5
X3.8Y-2.6
X3.8Y-2.7
X3.8Y-2.8
X4.4Y-1.5
X4.4Y-1.6
X4.4Y-1.7
X4.4Y-1.8
X4.4Y-1.9
X4.4Y-2.0
X4.4Y-2.1
X4.4Y-2.2
X4.4Y-2.3
X4.4Y-2.4
X4.4Y-2.5
X4.4Y-2.6
X4.4Y-2.7
X4.4Y-2.8
X3.6Y-7.3
X3.6Y-7.4
X3.6Y-7.5
X3.6Y-7.6
X3.6Y-7.7
X3.6Y-7.8
X3.6Y-7.9
X3.9Y-7.3
X3.9Y-7.4
X3.9Y-7.5
X3.9Y-7.6
X3.9Y-7.7
X3.9Y-7.8
X3.9Y-7.9
X3.8Y-5.9
X4.3Y-7.1
X1.45Y-3.1
X5.8Y-5.9
X3.6Y-6.1
X3.6Y-6.2
X3.6Y-6.3
X3.6Y-6.4
X3.6Y-6.5
X3.6Y-6.6
X3.6Y-6.7
X3.6Y-6.8
X3.9Y-6.1
X3.9Y-6.2
X3.9Y-6.3
X3.9Y-6.4
X3.9Y-6.5
X3.9Y-6.6
X3.9Y-6.7
X3.9Y-6.8
X1.3Y-7.1
X4.15Y-1.3
X5.3Y-7.1
X4.3Y-4.8
X4.95Y-1.3
X2.3Y-6.5
X1.6Y-6.1
X1.6Y-6.2
X1.6Y-6.3
X1.6Y-6.4
X1.9Y-6.1
X1.9Y-6.2
X1.9Y-6.3
X1.9Y-6.4
X2.3016Y-0.9
X2.4Y-0.9
X1.6Y-5.0
X1.6Y-5.1
X1.6Y-5.2
X1.6Y-5.3
X1.6Y-5.4
X1.6Y-5.5
X1.6Y-5.6
X1.9Y-5.0
X1.9Y-5.1
X1.9Y-5.2
X1.9Y-5.3
X1.9Y-5.4
X1.9Y-5.5
X1.9Y-5.6
X2.8Y-7.1
X5.95Y-5.5
X3.1Y-7.3
X3.1Y-7.4
X3.1Y-7.5
X3.1Y-7.6
X3.1Y-7.7
X3.1Y-7.8
X3.1Y-7.9
X3.4Y-7.3
X3.4Y-7.4
X3.4Y-7.5
X3.4Y-7.6
X3.4Y-7.7
X3.4Y-7.8
X3.4Y-7.9
X4.1Y-7.3
X4.1Y-7.4
X4.1Y-7.5
X4.1Y-7.6
X4.1Y-7.7
X4.1Y-7.8
X4.1Y-7.9
X4.4Y-7.3
X4.4Y-7.4
X4.4Y-7.5
X4.4Y-7.6
X4.4Y-7.7
X4.4Y-7.8
X4.4Y-7.9
X1.3Y-5.9
X1.9Y-3.3
X1.9Y-3.4
X1.9Y-3.5
X1.9Y-3.6
X1.9Y-3.7
X1.9Y-3.8
X1.9Y-3.9
X1.9Y-4.0
X1.9Y-4.1
X1.9Y-4.2
X1.9Y-4.3
X1.9Y-4.4
X1.9Y-4.5
X1.9Y-4.6
X2.5Y-3.3
X2.5Y-3.4
X2.5Y-3.5
X2.5Y-3.6
X2.5Y-3.7
X2.5Y-3.8
X2.5Y-3.9
X2.5Y-4.0
X2.5Y-4.1
X2.5Y-4.2
X2.5Y-4.3
X2.5Y-4.4
X2.5Y-4.5
X2.5Y-4.6
X5.4Y-3.3
X5.4Y-3.4
X5.4Y-3.5
X5.4Y-3.6
X5.4Y-3.7
X5.4Y-3.8
X5.4Y-3.9
X5.4Y-4.0
X5.4Y-4.1
X5.4Y-4.2
X5.4Y-4.3
X5.4Y-4.4
X6.0Y-3.3
X6.0Y-3.4
X6.0Y-3.5
X6.0Y-3.6
X6.0Y-3.7
X6.0Y-3.8
X6.0Y-3.9
X6.0Y-4.0
X6.0Y-4.1
X6.0Y-4.2
X6.0Y-4.3
X6.0Y-4.4
X5.8Y-7.1
X1.6Y-7.3
X1.6Y-7.4
X1.6Y-7.5
X1.6Y-7.6
X1.6Y-7.7
X1.6Y-7.8
X1.6Y-7.9
X1.6Y-8.0
X1.9Y-7.3
X1.9Y-7.4
X1.9Y-7.5
X1.9Y-7.6
X1.9Y-7.7
X1.9Y-7.8
X1.9Y-7.9
X1.9Y-8.0
X2.6Y-5.0
X2.6Y-5.1
X2.6Y-5.2
X2.6Y-5.3
X2.6Y-5.4
X2.6Y-5.5
X2.6Y-5.6
X2.9Y-5.0
X2.9Y-5.1
X2.9Y-5.2
X2.9Y-5.3
X2.9Y-5.4
X2.9Y-5.5
X2.9Y-5.6
X1.8Y-4.8
X5.1Y-5.0
X5.1Y-5.1
X5.1Y-5.2
X5.1Y-5.3
X5.1Y-5.4
X5.1Y-5.5
X5.1Y-5.6
X5.1Y-5.7
X5.4Y-5.0
X5.4Y-5.1
X5.4Y-5.2
X5.4Y-5.3
X5.4Y-5.4
X5.4Y-5.5
X5.4Y-5.6
X5.4Y-5.7
X4.1Y-5.0
X4.1Y-5.1
X4.1Y-5.2
X4.1Y-5.3
X4.1Y-5.4
X4.1Y-5.5
X4.1Y-5.6
X4.1Y-5.7
X4.4Y-5.0
X4.4Y-5.1
X4.4Y-5.2
X4.4Y-5.3
X4.4Y-5.4
X4.4Y-5.5
X4.4Y-5.6
X4.4Y-5.7
X5.3Y-5.9
X1.8Y-7.1
X5.4Y-1.5
X5.4Y-1.6
X5.4Y-1.7
X5.4Y-1.8
X5.4Y-1.9
X5.4Y-2.0
X5.4Y-2.1
X5.4Y-2.2
X5.4Y-2.3
X5.4Y-2.4
X5.4Y-2.5
X5.4Y-2.6
X6.0Y-1.5
X6.0Y-1.6
X6.0Y-1.7
X6.0Y-1.8
X6.0Y-1.9
X6.0Y-2.0
X6.0Y-2.1
X6.0Y-2.2
X6.0Y-2.3
X6.0Y-2.4
X6.0Y-2.5
X6.0Y-2.6
X2.7Y-1.5
X2.7Y-1.6
X2.7Y-1.7
X2.7Y-1.8
X2.7Y-1.9
X2.7Y-2.0
X2.7Y-2.1
X2.7Y-2.2
X2.7Y-2.3
X2.7Y-2.4
X2.7Y-2.5
X2.7Y-2.6
X2.7Y-2.7
X2.7Y-2.8
X2.7Y-2.9
X2.7Y-3.0
X2.7Y-3.1
X2.7Y-3.2
X2.7Y-3.3
X2.7Y-3.4
X2.7Y-3.5
X2.7Y-3.6
X2.7Y-3.7
X2.7Y-3.8
X2.7Y-3.9
X2.7Y-4.0
X2.7Y-4.1
X2.7Y-4.2
X2.7Y-4.3
X2.7Y-4.4
X2.7Y-4.5
X2.7Y-4.6
X3.6Y-1.5
X3.6Y-1.6
X3.6Y-1.7
X3.6Y-1.8
X3.6Y-1.9
X3.6Y-2.0
X3.6Y-2.1
X3.6Y-2.2
X3.6Y-2.3
X3.6Y-2.4
X3.6Y-2.5
X3.6Y-2.6
X3.6Y-2.7
X3.6Y-2.8
X3.6Y-2.9
X3.6Y-3.0
X3.6Y-3.1
X3.6Y-3.2
X3.6Y-3.3
X3.6Y-3.4
X3.6Y-3.5
X3.6Y-3.6
X3.6Y-3.7
X3.6Y-3.8
X3.6Y-3.9
X3.6Y-4.0
X3.6Y-4.1
X3.6Y-4.2
X3.6Y-4.3
X3.6Y-4.4
X3.6Y-4.5
X3.6Y-4.6
X2.8Y-5.9
X4.8Y-7.1
X2.1Y-6.5
T3
X4.8516Y-3.1
X5.9516Y-5.2
X4.7016Y-4.8
X1.7016Y-5.9
X3.2016Y-7.1
X1.3516Y-1.3
X5.6516Y-3.1
X3.7016Y-7.1
X3.2016Y-5.9
X2.1516Y-1.3
X2.1516Y-3.1
X5.2016Y-4.8
X5.6516Y-1.3
X3.7016Y-4.8
X3.7016Y-5.9
X4.2016Y-7.1
X1.3516Y-3.1
X5.7016Y-5.9
X1.2016Y-7.1
X4.0516Y-1.3
X5.2016Y-7.1
X5.6Y-5.2539
X5.6Y-5.4461
X4.2016Y-4.8
X4.8516Y-1.3
X2.3984Y-6.5
X2.7016Y-7.1
X6.0484Y-5.5
X1.2016Y-5.9
X5.7016Y-7.1
X1.7016Y-4.8
X5.2016Y-5.9
X1.7016Y-7.1
X2.7016Y-5.9
X4.7016Y-7.1
X2.1984Y-6.5
X2.7016Y-4.8
X3.1984Y-1.3
X2.2016Y-7.1
X4.7016Y-5.9
X4.0016Y-3.1
X2.2016Y-4.8
T4
X4.45Y-6.05
X4.45Y-6.15
X4.45Y-6.25
X4.45Y-6.35
X4.45Y-6.45
X4.45Y-6.55
X4.45Y-6.65
X4.45Y-6.75
X4.45Y-6.85
X3.25Y-4.9
X3.25Y-5.0
X3.25Y-5.1
X3.25Y-5.2
X3.25Y-5.3
X3.25Y-5.4
X3.25Y-5.5
X3.25Y-5.6
X3.25Y-5.7
X3.4Y-4.9
X3.4Y-5.0
X3.4Y-5.1
X3.4Y-5.2
X3.4Y-5.3
X3.4Y-5.4
X3.4Y-5.5
X3.4Y-5.6
X3.4Y-5.7
X3.1Y-4.9
X3.1Y-5.0
X3.1Y-5.1
X3.1Y-5.2
X3.1Y-5.3
X3.1Y-5.4
X3.1Y-5.5
X3.1Y-5.6
X3.1Y-5.7
T5
X2.1Y-6.7
X2.4051Y-6.7
T6
X3.4Y-0.9
X3.5Y-0.9
X3.6Y-0.9
X3.7Y-0.9
X3.8Y-0.9
X3.9Y-0.9
X2.7Y-8.45
X2.8Y-8.45
X1.45Y-8.45
X1.55Y-8.45
X1.65Y-8.45
X3.85Y-8.45
X3.95Y-8.45
X4.05Y-8.45
X1.85Y-8.45
X1.95Y-8.45
X2.05Y-8.45
X4.1Y-6.3
X4.2Y-6.3
X4.5Y-0.9
X4.6Y-0.9
X4.7Y-0.9
X4.8Y-0.9
X4.9Y-0.9
X5.0Y-0.9
X4.1Y-6.1
X4.2Y-6.1
X3.05Y-8.45
X3.15Y-8.45
X3.25Y-8.45
X4.1Y-0.85
X4.1Y-0.95
X4.1Y-6.7
X4.2Y-6.7
X3.5Y-8.45
X3.6Y-8.45
X4.1Y-6.5
X4.2Y-6.5
X2.25Y-8.45
X2.35Y-8.45
X2.45Y-8.45
X5.2Y-0.85
X5.2Y-0.95
X2.75Y-0.9
X2.85Y-0.9
T7
X2.1Y-6.1
X2.4Y-6.1
X2.75Y-8.15
X3.05Y-8.15
X3.65Y-8.15
X3.95Y-8.15
X2.1Y-6.3
X2.4Y-6.3
X5.8Y-5.2
X5.8Y-5.5
T8
X1.7Y-0.8999
X2.1Y-0.8999
T9
X5.9Y-0.9
X1.2Y-0.9
X5.9Y-8.5
X1.2Y-8.5
T0
M30
